%TF.GenerationSoftware,KiCad,Pcbnew,7.0.6*%
%TF.CreationDate,2024-03-14T18:06:26+11:00*%
%TF.ProjectId,Rocketry_Payload_Main_DDR_Spec_V2,526f636b-6574-4727-995f-5061796c6f61,rev?*%
%TF.SameCoordinates,Original*%
%TF.FileFunction,Copper,L2,Bot*%
%TF.FilePolarity,Positive*%
%FSLAX46Y46*%
G04 Gerber Fmt 4.6, Leading zero omitted, Abs format (unit mm)*
G04 Created by KiCad (PCBNEW 7.0.6) date 2024-03-14 18:06:26*
%MOMM*%
%LPD*%
G01*
G04 APERTURE LIST*
G04 Aperture macros list*
%AMRoundRect*
0 Rectangle with rounded corners*
0 $1 Rounding radius*
0 $2 $3 $4 $5 $6 $7 $8 $9 X,Y pos of 4 corners*
0 Add a 4 corners polygon primitive as box body*
4,1,4,$2,$3,$4,$5,$6,$7,$8,$9,$2,$3,0*
0 Add four circle primitives for the rounded corners*
1,1,$1+$1,$2,$3*
1,1,$1+$1,$4,$5*
1,1,$1+$1,$6,$7*
1,1,$1+$1,$8,$9*
0 Add four rect primitives between the rounded corners*
20,1,$1+$1,$2,$3,$4,$5,0*
20,1,$1+$1,$4,$5,$6,$7,0*
20,1,$1+$1,$6,$7,$8,$9,0*
20,1,$1+$1,$8,$9,$2,$3,0*%
G04 Aperture macros list end*
%TA.AperFunction,ComponentPad*%
%ADD10R,1.600000X1.600000*%
%TD*%
%TA.AperFunction,ComponentPad*%
%ADD11C,1.600000*%
%TD*%
%TA.AperFunction,ComponentPad*%
%ADD12C,2.000000*%
%TD*%
%TA.AperFunction,ComponentPad*%
%ADD13RoundRect,0.250001X-0.499999X-0.499999X0.499999X-0.499999X0.499999X0.499999X-0.499999X0.499999X0*%
%TD*%
%TA.AperFunction,ComponentPad*%
%ADD14C,1.500000*%
%TD*%
%TA.AperFunction,ComponentPad*%
%ADD15C,1.400000*%
%TD*%
%TA.AperFunction,ComponentPad*%
%ADD16RoundRect,0.250001X-1.099999X-1.399999X1.099999X-1.399999X1.099999X1.399999X-1.099999X1.399999X0*%
%TD*%
%TA.AperFunction,ComponentPad*%
%ADD17O,2.700000X3.300000*%
%TD*%
%TA.AperFunction,ComponentPad*%
%ADD18R,1.905000X2.000000*%
%TD*%
%TA.AperFunction,ComponentPad*%
%ADD19O,1.905000X2.000000*%
%TD*%
%TA.AperFunction,ComponentPad*%
%ADD20RoundRect,0.250001X-0.499999X0.499999X-0.499999X-0.499999X0.499999X-0.499999X0.499999X0.499999X0*%
%TD*%
%TA.AperFunction,ComponentPad*%
%ADD21RoundRect,0.250001X1.099999X1.399999X-1.099999X1.399999X-1.099999X-1.399999X1.099999X-1.399999X0*%
%TD*%
%TA.AperFunction,ComponentPad*%
%ADD22RoundRect,0.250001X1.399999X-1.099999X1.399999X1.099999X-1.399999X1.099999X-1.399999X-1.099999X0*%
%TD*%
%TA.AperFunction,ComponentPad*%
%ADD23O,3.300000X2.700000*%
%TD*%
%TA.AperFunction,ComponentPad*%
%ADD24R,1.700000X1.700000*%
%TD*%
%TA.AperFunction,ComponentPad*%
%ADD25O,1.700000X1.700000*%
%TD*%
%TA.AperFunction,ComponentPad*%
%ADD26C,1.524000*%
%TD*%
%TA.AperFunction,ComponentPad*%
%ADD27R,2.000000X1.905000*%
%TD*%
%TA.AperFunction,ComponentPad*%
%ADD28O,2.000000X1.905000*%
%TD*%
%TA.AperFunction,ViaPad*%
%ADD29C,1.000000*%
%TD*%
%TA.AperFunction,ViaPad*%
%ADD30C,0.500000*%
%TD*%
%TA.AperFunction,ViaPad*%
%ADD31C,0.800000*%
%TD*%
%TA.AperFunction,ViaPad*%
%ADD32C,1.500000*%
%TD*%
%TA.AperFunction,Conductor*%
%ADD33C,0.250000*%
%TD*%
%TA.AperFunction,Conductor*%
%ADD34C,1.000000*%
%TD*%
%TA.AperFunction,Conductor*%
%ADD35C,0.500000*%
%TD*%
G04 APERTURE END LIST*
D10*
%TO.P,U2,1,GND*%
%TO.N,GND*%
X153162000Y-123444000D03*
D11*
%TO.P,U2,2,0_RX1_CRX2_CS1*%
%TO.N,/0*%
X153162000Y-120904000D03*
%TO.P,U2,3,1_TX1_CTX2_MISO1*%
%TO.N,/1*%
X153162000Y-118364000D03*
%TO.P,U2,4,2_OUT2*%
%TO.N,/2*%
X153162000Y-115824000D03*
%TO.P,U2,5,3_LRCLK2*%
%TO.N,/3*%
X153162000Y-113284000D03*
%TO.P,U2,6,4_BCLK2*%
%TO.N,unconnected-(U2-4_BCLK2-Pad6)*%
X153162000Y-110744000D03*
%TO.P,U2,7,5_IN2*%
%TO.N,unconnected-(U2-5_IN2-Pad7)*%
X153162000Y-108204000D03*
%TO.P,U2,8,6_OUT1D*%
%TO.N,unconnected-(U2-6_OUT1D-Pad8)*%
X153162000Y-105664000D03*
%TO.P,U2,9,7_RX2_OUT1A*%
%TO.N,unconnected-(U2-7_RX2_OUT1A-Pad9)*%
X153162000Y-103124000D03*
%TO.P,U2,10,8_TX2_IN1*%
%TO.N,unconnected-(U2-8_TX2_IN1-Pad10)*%
X153162000Y-100584000D03*
%TO.P,U2,11,9_OUT1C*%
%TO.N,unconnected-(U2-9_OUT1C-Pad11)*%
X153162000Y-98044000D03*
%TO.P,U2,12,10_CS_MQSR*%
%TO.N,unconnected-(U2-10_CS_MQSR-Pad12)*%
X153162000Y-95504000D03*
%TO.P,U2,13,11_MOSI_CTX1*%
%TO.N,unconnected-(U2-11_MOSI_CTX1-Pad13)*%
X153162000Y-92964000D03*
%TO.P,U2,14,12_MISO_MQSL*%
%TO.N,unconnected-(U2-12_MISO_MQSL-Pad14)*%
X153162000Y-90424000D03*
%TO.P,U2,15,3V3*%
%TO.N,unconnected-(U2-3V3-Pad15)*%
X153162000Y-87884000D03*
%TO.P,U2,16,24_A10_TX6_SCL2*%
%TO.N,/SCL2*%
X153162000Y-85344000D03*
%TO.P,U2,17,25_A11_RX6_SDA2*%
%TO.N,/SDA2*%
X153162000Y-82804000D03*
%TO.P,U2,18,26_A12_MOSI1*%
%TO.N,unconnected-(U2-26_A12_MOSI1-Pad18)*%
X153162000Y-80264000D03*
%TO.P,U2,19,27_A13_SCK1*%
%TO.N,/Test_Pin*%
X153162000Y-77724000D03*
%TO.P,U2,20,28_RX7*%
%TO.N,unconnected-(U2-28_RX7-Pad20)*%
X153162000Y-75184000D03*
%TO.P,U2,21,29_TX7*%
%TO.N,unconnected-(U2-29_TX7-Pad21)*%
X153162000Y-72644000D03*
%TO.P,U2,22,30_CRX3*%
%TO.N,unconnected-(U2-30_CRX3-Pad22)*%
X153162000Y-70104000D03*
%TO.P,U2,23,31_CTX3*%
%TO.N,unconnected-(U2-31_CTX3-Pad23)*%
X153162000Y-67564000D03*
%TO.P,U2,24,32_OUT1B*%
%TO.N,unconnected-(U2-32_OUT1B-Pad24)*%
X153162000Y-65024000D03*
%TO.P,U2,25,33_MCLK2*%
%TO.N,unconnected-(U2-33_MCLK2-Pad25)*%
X137922000Y-65024000D03*
%TO.P,U2,26,34_RX8*%
%TO.N,unconnected-(U2-34_RX8-Pad26)*%
X137922000Y-67564000D03*
%TO.P,U2,27,35_TX8*%
%TO.N,unconnected-(U2-35_TX8-Pad27)*%
X137922000Y-70104000D03*
%TO.P,U2,28,36_CS*%
%TO.N,unconnected-(U2-36_CS-Pad28)*%
X137922000Y-72644000D03*
%TO.P,U2,29,37_CS*%
%TO.N,unconnected-(U2-37_CS-Pad29)*%
X137922000Y-75184000D03*
%TO.P,U2,30,38_CS1_IN1*%
%TO.N,unconnected-(U2-38_CS1_IN1-Pad30)*%
X137922000Y-77724000D03*
%TO.P,U2,31,39_MISO1_OUT1A*%
%TO.N,unconnected-(U2-39_MISO1_OUT1A-Pad31)*%
X137922000Y-80264000D03*
%TO.P,U2,32,40_A16*%
%TO.N,unconnected-(U2-40_A16-Pad32)*%
X137922000Y-82804000D03*
%TO.P,U2,33,41_A17*%
%TO.N,unconnected-(U2-41_A17-Pad33)*%
X137922000Y-85344000D03*
%TO.P,U2,34,GND*%
%TO.N,GND*%
X137922000Y-87884000D03*
%TO.P,U2,35,13_SCK_LED*%
%TO.N,unconnected-(U2-13_SCK_LED-Pad35)*%
X137922000Y-90424000D03*
%TO.P,U2,36,14_A0_TX3_SPDIF_OUT*%
%TO.N,unconnected-(U2-14_A0_TX3_SPDIF_OUT-Pad36)*%
X137922000Y-92964000D03*
%TO.P,U2,37,15_A1_RX3_SPDIF_IN*%
%TO.N,unconnected-(U2-15_A1_RX3_SPDIF_IN-Pad37)*%
X137922000Y-95504000D03*
%TO.P,U2,38,16_A2_RX4_SCL1*%
%TO.N,unconnected-(U2-16_A2_RX4_SCL1-Pad38)*%
X137922000Y-98044000D03*
%TO.P,U2,39,17_A3_TX4_SDA1*%
%TO.N,unconnected-(U2-17_A3_TX4_SDA1-Pad39)*%
X137922000Y-100584000D03*
%TO.P,U2,40,18_A4_SDA*%
%TO.N,/SDI{slash}SDA*%
X137922000Y-103124000D03*
%TO.P,U2,41,19_A5_SCL*%
%TO.N,/SCK{slash}SCL*%
X137922000Y-105664000D03*
%TO.P,U2,42,20_A6_TX5_LRCLK1*%
%TO.N,unconnected-(U2-20_A6_TX5_LRCLK1-Pad42)*%
X137922000Y-108204000D03*
%TO.P,U2,43,21_A7_RX5_BCLK1*%
%TO.N,unconnected-(U2-21_A7_RX5_BCLK1-Pad43)*%
X137922000Y-110744000D03*
%TO.P,U2,44,22_A8_CTX1*%
%TO.N,unconnected-(U2-22_A8_CTX1-Pad44)*%
X137922000Y-113284000D03*
%TO.P,U2,45,23_A9_CRX1_MCLK1*%
%TO.N,unconnected-(U2-23_A9_CRX1_MCLK1-Pad45)*%
X137922000Y-115824000D03*
%TO.P,U2,46,3V3*%
%TO.N,/3.3V*%
X137922000Y-118364000D03*
%TO.P,U2,47,GND*%
%TO.N,GND*%
X137922000Y-120904000D03*
%TO.P,U2,48,VIN*%
%TO.N,5V*%
X137922000Y-123444000D03*
%TD*%
D12*
%TO.P,TP4,1,1*%
%TO.N,12V_RAW*%
X167894000Y-69850000D03*
%TD*%
%TO.P,TP3,1,1*%
%TO.N,GND*%
X173355000Y-69850000D03*
%TD*%
%TO.P,TP6,1,1*%
%TO.N,5V*%
X138684000Y-53594000D03*
%TD*%
D13*
%TO.P,J1,1,Pin_1*%
%TO.N,GND*%
X110665000Y-90675000D03*
D14*
%TO.P,J1,2,Pin_2*%
%TO.N,Net-(D5-K)*%
X110665000Y-93675000D03*
%TD*%
D15*
%TO.P,SJ2,1,1*%
%TO.N,Net-(R4-Pad1)*%
X157480000Y-77450000D03*
%TO.P,SJ2,2,2*%
%TO.N,5V*%
X157480000Y-74910000D03*
%TD*%
D16*
%TO.P,J2,1,1*%
%TO.N,Net-(U5-POT)*%
X161925000Y-108585000D03*
D17*
%TO.P,J2,2,2*%
%TO.N,Net-(U5-FBA)*%
X166125000Y-108585000D03*
%TO.P,J2,3,3*%
%TO.N,Net-(U5-AUX)*%
X161925000Y-114085000D03*
%TO.P,J2,4,4*%
%TO.N,unconnected-(J2-Pad4)*%
X166125000Y-114085000D03*
%TD*%
D18*
%TO.P,U7,1,VI*%
%TO.N,12V_PROT*%
X133273800Y-57271800D03*
D19*
%TO.P,U7,2,GND*%
%TO.N,GND*%
X130733800Y-57271800D03*
%TO.P,U7,3,VO*%
%TO.N,5V*%
X128193800Y-57271800D03*
%TD*%
D20*
%TO.P,U4,1,GND*%
%TO.N,GND*%
X130940000Y-123015000D03*
D14*
%TO.P,U4,2,Vin_2-6V*%
%TO.N,/3.3V*%
X130940000Y-126015000D03*
%TO.P,U4,3,SCL*%
%TO.N,/SDI{slash}SDA*%
X127940000Y-123015000D03*
%TO.P,U4,4,SDA*%
%TO.N,/SCK{slash}SCL*%
X127940000Y-126015000D03*
%TD*%
D21*
%TO.P,COMMISIONING_PWR1,1,Pin_1*%
%TO.N,GND*%
X179070000Y-69850000D03*
D17*
%TO.P,COMMISIONING_PWR1,2,Pin_2*%
%TO.N,12V_RAW*%
X179070000Y-64350000D03*
%TD*%
D18*
%TO.P,U8,1,Gate*%
%TO.N,/2*%
X178435000Y-108275000D03*
D19*
%TO.P,U8,2,Source*%
%TO.N,Net-(U5-OUTA)*%
X175895000Y-108275000D03*
%TO.P,U8,3,Drain*%
%TO.N,Net-(J3-Pin_1)*%
X173355000Y-108275000D03*
%TD*%
D22*
%TO.P,J3,1,Pin_1*%
%TO.N,Net-(J3-Pin_1)*%
X172720000Y-120650000D03*
D23*
%TO.P,J3,2,Pin_2*%
%TO.N,Net-(J3-Pin_2)*%
X178220000Y-120650000D03*
%TD*%
D12*
%TO.P,TP5,1,1*%
%TO.N,12V_PROT*%
X157632400Y-60096400D03*
%TD*%
D24*
%TO.P,U6,1,GND*%
%TO.N,GND*%
X130810000Y-113030000D03*
D25*
%TO.P,U6,2,Cross*%
%TO.N,unconnected-(U6-Cross-Pad2)*%
X128270000Y-113030000D03*
%TO.P,U6,3,SCL*%
%TO.N,/SDI{slash}SDA*%
X125730000Y-113030000D03*
%TO.P,U6,4,SDA*%
%TO.N,/SCK{slash}SCL*%
X123190000Y-113030000D03*
%TO.P,U6,5,Vin_2-6V*%
%TO.N,/3.3V*%
X120650000Y-113030000D03*
%TD*%
D12*
%TO.P,TP2,1,1*%
%TO.N,/3.3V*%
X118745000Y-116840000D03*
%TD*%
D26*
%TO.P,U5,1,ERR*%
%TO.N,unconnected-(U5-ERR-Pad1)*%
X161370000Y-75465000D03*
%TO.P,U5,2,RST*%
%TO.N,unconnected-(U5-RST-Pad2)*%
X161390000Y-78005000D03*
%TO.P,U5,3,SCL*%
%TO.N,/SDA2*%
X161390000Y-80545000D03*
%TO.P,U5,4,SDA/AN*%
%TO.N,/SCL2*%
X161390000Y-83085000D03*
%TO.P,U5,5,GND*%
%TO.N,GND*%
X161390000Y-85625000D03*
%TO.P,U5,6,TX*%
%TO.N,unconnected-(U5-TX-Pad6)*%
X161390000Y-88165000D03*
%TO.P,U5,7,RX*%
%TO.N,unconnected-(U5-RX-Pad7)*%
X161390000Y-90705000D03*
%TO.P,U5,8,RC*%
%TO.N,unconnected-(U5-RC-Pad8)*%
X161390000Y-93245000D03*
%TO.P,U5,9,5V*%
%TO.N,unconnected-(U5-5V-Pad9)*%
X161390000Y-95785000D03*
%TO.P,U5,10,GND*%
%TO.N,GND*%
X161390000Y-98325000D03*
%TO.P,U5,11,GND*%
%TO.N,unconnected-(U5-GND-Pad11)*%
X166470000Y-103405000D03*
%TO.P,U5,12,POT*%
%TO.N,Net-(U5-POT)*%
X169010000Y-103405000D03*
%TO.P,U5,13,GND_DNU*%
%TO.N,unconnected-(U5-GND_DNU-Pad13)*%
X171550000Y-103405000D03*
%TO.P,U5,14,VM_DNU*%
%TO.N,unconnected-(U5-VM_DNU-Pad14)*%
X174090000Y-103405000D03*
%TO.P,U5,15,GND_DNU*%
%TO.N,unconnected-(U5-GND_DNU-Pad15)*%
X176630000Y-103405000D03*
%TO.P,U5,16*%
%TO.N,N/C*%
X179170000Y-103405000D03*
%TO.P,U5,17,5V*%
%TO.N,unconnected-(U5-5V-Pad17)*%
X166470000Y-100865000D03*
%TO.P,U5,18,AUX*%
%TO.N,Net-(U5-AUX)*%
X169010000Y-100865000D03*
%TO.P,U5,19,FBT*%
%TO.N,unconnected-(U5-FBT-Pad19)*%
X166470000Y-98325000D03*
%TO.P,U5,20,FBA*%
%TO.N,Net-(U5-FBA)*%
X169010000Y-98325000D03*
%TO.P,U5,21*%
%TO.N,N/C*%
X184250000Y-98325000D03*
%TO.P,U5,22*%
X181710000Y-98325000D03*
%TO.P,U5,23*%
X184250000Y-80545000D03*
%TO.P,U5,24*%
X181710000Y-80545000D03*
%TO.P,U5,25,VIN*%
%TO.N,12V_RAW*%
X183615000Y-84177200D03*
%TO.P,U5,26,GND*%
%TO.N,GND*%
X183615000Y-87682400D03*
%TO.P,U5,27,OUTA*%
%TO.N,Net-(U5-OUTA)*%
X183615000Y-91213000D03*
%TO.P,U5,28,OUTB*%
%TO.N,Net-(J3-Pin_2)*%
X183615000Y-94692800D03*
%TD*%
D27*
%TO.P,U1,1,Gate*%
%TO.N,/3*%
X111435000Y-105410000D03*
D28*
%TO.P,U1,2,Source*%
%TO.N,5V*%
X111435000Y-102870000D03*
%TO.P,U1,3,Drain*%
%TO.N,Net-(D5-K)*%
X111435000Y-100330000D03*
%TD*%
D29*
%TO.N,GND*%
X157480000Y-97155000D03*
D30*
X122072400Y-105359200D03*
X126517400Y-103682800D03*
D31*
X120218200Y-99796600D03*
D29*
X150368000Y-59944000D03*
X144272000Y-61976000D03*
X167894000Y-126746000D03*
D31*
X135305000Y-129617000D03*
X132842000Y-108712000D03*
D32*
X165542500Y-56707500D03*
X152882600Y-57327800D03*
D29*
%TO.N,5V*%
X136906000Y-59182000D03*
X151130000Y-73025000D03*
D31*
%TO.N,/3*%
X158750000Y-121285000D03*
%TO.N,/SCK{slash}SCL*%
X124206000Y-100076000D03*
X123190000Y-109677200D03*
%TO.N,/SDI{slash}SDA*%
X125730000Y-110490000D03*
X125984000Y-99822000D03*
%TD*%
D33*
%TO.N,/SCK{slash}SCL*%
X123190000Y-101092000D02*
X124206000Y-100076000D01*
X123190000Y-109677200D02*
X123190000Y-101092000D01*
D34*
%TO.N,Net-(J3-Pin_2)*%
X186436000Y-105029000D02*
X178145000Y-113320000D01*
X178145000Y-113320000D02*
X178145000Y-120575000D01*
X184862800Y-94692800D02*
X186436000Y-96266000D01*
X183615000Y-94692800D02*
X184862800Y-94692800D01*
X186436000Y-96266000D02*
X186436000Y-105029000D01*
D35*
%TO.N,5V*%
X136906000Y-55372000D02*
X138684000Y-53594000D01*
X120142000Y-120396000D02*
X118110000Y-120396000D01*
X116078000Y-118364000D02*
X116078000Y-104902000D01*
X136906000Y-59182000D02*
X136906000Y-55372000D01*
X151130000Y-73025000D02*
X151130000Y-110236000D01*
X137922000Y-123444000D02*
X134874000Y-123444000D01*
X118110000Y-120396000D02*
X116078000Y-118364000D01*
X116078000Y-104902000D02*
X114046000Y-102870000D01*
X128270000Y-116840000D02*
X123698000Y-116840000D01*
X123698000Y-116840000D02*
X120142000Y-120396000D01*
X114046000Y-102870000D02*
X111435000Y-102870000D01*
X134874000Y-123444000D02*
X128270000Y-116840000D01*
X137922000Y-123444000D02*
X151130000Y-110236000D01*
D33*
%TO.N,/3*%
X158750000Y-118872000D02*
X158750000Y-121285000D01*
X153162000Y-113284000D02*
X158750000Y-118872000D01*
%TO.N,/SDI{slash}SDA*%
X135636000Y-100838000D02*
X137922000Y-103124000D01*
X127762000Y-108458000D02*
X127762000Y-100838000D01*
X127762000Y-100838000D02*
X135636000Y-100838000D01*
X125730000Y-110490000D02*
X127762000Y-108458000D01*
X126746000Y-99822000D02*
X125984000Y-99822000D01*
X127762000Y-100838000D02*
X126746000Y-99822000D01*
%TO.N,Net-(U5-FBA)*%
X169010000Y-98325000D02*
X167205000Y-96520000D01*
X167205000Y-96520000D02*
X165100000Y-96520000D01*
X164465000Y-106680000D02*
X166125000Y-108340000D01*
X165100000Y-96520000D02*
X164465000Y-97155000D01*
X164465000Y-97155000D02*
X164465000Y-106680000D01*
D34*
%TO.N,Net-(J3-Pin_1)*%
X172645000Y-108985000D02*
X172645000Y-120575000D01*
X173355000Y-108275000D02*
X172645000Y-108985000D01*
D33*
%TO.N,/SCL2*%
X153162000Y-85344000D02*
X159131000Y-85344000D01*
X159131000Y-85344000D02*
X161390000Y-83085000D01*
%TO.N,/SDA2*%
X155956000Y-82804000D02*
X158215000Y-80545000D01*
X153162000Y-82804000D02*
X155956000Y-82804000D01*
X158215000Y-80545000D02*
X161390000Y-80545000D01*
%TD*%
%TA.AperFunction,Conductor*%
%TO.N,GND*%
G36*
X144735420Y-50664974D02*
G01*
X144781175Y-50717778D01*
X144791985Y-50759394D01*
X144811917Y-51008408D01*
X144811917Y-51008412D01*
X144811918Y-51008414D01*
X144882044Y-51380327D01*
X144991303Y-51742674D01*
X145138462Y-52091363D01*
X145272601Y-52333524D01*
X145321847Y-52422429D01*
X145366684Y-52486262D01*
X145539374Y-52732116D01*
X145539380Y-52732123D01*
X145539385Y-52732130D01*
X145788610Y-53016953D01*
X146011080Y-53222328D01*
X146066699Y-53273673D01*
X146370491Y-53499372D01*
X146370498Y-53499377D01*
X146696568Y-53691512D01*
X147041213Y-53847899D01*
X147400529Y-53966767D01*
X147770444Y-54046768D01*
X148146766Y-54086997D01*
X148146775Y-54086997D01*
X148430542Y-54086997D01*
X148430544Y-54086997D01*
X148514351Y-54082530D01*
X148713917Y-54071894D01*
X148713921Y-54071893D01*
X148713931Y-54071893D01*
X148713942Y-54071891D01*
X148713944Y-54071891D01*
X148775039Y-54062047D01*
X149087579Y-54011693D01*
X149452712Y-53912117D01*
X149805192Y-53774294D01*
X150141026Y-53599786D01*
X150456407Y-53390570D01*
X150747764Y-53149015D01*
X151011795Y-52877860D01*
X151245507Y-52580176D01*
X151446254Y-52259337D01*
X151611761Y-51918977D01*
X151740151Y-51562952D01*
X151829972Y-51195298D01*
X151880204Y-50820180D01*
X151880204Y-50820156D01*
X151880361Y-50818206D01*
X151880525Y-50817775D01*
X151880642Y-50816907D01*
X151880847Y-50816934D01*
X151905324Y-50752948D01*
X151961606Y-50711545D01*
X152026149Y-50706085D01*
X158673385Y-51914673D01*
X158680070Y-51916278D01*
X164873448Y-53774292D01*
X165014378Y-53816571D01*
X165038124Y-53826481D01*
X172002602Y-57625288D01*
X172019975Y-57636755D01*
X174622540Y-59688061D01*
X174627254Y-59692180D01*
X177089683Y-62073270D01*
X177093661Y-62077494D01*
X177638513Y-62713155D01*
X177667196Y-62776866D01*
X177656881Y-62845970D01*
X177636719Y-62876598D01*
X177601418Y-62915997D01*
X177451957Y-63141907D01*
X177336976Y-63387184D01*
X177336976Y-63387186D01*
X177258942Y-63646557D01*
X177258939Y-63646571D01*
X177245430Y-63738366D01*
X177219500Y-63914561D01*
X177219499Y-63914564D01*
X177219500Y-63914565D01*
X177219500Y-64717636D01*
X177234323Y-64920155D01*
X177234325Y-64920168D01*
X177293217Y-65184546D01*
X177293220Y-65184553D01*
X177389986Y-65437558D01*
X177522559Y-65673777D01*
X177668780Y-65863141D01*
X177688112Y-65888177D01*
X177883109Y-66076177D01*
X177883114Y-66076182D01*
X177883119Y-66076186D01*
X178103421Y-66233799D01*
X178136370Y-66250739D01*
X178344309Y-66357649D01*
X178344318Y-66357652D01*
X178344325Y-66357656D01*
X178504233Y-66412209D01*
X178600685Y-66445115D01*
X178600688Y-66445115D01*
X178600695Y-66445118D01*
X178867067Y-66494319D01*
X179083625Y-66502233D01*
X179137763Y-66504212D01*
X179137763Y-66504211D01*
X179137765Y-66504212D01*
X179407018Y-66474586D01*
X179669088Y-66406072D01*
X179918390Y-66300130D01*
X180149610Y-66159018D01*
X180313948Y-66022255D01*
X180378066Y-65994504D01*
X180447012Y-66005823D01*
X180487412Y-66036871D01*
X180899984Y-66518204D01*
X180903363Y-66522519D01*
X184071117Y-70957374D01*
X184081122Y-70973992D01*
X186615626Y-76043000D01*
X186617720Y-76047663D01*
X188565348Y-80916732D01*
X189150518Y-82379657D01*
X189158629Y-82412015D01*
X189791771Y-88110289D01*
X190424848Y-93174909D01*
X190424848Y-93205669D01*
X189158582Y-103335798D01*
X189151645Y-103363957D01*
X186475990Y-110499034D01*
X186434019Y-110554894D01*
X186368512Y-110579195D01*
X186320940Y-110573220D01*
X186056481Y-110485733D01*
X186056476Y-110485731D01*
X186056471Y-110485730D01*
X186047029Y-110483688D01*
X185686559Y-110405729D01*
X185686552Y-110405728D01*
X185546174Y-110390722D01*
X185310234Y-110365500D01*
X185026456Y-110365500D01*
X185005091Y-110366638D01*
X184743082Y-110380602D01*
X184743055Y-110380605D01*
X184369423Y-110440803D01*
X184369420Y-110440804D01*
X184004297Y-110540377D01*
X184004282Y-110540382D01*
X183788025Y-110624940D01*
X183651808Y-110678203D01*
X183651806Y-110678203D01*
X183651806Y-110678204D01*
X183315974Y-110852711D01*
X183000598Y-111061922D01*
X183000589Y-111061929D01*
X182709246Y-111303472D01*
X182709222Y-111303495D01*
X182445214Y-111574626D01*
X182445206Y-111574635D01*
X182211496Y-111872315D01*
X182211489Y-111872325D01*
X182010748Y-112193154D01*
X182010746Y-112193159D01*
X181845238Y-112533521D01*
X181716847Y-112889549D01*
X181627028Y-113257195D01*
X181627027Y-113257203D01*
X181576797Y-113632310D01*
X181576795Y-113632326D01*
X181568926Y-113927844D01*
X181566721Y-114010650D01*
X181575641Y-114122088D01*
X181596917Y-114387916D01*
X181667044Y-114759830D01*
X181776303Y-115122177D01*
X181923462Y-115470866D01*
X182020074Y-115645280D01*
X182106847Y-115801932D01*
X182122348Y-115824000D01*
X182324374Y-116111619D01*
X182324380Y-116111626D01*
X182324385Y-116111633D01*
X182463386Y-116270488D01*
X182531185Y-116347972D01*
X182573610Y-116396456D01*
X182850921Y-116652457D01*
X182886826Y-116712393D01*
X182884628Y-116782228D01*
X182866009Y-116817968D01*
X180464974Y-120019349D01*
X180409003Y-120061170D01*
X180339307Y-120066091D01*
X180278014Y-120032551D01*
X180251652Y-119993448D01*
X180170130Y-119801610D01*
X180029018Y-119570390D01*
X179967501Y-119496469D01*
X179855746Y-119362180D01*
X179855740Y-119362175D01*
X179654002Y-119181418D01*
X179428092Y-119031957D01*
X179428090Y-119031956D01*
X179216866Y-118932938D01*
X179164522Y-118886660D01*
X179145500Y-118820663D01*
X179145500Y-113785782D01*
X179165185Y-113718743D01*
X179181819Y-113698101D01*
X183151080Y-109728840D01*
X187134487Y-105745433D01*
X187199053Y-105684059D01*
X187234112Y-105633686D01*
X187236925Y-105629957D01*
X187275698Y-105582407D01*
X187291607Y-105551948D01*
X187295667Y-105545248D01*
X187315295Y-105517049D01*
X187339492Y-105460660D01*
X187341498Y-105456435D01*
X187369909Y-105402049D01*
X187379360Y-105369015D01*
X187381991Y-105361628D01*
X187395540Y-105330058D01*
X187407893Y-105269940D01*
X187409006Y-105265412D01*
X187425887Y-105206418D01*
X187428495Y-105172155D01*
X187429587Y-105164376D01*
X187432482Y-105150293D01*
X187436500Y-105130741D01*
X187436500Y-105069401D01*
X187436679Y-105064692D01*
X187441337Y-105003525D01*
X187436997Y-104969441D01*
X187436500Y-104961602D01*
X187436500Y-96278715D01*
X187438757Y-96189641D01*
X187438756Y-96189640D01*
X187438757Y-96189637D01*
X187427933Y-96129249D01*
X187427280Y-96124587D01*
X187421074Y-96063563D01*
X187420084Y-96060407D01*
X187410784Y-96030768D01*
X187408917Y-96023155D01*
X187408679Y-96021829D01*
X187402858Y-95989347D01*
X187380095Y-95932361D01*
X187378527Y-95927955D01*
X187368418Y-95895734D01*
X187360161Y-95869416D01*
X187360160Y-95869414D01*
X187343492Y-95839385D01*
X187340124Y-95832295D01*
X187327378Y-95800383D01*
X187293612Y-95749150D01*
X187291183Y-95745142D01*
X187261409Y-95691498D01*
X187239034Y-95665434D01*
X187234306Y-95659163D01*
X187215404Y-95630484D01*
X187215399Y-95630478D01*
X187193715Y-95608795D01*
X187172019Y-95587099D01*
X187168828Y-95583655D01*
X187128865Y-95537104D01*
X187101694Y-95516072D01*
X187095807Y-95510887D01*
X185579252Y-93994332D01*
X185517859Y-93929747D01*
X185482248Y-93904961D01*
X185467509Y-93894702D01*
X185463746Y-93891864D01*
X185416213Y-93853105D01*
X185416206Y-93853100D01*
X185385759Y-93837197D01*
X185379051Y-93833134D01*
X185350849Y-93813505D01*
X185350846Y-93813503D01*
X185350845Y-93813503D01*
X185350841Y-93813501D01*
X185294480Y-93789314D01*
X185290224Y-93787293D01*
X185235857Y-93758894D01*
X185235850Y-93758891D01*
X185235849Y-93758891D01*
X185229808Y-93757162D01*
X185202830Y-93749442D01*
X185195430Y-93746808D01*
X185163857Y-93733259D01*
X185163858Y-93733259D01*
X185103766Y-93720909D01*
X185099191Y-93719786D01*
X185040220Y-93702913D01*
X185040225Y-93702913D01*
X185005958Y-93700303D01*
X184998180Y-93699212D01*
X184964542Y-93692300D01*
X184964541Y-93692300D01*
X184903202Y-93692300D01*
X184898495Y-93692121D01*
X184892921Y-93691696D01*
X184837324Y-93687462D01*
X184817389Y-93690001D01*
X184803240Y-93691803D01*
X184795411Y-93692300D01*
X184426338Y-93692300D01*
X184359299Y-93672615D01*
X184355232Y-93669887D01*
X184248662Y-93595266D01*
X184048450Y-93501906D01*
X184048447Y-93501905D01*
X184048445Y-93501904D01*
X183835070Y-93444730D01*
X183835062Y-93444729D01*
X183615002Y-93425477D01*
X183614998Y-93425477D01*
X183394937Y-93444729D01*
X183394929Y-93444730D01*
X183181554Y-93501904D01*
X183181548Y-93501907D01*
X182981340Y-93595265D01*
X182981338Y-93595266D01*
X182800377Y-93721975D01*
X182644175Y-93878177D01*
X182517466Y-94059138D01*
X182517465Y-94059140D01*
X182424107Y-94259348D01*
X182424104Y-94259354D01*
X182366930Y-94472729D01*
X182366929Y-94472737D01*
X182347677Y-94692797D01*
X182347677Y-94692802D01*
X182366929Y-94912862D01*
X182366930Y-94912870D01*
X182424104Y-95126245D01*
X182424105Y-95126247D01*
X182424106Y-95126250D01*
X182494545Y-95277308D01*
X182517466Y-95326462D01*
X182517468Y-95326466D01*
X182644170Y-95507415D01*
X182644175Y-95507421D01*
X182800378Y-95663624D01*
X182800384Y-95663629D01*
X182981333Y-95790331D01*
X182981335Y-95790332D01*
X182981338Y-95790334D01*
X183181550Y-95883694D01*
X183394932Y-95940870D01*
X183552123Y-95954622D01*
X183614998Y-95960123D01*
X183615000Y-95960123D01*
X183615002Y-95960123D01*
X183670016Y-95955309D01*
X183835068Y-95940870D01*
X184048450Y-95883694D01*
X184248662Y-95790334D01*
X184337968Y-95727800D01*
X184404174Y-95705473D01*
X184471941Y-95722483D01*
X184496773Y-95741694D01*
X185399181Y-96644102D01*
X185432666Y-96705425D01*
X185435500Y-96731783D01*
X185435500Y-97425691D01*
X185415815Y-97492730D01*
X185363011Y-97538485D01*
X185293853Y-97548429D01*
X185230297Y-97519404D01*
X185223819Y-97513373D01*
X185175898Y-97465452D01*
X185064620Y-97354174D01*
X185064616Y-97354171D01*
X185064615Y-97354170D01*
X184883666Y-97227468D01*
X184883662Y-97227466D01*
X184835179Y-97204858D01*
X184683450Y-97134106D01*
X184683447Y-97134105D01*
X184683445Y-97134104D01*
X184470070Y-97076930D01*
X184470062Y-97076929D01*
X184250002Y-97057677D01*
X184249998Y-97057677D01*
X184029937Y-97076929D01*
X184029929Y-97076930D01*
X183816554Y-97134104D01*
X183816550Y-97134106D01*
X183794103Y-97144572D01*
X183616340Y-97227465D01*
X183616338Y-97227466D01*
X183435377Y-97354175D01*
X183279175Y-97510377D01*
X183152466Y-97691338D01*
X183152465Y-97691340D01*
X183092382Y-97820189D01*
X183046209Y-97872628D01*
X182979016Y-97891780D01*
X182912135Y-97871564D01*
X182867618Y-97820189D01*
X182807534Y-97691340D01*
X182807533Y-97691338D01*
X182680827Y-97510381D01*
X182635898Y-97465452D01*
X182524620Y-97354174D01*
X182524616Y-97354171D01*
X182524615Y-97354170D01*
X182343666Y-97227468D01*
X182343662Y-97227466D01*
X182295179Y-97204858D01*
X182143450Y-97134106D01*
X182143447Y-97134105D01*
X182143445Y-97134104D01*
X181930070Y-97076930D01*
X181930062Y-97076929D01*
X181710002Y-97057677D01*
X181709998Y-97057677D01*
X181489937Y-97076929D01*
X181489929Y-97076930D01*
X181276554Y-97134104D01*
X181276550Y-97134106D01*
X181254103Y-97144572D01*
X181076340Y-97227465D01*
X181076338Y-97227466D01*
X180895377Y-97354175D01*
X180739175Y-97510377D01*
X180612466Y-97691338D01*
X180612465Y-97691340D01*
X180519107Y-97891548D01*
X180519104Y-97891554D01*
X180461930Y-98104929D01*
X180461929Y-98104937D01*
X180442677Y-98324997D01*
X180442677Y-98325002D01*
X180461929Y-98545062D01*
X180461930Y-98545070D01*
X180519104Y-98758445D01*
X180519105Y-98758447D01*
X180519106Y-98758450D01*
X180581337Y-98891905D01*
X180612466Y-98958662D01*
X180612468Y-98958666D01*
X180739170Y-99139615D01*
X180739175Y-99139621D01*
X180895378Y-99295824D01*
X180895384Y-99295829D01*
X181076333Y-99422531D01*
X181076335Y-99422532D01*
X181076338Y-99422534D01*
X181276550Y-99515894D01*
X181489932Y-99573070D01*
X181647123Y-99586822D01*
X181709998Y-99592323D01*
X181710000Y-99592323D01*
X181710002Y-99592323D01*
X181765016Y-99587509D01*
X181930068Y-99573070D01*
X182143450Y-99515894D01*
X182343662Y-99422534D01*
X182524620Y-99295826D01*
X182680826Y-99139620D01*
X182807534Y-98958662D01*
X182867617Y-98829811D01*
X182913790Y-98777371D01*
X182980983Y-98758219D01*
X183047865Y-98778435D01*
X183092382Y-98829811D01*
X183152464Y-98958658D01*
X183152468Y-98958666D01*
X183279170Y-99139615D01*
X183279175Y-99139621D01*
X183435378Y-99295824D01*
X183435384Y-99295829D01*
X183616333Y-99422531D01*
X183616335Y-99422532D01*
X183616338Y-99422534D01*
X183816550Y-99515894D01*
X184029932Y-99573070D01*
X184187123Y-99586822D01*
X184249998Y-99592323D01*
X184250000Y-99592323D01*
X184250002Y-99592323D01*
X184305016Y-99587509D01*
X184470068Y-99573070D01*
X184683450Y-99515894D01*
X184883662Y-99422534D01*
X185064620Y-99295826D01*
X185220826Y-99139620D01*
X185220826Y-99139619D01*
X185223819Y-99136627D01*
X185285142Y-99103142D01*
X185354834Y-99108126D01*
X185410767Y-99149998D01*
X185435184Y-99215462D01*
X185435500Y-99224308D01*
X185435500Y-104563217D01*
X185415815Y-104630256D01*
X185399181Y-104650898D01*
X177446532Y-112603546D01*
X177381946Y-112664942D01*
X177346899Y-112715294D01*
X177344062Y-112719056D01*
X177305302Y-112766592D01*
X177305299Y-112766597D01*
X177289392Y-112797047D01*
X177285324Y-112803761D01*
X177265702Y-112831954D01*
X177241509Y-112888330D01*
X177239488Y-112892584D01*
X177211091Y-112946951D01*
X177211090Y-112946952D01*
X177201640Y-112979975D01*
X177199007Y-112987371D01*
X177185459Y-113018943D01*
X177173113Y-113079019D01*
X177171990Y-113083595D01*
X177155113Y-113142577D01*
X177155113Y-113142579D01*
X177152503Y-113176841D01*
X177151414Y-113184608D01*
X177145980Y-113211052D01*
X177144500Y-113218258D01*
X177144500Y-113279597D01*
X177144321Y-113284306D01*
X177139662Y-113345474D01*
X177141614Y-113360798D01*
X177144003Y-113379560D01*
X177144500Y-113387388D01*
X177144500Y-118890617D01*
X177124815Y-118957656D01*
X177081188Y-118998751D01*
X176896226Y-119102557D01*
X176681822Y-119268112D01*
X176493822Y-119463109D01*
X176493816Y-119463116D01*
X176336202Y-119683419D01*
X176336199Y-119683424D01*
X176212350Y-119924309D01*
X176212343Y-119924327D01*
X176124884Y-120180685D01*
X176124881Y-120180699D01*
X176075681Y-120447068D01*
X176075680Y-120447075D01*
X176065787Y-120717763D01*
X176095413Y-120987013D01*
X176095415Y-120987024D01*
X176163926Y-121249082D01*
X176163928Y-121249088D01*
X176269870Y-121498390D01*
X176364401Y-121653284D01*
X176410979Y-121729605D01*
X176410986Y-121729615D01*
X176584253Y-121937819D01*
X176584259Y-121937824D01*
X176713254Y-122053403D01*
X176785998Y-122118582D01*
X177011910Y-122268044D01*
X177257176Y-122383020D01*
X177257183Y-122383022D01*
X177257185Y-122383023D01*
X177516557Y-122461057D01*
X177516564Y-122461058D01*
X177516569Y-122461060D01*
X177784561Y-122500500D01*
X177784566Y-122500500D01*
X178356112Y-122500500D01*
X178423151Y-122520185D01*
X178468906Y-122572989D01*
X178478850Y-122642147D01*
X178455312Y-122698900D01*
X177736735Y-123657002D01*
X177713664Y-123680482D01*
X172019963Y-128108917D01*
X172002622Y-128120215D01*
X163770434Y-132552931D01*
X163741720Y-132564051D01*
X154815529Y-134795598D01*
X154745717Y-134792760D01*
X154688522Y-134752630D01*
X154662102Y-134687948D01*
X154661834Y-134684983D01*
X154646797Y-134491479D01*
X154646797Y-134491476D01*
X154646796Y-134491475D01*
X154609444Y-134251133D01*
X154603298Y-134211589D01*
X154594132Y-134134752D01*
X154589493Y-134122757D01*
X154572044Y-134010480D01*
X154572044Y-134010479D01*
X154503874Y-133720386D01*
X154490054Y-133651252D01*
X154485284Y-133641280D01*
X154460689Y-133536615D01*
X154365726Y-133237513D01*
X154348694Y-133177337D01*
X154344081Y-133169338D01*
X154313387Y-133072663D01*
X154189392Y-132765836D01*
X154170887Y-132715822D01*
X154166719Y-132709732D01*
X154131004Y-132621355D01*
X154131004Y-132621354D01*
X154028284Y-132414379D01*
X153975599Y-132308221D01*
X153957726Y-132269547D01*
X153954274Y-132265254D01*
X153914606Y-132185324D01*
X153914602Y-132185317D01*
X153725213Y-131867425D01*
X153710504Y-131841218D01*
X153708031Y-131838586D01*
X153665470Y-131767145D01*
X153665469Y-131767145D01*
X153665467Y-131767141D01*
X153439170Y-131446052D01*
X153430708Y-131433412D01*
X153429456Y-131432269D01*
X153385046Y-131369256D01*
X153074991Y-130994005D01*
X153074984Y-130993996D01*
X153074983Y-130993996D01*
X152737128Y-130643596D01*
X152737126Y-130643594D01*
X152737121Y-130643589D01*
X152373417Y-130320065D01*
X152373414Y-130320063D01*
X152373411Y-130320060D01*
X151986010Y-130025327D01*
X151986011Y-130025328D01*
X151577189Y-129761119D01*
X151149341Y-129528977D01*
X150911846Y-129422776D01*
X150704970Y-129330266D01*
X150246696Y-129166156D01*
X150246697Y-129166156D01*
X150246688Y-129166153D01*
X150001090Y-129098908D01*
X149777203Y-129037607D01*
X149777193Y-129037605D01*
X149777194Y-129037605D01*
X149543314Y-128992473D01*
X149299248Y-128945375D01*
X148945409Y-128904860D01*
X148815627Y-128890000D01*
X148815626Y-128890000D01*
X148452142Y-128876406D01*
X148329203Y-128871809D01*
X148329200Y-128871809D01*
X148329197Y-128871809D01*
X147842803Y-128890906D01*
X147359300Y-128947180D01*
X147236755Y-128971065D01*
X146881513Y-129040304D01*
X146412261Y-129169726D01*
X145954293Y-129334690D01*
X145954289Y-129334691D01*
X145954291Y-129334691D01*
X145510294Y-129534228D01*
X145082869Y-129767171D01*
X144698875Y-130016352D01*
X144674544Y-130032141D01*
X144287692Y-130327595D01*
X144287687Y-130327599D01*
X144114118Y-130482574D01*
X143924592Y-130651796D01*
X143924588Y-130651800D01*
X143924588Y-130651799D01*
X143595871Y-130993996D01*
X143587375Y-131002840D01*
X143417493Y-131209224D01*
X143278016Y-131378671D01*
X143278016Y-131378672D01*
X143233695Y-131441806D01*
X143232653Y-131442636D01*
X143223937Y-131455707D01*
X142998341Y-131777071D01*
X142998341Y-131777072D01*
X142955883Y-131848639D01*
X142953805Y-131850573D01*
X142938697Y-131877609D01*
X142775896Y-132152035D01*
X142749980Y-132195721D01*
X142749979Y-132195723D01*
X142749978Y-132195723D01*
X142710432Y-132275781D01*
X142707497Y-132278966D01*
X142689137Y-132318889D01*
X142534398Y-132632146D01*
X142534398Y-132632147D01*
X142498817Y-132720664D01*
X142495221Y-132725222D01*
X142476194Y-132776947D01*
X142447882Y-132847383D01*
X142352852Y-133083803D01*
X142352851Y-133083805D01*
X142322324Y-133180581D01*
X142318279Y-133186605D01*
X142300781Y-133248871D01*
X142206418Y-133548016D01*
X142206415Y-133548027D01*
X142197123Y-133587902D01*
X142181998Y-133652804D01*
X142177722Y-133660366D01*
X142163536Y-133732031D01*
X142095943Y-134022095D01*
X142078692Y-134134469D01*
X142074408Y-134143616D01*
X142065039Y-134223413D01*
X142044375Y-134358030D01*
X142022085Y-134503235D01*
X142008077Y-134687948D01*
X141985275Y-134988607D01*
X141985473Y-135201935D01*
X141965851Y-135268993D01*
X141913089Y-135314797D01*
X141855962Y-135325927D01*
X140285822Y-135256070D01*
X140239872Y-135245011D01*
X138033740Y-134238707D01*
X127722925Y-129535537D01*
X127670102Y-129489807D01*
X127650387Y-129422776D01*
X127666999Y-129360722D01*
X127693812Y-129314281D01*
X127744130Y-129146210D01*
X127754331Y-128971065D01*
X127723865Y-128798289D01*
X127654377Y-128637196D01*
X127549610Y-128496470D01*
X127477747Y-128436170D01*
X127415214Y-128383698D01*
X127415212Y-128383697D01*
X127258437Y-128304961D01*
X127258433Y-128304960D01*
X127087721Y-128264500D01*
X126956291Y-128264500D01*
X126851854Y-128276707D01*
X126825743Y-128279759D01*
X126825740Y-128279760D01*
X126660884Y-128339762D01*
X126660880Y-128339764D01*
X126514306Y-128436167D01*
X126514305Y-128436168D01*
X126393910Y-128563778D01*
X126306188Y-128715718D01*
X126306186Y-128715723D01*
X126301266Y-128732156D01*
X126263179Y-128790732D01*
X126199469Y-128819417D01*
X126131016Y-128809405D01*
X125197731Y-128383697D01*
X124620097Y-128120215D01*
X120004814Y-126015002D01*
X126684723Y-126015002D01*
X126703793Y-126232975D01*
X126703793Y-126232979D01*
X126760422Y-126444322D01*
X126760424Y-126444326D01*
X126760425Y-126444330D01*
X126806661Y-126543484D01*
X126852897Y-126642638D01*
X126852898Y-126642639D01*
X126978402Y-126821877D01*
X127133123Y-126976598D01*
X127312361Y-127102102D01*
X127510670Y-127194575D01*
X127722023Y-127251207D01*
X127904926Y-127267208D01*
X127939998Y-127270277D01*
X127940000Y-127270277D01*
X127940002Y-127270277D01*
X127968254Y-127267805D01*
X128157977Y-127251207D01*
X128369330Y-127194575D01*
X128567639Y-127102102D01*
X128746877Y-126976598D01*
X128901598Y-126821877D01*
X129027102Y-126642639D01*
X129119575Y-126444330D01*
X129176207Y-126232977D01*
X129195277Y-126015002D01*
X129684723Y-126015002D01*
X129703793Y-126232975D01*
X129703793Y-126232979D01*
X129760422Y-126444322D01*
X129760424Y-126444326D01*
X129760425Y-126444330D01*
X129806661Y-126543484D01*
X129852897Y-126642638D01*
X129852898Y-126642639D01*
X129978402Y-126821877D01*
X130133123Y-126976598D01*
X130312361Y-127102102D01*
X130510670Y-127194575D01*
X130722023Y-127251207D01*
X130904926Y-127267208D01*
X130939998Y-127270277D01*
X130940000Y-127270277D01*
X130940002Y-127270277D01*
X130968254Y-127267805D01*
X131157977Y-127251207D01*
X131369330Y-127194575D01*
X131567639Y-127102102D01*
X131746877Y-126976598D01*
X131901598Y-126821877D01*
X132027102Y-126642639D01*
X132119575Y-126444330D01*
X132176207Y-126232977D01*
X132195277Y-126015000D01*
X132176207Y-125797023D01*
X132119575Y-125585670D01*
X132027102Y-125387362D01*
X132027100Y-125387359D01*
X132027099Y-125387357D01*
X131901599Y-125208124D01*
X131901596Y-125208121D01*
X131746877Y-125053402D01*
X131567639Y-124927898D01*
X131567640Y-124927898D01*
X131567638Y-124927897D01*
X131468484Y-124881661D01*
X131369330Y-124835425D01*
X131369326Y-124835424D01*
X131369322Y-124835422D01*
X131157977Y-124778793D01*
X130940002Y-124759723D01*
X130939998Y-124759723D01*
X130794682Y-124772436D01*
X130722023Y-124778793D01*
X130722020Y-124778793D01*
X130510677Y-124835422D01*
X130510668Y-124835426D01*
X130312361Y-124927898D01*
X130312357Y-124927900D01*
X130133121Y-125053402D01*
X129978402Y-125208121D01*
X129852900Y-125387357D01*
X129852898Y-125387361D01*
X129760426Y-125585668D01*
X129760422Y-125585677D01*
X129703793Y-125797020D01*
X129703793Y-125797024D01*
X129684723Y-126014997D01*
X129684723Y-126015002D01*
X129195277Y-126015002D01*
X129195277Y-126015000D01*
X129176207Y-125797023D01*
X129119575Y-125585670D01*
X129027102Y-125387362D01*
X129027100Y-125387359D01*
X129027099Y-125387357D01*
X128901599Y-125208124D01*
X128901596Y-125208121D01*
X128746877Y-125053402D01*
X128567639Y-124927898D01*
X128567640Y-124927898D01*
X128567638Y-124927897D01*
X128468484Y-124881661D01*
X128369330Y-124835425D01*
X128369326Y-124835424D01*
X128369322Y-124835422D01*
X128157977Y-124778793D01*
X127940002Y-124759723D01*
X127939998Y-124759723D01*
X127794682Y-124772436D01*
X127722023Y-124778793D01*
X127722020Y-124778793D01*
X127510677Y-124835422D01*
X127510668Y-124835426D01*
X127312361Y-124927898D01*
X127312357Y-124927900D01*
X127133121Y-125053402D01*
X126978402Y-125208121D01*
X126852900Y-125387357D01*
X126852898Y-125387361D01*
X126760426Y-125585668D01*
X126760422Y-125585677D01*
X126703793Y-125797020D01*
X126703793Y-125797024D01*
X126684723Y-126014997D01*
X126684723Y-126015002D01*
X120004814Y-126015002D01*
X119410494Y-125743909D01*
X119360665Y-125702620D01*
X117462718Y-123015000D01*
X126684723Y-123015000D01*
X126703081Y-123224844D01*
X126703793Y-123232975D01*
X126703793Y-123232979D01*
X126760422Y-123444322D01*
X126760424Y-123444326D01*
X126760425Y-123444330D01*
X126777938Y-123481886D01*
X126852897Y-123642638D01*
X126870438Y-123667689D01*
X126978402Y-123821877D01*
X127133123Y-123976598D01*
X127312361Y-124102102D01*
X127510670Y-124194575D01*
X127510676Y-124194576D01*
X127510677Y-124194577D01*
X127528513Y-124199356D01*
X127722023Y-124251207D01*
X127904926Y-124267208D01*
X127939998Y-124270277D01*
X127940000Y-124270277D01*
X127940002Y-124270277D01*
X127968254Y-124267805D01*
X128157977Y-124251207D01*
X128369330Y-124194575D01*
X128567639Y-124102102D01*
X128746877Y-123976598D01*
X128901598Y-123821877D01*
X129027102Y-123642639D01*
X129119575Y-123444330D01*
X129176207Y-123232977D01*
X129195277Y-123015000D01*
X129195132Y-123013348D01*
X129188260Y-122934791D01*
X129176207Y-122797023D01*
X129167626Y-122765000D01*
X129689999Y-122765000D01*
X130506314Y-122765000D01*
X130480507Y-122805156D01*
X130440000Y-122943111D01*
X130440000Y-123086889D01*
X130480507Y-123224844D01*
X130506314Y-123265000D01*
X129690000Y-123265000D01*
X129690000Y-123564985D01*
X129700493Y-123667689D01*
X129700494Y-123667696D01*
X129755641Y-123834118D01*
X129755643Y-123834123D01*
X129847684Y-123983344D01*
X129971655Y-124107315D01*
X130120876Y-124199356D01*
X130120881Y-124199358D01*
X130287303Y-124254505D01*
X130287310Y-124254506D01*
X130390014Y-124264999D01*
X130390027Y-124265000D01*
X130690000Y-124265000D01*
X130689999Y-123450501D01*
X130797685Y-123499680D01*
X130904237Y-123515000D01*
X130975763Y-123515000D01*
X131082315Y-123499680D01*
X131190000Y-123450501D01*
X131190000Y-124265000D01*
X131489973Y-124265000D01*
X131489985Y-124264999D01*
X131592689Y-124254506D01*
X131592696Y-124254505D01*
X131759118Y-124199358D01*
X131759123Y-124199356D01*
X131908344Y-124107315D01*
X132032315Y-123983344D01*
X132124356Y-123834123D01*
X132124358Y-123834118D01*
X132179505Y-123667696D01*
X132179506Y-123667689D01*
X132189999Y-123564985D01*
X132190000Y-123564972D01*
X132190000Y-123265000D01*
X131373686Y-123265000D01*
X131399493Y-123224844D01*
X131440000Y-123086889D01*
X131440000Y-122943111D01*
X131399493Y-122805156D01*
X131373686Y-122765000D01*
X132190000Y-122765000D01*
X132190000Y-122465027D01*
X132189999Y-122465014D01*
X132179506Y-122362310D01*
X132179505Y-122362303D01*
X132124358Y-122195881D01*
X132124356Y-122195876D01*
X132032315Y-122046655D01*
X131908344Y-121922684D01*
X131759123Y-121830643D01*
X131759118Y-121830641D01*
X131592696Y-121775494D01*
X131592689Y-121775493D01*
X131489985Y-121765000D01*
X131190000Y-121765000D01*
X131190000Y-122579498D01*
X131082315Y-122530320D01*
X130975763Y-122515000D01*
X130904237Y-122515000D01*
X130797685Y-122530320D01*
X130689999Y-122579498D01*
X130690000Y-121765000D01*
X130390014Y-121765000D01*
X130287310Y-121775493D01*
X130287303Y-121775494D01*
X130120881Y-121830641D01*
X130120876Y-121830643D01*
X129971655Y-121922684D01*
X129847684Y-122046655D01*
X129755643Y-122195876D01*
X129755641Y-122195881D01*
X129700494Y-122362303D01*
X129700493Y-122362310D01*
X129690000Y-122465014D01*
X129690000Y-122465027D01*
X129689999Y-122765000D01*
X129167626Y-122765000D01*
X129124717Y-122604861D01*
X129119577Y-122585677D01*
X129119576Y-122585676D01*
X129119575Y-122585670D01*
X129027102Y-122387362D01*
X129027100Y-122387359D01*
X129027099Y-122387357D01*
X128901599Y-122208124D01*
X128832007Y-122138532D01*
X128746877Y-122053402D01*
X128581808Y-121937819D01*
X128567638Y-121927897D01*
X128468484Y-121881661D01*
X128369330Y-121835425D01*
X128369326Y-121835424D01*
X128369322Y-121835422D01*
X128157977Y-121778793D01*
X127940002Y-121759723D01*
X127939998Y-121759723D01*
X127794682Y-121772436D01*
X127722023Y-121778793D01*
X127722020Y-121778793D01*
X127510677Y-121835422D01*
X127510668Y-121835426D01*
X127312361Y-121927898D01*
X127312357Y-121927900D01*
X127133121Y-122053402D01*
X126978402Y-122208121D01*
X126852900Y-122387357D01*
X126852898Y-122387361D01*
X126760426Y-122585668D01*
X126760422Y-122585677D01*
X126703793Y-122797020D01*
X126703793Y-122797023D01*
X126699025Y-122851517D01*
X126684868Y-123013348D01*
X126684723Y-123015000D01*
X117462718Y-123015000D01*
X116131771Y-121130289D01*
X113122448Y-117218169D01*
X113097175Y-117153030D01*
X113111132Y-117084569D01*
X113159886Y-117034520D01*
X113163510Y-117032558D01*
X113266026Y-116979289D01*
X113581407Y-116770073D01*
X113872764Y-116528518D01*
X114136795Y-116257363D01*
X114370507Y-115959679D01*
X114525855Y-115711398D01*
X114571251Y-115638845D01*
X114571251Y-115638844D01*
X114571254Y-115638840D01*
X114736761Y-115298480D01*
X114865151Y-114942455D01*
X114954972Y-114574801D01*
X115005204Y-114199683D01*
X115015279Y-113821350D01*
X114985083Y-113444089D01*
X114914957Y-113072176D01*
X114910472Y-113057302D01*
X114805696Y-112709822D01*
X114693872Y-112444858D01*
X114658539Y-112361137D01*
X114657253Y-112358816D01*
X114543485Y-112153429D01*
X114475153Y-112030068D01*
X114364352Y-111872325D01*
X114257625Y-111720380D01*
X114257620Y-111720374D01*
X114257615Y-111720367D01*
X114008390Y-111435544D01*
X113742946Y-111190497D01*
X113730300Y-111178823D01*
X113426508Y-110953124D01*
X113426505Y-110953122D01*
X113426502Y-110953120D01*
X113100432Y-110760985D01*
X112755787Y-110604598D01*
X112755783Y-110604596D01*
X112755777Y-110604594D01*
X112396475Y-110485731D01*
X112396462Y-110485728D01*
X112026559Y-110405729D01*
X112026552Y-110405728D01*
X111886174Y-110390722D01*
X111650234Y-110365500D01*
X111366456Y-110365500D01*
X111345091Y-110366638D01*
X111083082Y-110380602D01*
X111083055Y-110380605D01*
X110709423Y-110440803D01*
X110709420Y-110440804D01*
X110344297Y-110540377D01*
X110344282Y-110540382D01*
X110128025Y-110624940D01*
X109991808Y-110678203D01*
X109991806Y-110678203D01*
X109991806Y-110678204D01*
X109655974Y-110852711D01*
X109341849Y-111061092D01*
X109275102Y-111081748D01*
X109207784Y-111063039D01*
X109161267Y-111010904D01*
X109155668Y-110996982D01*
X107626798Y-106410370D01*
X109934500Y-106410370D01*
X109934501Y-106410376D01*
X109940908Y-106469983D01*
X109991202Y-106604828D01*
X109991206Y-106604835D01*
X110077452Y-106720044D01*
X110077455Y-106720047D01*
X110192664Y-106806293D01*
X110192671Y-106806297D01*
X110327517Y-106856591D01*
X110327516Y-106856591D01*
X110334444Y-106857335D01*
X110387127Y-106863000D01*
X112482872Y-106862999D01*
X112542483Y-106856591D01*
X112677331Y-106806296D01*
X112792546Y-106720046D01*
X112878796Y-106604831D01*
X112929091Y-106469983D01*
X112935500Y-106410373D01*
X112935499Y-104409628D01*
X112929091Y-104350017D01*
X112920801Y-104327791D01*
X112878797Y-104215171D01*
X112878793Y-104215164D01*
X112792547Y-104099955D01*
X112792544Y-104099952D01*
X112677335Y-104013706D01*
X112677328Y-104013702D01*
X112646687Y-104002274D01*
X112590753Y-103960403D01*
X112566336Y-103894938D01*
X112581188Y-103826665D01*
X112592161Y-103809937D01*
X112702373Y-103668336D01*
X112759083Y-103627524D01*
X112800226Y-103620500D01*
X113683770Y-103620500D01*
X113750809Y-103640185D01*
X113771451Y-103656819D01*
X115291181Y-105176549D01*
X115324666Y-105237872D01*
X115327500Y-105264230D01*
X115327500Y-118300294D01*
X115326191Y-118318263D01*
X115322710Y-118342025D01*
X115327264Y-118394064D01*
X115327500Y-118399470D01*
X115327500Y-118407709D01*
X115331306Y-118440274D01*
X115338000Y-118516791D01*
X115339461Y-118523867D01*
X115339403Y-118523878D01*
X115341034Y-118531237D01*
X115341092Y-118531224D01*
X115342757Y-118538250D01*
X115369025Y-118610424D01*
X115393185Y-118683331D01*
X115396236Y-118689874D01*
X115396182Y-118689898D01*
X115399470Y-118696688D01*
X115399521Y-118696663D01*
X115402761Y-118703113D01*
X115402762Y-118703114D01*
X115402763Y-118703117D01*
X115410716Y-118715209D01*
X115444965Y-118767283D01*
X115485287Y-118832655D01*
X115489766Y-118838319D01*
X115489719Y-118838356D01*
X115494482Y-118844202D01*
X115494528Y-118844164D01*
X115499173Y-118849700D01*
X115555017Y-118902385D01*
X117534270Y-120881638D01*
X117546051Y-120895270D01*
X117560388Y-120914528D01*
X117560389Y-120914529D01*
X117560390Y-120914530D01*
X117569472Y-120922150D01*
X117600409Y-120948111D01*
X117604397Y-120951766D01*
X117610216Y-120957585D01*
X117610220Y-120957588D01*
X117610223Y-120957591D01*
X117635959Y-120977940D01*
X117694786Y-121027302D01*
X117694787Y-121027302D01*
X117694789Y-121027304D01*
X117700818Y-121031270D01*
X117700785Y-121031319D01*
X117707147Y-121035372D01*
X117707179Y-121035321D01*
X117713319Y-121039108D01*
X117713323Y-121039111D01*
X117748132Y-121055342D01*
X117782941Y-121071575D01*
X117833049Y-121096740D01*
X117851567Y-121106040D01*
X117851569Y-121106040D01*
X117858357Y-121108511D01*
X117858336Y-121108567D01*
X117865457Y-121111043D01*
X117865476Y-121110986D01*
X117872322Y-121113254D01*
X117872327Y-121113257D01*
X117872332Y-121113258D01*
X117872335Y-121113259D01*
X117947564Y-121128792D01*
X117947565Y-121128792D01*
X118022279Y-121146500D01*
X118022282Y-121146500D01*
X118022286Y-121146501D01*
X118029453Y-121147339D01*
X118029446Y-121147398D01*
X118036944Y-121148164D01*
X118036950Y-121148105D01*
X118044139Y-121148734D01*
X118044143Y-121148733D01*
X118044144Y-121148734D01*
X118120917Y-121146500D01*
X120078295Y-121146500D01*
X120096265Y-121147809D01*
X120120023Y-121151289D01*
X120172068Y-121146735D01*
X120177470Y-121146500D01*
X120185704Y-121146500D01*
X120185709Y-121146500D01*
X120197327Y-121145141D01*
X120218276Y-121142693D01*
X120231028Y-121141577D01*
X120294797Y-121135999D01*
X120294805Y-121135996D01*
X120301866Y-121134539D01*
X120301878Y-121134598D01*
X120309243Y-121132965D01*
X120309229Y-121132906D01*
X120316246Y-121131241D01*
X120316255Y-121131241D01*
X120388423Y-121104974D01*
X120461334Y-121080814D01*
X120461343Y-121080807D01*
X120467882Y-121077760D01*
X120467908Y-121077816D01*
X120474690Y-121074532D01*
X120474663Y-121074478D01*
X120481106Y-121071240D01*
X120481117Y-121071237D01*
X120545283Y-121029034D01*
X120610656Y-120988712D01*
X120610662Y-120988705D01*
X120616325Y-120984229D01*
X120616362Y-120984277D01*
X120622204Y-120979518D01*
X120622164Y-120979471D01*
X120627691Y-120974832D01*
X120627696Y-120974830D01*
X120649456Y-120951766D01*
X120680386Y-120918981D01*
X121540434Y-120058933D01*
X126245668Y-120058933D01*
X126266757Y-120178527D01*
X126276135Y-120231711D01*
X126345623Y-120392804D01*
X126345624Y-120392806D01*
X126345626Y-120392809D01*
X126393916Y-120457673D01*
X126450390Y-120533530D01*
X126584786Y-120646302D01*
X126646534Y-120677313D01*
X126741562Y-120725038D01*
X126741563Y-120725038D01*
X126741567Y-120725040D01*
X126912279Y-120765500D01*
X126912282Y-120765500D01*
X127043701Y-120765500D01*
X127043709Y-120765500D01*
X127174255Y-120750241D01*
X127339117Y-120690237D01*
X127485696Y-120593830D01*
X127606092Y-120466218D01*
X127693812Y-120314281D01*
X127744130Y-120146210D01*
X127754331Y-119971065D01*
X127723865Y-119798289D01*
X127654377Y-119637196D01*
X127652934Y-119635258D01*
X127549609Y-119496469D01*
X127415214Y-119383698D01*
X127415212Y-119383697D01*
X127258437Y-119304961D01*
X127258433Y-119304960D01*
X127087721Y-119264500D01*
X126956291Y-119264500D01*
X126851854Y-119276707D01*
X126825743Y-119279759D01*
X126825740Y-119279760D01*
X126660884Y-119339762D01*
X126660880Y-119339764D01*
X126514306Y-119436167D01*
X126514305Y-119436168D01*
X126393910Y-119563778D01*
X126306188Y-119715718D01*
X126255870Y-119883789D01*
X126255869Y-119883794D01*
X126245668Y-120058933D01*
X121540434Y-120058933D01*
X123972548Y-117626819D01*
X124033871Y-117593334D01*
X124060229Y-117590500D01*
X127907770Y-117590500D01*
X127974809Y-117610185D01*
X127995451Y-117626819D01*
X134298267Y-123929634D01*
X134310048Y-123943266D01*
X134324390Y-123962530D01*
X134364420Y-123996119D01*
X134368392Y-123999759D01*
X134374223Y-124005590D01*
X134374222Y-124005590D01*
X134399944Y-124025926D01*
X134399944Y-124025927D01*
X134458786Y-124075302D01*
X134458794Y-124075306D01*
X134464824Y-124079273D01*
X134464790Y-124079323D01*
X134471137Y-124083366D01*
X134471169Y-124083316D01*
X134477318Y-124087108D01*
X134477320Y-124087109D01*
X134477323Y-124087111D01*
X134546930Y-124119569D01*
X134615567Y-124154040D01*
X134615576Y-124154042D01*
X134622355Y-124156510D01*
X134622334Y-124156567D01*
X134629451Y-124159040D01*
X134629470Y-124158984D01*
X134636330Y-124161257D01*
X134711531Y-124176784D01*
X134711532Y-124176784D01*
X134786279Y-124194500D01*
X134786288Y-124194500D01*
X134793452Y-124195338D01*
X134793445Y-124195397D01*
X134800946Y-124196163D01*
X134800952Y-124196104D01*
X134808140Y-124196733D01*
X134808143Y-124196732D01*
X134808144Y-124196733D01*
X134884898Y-124194500D01*
X136795337Y-124194500D01*
X136862376Y-124214185D01*
X136896912Y-124247377D01*
X136921954Y-124283141D01*
X137082858Y-124444045D01*
X137082861Y-124444047D01*
X137269266Y-124574568D01*
X137475504Y-124670739D01*
X137695308Y-124729635D01*
X137857230Y-124743801D01*
X137921998Y-124749468D01*
X137922000Y-124749468D01*
X137922002Y-124749468D01*
X137984511Y-124743999D01*
X138148692Y-124729635D01*
X138368496Y-124670739D01*
X138574734Y-124574568D01*
X138761139Y-124444047D01*
X138922047Y-124283139D01*
X139052568Y-124096734D01*
X139148739Y-123890496D01*
X139207635Y-123670692D01*
X139227468Y-123444000D01*
X139212869Y-123277137D01*
X139226635Y-123208639D01*
X139248713Y-123178653D01*
X151615642Y-110811724D01*
X151629271Y-110799947D01*
X151648530Y-110785610D01*
X151648534Y-110785604D01*
X151653788Y-110780650D01*
X151654871Y-110781798D01*
X151705919Y-110747827D01*
X151775780Y-110746710D01*
X151835155Y-110783539D01*
X151865192Y-110846623D01*
X151866280Y-110855422D01*
X151876364Y-110970687D01*
X151876366Y-110970697D01*
X151935258Y-111190488D01*
X151935261Y-111190497D01*
X152031431Y-111396732D01*
X152031432Y-111396734D01*
X152161954Y-111583141D01*
X152322858Y-111744045D01*
X152322861Y-111744047D01*
X152509266Y-111874568D01*
X152567275Y-111901618D01*
X152619714Y-111947791D01*
X152638866Y-112014984D01*
X152618650Y-112081865D01*
X152567275Y-112126382D01*
X152509267Y-112153431D01*
X152509265Y-112153432D01*
X152322858Y-112283954D01*
X152161954Y-112444858D01*
X152031432Y-112631265D01*
X152031431Y-112631267D01*
X151935261Y-112837502D01*
X151935258Y-112837511D01*
X151876366Y-113057302D01*
X151876364Y-113057313D01*
X151856532Y-113283998D01*
X151856532Y-113284001D01*
X151876364Y-113510686D01*
X151876366Y-113510697D01*
X151935258Y-113730488D01*
X151935261Y-113730497D01*
X152031431Y-113936732D01*
X152031432Y-113936734D01*
X152161954Y-114123141D01*
X152322858Y-114284045D01*
X152322861Y-114284047D01*
X152509266Y-114414568D01*
X152567275Y-114441618D01*
X152619714Y-114487791D01*
X152638866Y-114554984D01*
X152618650Y-114621865D01*
X152567275Y-114666382D01*
X152509267Y-114693431D01*
X152509265Y-114693432D01*
X152322858Y-114823954D01*
X152161954Y-114984858D01*
X152031432Y-115171265D01*
X152031431Y-115171267D01*
X151935261Y-115377502D01*
X151935258Y-115377511D01*
X151876366Y-115597302D01*
X151876364Y-115597313D01*
X151856532Y-115823998D01*
X151856532Y-115824001D01*
X151876364Y-116050686D01*
X151876366Y-116050697D01*
X151935258Y-116270488D01*
X151935261Y-116270497D01*
X152031431Y-116476732D01*
X152031432Y-116476734D01*
X152161954Y-116663141D01*
X152322858Y-116824045D01*
X152322861Y-116824047D01*
X152509266Y-116954568D01*
X152567275Y-116981618D01*
X152619714Y-117027791D01*
X152638866Y-117094984D01*
X152618650Y-117161865D01*
X152567275Y-117206382D01*
X152509267Y-117233431D01*
X152509265Y-117233432D01*
X152322858Y-117363954D01*
X152161954Y-117524858D01*
X152031432Y-117711265D01*
X152031431Y-117711267D01*
X151935261Y-117917502D01*
X151935258Y-117917511D01*
X151876366Y-118137302D01*
X151876364Y-118137313D01*
X151856532Y-118363998D01*
X151856532Y-118364001D01*
X151876364Y-118590686D01*
X151876366Y-118590697D01*
X151935258Y-118810488D01*
X151935261Y-118810497D01*
X152031431Y-119016732D01*
X152031432Y-119016734D01*
X152161954Y-119203141D01*
X152322858Y-119364045D01*
X152322861Y-119364047D01*
X152509266Y-119494568D01*
X152567275Y-119521618D01*
X152619714Y-119567791D01*
X152638866Y-119634984D01*
X152618650Y-119701865D01*
X152567275Y-119746382D01*
X152509267Y-119773431D01*
X152509265Y-119773432D01*
X152322858Y-119903954D01*
X152161954Y-120064858D01*
X152031432Y-120251265D01*
X152031431Y-120251267D01*
X151935261Y-120457502D01*
X151935258Y-120457511D01*
X151876366Y-120677302D01*
X151876364Y-120677313D01*
X151856532Y-120903998D01*
X151856532Y-120904001D01*
X151876364Y-121130686D01*
X151876366Y-121130697D01*
X151935258Y-121350488D01*
X151935261Y-121350497D01*
X152031431Y-121556732D01*
X152031432Y-121556734D01*
X152161954Y-121743141D01*
X152322858Y-121904045D01*
X152348086Y-121921710D01*
X152391711Y-121976287D01*
X152398905Y-122045785D01*
X152367382Y-122108140D01*
X152307153Y-122143554D01*
X152290221Y-122146574D01*
X152254626Y-122150401D01*
X152254620Y-122150403D01*
X152119913Y-122200645D01*
X152119906Y-122200649D01*
X152004812Y-122286809D01*
X152004809Y-122286812D01*
X151918649Y-122401906D01*
X151918645Y-122401913D01*
X151868403Y-122536620D01*
X151868401Y-122536627D01*
X151862000Y-122596155D01*
X151862000Y-123194000D01*
X152667148Y-123194000D01*
X152618441Y-123331047D01*
X152608123Y-123481886D01*
X152638884Y-123629915D01*
X152672090Y-123694000D01*
X151862000Y-123694000D01*
X151862000Y-124291844D01*
X151868401Y-124351372D01*
X151868403Y-124351379D01*
X151918645Y-124486086D01*
X151918649Y-124486093D01*
X152004809Y-124601187D01*
X152004812Y-124601190D01*
X152119906Y-124687350D01*
X152119913Y-124687354D01*
X152254620Y-124737596D01*
X152254627Y-124737598D01*
X152314155Y-124743999D01*
X152314172Y-124744000D01*
X152912000Y-124744000D01*
X152911999Y-123935683D01*
X152940819Y-123953209D01*
X153086404Y-123994000D01*
X153199622Y-123994000D01*
X153311783Y-123978584D01*
X153412000Y-123935053D01*
X153412000Y-124744000D01*
X154009828Y-124744000D01*
X154009844Y-124743999D01*
X154069372Y-124737598D01*
X154069379Y-124737596D01*
X154204086Y-124687354D01*
X154204093Y-124687350D01*
X154319187Y-124601190D01*
X154319190Y-124601187D01*
X154405350Y-124486093D01*
X154405354Y-124486086D01*
X154455596Y-124351379D01*
X154455598Y-124351372D01*
X154461999Y-124291844D01*
X154462000Y-124291827D01*
X154462000Y-123694000D01*
X153656852Y-123694000D01*
X153705559Y-123556953D01*
X153715877Y-123406114D01*
X153685116Y-123258085D01*
X153651910Y-123194000D01*
X154462000Y-123194000D01*
X154462000Y-122596172D01*
X154461999Y-122596155D01*
X154455598Y-122536627D01*
X154455596Y-122536620D01*
X154405354Y-122401913D01*
X154405350Y-122401906D01*
X154319190Y-122286812D01*
X154319187Y-122286809D01*
X154204093Y-122200649D01*
X154204086Y-122200645D01*
X154069379Y-122150403D01*
X154069373Y-122150401D01*
X154033778Y-122146574D01*
X153969228Y-122119835D01*
X153929381Y-122062441D01*
X153926888Y-121992616D01*
X153962542Y-121932528D01*
X153975913Y-121921710D01*
X154001139Y-121904047D01*
X154162047Y-121743139D01*
X154292568Y-121556734D01*
X154388739Y-121350496D01*
X154447635Y-121130692D01*
X154466355Y-120916722D01*
X154467468Y-120904001D01*
X154467468Y-120903998D01*
X154454016Y-120750241D01*
X154447635Y-120677308D01*
X154388739Y-120457504D01*
X154292568Y-120251266D01*
X154162047Y-120064861D01*
X154162045Y-120064858D01*
X154001141Y-119903954D01*
X153814734Y-119773432D01*
X153814728Y-119773429D01*
X153756725Y-119746382D01*
X153704285Y-119700210D01*
X153685133Y-119633017D01*
X153705348Y-119566135D01*
X153756725Y-119521618D01*
X153814734Y-119494568D01*
X154001139Y-119364047D01*
X154162047Y-119203139D01*
X154292568Y-119016734D01*
X154388739Y-118810496D01*
X154447635Y-118590692D01*
X154467468Y-118364000D01*
X154465545Y-118342025D01*
X154447635Y-118137313D01*
X154447635Y-118137308D01*
X154388739Y-117917504D01*
X154292568Y-117711266D01*
X154162047Y-117524861D01*
X154162045Y-117524858D01*
X154001141Y-117363954D01*
X153814734Y-117233432D01*
X153814728Y-117233429D01*
X153756725Y-117206382D01*
X153704285Y-117160210D01*
X153685133Y-117093017D01*
X153705348Y-117026135D01*
X153756725Y-116981618D01*
X153814734Y-116954568D01*
X154001139Y-116824047D01*
X154162047Y-116663139D01*
X154292568Y-116476734D01*
X154388739Y-116270496D01*
X154447635Y-116050692D01*
X154467468Y-115824000D01*
X154463609Y-115779896D01*
X154477375Y-115711398D01*
X154525990Y-115661214D01*
X154594018Y-115645280D01*
X154659862Y-115668655D01*
X154674818Y-115681408D01*
X158088181Y-119094771D01*
X158121666Y-119156094D01*
X158124500Y-119182452D01*
X158124500Y-120586312D01*
X158104815Y-120653351D01*
X158092650Y-120669284D01*
X158017466Y-120752784D01*
X157922821Y-120916715D01*
X157922818Y-120916722D01*
X157871543Y-121074532D01*
X157864326Y-121096744D01*
X157844540Y-121285000D01*
X157864326Y-121473256D01*
X157864327Y-121473259D01*
X157922818Y-121653277D01*
X157922821Y-121653284D01*
X158017467Y-121817216D01*
X158111553Y-121921709D01*
X158144129Y-121957888D01*
X158297265Y-122069148D01*
X158297270Y-122069151D01*
X158470192Y-122146142D01*
X158470197Y-122146144D01*
X158655354Y-122185500D01*
X158655355Y-122185500D01*
X158844644Y-122185500D01*
X158844646Y-122185500D01*
X159029803Y-122146144D01*
X159202730Y-122069151D01*
X159355871Y-121957888D01*
X159482533Y-121817216D01*
X159492464Y-121800015D01*
X170569500Y-121800015D01*
X170580000Y-121902795D01*
X170580001Y-121902797D01*
X170591608Y-121937824D01*
X170635186Y-122069335D01*
X170635187Y-122069337D01*
X170727286Y-122218651D01*
X170727289Y-122218655D01*
X170851344Y-122342710D01*
X170851348Y-122342713D01*
X171000662Y-122434812D01*
X171000664Y-122434813D01*
X171000666Y-122434814D01*
X171167203Y-122489999D01*
X171269992Y-122500500D01*
X171269997Y-122500500D01*
X174170003Y-122500500D01*
X174170008Y-122500500D01*
X174272797Y-122489999D01*
X174439334Y-122434814D01*
X174588655Y-122342711D01*
X174712711Y-122218655D01*
X174804814Y-122069334D01*
X174859999Y-121902797D01*
X174870500Y-121800008D01*
X174870500Y-119499992D01*
X174859999Y-119397203D01*
X174804814Y-119230666D01*
X174787836Y-119203141D01*
X174712713Y-119081348D01*
X174712710Y-119081344D01*
X174588655Y-118957289D01*
X174588651Y-118957286D01*
X174439337Y-118865187D01*
X174439335Y-118865186D01*
X174341147Y-118832650D01*
X174272797Y-118810001D01*
X174272795Y-118810000D01*
X174170015Y-118799500D01*
X174170008Y-118799500D01*
X173769500Y-118799500D01*
X173702461Y-118779815D01*
X173656706Y-118727011D01*
X173645500Y-118675500D01*
X173645500Y-109847543D01*
X173665185Y-109780504D01*
X173717989Y-109734749D01*
X173729237Y-109730262D01*
X173762645Y-109718793D01*
X173940664Y-109657679D01*
X174152439Y-109543072D01*
X174342463Y-109395171D01*
X174505551Y-109218010D01*
X174521190Y-109194071D01*
X174574336Y-109148714D01*
X174643567Y-109139290D01*
X174706904Y-109168791D01*
X174728808Y-109194070D01*
X174744449Y-109218010D01*
X174907537Y-109395171D01*
X175097561Y-109543072D01*
X175309336Y-109657679D01*
X175366196Y-109677199D01*
X175537083Y-109735865D01*
X175537085Y-109735865D01*
X175537087Y-109735866D01*
X175774601Y-109775500D01*
X175774602Y-109775500D01*
X176015398Y-109775500D01*
X176015399Y-109775500D01*
X176252913Y-109735866D01*
X176480664Y-109657679D01*
X176692439Y-109543072D01*
X176834931Y-109432165D01*
X176899923Y-109406524D01*
X176968463Y-109420090D01*
X177018788Y-109468558D01*
X177027274Y-109486687D01*
X177038702Y-109517328D01*
X177038706Y-109517335D01*
X177124952Y-109632544D01*
X177124955Y-109632547D01*
X177240164Y-109718793D01*
X177240171Y-109718797D01*
X177375017Y-109769091D01*
X177375016Y-109769091D01*
X177381944Y-109769835D01*
X177434627Y-109775500D01*
X179435372Y-109775499D01*
X179494983Y-109769091D01*
X179629831Y-109718796D01*
X179745046Y-109632546D01*
X179831296Y-109517331D01*
X179881591Y-109382483D01*
X179888000Y-109322873D01*
X179887999Y-107227128D01*
X179881591Y-107167517D01*
X179876858Y-107154828D01*
X179831297Y-107032671D01*
X179831293Y-107032664D01*
X179745047Y-106917455D01*
X179745044Y-106917452D01*
X179629835Y-106831206D01*
X179629828Y-106831202D01*
X179494982Y-106780908D01*
X179494983Y-106780908D01*
X179435383Y-106774501D01*
X179435381Y-106774500D01*
X179435373Y-106774500D01*
X179435364Y-106774500D01*
X177434629Y-106774500D01*
X177434623Y-106774501D01*
X177375016Y-106780908D01*
X177240171Y-106831202D01*
X177240164Y-106831206D01*
X177124955Y-106917452D01*
X177124952Y-106917455D01*
X177038706Y-107032664D01*
X177038700Y-107032675D01*
X177027273Y-107063313D01*
X176985402Y-107119247D01*
X176919937Y-107143663D01*
X176851664Y-107128811D01*
X176834930Y-107117832D01*
X176692447Y-107006933D01*
X176692441Y-107006929D01*
X176480665Y-106892321D01*
X176480656Y-106892318D01*
X176252916Y-106814134D01*
X176053800Y-106780908D01*
X176015399Y-106774500D01*
X175774601Y-106774500D01*
X175736200Y-106780908D01*
X175537083Y-106814134D01*
X175309343Y-106892318D01*
X175309334Y-106892321D01*
X175097558Y-107006929D01*
X174994062Y-107087484D01*
X174907537Y-107154829D01*
X174744449Y-107331990D01*
X174728808Y-107355931D01*
X174675661Y-107401287D01*
X174606430Y-107410710D01*
X174543094Y-107381207D01*
X174521192Y-107355931D01*
X174505551Y-107331990D01*
X174342463Y-107154829D01*
X174184914Y-107032204D01*
X174152441Y-107006929D01*
X173940665Y-106892321D01*
X173940656Y-106892318D01*
X173712916Y-106814134D01*
X173513800Y-106780908D01*
X173475399Y-106774500D01*
X173234601Y-106774500D01*
X173196200Y-106780908D01*
X172997083Y-106814134D01*
X172769343Y-106892318D01*
X172769334Y-106892321D01*
X172557558Y-107006929D01*
X172454062Y-107087484D01*
X172367537Y-107154829D01*
X172367534Y-107154831D01*
X172367534Y-107154832D01*
X172204449Y-107331990D01*
X172072743Y-107533581D01*
X171976017Y-107754094D01*
X171916904Y-107987527D01*
X171902000Y-108167402D01*
X171902000Y-108262224D01*
X171882315Y-108329263D01*
X171879774Y-108333062D01*
X171846899Y-108380294D01*
X171844062Y-108384056D01*
X171805302Y-108431592D01*
X171805299Y-108431597D01*
X171789392Y-108462047D01*
X171785324Y-108468761D01*
X171765702Y-108496954D01*
X171741509Y-108553330D01*
X171739488Y-108557584D01*
X171711091Y-108611951D01*
X171711090Y-108611952D01*
X171701640Y-108644975D01*
X171699007Y-108652371D01*
X171685459Y-108683943D01*
X171673113Y-108744019D01*
X171671990Y-108748595D01*
X171655113Y-108807577D01*
X171655113Y-108807579D01*
X171652503Y-108841841D01*
X171651414Y-108849608D01*
X171648756Y-108862548D01*
X171644500Y-108883258D01*
X171644500Y-108944597D01*
X171644321Y-108949306D01*
X171639662Y-109010474D01*
X171640931Y-109020433D01*
X171644003Y-109044560D01*
X171644500Y-109052388D01*
X171644500Y-118675500D01*
X171624815Y-118742539D01*
X171572011Y-118788294D01*
X171520500Y-118799500D01*
X171269984Y-118799500D01*
X171167204Y-118810000D01*
X171167203Y-118810001D01*
X171000664Y-118865186D01*
X171000662Y-118865187D01*
X170851348Y-118957286D01*
X170851344Y-118957289D01*
X170727289Y-119081344D01*
X170727286Y-119081348D01*
X170635187Y-119230662D01*
X170635186Y-119230664D01*
X170580001Y-119397203D01*
X170580000Y-119397204D01*
X170569500Y-119499984D01*
X170569500Y-121800015D01*
X159492464Y-121800015D01*
X159577179Y-121653284D01*
X159635674Y-121473256D01*
X159655460Y-121285000D01*
X159635674Y-121096744D01*
X159577179Y-120916716D01*
X159482533Y-120752784D01*
X159457552Y-120725040D01*
X159407350Y-120669284D01*
X159377120Y-120606292D01*
X159375500Y-120586312D01*
X159375500Y-118954737D01*
X159377224Y-118939123D01*
X159376938Y-118939096D01*
X159377672Y-118931333D01*
X159376762Y-118902385D01*
X159375500Y-118862202D01*
X159375500Y-118832650D01*
X159374629Y-118825759D01*
X159374172Y-118819945D01*
X159372709Y-118773374D01*
X159372709Y-118773372D01*
X159367120Y-118754137D01*
X159363174Y-118735084D01*
X159360664Y-118715208D01*
X159343501Y-118671859D01*
X159341614Y-118666346D01*
X159328617Y-118621610D01*
X159328616Y-118621608D01*
X159318421Y-118604369D01*
X159309860Y-118586893D01*
X159302486Y-118568269D01*
X159302486Y-118568267D01*
X159280680Y-118538255D01*
X159275083Y-118530550D01*
X159271900Y-118525705D01*
X159248170Y-118485579D01*
X159248165Y-118485573D01*
X159234005Y-118471413D01*
X159221370Y-118456620D01*
X159209593Y-118440412D01*
X159173693Y-118410713D01*
X159169381Y-118406790D01*
X155215227Y-114452636D01*
X160074500Y-114452636D01*
X160089323Y-114655155D01*
X160089325Y-114655168D01*
X160148217Y-114919546D01*
X160148220Y-114919553D01*
X160244986Y-115172558D01*
X160377559Y-115408777D01*
X160490624Y-115555202D01*
X160543112Y-115623177D01*
X160738109Y-115811177D01*
X160738114Y-115811182D01*
X160738119Y-115811186D01*
X160958421Y-115968799D01*
X161032301Y-116006783D01*
X161199309Y-116092649D01*
X161199318Y-116092652D01*
X161199325Y-116092656D01*
X161311796Y-116131026D01*
X161455685Y-116180115D01*
X161455688Y-116180115D01*
X161455695Y-116180118D01*
X161722067Y-116229319D01*
X161938625Y-116237233D01*
X161992763Y-116239212D01*
X161992763Y-116239211D01*
X161992765Y-116239212D01*
X162262018Y-116209586D01*
X162524088Y-116141072D01*
X162773390Y-116035130D01*
X163004610Y-115894018D01*
X163212820Y-115720745D01*
X163393582Y-115519002D01*
X163543044Y-115293090D01*
X163658020Y-115047824D01*
X163736060Y-114788431D01*
X163775500Y-114520439D01*
X163775500Y-114452636D01*
X164274500Y-114452636D01*
X164289323Y-114655155D01*
X164289325Y-114655168D01*
X164348217Y-114919546D01*
X164348220Y-114919553D01*
X164444986Y-115172558D01*
X164577559Y-115408777D01*
X164690624Y-115555202D01*
X164743112Y-115623177D01*
X164938109Y-115811177D01*
X164938114Y-115811182D01*
X164938119Y-115811186D01*
X165158421Y-115968799D01*
X165232301Y-116006783D01*
X165399309Y-116092649D01*
X165399318Y-116092652D01*
X165399325Y-116092656D01*
X165511796Y-116131026D01*
X165655685Y-116180115D01*
X165655688Y-116180115D01*
X165655695Y-116180118D01*
X165922067Y-116229319D01*
X166138625Y-116237233D01*
X166192763Y-116239212D01*
X166192763Y-116239211D01*
X166192765Y-116239212D01*
X166462018Y-116209586D01*
X166724088Y-116141072D01*
X166973390Y-116035130D01*
X167204610Y-115894018D01*
X167412820Y-115720745D01*
X167593582Y-115519002D01*
X167743044Y-115293090D01*
X167858020Y-115047824D01*
X167936060Y-114788431D01*
X167975500Y-114520439D01*
X167975500Y-113717369D01*
X167975388Y-113715842D01*
X167969654Y-113637499D01*
X167960677Y-113514844D01*
X167952685Y-113478966D01*
X167901782Y-113250453D01*
X167901780Y-113250449D01*
X167901780Y-113250447D01*
X167805014Y-112997442D01*
X167672441Y-112761223D01*
X167506888Y-112546823D01*
X167405693Y-112449259D01*
X167311890Y-112358822D01*
X167311883Y-112358816D01*
X167311881Y-112358814D01*
X167091579Y-112201201D01*
X167075937Y-112193159D01*
X166850690Y-112077350D01*
X166850672Y-112077343D01*
X166594314Y-111989884D01*
X166594300Y-111989881D01*
X166548621Y-111981443D01*
X166327933Y-111940681D01*
X166327930Y-111940680D01*
X166327924Y-111940680D01*
X166057236Y-111930787D01*
X165787986Y-111960413D01*
X165787975Y-111960415D01*
X165525917Y-112028926D01*
X165525912Y-112028927D01*
X165525912Y-112028928D01*
X165523227Y-112030069D01*
X165276610Y-112134870D01*
X165045394Y-112275979D01*
X165045384Y-112275986D01*
X164837180Y-112449253D01*
X164837175Y-112449259D01*
X164656418Y-112650997D01*
X164506957Y-112876907D01*
X164391976Y-113122184D01*
X164391976Y-113122186D01*
X164313942Y-113381557D01*
X164313939Y-113381571D01*
X164294936Y-113510697D01*
X164274500Y-113649561D01*
X164274500Y-113649565D01*
X164274500Y-114452636D01*
X163775500Y-114452636D01*
X163775500Y-113717369D01*
X163775388Y-113715842D01*
X163769654Y-113637499D01*
X163760677Y-113514844D01*
X163752685Y-113478966D01*
X163701782Y-113250453D01*
X163701780Y-113250449D01*
X163701780Y-113250447D01*
X163605014Y-112997442D01*
X163472441Y-112761223D01*
X163306888Y-112546823D01*
X163205693Y-112449259D01*
X163111890Y-112358822D01*
X163111883Y-112358816D01*
X163111881Y-112358814D01*
X162891579Y-112201201D01*
X162875937Y-112193159D01*
X162650690Y-112077350D01*
X162650672Y-112077343D01*
X162394314Y-111989884D01*
X162394300Y-111989881D01*
X162348621Y-111981443D01*
X162127933Y-111940681D01*
X162127930Y-111940680D01*
X162127924Y-111940680D01*
X161857236Y-111930787D01*
X161587986Y-111960413D01*
X161587975Y-111960415D01*
X161325917Y-112028926D01*
X161325912Y-112028927D01*
X161325912Y-112028928D01*
X161323227Y-112030069D01*
X161076610Y-112134870D01*
X160845394Y-112275979D01*
X160845384Y-112275986D01*
X160637180Y-112449253D01*
X160637175Y-112449259D01*
X160456418Y-112650997D01*
X160306957Y-112876907D01*
X160191976Y-113122184D01*
X160191976Y-113122186D01*
X160113942Y-113381557D01*
X160113939Y-113381571D01*
X160094936Y-113510697D01*
X160074500Y-113649561D01*
X160074500Y-113649565D01*
X160074500Y-114452636D01*
X155215227Y-114452636D01*
X154461413Y-113698822D01*
X154427928Y-113637499D01*
X154429319Y-113579048D01*
X154446522Y-113514844D01*
X154447635Y-113510692D01*
X154467468Y-113284000D01*
X154465841Y-113265408D01*
X154458093Y-113176841D01*
X154447635Y-113057308D01*
X154388739Y-112837504D01*
X154292568Y-112631266D01*
X154194839Y-112491693D01*
X154162045Y-112444858D01*
X154001141Y-112283954D01*
X153814734Y-112153432D01*
X153814728Y-112153429D01*
X153769142Y-112132172D01*
X153756724Y-112126381D01*
X153704285Y-112080210D01*
X153685133Y-112013017D01*
X153705348Y-111946135D01*
X153756725Y-111901618D01*
X153814734Y-111874568D01*
X154001139Y-111744047D01*
X154162047Y-111583139D01*
X154292568Y-111396734D01*
X154388739Y-111190496D01*
X154447635Y-110970692D01*
X154467468Y-110744000D01*
X154466183Y-110729318D01*
X154461712Y-110678204D01*
X154447635Y-110517308D01*
X154388739Y-110297504D01*
X154292568Y-110091266D01*
X154253181Y-110035015D01*
X160074500Y-110035015D01*
X160085000Y-110137795D01*
X160085001Y-110137796D01*
X160140186Y-110304335D01*
X160140187Y-110304337D01*
X160232286Y-110453651D01*
X160232289Y-110453655D01*
X160356344Y-110577710D01*
X160356348Y-110577713D01*
X160505662Y-110669812D01*
X160505664Y-110669813D01*
X160505666Y-110669814D01*
X160672203Y-110724999D01*
X160774992Y-110735500D01*
X160774997Y-110735500D01*
X163075003Y-110735500D01*
X163075008Y-110735500D01*
X163177797Y-110724999D01*
X163344334Y-110669814D01*
X163493655Y-110577711D01*
X163617711Y-110453655D01*
X163709814Y-110304334D01*
X163764999Y-110137797D01*
X163775500Y-110035008D01*
X163775500Y-107176780D01*
X163795185Y-107109742D01*
X163847989Y-107063987D01*
X163917147Y-107054043D01*
X163980703Y-107083068D01*
X163999817Y-107103895D01*
X164005402Y-107111583D01*
X164005406Y-107111587D01*
X164033688Y-107134984D01*
X164041309Y-107141288D01*
X164045620Y-107145210D01*
X164232398Y-107331988D01*
X164372136Y-107471726D01*
X164405621Y-107533049D01*
X164400637Y-107602741D01*
X164396735Y-107612030D01*
X164391981Y-107622172D01*
X164391976Y-107622186D01*
X164313942Y-107881557D01*
X164313939Y-107881571D01*
X164302121Y-107961875D01*
X164274500Y-108149561D01*
X164274500Y-108149564D01*
X164274500Y-108149565D01*
X164274500Y-108952636D01*
X164289323Y-109155155D01*
X164289325Y-109155168D01*
X164348217Y-109419546D01*
X164348220Y-109419553D01*
X164444986Y-109672558D01*
X164577559Y-109908777D01*
X164743112Y-110123176D01*
X164743112Y-110123177D01*
X164938109Y-110311177D01*
X164938114Y-110311182D01*
X164938119Y-110311186D01*
X165158421Y-110468799D01*
X165208280Y-110494433D01*
X165399309Y-110592649D01*
X165399318Y-110592652D01*
X165399325Y-110592656D01*
X165541243Y-110641072D01*
X165655685Y-110680115D01*
X165655688Y-110680115D01*
X165655695Y-110680118D01*
X165922067Y-110729319D01*
X166138625Y-110737233D01*
X166192763Y-110739212D01*
X166192763Y-110739211D01*
X166192765Y-110739212D01*
X166462018Y-110709586D01*
X166724088Y-110641072D01*
X166973390Y-110535130D01*
X167204610Y-110394018D01*
X167412820Y-110220745D01*
X167593582Y-110019002D01*
X167743044Y-109793090D01*
X167858020Y-109547824D01*
X167922179Y-109334570D01*
X167936057Y-109288442D01*
X167936057Y-109288438D01*
X167936060Y-109288431D01*
X167975500Y-109020439D01*
X167975500Y-108217369D01*
X167975296Y-108214586D01*
X167970390Y-108147547D01*
X167960677Y-108014844D01*
X167903354Y-107757511D01*
X167901782Y-107750453D01*
X167901780Y-107750449D01*
X167901780Y-107750447D01*
X167805014Y-107497442D01*
X167672441Y-107261223D01*
X167506888Y-107046823D01*
X167412718Y-106956032D01*
X167311890Y-106858822D01*
X167311883Y-106858816D01*
X167311881Y-106858814D01*
X167091579Y-106701201D01*
X167069431Y-106689814D01*
X166850690Y-106577350D01*
X166850672Y-106577343D01*
X166594314Y-106489884D01*
X166594300Y-106489881D01*
X166548621Y-106481443D01*
X166327933Y-106440681D01*
X166327930Y-106440680D01*
X166327924Y-106440680D01*
X166057236Y-106430787D01*
X165787986Y-106460413D01*
X165787975Y-106460415D01*
X165525915Y-106528926D01*
X165525913Y-106528927D01*
X165373164Y-106593838D01*
X165303766Y-106601941D01*
X165241004Y-106571237D01*
X165236987Y-106567396D01*
X165126819Y-106457228D01*
X165093334Y-106395905D01*
X165090500Y-106369547D01*
X165090500Y-103993310D01*
X165110185Y-103926271D01*
X165162989Y-103880516D01*
X165232147Y-103870572D01*
X165295703Y-103899597D01*
X165326882Y-103940906D01*
X165372464Y-104038658D01*
X165372468Y-104038666D01*
X165499170Y-104219615D01*
X165499175Y-104219621D01*
X165655378Y-104375824D01*
X165655384Y-104375829D01*
X165836333Y-104502531D01*
X165836335Y-104502532D01*
X165836338Y-104502534D01*
X166036550Y-104595894D01*
X166249932Y-104653070D01*
X166407123Y-104666822D01*
X166469998Y-104672323D01*
X166470000Y-104672323D01*
X166470002Y-104672323D01*
X166525017Y-104667509D01*
X166690068Y-104653070D01*
X166903450Y-104595894D01*
X167103662Y-104502534D01*
X167284620Y-104375826D01*
X167440826Y-104219620D01*
X167567534Y-104038662D01*
X167627617Y-103909811D01*
X167673790Y-103857371D01*
X167740983Y-103838219D01*
X167807865Y-103858435D01*
X167852382Y-103909811D01*
X167912464Y-104038658D01*
X167912468Y-104038666D01*
X168039170Y-104219615D01*
X168039175Y-104219621D01*
X168195378Y-104375824D01*
X168195384Y-104375829D01*
X168376333Y-104502531D01*
X168376335Y-104502532D01*
X168376338Y-104502534D01*
X168576550Y-104595894D01*
X168789932Y-104653070D01*
X168947123Y-104666822D01*
X169009998Y-104672323D01*
X169010000Y-104672323D01*
X169010002Y-104672323D01*
X169065016Y-104667509D01*
X169230068Y-104653070D01*
X169443450Y-104595894D01*
X169643662Y-104502534D01*
X169824620Y-104375826D01*
X169980826Y-104219620D01*
X170107534Y-104038662D01*
X170167617Y-103909811D01*
X170213790Y-103857371D01*
X170280983Y-103838219D01*
X170347865Y-103858435D01*
X170392382Y-103909811D01*
X170452464Y-104038658D01*
X170452468Y-104038666D01*
X170579170Y-104219615D01*
X170579175Y-104219621D01*
X170735378Y-104375824D01*
X170735384Y-104375829D01*
X170916333Y-104502531D01*
X170916335Y-104502532D01*
X170916338Y-104502534D01*
X171116550Y-104595894D01*
X171329932Y-104653070D01*
X171487123Y-104666822D01*
X171549998Y-104672323D01*
X171550000Y-104672323D01*
X171550002Y-104672323D01*
X171605016Y-104667509D01*
X171770068Y-104653070D01*
X171983450Y-104595894D01*
X172183662Y-104502534D01*
X172364620Y-104375826D01*
X172520826Y-104219620D01*
X172647534Y-104038662D01*
X172707617Y-103909811D01*
X172753790Y-103857371D01*
X172820983Y-103838219D01*
X172887865Y-103858435D01*
X172932382Y-103909811D01*
X172992464Y-104038658D01*
X172992468Y-104038666D01*
X173119170Y-104219615D01*
X173119175Y-104219621D01*
X173275378Y-104375824D01*
X173275384Y-104375829D01*
X173456333Y-104502531D01*
X173456335Y-104502532D01*
X173456338Y-104502534D01*
X173656550Y-104595894D01*
X173869932Y-104653070D01*
X174027123Y-104666822D01*
X174089998Y-104672323D01*
X174090000Y-104672323D01*
X174090002Y-104672323D01*
X174145016Y-104667509D01*
X174310068Y-104653070D01*
X174523450Y-104595894D01*
X174723662Y-104502534D01*
X174904620Y-104375826D01*
X175060826Y-104219620D01*
X175187534Y-104038662D01*
X175247617Y-103909811D01*
X175293790Y-103857371D01*
X175360983Y-103838219D01*
X175427865Y-103858435D01*
X175472382Y-103909811D01*
X175532464Y-104038658D01*
X175532468Y-104038666D01*
X175659170Y-104219615D01*
X175659175Y-104219621D01*
X175815378Y-104375824D01*
X175815384Y-104375829D01*
X175996333Y-104502531D01*
X175996335Y-104502532D01*
X175996338Y-104502534D01*
X176196550Y-104595894D01*
X176409932Y-104653070D01*
X176567123Y-104666822D01*
X176629998Y-104672323D01*
X176630000Y-104672323D01*
X176630002Y-104672323D01*
X176685017Y-104667509D01*
X176850068Y-104653070D01*
X177063450Y-104595894D01*
X177263662Y-104502534D01*
X177444620Y-104375826D01*
X177600826Y-104219620D01*
X177727534Y-104038662D01*
X177787617Y-103909811D01*
X177833790Y-103857371D01*
X177900983Y-103838219D01*
X177967865Y-103858435D01*
X178012382Y-103909811D01*
X178072464Y-104038658D01*
X178072468Y-104038666D01*
X178199170Y-104219615D01*
X178199175Y-104219621D01*
X178355378Y-104375824D01*
X178355384Y-104375829D01*
X178536333Y-104502531D01*
X178536335Y-104502532D01*
X178536338Y-104502534D01*
X178736550Y-104595894D01*
X178949932Y-104653070D01*
X179107123Y-104666822D01*
X179169998Y-104672323D01*
X179170000Y-104672323D01*
X179170002Y-104672323D01*
X179225017Y-104667509D01*
X179390068Y-104653070D01*
X179603450Y-104595894D01*
X179803662Y-104502534D01*
X179984620Y-104375826D01*
X180140826Y-104219620D01*
X180267534Y-104038662D01*
X180360894Y-103838450D01*
X180418070Y-103625068D01*
X180437323Y-103405000D01*
X180418070Y-103184932D01*
X180360894Y-102971550D01*
X180267534Y-102771339D01*
X180140826Y-102590380D01*
X179984620Y-102434174D01*
X179984616Y-102434171D01*
X179984615Y-102434170D01*
X179803666Y-102307468D01*
X179803662Y-102307466D01*
X179754055Y-102284334D01*
X179603450Y-102214106D01*
X179603447Y-102214105D01*
X179603445Y-102214104D01*
X179390070Y-102156930D01*
X179390062Y-102156929D01*
X179170002Y-102137677D01*
X179169998Y-102137677D01*
X178949937Y-102156929D01*
X178949929Y-102156930D01*
X178736554Y-102214104D01*
X178736548Y-102214107D01*
X178536340Y-102307465D01*
X178536338Y-102307466D01*
X178355377Y-102434175D01*
X178199175Y-102590377D01*
X178072466Y-102771338D01*
X178072465Y-102771340D01*
X178012382Y-102900189D01*
X177966209Y-102952628D01*
X177899016Y-102971780D01*
X177832135Y-102951564D01*
X177787618Y-102900189D01*
X177727534Y-102771340D01*
X177727533Y-102771338D01*
X177726946Y-102770500D01*
X177600826Y-102590380D01*
X177444620Y-102434174D01*
X177444616Y-102434171D01*
X177444615Y-102434170D01*
X177263666Y-102307468D01*
X177263662Y-102307466D01*
X177214055Y-102284334D01*
X177063450Y-102214106D01*
X177063447Y-102214105D01*
X177063445Y-102214104D01*
X176850070Y-102156930D01*
X176850062Y-102156929D01*
X176630002Y-102137677D01*
X176629998Y-102137677D01*
X176409937Y-102156929D01*
X176409929Y-102156930D01*
X176196554Y-102214104D01*
X176196548Y-102214107D01*
X175996340Y-102307465D01*
X175996338Y-102307466D01*
X175815377Y-102434175D01*
X175659175Y-102590377D01*
X175532466Y-102771338D01*
X175532465Y-102771340D01*
X175472382Y-102900189D01*
X175426209Y-102952628D01*
X175359016Y-102971780D01*
X175292135Y-102951564D01*
X175247618Y-102900189D01*
X175187534Y-102771340D01*
X175187533Y-102771338D01*
X175186946Y-102770500D01*
X175060826Y-102590380D01*
X174904620Y-102434174D01*
X174904616Y-102434171D01*
X174904615Y-102434170D01*
X174723666Y-102307468D01*
X174723662Y-102307466D01*
X174674055Y-102284334D01*
X174523450Y-102214106D01*
X174523447Y-102214105D01*
X174523445Y-102214104D01*
X174310070Y-102156930D01*
X174310062Y-102156929D01*
X174090002Y-102137677D01*
X174089998Y-102137677D01*
X173869937Y-102156929D01*
X173869929Y-102156930D01*
X173656554Y-102214104D01*
X173656548Y-102214107D01*
X173456340Y-102307465D01*
X173456338Y-102307466D01*
X173275377Y-102434175D01*
X173119175Y-102590377D01*
X172992466Y-102771338D01*
X172992465Y-102771340D01*
X172932382Y-102900189D01*
X172886209Y-102952628D01*
X172819016Y-102971780D01*
X172752135Y-102951564D01*
X172707618Y-102900189D01*
X172647534Y-102771340D01*
X172647533Y-102771338D01*
X172646946Y-102770500D01*
X172520826Y-102590380D01*
X172364620Y-102434174D01*
X172364616Y-102434171D01*
X172364615Y-102434170D01*
X172183666Y-102307468D01*
X172183662Y-102307466D01*
X172134055Y-102284334D01*
X171983450Y-102214106D01*
X171983447Y-102214105D01*
X171983445Y-102214104D01*
X171770070Y-102156930D01*
X171770062Y-102156929D01*
X171550002Y-102137677D01*
X171549998Y-102137677D01*
X171329937Y-102156929D01*
X171329929Y-102156930D01*
X171116554Y-102214104D01*
X171116548Y-102214107D01*
X170916340Y-102307465D01*
X170916338Y-102307466D01*
X170735377Y-102434175D01*
X170579175Y-102590377D01*
X170452466Y-102771338D01*
X170452465Y-102771340D01*
X170392382Y-102900189D01*
X170346209Y-102952628D01*
X170279016Y-102971780D01*
X170212135Y-102951564D01*
X170167618Y-102900189D01*
X170107534Y-102771340D01*
X170107533Y-102771338D01*
X170106946Y-102770500D01*
X169980826Y-102590380D01*
X169824620Y-102434174D01*
X169824616Y-102434171D01*
X169824615Y-102434170D01*
X169643666Y-102307468D01*
X169643658Y-102307464D01*
X169514811Y-102247382D01*
X169462371Y-102201210D01*
X169443219Y-102134017D01*
X169463435Y-102067135D01*
X169514811Y-102022618D01*
X169520802Y-102019824D01*
X169643662Y-101962534D01*
X169824620Y-101835826D01*
X169980826Y-101679620D01*
X170107534Y-101498662D01*
X170200894Y-101298450D01*
X170258070Y-101085068D01*
X170277323Y-100865000D01*
X170258070Y-100644932D01*
X170200894Y-100431550D01*
X170107534Y-100231339D01*
X169998765Y-100076000D01*
X169980827Y-100050381D01*
X169969016Y-100038570D01*
X169824620Y-99894174D01*
X169824616Y-99894171D01*
X169824615Y-99894170D01*
X169643666Y-99767468D01*
X169643658Y-99767464D01*
X169514811Y-99707382D01*
X169462371Y-99661210D01*
X169443219Y-99594017D01*
X169463435Y-99527135D01*
X169514811Y-99482618D01*
X169520802Y-99479824D01*
X169643662Y-99422534D01*
X169824620Y-99295826D01*
X169980826Y-99139620D01*
X170107534Y-98958662D01*
X170200894Y-98758450D01*
X170258070Y-98545068D01*
X170277323Y-98325000D01*
X170258070Y-98104932D01*
X170200894Y-97891550D01*
X170107534Y-97691339D01*
X169980826Y-97510380D01*
X169824620Y-97354174D01*
X169824616Y-97354171D01*
X169824615Y-97354170D01*
X169643666Y-97227468D01*
X169643662Y-97227466D01*
X169595179Y-97204858D01*
X169443450Y-97134106D01*
X169443447Y-97134105D01*
X169443445Y-97134104D01*
X169230070Y-97076930D01*
X169230062Y-97076929D01*
X169010002Y-97057677D01*
X169009998Y-97057677D01*
X168863287Y-97070512D01*
X168789932Y-97076930D01*
X168789930Y-97076930D01*
X168789926Y-97076931D01*
X168745977Y-97088707D01*
X168676127Y-97087044D01*
X168626204Y-97056613D01*
X167705803Y-96136212D01*
X167695980Y-96123950D01*
X167695759Y-96124134D01*
X167690786Y-96118123D01*
X167672159Y-96100631D01*
X167640364Y-96070773D01*
X167629919Y-96060328D01*
X167619475Y-96049883D01*
X167613986Y-96045625D01*
X167609561Y-96041847D01*
X167575582Y-96009938D01*
X167575580Y-96009936D01*
X167575577Y-96009935D01*
X167558029Y-96000288D01*
X167541763Y-95989604D01*
X167525933Y-95977325D01*
X167483168Y-95958818D01*
X167477922Y-95956248D01*
X167437093Y-95933803D01*
X167437092Y-95933802D01*
X167417693Y-95928822D01*
X167399281Y-95922518D01*
X167380898Y-95914562D01*
X167380892Y-95914560D01*
X167334874Y-95907272D01*
X167329152Y-95906087D01*
X167284021Y-95894500D01*
X167284019Y-95894500D01*
X167263984Y-95894500D01*
X167244586Y-95892973D01*
X167237162Y-95891797D01*
X167224805Y-95889840D01*
X167224804Y-95889840D01*
X167178416Y-95894225D01*
X167172578Y-95894500D01*
X165182743Y-95894500D01*
X165167122Y-95892775D01*
X165167095Y-95893061D01*
X165159333Y-95892326D01*
X165090172Y-95894500D01*
X165060649Y-95894500D01*
X165053778Y-95895367D01*
X165047959Y-95895825D01*
X165001374Y-95897289D01*
X165001368Y-95897290D01*
X164982126Y-95902880D01*
X164963087Y-95906823D01*
X164943217Y-95909334D01*
X164943203Y-95909337D01*
X164899883Y-95926488D01*
X164894358Y-95928380D01*
X164849613Y-95941380D01*
X164849610Y-95941381D01*
X164832366Y-95951579D01*
X164814905Y-95960133D01*
X164796274Y-95967510D01*
X164796262Y-95967517D01*
X164758570Y-95994902D01*
X164753687Y-95998109D01*
X164713580Y-96021829D01*
X164699414Y-96035995D01*
X164684624Y-96048627D01*
X164668414Y-96060404D01*
X164668411Y-96060407D01*
X164638710Y-96096309D01*
X164634777Y-96100631D01*
X164081208Y-96654199D01*
X164068951Y-96664020D01*
X164069134Y-96664241D01*
X164063123Y-96669213D01*
X164015772Y-96719636D01*
X163994889Y-96740519D01*
X163994877Y-96740532D01*
X163990621Y-96746017D01*
X163986837Y-96750447D01*
X163954937Y-96784418D01*
X163954936Y-96784420D01*
X163945284Y-96801976D01*
X163934610Y-96818226D01*
X163922329Y-96834061D01*
X163922324Y-96834068D01*
X163903815Y-96876838D01*
X163901245Y-96882084D01*
X163878803Y-96922906D01*
X163873822Y-96942307D01*
X163867521Y-96960710D01*
X163859562Y-96979102D01*
X163859561Y-96979105D01*
X163852271Y-97025127D01*
X163851087Y-97030846D01*
X163839501Y-97075972D01*
X163839500Y-97075982D01*
X163839500Y-97096016D01*
X163837973Y-97115415D01*
X163834840Y-97135194D01*
X163834840Y-97135195D01*
X163839225Y-97181583D01*
X163839500Y-97187421D01*
X163839500Y-106597255D01*
X163837775Y-106612872D01*
X163838061Y-106612899D01*
X163837326Y-106620665D01*
X163837748Y-106634062D01*
X163820179Y-106701687D01*
X163768838Y-106749078D01*
X163700026Y-106761189D01*
X163635590Y-106734174D01*
X163622929Y-106721340D01*
X163622818Y-106721452D01*
X163493655Y-106592289D01*
X163493651Y-106592286D01*
X163344337Y-106500187D01*
X163344335Y-106500186D01*
X163261065Y-106472593D01*
X163177797Y-106445001D01*
X163177795Y-106445000D01*
X163075015Y-106434500D01*
X163075008Y-106434500D01*
X160774992Y-106434500D01*
X160774984Y-106434500D01*
X160672204Y-106445000D01*
X160672203Y-106445001D01*
X160505664Y-106500186D01*
X160505662Y-106500187D01*
X160356348Y-106592286D01*
X160356344Y-106592289D01*
X160232289Y-106716344D01*
X160232286Y-106716348D01*
X160140187Y-106865662D01*
X160140186Y-106865664D01*
X160085001Y-107032203D01*
X160085000Y-107032204D01*
X160074500Y-107134984D01*
X160074500Y-110035015D01*
X154253181Y-110035015D01*
X154162047Y-109904861D01*
X154162045Y-109904858D01*
X154001141Y-109743954D01*
X153814734Y-109613432D01*
X153814728Y-109613429D01*
X153763412Y-109589500D01*
X153756724Y-109586381D01*
X153704285Y-109540210D01*
X153685133Y-109473017D01*
X153705348Y-109406135D01*
X153756725Y-109361618D01*
X153814734Y-109334568D01*
X154001139Y-109204047D01*
X154162047Y-109043139D01*
X154292568Y-108856734D01*
X154388739Y-108650496D01*
X154447635Y-108430692D01*
X154467468Y-108204000D01*
X154447635Y-107977308D01*
X154388739Y-107757504D01*
X154292568Y-107551266D01*
X154187553Y-107401287D01*
X154162045Y-107364858D01*
X154001141Y-107203954D01*
X153814734Y-107073432D01*
X153814728Y-107073429D01*
X153756725Y-107046382D01*
X153704285Y-107000210D01*
X153685133Y-106933017D01*
X153705348Y-106866135D01*
X153756725Y-106821618D01*
X153814734Y-106794568D01*
X154001139Y-106664047D01*
X154162047Y-106503139D01*
X154292568Y-106316734D01*
X154388739Y-106110496D01*
X154447635Y-105890692D01*
X154467468Y-105664000D01*
X154447635Y-105437308D01*
X154388739Y-105217504D01*
X154292568Y-105011266D01*
X154162047Y-104824861D01*
X154162045Y-104824858D01*
X154001141Y-104663954D01*
X153814734Y-104533432D01*
X153814728Y-104533429D01*
X153756725Y-104506382D01*
X153704285Y-104460210D01*
X153685133Y-104393017D01*
X153705348Y-104326135D01*
X153756725Y-104281618D01*
X153814734Y-104254568D01*
X154001139Y-104124047D01*
X154162047Y-103963139D01*
X154292568Y-103776734D01*
X154388739Y-103570496D01*
X154447635Y-103350692D01*
X154467468Y-103124000D01*
X154447635Y-102897308D01*
X154388739Y-102677504D01*
X154292568Y-102471266D01*
X154162047Y-102284861D01*
X154162045Y-102284858D01*
X154001141Y-102123954D01*
X153814734Y-101993432D01*
X153814728Y-101993429D01*
X153756725Y-101966382D01*
X153704285Y-101920210D01*
X153685133Y-101853017D01*
X153705348Y-101786135D01*
X153756725Y-101741618D01*
X153814734Y-101714568D01*
X154001139Y-101584047D01*
X154162047Y-101423139D01*
X154292568Y-101236734D01*
X154388739Y-101030496D01*
X154447635Y-100810692D01*
X154467468Y-100584000D01*
X154447635Y-100357308D01*
X154388739Y-100137504D01*
X154292568Y-99931266D01*
X154162047Y-99744861D01*
X154162045Y-99744858D01*
X154001141Y-99583954D01*
X153814734Y-99453432D01*
X153814728Y-99453429D01*
X153782095Y-99438212D01*
X153756724Y-99426381D01*
X153704285Y-99380210D01*
X153685133Y-99313017D01*
X153705348Y-99246135D01*
X153756725Y-99201618D01*
X153814734Y-99174568D01*
X154001139Y-99044047D01*
X154162047Y-98883139D01*
X154292568Y-98696734D01*
X154388739Y-98490496D01*
X154447635Y-98270692D01*
X154467468Y-98044000D01*
X154447635Y-97817308D01*
X154388739Y-97597504D01*
X154292568Y-97391266D01*
X154162047Y-97204861D01*
X154162045Y-97204858D01*
X154001141Y-97043954D01*
X153814734Y-96913432D01*
X153814728Y-96913429D01*
X153756725Y-96886382D01*
X153704285Y-96840210D01*
X153685133Y-96773017D01*
X153705348Y-96706135D01*
X153756725Y-96661618D01*
X153772635Y-96654199D01*
X153814734Y-96634568D01*
X154001139Y-96504047D01*
X154162047Y-96343139D01*
X154292568Y-96156734D01*
X154388739Y-95950496D01*
X154447635Y-95730692D01*
X154467468Y-95504000D01*
X154447635Y-95277308D01*
X154388739Y-95057504D01*
X154292568Y-94851266D01*
X154162047Y-94664861D01*
X154162045Y-94664858D01*
X154001141Y-94503954D01*
X153814734Y-94373432D01*
X153814728Y-94373429D01*
X153756725Y-94346382D01*
X153704285Y-94300210D01*
X153685133Y-94233017D01*
X153705348Y-94166135D01*
X153756725Y-94121618D01*
X153814734Y-94094568D01*
X154001139Y-93964047D01*
X154162047Y-93803139D01*
X154292568Y-93616734D01*
X154388739Y-93410496D01*
X154447635Y-93190692D01*
X154467468Y-92964000D01*
X154447635Y-92737308D01*
X154388739Y-92517504D01*
X154292568Y-92311266D01*
X154162047Y-92124861D01*
X154162045Y-92124858D01*
X154001141Y-91963954D01*
X153856416Y-91862618D01*
X153814734Y-91833432D01*
X153756722Y-91806380D01*
X153704284Y-91760208D01*
X153685133Y-91693014D01*
X153705349Y-91626133D01*
X153756721Y-91581619D01*
X153814734Y-91554568D01*
X154001139Y-91424047D01*
X154162047Y-91263139D01*
X154292568Y-91076734D01*
X154388739Y-90870496D01*
X154447635Y-90650692D01*
X154467468Y-90424000D01*
X154447635Y-90197308D01*
X154388739Y-89977504D01*
X154292568Y-89771266D01*
X154162047Y-89584861D01*
X154162045Y-89584858D01*
X154001141Y-89423954D01*
X153814735Y-89293433D01*
X153814736Y-89293433D01*
X153814734Y-89293432D01*
X153756722Y-89266380D01*
X153704284Y-89220208D01*
X153685133Y-89153014D01*
X153705349Y-89086133D01*
X153756721Y-89041619D01*
X153814734Y-89014568D01*
X154001139Y-88884047D01*
X154162047Y-88723139D01*
X154292568Y-88536734D01*
X154388739Y-88330496D01*
X154447635Y-88110692D01*
X154467468Y-87884000D01*
X154465495Y-87861453D01*
X154456220Y-87755439D01*
X154447635Y-87657308D01*
X154388739Y-87437504D01*
X154292568Y-87231266D01*
X154162047Y-87044861D01*
X154162045Y-87044858D01*
X154001141Y-86883954D01*
X153814734Y-86753432D01*
X153814728Y-86753429D01*
X153756725Y-86726382D01*
X153704285Y-86680210D01*
X153685133Y-86613017D01*
X153705348Y-86546135D01*
X153756725Y-86501618D01*
X153814734Y-86474568D01*
X154001139Y-86344047D01*
X154162047Y-86183139D01*
X154274612Y-86022377D01*
X154329189Y-85978752D01*
X154376188Y-85969500D01*
X159048257Y-85969500D01*
X159063877Y-85971224D01*
X159063904Y-85970939D01*
X159071660Y-85971671D01*
X159071667Y-85971673D01*
X159140814Y-85969500D01*
X159170350Y-85969500D01*
X159177228Y-85968630D01*
X159183041Y-85968172D01*
X159229627Y-85966709D01*
X159248869Y-85961117D01*
X159267912Y-85957174D01*
X159287792Y-85954664D01*
X159331122Y-85937507D01*
X159336646Y-85935617D01*
X159340396Y-85934527D01*
X159381390Y-85922618D01*
X159398629Y-85912422D01*
X159416103Y-85903862D01*
X159434727Y-85896488D01*
X159434727Y-85896487D01*
X159434732Y-85896486D01*
X159472449Y-85869082D01*
X159477305Y-85865892D01*
X159517420Y-85842170D01*
X159531589Y-85827999D01*
X159546379Y-85815368D01*
X159562587Y-85803594D01*
X159592299Y-85767676D01*
X159596212Y-85763376D01*
X159919536Y-85440052D01*
X159980857Y-85406569D01*
X160050549Y-85411553D01*
X160106482Y-85453425D01*
X160130899Y-85518889D01*
X160130743Y-85538542D01*
X160123179Y-85624998D01*
X160123179Y-85625000D01*
X160142424Y-85844976D01*
X160142426Y-85844986D01*
X160199575Y-86058270D01*
X160199580Y-86058284D01*
X160292899Y-86258407D01*
X160292900Y-86258409D01*
X160338258Y-86323187D01*
X160900477Y-85760968D01*
X160923155Y-85838201D01*
X161002131Y-85961090D01*
X161112530Y-86056752D01*
X161245408Y-86117435D01*
X161250400Y-86118152D01*
X160691811Y-86676741D01*
X160756582Y-86722094D01*
X160756588Y-86722098D01*
X160885781Y-86782342D01*
X160938220Y-86828514D01*
X160957372Y-86895708D01*
X160937156Y-86962589D01*
X160885781Y-87007106D01*
X160756340Y-87067465D01*
X160756338Y-87067466D01*
X160575377Y-87194175D01*
X160419175Y-87350377D01*
X160292466Y-87531338D01*
X160292465Y-87531340D01*
X160199107Y-87731548D01*
X160199104Y-87731554D01*
X160141930Y-87944929D01*
X160141929Y-87944937D01*
X160122677Y-88164997D01*
X160122677Y-88165002D01*
X160141929Y-88385062D01*
X160141930Y-88385070D01*
X160199104Y-88598445D01*
X160199105Y-88598447D01*
X160199106Y-88598450D01*
X160262380Y-88734142D01*
X160292466Y-88798662D01*
X160292468Y-88798666D01*
X160419170Y-88979615D01*
X160419175Y-88979621D01*
X160575378Y-89135824D01*
X160575384Y-89135829D01*
X160756333Y-89262531D01*
X160756335Y-89262532D01*
X160756338Y-89262534D01*
X160875748Y-89318215D01*
X160885189Y-89322618D01*
X160937628Y-89368790D01*
X160956780Y-89435984D01*
X160936564Y-89502865D01*
X160885189Y-89547382D01*
X160756340Y-89607465D01*
X160756338Y-89607466D01*
X160575377Y-89734175D01*
X160419175Y-89890377D01*
X160292466Y-90071338D01*
X160292465Y-90071340D01*
X160199107Y-90271548D01*
X160199104Y-90271554D01*
X160141930Y-90484929D01*
X160141929Y-90484937D01*
X160122677Y-90704997D01*
X160122677Y-90705002D01*
X160141929Y-90925062D01*
X160141930Y-90925070D01*
X160199104Y-91138445D01*
X160199105Y-91138447D01*
X160199106Y-91138450D01*
X160291791Y-91337214D01*
X160292466Y-91338662D01*
X160292468Y-91338666D01*
X160419170Y-91519615D01*
X160419175Y-91519621D01*
X160575378Y-91675824D01*
X160575384Y-91675829D01*
X160756333Y-91802531D01*
X160756335Y-91802532D01*
X160756338Y-91802534D01*
X160850971Y-91846662D01*
X160885189Y-91862618D01*
X160937628Y-91908790D01*
X160956780Y-91975984D01*
X160936564Y-92042865D01*
X160885189Y-92087382D01*
X160756340Y-92147465D01*
X160756338Y-92147466D01*
X160575377Y-92274175D01*
X160419175Y-92430377D01*
X160292466Y-92611338D01*
X160292465Y-92611340D01*
X160199107Y-92811548D01*
X160199104Y-92811554D01*
X160141930Y-93024929D01*
X160141929Y-93024937D01*
X160122677Y-93244997D01*
X160122677Y-93245002D01*
X160141929Y-93465062D01*
X160141930Y-93465070D01*
X160199104Y-93678445D01*
X160199105Y-93678447D01*
X160199106Y-93678450D01*
X160250803Y-93789314D01*
X160292466Y-93878662D01*
X160292468Y-93878666D01*
X160419170Y-94059615D01*
X160419175Y-94059621D01*
X160575378Y-94215824D01*
X160575384Y-94215829D01*
X160756333Y-94342531D01*
X160756335Y-94342532D01*
X160756338Y-94342534D01*
X160875748Y-94398215D01*
X160885189Y-94402618D01*
X160937628Y-94448790D01*
X160956780Y-94515984D01*
X160936564Y-94582865D01*
X160885189Y-94627382D01*
X160756340Y-94687465D01*
X160756338Y-94687466D01*
X160575377Y-94814175D01*
X160419175Y-94970377D01*
X160292466Y-95151338D01*
X160292465Y-95151340D01*
X160199107Y-95351548D01*
X160199104Y-95351554D01*
X160141930Y-95564929D01*
X160141929Y-95564937D01*
X160122677Y-95784997D01*
X160122677Y-95785002D01*
X160141929Y-96005062D01*
X160141930Y-96005070D01*
X160199104Y-96218445D01*
X160199105Y-96218447D01*
X160199106Y-96218450D01*
X160209503Y-96240746D01*
X160292466Y-96418662D01*
X160292468Y-96418666D01*
X160419170Y-96599615D01*
X160419175Y-96599621D01*
X160575378Y-96755824D01*
X160575384Y-96755829D01*
X160756333Y-96882531D01*
X160756335Y-96882532D01*
X160756338Y-96882534D01*
X160842921Y-96922908D01*
X160885781Y-96942894D01*
X160938220Y-96989066D01*
X160957372Y-97056260D01*
X160937156Y-97123141D01*
X160885781Y-97167658D01*
X160756586Y-97227903D01*
X160691812Y-97273257D01*
X160691811Y-97273258D01*
X161250400Y-97831847D01*
X161245408Y-97832565D01*
X161112530Y-97893248D01*
X161002131Y-97988910D01*
X160923155Y-98111799D01*
X160900477Y-98189030D01*
X160338258Y-97626811D01*
X160338257Y-97626812D01*
X160292903Y-97691586D01*
X160199579Y-97891720D01*
X160199575Y-97891729D01*
X160142426Y-98105013D01*
X160142424Y-98105023D01*
X160123179Y-98324999D01*
X160123179Y-98325000D01*
X160142424Y-98544976D01*
X160142426Y-98544986D01*
X160199575Y-98758270D01*
X160199580Y-98758284D01*
X160292899Y-98958407D01*
X160292900Y-98958409D01*
X160338258Y-99023187D01*
X160900477Y-98460968D01*
X160923155Y-98538201D01*
X161002131Y-98661090D01*
X161112530Y-98756752D01*
X161245408Y-98817435D01*
X161250400Y-98818152D01*
X160691811Y-99376741D01*
X160756582Y-99422094D01*
X160756592Y-99422100D01*
X160956715Y-99515419D01*
X160956729Y-99515424D01*
X161170013Y-99572573D01*
X161170023Y-99572575D01*
X161389999Y-99591821D01*
X161390001Y-99591821D01*
X161609976Y-99572575D01*
X161609986Y-99572573D01*
X161823270Y-99515424D01*
X161823284Y-99515419D01*
X162023408Y-99422100D01*
X162023420Y-99422093D01*
X162088186Y-99376742D01*
X162088187Y-99376740D01*
X161529600Y-98818152D01*
X161534592Y-98817435D01*
X161667470Y-98756752D01*
X161777869Y-98661090D01*
X161856845Y-98538201D01*
X161879522Y-98460969D01*
X162441740Y-99023187D01*
X162441742Y-99023186D01*
X162487093Y-98958420D01*
X162487100Y-98958408D01*
X162580419Y-98758284D01*
X162580424Y-98758270D01*
X162637573Y-98544986D01*
X162637575Y-98544976D01*
X162656821Y-98325000D01*
X162656821Y-98324999D01*
X162637575Y-98105023D01*
X162637573Y-98105013D01*
X162580424Y-97891729D01*
X162580420Y-97891720D01*
X162487098Y-97691590D01*
X162441740Y-97626811D01*
X161879521Y-98189029D01*
X161856845Y-98111799D01*
X161777869Y-97988910D01*
X161667470Y-97893248D01*
X161534592Y-97832565D01*
X161529599Y-97831847D01*
X162088187Y-97273258D01*
X162023409Y-97227900D01*
X162023407Y-97227899D01*
X161894219Y-97167658D01*
X161841779Y-97121486D01*
X161822627Y-97054293D01*
X161842843Y-96987411D01*
X161894219Y-96942894D01*
X161937079Y-96922908D01*
X162023662Y-96882534D01*
X162204620Y-96755826D01*
X162360826Y-96599620D01*
X162487534Y-96418662D01*
X162580894Y-96218450D01*
X162638070Y-96005068D01*
X162655977Y-95800383D01*
X162657323Y-95785002D01*
X162657323Y-95784997D01*
X162649143Y-95691495D01*
X162638070Y-95564932D01*
X162580894Y-95351550D01*
X162487534Y-95151339D01*
X162376531Y-94992809D01*
X162360827Y-94970381D01*
X162301652Y-94911206D01*
X162204620Y-94814174D01*
X162204616Y-94814171D01*
X162204615Y-94814170D01*
X162023666Y-94687468D01*
X162023658Y-94687464D01*
X161894811Y-94627382D01*
X161842371Y-94581210D01*
X161823219Y-94514017D01*
X161843435Y-94447135D01*
X161894811Y-94402618D01*
X161904086Y-94398293D01*
X162023662Y-94342534D01*
X162204620Y-94215826D01*
X162360826Y-94059620D01*
X162487534Y-93878662D01*
X162580894Y-93678450D01*
X162638070Y-93465068D01*
X162657264Y-93245677D01*
X162657323Y-93245002D01*
X162657323Y-93244997D01*
X162638070Y-93024937D01*
X162638070Y-93024932D01*
X162580894Y-92811550D01*
X162487534Y-92611339D01*
X162360826Y-92430380D01*
X162204620Y-92274174D01*
X162204616Y-92274171D01*
X162204615Y-92274170D01*
X162023666Y-92147468D01*
X162023658Y-92147464D01*
X161894811Y-92087382D01*
X161842371Y-92041210D01*
X161823219Y-91974017D01*
X161843435Y-91907135D01*
X161894811Y-91862618D01*
X161929020Y-91846666D01*
X162023662Y-91802534D01*
X162204620Y-91675826D01*
X162360826Y-91519620D01*
X162487534Y-91338662D01*
X162546130Y-91213002D01*
X182347677Y-91213002D01*
X182366929Y-91433062D01*
X182366930Y-91433070D01*
X182424104Y-91646445D01*
X182424105Y-91646447D01*
X182424106Y-91646450D01*
X182496889Y-91802534D01*
X182517466Y-91846662D01*
X182517468Y-91846666D01*
X182644170Y-92027615D01*
X182644175Y-92027621D01*
X182800378Y-92183824D01*
X182800384Y-92183829D01*
X182981333Y-92310531D01*
X182981335Y-92310532D01*
X182981338Y-92310534D01*
X183181550Y-92403894D01*
X183394932Y-92461070D01*
X183552123Y-92474822D01*
X183614998Y-92480323D01*
X183615000Y-92480323D01*
X183615002Y-92480323D01*
X183670016Y-92475509D01*
X183835068Y-92461070D01*
X184048450Y-92403894D01*
X184248662Y-92310534D01*
X184429620Y-92183826D01*
X184585826Y-92027620D01*
X184712534Y-91846662D01*
X184805894Y-91646450D01*
X184863070Y-91433068D01*
X184882323Y-91213000D01*
X184863070Y-90992932D01*
X184805894Y-90779550D01*
X184712534Y-90579339D01*
X184632583Y-90465156D01*
X184585827Y-90398381D01*
X184531648Y-90344202D01*
X184429620Y-90242174D01*
X184429616Y-90242171D01*
X184429615Y-90242170D01*
X184248666Y-90115468D01*
X184248662Y-90115466D01*
X184154033Y-90071340D01*
X184048450Y-90022106D01*
X184048447Y-90022105D01*
X184048445Y-90022104D01*
X183835070Y-89964930D01*
X183835062Y-89964929D01*
X183615002Y-89945677D01*
X183614998Y-89945677D01*
X183394937Y-89964929D01*
X183394929Y-89964930D01*
X183181554Y-90022104D01*
X183181548Y-90022107D01*
X182981340Y-90115465D01*
X182981338Y-90115466D01*
X182800377Y-90242175D01*
X182644175Y-90398377D01*
X182517466Y-90579338D01*
X182517465Y-90579340D01*
X182424107Y-90779548D01*
X182424104Y-90779554D01*
X182366930Y-90992929D01*
X182366929Y-90992937D01*
X182347677Y-91212997D01*
X182347677Y-91213002D01*
X162546130Y-91213002D01*
X162580894Y-91138450D01*
X162638070Y-90925068D01*
X162657323Y-90705000D01*
X162638070Y-90484932D01*
X162580894Y-90271550D01*
X162487534Y-90071339D01*
X162360826Y-89890380D01*
X162204620Y-89734174D01*
X162204616Y-89734171D01*
X162204615Y-89734170D01*
X162023666Y-89607468D01*
X162023658Y-89607464D01*
X161894811Y-89547382D01*
X161842371Y-89501210D01*
X161823219Y-89434017D01*
X161843435Y-89367135D01*
X161894811Y-89322618D01*
X161900802Y-89319824D01*
X162023662Y-89262534D01*
X162204620Y-89135826D01*
X162360826Y-88979620D01*
X162487534Y-88798662D01*
X162580894Y-88598450D01*
X162638070Y-88385068D01*
X162657323Y-88165000D01*
X162652874Y-88114152D01*
X162638070Y-87944937D01*
X162638070Y-87944932D01*
X162580894Y-87731550D01*
X162557975Y-87682400D01*
X182348179Y-87682400D01*
X182367424Y-87902376D01*
X182367426Y-87902386D01*
X182424575Y-88115670D01*
X182424580Y-88115684D01*
X182517899Y-88315807D01*
X182517900Y-88315809D01*
X182563258Y-88380587D01*
X183125477Y-87818368D01*
X183148155Y-87895601D01*
X183227131Y-88018490D01*
X183337530Y-88114152D01*
X183470408Y-88174835D01*
X183475400Y-88175552D01*
X182916811Y-88734141D01*
X182981582Y-88779494D01*
X182981592Y-88779500D01*
X183181715Y-88872819D01*
X183181729Y-88872824D01*
X183395013Y-88929973D01*
X183395023Y-88929975D01*
X183614999Y-88949221D01*
X183615001Y-88949221D01*
X183834976Y-88929975D01*
X183834986Y-88929973D01*
X184048270Y-88872824D01*
X184048284Y-88872819D01*
X184248408Y-88779500D01*
X184248420Y-88779493D01*
X184313186Y-88734142D01*
X184313187Y-88734140D01*
X183754600Y-88175552D01*
X183759592Y-88174835D01*
X183892470Y-88114152D01*
X184002869Y-88018490D01*
X184081845Y-87895601D01*
X184104522Y-87818368D01*
X184666741Y-88380587D01*
X184666742Y-88380586D01*
X184712093Y-88315820D01*
X184712100Y-88315808D01*
X184805419Y-88115684D01*
X184805424Y-88115670D01*
X184862573Y-87902386D01*
X184862575Y-87902376D01*
X184881821Y-87682400D01*
X184881821Y-87682399D01*
X184862575Y-87462423D01*
X184862573Y-87462413D01*
X184805424Y-87249129D01*
X184805420Y-87249120D01*
X184712098Y-87048990D01*
X184666740Y-86984211D01*
X184104521Y-87546429D01*
X184081845Y-87469199D01*
X184002869Y-87346310D01*
X183892470Y-87250648D01*
X183759592Y-87189965D01*
X183754599Y-87189247D01*
X184313187Y-86630658D01*
X184248409Y-86585300D01*
X184248407Y-86585299D01*
X184048284Y-86491980D01*
X184048270Y-86491975D01*
X183834986Y-86434826D01*
X183834976Y-86434824D01*
X183615001Y-86415579D01*
X183614999Y-86415579D01*
X183395023Y-86434824D01*
X183395013Y-86434826D01*
X183181729Y-86491975D01*
X183181720Y-86491979D01*
X182981586Y-86585303D01*
X182916812Y-86630657D01*
X182916811Y-86630658D01*
X183475400Y-87189247D01*
X183470408Y-87189965D01*
X183337530Y-87250648D01*
X183227131Y-87346310D01*
X183148155Y-87469199D01*
X183125477Y-87546430D01*
X182563258Y-86984211D01*
X182563257Y-86984212D01*
X182517903Y-87048986D01*
X182424579Y-87249120D01*
X182424575Y-87249129D01*
X182367426Y-87462413D01*
X182367424Y-87462423D01*
X182348179Y-87682399D01*
X182348179Y-87682400D01*
X162557975Y-87682400D01*
X162487534Y-87531339D01*
X162360826Y-87350380D01*
X162204620Y-87194174D01*
X162204616Y-87194171D01*
X162204615Y-87194170D01*
X162023666Y-87067468D01*
X162023658Y-87067464D01*
X161894219Y-87007106D01*
X161841779Y-86960934D01*
X161822627Y-86893741D01*
X161842843Y-86826859D01*
X161894219Y-86782342D01*
X162023408Y-86722100D01*
X162023420Y-86722093D01*
X162088186Y-86676742D01*
X162088187Y-86676740D01*
X161529600Y-86118152D01*
X161534592Y-86117435D01*
X161667470Y-86056752D01*
X161777869Y-85961090D01*
X161856845Y-85838201D01*
X161879522Y-85760969D01*
X162441740Y-86323187D01*
X162441742Y-86323186D01*
X162487093Y-86258420D01*
X162487100Y-86258408D01*
X162580419Y-86058284D01*
X162580424Y-86058270D01*
X162637573Y-85844986D01*
X162637575Y-85844976D01*
X162656821Y-85625000D01*
X162656821Y-85624999D01*
X162637575Y-85405023D01*
X162637573Y-85405013D01*
X162580424Y-85191729D01*
X162580420Y-85191720D01*
X162487098Y-84991590D01*
X162441740Y-84926811D01*
X161879521Y-85489029D01*
X161856845Y-85411799D01*
X161777869Y-85288910D01*
X161667470Y-85193248D01*
X161534592Y-85132565D01*
X161529599Y-85131847D01*
X162088187Y-84573258D01*
X162023409Y-84527900D01*
X162023407Y-84527899D01*
X161894219Y-84467658D01*
X161841779Y-84421486D01*
X161822627Y-84354293D01*
X161842843Y-84287411D01*
X161894219Y-84242894D01*
X162023662Y-84182534D01*
X162031277Y-84177202D01*
X182347677Y-84177202D01*
X182366929Y-84397262D01*
X182366930Y-84397270D01*
X182424104Y-84610645D01*
X182424105Y-84610647D01*
X182424106Y-84610650D01*
X182461698Y-84691266D01*
X182517466Y-84810862D01*
X182517468Y-84810866D01*
X182644170Y-84991815D01*
X182644175Y-84991821D01*
X182800378Y-85148024D01*
X182800384Y-85148029D01*
X182981333Y-85274731D01*
X182981335Y-85274732D01*
X182981338Y-85274734D01*
X183181550Y-85368094D01*
X183394932Y-85425270D01*
X183552123Y-85439022D01*
X183614998Y-85444523D01*
X183615000Y-85444523D01*
X183615002Y-85444523D01*
X183670017Y-85439709D01*
X183835068Y-85425270D01*
X184048450Y-85368094D01*
X184248662Y-85274734D01*
X184429620Y-85148026D01*
X184585826Y-84991820D01*
X184712534Y-84810862D01*
X184805894Y-84610650D01*
X184863070Y-84397268D01*
X184882323Y-84177200D01*
X184863070Y-83957132D01*
X184805894Y-83743750D01*
X184712534Y-83543539D01*
X184585826Y-83362580D01*
X184429620Y-83206374D01*
X184429616Y-83206371D01*
X184429615Y-83206370D01*
X184248666Y-83079668D01*
X184248662Y-83079666D01*
X184248660Y-83079665D01*
X184048450Y-82986306D01*
X184048447Y-82986305D01*
X184048445Y-82986304D01*
X183835070Y-82929130D01*
X183835062Y-82929129D01*
X183615002Y-82909877D01*
X183614998Y-82909877D01*
X183394937Y-82929129D01*
X183394929Y-82929130D01*
X183181554Y-82986304D01*
X183181548Y-82986307D01*
X182981340Y-83079665D01*
X182981338Y-83079666D01*
X182800377Y-83206375D01*
X182644175Y-83362577D01*
X182517466Y-83543538D01*
X182517465Y-83543540D01*
X182424107Y-83743748D01*
X182424104Y-83743754D01*
X182366930Y-83957129D01*
X182366929Y-83957137D01*
X182347677Y-84177197D01*
X182347677Y-84177202D01*
X162031277Y-84177202D01*
X162204620Y-84055826D01*
X162360826Y-83899620D01*
X162487534Y-83718662D01*
X162580894Y-83518450D01*
X162638070Y-83305068D01*
X162657323Y-83085000D01*
X162656856Y-83079666D01*
X162648688Y-82986304D01*
X162638070Y-82864932D01*
X162580894Y-82651550D01*
X162487534Y-82451339D01*
X162360826Y-82270380D01*
X162204620Y-82114174D01*
X162204616Y-82114171D01*
X162204615Y-82114170D01*
X162023666Y-81987468D01*
X162023658Y-81987464D01*
X161894811Y-81927382D01*
X161842371Y-81881210D01*
X161823219Y-81814017D01*
X161843435Y-81747135D01*
X161894811Y-81702618D01*
X161900802Y-81699824D01*
X162023662Y-81642534D01*
X162204620Y-81515826D01*
X162360826Y-81359620D01*
X162487534Y-81178662D01*
X162580894Y-80978450D01*
X162638070Y-80765068D01*
X162657323Y-80545002D01*
X180442677Y-80545002D01*
X180461929Y-80765062D01*
X180461930Y-80765070D01*
X180519104Y-80978445D01*
X180519105Y-80978447D01*
X180519106Y-80978450D01*
X180529503Y-81000746D01*
X180612466Y-81178662D01*
X180612468Y-81178666D01*
X180739170Y-81359615D01*
X180739175Y-81359621D01*
X180895378Y-81515824D01*
X180895384Y-81515829D01*
X181076333Y-81642531D01*
X181076335Y-81642532D01*
X181076338Y-81642534D01*
X181276550Y-81735894D01*
X181489932Y-81793070D01*
X181647123Y-81806822D01*
X181709998Y-81812323D01*
X181710000Y-81812323D01*
X181710002Y-81812323D01*
X181765016Y-81807509D01*
X181930068Y-81793070D01*
X182143450Y-81735894D01*
X182343662Y-81642534D01*
X182524620Y-81515826D01*
X182680826Y-81359620D01*
X182807534Y-81178662D01*
X182867617Y-81049811D01*
X182913790Y-80997371D01*
X182980983Y-80978219D01*
X183047865Y-80998435D01*
X183092382Y-81049811D01*
X183152464Y-81178658D01*
X183152468Y-81178666D01*
X183279170Y-81359615D01*
X183279175Y-81359621D01*
X183435378Y-81515824D01*
X183435384Y-81515829D01*
X183616333Y-81642531D01*
X183616335Y-81642532D01*
X183616338Y-81642534D01*
X183816550Y-81735894D01*
X184029932Y-81793070D01*
X184187123Y-81806822D01*
X184249998Y-81812323D01*
X184250000Y-81812323D01*
X184250002Y-81812323D01*
X184305016Y-81807509D01*
X184470068Y-81793070D01*
X184683450Y-81735894D01*
X184883662Y-81642534D01*
X185064620Y-81515826D01*
X185220826Y-81359620D01*
X185347534Y-81178662D01*
X185440894Y-80978450D01*
X185498070Y-80765068D01*
X185517323Y-80545000D01*
X185498070Y-80324932D01*
X185440894Y-80111550D01*
X185347534Y-79911339D01*
X185220826Y-79730380D01*
X185064620Y-79574174D01*
X185064616Y-79574171D01*
X185064615Y-79574170D01*
X184883666Y-79447468D01*
X184883662Y-79447466D01*
X184835179Y-79424858D01*
X184683450Y-79354106D01*
X184683447Y-79354105D01*
X184683445Y-79354104D01*
X184470070Y-79296930D01*
X184470062Y-79296929D01*
X184250002Y-79277677D01*
X184249998Y-79277677D01*
X184029937Y-79296929D01*
X184029929Y-79296930D01*
X183816554Y-79354104D01*
X183816548Y-79354107D01*
X183616340Y-79447465D01*
X183616338Y-79447466D01*
X183435377Y-79574175D01*
X183279175Y-79730377D01*
X183152466Y-79911338D01*
X183152465Y-79911340D01*
X183092382Y-80040189D01*
X183046209Y-80092628D01*
X182979016Y-80111780D01*
X182912135Y-80091564D01*
X182867618Y-80040189D01*
X182826759Y-79952568D01*
X182807534Y-79911339D01*
X182680826Y-79730380D01*
X182524620Y-79574174D01*
X182524616Y-79574171D01*
X182524615Y-79574170D01*
X182343666Y-79447468D01*
X182343662Y-79447466D01*
X182295179Y-79424858D01*
X182143450Y-79354106D01*
X182143447Y-79354105D01*
X182143445Y-79354104D01*
X181930070Y-79296930D01*
X181930062Y-79296929D01*
X181710002Y-79277677D01*
X181709998Y-79277677D01*
X181489937Y-79296929D01*
X181489929Y-79296930D01*
X181276554Y-79354104D01*
X181276548Y-79354107D01*
X181076340Y-79447465D01*
X181076338Y-79447466D01*
X180895377Y-79574175D01*
X180739175Y-79730377D01*
X180612466Y-79911338D01*
X180612465Y-79911340D01*
X180519107Y-80111548D01*
X180519104Y-80111554D01*
X180461930Y-80324929D01*
X180461929Y-80324937D01*
X180442677Y-80544997D01*
X180442677Y-80545002D01*
X162657323Y-80545002D01*
X162657323Y-80545000D01*
X162638070Y-80324932D01*
X162580894Y-80111550D01*
X162487534Y-79911339D01*
X162360826Y-79730380D01*
X162204620Y-79574174D01*
X162204616Y-79574171D01*
X162204615Y-79574170D01*
X162023666Y-79447468D01*
X162023658Y-79447464D01*
X161894811Y-79387382D01*
X161842371Y-79341210D01*
X161823219Y-79274017D01*
X161843435Y-79207135D01*
X161894811Y-79162618D01*
X161900802Y-79159824D01*
X162023662Y-79102534D01*
X162204620Y-78975826D01*
X162360826Y-78819620D01*
X162487534Y-78638662D01*
X162580894Y-78438450D01*
X162638070Y-78225068D01*
X162657323Y-78005000D01*
X162638070Y-77784932D01*
X162580894Y-77571550D01*
X162487534Y-77371339D01*
X162360826Y-77190380D01*
X162204620Y-77034174D01*
X162204616Y-77034171D01*
X162204615Y-77034170D01*
X162023666Y-76907468D01*
X162023662Y-76907466D01*
X161884810Y-76842718D01*
X161832371Y-76796545D01*
X161813219Y-76729352D01*
X161833435Y-76662471D01*
X161884806Y-76617957D01*
X162003662Y-76562534D01*
X162184620Y-76435826D01*
X162340826Y-76279620D01*
X162467534Y-76098662D01*
X162560894Y-75898450D01*
X162618070Y-75685068D01*
X162637323Y-75465000D01*
X162618070Y-75244932D01*
X162560894Y-75031550D01*
X162467534Y-74831339D01*
X162340826Y-74650380D01*
X162184620Y-74494174D01*
X162184616Y-74494171D01*
X162184615Y-74494170D01*
X162003666Y-74367468D01*
X162003662Y-74367466D01*
X161955179Y-74344858D01*
X161803450Y-74274106D01*
X161803447Y-74274105D01*
X161803445Y-74274104D01*
X161590070Y-74216930D01*
X161590062Y-74216929D01*
X161370002Y-74197677D01*
X161369998Y-74197677D01*
X161149937Y-74216929D01*
X161149929Y-74216930D01*
X160936554Y-74274104D01*
X160936548Y-74274107D01*
X160736340Y-74367465D01*
X160736338Y-74367466D01*
X160555377Y-74494175D01*
X160399175Y-74650377D01*
X160272466Y-74831338D01*
X160272465Y-74831340D01*
X160179107Y-75031548D01*
X160179104Y-75031554D01*
X160121930Y-75244929D01*
X160121929Y-75244937D01*
X160102677Y-75464997D01*
X160102677Y-75465002D01*
X160121929Y-75685062D01*
X160121930Y-75685070D01*
X160179104Y-75898445D01*
X160179105Y-75898447D01*
X160179106Y-75898450D01*
X160248685Y-76047663D01*
X160272466Y-76098662D01*
X160272468Y-76098666D01*
X160399170Y-76279615D01*
X160399175Y-76279621D01*
X160555378Y-76435824D01*
X160555384Y-76435829D01*
X160736333Y-76562531D01*
X160736335Y-76562532D01*
X160736338Y-76562534D01*
X160855185Y-76617953D01*
X160875189Y-76627281D01*
X160927628Y-76673453D01*
X160946780Y-76740647D01*
X160926564Y-76807528D01*
X160875189Y-76852045D01*
X160756340Y-76907465D01*
X160756338Y-76907466D01*
X160575377Y-77034175D01*
X160419175Y-77190377D01*
X160292466Y-77371338D01*
X160292465Y-77371340D01*
X160199107Y-77571548D01*
X160199104Y-77571554D01*
X160141930Y-77784929D01*
X160141929Y-77784937D01*
X160122677Y-78004997D01*
X160122677Y-78005002D01*
X160141929Y-78225062D01*
X160141930Y-78225070D01*
X160199104Y-78438445D01*
X160199105Y-78438447D01*
X160199106Y-78438450D01*
X160241445Y-78529247D01*
X160292466Y-78638662D01*
X160292468Y-78638666D01*
X160419170Y-78819615D01*
X160419175Y-78819621D01*
X160575378Y-78975824D01*
X160575384Y-78975829D01*
X160756333Y-79102531D01*
X160756335Y-79102532D01*
X160756338Y-79102534D01*
X160875748Y-79158215D01*
X160885189Y-79162618D01*
X160937628Y-79208790D01*
X160956780Y-79275984D01*
X160936564Y-79342865D01*
X160885189Y-79387382D01*
X160756340Y-79447465D01*
X160756338Y-79447466D01*
X160575377Y-79574175D01*
X160419175Y-79730377D01*
X160323776Y-79866623D01*
X160269199Y-79910248D01*
X160222201Y-79919500D01*
X158297737Y-79919500D01*
X158282120Y-79917776D01*
X158282093Y-79918062D01*
X158274331Y-79917327D01*
X158205203Y-79919500D01*
X158175650Y-79919500D01*
X158174929Y-79919590D01*
X158168757Y-79920369D01*
X158162945Y-79920826D01*
X158116372Y-79922290D01*
X158116369Y-79922291D01*
X158097126Y-79927881D01*
X158078083Y-79931825D01*
X158058204Y-79934336D01*
X158058203Y-79934337D01*
X158014878Y-79951490D01*
X158009352Y-79953382D01*
X157964608Y-79966383D01*
X157964604Y-79966385D01*
X157947365Y-79976580D01*
X157929898Y-79985137D01*
X157911269Y-79992512D01*
X157911267Y-79992513D01*
X157873564Y-80019906D01*
X157868682Y-80023112D01*
X157828580Y-80046828D01*
X157814408Y-80061000D01*
X157799623Y-80073628D01*
X157783412Y-80085407D01*
X157753709Y-80121310D01*
X157749777Y-80125631D01*
X155733228Y-82142181D01*
X155671905Y-82175666D01*
X155645547Y-82178500D01*
X154376188Y-82178500D01*
X154309149Y-82158815D01*
X154274613Y-82125623D01*
X154162045Y-81964858D01*
X154001141Y-81803954D01*
X153814734Y-81673432D01*
X153814728Y-81673429D01*
X153756725Y-81646382D01*
X153704285Y-81600210D01*
X153685133Y-81533017D01*
X153705348Y-81466135D01*
X153756725Y-81421618D01*
X153814734Y-81394568D01*
X154001139Y-81264047D01*
X154162047Y-81103139D01*
X154292568Y-80916734D01*
X154388739Y-80710496D01*
X154447635Y-80490692D01*
X154467468Y-80264000D01*
X154447635Y-80037308D01*
X154388739Y-79817504D01*
X154292568Y-79611266D01*
X154162047Y-79424861D01*
X154162045Y-79424858D01*
X154001141Y-79263954D01*
X153814734Y-79133432D01*
X153814728Y-79133429D01*
X153756725Y-79106382D01*
X153704285Y-79060210D01*
X153685133Y-78993017D01*
X153705348Y-78926135D01*
X153756725Y-78881618D01*
X153814734Y-78854568D01*
X154001139Y-78724047D01*
X154162047Y-78563139D01*
X154292568Y-78376734D01*
X154388739Y-78170496D01*
X154447635Y-77950692D01*
X154467468Y-77724000D01*
X154447635Y-77497308D01*
X154434959Y-77450000D01*
X156274356Y-77450000D01*
X156294884Y-77671535D01*
X156294885Y-77671537D01*
X156355769Y-77885523D01*
X156355775Y-77885538D01*
X156454938Y-78084683D01*
X156454943Y-78084691D01*
X156589020Y-78262238D01*
X156753437Y-78412123D01*
X156753439Y-78412125D01*
X156942595Y-78529245D01*
X156942596Y-78529245D01*
X156942599Y-78529247D01*
X157150060Y-78609618D01*
X157368757Y-78650500D01*
X157368759Y-78650500D01*
X157591241Y-78650500D01*
X157591243Y-78650500D01*
X157809940Y-78609618D01*
X158017401Y-78529247D01*
X158206562Y-78412124D01*
X158370981Y-78262236D01*
X158505058Y-78084689D01*
X158604229Y-77885528D01*
X158665115Y-77671536D01*
X158685643Y-77450000D01*
X158665115Y-77228464D01*
X158604229Y-77014472D01*
X158601150Y-77008288D01*
X158505061Y-76815316D01*
X158505056Y-76815308D01*
X158370979Y-76637761D01*
X158206562Y-76487876D01*
X158206560Y-76487874D01*
X158017404Y-76370754D01*
X158017395Y-76370750D01*
X157923956Y-76334552D01*
X157823475Y-76295625D01*
X157768075Y-76253054D01*
X157744484Y-76187288D01*
X157760195Y-76119207D01*
X157810219Y-76070428D01*
X157823466Y-76064377D01*
X158017401Y-75989247D01*
X158206562Y-75872124D01*
X158370981Y-75722236D01*
X158505058Y-75544689D01*
X158604229Y-75345528D01*
X158665115Y-75131536D01*
X158685643Y-74910000D01*
X158665115Y-74688464D01*
X158604229Y-74474472D01*
X158601150Y-74468288D01*
X158505061Y-74275316D01*
X158505056Y-74275308D01*
X158370979Y-74097761D01*
X158206562Y-73947876D01*
X158206560Y-73947874D01*
X158017404Y-73830754D01*
X158017398Y-73830752D01*
X157809940Y-73750382D01*
X157591243Y-73709500D01*
X157368757Y-73709500D01*
X157150060Y-73750382D01*
X157087629Y-73774568D01*
X156942601Y-73830752D01*
X156942595Y-73830754D01*
X156753439Y-73947874D01*
X156753437Y-73947876D01*
X156589020Y-74097761D01*
X156454943Y-74275308D01*
X156454938Y-74275316D01*
X156355775Y-74474461D01*
X156355769Y-74474476D01*
X156294885Y-74688462D01*
X156294884Y-74688464D01*
X156274356Y-74909999D01*
X156274356Y-74910000D01*
X156294884Y-75131535D01*
X156294885Y-75131537D01*
X156355769Y-75345523D01*
X156355775Y-75345538D01*
X156454938Y-75544683D01*
X156454943Y-75544691D01*
X156589020Y-75722238D01*
X156753437Y-75872123D01*
X156753439Y-75872125D01*
X156942595Y-75989245D01*
X156942596Y-75989245D01*
X156942599Y-75989247D01*
X157136524Y-76064374D01*
X157191924Y-76106946D01*
X157215515Y-76172713D01*
X157199804Y-76240793D01*
X157149780Y-76289572D01*
X157136533Y-76295622D01*
X156988488Y-76352975D01*
X156942601Y-76370752D01*
X156942595Y-76370754D01*
X156753439Y-76487874D01*
X156753437Y-76487876D01*
X156589020Y-76637761D01*
X156454943Y-76815308D01*
X156454938Y-76815316D01*
X156355775Y-77014461D01*
X156355769Y-77014476D01*
X156294885Y-77228462D01*
X156294884Y-77228464D01*
X156274356Y-77449999D01*
X156274356Y-77450000D01*
X154434959Y-77450000D01*
X154388739Y-77277504D01*
X154292568Y-77071266D01*
X154162047Y-76884861D01*
X154162045Y-76884858D01*
X154001141Y-76723954D01*
X153814734Y-76593432D01*
X153814728Y-76593429D01*
X153756725Y-76566382D01*
X153704285Y-76520210D01*
X153685133Y-76453017D01*
X153705348Y-76386135D01*
X153756725Y-76341618D01*
X153814734Y-76314568D01*
X154001139Y-76184047D01*
X154162047Y-76023139D01*
X154292568Y-75836734D01*
X154388739Y-75630496D01*
X154447635Y-75410692D01*
X154467468Y-75184000D01*
X154447635Y-74957308D01*
X154388739Y-74737504D01*
X154292568Y-74531266D01*
X154162047Y-74344861D01*
X154162045Y-74344858D01*
X154001141Y-74183954D01*
X153814734Y-74053432D01*
X153814728Y-74053429D01*
X153756725Y-74026382D01*
X153704285Y-73980210D01*
X153685133Y-73913017D01*
X153705348Y-73846135D01*
X153756725Y-73801618D01*
X153814734Y-73774568D01*
X154001139Y-73644047D01*
X154162047Y-73483139D01*
X154292568Y-73296734D01*
X154388739Y-73090496D01*
X154447635Y-72870692D01*
X154467468Y-72644000D01*
X154447635Y-72417308D01*
X154388739Y-72197504D01*
X154292568Y-71991266D01*
X154162047Y-71804861D01*
X154162045Y-71804858D01*
X154001141Y-71643954D01*
X153814734Y-71513432D01*
X153814728Y-71513429D01*
X153756725Y-71486382D01*
X153704285Y-71440210D01*
X153685133Y-71373017D01*
X153705348Y-71306135D01*
X153756725Y-71261618D01*
X153814734Y-71234568D01*
X154001139Y-71104047D01*
X154162047Y-70943139D01*
X154292568Y-70756734D01*
X154388739Y-70550496D01*
X154447635Y-70330692D01*
X154467468Y-70104000D01*
X154466927Y-70097821D01*
X154447635Y-69877313D01*
X154447635Y-69877308D01*
X154440319Y-69850005D01*
X166388357Y-69850005D01*
X166408890Y-70097812D01*
X166408892Y-70097824D01*
X166469936Y-70338881D01*
X166569826Y-70566606D01*
X166705833Y-70774782D01*
X166705836Y-70774785D01*
X166874256Y-70957738D01*
X167070491Y-71110474D01*
X167070493Y-71110475D01*
X167288332Y-71228364D01*
X167289190Y-71228828D01*
X167496425Y-71299972D01*
X167522964Y-71309083D01*
X167524386Y-71309571D01*
X167769665Y-71350500D01*
X168018335Y-71350500D01*
X168263614Y-71309571D01*
X168498810Y-71228828D01*
X168717509Y-71110474D01*
X168913744Y-70957738D01*
X169082164Y-70774785D01*
X169218173Y-70566607D01*
X169318063Y-70338881D01*
X169379108Y-70097821D01*
X169399643Y-69850005D01*
X171849859Y-69850005D01*
X171870385Y-70097729D01*
X171870387Y-70097738D01*
X171931412Y-70338717D01*
X172031266Y-70566364D01*
X172131564Y-70719882D01*
X172871923Y-69979523D01*
X172895507Y-70059844D01*
X172973239Y-70180798D01*
X173081900Y-70274952D01*
X173212685Y-70334680D01*
X173222466Y-70336086D01*
X172484942Y-71073609D01*
X172531768Y-71110055D01*
X172531770Y-71110056D01*
X172750385Y-71228364D01*
X172750396Y-71228369D01*
X172985506Y-71309083D01*
X173230707Y-71350000D01*
X173479293Y-71350000D01*
X173724493Y-71309083D01*
X173750994Y-71299985D01*
X177220000Y-71299985D01*
X177230493Y-71402689D01*
X177230494Y-71402696D01*
X177285641Y-71569118D01*
X177285643Y-71569123D01*
X177377684Y-71718344D01*
X177501655Y-71842315D01*
X177650876Y-71934356D01*
X177650881Y-71934358D01*
X177817303Y-71989505D01*
X177817310Y-71989506D01*
X177920014Y-71999999D01*
X177920027Y-72000000D01*
X178820000Y-72000000D01*
X178820000Y-70503837D01*
X178901249Y-70534651D01*
X179027660Y-70550000D01*
X179112340Y-70550000D01*
X179238751Y-70534651D01*
X179320000Y-70503837D01*
X179320000Y-72000000D01*
X180219973Y-72000000D01*
X180219985Y-71999999D01*
X180322689Y-71989506D01*
X180322696Y-71989505D01*
X180489118Y-71934358D01*
X180489123Y-71934356D01*
X180638344Y-71842315D01*
X180762315Y-71718344D01*
X180854356Y-71569123D01*
X180854358Y-71569118D01*
X180909505Y-71402696D01*
X180909506Y-71402689D01*
X180919999Y-71299985D01*
X180920000Y-71299972D01*
X180920000Y-70100000D01*
X179729329Y-70100000D01*
X179770000Y-69934995D01*
X179770000Y-69765005D01*
X179729329Y-69600000D01*
X180920000Y-69600000D01*
X180920000Y-68400027D01*
X180919999Y-68400014D01*
X180909506Y-68297310D01*
X180909505Y-68297303D01*
X180854358Y-68130881D01*
X180854356Y-68130876D01*
X180762315Y-67981655D01*
X180638344Y-67857684D01*
X180489123Y-67765643D01*
X180489118Y-67765641D01*
X180322696Y-67710494D01*
X180322689Y-67710493D01*
X180219985Y-67700000D01*
X179320000Y-67700000D01*
X179320000Y-69196162D01*
X179238751Y-69165349D01*
X179112340Y-69150000D01*
X179027660Y-69150000D01*
X178901249Y-69165349D01*
X178820000Y-69196162D01*
X178820000Y-67700000D01*
X177920014Y-67700000D01*
X177817310Y-67710493D01*
X177817303Y-67710494D01*
X177650881Y-67765641D01*
X177650876Y-67765643D01*
X177501655Y-67857684D01*
X177377684Y-67981655D01*
X177285643Y-68130876D01*
X177285641Y-68130881D01*
X177230494Y-68297303D01*
X177230493Y-68297310D01*
X177220000Y-68400014D01*
X177220000Y-69600000D01*
X178410671Y-69600000D01*
X178370000Y-69765005D01*
X178370000Y-69934995D01*
X178410671Y-70100000D01*
X177220000Y-70100000D01*
X177220000Y-71299985D01*
X173750994Y-71299985D01*
X173959603Y-71228369D01*
X173959614Y-71228364D01*
X174178228Y-71110057D01*
X174178231Y-71110055D01*
X174225056Y-71073609D01*
X173487533Y-70336086D01*
X173497315Y-70334680D01*
X173628100Y-70274952D01*
X173736761Y-70180798D01*
X173814493Y-70059844D01*
X173838076Y-69979524D01*
X174578434Y-70719882D01*
X174678731Y-70566369D01*
X174778587Y-70338717D01*
X174839612Y-70097738D01*
X174839614Y-70097729D01*
X174860141Y-69850005D01*
X174860141Y-69849994D01*
X174839614Y-69602270D01*
X174839612Y-69602261D01*
X174778587Y-69361282D01*
X174678731Y-69133630D01*
X174578434Y-68980116D01*
X173838076Y-69720475D01*
X173814493Y-69640156D01*
X173736761Y-69519202D01*
X173628100Y-69425048D01*
X173497315Y-69365320D01*
X173487534Y-69363913D01*
X174225057Y-68626390D01*
X174225056Y-68626389D01*
X174178229Y-68589943D01*
X173959614Y-68471635D01*
X173959603Y-68471630D01*
X173724493Y-68390916D01*
X173479293Y-68350000D01*
X173230707Y-68350000D01*
X172985506Y-68390916D01*
X172750396Y-68471630D01*
X172750390Y-68471632D01*
X172531761Y-68589949D01*
X172484942Y-68626388D01*
X172484942Y-68626390D01*
X173222466Y-69363913D01*
X173212685Y-69365320D01*
X173081900Y-69425048D01*
X172973239Y-69519202D01*
X172895507Y-69640156D01*
X172871923Y-69720475D01*
X172131564Y-68980116D01*
X172031267Y-69133632D01*
X171931412Y-69361282D01*
X171870387Y-69602261D01*
X171870385Y-69602270D01*
X171849859Y-69849994D01*
X171849859Y-69850005D01*
X169399643Y-69850005D01*
X169399643Y-69850000D01*
X169383693Y-69657511D01*
X169379109Y-69602187D01*
X169379107Y-69602175D01*
X169318063Y-69361118D01*
X169218173Y-69133393D01*
X169082166Y-68925217D01*
X169038019Y-68877261D01*
X168913744Y-68742262D01*
X168717509Y-68589526D01*
X168717507Y-68589525D01*
X168717506Y-68589524D01*
X168498811Y-68471172D01*
X168498802Y-68471169D01*
X168263616Y-68390429D01*
X168018335Y-68349500D01*
X167769665Y-68349500D01*
X167524383Y-68390429D01*
X167289197Y-68471169D01*
X167289188Y-68471172D01*
X167070493Y-68589524D01*
X166874257Y-68742261D01*
X166705833Y-68925217D01*
X166569826Y-69133393D01*
X166469936Y-69361118D01*
X166408892Y-69602175D01*
X166408890Y-69602187D01*
X166388357Y-69849994D01*
X166388357Y-69850005D01*
X154440319Y-69850005D01*
X154388739Y-69657504D01*
X154292568Y-69451266D01*
X154162047Y-69264861D01*
X154162045Y-69264858D01*
X154001141Y-69103954D01*
X153814734Y-68973432D01*
X153814728Y-68973429D01*
X153756725Y-68946382D01*
X153704285Y-68900210D01*
X153685133Y-68833017D01*
X153705348Y-68766135D01*
X153756725Y-68721618D01*
X153814734Y-68694568D01*
X154001139Y-68564047D01*
X154162047Y-68403139D01*
X154292568Y-68216734D01*
X154388739Y-68010496D01*
X154447635Y-67790692D01*
X154464634Y-67596384D01*
X154467468Y-67564001D01*
X154467468Y-67563998D01*
X154447635Y-67337313D01*
X154447635Y-67337308D01*
X154388739Y-67117504D01*
X154292568Y-66911266D01*
X154162047Y-66724861D01*
X154162045Y-66724858D01*
X154001141Y-66563954D01*
X153814734Y-66433432D01*
X153814728Y-66433429D01*
X153756725Y-66406382D01*
X153704285Y-66360210D01*
X153685133Y-66293017D01*
X153705348Y-66226135D01*
X153756725Y-66181618D01*
X153814734Y-66154568D01*
X154001139Y-66024047D01*
X154162047Y-65863139D01*
X154292568Y-65676734D01*
X154388739Y-65470496D01*
X154447635Y-65250692D01*
X154467468Y-65024000D01*
X154447635Y-64797308D01*
X154402916Y-64630415D01*
X154388741Y-64577511D01*
X154388738Y-64577502D01*
X154292568Y-64371267D01*
X154292567Y-64371265D01*
X154162045Y-64184858D01*
X154001141Y-64023954D01*
X153814734Y-63893432D01*
X153814732Y-63893431D01*
X153608497Y-63797261D01*
X153608488Y-63797258D01*
X153388697Y-63738366D01*
X153388693Y-63738365D01*
X153388692Y-63738365D01*
X153388691Y-63738364D01*
X153388686Y-63738364D01*
X153162002Y-63718532D01*
X153161998Y-63718532D01*
X152935313Y-63738364D01*
X152935302Y-63738366D01*
X152715511Y-63797258D01*
X152715502Y-63797261D01*
X152509267Y-63893431D01*
X152509265Y-63893432D01*
X152322858Y-64023954D01*
X152161954Y-64184858D01*
X152031432Y-64371265D01*
X152031431Y-64371267D01*
X151935261Y-64577502D01*
X151935258Y-64577511D01*
X151876366Y-64797302D01*
X151876364Y-64797313D01*
X151856532Y-65023998D01*
X151856532Y-65024001D01*
X151876364Y-65250686D01*
X151876366Y-65250697D01*
X151935258Y-65470488D01*
X151935261Y-65470497D01*
X152031431Y-65676732D01*
X152031432Y-65676734D01*
X152161954Y-65863141D01*
X152322858Y-66024045D01*
X152322861Y-66024047D01*
X152509266Y-66154568D01*
X152567275Y-66181618D01*
X152619714Y-66227791D01*
X152638866Y-66294984D01*
X152618650Y-66361865D01*
X152567275Y-66406382D01*
X152509267Y-66433431D01*
X152509265Y-66433432D01*
X152322858Y-66563954D01*
X152161954Y-66724858D01*
X152031432Y-66911265D01*
X152031431Y-66911267D01*
X151935261Y-67117502D01*
X151935258Y-67117511D01*
X151876366Y-67337302D01*
X151876364Y-67337313D01*
X151856532Y-67563998D01*
X151856532Y-67564001D01*
X151876364Y-67790686D01*
X151876366Y-67790697D01*
X151935258Y-68010488D01*
X151935261Y-68010497D01*
X152031431Y-68216732D01*
X152031432Y-68216734D01*
X152161954Y-68403141D01*
X152322858Y-68564045D01*
X152322861Y-68564047D01*
X152509266Y-68694568D01*
X152567275Y-68721618D01*
X152619714Y-68767791D01*
X152638866Y-68834984D01*
X152618650Y-68901865D01*
X152567275Y-68946382D01*
X152509267Y-68973431D01*
X152509265Y-68973432D01*
X152322858Y-69103954D01*
X152161954Y-69264858D01*
X152031432Y-69451265D01*
X152031431Y-69451267D01*
X151935261Y-69657502D01*
X151935258Y-69657511D01*
X151876366Y-69877302D01*
X151876364Y-69877313D01*
X151856532Y-70103998D01*
X151856532Y-70104001D01*
X151876364Y-70330686D01*
X151876366Y-70330697D01*
X151935258Y-70550488D01*
X151935261Y-70550497D01*
X152031431Y-70756732D01*
X152031432Y-70756734D01*
X152161954Y-70943141D01*
X152322858Y-71104045D01*
X152322861Y-71104047D01*
X152509266Y-71234568D01*
X152567275Y-71261618D01*
X152619714Y-71307791D01*
X152638866Y-71374984D01*
X152618650Y-71441865D01*
X152567275Y-71486382D01*
X152509267Y-71513431D01*
X152509265Y-71513432D01*
X152322858Y-71643954D01*
X152161954Y-71804858D01*
X152031433Y-71991264D01*
X151937341Y-72193042D01*
X151891168Y-72245481D01*
X151823974Y-72264632D01*
X151757093Y-72244416D01*
X151746294Y-72236489D01*
X151688539Y-72189090D01*
X151688532Y-72189086D01*
X151514733Y-72096188D01*
X151514727Y-72096186D01*
X151326132Y-72038976D01*
X151326129Y-72038975D01*
X151130000Y-72019659D01*
X150933870Y-72038975D01*
X150745266Y-72096188D01*
X150571467Y-72189086D01*
X150571460Y-72189090D01*
X150419116Y-72314116D01*
X150294090Y-72466460D01*
X150294086Y-72466467D01*
X150201188Y-72640266D01*
X150143975Y-72828870D01*
X150124659Y-73025000D01*
X150143975Y-73221129D01*
X150143976Y-73221132D01*
X150185547Y-73358174D01*
X150201188Y-73409733D01*
X150294084Y-73583529D01*
X150294087Y-73583533D01*
X150294090Y-73583538D01*
X150351354Y-73653314D01*
X150378666Y-73717620D01*
X150379500Y-73731976D01*
X150379500Y-109873769D01*
X150359815Y-109940808D01*
X150343181Y-109961450D01*
X139428970Y-120875659D01*
X139367647Y-120909144D01*
X139297955Y-120904160D01*
X139242022Y-120862288D01*
X139217761Y-120798785D01*
X139207141Y-120677400D01*
X139207139Y-120677389D01*
X139148269Y-120457682D01*
X139148265Y-120457673D01*
X139052133Y-120251516D01*
X139052131Y-120251512D01*
X139001026Y-120178526D01*
X139001025Y-120178526D01*
X138447929Y-120731622D01*
X138445116Y-120718085D01*
X138375558Y-120583844D01*
X138272362Y-120473348D01*
X138143181Y-120394791D01*
X138091996Y-120380449D01*
X138647472Y-119824974D01*
X138647471Y-119824973D01*
X138574483Y-119773866D01*
X138574481Y-119773865D01*
X138516133Y-119746657D01*
X138463694Y-119700484D01*
X138444542Y-119633291D01*
X138464758Y-119566410D01*
X138516129Y-119521895D01*
X138574734Y-119494568D01*
X138761139Y-119364047D01*
X138922047Y-119203139D01*
X139052568Y-119016734D01*
X139148739Y-118810496D01*
X139207635Y-118590692D01*
X139227468Y-118364000D01*
X139225545Y-118342025D01*
X139207635Y-118137313D01*
X139207635Y-118137308D01*
X139148739Y-117917504D01*
X139052568Y-117711266D01*
X138922047Y-117524861D01*
X138922045Y-117524858D01*
X138761141Y-117363954D01*
X138574734Y-117233432D01*
X138574728Y-117233429D01*
X138516725Y-117206382D01*
X138464285Y-117160210D01*
X138445133Y-117093017D01*
X138465348Y-117026135D01*
X138516725Y-116981618D01*
X138574734Y-116954568D01*
X138761139Y-116824047D01*
X138922047Y-116663139D01*
X139052568Y-116476734D01*
X139148739Y-116270496D01*
X139207635Y-116050692D01*
X139227468Y-115824000D01*
X139207635Y-115597308D01*
X139157119Y-115408777D01*
X139148741Y-115377511D01*
X139148738Y-115377502D01*
X139052568Y-115171267D01*
X139052567Y-115171265D01*
X138922045Y-114984858D01*
X138761141Y-114823954D01*
X138574734Y-114693432D01*
X138574728Y-114693429D01*
X138516725Y-114666382D01*
X138464285Y-114620210D01*
X138445133Y-114553017D01*
X138465348Y-114486135D01*
X138516725Y-114441618D01*
X138574734Y-114414568D01*
X138761139Y-114284047D01*
X138922047Y-114123139D01*
X139052568Y-113936734D01*
X139148739Y-113730496D01*
X139207635Y-113510692D01*
X139227468Y-113284000D01*
X139225841Y-113265408D01*
X139218093Y-113176841D01*
X139207635Y-113057308D01*
X139148739Y-112837504D01*
X139052568Y-112631266D01*
X138954839Y-112491693D01*
X138922045Y-112444858D01*
X138761141Y-112283954D01*
X138574734Y-112153432D01*
X138574728Y-112153429D01*
X138529142Y-112132172D01*
X138516724Y-112126381D01*
X138464285Y-112080210D01*
X138445133Y-112013017D01*
X138465348Y-111946135D01*
X138516725Y-111901618D01*
X138574734Y-111874568D01*
X138761139Y-111744047D01*
X138922047Y-111583139D01*
X139052568Y-111396734D01*
X139148739Y-111190496D01*
X139207635Y-110970692D01*
X139227468Y-110744000D01*
X139226183Y-110729318D01*
X139221712Y-110678204D01*
X139207635Y-110517308D01*
X139148739Y-110297504D01*
X139052568Y-110091266D01*
X138922047Y-109904861D01*
X138922045Y-109904858D01*
X138761141Y-109743954D01*
X138574734Y-109613432D01*
X138574728Y-109613429D01*
X138523412Y-109589500D01*
X138516724Y-109586381D01*
X138464285Y-109540210D01*
X138445133Y-109473017D01*
X138465348Y-109406135D01*
X138516725Y-109361618D01*
X138574734Y-109334568D01*
X138761139Y-109204047D01*
X138922047Y-109043139D01*
X139052568Y-108856734D01*
X139148739Y-108650496D01*
X139207635Y-108430692D01*
X139227468Y-108204000D01*
X139207635Y-107977308D01*
X139148739Y-107757504D01*
X139052568Y-107551266D01*
X138947553Y-107401287D01*
X138922045Y-107364858D01*
X138761141Y-107203954D01*
X138574734Y-107073432D01*
X138574728Y-107073429D01*
X138516725Y-107046382D01*
X138464285Y-107000210D01*
X138445133Y-106933017D01*
X138465348Y-106866135D01*
X138516725Y-106821618D01*
X138574734Y-106794568D01*
X138761139Y-106664047D01*
X138922047Y-106503139D01*
X139052568Y-106316734D01*
X139148739Y-106110496D01*
X139207635Y-105890692D01*
X139227468Y-105664000D01*
X139207635Y-105437308D01*
X139148739Y-105217504D01*
X139052568Y-105011266D01*
X138922047Y-104824861D01*
X138922045Y-104824858D01*
X138761141Y-104663954D01*
X138574734Y-104533432D01*
X138574728Y-104533429D01*
X138516725Y-104506382D01*
X138464285Y-104460210D01*
X138445133Y-104393017D01*
X138465348Y-104326135D01*
X138516725Y-104281618D01*
X138574734Y-104254568D01*
X138761139Y-104124047D01*
X138922047Y-103963139D01*
X139052568Y-103776734D01*
X139148739Y-103570496D01*
X139207635Y-103350692D01*
X139227468Y-103124000D01*
X139207635Y-102897308D01*
X139148739Y-102677504D01*
X139052568Y-102471266D01*
X138922047Y-102284861D01*
X138922045Y-102284858D01*
X138761141Y-102123954D01*
X138574734Y-101993432D01*
X138574728Y-101993429D01*
X138516725Y-101966382D01*
X138464285Y-101920210D01*
X138445133Y-101853017D01*
X138465348Y-101786135D01*
X138516725Y-101741618D01*
X138574734Y-101714568D01*
X138761139Y-101584047D01*
X138922047Y-101423139D01*
X139052568Y-101236734D01*
X139148739Y-101030496D01*
X139207635Y-100810692D01*
X139227468Y-100584000D01*
X139207635Y-100357308D01*
X139148739Y-100137504D01*
X139052568Y-99931266D01*
X138922047Y-99744861D01*
X138922045Y-99744858D01*
X138761141Y-99583954D01*
X138574734Y-99453432D01*
X138574728Y-99453429D01*
X138542095Y-99438212D01*
X138516724Y-99426381D01*
X138464285Y-99380210D01*
X138445133Y-99313017D01*
X138465348Y-99246135D01*
X138516725Y-99201618D01*
X138574734Y-99174568D01*
X138761139Y-99044047D01*
X138922047Y-98883139D01*
X139052568Y-98696734D01*
X139148739Y-98490496D01*
X139207635Y-98270692D01*
X139227468Y-98044000D01*
X139207635Y-97817308D01*
X139148739Y-97597504D01*
X139052568Y-97391266D01*
X138922047Y-97204861D01*
X138922045Y-97204858D01*
X138761141Y-97043954D01*
X138574734Y-96913432D01*
X138574728Y-96913429D01*
X138516725Y-96886382D01*
X138464285Y-96840210D01*
X138445133Y-96773017D01*
X138465348Y-96706135D01*
X138516725Y-96661618D01*
X138532635Y-96654199D01*
X138574734Y-96634568D01*
X138761139Y-96504047D01*
X138922047Y-96343139D01*
X139052568Y-96156734D01*
X139148739Y-95950496D01*
X139207635Y-95730692D01*
X139227468Y-95504000D01*
X139207635Y-95277308D01*
X139148739Y-95057504D01*
X139052568Y-94851266D01*
X138922047Y-94664861D01*
X138922045Y-94664858D01*
X138761141Y-94503954D01*
X138574734Y-94373432D01*
X138574728Y-94373429D01*
X138516725Y-94346382D01*
X138464285Y-94300210D01*
X138445133Y-94233017D01*
X138465348Y-94166135D01*
X138516725Y-94121618D01*
X138574734Y-94094568D01*
X138761139Y-93964047D01*
X138922047Y-93803139D01*
X139052568Y-93616734D01*
X139148739Y-93410496D01*
X139207635Y-93190692D01*
X139227468Y-92964000D01*
X139207635Y-92737308D01*
X139148739Y-92517504D01*
X139052568Y-92311266D01*
X138922047Y-92124861D01*
X138922045Y-92124858D01*
X138761141Y-91963954D01*
X138574734Y-91833432D01*
X138574728Y-91833429D01*
X138516725Y-91806382D01*
X138464285Y-91760210D01*
X138445133Y-91693017D01*
X138465348Y-91626135D01*
X138516725Y-91581618D01*
X138574734Y-91554568D01*
X138761139Y-91424047D01*
X138922047Y-91263139D01*
X139052568Y-91076734D01*
X139148739Y-90870496D01*
X139207635Y-90650692D01*
X139227468Y-90424000D01*
X139207635Y-90197308D01*
X139148739Y-89977504D01*
X139052568Y-89771266D01*
X138922047Y-89584861D01*
X138922045Y-89584858D01*
X138761141Y-89423954D01*
X138574735Y-89293433D01*
X138574736Y-89293433D01*
X138574734Y-89293432D01*
X138516132Y-89266105D01*
X138463694Y-89219933D01*
X138444543Y-89152739D01*
X138464759Y-89085858D01*
X138516135Y-89041341D01*
X138574482Y-89014133D01*
X138647472Y-88963025D01*
X138093568Y-88409121D01*
X138210458Y-88358349D01*
X138327739Y-88262934D01*
X138414928Y-88139415D01*
X138445354Y-88053801D01*
X139001025Y-88609472D01*
X139052136Y-88536478D01*
X139148264Y-88330331D01*
X139148269Y-88330317D01*
X139207139Y-88110610D01*
X139207141Y-88110599D01*
X139226966Y-87884002D01*
X139226966Y-87883997D01*
X139207141Y-87657400D01*
X139207139Y-87657389D01*
X139148269Y-87437682D01*
X139148265Y-87437673D01*
X139052133Y-87231516D01*
X139052131Y-87231512D01*
X139001026Y-87158526D01*
X139001025Y-87158526D01*
X138447929Y-87711622D01*
X138445116Y-87698085D01*
X138375558Y-87563844D01*
X138272362Y-87453348D01*
X138143181Y-87374791D01*
X138091996Y-87360449D01*
X138647472Y-86804974D01*
X138647471Y-86804973D01*
X138574483Y-86753866D01*
X138574481Y-86753865D01*
X138516133Y-86726657D01*
X138463694Y-86680484D01*
X138444542Y-86613291D01*
X138464758Y-86546410D01*
X138516129Y-86501895D01*
X138574734Y-86474568D01*
X138761139Y-86344047D01*
X138922047Y-86183139D01*
X139052568Y-85996734D01*
X139148739Y-85790496D01*
X139207635Y-85570692D01*
X139227468Y-85344000D01*
X139207635Y-85117308D01*
X139148739Y-84897504D01*
X139052568Y-84691266D01*
X138922047Y-84504861D01*
X138922045Y-84504858D01*
X138761141Y-84343954D01*
X138574734Y-84213432D01*
X138574728Y-84213429D01*
X138516725Y-84186382D01*
X138464285Y-84140210D01*
X138445133Y-84073017D01*
X138465348Y-84006135D01*
X138516725Y-83961618D01*
X138574734Y-83934568D01*
X138761139Y-83804047D01*
X138922047Y-83643139D01*
X139052568Y-83456734D01*
X139148739Y-83250496D01*
X139207635Y-83030692D01*
X139227468Y-82804000D01*
X139207635Y-82577308D01*
X139148739Y-82357504D01*
X139052568Y-82151266D01*
X138922047Y-81964861D01*
X138922045Y-81964858D01*
X138761141Y-81803954D01*
X138574734Y-81673432D01*
X138574728Y-81673429D01*
X138516725Y-81646382D01*
X138464285Y-81600210D01*
X138445133Y-81533017D01*
X138465348Y-81466135D01*
X138516725Y-81421618D01*
X138574734Y-81394568D01*
X138761139Y-81264047D01*
X138922047Y-81103139D01*
X139052568Y-80916734D01*
X139148739Y-80710496D01*
X139207635Y-80490692D01*
X139227468Y-80264000D01*
X139207635Y-80037308D01*
X139148739Y-79817504D01*
X139052568Y-79611266D01*
X138922047Y-79424861D01*
X138922045Y-79424858D01*
X138761141Y-79263954D01*
X138574734Y-79133432D01*
X138574728Y-79133429D01*
X138516725Y-79106382D01*
X138464285Y-79060210D01*
X138445133Y-78993017D01*
X138465348Y-78926135D01*
X138516725Y-78881618D01*
X138574734Y-78854568D01*
X138761139Y-78724047D01*
X138922047Y-78563139D01*
X139052568Y-78376734D01*
X139148739Y-78170496D01*
X139207635Y-77950692D01*
X139227468Y-77724000D01*
X139207635Y-77497308D01*
X139148739Y-77277504D01*
X139052568Y-77071266D01*
X138922047Y-76884861D01*
X138922045Y-76884858D01*
X138761141Y-76723954D01*
X138574734Y-76593432D01*
X138574728Y-76593429D01*
X138516725Y-76566382D01*
X138464285Y-76520210D01*
X138445133Y-76453017D01*
X138465348Y-76386135D01*
X138516725Y-76341618D01*
X138574734Y-76314568D01*
X138761139Y-76184047D01*
X138922047Y-76023139D01*
X139052568Y-75836734D01*
X139148739Y-75630496D01*
X139207635Y-75410692D01*
X139227468Y-75184000D01*
X139207635Y-74957308D01*
X139148739Y-74737504D01*
X139052568Y-74531266D01*
X138922047Y-74344861D01*
X138922045Y-74344858D01*
X138761141Y-74183954D01*
X138574734Y-74053432D01*
X138574728Y-74053429D01*
X138516725Y-74026382D01*
X138464285Y-73980210D01*
X138445133Y-73913017D01*
X138465348Y-73846135D01*
X138516725Y-73801618D01*
X138574734Y-73774568D01*
X138761139Y-73644047D01*
X138922047Y-73483139D01*
X139052568Y-73296734D01*
X139148739Y-73090496D01*
X139207635Y-72870692D01*
X139227468Y-72644000D01*
X139207635Y-72417308D01*
X139148739Y-72197504D01*
X139052568Y-71991266D01*
X138922047Y-71804861D01*
X138922045Y-71804858D01*
X138761141Y-71643954D01*
X138574734Y-71513432D01*
X138574728Y-71513429D01*
X138516725Y-71486382D01*
X138464285Y-71440210D01*
X138445133Y-71373017D01*
X138465348Y-71306135D01*
X138516725Y-71261618D01*
X138574734Y-71234568D01*
X138761139Y-71104047D01*
X138922047Y-70943139D01*
X139052568Y-70756734D01*
X139148739Y-70550496D01*
X139207635Y-70330692D01*
X139227468Y-70104000D01*
X139226927Y-70097821D01*
X139207635Y-69877313D01*
X139207635Y-69877308D01*
X139148739Y-69657504D01*
X139052568Y-69451266D01*
X138922047Y-69264861D01*
X138922045Y-69264858D01*
X138761141Y-69103954D01*
X138574734Y-68973432D01*
X138574728Y-68973429D01*
X138516725Y-68946382D01*
X138464285Y-68900210D01*
X138445133Y-68833017D01*
X138465348Y-68766135D01*
X138516725Y-68721618D01*
X138574734Y-68694568D01*
X138761139Y-68564047D01*
X138922047Y-68403139D01*
X139052568Y-68216734D01*
X139148739Y-68010496D01*
X139207635Y-67790692D01*
X139224634Y-67596384D01*
X139227468Y-67564001D01*
X139227468Y-67563998D01*
X139207635Y-67337313D01*
X139207635Y-67337308D01*
X139148739Y-67117504D01*
X139052568Y-66911266D01*
X138922047Y-66724861D01*
X138922045Y-66724858D01*
X138761141Y-66563954D01*
X138574734Y-66433432D01*
X138574728Y-66433429D01*
X138516725Y-66406382D01*
X138464285Y-66360210D01*
X138445133Y-66293017D01*
X138465348Y-66226135D01*
X138516725Y-66181618D01*
X138574734Y-66154568D01*
X138761139Y-66024047D01*
X138922047Y-65863139D01*
X139052568Y-65676734D01*
X139148739Y-65470496D01*
X139207635Y-65250692D01*
X139227468Y-65024000D01*
X139207635Y-64797308D01*
X139162916Y-64630415D01*
X139148741Y-64577511D01*
X139148738Y-64577502D01*
X139052568Y-64371267D01*
X139052567Y-64371265D01*
X138922045Y-64184858D01*
X138761141Y-64023954D01*
X138574734Y-63893432D01*
X138574732Y-63893431D01*
X138368497Y-63797261D01*
X138368488Y-63797258D01*
X138148697Y-63738366D01*
X138148693Y-63738365D01*
X138148692Y-63738365D01*
X138148691Y-63738364D01*
X138148686Y-63738364D01*
X137922002Y-63718532D01*
X137921998Y-63718532D01*
X137695313Y-63738364D01*
X137695302Y-63738366D01*
X137475511Y-63797258D01*
X137475502Y-63797261D01*
X137269267Y-63893431D01*
X137269265Y-63893432D01*
X137082858Y-64023954D01*
X136921954Y-64184858D01*
X136791432Y-64371265D01*
X136791431Y-64371267D01*
X136695261Y-64577502D01*
X136695258Y-64577511D01*
X136636366Y-64797302D01*
X136636364Y-64797313D01*
X136616532Y-65023998D01*
X136616532Y-65024001D01*
X136636364Y-65250686D01*
X136636366Y-65250697D01*
X136695258Y-65470488D01*
X136695261Y-65470497D01*
X136791431Y-65676732D01*
X136791432Y-65676734D01*
X136921954Y-65863141D01*
X137082858Y-66024045D01*
X137082861Y-66024047D01*
X137269266Y-66154568D01*
X137327275Y-66181618D01*
X137379714Y-66227791D01*
X137398866Y-66294984D01*
X137378650Y-66361865D01*
X137327275Y-66406382D01*
X137269267Y-66433431D01*
X137269265Y-66433432D01*
X137082858Y-66563954D01*
X136921954Y-66724858D01*
X136791432Y-66911265D01*
X136791431Y-66911267D01*
X136695261Y-67117502D01*
X136695258Y-67117511D01*
X136636366Y-67337302D01*
X136636364Y-67337313D01*
X136616532Y-67563998D01*
X136616532Y-67564001D01*
X136636364Y-67790686D01*
X136636366Y-67790697D01*
X136695258Y-68010488D01*
X136695261Y-68010497D01*
X136791431Y-68216732D01*
X136791432Y-68216734D01*
X136921954Y-68403141D01*
X137082858Y-68564045D01*
X137082861Y-68564047D01*
X137269266Y-68694568D01*
X137327275Y-68721618D01*
X137379714Y-68767791D01*
X137398866Y-68834984D01*
X137378650Y-68901865D01*
X137327275Y-68946382D01*
X137269267Y-68973431D01*
X137269265Y-68973432D01*
X137082858Y-69103954D01*
X136921954Y-69264858D01*
X136791432Y-69451265D01*
X136791431Y-69451267D01*
X136695261Y-69657502D01*
X136695258Y-69657511D01*
X136636366Y-69877302D01*
X136636364Y-69877313D01*
X136616532Y-70103998D01*
X136616532Y-70104001D01*
X136636364Y-70330686D01*
X136636366Y-70330697D01*
X136695258Y-70550488D01*
X136695261Y-70550497D01*
X136791431Y-70756732D01*
X136791432Y-70756734D01*
X136921954Y-70943141D01*
X137082858Y-71104045D01*
X137082861Y-71104047D01*
X137269266Y-71234568D01*
X137327275Y-71261618D01*
X137379714Y-71307791D01*
X137398866Y-71374984D01*
X137378650Y-71441865D01*
X137327275Y-71486382D01*
X137269267Y-71513431D01*
X137269265Y-71513432D01*
X137082858Y-71643954D01*
X136921954Y-71804858D01*
X136791432Y-71991265D01*
X136791431Y-71991267D01*
X136695261Y-72197502D01*
X136695258Y-72197511D01*
X136636366Y-72417302D01*
X136636364Y-72417313D01*
X136616532Y-72643998D01*
X136616532Y-72644001D01*
X136636364Y-72870686D01*
X136636366Y-72870697D01*
X136695258Y-73090488D01*
X136695261Y-73090497D01*
X136791431Y-73296732D01*
X136791432Y-73296734D01*
X136921954Y-73483141D01*
X137082858Y-73644045D01*
X137082861Y-73644047D01*
X137269266Y-73774568D01*
X137327275Y-73801618D01*
X137379714Y-73847791D01*
X137398866Y-73914984D01*
X137378650Y-73981865D01*
X137327275Y-74026382D01*
X137269267Y-74053431D01*
X137269265Y-74053432D01*
X137082858Y-74183954D01*
X136921954Y-74344858D01*
X136791432Y-74531265D01*
X136791431Y-74531267D01*
X136695261Y-74737502D01*
X136695258Y-74737511D01*
X136636366Y-74957302D01*
X136636364Y-74957313D01*
X136616532Y-75183998D01*
X136616532Y-75184001D01*
X136636364Y-75410686D01*
X136636366Y-75410697D01*
X136695258Y-75630488D01*
X136695261Y-75630497D01*
X136791431Y-75836732D01*
X136791432Y-75836734D01*
X136921954Y-76023141D01*
X137082858Y-76184045D01*
X137082861Y-76184047D01*
X137269266Y-76314568D01*
X137327275Y-76341618D01*
X137379714Y-76387791D01*
X137398866Y-76454984D01*
X137378650Y-76521865D01*
X137327275Y-76566382D01*
X137269267Y-76593431D01*
X137269265Y-76593432D01*
X137082858Y-76723954D01*
X136921954Y-76884858D01*
X136791432Y-77071265D01*
X136791431Y-77071267D01*
X136695261Y-77277502D01*
X136695258Y-77277511D01*
X136636366Y-77497302D01*
X136636364Y-77497313D01*
X136616532Y-77723998D01*
X136616532Y-77724001D01*
X136636364Y-77950686D01*
X136636366Y-77950697D01*
X136695258Y-78170488D01*
X136695261Y-78170497D01*
X136791431Y-78376732D01*
X136791432Y-78376734D01*
X136921954Y-78563141D01*
X137082858Y-78724045D01*
X137082861Y-78724047D01*
X137269266Y-78854568D01*
X137327275Y-78881618D01*
X137379714Y-78927791D01*
X137398866Y-78994984D01*
X137378650Y-79061865D01*
X137327275Y-79106382D01*
X137269267Y-79133431D01*
X137269265Y-79133432D01*
X137082858Y-79263954D01*
X136921954Y-79424858D01*
X136791432Y-79611265D01*
X136791431Y-79611267D01*
X136695261Y-79817502D01*
X136695258Y-79817511D01*
X136636366Y-80037302D01*
X136636364Y-80037313D01*
X136616532Y-80263998D01*
X136616532Y-80264001D01*
X136636364Y-80490686D01*
X136636366Y-80490697D01*
X136695258Y-80710488D01*
X136695261Y-80710497D01*
X136791431Y-80916732D01*
X136791432Y-80916734D01*
X136921954Y-81103141D01*
X137082858Y-81264045D01*
X137082861Y-81264047D01*
X137269266Y-81394568D01*
X137327275Y-81421618D01*
X137379714Y-81467791D01*
X137398866Y-81534984D01*
X137378650Y-81601865D01*
X137327275Y-81646382D01*
X137269267Y-81673431D01*
X137269265Y-81673432D01*
X137082858Y-81803954D01*
X136921954Y-81964858D01*
X136791432Y-82151265D01*
X136791431Y-82151267D01*
X136695261Y-82357502D01*
X136695258Y-82357511D01*
X136636366Y-82577302D01*
X136636364Y-82577313D01*
X136616532Y-82803998D01*
X136616532Y-82804001D01*
X136636364Y-83030686D01*
X136636366Y-83030697D01*
X136695258Y-83250488D01*
X136695261Y-83250497D01*
X136791431Y-83456732D01*
X136791432Y-83456734D01*
X136921954Y-83643141D01*
X137082858Y-83804045D01*
X137082861Y-83804047D01*
X137269266Y-83934568D01*
X137327275Y-83961618D01*
X137379714Y-84007791D01*
X137398866Y-84074984D01*
X137378650Y-84141865D01*
X137327275Y-84186382D01*
X137269267Y-84213431D01*
X137269265Y-84213432D01*
X137082858Y-84343954D01*
X136921954Y-84504858D01*
X136791432Y-84691265D01*
X136791431Y-84691267D01*
X136695261Y-84897502D01*
X136695258Y-84897511D01*
X136636366Y-85117302D01*
X136636364Y-85117313D01*
X136616532Y-85343998D01*
X136616532Y-85344001D01*
X136636364Y-85570686D01*
X136636366Y-85570697D01*
X136695258Y-85790488D01*
X136695261Y-85790497D01*
X136791431Y-85996732D01*
X136791432Y-85996734D01*
X136921954Y-86183141D01*
X137082858Y-86344045D01*
X137082861Y-86344047D01*
X137269266Y-86474568D01*
X137327865Y-86501893D01*
X137380305Y-86548065D01*
X137399457Y-86615258D01*
X137379242Y-86682139D01*
X137327867Y-86726657D01*
X137269511Y-86753869D01*
X137196527Y-86804972D01*
X137196526Y-86804973D01*
X137750432Y-87358878D01*
X137633542Y-87409651D01*
X137516261Y-87505066D01*
X137429072Y-87628585D01*
X137398645Y-87714198D01*
X136842973Y-87158526D01*
X136842972Y-87158527D01*
X136791868Y-87231513D01*
X136695734Y-87437673D01*
X136695730Y-87437682D01*
X136636860Y-87657389D01*
X136636858Y-87657400D01*
X136617034Y-87883997D01*
X136617034Y-87884002D01*
X136636858Y-88110599D01*
X136636860Y-88110610D01*
X136695730Y-88330317D01*
X136695734Y-88330326D01*
X136791865Y-88536481D01*
X136791866Y-88536483D01*
X136842973Y-88609471D01*
X136842974Y-88609472D01*
X137396070Y-88056375D01*
X137398884Y-88069915D01*
X137468442Y-88204156D01*
X137571638Y-88314652D01*
X137700819Y-88393209D01*
X137752002Y-88407549D01*
X137196526Y-88963025D01*
X137196526Y-88963026D01*
X137269512Y-89014131D01*
X137269520Y-89014135D01*
X137327865Y-89041342D01*
X137380305Y-89087514D01*
X137399457Y-89154707D01*
X137379242Y-89221589D01*
X137327867Y-89266105D01*
X137327277Y-89266381D01*
X137269264Y-89293433D01*
X137082858Y-89423954D01*
X136921954Y-89584858D01*
X136791432Y-89771265D01*
X136791431Y-89771267D01*
X136695261Y-89977502D01*
X136695258Y-89977511D01*
X136636366Y-90197302D01*
X136636364Y-90197313D01*
X136616532Y-90423998D01*
X136616532Y-90424001D01*
X136636364Y-90650686D01*
X136636366Y-90650697D01*
X136695258Y-90870488D01*
X136695261Y-90870497D01*
X136791431Y-91076732D01*
X136791432Y-91076734D01*
X136921954Y-91263141D01*
X137082858Y-91424045D01*
X137219355Y-91519620D01*
X137269266Y-91554568D01*
X137327278Y-91581619D01*
X137379713Y-91627788D01*
X137398866Y-91694982D01*
X137378651Y-91761863D01*
X137327277Y-91806380D01*
X137269268Y-91833430D01*
X137269265Y-91833432D01*
X137082858Y-91963954D01*
X136921954Y-92124858D01*
X136791432Y-92311265D01*
X136791431Y-92311267D01*
X136695261Y-92517502D01*
X136695258Y-92517511D01*
X136636366Y-92737302D01*
X136636364Y-92737313D01*
X136616532Y-92963998D01*
X136616532Y-92964001D01*
X136636364Y-93190686D01*
X136636366Y-93190697D01*
X136695258Y-93410488D01*
X136695261Y-93410497D01*
X136791431Y-93616732D01*
X136791432Y-93616734D01*
X136921954Y-93803141D01*
X137082858Y-93964045D01*
X137082861Y-93964047D01*
X137269266Y-94094568D01*
X137290201Y-94104330D01*
X137327275Y-94121618D01*
X137379714Y-94167791D01*
X137398866Y-94234984D01*
X137378650Y-94301865D01*
X137327275Y-94346382D01*
X137269267Y-94373431D01*
X137269265Y-94373432D01*
X137082858Y-94503954D01*
X136921954Y-94664858D01*
X136791432Y-94851265D01*
X136791431Y-94851267D01*
X136695261Y-95057502D01*
X136695258Y-95057511D01*
X136636366Y-95277302D01*
X136636364Y-95277313D01*
X136616532Y-95503998D01*
X136616532Y-95504001D01*
X136636364Y-95730686D01*
X136636366Y-95730697D01*
X136695258Y-95950488D01*
X136695261Y-95950497D01*
X136791431Y-96156732D01*
X136791432Y-96156734D01*
X136921954Y-96343141D01*
X137082858Y-96504045D01*
X137082861Y-96504047D01*
X137269266Y-96634568D01*
X137289712Y-96644102D01*
X137327275Y-96661618D01*
X137379714Y-96707791D01*
X137398866Y-96774984D01*
X137378650Y-96841865D01*
X137327275Y-96886382D01*
X137269267Y-96913431D01*
X137269265Y-96913432D01*
X137082858Y-97043954D01*
X136921954Y-97204858D01*
X136791432Y-97391265D01*
X136791431Y-97391267D01*
X136695261Y-97597502D01*
X136695258Y-97597511D01*
X136636366Y-97817302D01*
X136636364Y-97817313D01*
X136616532Y-98043998D01*
X136616532Y-98044001D01*
X136636364Y-98270686D01*
X136636366Y-98270697D01*
X136695258Y-98490488D01*
X136695261Y-98490497D01*
X136791431Y-98696732D01*
X136791432Y-98696734D01*
X136921954Y-98883141D01*
X137082858Y-99044045D01*
X137082861Y-99044047D01*
X137269266Y-99174568D01*
X137327275Y-99201618D01*
X137379714Y-99247791D01*
X137398866Y-99314984D01*
X137378650Y-99381865D01*
X137327275Y-99426381D01*
X137310272Y-99434310D01*
X137269267Y-99453431D01*
X137269265Y-99453432D01*
X137082858Y-99583954D01*
X136921954Y-99744858D01*
X136791432Y-99931265D01*
X136791431Y-99931267D01*
X136695261Y-100137502D01*
X136695258Y-100137511D01*
X136636366Y-100357302D01*
X136636364Y-100357313D01*
X136616532Y-100583998D01*
X136616532Y-100584002D01*
X136620390Y-100628102D01*
X136606623Y-100696602D01*
X136558008Y-100746785D01*
X136489979Y-100762718D01*
X136424135Y-100739342D01*
X136409181Y-100726590D01*
X136136803Y-100454212D01*
X136126980Y-100441950D01*
X136126759Y-100442134D01*
X136121786Y-100436123D01*
X136117161Y-100431780D01*
X136071364Y-100388773D01*
X136060919Y-100378328D01*
X136050475Y-100367883D01*
X136044986Y-100363625D01*
X136040561Y-100359847D01*
X136006582Y-100327938D01*
X136006580Y-100327936D01*
X136006577Y-100327935D01*
X135989029Y-100318288D01*
X135972763Y-100307604D01*
X135956933Y-100295325D01*
X135914168Y-100276818D01*
X135908922Y-100274248D01*
X135868093Y-100251803D01*
X135868092Y-100251802D01*
X135848693Y-100246822D01*
X135830281Y-100240518D01*
X135811898Y-100232562D01*
X135811892Y-100232560D01*
X135765874Y-100225272D01*
X135760152Y-100224087D01*
X135715021Y-100212500D01*
X135715019Y-100212500D01*
X135694984Y-100212500D01*
X135675586Y-100210973D01*
X135666923Y-100209601D01*
X135655805Y-100207840D01*
X135655804Y-100207840D01*
X135609416Y-100212225D01*
X135603578Y-100212500D01*
X128072452Y-100212500D01*
X128005413Y-100192815D01*
X127984771Y-100176181D01*
X127246803Y-99438212D01*
X127236980Y-99425950D01*
X127236759Y-99426134D01*
X127231786Y-99420123D01*
X127213670Y-99403111D01*
X127181364Y-99372773D01*
X127165852Y-99357261D01*
X127160475Y-99351883D01*
X127154986Y-99347625D01*
X127150561Y-99343847D01*
X127116582Y-99311938D01*
X127116580Y-99311936D01*
X127116577Y-99311935D01*
X127099029Y-99302288D01*
X127082763Y-99291604D01*
X127066933Y-99279325D01*
X127024168Y-99260818D01*
X127018922Y-99258248D01*
X126978093Y-99235803D01*
X126978092Y-99235802D01*
X126958693Y-99230822D01*
X126940281Y-99224518D01*
X126921898Y-99216562D01*
X126921892Y-99216560D01*
X126875874Y-99209272D01*
X126870152Y-99208087D01*
X126825021Y-99196500D01*
X126825019Y-99196500D01*
X126804984Y-99196500D01*
X126785586Y-99194973D01*
X126778162Y-99193797D01*
X126765805Y-99191840D01*
X126765804Y-99191840D01*
X126719416Y-99196225D01*
X126713578Y-99196500D01*
X126687748Y-99196500D01*
X126620709Y-99176815D01*
X126595600Y-99155474D01*
X126589873Y-99149114D01*
X126589869Y-99149110D01*
X126436734Y-99037851D01*
X126436729Y-99037848D01*
X126263807Y-98960857D01*
X126263802Y-98960855D01*
X126118001Y-98929865D01*
X126078646Y-98921500D01*
X125889354Y-98921500D01*
X125856897Y-98928398D01*
X125704197Y-98960855D01*
X125704192Y-98960857D01*
X125531270Y-99037848D01*
X125531265Y-99037851D01*
X125378129Y-99149111D01*
X125251466Y-99289785D01*
X125156821Y-99453715D01*
X125156819Y-99453719D01*
X125143801Y-99493786D01*
X125104363Y-99551461D01*
X125040004Y-99578659D01*
X124971158Y-99566744D01*
X124933720Y-99538439D01*
X124928427Y-99532561D01*
X124811871Y-99403112D01*
X124782627Y-99381865D01*
X124658734Y-99291851D01*
X124658729Y-99291848D01*
X124485807Y-99214857D01*
X124485802Y-99214855D01*
X124340001Y-99183865D01*
X124300646Y-99175500D01*
X124111354Y-99175500D01*
X124078897Y-99182398D01*
X123926197Y-99214855D01*
X123926192Y-99214857D01*
X123753270Y-99291848D01*
X123753265Y-99291851D01*
X123600129Y-99403111D01*
X123473466Y-99543785D01*
X123378821Y-99707715D01*
X123378818Y-99707722D01*
X123324310Y-99875482D01*
X123320326Y-99887744D01*
X123304474Y-100038570D01*
X123302679Y-100055649D01*
X123276094Y-100120263D01*
X123267039Y-100130368D01*
X122806208Y-100591199D01*
X122793951Y-100601020D01*
X122794134Y-100601241D01*
X122788123Y-100606213D01*
X122740772Y-100656636D01*
X122719889Y-100677519D01*
X122719877Y-100677532D01*
X122715621Y-100683017D01*
X122711837Y-100687447D01*
X122679937Y-100721418D01*
X122679936Y-100721420D01*
X122670284Y-100738976D01*
X122659610Y-100755226D01*
X122647329Y-100771061D01*
X122647324Y-100771068D01*
X122628815Y-100813838D01*
X122626245Y-100819084D01*
X122603803Y-100859906D01*
X122598822Y-100879307D01*
X122592521Y-100897710D01*
X122584562Y-100916102D01*
X122584561Y-100916105D01*
X122577271Y-100962127D01*
X122576087Y-100967846D01*
X122564501Y-101012972D01*
X122564500Y-101012982D01*
X122564500Y-101033016D01*
X122562973Y-101052415D01*
X122559840Y-101072194D01*
X122559840Y-101072195D01*
X122564225Y-101118583D01*
X122564500Y-101124421D01*
X122564500Y-108978512D01*
X122544815Y-109045551D01*
X122532650Y-109061484D01*
X122457466Y-109144984D01*
X122362821Y-109308915D01*
X122362818Y-109308922D01*
X122308862Y-109474984D01*
X122304326Y-109488944D01*
X122284540Y-109677200D01*
X122304326Y-109865456D01*
X122304327Y-109865459D01*
X122362818Y-110045477D01*
X122362821Y-110045484D01*
X122457467Y-110209416D01*
X122550441Y-110312674D01*
X122584129Y-110350088D01*
X122737265Y-110461348D01*
X122737270Y-110461351D01*
X122910192Y-110538342D01*
X122910197Y-110538344D01*
X123095354Y-110577700D01*
X123095355Y-110577700D01*
X123284644Y-110577700D01*
X123284646Y-110577700D01*
X123469803Y-110538344D01*
X123642730Y-110461351D01*
X123795871Y-110350088D01*
X123922533Y-110209416D01*
X124017179Y-110045484D01*
X124075674Y-109865456D01*
X124095460Y-109677200D01*
X124075674Y-109488944D01*
X124017179Y-109308916D01*
X123922533Y-109144984D01*
X123917406Y-109139290D01*
X123847350Y-109061484D01*
X123817120Y-108998492D01*
X123815500Y-108978512D01*
X123815500Y-101402452D01*
X123835185Y-101335413D01*
X123851819Y-101314771D01*
X124153772Y-101012819D01*
X124215095Y-100979334D01*
X124241453Y-100976500D01*
X124300644Y-100976500D01*
X124300646Y-100976500D01*
X124485803Y-100937144D01*
X124658730Y-100860151D01*
X124811871Y-100748888D01*
X124938533Y-100608216D01*
X125033179Y-100444284D01*
X125046198Y-100404213D01*
X125085634Y-100346540D01*
X125149992Y-100319341D01*
X125218839Y-100331254D01*
X125256278Y-100359559D01*
X125293308Y-100400685D01*
X125378129Y-100494888D01*
X125531265Y-100606148D01*
X125531270Y-100606151D01*
X125704192Y-100683142D01*
X125704197Y-100683144D01*
X125889354Y-100722500D01*
X125889355Y-100722500D01*
X126078644Y-100722500D01*
X126078646Y-100722500D01*
X126263803Y-100683144D01*
X126436730Y-100606151D01*
X126472004Y-100580522D01*
X126537809Y-100557043D01*
X126605863Y-100572868D01*
X126632570Y-100593160D01*
X127100180Y-101060770D01*
X127133665Y-101122093D01*
X127136499Y-101148451D01*
X127136499Y-108147547D01*
X127116814Y-108214586D01*
X127100180Y-108235228D01*
X125782228Y-109553181D01*
X125720905Y-109586666D01*
X125694547Y-109589500D01*
X125635354Y-109589500D01*
X125602897Y-109596398D01*
X125450197Y-109628855D01*
X125450192Y-109628857D01*
X125277270Y-109705848D01*
X125277265Y-109705851D01*
X125124129Y-109817111D01*
X124997466Y-109957785D01*
X124902821Y-110121715D01*
X124902818Y-110121722D01*
X124845701Y-110297511D01*
X124844326Y-110301744D01*
X124824540Y-110490000D01*
X124844326Y-110678256D01*
X124844327Y-110678259D01*
X124902818Y-110858277D01*
X124902821Y-110858284D01*
X124997467Y-111022216D01*
X125051070Y-111081748D01*
X125124129Y-111162888D01*
X125277265Y-111274148D01*
X125277270Y-111274151D01*
X125450192Y-111351142D01*
X125450197Y-111351144D01*
X125635354Y-111390500D01*
X125635355Y-111390500D01*
X125824644Y-111390500D01*
X125824646Y-111390500D01*
X126009803Y-111351144D01*
X126182730Y-111274151D01*
X126335871Y-111162888D01*
X126462533Y-111022216D01*
X126557179Y-110858284D01*
X126615674Y-110678256D01*
X126633321Y-110510344D01*
X126659904Y-110445734D01*
X126668951Y-110435638D01*
X128145788Y-108958801D01*
X128158042Y-108948986D01*
X128157859Y-108948764D01*
X128163866Y-108943792D01*
X128163877Y-108943786D01*
X128194775Y-108910882D01*
X128211227Y-108893364D01*
X128221671Y-108882918D01*
X128232120Y-108872471D01*
X128236379Y-108866978D01*
X128240152Y-108862561D01*
X128272062Y-108828582D01*
X128281715Y-108811020D01*
X128292389Y-108794770D01*
X128304673Y-108778936D01*
X128323180Y-108736167D01*
X128325749Y-108730924D01*
X128348196Y-108690093D01*
X128348197Y-108690092D01*
X128353177Y-108670691D01*
X128359478Y-108652288D01*
X128367438Y-108633896D01*
X128374730Y-108587849D01*
X128375911Y-108582152D01*
X128387500Y-108537019D01*
X128387500Y-108516982D01*
X128389027Y-108497582D01*
X128392160Y-108477804D01*
X128387775Y-108431415D01*
X128387500Y-108425577D01*
X128387500Y-101587500D01*
X128407185Y-101520461D01*
X128459989Y-101474706D01*
X128511500Y-101463500D01*
X135325548Y-101463500D01*
X135392587Y-101483185D01*
X135413229Y-101499819D01*
X136622586Y-102709177D01*
X136656071Y-102770500D01*
X136654680Y-102828949D01*
X136636367Y-102897296D01*
X136636364Y-102897313D01*
X136616532Y-103123999D01*
X136616532Y-103124001D01*
X136636364Y-103350686D01*
X136636366Y-103350697D01*
X136695258Y-103570488D01*
X136695261Y-103570497D01*
X136791431Y-103776732D01*
X136791432Y-103776734D01*
X136921954Y-103963141D01*
X137082858Y-104124045D01*
X137082861Y-104124047D01*
X137269266Y-104254568D01*
X137327275Y-104281618D01*
X137379714Y-104327791D01*
X137398866Y-104394984D01*
X137378650Y-104461865D01*
X137327275Y-104506382D01*
X137269267Y-104533431D01*
X137269265Y-104533432D01*
X137082858Y-104663954D01*
X136921954Y-104824858D01*
X136791432Y-105011265D01*
X136791431Y-105011267D01*
X136695261Y-105217502D01*
X136695258Y-105217511D01*
X136636366Y-105437302D01*
X136636364Y-105437313D01*
X136616532Y-105663998D01*
X136616532Y-105664001D01*
X136636364Y-105890686D01*
X136636366Y-105890697D01*
X136695258Y-106110488D01*
X136695261Y-106110497D01*
X136791431Y-106316732D01*
X136791432Y-106316734D01*
X136921954Y-106503141D01*
X137082858Y-106664045D01*
X137082861Y-106664047D01*
X137269266Y-106794568D01*
X137327275Y-106821618D01*
X137379714Y-106867791D01*
X137398866Y-106934984D01*
X137378650Y-107001865D01*
X137327275Y-107046382D01*
X137269267Y-107073431D01*
X137269265Y-107073432D01*
X137082858Y-107203954D01*
X136921954Y-107364858D01*
X136791432Y-107551265D01*
X136791431Y-107551267D01*
X136695261Y-107757502D01*
X136695258Y-107757511D01*
X136636366Y-107977302D01*
X136636364Y-107977313D01*
X136616532Y-108203998D01*
X136616532Y-108204001D01*
X136636364Y-108430686D01*
X136636366Y-108430697D01*
X136695258Y-108650488D01*
X136695261Y-108650497D01*
X136791431Y-108856732D01*
X136791432Y-108856734D01*
X136921954Y-109043141D01*
X137082858Y-109204045D01*
X137102802Y-109218010D01*
X137269266Y-109334568D01*
X137327275Y-109361618D01*
X137379714Y-109407791D01*
X137398866Y-109474984D01*
X137378650Y-109541865D01*
X137327275Y-109586381D01*
X137320588Y-109589500D01*
X137269267Y-109613431D01*
X137269265Y-109613432D01*
X137082858Y-109743954D01*
X136921954Y-109904858D01*
X136791432Y-110091265D01*
X136791431Y-110091267D01*
X136695261Y-110297502D01*
X136695258Y-110297511D01*
X136636366Y-110517302D01*
X136636364Y-110517313D01*
X136616532Y-110743998D01*
X136616532Y-110744001D01*
X136636364Y-110970686D01*
X136636366Y-110970697D01*
X136695258Y-111190488D01*
X136695261Y-111190497D01*
X136791431Y-111396732D01*
X136791432Y-111396734D01*
X136921954Y-111583141D01*
X137082858Y-111744045D01*
X137082861Y-111744047D01*
X137269266Y-111874568D01*
X137327275Y-111901618D01*
X137379714Y-111947791D01*
X137398866Y-112014984D01*
X137378650Y-112081865D01*
X137327275Y-112126382D01*
X137269267Y-112153431D01*
X137269265Y-112153432D01*
X137082858Y-112283954D01*
X136921954Y-112444858D01*
X136791432Y-112631265D01*
X136791431Y-112631267D01*
X136695261Y-112837502D01*
X136695258Y-112837511D01*
X136636366Y-113057302D01*
X136636364Y-113057313D01*
X136616532Y-113283998D01*
X136616532Y-113284001D01*
X136636364Y-113510686D01*
X136636366Y-113510697D01*
X136695258Y-113730488D01*
X136695261Y-113730497D01*
X136791431Y-113936732D01*
X136791432Y-113936734D01*
X136921954Y-114123141D01*
X137082858Y-114284045D01*
X137082861Y-114284047D01*
X137269266Y-114414568D01*
X137327275Y-114441618D01*
X137379714Y-114487791D01*
X137398866Y-114554984D01*
X137378650Y-114621865D01*
X137327275Y-114666382D01*
X137269267Y-114693431D01*
X137269265Y-114693432D01*
X137082858Y-114823954D01*
X136921954Y-114984858D01*
X136791432Y-115171265D01*
X136791431Y-115171267D01*
X136695261Y-115377502D01*
X136695258Y-115377511D01*
X136636366Y-115597302D01*
X136636364Y-115597313D01*
X136616532Y-115823998D01*
X136616532Y-115824001D01*
X136636364Y-116050686D01*
X136636366Y-116050697D01*
X136695258Y-116270488D01*
X136695261Y-116270497D01*
X136791431Y-116476732D01*
X136791432Y-116476734D01*
X136921954Y-116663141D01*
X137082858Y-116824045D01*
X137082861Y-116824047D01*
X137269266Y-116954568D01*
X137327275Y-116981618D01*
X137379714Y-117027791D01*
X137398866Y-117094984D01*
X137378650Y-117161865D01*
X137327275Y-117206382D01*
X137269267Y-117233431D01*
X137269265Y-117233432D01*
X137082858Y-117363954D01*
X136921954Y-117524858D01*
X136791432Y-117711265D01*
X136791431Y-117711267D01*
X136695261Y-117917502D01*
X136695258Y-117917511D01*
X136636366Y-118137302D01*
X136636364Y-118137313D01*
X136616532Y-118363998D01*
X136616532Y-118364001D01*
X136636364Y-118590686D01*
X136636366Y-118590697D01*
X136695258Y-118810488D01*
X136695261Y-118810497D01*
X136791431Y-119016732D01*
X136791432Y-119016734D01*
X136921954Y-119203141D01*
X137082858Y-119364045D01*
X137082861Y-119364047D01*
X137269266Y-119494568D01*
X137327865Y-119521893D01*
X137380305Y-119568065D01*
X137399457Y-119635258D01*
X137379242Y-119702139D01*
X137327867Y-119746657D01*
X137269511Y-119773869D01*
X137196527Y-119824972D01*
X137196526Y-119824973D01*
X137750432Y-120378878D01*
X137633542Y-120429651D01*
X137516261Y-120525066D01*
X137429072Y-120648585D01*
X137398645Y-120734198D01*
X136842973Y-120178526D01*
X136842972Y-120178527D01*
X136791868Y-120251513D01*
X136695734Y-120457673D01*
X136695730Y-120457682D01*
X136636860Y-120677389D01*
X136636858Y-120677400D01*
X136617034Y-120903997D01*
X136617034Y-120904002D01*
X136636858Y-121130599D01*
X136636860Y-121130610D01*
X136695730Y-121350317D01*
X136695734Y-121350326D01*
X136791865Y-121556481D01*
X136791866Y-121556483D01*
X136842973Y-121629471D01*
X136842974Y-121629472D01*
X137396070Y-121076375D01*
X137398884Y-121089915D01*
X137468442Y-121224156D01*
X137571638Y-121334652D01*
X137700819Y-121413209D01*
X137752002Y-121427549D01*
X137196526Y-121983025D01*
X137196526Y-121983026D01*
X137269512Y-122034131D01*
X137269520Y-122034135D01*
X137327865Y-122061342D01*
X137380305Y-122107514D01*
X137399457Y-122174707D01*
X137379242Y-122241589D01*
X137327867Y-122286105D01*
X137269266Y-122313432D01*
X137269264Y-122313433D01*
X137082858Y-122443954D01*
X136921954Y-122604858D01*
X136896912Y-122640623D01*
X136842335Y-122684248D01*
X136795337Y-122693500D01*
X135236229Y-122693500D01*
X135169190Y-122673815D01*
X135148548Y-122657181D01*
X128845729Y-116354361D01*
X128833949Y-116340730D01*
X128826482Y-116330701D01*
X128819612Y-116321472D01*
X128819610Y-116321470D01*
X128779587Y-116287886D01*
X128775612Y-116284244D01*
X128772690Y-116281322D01*
X128769780Y-116278411D01*
X128744040Y-116258059D01*
X128685209Y-116208694D01*
X128679180Y-116204729D01*
X128679212Y-116204680D01*
X128672853Y-116200628D01*
X128672822Y-116200679D01*
X128666680Y-116196891D01*
X128666678Y-116196890D01*
X128666677Y-116196889D01*
X128620196Y-116175214D01*
X128597058Y-116164424D01*
X128550559Y-116141072D01*
X128528433Y-116129960D01*
X128528431Y-116129959D01*
X128528430Y-116129959D01*
X128521645Y-116127489D01*
X128521665Y-116127433D01*
X128514549Y-116124959D01*
X128514531Y-116125015D01*
X128507671Y-116122742D01*
X128479841Y-116116996D01*
X128432434Y-116107207D01*
X128383472Y-116095603D01*
X128357719Y-116089499D01*
X128350547Y-116088661D01*
X128350553Y-116088601D01*
X128343055Y-116087835D01*
X128343050Y-116087895D01*
X128335860Y-116087265D01*
X128259083Y-116089500D01*
X123761705Y-116089500D01*
X123743735Y-116088191D01*
X123719972Y-116084710D01*
X123674890Y-116088655D01*
X123667933Y-116089264D01*
X123662532Y-116089500D01*
X123654288Y-116089500D01*
X123621707Y-116093308D01*
X123545199Y-116100001D01*
X123538133Y-116101461D01*
X123538121Y-116101404D01*
X123530754Y-116103038D01*
X123530768Y-116103094D01*
X123523751Y-116104756D01*
X123451573Y-116131026D01*
X123378662Y-116155187D01*
X123372119Y-116158238D01*
X123372094Y-116158186D01*
X123365314Y-116161468D01*
X123365340Y-116161520D01*
X123358881Y-116164764D01*
X123294709Y-116206970D01*
X123229345Y-116247288D01*
X123223677Y-116251770D01*
X123223641Y-116251724D01*
X123217798Y-116256484D01*
X123217835Y-116256528D01*
X123212310Y-116261164D01*
X123212304Y-116261169D01*
X123212304Y-116261170D01*
X123196040Y-116278409D01*
X123159597Y-116317035D01*
X119867451Y-119609181D01*
X119806128Y-119642666D01*
X119779770Y-119645500D01*
X118472229Y-119645500D01*
X118405190Y-119625815D01*
X118384548Y-119609181D01*
X117625063Y-118849696D01*
X116864816Y-118089448D01*
X116831333Y-118028128D01*
X116828500Y-118001779D01*
X116828500Y-116840005D01*
X117239357Y-116840005D01*
X117259890Y-117087812D01*
X117259892Y-117087824D01*
X117320936Y-117328881D01*
X117420826Y-117556606D01*
X117556833Y-117764782D01*
X117556836Y-117764785D01*
X117725256Y-117947738D01*
X117921491Y-118100474D01*
X118140190Y-118218828D01*
X118375386Y-118299571D01*
X118620665Y-118340500D01*
X118869335Y-118340500D01*
X119114614Y-118299571D01*
X119349810Y-118218828D01*
X119568509Y-118100474D01*
X119764744Y-117947738D01*
X119933164Y-117764785D01*
X120069173Y-117556607D01*
X120169063Y-117328881D01*
X120230108Y-117087821D01*
X120230109Y-117087812D01*
X120250643Y-116840005D01*
X120250643Y-116839994D01*
X120230109Y-116592187D01*
X120230107Y-116592175D01*
X120169063Y-116351118D01*
X120069173Y-116123393D01*
X119933166Y-115915217D01*
X119911557Y-115891744D01*
X119764744Y-115732262D01*
X119568509Y-115579526D01*
X119568507Y-115579525D01*
X119568506Y-115579524D01*
X119349811Y-115461172D01*
X119349802Y-115461169D01*
X119114616Y-115380429D01*
X118869335Y-115339500D01*
X118620665Y-115339500D01*
X118375383Y-115380429D01*
X118140197Y-115461169D01*
X118140188Y-115461172D01*
X117921493Y-115579524D01*
X117725257Y-115732261D01*
X117556833Y-115915217D01*
X117420826Y-116123393D01*
X117320936Y-116351118D01*
X117259892Y-116592175D01*
X117259890Y-116592187D01*
X117239357Y-116839994D01*
X117239357Y-116840005D01*
X116828500Y-116840005D01*
X116828500Y-113030000D01*
X119294341Y-113030000D01*
X119314936Y-113265403D01*
X119314938Y-113265413D01*
X119376094Y-113493655D01*
X119376096Y-113493659D01*
X119376097Y-113493663D01*
X119475964Y-113707830D01*
X119475965Y-113707830D01*
X119475967Y-113707834D01*
X119584281Y-113862521D01*
X119611505Y-113901401D01*
X119778599Y-114068495D01*
X119855135Y-114122086D01*
X119972165Y-114204032D01*
X119972167Y-114204033D01*
X119972170Y-114204035D01*
X120186337Y-114303903D01*
X120414592Y-114365063D01*
X120585319Y-114380000D01*
X120649999Y-114385659D01*
X120650000Y-114385659D01*
X120650001Y-114385659D01*
X120714681Y-114380000D01*
X120885408Y-114365063D01*
X121113663Y-114303903D01*
X121327830Y-114204035D01*
X121521401Y-114068495D01*
X121688495Y-113901401D01*
X121818424Y-113715842D01*
X121873002Y-113672217D01*
X121942500Y-113665023D01*
X122004855Y-113696546D01*
X122021575Y-113715842D01*
X122151500Y-113901395D01*
X122151505Y-113901401D01*
X122318599Y-114068495D01*
X122395135Y-114122086D01*
X122512165Y-114204032D01*
X122512167Y-114204033D01*
X122512170Y-114204035D01*
X122726337Y-114303903D01*
X122954592Y-114365063D01*
X123125319Y-114380000D01*
X123189999Y-114385659D01*
X123190000Y-114385659D01*
X123190001Y-114385659D01*
X123254681Y-114380000D01*
X123425408Y-114365063D01*
X123653663Y-114303903D01*
X123867830Y-114204035D01*
X124061401Y-114068495D01*
X124228495Y-113901401D01*
X124358424Y-113715842D01*
X124413002Y-113672217D01*
X124482500Y-113665023D01*
X124544855Y-113696546D01*
X124561575Y-113715842D01*
X124691500Y-113901395D01*
X124691505Y-113901401D01*
X124858599Y-114068495D01*
X124935135Y-114122086D01*
X125052165Y-114204032D01*
X125052167Y-114204033D01*
X125052170Y-114204035D01*
X125266337Y-114303903D01*
X125494592Y-114365063D01*
X125665319Y-114380000D01*
X125729999Y-114385659D01*
X125730000Y-114385659D01*
X125730001Y-114385659D01*
X125794681Y-114380000D01*
X125965408Y-114365063D01*
X126193663Y-114303903D01*
X126407830Y-114204035D01*
X126601401Y-114068495D01*
X126768495Y-113901401D01*
X126898424Y-113715842D01*
X126953002Y-113672217D01*
X127022500Y-113665023D01*
X127084855Y-113696546D01*
X127101575Y-113715842D01*
X127231500Y-113901395D01*
X127231505Y-113901401D01*
X127398599Y-114068495D01*
X127475135Y-114122086D01*
X127592165Y-114204032D01*
X127592167Y-114204033D01*
X127592170Y-114204035D01*
X127806337Y-114303903D01*
X128034592Y-114365063D01*
X128205319Y-114380000D01*
X128269999Y-114385659D01*
X128270000Y-114385659D01*
X128270001Y-114385659D01*
X128334681Y-114380000D01*
X128505408Y-114365063D01*
X128733663Y-114303903D01*
X128947830Y-114204035D01*
X129141401Y-114068495D01*
X129263717Y-113946178D01*
X129325036Y-113912696D01*
X129394728Y-113917680D01*
X129450662Y-113959551D01*
X129467577Y-113990528D01*
X129516646Y-114122088D01*
X129516649Y-114122093D01*
X129602809Y-114237187D01*
X129602812Y-114237190D01*
X129717906Y-114323350D01*
X129717913Y-114323354D01*
X129852620Y-114373596D01*
X129852627Y-114373598D01*
X129912155Y-114379999D01*
X129912172Y-114380000D01*
X130560000Y-114380000D01*
X130560000Y-113465501D01*
X130667685Y-113514680D01*
X130774237Y-113530000D01*
X130845763Y-113530000D01*
X130952315Y-113514680D01*
X131060000Y-113465501D01*
X131060000Y-114380000D01*
X131707828Y-114380000D01*
X131707844Y-114379999D01*
X131767372Y-114373598D01*
X131767379Y-114373596D01*
X131902086Y-114323354D01*
X131902093Y-114323350D01*
X132017187Y-114237190D01*
X132017190Y-114237187D01*
X132103350Y-114122093D01*
X132103354Y-114122086D01*
X132153596Y-113987379D01*
X132153598Y-113987372D01*
X132159999Y-113927844D01*
X132160000Y-113927827D01*
X132160000Y-113280000D01*
X131243686Y-113280000D01*
X131269493Y-113239844D01*
X131310000Y-113101889D01*
X131310000Y-112958111D01*
X131269493Y-112820156D01*
X131243686Y-112780000D01*
X132160000Y-112780000D01*
X132160000Y-112132172D01*
X132159999Y-112132155D01*
X132153598Y-112072627D01*
X132153596Y-112072620D01*
X132103354Y-111937913D01*
X132103350Y-111937906D01*
X132017190Y-111822812D01*
X132017187Y-111822809D01*
X131902093Y-111736649D01*
X131902086Y-111736645D01*
X131767379Y-111686403D01*
X131767372Y-111686401D01*
X131707844Y-111680000D01*
X131060000Y-111680000D01*
X131060000Y-112594498D01*
X130952315Y-112545320D01*
X130845763Y-112530000D01*
X130774237Y-112530000D01*
X130667685Y-112545320D01*
X130560000Y-112594498D01*
X130560000Y-111680000D01*
X129912155Y-111680000D01*
X129852627Y-111686401D01*
X129852620Y-111686403D01*
X129717913Y-111736645D01*
X129717906Y-111736649D01*
X129602812Y-111822809D01*
X129602809Y-111822812D01*
X129516649Y-111937906D01*
X129516645Y-111937913D01*
X129467578Y-112069470D01*
X129425707Y-112125404D01*
X129360242Y-112149821D01*
X129291969Y-112134969D01*
X129263715Y-112113819D01*
X129207157Y-112057261D01*
X129141401Y-111991505D01*
X129141397Y-111991502D01*
X129141396Y-111991501D01*
X128947834Y-111855967D01*
X128947830Y-111855965D01*
X128876727Y-111822809D01*
X128733663Y-111756097D01*
X128733659Y-111756096D01*
X128733655Y-111756094D01*
X128505413Y-111694938D01*
X128505403Y-111694936D01*
X128270001Y-111674341D01*
X128269999Y-111674341D01*
X128034596Y-111694936D01*
X128034586Y-111694938D01*
X127806344Y-111756094D01*
X127806335Y-111756098D01*
X127592171Y-111855964D01*
X127592169Y-111855965D01*
X127398597Y-111991505D01*
X127231505Y-112158597D01*
X127101575Y-112344158D01*
X127046998Y-112387783D01*
X126977500Y-112394977D01*
X126915145Y-112363454D01*
X126898425Y-112344158D01*
X126768494Y-112158597D01*
X126601402Y-111991506D01*
X126601395Y-111991501D01*
X126599081Y-111989881D01*
X126557000Y-111960415D01*
X126407834Y-111855967D01*
X126407830Y-111855965D01*
X126336727Y-111822809D01*
X126193663Y-111756097D01*
X126193659Y-111756096D01*
X126193655Y-111756094D01*
X125965413Y-111694938D01*
X125965403Y-111694936D01*
X125730001Y-111674341D01*
X125729999Y-111674341D01*
X125494596Y-111694936D01*
X125494586Y-111694938D01*
X125266344Y-111756094D01*
X125266335Y-111756098D01*
X125052171Y-111855964D01*
X125052169Y-111855965D01*
X124858597Y-111991505D01*
X124691505Y-112158597D01*
X124561575Y-112344158D01*
X124506998Y-112387783D01*
X124437500Y-112394977D01*
X124375145Y-112363454D01*
X124358425Y-112344158D01*
X124228494Y-112158597D01*
X124061402Y-111991506D01*
X124061395Y-111991501D01*
X124059081Y-111989881D01*
X124017000Y-111960415D01*
X123867834Y-111855967D01*
X123867830Y-111855965D01*
X123796727Y-111822809D01*
X123653663Y-111756097D01*
X123653659Y-111756096D01*
X123653655Y-111756094D01*
X123425413Y-111694938D01*
X123425403Y-111694936D01*
X123190001Y-111674341D01*
X123189999Y-111674341D01*
X122954596Y-111694936D01*
X122954586Y-111694938D01*
X122726344Y-111756094D01*
X122726335Y-111756098D01*
X122512171Y-111855964D01*
X122512169Y-111855965D01*
X122318597Y-111991505D01*
X122151505Y-112158597D01*
X122021575Y-112344158D01*
X121966998Y-112387783D01*
X121897500Y-112394977D01*
X121835145Y-112363454D01*
X121818425Y-112344158D01*
X121688494Y-112158597D01*
X121521402Y-111991506D01*
X121521395Y-111991501D01*
X121519081Y-111989881D01*
X121477000Y-111960415D01*
X121327834Y-111855967D01*
X121327830Y-111855965D01*
X121256727Y-111822809D01*
X121113663Y-111756097D01*
X121113659Y-111756096D01*
X121113655Y-111756094D01*
X120885413Y-111694938D01*
X120885403Y-111694936D01*
X120650001Y-111674341D01*
X120649999Y-111674341D01*
X120414596Y-111694936D01*
X120414586Y-111694938D01*
X120186344Y-111756094D01*
X120186335Y-111756098D01*
X119972171Y-111855964D01*
X119972169Y-111855965D01*
X119778597Y-111991505D01*
X119611505Y-112158597D01*
X119475965Y-112352169D01*
X119475964Y-112352171D01*
X119376098Y-112566335D01*
X119376094Y-112566344D01*
X119314938Y-112794586D01*
X119314936Y-112794596D01*
X119294341Y-113029999D01*
X119294341Y-113030000D01*
X116828500Y-113030000D01*
X116828500Y-104965705D01*
X116829809Y-104947735D01*
X116830129Y-104945547D01*
X116833289Y-104923977D01*
X116833287Y-104923959D01*
X116828736Y-104871934D01*
X116828500Y-104866528D01*
X116828500Y-104858297D01*
X116828500Y-104858291D01*
X116824693Y-104825724D01*
X116817999Y-104749203D01*
X116817999Y-104749201D01*
X116816539Y-104742129D01*
X116816597Y-104742116D01*
X116814965Y-104734757D01*
X116814906Y-104734772D01*
X116813242Y-104727753D01*
X116813241Y-104727745D01*
X116786974Y-104655576D01*
X116762814Y-104582666D01*
X116762809Y-104582659D01*
X116759760Y-104576118D01*
X116759815Y-104576091D01*
X116756533Y-104569313D01*
X116756480Y-104569340D01*
X116753235Y-104562880D01*
X116711028Y-104498708D01*
X116670710Y-104433342D01*
X116666234Y-104427682D01*
X116666281Y-104427644D01*
X116661519Y-104421799D01*
X116661474Y-104421838D01*
X116656834Y-104416308D01*
X116649748Y-104409623D01*
X116634232Y-104394984D01*
X116600964Y-104363596D01*
X114621729Y-102384361D01*
X114609949Y-102370730D01*
X114602482Y-102360701D01*
X114595612Y-102351472D01*
X114595610Y-102351470D01*
X114555587Y-102317886D01*
X114551612Y-102314244D01*
X114548690Y-102311322D01*
X114545780Y-102308411D01*
X114520040Y-102288059D01*
X114461209Y-102238694D01*
X114455180Y-102234729D01*
X114455212Y-102234680D01*
X114448853Y-102230628D01*
X114448822Y-102230679D01*
X114442680Y-102226891D01*
X114442678Y-102226890D01*
X114442677Y-102226889D01*
X114403474Y-102208608D01*
X114373058Y-102194424D01*
X114338894Y-102177267D01*
X114304433Y-102159960D01*
X114304431Y-102159959D01*
X114304430Y-102159959D01*
X114297645Y-102157489D01*
X114297665Y-102157433D01*
X114290549Y-102154959D01*
X114290531Y-102155015D01*
X114283671Y-102152742D01*
X114255841Y-102146996D01*
X114208434Y-102137207D01*
X114159472Y-102125603D01*
X114133719Y-102119499D01*
X114126547Y-102118661D01*
X114126553Y-102118601D01*
X114119055Y-102117835D01*
X114119050Y-102117895D01*
X114111860Y-102117265D01*
X114035083Y-102119500D01*
X112800226Y-102119500D01*
X112733187Y-102099815D01*
X112702373Y-102071662D01*
X112555176Y-101882544D01*
X112555171Y-101882537D01*
X112378010Y-101719449D01*
X112354071Y-101703809D01*
X112308714Y-101650664D01*
X112299290Y-101581433D01*
X112328791Y-101518096D01*
X112354070Y-101496191D01*
X112378010Y-101480551D01*
X112555171Y-101317463D01*
X112703072Y-101127439D01*
X112817679Y-100915664D01*
X112895866Y-100687913D01*
X112935500Y-100450399D01*
X112935500Y-100209601D01*
X112895866Y-99972087D01*
X112881852Y-99931267D01*
X112825620Y-99767468D01*
X112817679Y-99744336D01*
X112703072Y-99532561D01*
X112690809Y-99516806D01*
X112641707Y-99453719D01*
X112555171Y-99342537D01*
X112378010Y-99179449D01*
X112176422Y-99047745D01*
X112176419Y-99047743D01*
X112176418Y-99047743D01*
X111955905Y-98951017D01*
X111722476Y-98891905D01*
X111722475Y-98891904D01*
X111722472Y-98891904D01*
X111578329Y-98879960D01*
X111542600Y-98877000D01*
X111327400Y-98877000D01*
X111294898Y-98879693D01*
X111147527Y-98891904D01*
X110914094Y-98951017D01*
X110693581Y-99047743D01*
X110491990Y-99179449D01*
X110344760Y-99314984D01*
X110314829Y-99342537D01*
X110285507Y-99380210D01*
X110166929Y-99532558D01*
X110052321Y-99744334D01*
X110052318Y-99744343D01*
X109974134Y-99972083D01*
X109961069Y-100050380D01*
X109934500Y-100209601D01*
X109934500Y-100450399D01*
X109941924Y-100494888D01*
X109974134Y-100687916D01*
X110052318Y-100915656D01*
X110052321Y-100915665D01*
X110166929Y-101127441D01*
X110183282Y-101148451D01*
X110314829Y-101317463D01*
X110491990Y-101480551D01*
X110515930Y-101496192D01*
X110561286Y-101549335D01*
X110570710Y-101618566D01*
X110541209Y-101681903D01*
X110515933Y-101703805D01*
X110491994Y-101719446D01*
X110491988Y-101719450D01*
X110322789Y-101875209D01*
X110314829Y-101882537D01*
X110314824Y-101882544D01*
X110166929Y-102072558D01*
X110052321Y-102284334D01*
X110052318Y-102284343D01*
X109974134Y-102512083D01*
X109934500Y-102749602D01*
X109934500Y-102990397D01*
X109974134Y-103227916D01*
X110052318Y-103455656D01*
X110052321Y-103455665D01*
X110166929Y-103667441D01*
X110166933Y-103667447D01*
X110277832Y-103809930D01*
X110303475Y-103874924D01*
X110289908Y-103943464D01*
X110241440Y-103993788D01*
X110223313Y-104002273D01*
X110192675Y-104013700D01*
X110192664Y-104013706D01*
X110077455Y-104099952D01*
X110077452Y-104099955D01*
X109991206Y-104215164D01*
X109991202Y-104215171D01*
X109940908Y-104350017D01*
X109936180Y-104394000D01*
X109934501Y-104409623D01*
X109934500Y-104409635D01*
X109934500Y-106410370D01*
X107626798Y-106410370D01*
X105344206Y-99562594D01*
X105338018Y-99516806D01*
X105596022Y-94658933D01*
X106910668Y-94658933D01*
X106938043Y-94814175D01*
X106941135Y-94831711D01*
X107010623Y-94992804D01*
X107010624Y-94992806D01*
X107010626Y-94992809D01*
X107065278Y-95066218D01*
X107115390Y-95133530D01*
X107249786Y-95246302D01*
X107311534Y-95277313D01*
X107406562Y-95325038D01*
X107406563Y-95325038D01*
X107406567Y-95325040D01*
X107577279Y-95365500D01*
X107577282Y-95365500D01*
X107708701Y-95365500D01*
X107708709Y-95365500D01*
X107839255Y-95350241D01*
X108004117Y-95290237D01*
X108150696Y-95193830D01*
X108271092Y-95066218D01*
X108358812Y-94914281D01*
X108409130Y-94746210D01*
X108419331Y-94571065D01*
X108388865Y-94398289D01*
X108319377Y-94237196D01*
X108317730Y-94234984D01*
X108220462Y-94104331D01*
X108214610Y-94096470D01*
X108142747Y-94036170D01*
X108080214Y-93983698D01*
X108080212Y-93983697D01*
X107923437Y-93904961D01*
X107923433Y-93904960D01*
X107752721Y-93864500D01*
X107621291Y-93864500D01*
X107516854Y-93876707D01*
X107490743Y-93879759D01*
X107490740Y-93879760D01*
X107325884Y-93939762D01*
X107325880Y-93939764D01*
X107179306Y-94036167D01*
X107179305Y-94036168D01*
X107058910Y-94163778D01*
X106971188Y-94315718D01*
X106920870Y-94483789D01*
X106920869Y-94483794D01*
X106910668Y-94658933D01*
X105596022Y-94658933D01*
X105648279Y-93675002D01*
X109409723Y-93675002D01*
X109413833Y-93721975D01*
X109427498Y-93878180D01*
X109428793Y-93892975D01*
X109428793Y-93892979D01*
X109485422Y-94104322D01*
X109485424Y-94104326D01*
X109485425Y-94104330D01*
X109525718Y-94190739D01*
X109577897Y-94302638D01*
X109577898Y-94302639D01*
X109703402Y-94481877D01*
X109858123Y-94636598D01*
X110037361Y-94762102D01*
X110235670Y-94854575D01*
X110447023Y-94911207D01*
X110629926Y-94927208D01*
X110664998Y-94930277D01*
X110665000Y-94930277D01*
X110665002Y-94930277D01*
X110693254Y-94927805D01*
X110882977Y-94911207D01*
X111094330Y-94854575D01*
X111292639Y-94762102D01*
X111439979Y-94658933D01*
X112910668Y-94658933D01*
X112938043Y-94814175D01*
X112941135Y-94831711D01*
X113010623Y-94992804D01*
X113010624Y-94992806D01*
X113010626Y-94992809D01*
X113065278Y-95066218D01*
X113115390Y-95133530D01*
X113249786Y-95246302D01*
X113311534Y-95277313D01*
X113406562Y-95325038D01*
X113406563Y-95325038D01*
X113406567Y-95325040D01*
X113577279Y-95365500D01*
X113577282Y-95365500D01*
X113708701Y-95365500D01*
X113708709Y-95365500D01*
X113839255Y-95350241D01*
X114004117Y-95290237D01*
X114150696Y-95193830D01*
X114271092Y-95066218D01*
X114358812Y-94914281D01*
X114409130Y-94746210D01*
X114419331Y-94571065D01*
X114388865Y-94398289D01*
X114319377Y-94237196D01*
X114317730Y-94234984D01*
X114220462Y-94104331D01*
X114214610Y-94096470D01*
X114142747Y-94036170D01*
X114080214Y-93983698D01*
X114080212Y-93983697D01*
X113923437Y-93904961D01*
X113923433Y-93904960D01*
X113752721Y-93864500D01*
X113621291Y-93864500D01*
X113516854Y-93876707D01*
X113490743Y-93879759D01*
X113490740Y-93879760D01*
X113325884Y-93939762D01*
X113325880Y-93939764D01*
X113179306Y-94036167D01*
X113179305Y-94036168D01*
X113058910Y-94163778D01*
X112971188Y-94315718D01*
X112920870Y-94483789D01*
X112920869Y-94483794D01*
X112910668Y-94658933D01*
X111439979Y-94658933D01*
X111471877Y-94636598D01*
X111626598Y-94481877D01*
X111752102Y-94302639D01*
X111844575Y-94104330D01*
X111901207Y-93892977D01*
X111918159Y-93699212D01*
X111920277Y-93675002D01*
X111920277Y-93674997D01*
X111916569Y-93632618D01*
X111901207Y-93457023D01*
X111844575Y-93245670D01*
X111752102Y-93047362D01*
X111752100Y-93047359D01*
X111752099Y-93047357D01*
X111626599Y-92868124D01*
X111570023Y-92811548D01*
X111471877Y-92713402D01*
X111292639Y-92587898D01*
X111292640Y-92587898D01*
X111292638Y-92587897D01*
X111193484Y-92541661D01*
X111094330Y-92495425D01*
X111094326Y-92495424D01*
X111094322Y-92495422D01*
X110882977Y-92438793D01*
X110665002Y-92419723D01*
X110664998Y-92419723D01*
X110543175Y-92430381D01*
X110447023Y-92438793D01*
X110447020Y-92438793D01*
X110235677Y-92495422D01*
X110235668Y-92495426D01*
X110037361Y-92587898D01*
X110037357Y-92587900D01*
X109858121Y-92713402D01*
X109703402Y-92868121D01*
X109577900Y-93047357D01*
X109577898Y-93047361D01*
X109511065Y-93190686D01*
X109485737Y-93245002D01*
X109485426Y-93245668D01*
X109485422Y-93245677D01*
X109428793Y-93457020D01*
X109428793Y-93457024D01*
X109409723Y-93674997D01*
X109409723Y-93675002D01*
X105648279Y-93675002D01*
X105778401Y-91224985D01*
X109415000Y-91224985D01*
X109425493Y-91327689D01*
X109425494Y-91327696D01*
X109480641Y-91494118D01*
X109480643Y-91494123D01*
X109572684Y-91643344D01*
X109696655Y-91767315D01*
X109845876Y-91859356D01*
X109845881Y-91859358D01*
X110012303Y-91914505D01*
X110012310Y-91914506D01*
X110115014Y-91924999D01*
X110115027Y-91925000D01*
X110415000Y-91925000D01*
X110415000Y-91110501D01*
X110522685Y-91159680D01*
X110629237Y-91175000D01*
X110700763Y-91175000D01*
X110807315Y-91159680D01*
X110915000Y-91110501D01*
X110915000Y-91925000D01*
X111214973Y-91925000D01*
X111214985Y-91924999D01*
X111317689Y-91914506D01*
X111317696Y-91914505D01*
X111484118Y-91859358D01*
X111484123Y-91859356D01*
X111633344Y-91767315D01*
X111757315Y-91643344D01*
X111849356Y-91494123D01*
X111849358Y-91494118D01*
X111904505Y-91327696D01*
X111904506Y-91327689D01*
X111914999Y-91224985D01*
X111915000Y-91224972D01*
X111915000Y-90925000D01*
X111098686Y-90925000D01*
X111124493Y-90884844D01*
X111165000Y-90746889D01*
X111165000Y-90603111D01*
X111124493Y-90465156D01*
X111098686Y-90425000D01*
X111915000Y-90425000D01*
X111915000Y-90125027D01*
X111914999Y-90125014D01*
X111904506Y-90022310D01*
X111904505Y-90022303D01*
X111849358Y-89855881D01*
X111849356Y-89855876D01*
X111757315Y-89706655D01*
X111633344Y-89582684D01*
X111484123Y-89490643D01*
X111484118Y-89490641D01*
X111317696Y-89435494D01*
X111317689Y-89435493D01*
X111214985Y-89425000D01*
X110915000Y-89425000D01*
X110915000Y-90239498D01*
X110807315Y-90190320D01*
X110700763Y-90175000D01*
X110629237Y-90175000D01*
X110522685Y-90190320D01*
X110415000Y-90239498D01*
X110415000Y-89425000D01*
X110115014Y-89425000D01*
X110012310Y-89435493D01*
X110012303Y-89435494D01*
X109845881Y-89490641D01*
X109845876Y-89490643D01*
X109696655Y-89582684D01*
X109572684Y-89706655D01*
X109480643Y-89855876D01*
X109480641Y-89855881D01*
X109425494Y-90022303D01*
X109425493Y-90022310D01*
X109415000Y-90125014D01*
X109415000Y-90425000D01*
X110231314Y-90425000D01*
X110205507Y-90465156D01*
X110165000Y-90603111D01*
X110165000Y-90746889D01*
X110205507Y-90884844D01*
X110231314Y-90925000D01*
X109415000Y-90925000D01*
X109415000Y-91224985D01*
X105778401Y-91224985D01*
X106044056Y-86223054D01*
X106050899Y-86188508D01*
X106055838Y-86174459D01*
X111117381Y-71776671D01*
X111139880Y-71737493D01*
X121812049Y-59182000D01*
X135900659Y-59182000D01*
X135919975Y-59378129D01*
X135977188Y-59566733D01*
X136070086Y-59740532D01*
X136070090Y-59740539D01*
X136195116Y-59892883D01*
X136347460Y-60017909D01*
X136347467Y-60017913D01*
X136521266Y-60110811D01*
X136521269Y-60110811D01*
X136521273Y-60110814D01*
X136709868Y-60168024D01*
X136906000Y-60187341D01*
X137102132Y-60168024D01*
X137290727Y-60110814D01*
X137317685Y-60096405D01*
X156126757Y-60096405D01*
X156147290Y-60344212D01*
X156147292Y-60344224D01*
X156208336Y-60585281D01*
X156308226Y-60813006D01*
X156444233Y-61021182D01*
X156444236Y-61021185D01*
X156612656Y-61204138D01*
X156808891Y-61356874D01*
X157027590Y-61475228D01*
X157262786Y-61555971D01*
X157508065Y-61596900D01*
X157756735Y-61596900D01*
X158002014Y-61555971D01*
X158237210Y-61475228D01*
X158455909Y-61356874D01*
X158652144Y-61204138D01*
X158820564Y-61021185D01*
X158956573Y-60813007D01*
X159056463Y-60585281D01*
X159117508Y-60344221D01*
X159117509Y-60344212D01*
X159138043Y-60096405D01*
X159138043Y-60096394D01*
X159117509Y-59848587D01*
X159117507Y-59848575D01*
X159056463Y-59607518D01*
X158956573Y-59379793D01*
X158820566Y-59171617D01*
X158798957Y-59148144D01*
X158652144Y-58988662D01*
X158455909Y-58835926D01*
X158455907Y-58835925D01*
X158455906Y-58835924D01*
X158237211Y-58717572D01*
X158237202Y-58717569D01*
X158002016Y-58636829D01*
X157756735Y-58595900D01*
X157508065Y-58595900D01*
X157262783Y-58636829D01*
X157027597Y-58717569D01*
X157027588Y-58717572D01*
X156808893Y-58835924D01*
X156612657Y-58988661D01*
X156444233Y-59171617D01*
X156308226Y-59379793D01*
X156208336Y-59607518D01*
X156147292Y-59848575D01*
X156147290Y-59848587D01*
X156126757Y-60096394D01*
X156126757Y-60096405D01*
X137317685Y-60096405D01*
X137464532Y-60017913D01*
X137464538Y-60017910D01*
X137616883Y-59892883D01*
X137741910Y-59740538D01*
X137834814Y-59566727D01*
X137892024Y-59378132D01*
X137911341Y-59182000D01*
X137892024Y-58985868D01*
X137834814Y-58797273D01*
X137834811Y-58797269D01*
X137834811Y-58797266D01*
X137741913Y-58623467D01*
X137741911Y-58623465D01*
X137741910Y-58623462D01*
X137725536Y-58603511D01*
X137684647Y-58553686D01*
X137657334Y-58489376D01*
X137656500Y-58475021D01*
X137656500Y-55734229D01*
X137676185Y-55667190D01*
X137692815Y-55646552D01*
X138244752Y-55094614D01*
X138306073Y-55061131D01*
X138352840Y-55059988D01*
X138559665Y-55094500D01*
X138808335Y-55094500D01*
X139053614Y-55053571D01*
X139288810Y-54972828D01*
X139507509Y-54854474D01*
X139703744Y-54701738D01*
X139872164Y-54518785D01*
X140008173Y-54310607D01*
X140108063Y-54082881D01*
X140169108Y-53841821D01*
X140170379Y-53826481D01*
X140189643Y-53594005D01*
X140189643Y-53593994D01*
X140169109Y-53346187D01*
X140169107Y-53346175D01*
X140108063Y-53105118D01*
X140008173Y-52877393D01*
X139872166Y-52669217D01*
X139790202Y-52580181D01*
X139703744Y-52486262D01*
X139507509Y-52333526D01*
X139507507Y-52333525D01*
X139507506Y-52333524D01*
X139288811Y-52215172D01*
X139288802Y-52215169D01*
X139053616Y-52134429D01*
X138808335Y-52093500D01*
X138559665Y-52093500D01*
X138314383Y-52134429D01*
X138079197Y-52215169D01*
X138079188Y-52215172D01*
X137860493Y-52333524D01*
X137664257Y-52486261D01*
X137495833Y-52669217D01*
X137359826Y-52877393D01*
X137259936Y-53105118D01*
X137198892Y-53346175D01*
X137198890Y-53346187D01*
X137178357Y-53593994D01*
X137178357Y-53594005D01*
X137198891Y-53841817D01*
X137198891Y-53841820D01*
X137198892Y-53841821D01*
X137216693Y-53912117D01*
X137217143Y-53913892D01*
X137214518Y-53983712D01*
X137184618Y-54032013D01*
X136420358Y-54796272D01*
X136406729Y-54808051D01*
X136387468Y-54822390D01*
X136353898Y-54862397D01*
X136350253Y-54866376D01*
X136344409Y-54872222D01*
X136324059Y-54897959D01*
X136274695Y-54956789D01*
X136270729Y-54962819D01*
X136270682Y-54962788D01*
X136266630Y-54969147D01*
X136266679Y-54969177D01*
X136262889Y-54975321D01*
X136230424Y-55044941D01*
X136195960Y-55113566D01*
X136193488Y-55120357D01*
X136193432Y-55120336D01*
X136190960Y-55127450D01*
X136191015Y-55127469D01*
X136188742Y-55134327D01*
X136180975Y-55171946D01*
X136173207Y-55209565D01*
X136160001Y-55265284D01*
X136155498Y-55284286D01*
X136154661Y-55291454D01*
X136154601Y-55291447D01*
X136153835Y-55298945D01*
X136153895Y-55298951D01*
X136153265Y-55306140D01*
X136155500Y-55382916D01*
X136155500Y-58475021D01*
X136135815Y-58542060D01*
X136127353Y-58553686D01*
X136070091Y-58623460D01*
X136070086Y-58623467D01*
X135977188Y-58797266D01*
X135919975Y-58985870D01*
X135900659Y-59182000D01*
X121812049Y-59182000D01*
X121903610Y-59074281D01*
X121942630Y-59043684D01*
X126614262Y-56707868D01*
X126683022Y-56695495D01*
X126747561Y-56722263D01*
X126787383Y-56779673D01*
X126789917Y-56849218D01*
X126755704Y-56984325D01*
X126740800Y-57164202D01*
X126740800Y-57379398D01*
X126755704Y-57559272D01*
X126755704Y-57559275D01*
X126755705Y-57559276D01*
X126814817Y-57792705D01*
X126911545Y-58013222D01*
X127043249Y-58214810D01*
X127206337Y-58391971D01*
X127362708Y-58513679D01*
X127395822Y-58539453D01*
X127396361Y-58539872D01*
X127499892Y-58595900D01*
X127607278Y-58654015D01*
X127608136Y-58654479D01*
X127726398Y-58695078D01*
X127835883Y-58732665D01*
X127835885Y-58732665D01*
X127835887Y-58732666D01*
X128073401Y-58772300D01*
X128073402Y-58772300D01*
X128314198Y-58772300D01*
X128314199Y-58772300D01*
X128551713Y-58732666D01*
X128779464Y-58654479D01*
X128991239Y-58539872D01*
X129181263Y-58391971D01*
X129344351Y-58214810D01*
X129360289Y-58190413D01*
X129413431Y-58145058D01*
X129482662Y-58135631D01*
X129545999Y-58165130D01*
X129567906Y-58190411D01*
X129583647Y-58214504D01*
X129583651Y-58214510D01*
X129746673Y-58391597D01*
X129746683Y-58391606D01*
X129936631Y-58539449D01*
X129936640Y-58539455D01*
X130148331Y-58654015D01*
X130148345Y-58654021D01*
X130376007Y-58732179D01*
X130483800Y-58750166D01*
X130483800Y-57763483D01*
X130512619Y-57781009D01*
X130658204Y-57821800D01*
X130771422Y-57821800D01*
X130883583Y-57806384D01*
X130983799Y-57762853D01*
X130983799Y-58750165D01*
X131091592Y-58732179D01*
X131319254Y-58654021D01*
X131319268Y-58654015D01*
X131530959Y-58539455D01*
X131530962Y-58539453D01*
X131673546Y-58428475D01*
X131738540Y-58402832D01*
X131807080Y-58416398D01*
X131857405Y-58464866D01*
X131865891Y-58482996D01*
X131877501Y-58514126D01*
X131877506Y-58514135D01*
X131963752Y-58629344D01*
X131963755Y-58629347D01*
X132078964Y-58715593D01*
X132078971Y-58715597D01*
X132213817Y-58765891D01*
X132213816Y-58765891D01*
X132220744Y-58766635D01*
X132273427Y-58772300D01*
X134274172Y-58772299D01*
X134333783Y-58765891D01*
X134468631Y-58715596D01*
X134583846Y-58629346D01*
X134670096Y-58514131D01*
X134720391Y-58379283D01*
X134726800Y-58319673D01*
X134726799Y-56223928D01*
X134720391Y-56164317D01*
X134715794Y-56151993D01*
X134670097Y-56029471D01*
X134670093Y-56029464D01*
X134583847Y-55914255D01*
X134583844Y-55914252D01*
X134468635Y-55828006D01*
X134468628Y-55828002D01*
X134333782Y-55777708D01*
X134333783Y-55777708D01*
X134274183Y-55771301D01*
X134274181Y-55771300D01*
X134274173Y-55771300D01*
X134274164Y-55771300D01*
X132273429Y-55771300D01*
X132273423Y-55771301D01*
X132213816Y-55777708D01*
X132078971Y-55828002D01*
X132078964Y-55828006D01*
X131963755Y-55914252D01*
X131963752Y-55914255D01*
X131877506Y-56029464D01*
X131877502Y-56029471D01*
X131865891Y-56060604D01*
X131824020Y-56116538D01*
X131758556Y-56140955D01*
X131690283Y-56126103D01*
X131673547Y-56115124D01*
X131530968Y-56004150D01*
X131530959Y-56004144D01*
X131319268Y-55889584D01*
X131319254Y-55889578D01*
X131091591Y-55811419D01*
X130983800Y-55793433D01*
X130983799Y-56780116D01*
X130954981Y-56762591D01*
X130809396Y-56721800D01*
X130696178Y-56721800D01*
X130584017Y-56737216D01*
X130483800Y-56780746D01*
X130483800Y-55793433D01*
X130483799Y-55793433D01*
X130376008Y-55811419D01*
X130148345Y-55889578D01*
X130148331Y-55889584D01*
X129936640Y-56004144D01*
X129936631Y-56004150D01*
X129746683Y-56151993D01*
X129746673Y-56152002D01*
X129583651Y-56329089D01*
X129583646Y-56329097D01*
X129567904Y-56353190D01*
X129514755Y-56398545D01*
X129445524Y-56407965D01*
X129382189Y-56378460D01*
X129360289Y-56353184D01*
X129344355Y-56328794D01*
X129296347Y-56276644D01*
X129181263Y-56151629D01*
X129024305Y-56029464D01*
X128991241Y-56003729D01*
X128779465Y-55889121D01*
X128779456Y-55889118D01*
X128746180Y-55877694D01*
X128689164Y-55837308D01*
X128663034Y-55772508D01*
X128676086Y-55703869D01*
X128724175Y-55653181D01*
X128730951Y-55649524D01*
X135874538Y-52077730D01*
X135906983Y-52066793D01*
X142832345Y-50759395D01*
X143425372Y-50647441D01*
X143448375Y-50645289D01*
X144668381Y-50645289D01*
X144735420Y-50664974D01*
G37*
%TD.AperFunction*%
%TD*%
M02*
