%TF.GenerationSoftware,KiCad,Pcbnew,7.0.6*%
%TF.CreationDate,2024-03-14T18:06:26+11:00*%
%TF.ProjectId,Rocketry_Payload_Main_DDR_Spec_V2,526f636b-6574-4727-995f-5061796c6f61,rev?*%
%TF.SameCoordinates,Original*%
%TF.FileFunction,Paste,Top*%
%TF.FilePolarity,Positive*%
%FSLAX46Y46*%
G04 Gerber Fmt 4.6, Leading zero omitted, Abs format (unit mm)*
G04 Created by KiCad (PCBNEW 7.0.6) date 2024-03-14 18:06:26*
%MOMM*%
%LPD*%
G01*
G04 APERTURE LIST*
G04 Aperture macros list*
%AMRoundRect*
0 Rectangle with rounded corners*
0 $1 Rounding radius*
0 $2 $3 $4 $5 $6 $7 $8 $9 X,Y pos of 4 corners*
0 Add a 4 corners polygon primitive as box body*
4,1,4,$2,$3,$4,$5,$6,$7,$8,$9,$2,$3,0*
0 Add four circle primitives for the rounded corners*
1,1,$1+$1,$2,$3*
1,1,$1+$1,$4,$5*
1,1,$1+$1,$6,$7*
1,1,$1+$1,$8,$9*
0 Add four rect primitives between the rounded corners*
20,1,$1+$1,$2,$3,$4,$5,0*
20,1,$1+$1,$4,$5,$6,$7,0*
20,1,$1+$1,$6,$7,$8,$9,0*
20,1,$1+$1,$8,$9,$2,$3,0*%
G04 Aperture macros list end*
%ADD10RoundRect,0.225000X0.375000X-0.225000X0.375000X0.225000X-0.375000X0.225000X-0.375000X-0.225000X0*%
%ADD11RoundRect,0.250001X0.462499X0.624999X-0.462499X0.624999X-0.462499X-0.624999X0.462499X-0.624999X0*%
%ADD12RoundRect,0.250000X-0.325000X-0.650000X0.325000X-0.650000X0.325000X0.650000X-0.325000X0.650000X0*%
%ADD13RoundRect,0.250000X0.312500X0.625000X-0.312500X0.625000X-0.312500X-0.625000X0.312500X-0.625000X0*%
%ADD14RoundRect,0.250000X-0.412500X-0.650000X0.412500X-0.650000X0.412500X0.650000X-0.412500X0.650000X0*%
%ADD15RoundRect,0.250000X-0.400000X-0.625000X0.400000X-0.625000X0.400000X0.625000X-0.400000X0.625000X0*%
%ADD16RoundRect,0.250000X-0.312500X-0.625000X0.312500X-0.625000X0.312500X0.625000X-0.312500X0.625000X0*%
%ADD17RoundRect,0.250000X-0.625000X0.400000X-0.625000X-0.400000X0.625000X-0.400000X0.625000X0.400000X0*%
%ADD18RoundRect,0.250000X0.375000X0.625000X-0.375000X0.625000X-0.375000X-0.625000X0.375000X-0.625000X0*%
%ADD19RoundRect,0.250000X-0.625000X0.312500X-0.625000X-0.312500X0.625000X-0.312500X0.625000X0.312500X0*%
%ADD20RoundRect,0.250000X-0.650000X0.412500X-0.650000X-0.412500X0.650000X-0.412500X0.650000X0.412500X0*%
%ADD21RoundRect,0.250000X0.625000X-0.400000X0.625000X0.400000X-0.625000X0.400000X-0.625000X-0.400000X0*%
%ADD22RoundRect,0.250001X0.624999X-0.462499X0.624999X0.462499X-0.624999X0.462499X-0.624999X-0.462499X0*%
%ADD23RoundRect,0.250000X0.325000X0.650000X-0.325000X0.650000X-0.325000X-0.650000X0.325000X-0.650000X0*%
%ADD24RoundRect,0.087500X0.125000X0.087500X-0.125000X0.087500X-0.125000X-0.087500X0.125000X-0.087500X0*%
%ADD25RoundRect,0.087500X0.087500X0.125000X-0.087500X0.125000X-0.087500X-0.125000X0.087500X-0.125000X0*%
%ADD26RoundRect,0.250000X-1.500000X-0.650000X1.500000X-0.650000X1.500000X0.650000X-1.500000X0.650000X0*%
%ADD27RoundRect,0.250000X-0.625000X0.375000X-0.625000X-0.375000X0.625000X-0.375000X0.625000X0.375000X0*%
%ADD28RoundRect,0.250000X-0.375000X-0.625000X0.375000X-0.625000X0.375000X0.625000X-0.375000X0.625000X0*%
%ADD29R,3.810000X4.240000*%
G04 APERTURE END LIST*
D10*
%TO.C,D5*%
X117094000Y-92582000D03*
X117094000Y-89282000D03*
%TD*%
D11*
%TO.C,D1*%
X163195000Y-132842000D03*
X160220000Y-132842000D03*
%TD*%
D12*
%TO.C,C5*%
X140003000Y-61976000D03*
X142953000Y-61976000D03*
%TD*%
D13*
%TO.C,R6*%
X168467500Y-59690000D03*
X165542500Y-59690000D03*
%TD*%
D11*
%TO.C,D2*%
X163195000Y-129032000D03*
X160220000Y-129032000D03*
%TD*%
D14*
%TO.C,C2*%
X120992500Y-97104500D03*
X124117500Y-97104500D03*
%TD*%
%TO.C,C1*%
X127342500Y-108585000D03*
X130467500Y-108585000D03*
%TD*%
D15*
%TO.C,R2*%
X126085000Y-102235000D03*
X129185000Y-102235000D03*
%TD*%
D16*
%TO.C,R8*%
X148503100Y-59182000D03*
X145578100Y-59182000D03*
%TD*%
D17*
%TO.C,R5*%
X157480000Y-86080000D03*
X157480000Y-89180000D03*
%TD*%
D18*
%TO.C,D10*%
X142827200Y-59283600D03*
X140027200Y-59283600D03*
%TD*%
D19*
%TO.C,R7*%
X157480000Y-54417500D03*
X157480000Y-57342500D03*
%TD*%
D20*
%TO.C,C3*%
X137668000Y-129617000D03*
X137668000Y-126492000D03*
%TD*%
D15*
%TO.C,R3*%
X126085000Y-97104500D03*
X129185000Y-97104500D03*
%TD*%
D17*
%TO.C,R4*%
X157480000Y-80365000D03*
X157480000Y-83465000D03*
%TD*%
D21*
%TO.C,R9*%
X119634000Y-108256000D03*
X119634000Y-105156000D03*
%TD*%
D22*
%TO.C,D6*%
X157480000Y-94832500D03*
X157480000Y-91857500D03*
%TD*%
D23*
%TO.C,C4*%
X148541000Y-61976000D03*
X145591000Y-61976000D03*
%TD*%
D11*
%TO.C,D3*%
X163195000Y-124880000D03*
X160220000Y-124880000D03*
%TD*%
D24*
%TO.C,IC1*%
X126492500Y-105660000D03*
X126492500Y-105160000D03*
D25*
X126230000Y-104647500D03*
X125730000Y-104647500D03*
X125230000Y-104647500D03*
D24*
X124967500Y-105160000D03*
X124967500Y-105660000D03*
D25*
X125230000Y-106172500D03*
X125730000Y-106172500D03*
X126230000Y-106172500D03*
%TD*%
D26*
%TO.C,D8*%
X167680000Y-64135000D03*
X172680000Y-64135000D03*
%TD*%
D17*
%TO.C,R1*%
X166878000Y-120904000D03*
X166878000Y-124004000D03*
%TD*%
D11*
%TO.C,D4*%
X163195000Y-121285000D03*
X160220000Y-121285000D03*
%TD*%
D20*
%TO.C,C6*%
X187325000Y-84187900D03*
X187325000Y-87312900D03*
%TD*%
D27*
%TO.C,D9*%
X161925000Y-54480000D03*
X161925000Y-57280000D03*
%TD*%
D28*
%TO.C,D7*%
X170685000Y-59690000D03*
X173485000Y-59690000D03*
%TD*%
D29*
%TO.C,F1*%
X161772600Y-70098600D03*
X161772600Y-63728600D03*
%TD*%
M02*
