M48
; DRILL file {KiCad 7.0.6} date Thu Mar 14 18:07:36 2024
; FORMAT={-:-/ absolute / metric / decimal}
; #@! TF.CreationDate,2024-03-14T18:07:36+11:00
; #@! TF.GenerationSoftware,Kicad,Pcbnew,7.0.6
; #@! TF.FileFunction,Plated,1,2,PTH
FMAT,2
METRIC
; #@! TA.AperFunction,Plated,PTH,ViaDrill
T1C0.300
; #@! TA.AperFunction,Plated,PTH,ViaDrill
T2C0.400
; #@! TA.AperFunction,Plated,PTH,ViaDrill
T3C0.500
; #@! TA.AperFunction,Plated,PTH,ViaDrill
T4C0.600
; #@! TA.AperFunction,Plated,PTH,ComponentDrill
T5C0.800
; #@! TA.AperFunction,Plated,PTH,ViaDrill
T6C1.000
; #@! TA.AperFunction,Plated,PTH,ComponentDrill
T7C1.000
; #@! TA.AperFunction,Plated,PTH,ComponentDrill
T8C1.016
; #@! TA.AperFunction,Plated,PTH,ComponentDrill
T9C1.100
; #@! TA.AperFunction,Plated,PTH,ComponentDrill
T10C1.400
%
G90
G05
T1
X122.072Y-105.359
X126.517Y-103.683
T2
X120.218Y-99.797
X123.19Y-109.677
X124.206Y-100.076
X125.73Y-110.49
X125.984Y-99.822
X132.842Y-108.712
X158.75Y-121.285
T3
X135.305Y-129.617
T4
X136.906Y-59.182
X144.272Y-61.976
X150.368Y-59.944
X151.13Y-73.025
X157.48Y-97.155
X167.894Y-126.746
T5
X157.48Y-74.91
X157.48Y-77.45
T6
X152.883Y-57.328
X165.542Y-56.707
T7
X110.665Y-90.675
X110.665Y-93.675
X118.745Y-116.84
X120.65Y-113.03
X123.19Y-113.03
X125.73Y-113.03
X127.94Y-123.015
X127.94Y-126.015
X128.27Y-113.03
X130.81Y-113.03
X130.94Y-123.015
X130.94Y-126.015
X138.684Y-53.594
X157.632Y-60.096
X167.894Y-69.85
X173.355Y-69.85
T8
X161.37Y-75.465
X161.39Y-78.005
X161.39Y-80.545
X161.39Y-83.085
X161.39Y-85.625
X161.39Y-88.165
X161.39Y-90.705
X161.39Y-93.245
X161.39Y-95.785
X161.39Y-98.325
X166.47Y-98.325
X166.47Y-100.865
X166.47Y-103.405
X169.01Y-98.325
X169.01Y-100.865
X169.01Y-103.405
X171.55Y-103.405
X174.09Y-103.405
X176.63Y-103.405
X179.17Y-103.405
X181.71Y-80.545
X181.71Y-98.325
X183.615Y-84.177
X183.615Y-87.682
X183.615Y-91.213
X183.615Y-94.693
X184.25Y-80.545
X184.25Y-98.325
T9
X111.435Y-100.33
X111.435Y-102.87
X111.435Y-105.41
X128.194Y-57.272
X130.734Y-57.272
X133.274Y-57.272
X137.922Y-65.024
X137.922Y-67.564
X137.922Y-70.104
X137.922Y-72.644
X137.922Y-75.184
X137.922Y-77.724
X137.922Y-80.264
X137.922Y-82.804
X137.922Y-85.344
X137.922Y-87.884
X137.922Y-90.424
X137.922Y-92.964
X137.922Y-95.504
X137.922Y-98.044
X137.922Y-100.584
X137.922Y-103.124
X137.922Y-105.664
X137.922Y-108.204
X137.922Y-110.744
X137.922Y-113.284
X137.922Y-115.824
X137.922Y-118.364
X137.922Y-120.904
X137.922Y-123.444
X153.162Y-65.024
X153.162Y-67.564
X153.162Y-70.104
X153.162Y-72.644
X153.162Y-75.184
X153.162Y-77.724
X153.162Y-80.264
X153.162Y-82.804
X153.162Y-85.344
X153.162Y-87.884
X153.162Y-90.424
X153.162Y-92.964
X153.162Y-95.504
X153.162Y-98.044
X153.162Y-100.584
X153.162Y-103.124
X153.162Y-105.664
X153.162Y-108.204
X153.162Y-110.744
X153.162Y-113.284
X153.162Y-115.824
X153.162Y-118.364
X153.162Y-120.904
X153.162Y-123.444
X173.355Y-108.275
X175.895Y-108.275
X178.435Y-108.275
T10
X161.925Y-108.585
X161.925Y-114.085
X166.125Y-108.585
X166.125Y-114.085
X172.72Y-120.65
X178.22Y-120.65
X179.07Y-64.35
X179.07Y-69.85
T0
M30
