%TF.GenerationSoftware,KiCad,Pcbnew,7.0.6*%
%TF.CreationDate,2024-03-14T18:07:39+11:00*%
%TF.ProjectId,Rocketry_Payload_Main_DDR_Spec_V2,526f636b-6574-4727-995f-5061796c6f61,rev?*%
%TF.SameCoordinates,Original*%
%TF.FileFunction,Drillmap*%
%TF.FilePolarity,Positive*%
%FSLAX45Y45*%
G04 Gerber Fmt 4.5, Leading zero omitted, Abs format (unit mm)*
G04 Created by KiCad (PCBNEW 7.0.6) date 2024-03-14 18:07:39*
%MOMM*%
%LPD*%
G01*
G04 APERTURE LIST*
%ADD10C,0.100000*%
%ADD11C,0.200000*%
%ADD12C,0.660000*%
G04 APERTURE END LIST*
D10*
X14198600Y-14173200D02*
X14198600Y-13523200D01*
X15468447Y-14172035D02*
X15468423Y-13522017D01*
X15468423Y-13522017D02*
G75*
G03*
X14198600Y-13523200I-634912J-591D01*
G01*
X15468447Y-14172035D02*
G75*
G03*
X14198600Y-14173200I-639386J4863885D01*
G01*
D11*
D10*
X10716500Y-9411500D02*
X10816500Y-9511500D01*
X10816500Y-9411500D02*
X10716500Y-9511500D01*
X11316500Y-9411500D02*
X11416500Y-9511500D01*
X11416500Y-9411500D02*
X11316500Y-9511500D01*
X12650000Y-11951500D02*
X12750000Y-12051500D01*
X12750000Y-11951500D02*
X12650000Y-12051500D01*
X12650000Y-12851500D02*
X12750000Y-12951500D01*
X12750000Y-12851500D02*
X12650000Y-12951500D01*
D12*
X11476100Y-11391600D02*
G75*
G03*
X11476100Y-11391600I-330000J0D01*
G01*
X15163600Y-5053650D02*
G75*
G03*
X15163600Y-5053650I-330000J0D01*
G01*
X18842100Y-11391600D02*
G75*
G03*
X18842100Y-11391600I-330000J0D01*
G01*
D11*
X10179107Y-14489684D02*
X10179107Y-14289684D01*
X10179107Y-14289684D02*
X10226726Y-14289684D01*
X10226726Y-14289684D02*
X10255297Y-14299207D01*
X10255297Y-14299207D02*
X10274345Y-14318255D01*
X10274345Y-14318255D02*
X10283869Y-14337303D01*
X10283869Y-14337303D02*
X10293393Y-14375398D01*
X10293393Y-14375398D02*
X10293393Y-14403969D01*
X10293393Y-14403969D02*
X10283869Y-14442065D01*
X10283869Y-14442065D02*
X10274345Y-14461112D01*
X10274345Y-14461112D02*
X10255297Y-14480160D01*
X10255297Y-14480160D02*
X10226726Y-14489684D01*
X10226726Y-14489684D02*
X10179107Y-14489684D01*
X10379107Y-14489684D02*
X10379107Y-14356350D01*
X10379107Y-14394446D02*
X10388631Y-14375398D01*
X10388631Y-14375398D02*
X10398155Y-14365874D01*
X10398155Y-14365874D02*
X10417202Y-14356350D01*
X10417202Y-14356350D02*
X10436250Y-14356350D01*
X10502916Y-14489684D02*
X10502916Y-14356350D01*
X10502916Y-14289684D02*
X10493393Y-14299207D01*
X10493393Y-14299207D02*
X10502916Y-14308731D01*
X10502916Y-14308731D02*
X10512440Y-14299207D01*
X10512440Y-14299207D02*
X10502916Y-14289684D01*
X10502916Y-14289684D02*
X10502916Y-14308731D01*
X10626726Y-14489684D02*
X10607678Y-14480160D01*
X10607678Y-14480160D02*
X10598155Y-14461112D01*
X10598155Y-14461112D02*
X10598155Y-14289684D01*
X10731488Y-14489684D02*
X10712440Y-14480160D01*
X10712440Y-14480160D02*
X10702916Y-14461112D01*
X10702916Y-14461112D02*
X10702916Y-14289684D01*
X10960059Y-14489684D02*
X10960059Y-14289684D01*
X10960059Y-14289684D02*
X11026726Y-14432541D01*
X11026726Y-14432541D02*
X11093393Y-14289684D01*
X11093393Y-14289684D02*
X11093393Y-14489684D01*
X11274345Y-14489684D02*
X11274345Y-14384922D01*
X11274345Y-14384922D02*
X11264821Y-14365874D01*
X11264821Y-14365874D02*
X11245774Y-14356350D01*
X11245774Y-14356350D02*
X11207678Y-14356350D01*
X11207678Y-14356350D02*
X11188631Y-14365874D01*
X11274345Y-14480160D02*
X11255297Y-14489684D01*
X11255297Y-14489684D02*
X11207678Y-14489684D01*
X11207678Y-14489684D02*
X11188631Y-14480160D01*
X11188631Y-14480160D02*
X11179107Y-14461112D01*
X11179107Y-14461112D02*
X11179107Y-14442065D01*
X11179107Y-14442065D02*
X11188631Y-14423017D01*
X11188631Y-14423017D02*
X11207678Y-14413493D01*
X11207678Y-14413493D02*
X11255297Y-14413493D01*
X11255297Y-14413493D02*
X11274345Y-14403969D01*
X11369583Y-14356350D02*
X11369583Y-14556350D01*
X11369583Y-14365874D02*
X11388631Y-14356350D01*
X11388631Y-14356350D02*
X11426726Y-14356350D01*
X11426726Y-14356350D02*
X11445774Y-14365874D01*
X11445774Y-14365874D02*
X11455297Y-14375398D01*
X11455297Y-14375398D02*
X11464821Y-14394446D01*
X11464821Y-14394446D02*
X11464821Y-14451588D01*
X11464821Y-14451588D02*
X11455297Y-14470636D01*
X11455297Y-14470636D02*
X11445774Y-14480160D01*
X11445774Y-14480160D02*
X11426726Y-14489684D01*
X11426726Y-14489684D02*
X11388631Y-14489684D01*
X11388631Y-14489684D02*
X11369583Y-14480160D01*
X11550535Y-14470636D02*
X11560059Y-14480160D01*
X11560059Y-14480160D02*
X11550535Y-14489684D01*
X11550535Y-14489684D02*
X11541012Y-14480160D01*
X11541012Y-14480160D02*
X11550535Y-14470636D01*
X11550535Y-14470636D02*
X11550535Y-14489684D01*
X11550535Y-14365874D02*
X11560059Y-14375398D01*
X11560059Y-14375398D02*
X11550535Y-14384922D01*
X11550535Y-14384922D02*
X11541012Y-14375398D01*
X11541012Y-14375398D02*
X11550535Y-14365874D01*
X11550535Y-14365874D02*
X11550535Y-14384922D01*
D10*
X9818330Y-14768200D02*
X9918330Y-14868200D01*
X9918330Y-14768200D02*
X9818330Y-14868200D01*
D11*
X10283869Y-14909684D02*
X10169583Y-14909684D01*
X10226726Y-14909684D02*
X10226726Y-14709684D01*
X10226726Y-14709684D02*
X10207678Y-14738255D01*
X10207678Y-14738255D02*
X10188631Y-14757303D01*
X10188631Y-14757303D02*
X10169583Y-14766826D01*
X10369583Y-14890636D02*
X10379107Y-14900160D01*
X10379107Y-14900160D02*
X10369583Y-14909684D01*
X10369583Y-14909684D02*
X10360059Y-14900160D01*
X10360059Y-14900160D02*
X10369583Y-14890636D01*
X10369583Y-14890636D02*
X10369583Y-14909684D01*
X10502916Y-14709684D02*
X10521964Y-14709684D01*
X10521964Y-14709684D02*
X10541012Y-14719207D01*
X10541012Y-14719207D02*
X10550536Y-14728731D01*
X10550536Y-14728731D02*
X10560059Y-14747779D01*
X10560059Y-14747779D02*
X10569583Y-14785874D01*
X10569583Y-14785874D02*
X10569583Y-14833493D01*
X10569583Y-14833493D02*
X10560059Y-14871588D01*
X10560059Y-14871588D02*
X10550536Y-14890636D01*
X10550536Y-14890636D02*
X10541012Y-14900160D01*
X10541012Y-14900160D02*
X10521964Y-14909684D01*
X10521964Y-14909684D02*
X10502916Y-14909684D01*
X10502916Y-14909684D02*
X10483869Y-14900160D01*
X10483869Y-14900160D02*
X10474345Y-14890636D01*
X10474345Y-14890636D02*
X10464821Y-14871588D01*
X10464821Y-14871588D02*
X10455297Y-14833493D01*
X10455297Y-14833493D02*
X10455297Y-14785874D01*
X10455297Y-14785874D02*
X10464821Y-14747779D01*
X10464821Y-14747779D02*
X10474345Y-14728731D01*
X10474345Y-14728731D02*
X10483869Y-14719207D01*
X10483869Y-14719207D02*
X10502916Y-14709684D01*
X10693393Y-14709684D02*
X10712440Y-14709684D01*
X10712440Y-14709684D02*
X10731488Y-14719207D01*
X10731488Y-14719207D02*
X10741012Y-14728731D01*
X10741012Y-14728731D02*
X10750536Y-14747779D01*
X10750536Y-14747779D02*
X10760059Y-14785874D01*
X10760059Y-14785874D02*
X10760059Y-14833493D01*
X10760059Y-14833493D02*
X10750536Y-14871588D01*
X10750536Y-14871588D02*
X10741012Y-14890636D01*
X10741012Y-14890636D02*
X10731488Y-14900160D01*
X10731488Y-14900160D02*
X10712440Y-14909684D01*
X10712440Y-14909684D02*
X10693393Y-14909684D01*
X10693393Y-14909684D02*
X10674345Y-14900160D01*
X10674345Y-14900160D02*
X10664821Y-14890636D01*
X10664821Y-14890636D02*
X10655297Y-14871588D01*
X10655297Y-14871588D02*
X10645774Y-14833493D01*
X10645774Y-14833493D02*
X10645774Y-14785874D01*
X10645774Y-14785874D02*
X10655297Y-14747779D01*
X10655297Y-14747779D02*
X10664821Y-14728731D01*
X10664821Y-14728731D02*
X10674345Y-14719207D01*
X10674345Y-14719207D02*
X10693393Y-14709684D01*
X10883869Y-14709684D02*
X10902917Y-14709684D01*
X10902917Y-14709684D02*
X10921964Y-14719207D01*
X10921964Y-14719207D02*
X10931488Y-14728731D01*
X10931488Y-14728731D02*
X10941012Y-14747779D01*
X10941012Y-14747779D02*
X10950536Y-14785874D01*
X10950536Y-14785874D02*
X10950536Y-14833493D01*
X10950536Y-14833493D02*
X10941012Y-14871588D01*
X10941012Y-14871588D02*
X10931488Y-14890636D01*
X10931488Y-14890636D02*
X10921964Y-14900160D01*
X10921964Y-14900160D02*
X10902917Y-14909684D01*
X10902917Y-14909684D02*
X10883869Y-14909684D01*
X10883869Y-14909684D02*
X10864821Y-14900160D01*
X10864821Y-14900160D02*
X10855297Y-14890636D01*
X10855297Y-14890636D02*
X10845774Y-14871588D01*
X10845774Y-14871588D02*
X10836250Y-14833493D01*
X10836250Y-14833493D02*
X10836250Y-14785874D01*
X10836250Y-14785874D02*
X10845774Y-14747779D01*
X10845774Y-14747779D02*
X10855297Y-14728731D01*
X10855297Y-14728731D02*
X10864821Y-14719207D01*
X10864821Y-14719207D02*
X10883869Y-14709684D01*
X11036250Y-14909684D02*
X11036250Y-14776350D01*
X11036250Y-14795398D02*
X11045774Y-14785874D01*
X11045774Y-14785874D02*
X11064821Y-14776350D01*
X11064821Y-14776350D02*
X11093393Y-14776350D01*
X11093393Y-14776350D02*
X11112440Y-14785874D01*
X11112440Y-14785874D02*
X11121964Y-14804922D01*
X11121964Y-14804922D02*
X11121964Y-14909684D01*
X11121964Y-14804922D02*
X11131488Y-14785874D01*
X11131488Y-14785874D02*
X11150536Y-14776350D01*
X11150536Y-14776350D02*
X11179107Y-14776350D01*
X11179107Y-14776350D02*
X11198155Y-14785874D01*
X11198155Y-14785874D02*
X11207678Y-14804922D01*
X11207678Y-14804922D02*
X11207678Y-14909684D01*
X11302916Y-14909684D02*
X11302916Y-14776350D01*
X11302916Y-14795398D02*
X11312440Y-14785874D01*
X11312440Y-14785874D02*
X11331488Y-14776350D01*
X11331488Y-14776350D02*
X11360059Y-14776350D01*
X11360059Y-14776350D02*
X11379107Y-14785874D01*
X11379107Y-14785874D02*
X11388631Y-14804922D01*
X11388631Y-14804922D02*
X11388631Y-14909684D01*
X11388631Y-14804922D02*
X11398155Y-14785874D01*
X11398155Y-14785874D02*
X11417202Y-14776350D01*
X11417202Y-14776350D02*
X11445774Y-14776350D01*
X11445774Y-14776350D02*
X11464821Y-14785874D01*
X11464821Y-14785874D02*
X11474345Y-14804922D01*
X11474345Y-14804922D02*
X11474345Y-14909684D01*
X11864821Y-14700160D02*
X11693393Y-14957303D01*
X12121964Y-14709684D02*
X12141012Y-14709684D01*
X12141012Y-14709684D02*
X12160059Y-14719207D01*
X12160059Y-14719207D02*
X12169583Y-14728731D01*
X12169583Y-14728731D02*
X12179107Y-14747779D01*
X12179107Y-14747779D02*
X12188631Y-14785874D01*
X12188631Y-14785874D02*
X12188631Y-14833493D01*
X12188631Y-14833493D02*
X12179107Y-14871588D01*
X12179107Y-14871588D02*
X12169583Y-14890636D01*
X12169583Y-14890636D02*
X12160059Y-14900160D01*
X12160059Y-14900160D02*
X12141012Y-14909684D01*
X12141012Y-14909684D02*
X12121964Y-14909684D01*
X12121964Y-14909684D02*
X12102917Y-14900160D01*
X12102917Y-14900160D02*
X12093393Y-14890636D01*
X12093393Y-14890636D02*
X12083869Y-14871588D01*
X12083869Y-14871588D02*
X12074345Y-14833493D01*
X12074345Y-14833493D02*
X12074345Y-14785874D01*
X12074345Y-14785874D02*
X12083869Y-14747779D01*
X12083869Y-14747779D02*
X12093393Y-14728731D01*
X12093393Y-14728731D02*
X12102917Y-14719207D01*
X12102917Y-14719207D02*
X12121964Y-14709684D01*
X12274345Y-14890636D02*
X12283869Y-14900160D01*
X12283869Y-14900160D02*
X12274345Y-14909684D01*
X12274345Y-14909684D02*
X12264821Y-14900160D01*
X12264821Y-14900160D02*
X12274345Y-14890636D01*
X12274345Y-14890636D02*
X12274345Y-14909684D01*
X12407678Y-14709684D02*
X12426726Y-14709684D01*
X12426726Y-14709684D02*
X12445774Y-14719207D01*
X12445774Y-14719207D02*
X12455298Y-14728731D01*
X12455298Y-14728731D02*
X12464821Y-14747779D01*
X12464821Y-14747779D02*
X12474345Y-14785874D01*
X12474345Y-14785874D02*
X12474345Y-14833493D01*
X12474345Y-14833493D02*
X12464821Y-14871588D01*
X12464821Y-14871588D02*
X12455298Y-14890636D01*
X12455298Y-14890636D02*
X12445774Y-14900160D01*
X12445774Y-14900160D02*
X12426726Y-14909684D01*
X12426726Y-14909684D02*
X12407678Y-14909684D01*
X12407678Y-14909684D02*
X12388631Y-14900160D01*
X12388631Y-14900160D02*
X12379107Y-14890636D01*
X12379107Y-14890636D02*
X12369583Y-14871588D01*
X12369583Y-14871588D02*
X12360059Y-14833493D01*
X12360059Y-14833493D02*
X12360059Y-14785874D01*
X12360059Y-14785874D02*
X12369583Y-14747779D01*
X12369583Y-14747779D02*
X12379107Y-14728731D01*
X12379107Y-14728731D02*
X12388631Y-14719207D01*
X12388631Y-14719207D02*
X12407678Y-14709684D01*
X12541012Y-14709684D02*
X12664821Y-14709684D01*
X12664821Y-14709684D02*
X12598155Y-14785874D01*
X12598155Y-14785874D02*
X12626726Y-14785874D01*
X12626726Y-14785874D02*
X12645774Y-14795398D01*
X12645774Y-14795398D02*
X12655298Y-14804922D01*
X12655298Y-14804922D02*
X12664821Y-14823969D01*
X12664821Y-14823969D02*
X12664821Y-14871588D01*
X12664821Y-14871588D02*
X12655298Y-14890636D01*
X12655298Y-14890636D02*
X12645774Y-14900160D01*
X12645774Y-14900160D02*
X12626726Y-14909684D01*
X12626726Y-14909684D02*
X12569583Y-14909684D01*
X12569583Y-14909684D02*
X12550536Y-14900160D01*
X12550536Y-14900160D02*
X12541012Y-14890636D01*
X12760059Y-14909684D02*
X12798155Y-14909684D01*
X12798155Y-14909684D02*
X12817202Y-14900160D01*
X12817202Y-14900160D02*
X12826726Y-14890636D01*
X12826726Y-14890636D02*
X12845774Y-14862065D01*
X12845774Y-14862065D02*
X12855298Y-14823969D01*
X12855298Y-14823969D02*
X12855298Y-14747779D01*
X12855298Y-14747779D02*
X12845774Y-14728731D01*
X12845774Y-14728731D02*
X12836250Y-14719207D01*
X12836250Y-14719207D02*
X12817202Y-14709684D01*
X12817202Y-14709684D02*
X12779107Y-14709684D01*
X12779107Y-14709684D02*
X12760059Y-14719207D01*
X12760059Y-14719207D02*
X12750536Y-14728731D01*
X12750536Y-14728731D02*
X12741012Y-14747779D01*
X12741012Y-14747779D02*
X12741012Y-14795398D01*
X12741012Y-14795398D02*
X12750536Y-14814446D01*
X12750536Y-14814446D02*
X12760059Y-14823969D01*
X12760059Y-14823969D02*
X12779107Y-14833493D01*
X12779107Y-14833493D02*
X12817202Y-14833493D01*
X12817202Y-14833493D02*
X12836250Y-14823969D01*
X12836250Y-14823969D02*
X12845774Y-14814446D01*
X12845774Y-14814446D02*
X12855298Y-14795398D01*
X13026726Y-14776350D02*
X13026726Y-14909684D01*
X12979107Y-14700160D02*
X12931488Y-14843017D01*
X12931488Y-14843017D02*
X13055298Y-14843017D01*
X13121964Y-14709684D02*
X13121964Y-14747779D01*
X13198155Y-14709684D02*
X13198155Y-14747779D01*
X13493393Y-14985874D02*
X13483869Y-14976350D01*
X13483869Y-14976350D02*
X13464821Y-14947779D01*
X13464821Y-14947779D02*
X13455298Y-14928731D01*
X13455298Y-14928731D02*
X13445774Y-14900160D01*
X13445774Y-14900160D02*
X13436250Y-14852541D01*
X13436250Y-14852541D02*
X13436250Y-14814446D01*
X13436250Y-14814446D02*
X13445774Y-14766826D01*
X13445774Y-14766826D02*
X13455298Y-14738255D01*
X13455298Y-14738255D02*
X13464821Y-14719207D01*
X13464821Y-14719207D02*
X13483869Y-14690636D01*
X13483869Y-14690636D02*
X13493393Y-14681112D01*
X13655298Y-14776350D02*
X13655298Y-14909684D01*
X13607679Y-14700160D02*
X13560060Y-14843017D01*
X13560060Y-14843017D02*
X13683869Y-14843017D01*
X13912441Y-14909684D02*
X13912441Y-14709684D01*
X13998155Y-14909684D02*
X13998155Y-14804922D01*
X13998155Y-14804922D02*
X13988631Y-14785874D01*
X13988631Y-14785874D02*
X13969583Y-14776350D01*
X13969583Y-14776350D02*
X13941012Y-14776350D01*
X13941012Y-14776350D02*
X13921964Y-14785874D01*
X13921964Y-14785874D02*
X13912441Y-14795398D01*
X14121964Y-14909684D02*
X14102917Y-14900160D01*
X14102917Y-14900160D02*
X14093393Y-14890636D01*
X14093393Y-14890636D02*
X14083869Y-14871588D01*
X14083869Y-14871588D02*
X14083869Y-14814446D01*
X14083869Y-14814446D02*
X14093393Y-14795398D01*
X14093393Y-14795398D02*
X14102917Y-14785874D01*
X14102917Y-14785874D02*
X14121964Y-14776350D01*
X14121964Y-14776350D02*
X14150536Y-14776350D01*
X14150536Y-14776350D02*
X14169583Y-14785874D01*
X14169583Y-14785874D02*
X14179107Y-14795398D01*
X14179107Y-14795398D02*
X14188631Y-14814446D01*
X14188631Y-14814446D02*
X14188631Y-14871588D01*
X14188631Y-14871588D02*
X14179107Y-14890636D01*
X14179107Y-14890636D02*
X14169583Y-14900160D01*
X14169583Y-14900160D02*
X14150536Y-14909684D01*
X14150536Y-14909684D02*
X14121964Y-14909684D01*
X14302917Y-14909684D02*
X14283869Y-14900160D01*
X14283869Y-14900160D02*
X14274345Y-14881112D01*
X14274345Y-14881112D02*
X14274345Y-14709684D01*
X14455298Y-14900160D02*
X14436250Y-14909684D01*
X14436250Y-14909684D02*
X14398155Y-14909684D01*
X14398155Y-14909684D02*
X14379107Y-14900160D01*
X14379107Y-14900160D02*
X14369583Y-14881112D01*
X14369583Y-14881112D02*
X14369583Y-14804922D01*
X14369583Y-14804922D02*
X14379107Y-14785874D01*
X14379107Y-14785874D02*
X14398155Y-14776350D01*
X14398155Y-14776350D02*
X14436250Y-14776350D01*
X14436250Y-14776350D02*
X14455298Y-14785874D01*
X14455298Y-14785874D02*
X14464822Y-14804922D01*
X14464822Y-14804922D02*
X14464822Y-14823969D01*
X14464822Y-14823969D02*
X14369583Y-14843017D01*
X14541012Y-14900160D02*
X14560060Y-14909684D01*
X14560060Y-14909684D02*
X14598155Y-14909684D01*
X14598155Y-14909684D02*
X14617203Y-14900160D01*
X14617203Y-14900160D02*
X14626726Y-14881112D01*
X14626726Y-14881112D02*
X14626726Y-14871588D01*
X14626726Y-14871588D02*
X14617203Y-14852541D01*
X14617203Y-14852541D02*
X14598155Y-14843017D01*
X14598155Y-14843017D02*
X14569583Y-14843017D01*
X14569583Y-14843017D02*
X14550536Y-14833493D01*
X14550536Y-14833493D02*
X14541012Y-14814446D01*
X14541012Y-14814446D02*
X14541012Y-14804922D01*
X14541012Y-14804922D02*
X14550536Y-14785874D01*
X14550536Y-14785874D02*
X14569583Y-14776350D01*
X14569583Y-14776350D02*
X14598155Y-14776350D01*
X14598155Y-14776350D02*
X14617203Y-14785874D01*
X14693393Y-14985874D02*
X14702917Y-14976350D01*
X14702917Y-14976350D02*
X14721964Y-14947779D01*
X14721964Y-14947779D02*
X14731488Y-14928731D01*
X14731488Y-14928731D02*
X14741012Y-14900160D01*
X14741012Y-14900160D02*
X14750536Y-14852541D01*
X14750536Y-14852541D02*
X14750536Y-14814446D01*
X14750536Y-14814446D02*
X14741012Y-14766826D01*
X14741012Y-14766826D02*
X14731488Y-14738255D01*
X14731488Y-14738255D02*
X14721964Y-14719207D01*
X14721964Y-14719207D02*
X14702917Y-14690636D01*
X14702917Y-14690636D02*
X14693393Y-14681112D01*
X15055298Y-14985874D02*
X15045774Y-14976350D01*
X15045774Y-14976350D02*
X15026726Y-14947779D01*
X15026726Y-14947779D02*
X15017203Y-14928731D01*
X15017203Y-14928731D02*
X15007679Y-14900160D01*
X15007679Y-14900160D02*
X14998155Y-14852541D01*
X14998155Y-14852541D02*
X14998155Y-14814446D01*
X14998155Y-14814446D02*
X15007679Y-14766826D01*
X15007679Y-14766826D02*
X15017203Y-14738255D01*
X15017203Y-14738255D02*
X15026726Y-14719207D01*
X15026726Y-14719207D02*
X15045774Y-14690636D01*
X15045774Y-14690636D02*
X15055298Y-14681112D01*
X15131488Y-14776350D02*
X15131488Y-14909684D01*
X15131488Y-14795398D02*
X15141012Y-14785874D01*
X15141012Y-14785874D02*
X15160060Y-14776350D01*
X15160060Y-14776350D02*
X15188631Y-14776350D01*
X15188631Y-14776350D02*
X15207679Y-14785874D01*
X15207679Y-14785874D02*
X15217203Y-14804922D01*
X15217203Y-14804922D02*
X15217203Y-14909684D01*
X15341012Y-14909684D02*
X15321964Y-14900160D01*
X15321964Y-14900160D02*
X15312441Y-14890636D01*
X15312441Y-14890636D02*
X15302917Y-14871588D01*
X15302917Y-14871588D02*
X15302917Y-14814446D01*
X15302917Y-14814446D02*
X15312441Y-14795398D01*
X15312441Y-14795398D02*
X15321964Y-14785874D01*
X15321964Y-14785874D02*
X15341012Y-14776350D01*
X15341012Y-14776350D02*
X15369584Y-14776350D01*
X15369584Y-14776350D02*
X15388631Y-14785874D01*
X15388631Y-14785874D02*
X15398155Y-14795398D01*
X15398155Y-14795398D02*
X15407679Y-14814446D01*
X15407679Y-14814446D02*
X15407679Y-14871588D01*
X15407679Y-14871588D02*
X15398155Y-14890636D01*
X15398155Y-14890636D02*
X15388631Y-14900160D01*
X15388631Y-14900160D02*
X15369584Y-14909684D01*
X15369584Y-14909684D02*
X15341012Y-14909684D01*
X15464822Y-14776350D02*
X15541012Y-14776350D01*
X15493393Y-14709684D02*
X15493393Y-14881112D01*
X15493393Y-14881112D02*
X15502917Y-14900160D01*
X15502917Y-14900160D02*
X15521964Y-14909684D01*
X15521964Y-14909684D02*
X15541012Y-14909684D01*
X15760060Y-14776350D02*
X15760060Y-14976350D01*
X15760060Y-14785874D02*
X15779107Y-14776350D01*
X15779107Y-14776350D02*
X15817203Y-14776350D01*
X15817203Y-14776350D02*
X15836250Y-14785874D01*
X15836250Y-14785874D02*
X15845774Y-14795398D01*
X15845774Y-14795398D02*
X15855298Y-14814446D01*
X15855298Y-14814446D02*
X15855298Y-14871588D01*
X15855298Y-14871588D02*
X15845774Y-14890636D01*
X15845774Y-14890636D02*
X15836250Y-14900160D01*
X15836250Y-14900160D02*
X15817203Y-14909684D01*
X15817203Y-14909684D02*
X15779107Y-14909684D01*
X15779107Y-14909684D02*
X15760060Y-14900160D01*
X15969584Y-14909684D02*
X15950536Y-14900160D01*
X15950536Y-14900160D02*
X15941012Y-14881112D01*
X15941012Y-14881112D02*
X15941012Y-14709684D01*
X16131488Y-14909684D02*
X16131488Y-14804922D01*
X16131488Y-14804922D02*
X16121965Y-14785874D01*
X16121965Y-14785874D02*
X16102917Y-14776350D01*
X16102917Y-14776350D02*
X16064822Y-14776350D01*
X16064822Y-14776350D02*
X16045774Y-14785874D01*
X16131488Y-14900160D02*
X16112441Y-14909684D01*
X16112441Y-14909684D02*
X16064822Y-14909684D01*
X16064822Y-14909684D02*
X16045774Y-14900160D01*
X16045774Y-14900160D02*
X16036250Y-14881112D01*
X16036250Y-14881112D02*
X16036250Y-14862065D01*
X16036250Y-14862065D02*
X16045774Y-14843017D01*
X16045774Y-14843017D02*
X16064822Y-14833493D01*
X16064822Y-14833493D02*
X16112441Y-14833493D01*
X16112441Y-14833493D02*
X16131488Y-14823969D01*
X16198155Y-14776350D02*
X16274345Y-14776350D01*
X16226726Y-14709684D02*
X16226726Y-14881112D01*
X16226726Y-14881112D02*
X16236250Y-14900160D01*
X16236250Y-14900160D02*
X16255298Y-14909684D01*
X16255298Y-14909684D02*
X16274345Y-14909684D01*
X16417203Y-14900160D02*
X16398155Y-14909684D01*
X16398155Y-14909684D02*
X16360060Y-14909684D01*
X16360060Y-14909684D02*
X16341012Y-14900160D01*
X16341012Y-14900160D02*
X16331488Y-14881112D01*
X16331488Y-14881112D02*
X16331488Y-14804922D01*
X16331488Y-14804922D02*
X16341012Y-14785874D01*
X16341012Y-14785874D02*
X16360060Y-14776350D01*
X16360060Y-14776350D02*
X16398155Y-14776350D01*
X16398155Y-14776350D02*
X16417203Y-14785874D01*
X16417203Y-14785874D02*
X16426726Y-14804922D01*
X16426726Y-14804922D02*
X16426726Y-14823969D01*
X16426726Y-14823969D02*
X16331488Y-14843017D01*
X16598155Y-14909684D02*
X16598155Y-14709684D01*
X16598155Y-14900160D02*
X16579107Y-14909684D01*
X16579107Y-14909684D02*
X16541012Y-14909684D01*
X16541012Y-14909684D02*
X16521965Y-14900160D01*
X16521965Y-14900160D02*
X16512441Y-14890636D01*
X16512441Y-14890636D02*
X16502917Y-14871588D01*
X16502917Y-14871588D02*
X16502917Y-14814446D01*
X16502917Y-14814446D02*
X16512441Y-14795398D01*
X16512441Y-14795398D02*
X16521965Y-14785874D01*
X16521965Y-14785874D02*
X16541012Y-14776350D01*
X16541012Y-14776350D02*
X16579107Y-14776350D01*
X16579107Y-14776350D02*
X16598155Y-14785874D01*
X16674346Y-14985874D02*
X16683869Y-14976350D01*
X16683869Y-14976350D02*
X16702917Y-14947779D01*
X16702917Y-14947779D02*
X16712441Y-14928731D01*
X16712441Y-14928731D02*
X16721965Y-14900160D01*
X16721965Y-14900160D02*
X16731488Y-14852541D01*
X16731488Y-14852541D02*
X16731488Y-14814446D01*
X16731488Y-14814446D02*
X16721965Y-14766826D01*
X16721965Y-14766826D02*
X16712441Y-14738255D01*
X16712441Y-14738255D02*
X16702917Y-14719207D01*
X16702917Y-14719207D02*
X16683869Y-14690636D01*
X16683869Y-14690636D02*
X16674346Y-14681112D01*
X9918330Y-15082200D02*
G75*
G03*
X9918330Y-15082200I-100000J0D01*
G01*
X10264821Y-14973684D02*
X10226726Y-14973684D01*
X10226726Y-14973684D02*
X10207678Y-14983207D01*
X10207678Y-14983207D02*
X10198155Y-14992731D01*
X10198155Y-14992731D02*
X10179107Y-15021303D01*
X10179107Y-15021303D02*
X10169583Y-15059398D01*
X10169583Y-15059398D02*
X10169583Y-15135588D01*
X10169583Y-15135588D02*
X10179107Y-15154636D01*
X10179107Y-15154636D02*
X10188631Y-15164160D01*
X10188631Y-15164160D02*
X10207678Y-15173684D01*
X10207678Y-15173684D02*
X10245774Y-15173684D01*
X10245774Y-15173684D02*
X10264821Y-15164160D01*
X10264821Y-15164160D02*
X10274345Y-15154636D01*
X10274345Y-15154636D02*
X10283869Y-15135588D01*
X10283869Y-15135588D02*
X10283869Y-15087969D01*
X10283869Y-15087969D02*
X10274345Y-15068922D01*
X10274345Y-15068922D02*
X10264821Y-15059398D01*
X10264821Y-15059398D02*
X10245774Y-15049874D01*
X10245774Y-15049874D02*
X10207678Y-15049874D01*
X10207678Y-15049874D02*
X10188631Y-15059398D01*
X10188631Y-15059398D02*
X10179107Y-15068922D01*
X10179107Y-15068922D02*
X10169583Y-15087969D01*
X10369583Y-15154636D02*
X10379107Y-15164160D01*
X10379107Y-15164160D02*
X10369583Y-15173684D01*
X10369583Y-15173684D02*
X10360059Y-15164160D01*
X10360059Y-15164160D02*
X10369583Y-15154636D01*
X10369583Y-15154636D02*
X10369583Y-15173684D01*
X10550536Y-14973684D02*
X10512440Y-14973684D01*
X10512440Y-14973684D02*
X10493393Y-14983207D01*
X10493393Y-14983207D02*
X10483869Y-14992731D01*
X10483869Y-14992731D02*
X10464821Y-15021303D01*
X10464821Y-15021303D02*
X10455297Y-15059398D01*
X10455297Y-15059398D02*
X10455297Y-15135588D01*
X10455297Y-15135588D02*
X10464821Y-15154636D01*
X10464821Y-15154636D02*
X10474345Y-15164160D01*
X10474345Y-15164160D02*
X10493393Y-15173684D01*
X10493393Y-15173684D02*
X10531488Y-15173684D01*
X10531488Y-15173684D02*
X10550536Y-15164160D01*
X10550536Y-15164160D02*
X10560059Y-15154636D01*
X10560059Y-15154636D02*
X10569583Y-15135588D01*
X10569583Y-15135588D02*
X10569583Y-15087969D01*
X10569583Y-15087969D02*
X10560059Y-15068922D01*
X10560059Y-15068922D02*
X10550536Y-15059398D01*
X10550536Y-15059398D02*
X10531488Y-15049874D01*
X10531488Y-15049874D02*
X10493393Y-15049874D01*
X10493393Y-15049874D02*
X10474345Y-15059398D01*
X10474345Y-15059398D02*
X10464821Y-15068922D01*
X10464821Y-15068922D02*
X10455297Y-15087969D01*
X10693393Y-14973684D02*
X10712440Y-14973684D01*
X10712440Y-14973684D02*
X10731488Y-14983207D01*
X10731488Y-14983207D02*
X10741012Y-14992731D01*
X10741012Y-14992731D02*
X10750536Y-15011779D01*
X10750536Y-15011779D02*
X10760059Y-15049874D01*
X10760059Y-15049874D02*
X10760059Y-15097493D01*
X10760059Y-15097493D02*
X10750536Y-15135588D01*
X10750536Y-15135588D02*
X10741012Y-15154636D01*
X10741012Y-15154636D02*
X10731488Y-15164160D01*
X10731488Y-15164160D02*
X10712440Y-15173684D01*
X10712440Y-15173684D02*
X10693393Y-15173684D01*
X10693393Y-15173684D02*
X10674345Y-15164160D01*
X10674345Y-15164160D02*
X10664821Y-15154636D01*
X10664821Y-15154636D02*
X10655297Y-15135588D01*
X10655297Y-15135588D02*
X10645774Y-15097493D01*
X10645774Y-15097493D02*
X10645774Y-15049874D01*
X10645774Y-15049874D02*
X10655297Y-15011779D01*
X10655297Y-15011779D02*
X10664821Y-14992731D01*
X10664821Y-14992731D02*
X10674345Y-14983207D01*
X10674345Y-14983207D02*
X10693393Y-14973684D01*
X10883869Y-14973684D02*
X10902917Y-14973684D01*
X10902917Y-14973684D02*
X10921964Y-14983207D01*
X10921964Y-14983207D02*
X10931488Y-14992731D01*
X10931488Y-14992731D02*
X10941012Y-15011779D01*
X10941012Y-15011779D02*
X10950536Y-15049874D01*
X10950536Y-15049874D02*
X10950536Y-15097493D01*
X10950536Y-15097493D02*
X10941012Y-15135588D01*
X10941012Y-15135588D02*
X10931488Y-15154636D01*
X10931488Y-15154636D02*
X10921964Y-15164160D01*
X10921964Y-15164160D02*
X10902917Y-15173684D01*
X10902917Y-15173684D02*
X10883869Y-15173684D01*
X10883869Y-15173684D02*
X10864821Y-15164160D01*
X10864821Y-15164160D02*
X10855297Y-15154636D01*
X10855297Y-15154636D02*
X10845774Y-15135588D01*
X10845774Y-15135588D02*
X10836250Y-15097493D01*
X10836250Y-15097493D02*
X10836250Y-15049874D01*
X10836250Y-15049874D02*
X10845774Y-15011779D01*
X10845774Y-15011779D02*
X10855297Y-14992731D01*
X10855297Y-14992731D02*
X10864821Y-14983207D01*
X10864821Y-14983207D02*
X10883869Y-14973684D01*
X11036250Y-15173684D02*
X11036250Y-15040350D01*
X11036250Y-15059398D02*
X11045774Y-15049874D01*
X11045774Y-15049874D02*
X11064821Y-15040350D01*
X11064821Y-15040350D02*
X11093393Y-15040350D01*
X11093393Y-15040350D02*
X11112440Y-15049874D01*
X11112440Y-15049874D02*
X11121964Y-15068922D01*
X11121964Y-15068922D02*
X11121964Y-15173684D01*
X11121964Y-15068922D02*
X11131488Y-15049874D01*
X11131488Y-15049874D02*
X11150536Y-15040350D01*
X11150536Y-15040350D02*
X11179107Y-15040350D01*
X11179107Y-15040350D02*
X11198155Y-15049874D01*
X11198155Y-15049874D02*
X11207678Y-15068922D01*
X11207678Y-15068922D02*
X11207678Y-15173684D01*
X11302916Y-15173684D02*
X11302916Y-15040350D01*
X11302916Y-15059398D02*
X11312440Y-15049874D01*
X11312440Y-15049874D02*
X11331488Y-15040350D01*
X11331488Y-15040350D02*
X11360059Y-15040350D01*
X11360059Y-15040350D02*
X11379107Y-15049874D01*
X11379107Y-15049874D02*
X11388631Y-15068922D01*
X11388631Y-15068922D02*
X11388631Y-15173684D01*
X11388631Y-15068922D02*
X11398155Y-15049874D01*
X11398155Y-15049874D02*
X11417202Y-15040350D01*
X11417202Y-15040350D02*
X11445774Y-15040350D01*
X11445774Y-15040350D02*
X11464821Y-15049874D01*
X11464821Y-15049874D02*
X11474345Y-15068922D01*
X11474345Y-15068922D02*
X11474345Y-15173684D01*
X11864821Y-14964160D02*
X11693393Y-15221303D01*
X12121964Y-14973684D02*
X12141012Y-14973684D01*
X12141012Y-14973684D02*
X12160059Y-14983207D01*
X12160059Y-14983207D02*
X12169583Y-14992731D01*
X12169583Y-14992731D02*
X12179107Y-15011779D01*
X12179107Y-15011779D02*
X12188631Y-15049874D01*
X12188631Y-15049874D02*
X12188631Y-15097493D01*
X12188631Y-15097493D02*
X12179107Y-15135588D01*
X12179107Y-15135588D02*
X12169583Y-15154636D01*
X12169583Y-15154636D02*
X12160059Y-15164160D01*
X12160059Y-15164160D02*
X12141012Y-15173684D01*
X12141012Y-15173684D02*
X12121964Y-15173684D01*
X12121964Y-15173684D02*
X12102917Y-15164160D01*
X12102917Y-15164160D02*
X12093393Y-15154636D01*
X12093393Y-15154636D02*
X12083869Y-15135588D01*
X12083869Y-15135588D02*
X12074345Y-15097493D01*
X12074345Y-15097493D02*
X12074345Y-15049874D01*
X12074345Y-15049874D02*
X12083869Y-15011779D01*
X12083869Y-15011779D02*
X12093393Y-14992731D01*
X12093393Y-14992731D02*
X12102917Y-14983207D01*
X12102917Y-14983207D02*
X12121964Y-14973684D01*
X12274345Y-15154636D02*
X12283869Y-15164160D01*
X12283869Y-15164160D02*
X12274345Y-15173684D01*
X12274345Y-15173684D02*
X12264821Y-15164160D01*
X12264821Y-15164160D02*
X12274345Y-15154636D01*
X12274345Y-15154636D02*
X12274345Y-15173684D01*
X12360059Y-14992731D02*
X12369583Y-14983207D01*
X12369583Y-14983207D02*
X12388631Y-14973684D01*
X12388631Y-14973684D02*
X12436250Y-14973684D01*
X12436250Y-14973684D02*
X12455298Y-14983207D01*
X12455298Y-14983207D02*
X12464821Y-14992731D01*
X12464821Y-14992731D02*
X12474345Y-15011779D01*
X12474345Y-15011779D02*
X12474345Y-15030826D01*
X12474345Y-15030826D02*
X12464821Y-15059398D01*
X12464821Y-15059398D02*
X12350536Y-15173684D01*
X12350536Y-15173684D02*
X12474345Y-15173684D01*
X12655298Y-14973684D02*
X12560059Y-14973684D01*
X12560059Y-14973684D02*
X12550536Y-15068922D01*
X12550536Y-15068922D02*
X12560059Y-15059398D01*
X12560059Y-15059398D02*
X12579107Y-15049874D01*
X12579107Y-15049874D02*
X12626726Y-15049874D01*
X12626726Y-15049874D02*
X12645774Y-15059398D01*
X12645774Y-15059398D02*
X12655298Y-15068922D01*
X12655298Y-15068922D02*
X12664821Y-15087969D01*
X12664821Y-15087969D02*
X12664821Y-15135588D01*
X12664821Y-15135588D02*
X12655298Y-15154636D01*
X12655298Y-15154636D02*
X12645774Y-15164160D01*
X12645774Y-15164160D02*
X12626726Y-15173684D01*
X12626726Y-15173684D02*
X12579107Y-15173684D01*
X12579107Y-15173684D02*
X12560059Y-15164160D01*
X12560059Y-15164160D02*
X12550536Y-15154636D01*
X12760059Y-15173684D02*
X12798155Y-15173684D01*
X12798155Y-15173684D02*
X12817202Y-15164160D01*
X12817202Y-15164160D02*
X12826726Y-15154636D01*
X12826726Y-15154636D02*
X12845774Y-15126065D01*
X12845774Y-15126065D02*
X12855298Y-15087969D01*
X12855298Y-15087969D02*
X12855298Y-15011779D01*
X12855298Y-15011779D02*
X12845774Y-14992731D01*
X12845774Y-14992731D02*
X12836250Y-14983207D01*
X12836250Y-14983207D02*
X12817202Y-14973684D01*
X12817202Y-14973684D02*
X12779107Y-14973684D01*
X12779107Y-14973684D02*
X12760059Y-14983207D01*
X12760059Y-14983207D02*
X12750536Y-14992731D01*
X12750536Y-14992731D02*
X12741012Y-15011779D01*
X12741012Y-15011779D02*
X12741012Y-15059398D01*
X12741012Y-15059398D02*
X12750536Y-15078446D01*
X12750536Y-15078446D02*
X12760059Y-15087969D01*
X12760059Y-15087969D02*
X12779107Y-15097493D01*
X12779107Y-15097493D02*
X12817202Y-15097493D01*
X12817202Y-15097493D02*
X12836250Y-15087969D01*
X12836250Y-15087969D02*
X12845774Y-15078446D01*
X12845774Y-15078446D02*
X12855298Y-15059398D01*
X12969583Y-15059398D02*
X12950536Y-15049874D01*
X12950536Y-15049874D02*
X12941012Y-15040350D01*
X12941012Y-15040350D02*
X12931488Y-15021303D01*
X12931488Y-15021303D02*
X12931488Y-15011779D01*
X12931488Y-15011779D02*
X12941012Y-14992731D01*
X12941012Y-14992731D02*
X12950536Y-14983207D01*
X12950536Y-14983207D02*
X12969583Y-14973684D01*
X12969583Y-14973684D02*
X13007679Y-14973684D01*
X13007679Y-14973684D02*
X13026726Y-14983207D01*
X13026726Y-14983207D02*
X13036250Y-14992731D01*
X13036250Y-14992731D02*
X13045774Y-15011779D01*
X13045774Y-15011779D02*
X13045774Y-15021303D01*
X13045774Y-15021303D02*
X13036250Y-15040350D01*
X13036250Y-15040350D02*
X13026726Y-15049874D01*
X13026726Y-15049874D02*
X13007679Y-15059398D01*
X13007679Y-15059398D02*
X12969583Y-15059398D01*
X12969583Y-15059398D02*
X12950536Y-15068922D01*
X12950536Y-15068922D02*
X12941012Y-15078446D01*
X12941012Y-15078446D02*
X12931488Y-15097493D01*
X12931488Y-15097493D02*
X12931488Y-15135588D01*
X12931488Y-15135588D02*
X12941012Y-15154636D01*
X12941012Y-15154636D02*
X12950536Y-15164160D01*
X12950536Y-15164160D02*
X12969583Y-15173684D01*
X12969583Y-15173684D02*
X13007679Y-15173684D01*
X13007679Y-15173684D02*
X13026726Y-15164160D01*
X13026726Y-15164160D02*
X13036250Y-15154636D01*
X13036250Y-15154636D02*
X13045774Y-15135588D01*
X13045774Y-15135588D02*
X13045774Y-15097493D01*
X13045774Y-15097493D02*
X13036250Y-15078446D01*
X13036250Y-15078446D02*
X13026726Y-15068922D01*
X13026726Y-15068922D02*
X13007679Y-15059398D01*
X13121964Y-14973684D02*
X13121964Y-15011779D01*
X13198155Y-14973684D02*
X13198155Y-15011779D01*
X13493393Y-15249874D02*
X13483869Y-15240350D01*
X13483869Y-15240350D02*
X13464821Y-15211779D01*
X13464821Y-15211779D02*
X13455298Y-15192731D01*
X13455298Y-15192731D02*
X13445774Y-15164160D01*
X13445774Y-15164160D02*
X13436250Y-15116541D01*
X13436250Y-15116541D02*
X13436250Y-15078446D01*
X13436250Y-15078446D02*
X13445774Y-15030826D01*
X13445774Y-15030826D02*
X13455298Y-15002255D01*
X13455298Y-15002255D02*
X13464821Y-14983207D01*
X13464821Y-14983207D02*
X13483869Y-14954636D01*
X13483869Y-14954636D02*
X13493393Y-14945112D01*
X13550536Y-14973684D02*
X13674345Y-14973684D01*
X13674345Y-14973684D02*
X13607679Y-15049874D01*
X13607679Y-15049874D02*
X13636250Y-15049874D01*
X13636250Y-15049874D02*
X13655298Y-15059398D01*
X13655298Y-15059398D02*
X13664821Y-15068922D01*
X13664821Y-15068922D02*
X13674345Y-15087969D01*
X13674345Y-15087969D02*
X13674345Y-15135588D01*
X13674345Y-15135588D02*
X13664821Y-15154636D01*
X13664821Y-15154636D02*
X13655298Y-15164160D01*
X13655298Y-15164160D02*
X13636250Y-15173684D01*
X13636250Y-15173684D02*
X13579107Y-15173684D01*
X13579107Y-15173684D02*
X13560060Y-15164160D01*
X13560060Y-15164160D02*
X13550536Y-15154636D01*
X13912441Y-15173684D02*
X13912441Y-14973684D01*
X13998155Y-15173684D02*
X13998155Y-15068922D01*
X13998155Y-15068922D02*
X13988631Y-15049874D01*
X13988631Y-15049874D02*
X13969583Y-15040350D01*
X13969583Y-15040350D02*
X13941012Y-15040350D01*
X13941012Y-15040350D02*
X13921964Y-15049874D01*
X13921964Y-15049874D02*
X13912441Y-15059398D01*
X14121964Y-15173684D02*
X14102917Y-15164160D01*
X14102917Y-15164160D02*
X14093393Y-15154636D01*
X14093393Y-15154636D02*
X14083869Y-15135588D01*
X14083869Y-15135588D02*
X14083869Y-15078446D01*
X14083869Y-15078446D02*
X14093393Y-15059398D01*
X14093393Y-15059398D02*
X14102917Y-15049874D01*
X14102917Y-15049874D02*
X14121964Y-15040350D01*
X14121964Y-15040350D02*
X14150536Y-15040350D01*
X14150536Y-15040350D02*
X14169583Y-15049874D01*
X14169583Y-15049874D02*
X14179107Y-15059398D01*
X14179107Y-15059398D02*
X14188631Y-15078446D01*
X14188631Y-15078446D02*
X14188631Y-15135588D01*
X14188631Y-15135588D02*
X14179107Y-15154636D01*
X14179107Y-15154636D02*
X14169583Y-15164160D01*
X14169583Y-15164160D02*
X14150536Y-15173684D01*
X14150536Y-15173684D02*
X14121964Y-15173684D01*
X14302917Y-15173684D02*
X14283869Y-15164160D01*
X14283869Y-15164160D02*
X14274345Y-15145112D01*
X14274345Y-15145112D02*
X14274345Y-14973684D01*
X14455298Y-15164160D02*
X14436250Y-15173684D01*
X14436250Y-15173684D02*
X14398155Y-15173684D01*
X14398155Y-15173684D02*
X14379107Y-15164160D01*
X14379107Y-15164160D02*
X14369583Y-15145112D01*
X14369583Y-15145112D02*
X14369583Y-15068922D01*
X14369583Y-15068922D02*
X14379107Y-15049874D01*
X14379107Y-15049874D02*
X14398155Y-15040350D01*
X14398155Y-15040350D02*
X14436250Y-15040350D01*
X14436250Y-15040350D02*
X14455298Y-15049874D01*
X14455298Y-15049874D02*
X14464822Y-15068922D01*
X14464822Y-15068922D02*
X14464822Y-15087969D01*
X14464822Y-15087969D02*
X14369583Y-15107017D01*
X14541012Y-15164160D02*
X14560060Y-15173684D01*
X14560060Y-15173684D02*
X14598155Y-15173684D01*
X14598155Y-15173684D02*
X14617203Y-15164160D01*
X14617203Y-15164160D02*
X14626726Y-15145112D01*
X14626726Y-15145112D02*
X14626726Y-15135588D01*
X14626726Y-15135588D02*
X14617203Y-15116541D01*
X14617203Y-15116541D02*
X14598155Y-15107017D01*
X14598155Y-15107017D02*
X14569583Y-15107017D01*
X14569583Y-15107017D02*
X14550536Y-15097493D01*
X14550536Y-15097493D02*
X14541012Y-15078446D01*
X14541012Y-15078446D02*
X14541012Y-15068922D01*
X14541012Y-15068922D02*
X14550536Y-15049874D01*
X14550536Y-15049874D02*
X14569583Y-15040350D01*
X14569583Y-15040350D02*
X14598155Y-15040350D01*
X14598155Y-15040350D02*
X14617203Y-15049874D01*
X14693393Y-15249874D02*
X14702917Y-15240350D01*
X14702917Y-15240350D02*
X14721964Y-15211779D01*
X14721964Y-15211779D02*
X14731488Y-15192731D01*
X14731488Y-15192731D02*
X14741012Y-15164160D01*
X14741012Y-15164160D02*
X14750536Y-15116541D01*
X14750536Y-15116541D02*
X14750536Y-15078446D01*
X14750536Y-15078446D02*
X14741012Y-15030826D01*
X14741012Y-15030826D02*
X14731488Y-15002255D01*
X14731488Y-15002255D02*
X14721964Y-14983207D01*
X14721964Y-14983207D02*
X14702917Y-14954636D01*
X14702917Y-14954636D02*
X14693393Y-14945112D01*
X15055298Y-15249874D02*
X15045774Y-15240350D01*
X15045774Y-15240350D02*
X15026726Y-15211779D01*
X15026726Y-15211779D02*
X15017203Y-15192731D01*
X15017203Y-15192731D02*
X15007679Y-15164160D01*
X15007679Y-15164160D02*
X14998155Y-15116541D01*
X14998155Y-15116541D02*
X14998155Y-15078446D01*
X14998155Y-15078446D02*
X15007679Y-15030826D01*
X15007679Y-15030826D02*
X15017203Y-15002255D01*
X15017203Y-15002255D02*
X15026726Y-14983207D01*
X15026726Y-14983207D02*
X15045774Y-14954636D01*
X15045774Y-14954636D02*
X15055298Y-14945112D01*
X15131488Y-15040350D02*
X15131488Y-15173684D01*
X15131488Y-15059398D02*
X15141012Y-15049874D01*
X15141012Y-15049874D02*
X15160060Y-15040350D01*
X15160060Y-15040350D02*
X15188631Y-15040350D01*
X15188631Y-15040350D02*
X15207679Y-15049874D01*
X15207679Y-15049874D02*
X15217203Y-15068922D01*
X15217203Y-15068922D02*
X15217203Y-15173684D01*
X15341012Y-15173684D02*
X15321964Y-15164160D01*
X15321964Y-15164160D02*
X15312441Y-15154636D01*
X15312441Y-15154636D02*
X15302917Y-15135588D01*
X15302917Y-15135588D02*
X15302917Y-15078446D01*
X15302917Y-15078446D02*
X15312441Y-15059398D01*
X15312441Y-15059398D02*
X15321964Y-15049874D01*
X15321964Y-15049874D02*
X15341012Y-15040350D01*
X15341012Y-15040350D02*
X15369584Y-15040350D01*
X15369584Y-15040350D02*
X15388631Y-15049874D01*
X15388631Y-15049874D02*
X15398155Y-15059398D01*
X15398155Y-15059398D02*
X15407679Y-15078446D01*
X15407679Y-15078446D02*
X15407679Y-15135588D01*
X15407679Y-15135588D02*
X15398155Y-15154636D01*
X15398155Y-15154636D02*
X15388631Y-15164160D01*
X15388631Y-15164160D02*
X15369584Y-15173684D01*
X15369584Y-15173684D02*
X15341012Y-15173684D01*
X15464822Y-15040350D02*
X15541012Y-15040350D01*
X15493393Y-14973684D02*
X15493393Y-15145112D01*
X15493393Y-15145112D02*
X15502917Y-15164160D01*
X15502917Y-15164160D02*
X15521964Y-15173684D01*
X15521964Y-15173684D02*
X15541012Y-15173684D01*
X15760060Y-15040350D02*
X15760060Y-15240350D01*
X15760060Y-15049874D02*
X15779107Y-15040350D01*
X15779107Y-15040350D02*
X15817203Y-15040350D01*
X15817203Y-15040350D02*
X15836250Y-15049874D01*
X15836250Y-15049874D02*
X15845774Y-15059398D01*
X15845774Y-15059398D02*
X15855298Y-15078446D01*
X15855298Y-15078446D02*
X15855298Y-15135588D01*
X15855298Y-15135588D02*
X15845774Y-15154636D01*
X15845774Y-15154636D02*
X15836250Y-15164160D01*
X15836250Y-15164160D02*
X15817203Y-15173684D01*
X15817203Y-15173684D02*
X15779107Y-15173684D01*
X15779107Y-15173684D02*
X15760060Y-15164160D01*
X15969584Y-15173684D02*
X15950536Y-15164160D01*
X15950536Y-15164160D02*
X15941012Y-15145112D01*
X15941012Y-15145112D02*
X15941012Y-14973684D01*
X16131488Y-15173684D02*
X16131488Y-15068922D01*
X16131488Y-15068922D02*
X16121965Y-15049874D01*
X16121965Y-15049874D02*
X16102917Y-15040350D01*
X16102917Y-15040350D02*
X16064822Y-15040350D01*
X16064822Y-15040350D02*
X16045774Y-15049874D01*
X16131488Y-15164160D02*
X16112441Y-15173684D01*
X16112441Y-15173684D02*
X16064822Y-15173684D01*
X16064822Y-15173684D02*
X16045774Y-15164160D01*
X16045774Y-15164160D02*
X16036250Y-15145112D01*
X16036250Y-15145112D02*
X16036250Y-15126065D01*
X16036250Y-15126065D02*
X16045774Y-15107017D01*
X16045774Y-15107017D02*
X16064822Y-15097493D01*
X16064822Y-15097493D02*
X16112441Y-15097493D01*
X16112441Y-15097493D02*
X16131488Y-15087969D01*
X16198155Y-15040350D02*
X16274345Y-15040350D01*
X16226726Y-14973684D02*
X16226726Y-15145112D01*
X16226726Y-15145112D02*
X16236250Y-15164160D01*
X16236250Y-15164160D02*
X16255298Y-15173684D01*
X16255298Y-15173684D02*
X16274345Y-15173684D01*
X16417203Y-15164160D02*
X16398155Y-15173684D01*
X16398155Y-15173684D02*
X16360060Y-15173684D01*
X16360060Y-15173684D02*
X16341012Y-15164160D01*
X16341012Y-15164160D02*
X16331488Y-15145112D01*
X16331488Y-15145112D02*
X16331488Y-15068922D01*
X16331488Y-15068922D02*
X16341012Y-15049874D01*
X16341012Y-15049874D02*
X16360060Y-15040350D01*
X16360060Y-15040350D02*
X16398155Y-15040350D01*
X16398155Y-15040350D02*
X16417203Y-15049874D01*
X16417203Y-15049874D02*
X16426726Y-15068922D01*
X16426726Y-15068922D02*
X16426726Y-15087969D01*
X16426726Y-15087969D02*
X16331488Y-15107017D01*
X16598155Y-15173684D02*
X16598155Y-14973684D01*
X16598155Y-15164160D02*
X16579107Y-15173684D01*
X16579107Y-15173684D02*
X16541012Y-15173684D01*
X16541012Y-15173684D02*
X16521965Y-15164160D01*
X16521965Y-15164160D02*
X16512441Y-15154636D01*
X16512441Y-15154636D02*
X16502917Y-15135588D01*
X16502917Y-15135588D02*
X16502917Y-15078446D01*
X16502917Y-15078446D02*
X16512441Y-15059398D01*
X16512441Y-15059398D02*
X16521965Y-15049874D01*
X16521965Y-15049874D02*
X16541012Y-15040350D01*
X16541012Y-15040350D02*
X16579107Y-15040350D01*
X16579107Y-15040350D02*
X16598155Y-15049874D01*
X16674346Y-15249874D02*
X16683869Y-15240350D01*
X16683869Y-15240350D02*
X16702917Y-15211779D01*
X16702917Y-15211779D02*
X16712441Y-15192731D01*
X16712441Y-15192731D02*
X16721965Y-15164160D01*
X16721965Y-15164160D02*
X16731488Y-15116541D01*
X16731488Y-15116541D02*
X16731488Y-15078446D01*
X16731488Y-15078446D02*
X16721965Y-15030826D01*
X16721965Y-15030826D02*
X16712441Y-15002255D01*
X16712441Y-15002255D02*
X16702917Y-14983207D01*
X16702917Y-14983207D02*
X16683869Y-14954636D01*
X16683869Y-14954636D02*
X16674346Y-14945112D01*
M02*
