%TF.GenerationSoftware,KiCad,Pcbnew,7.0.6*%
%TF.CreationDate,2024-03-14T18:06:26+11:00*%
%TF.ProjectId,Rocketry_Payload_Main_DDR_Spec_V2,526f636b-6574-4727-995f-5061796c6f61,rev?*%
%TF.SameCoordinates,Original*%
%TF.FileFunction,Legend,Top*%
%TF.FilePolarity,Positive*%
%FSLAX46Y46*%
G04 Gerber Fmt 4.6, Leading zero omitted, Abs format (unit mm)*
G04 Created by KiCad (PCBNEW 7.0.6) date 2024-03-14 18:06:26*
%MOMM*%
%LPD*%
G01*
G04 APERTURE LIST*
%ADD10C,0.150000*%
%ADD11C,0.050000*%
%ADD12C,0.400000*%
%ADD13C,0.100000*%
%ADD14C,0.120000*%
G04 APERTURE END LIST*
D10*
X156795881Y-134552626D02*
X156796000Y-141500000D01*
X139630000Y-134570000D02*
X139630000Y-141500000D01*
X156796931Y-134552512D02*
G75*
G03*
X139630001Y-134570000I-8582522J-934385D01*
G01*
X114935000Y-93980000D02*
X135890000Y-93980000D01*
X135890000Y-114300000D01*
X114935000Y-114300000D01*
X114935000Y-93980000D01*
D11*
X190714409Y-92986897D02*
G75*
G03*
X190714409Y-92986897I-42500000J0D01*
G01*
D10*
X125730000Y-114300000D02*
X135890000Y-114300000D01*
X183456990Y-62929047D02*
X183409371Y-63071904D01*
X183409371Y-63071904D02*
X183361752Y-63119523D01*
X183361752Y-63119523D02*
X183266514Y-63167142D01*
X183266514Y-63167142D02*
X183123657Y-63167142D01*
X183123657Y-63167142D02*
X183028419Y-63119523D01*
X183028419Y-63119523D02*
X182980800Y-63071904D01*
X182980800Y-63071904D02*
X182933180Y-62976666D01*
X182933180Y-62976666D02*
X182933180Y-62595714D01*
X182933180Y-62595714D02*
X183933180Y-62595714D01*
X183933180Y-62595714D02*
X183933180Y-62929047D01*
X183933180Y-62929047D02*
X183885561Y-63024285D01*
X183885561Y-63024285D02*
X183837942Y-63071904D01*
X183837942Y-63071904D02*
X183742704Y-63119523D01*
X183742704Y-63119523D02*
X183647466Y-63119523D01*
X183647466Y-63119523D02*
X183552228Y-63071904D01*
X183552228Y-63071904D02*
X183504609Y-63024285D01*
X183504609Y-63024285D02*
X183456990Y-62929047D01*
X183456990Y-62929047D02*
X183456990Y-62595714D01*
X183218895Y-63548095D02*
X183218895Y-64024285D01*
X182933180Y-63452857D02*
X183933180Y-63786190D01*
X183933180Y-63786190D02*
X182933180Y-64119523D01*
X183933180Y-64310000D02*
X183933180Y-64881428D01*
X182933180Y-64595714D02*
X183933180Y-64595714D01*
X183933180Y-65071905D02*
X183933180Y-65643333D01*
X182933180Y-65357619D02*
X183933180Y-65357619D01*
X183456990Y-65976667D02*
X183456990Y-66310000D01*
X182933180Y-66452857D02*
X182933180Y-65976667D01*
X182933180Y-65976667D02*
X183933180Y-65976667D01*
X183933180Y-65976667D02*
X183933180Y-66452857D01*
X182933180Y-67452857D02*
X183409371Y-67119524D01*
X182933180Y-66881429D02*
X183933180Y-66881429D01*
X183933180Y-66881429D02*
X183933180Y-67262381D01*
X183933180Y-67262381D02*
X183885561Y-67357619D01*
X183885561Y-67357619D02*
X183837942Y-67405238D01*
X183837942Y-67405238D02*
X183742704Y-67452857D01*
X183742704Y-67452857D02*
X183599847Y-67452857D01*
X183599847Y-67452857D02*
X183504609Y-67405238D01*
X183504609Y-67405238D02*
X183456990Y-67357619D01*
X183456990Y-67357619D02*
X183409371Y-67262381D01*
X183409371Y-67262381D02*
X183409371Y-66881429D01*
X182933180Y-67881429D02*
X183933180Y-67881429D01*
X183456990Y-68357619D02*
X183456990Y-68690952D01*
X182933180Y-68833809D02*
X182933180Y-68357619D01*
X182933180Y-68357619D02*
X183933180Y-68357619D01*
X183933180Y-68357619D02*
X183933180Y-68833809D01*
X182980800Y-69214762D02*
X182933180Y-69357619D01*
X182933180Y-69357619D02*
X182933180Y-69595714D01*
X182933180Y-69595714D02*
X182980800Y-69690952D01*
X182980800Y-69690952D02*
X183028419Y-69738571D01*
X183028419Y-69738571D02*
X183123657Y-69786190D01*
X183123657Y-69786190D02*
X183218895Y-69786190D01*
X183218895Y-69786190D02*
X183314133Y-69738571D01*
X183314133Y-69738571D02*
X183361752Y-69690952D01*
X183361752Y-69690952D02*
X183409371Y-69595714D01*
X183409371Y-69595714D02*
X183456990Y-69405238D01*
X183456990Y-69405238D02*
X183504609Y-69310000D01*
X183504609Y-69310000D02*
X183552228Y-69262381D01*
X183552228Y-69262381D02*
X183647466Y-69214762D01*
X183647466Y-69214762D02*
X183742704Y-69214762D01*
X183742704Y-69214762D02*
X183837942Y-69262381D01*
X183837942Y-69262381D02*
X183885561Y-69310000D01*
X183885561Y-69310000D02*
X183933180Y-69405238D01*
X183933180Y-69405238D02*
X183933180Y-69643333D01*
X183933180Y-69643333D02*
X183885561Y-69786190D01*
X182933180Y-70976667D02*
X183933180Y-70976667D01*
X182933180Y-71452857D02*
X183933180Y-71452857D01*
X183933180Y-71452857D02*
X182933180Y-72024285D01*
X182933180Y-72024285D02*
X183933180Y-72024285D01*
X166885952Y-58239819D02*
X166314524Y-58239819D01*
X166600238Y-58239819D02*
X166600238Y-57239819D01*
X166600238Y-57239819D02*
X166505000Y-57382676D01*
X166505000Y-57382676D02*
X166409762Y-57477914D01*
X166409762Y-57477914D02*
X166314524Y-57525533D01*
X167314524Y-58239819D02*
X167314524Y-57239819D01*
X167409762Y-57858866D02*
X167695476Y-58239819D01*
X167695476Y-57573152D02*
X167314524Y-57954104D01*
X131098847Y-96523350D02*
X130432180Y-96523350D01*
X131479800Y-96285255D02*
X130765514Y-96047160D01*
X130765514Y-96047160D02*
X130765514Y-96666207D01*
X130527419Y-97047160D02*
X130479800Y-97094779D01*
X130479800Y-97094779D02*
X130432180Y-97047160D01*
X130432180Y-97047160D02*
X130479800Y-96999541D01*
X130479800Y-96999541D02*
X130527419Y-97047160D01*
X130527419Y-97047160D02*
X130432180Y-97047160D01*
X131432180Y-97428112D02*
X131432180Y-98094778D01*
X131432180Y-98094778D02*
X130432180Y-97666207D01*
X130432180Y-98475731D02*
X131432180Y-98475731D01*
X130813133Y-98570969D02*
X130432180Y-98856683D01*
X131098847Y-98856683D02*
X130717895Y-98475731D01*
X131098847Y-101349350D02*
X130432180Y-101349350D01*
X131479800Y-101111255D02*
X130765514Y-100873160D01*
X130765514Y-100873160D02*
X130765514Y-101492207D01*
X130527419Y-101873160D02*
X130479800Y-101920779D01*
X130479800Y-101920779D02*
X130432180Y-101873160D01*
X130432180Y-101873160D02*
X130479800Y-101825541D01*
X130479800Y-101825541D02*
X130527419Y-101873160D01*
X130527419Y-101873160D02*
X130432180Y-101873160D01*
X131432180Y-102254112D02*
X131432180Y-102920778D01*
X131432180Y-102920778D02*
X130432180Y-102492207D01*
X130432180Y-103301731D02*
X131432180Y-103301731D01*
X130813133Y-103396969D02*
X130432180Y-103682683D01*
X131098847Y-103682683D02*
X130717895Y-103301731D01*
X159839819Y-88463333D02*
X159839819Y-89034761D01*
X159839819Y-88749047D02*
X158839819Y-88749047D01*
X158839819Y-88749047D02*
X158982676Y-88844285D01*
X158982676Y-88844285D02*
X159077914Y-88939523D01*
X159077914Y-88939523D02*
X159125533Y-89034761D01*
X159744580Y-88034761D02*
X159792200Y-87987142D01*
X159792200Y-87987142D02*
X159839819Y-88034761D01*
X159839819Y-88034761D02*
X159792200Y-88082380D01*
X159792200Y-88082380D02*
X159744580Y-88034761D01*
X159744580Y-88034761D02*
X159839819Y-88034761D01*
X158839819Y-87082381D02*
X158839819Y-87558571D01*
X158839819Y-87558571D02*
X159316009Y-87606190D01*
X159316009Y-87606190D02*
X159268390Y-87558571D01*
X159268390Y-87558571D02*
X159220771Y-87463333D01*
X159220771Y-87463333D02*
X159220771Y-87225238D01*
X159220771Y-87225238D02*
X159268390Y-87130000D01*
X159268390Y-87130000D02*
X159316009Y-87082381D01*
X159316009Y-87082381D02*
X159411247Y-87034762D01*
X159411247Y-87034762D02*
X159649342Y-87034762D01*
X159649342Y-87034762D02*
X159744580Y-87082381D01*
X159744580Y-87082381D02*
X159792200Y-87130000D01*
X159792200Y-87130000D02*
X159839819Y-87225238D01*
X159839819Y-87225238D02*
X159839819Y-87463333D01*
X159839819Y-87463333D02*
X159792200Y-87558571D01*
X159792200Y-87558571D02*
X159744580Y-87606190D01*
X159839819Y-86606190D02*
X158839819Y-86606190D01*
X159458866Y-86510952D02*
X159839819Y-86225238D01*
X159173152Y-86225238D02*
X159554104Y-86606190D01*
X159839819Y-82034047D02*
X159839819Y-82605475D01*
X159839819Y-82319761D02*
X158839819Y-82319761D01*
X158839819Y-82319761D02*
X158982676Y-82414999D01*
X158982676Y-82414999D02*
X159077914Y-82510237D01*
X159077914Y-82510237D02*
X159125533Y-82605475D01*
X159839819Y-81605475D02*
X158839819Y-81605475D01*
X159458866Y-81510237D02*
X159839819Y-81224523D01*
X159173152Y-81224523D02*
X159554104Y-81605475D01*
X115548819Y-91670094D02*
X114548819Y-91670094D01*
X114548819Y-91670094D02*
X114548819Y-91431999D01*
X114548819Y-91431999D02*
X114596438Y-91289142D01*
X114596438Y-91289142D02*
X114691676Y-91193904D01*
X114691676Y-91193904D02*
X114786914Y-91146285D01*
X114786914Y-91146285D02*
X114977390Y-91098666D01*
X114977390Y-91098666D02*
X115120247Y-91098666D01*
X115120247Y-91098666D02*
X115310723Y-91146285D01*
X115310723Y-91146285D02*
X115405961Y-91193904D01*
X115405961Y-91193904D02*
X115501200Y-91289142D01*
X115501200Y-91289142D02*
X115548819Y-91431999D01*
X115548819Y-91431999D02*
X115548819Y-91670094D01*
X114548819Y-90193904D02*
X114548819Y-90670094D01*
X114548819Y-90670094D02*
X115025009Y-90717713D01*
X115025009Y-90717713D02*
X114977390Y-90670094D01*
X114977390Y-90670094D02*
X114929771Y-90574856D01*
X114929771Y-90574856D02*
X114929771Y-90336761D01*
X114929771Y-90336761D02*
X114977390Y-90241523D01*
X114977390Y-90241523D02*
X115025009Y-90193904D01*
X115025009Y-90193904D02*
X115120247Y-90146285D01*
X115120247Y-90146285D02*
X115358342Y-90146285D01*
X115358342Y-90146285D02*
X115453580Y-90193904D01*
X115453580Y-90193904D02*
X115501200Y-90241523D01*
X115501200Y-90241523D02*
X115548819Y-90336761D01*
X115548819Y-90336761D02*
X115548819Y-90574856D01*
X115548819Y-90574856D02*
X115501200Y-90670094D01*
X115501200Y-90670094D02*
X115453580Y-90717713D01*
X143978666Y-97090033D02*
X143978666Y-96390033D01*
X143978666Y-96390033D02*
X144145333Y-96390033D01*
X144145333Y-96390033D02*
X144245333Y-96423366D01*
X144245333Y-96423366D02*
X144312000Y-96490033D01*
X144312000Y-96490033D02*
X144345333Y-96556700D01*
X144345333Y-96556700D02*
X144378666Y-96690033D01*
X144378666Y-96690033D02*
X144378666Y-96790033D01*
X144378666Y-96790033D02*
X144345333Y-96923366D01*
X144345333Y-96923366D02*
X144312000Y-96990033D01*
X144312000Y-96990033D02*
X144245333Y-97056700D01*
X144245333Y-97056700D02*
X144145333Y-97090033D01*
X144145333Y-97090033D02*
X143978666Y-97090033D01*
X144578666Y-96390033D02*
X144812000Y-97090033D01*
X144812000Y-97090033D02*
X145045333Y-96390033D01*
X145478666Y-96390033D02*
X145478666Y-96890033D01*
X145478666Y-96890033D02*
X145445333Y-96990033D01*
X145445333Y-96990033D02*
X145378666Y-97056700D01*
X145378666Y-97056700D02*
X145278666Y-97090033D01*
X145278666Y-97090033D02*
X145212000Y-97090033D01*
X146111999Y-96390033D02*
X145978666Y-96390033D01*
X145978666Y-96390033D02*
X145911999Y-96423366D01*
X145911999Y-96423366D02*
X145878666Y-96456700D01*
X145878666Y-96456700D02*
X145811999Y-96556700D01*
X145811999Y-96556700D02*
X145778666Y-96690033D01*
X145778666Y-96690033D02*
X145778666Y-96956700D01*
X145778666Y-96956700D02*
X145811999Y-97023366D01*
X145811999Y-97023366D02*
X145845333Y-97056700D01*
X145845333Y-97056700D02*
X145911999Y-97090033D01*
X145911999Y-97090033D02*
X146045333Y-97090033D01*
X146045333Y-97090033D02*
X146111999Y-97056700D01*
X146111999Y-97056700D02*
X146145333Y-97023366D01*
X146145333Y-97023366D02*
X146178666Y-96956700D01*
X146178666Y-96956700D02*
X146178666Y-96790033D01*
X146178666Y-96790033D02*
X146145333Y-96723366D01*
X146145333Y-96723366D02*
X146111999Y-96690033D01*
X146111999Y-96690033D02*
X146045333Y-96656700D01*
X146045333Y-96656700D02*
X145911999Y-96656700D01*
X145911999Y-96656700D02*
X145845333Y-96690033D01*
X145845333Y-96690033D02*
X145811999Y-96723366D01*
X145811999Y-96723366D02*
X145778666Y-96790033D01*
X146445333Y-96890033D02*
X146778666Y-96890033D01*
X146378666Y-97090033D02*
X146612000Y-96390033D01*
X146612000Y-96390033D02*
X146845333Y-97090033D01*
X142458666Y-95820033D02*
X142458666Y-95120033D01*
X142458666Y-95120033D02*
X142692000Y-95620033D01*
X142692000Y-95620033D02*
X142925333Y-95120033D01*
X142925333Y-95120033D02*
X142925333Y-95820033D01*
X143258666Y-95820033D02*
X143258666Y-95120033D01*
X143591999Y-95820033D02*
X143591999Y-95120033D01*
X143591999Y-95120033D02*
X143825333Y-95620033D01*
X143825333Y-95620033D02*
X144058666Y-95120033D01*
X144058666Y-95120033D02*
X144058666Y-95820033D01*
X144325333Y-95120033D02*
X144791999Y-95820033D01*
X144791999Y-95120033D02*
X144325333Y-95820033D01*
X145458666Y-95820033D02*
X145225333Y-95486700D01*
X145058666Y-95820033D02*
X145058666Y-95120033D01*
X145058666Y-95120033D02*
X145325333Y-95120033D01*
X145325333Y-95120033D02*
X145392000Y-95153366D01*
X145392000Y-95153366D02*
X145425333Y-95186700D01*
X145425333Y-95186700D02*
X145458666Y-95253366D01*
X145458666Y-95253366D02*
X145458666Y-95353366D01*
X145458666Y-95353366D02*
X145425333Y-95420033D01*
X145425333Y-95420033D02*
X145392000Y-95453366D01*
X145392000Y-95453366D02*
X145325333Y-95486700D01*
X145325333Y-95486700D02*
X145058666Y-95486700D01*
X145658666Y-95120033D02*
X146058666Y-95120033D01*
X145858666Y-95820033D02*
X145858666Y-95120033D01*
X146658666Y-95820033D02*
X146258666Y-95820033D01*
X146458666Y-95820033D02*
X146458666Y-95120033D01*
X146458666Y-95120033D02*
X146391999Y-95220033D01*
X146391999Y-95220033D02*
X146325333Y-95286700D01*
X146325333Y-95286700D02*
X146258666Y-95320033D01*
X147092000Y-95120033D02*
X147158666Y-95120033D01*
X147158666Y-95120033D02*
X147225333Y-95153366D01*
X147225333Y-95153366D02*
X147258666Y-95186700D01*
X147258666Y-95186700D02*
X147292000Y-95253366D01*
X147292000Y-95253366D02*
X147325333Y-95386700D01*
X147325333Y-95386700D02*
X147325333Y-95553366D01*
X147325333Y-95553366D02*
X147292000Y-95686700D01*
X147292000Y-95686700D02*
X147258666Y-95753366D01*
X147258666Y-95753366D02*
X147225333Y-95786700D01*
X147225333Y-95786700D02*
X147158666Y-95820033D01*
X147158666Y-95820033D02*
X147092000Y-95820033D01*
X147092000Y-95820033D02*
X147025333Y-95786700D01*
X147025333Y-95786700D02*
X146992000Y-95753366D01*
X146992000Y-95753366D02*
X146958666Y-95686700D01*
X146958666Y-95686700D02*
X146925333Y-95553366D01*
X146925333Y-95553366D02*
X146925333Y-95386700D01*
X146925333Y-95386700D02*
X146958666Y-95253366D01*
X146958666Y-95253366D02*
X146992000Y-95186700D01*
X146992000Y-95186700D02*
X147025333Y-95153366D01*
X147025333Y-95153366D02*
X147092000Y-95120033D01*
X147925333Y-95120033D02*
X147792000Y-95120033D01*
X147792000Y-95120033D02*
X147725333Y-95153366D01*
X147725333Y-95153366D02*
X147692000Y-95186700D01*
X147692000Y-95186700D02*
X147625333Y-95286700D01*
X147625333Y-95286700D02*
X147592000Y-95420033D01*
X147592000Y-95420033D02*
X147592000Y-95686700D01*
X147592000Y-95686700D02*
X147625333Y-95753366D01*
X147625333Y-95753366D02*
X147658667Y-95786700D01*
X147658667Y-95786700D02*
X147725333Y-95820033D01*
X147725333Y-95820033D02*
X147858667Y-95820033D01*
X147858667Y-95820033D02*
X147925333Y-95786700D01*
X147925333Y-95786700D02*
X147958667Y-95753366D01*
X147958667Y-95753366D02*
X147992000Y-95686700D01*
X147992000Y-95686700D02*
X147992000Y-95520033D01*
X147992000Y-95520033D02*
X147958667Y-95453366D01*
X147958667Y-95453366D02*
X147925333Y-95420033D01*
X147925333Y-95420033D02*
X147858667Y-95386700D01*
X147858667Y-95386700D02*
X147725333Y-95386700D01*
X147725333Y-95386700D02*
X147658667Y-95420033D01*
X147658667Y-95420033D02*
X147625333Y-95453366D01*
X147625333Y-95453366D02*
X147592000Y-95520033D01*
X148258667Y-95186700D02*
X148292000Y-95153366D01*
X148292000Y-95153366D02*
X148358667Y-95120033D01*
X148358667Y-95120033D02*
X148525334Y-95120033D01*
X148525334Y-95120033D02*
X148592000Y-95153366D01*
X148592000Y-95153366D02*
X148625334Y-95186700D01*
X148625334Y-95186700D02*
X148658667Y-95253366D01*
X148658667Y-95253366D02*
X148658667Y-95320033D01*
X148658667Y-95320033D02*
X148625334Y-95420033D01*
X148625334Y-95420033D02*
X148225334Y-95820033D01*
X148225334Y-95820033D02*
X148658667Y-95820033D01*
X157774190Y-134717009D02*
X157917047Y-134764628D01*
X157917047Y-134764628D02*
X157964666Y-134812247D01*
X157964666Y-134812247D02*
X158012285Y-134907485D01*
X158012285Y-134907485D02*
X158012285Y-135050342D01*
X158012285Y-135050342D02*
X157964666Y-135145580D01*
X157964666Y-135145580D02*
X157917047Y-135193200D01*
X157917047Y-135193200D02*
X157821809Y-135240819D01*
X157821809Y-135240819D02*
X157440857Y-135240819D01*
X157440857Y-135240819D02*
X157440857Y-134240819D01*
X157440857Y-134240819D02*
X157774190Y-134240819D01*
X157774190Y-134240819D02*
X157869428Y-134288438D01*
X157869428Y-134288438D02*
X157917047Y-134336057D01*
X157917047Y-134336057D02*
X157964666Y-134431295D01*
X157964666Y-134431295D02*
X157964666Y-134526533D01*
X157964666Y-134526533D02*
X157917047Y-134621771D01*
X157917047Y-134621771D02*
X157869428Y-134669390D01*
X157869428Y-134669390D02*
X157774190Y-134717009D01*
X157774190Y-134717009D02*
X157440857Y-134717009D01*
X158440857Y-135240819D02*
X158440857Y-134240819D01*
X158440857Y-134240819D02*
X158774190Y-134955104D01*
X158774190Y-134955104D02*
X159107523Y-134240819D01*
X159107523Y-134240819D02*
X159107523Y-135240819D01*
X159583714Y-135240819D02*
X159583714Y-134240819D01*
X159583714Y-134240819D02*
X159964666Y-134240819D01*
X159964666Y-134240819D02*
X160059904Y-134288438D01*
X160059904Y-134288438D02*
X160107523Y-134336057D01*
X160107523Y-134336057D02*
X160155142Y-134431295D01*
X160155142Y-134431295D02*
X160155142Y-134574152D01*
X160155142Y-134574152D02*
X160107523Y-134669390D01*
X160107523Y-134669390D02*
X160059904Y-134717009D01*
X160059904Y-134717009D02*
X159964666Y-134764628D01*
X159964666Y-134764628D02*
X159583714Y-134764628D01*
X161107523Y-135240819D02*
X160536095Y-135240819D01*
X160821809Y-135240819D02*
X160821809Y-134240819D01*
X160821809Y-134240819D02*
X160726571Y-134383676D01*
X160726571Y-134383676D02*
X160631333Y-134478914D01*
X160631333Y-134478914D02*
X160536095Y-134526533D01*
X162631333Y-134717009D02*
X162298000Y-134717009D01*
X162298000Y-135240819D02*
X162298000Y-134240819D01*
X162298000Y-134240819D02*
X162774190Y-134240819D01*
X163107524Y-134955104D02*
X163583714Y-134955104D01*
X163012286Y-135240819D02*
X163345619Y-134240819D01*
X163345619Y-134240819D02*
X163678952Y-135240819D01*
X164012286Y-134240819D02*
X164012286Y-135050342D01*
X164012286Y-135050342D02*
X164059905Y-135145580D01*
X164059905Y-135145580D02*
X164107524Y-135193200D01*
X164107524Y-135193200D02*
X164202762Y-135240819D01*
X164202762Y-135240819D02*
X164393238Y-135240819D01*
X164393238Y-135240819D02*
X164488476Y-135193200D01*
X164488476Y-135193200D02*
X164536095Y-135145580D01*
X164536095Y-135145580D02*
X164583714Y-135050342D01*
X164583714Y-135050342D02*
X164583714Y-134240819D01*
X165536095Y-135240819D02*
X165059905Y-135240819D01*
X165059905Y-135240819D02*
X165059905Y-134240819D01*
X165726572Y-134240819D02*
X166298000Y-134240819D01*
X166012286Y-135240819D02*
X166012286Y-134240819D01*
X166632095Y-66764819D02*
X167203523Y-66764819D01*
X166917809Y-67764819D02*
X166917809Y-66764819D01*
X167536857Y-67764819D02*
X167536857Y-66764819D01*
X167536857Y-66764819D02*
X167917809Y-66764819D01*
X167917809Y-66764819D02*
X168013047Y-66812438D01*
X168013047Y-66812438D02*
X168060666Y-66860057D01*
X168060666Y-66860057D02*
X168108285Y-66955295D01*
X168108285Y-66955295D02*
X168108285Y-67098152D01*
X168108285Y-67098152D02*
X168060666Y-67193390D01*
X168060666Y-67193390D02*
X168013047Y-67241009D01*
X168013047Y-67241009D02*
X167917809Y-67288628D01*
X167917809Y-67288628D02*
X167536857Y-67288628D01*
X168965428Y-67098152D02*
X168965428Y-67764819D01*
X168727333Y-66717200D02*
X168489238Y-67431485D01*
X168489238Y-67431485D02*
X169108285Y-67431485D01*
X165393999Y-72844819D02*
X164822571Y-72844819D01*
X165108285Y-72844819D02*
X165108285Y-71844819D01*
X165108285Y-71844819D02*
X165013047Y-71987676D01*
X165013047Y-71987676D02*
X164917809Y-72082914D01*
X164917809Y-72082914D02*
X164822571Y-72130533D01*
X165774952Y-71940057D02*
X165822571Y-71892438D01*
X165822571Y-71892438D02*
X165917809Y-71844819D01*
X165917809Y-71844819D02*
X166155904Y-71844819D01*
X166155904Y-71844819D02*
X166251142Y-71892438D01*
X166251142Y-71892438D02*
X166298761Y-71940057D01*
X166298761Y-71940057D02*
X166346380Y-72035295D01*
X166346380Y-72035295D02*
X166346380Y-72130533D01*
X166346380Y-72130533D02*
X166298761Y-72273390D01*
X166298761Y-72273390D02*
X165727333Y-72844819D01*
X165727333Y-72844819D02*
X166346380Y-72844819D01*
X166632095Y-71844819D02*
X166965428Y-72844819D01*
X166965428Y-72844819D02*
X167298761Y-71844819D01*
X167394000Y-72940057D02*
X168155904Y-72940057D01*
X168965428Y-72844819D02*
X168632095Y-72368628D01*
X168394000Y-72844819D02*
X168394000Y-71844819D01*
X168394000Y-71844819D02*
X168774952Y-71844819D01*
X168774952Y-71844819D02*
X168870190Y-71892438D01*
X168870190Y-71892438D02*
X168917809Y-71940057D01*
X168917809Y-71940057D02*
X168965428Y-72035295D01*
X168965428Y-72035295D02*
X168965428Y-72178152D01*
X168965428Y-72178152D02*
X168917809Y-72273390D01*
X168917809Y-72273390D02*
X168870190Y-72321009D01*
X168870190Y-72321009D02*
X168774952Y-72368628D01*
X168774952Y-72368628D02*
X168394000Y-72368628D01*
X169346381Y-72559104D02*
X169822571Y-72559104D01*
X169251143Y-72844819D02*
X169584476Y-71844819D01*
X169584476Y-71844819D02*
X169917809Y-72844819D01*
X170155905Y-71844819D02*
X170394000Y-72844819D01*
X170394000Y-72844819D02*
X170584476Y-72130533D01*
X170584476Y-72130533D02*
X170774952Y-72844819D01*
X170774952Y-72844819D02*
X171013048Y-71844819D01*
X172093095Y-66754819D02*
X172664523Y-66754819D01*
X172378809Y-67754819D02*
X172378809Y-66754819D01*
X172997857Y-67754819D02*
X172997857Y-66754819D01*
X172997857Y-66754819D02*
X173378809Y-66754819D01*
X173378809Y-66754819D02*
X173474047Y-66802438D01*
X173474047Y-66802438D02*
X173521666Y-66850057D01*
X173521666Y-66850057D02*
X173569285Y-66945295D01*
X173569285Y-66945295D02*
X173569285Y-67088152D01*
X173569285Y-67088152D02*
X173521666Y-67183390D01*
X173521666Y-67183390D02*
X173474047Y-67231009D01*
X173474047Y-67231009D02*
X173378809Y-67278628D01*
X173378809Y-67278628D02*
X172997857Y-67278628D01*
X173902619Y-66754819D02*
X174521666Y-66754819D01*
X174521666Y-66754819D02*
X174188333Y-67135771D01*
X174188333Y-67135771D02*
X174331190Y-67135771D01*
X174331190Y-67135771D02*
X174426428Y-67183390D01*
X174426428Y-67183390D02*
X174474047Y-67231009D01*
X174474047Y-67231009D02*
X174521666Y-67326247D01*
X174521666Y-67326247D02*
X174521666Y-67564342D01*
X174521666Y-67564342D02*
X174474047Y-67659580D01*
X174474047Y-67659580D02*
X174426428Y-67707200D01*
X174426428Y-67707200D02*
X174331190Y-67754819D01*
X174331190Y-67754819D02*
X174045476Y-67754819D01*
X174045476Y-67754819D02*
X173950238Y-67707200D01*
X173950238Y-67707200D02*
X173902619Y-67659580D01*
X172593095Y-71892438D02*
X172497857Y-71844819D01*
X172497857Y-71844819D02*
X172355000Y-71844819D01*
X172355000Y-71844819D02*
X172212143Y-71892438D01*
X172212143Y-71892438D02*
X172116905Y-71987676D01*
X172116905Y-71987676D02*
X172069286Y-72082914D01*
X172069286Y-72082914D02*
X172021667Y-72273390D01*
X172021667Y-72273390D02*
X172021667Y-72416247D01*
X172021667Y-72416247D02*
X172069286Y-72606723D01*
X172069286Y-72606723D02*
X172116905Y-72701961D01*
X172116905Y-72701961D02*
X172212143Y-72797200D01*
X172212143Y-72797200D02*
X172355000Y-72844819D01*
X172355000Y-72844819D02*
X172450238Y-72844819D01*
X172450238Y-72844819D02*
X172593095Y-72797200D01*
X172593095Y-72797200D02*
X172640714Y-72749580D01*
X172640714Y-72749580D02*
X172640714Y-72416247D01*
X172640714Y-72416247D02*
X172450238Y-72416247D01*
X173069286Y-72844819D02*
X173069286Y-71844819D01*
X173069286Y-71844819D02*
X173640714Y-72844819D01*
X173640714Y-72844819D02*
X173640714Y-71844819D01*
X174116905Y-72844819D02*
X174116905Y-71844819D01*
X174116905Y-71844819D02*
X174355000Y-71844819D01*
X174355000Y-71844819D02*
X174497857Y-71892438D01*
X174497857Y-71892438D02*
X174593095Y-71987676D01*
X174593095Y-71987676D02*
X174640714Y-72082914D01*
X174640714Y-72082914D02*
X174688333Y-72273390D01*
X174688333Y-72273390D02*
X174688333Y-72416247D01*
X174688333Y-72416247D02*
X174640714Y-72606723D01*
X174640714Y-72606723D02*
X174593095Y-72701961D01*
X174593095Y-72701961D02*
X174497857Y-72797200D01*
X174497857Y-72797200D02*
X174355000Y-72844819D01*
X174355000Y-72844819D02*
X174116905Y-72844819D01*
X138814980Y-62142666D02*
X138862600Y-62190285D01*
X138862600Y-62190285D02*
X138910219Y-62333142D01*
X138910219Y-62333142D02*
X138910219Y-62428380D01*
X138910219Y-62428380D02*
X138862600Y-62571237D01*
X138862600Y-62571237D02*
X138767361Y-62666475D01*
X138767361Y-62666475D02*
X138672123Y-62714094D01*
X138672123Y-62714094D02*
X138481647Y-62761713D01*
X138481647Y-62761713D02*
X138338790Y-62761713D01*
X138338790Y-62761713D02*
X138148314Y-62714094D01*
X138148314Y-62714094D02*
X138053076Y-62666475D01*
X138053076Y-62666475D02*
X137957838Y-62571237D01*
X137957838Y-62571237D02*
X137910219Y-62428380D01*
X137910219Y-62428380D02*
X137910219Y-62333142D01*
X137910219Y-62333142D02*
X137957838Y-62190285D01*
X137957838Y-62190285D02*
X138005457Y-62142666D01*
X137910219Y-61237904D02*
X137910219Y-61714094D01*
X137910219Y-61714094D02*
X138386409Y-61761713D01*
X138386409Y-61761713D02*
X138338790Y-61714094D01*
X138338790Y-61714094D02*
X138291171Y-61618856D01*
X138291171Y-61618856D02*
X138291171Y-61380761D01*
X138291171Y-61380761D02*
X138338790Y-61285523D01*
X138338790Y-61285523D02*
X138386409Y-61237904D01*
X138386409Y-61237904D02*
X138481647Y-61190285D01*
X138481647Y-61190285D02*
X138719742Y-61190285D01*
X138719742Y-61190285D02*
X138814980Y-61237904D01*
X138814980Y-61237904D02*
X138862600Y-61285523D01*
X138862600Y-61285523D02*
X138910219Y-61380761D01*
X138910219Y-61380761D02*
X138910219Y-61618856D01*
X138910219Y-61618856D02*
X138862600Y-61714094D01*
X138862600Y-61714094D02*
X138814980Y-61761713D01*
X139835143Y-63462819D02*
X139930381Y-63462819D01*
X139930381Y-63462819D02*
X140025619Y-63510438D01*
X140025619Y-63510438D02*
X140073238Y-63558057D01*
X140073238Y-63558057D02*
X140120857Y-63653295D01*
X140120857Y-63653295D02*
X140168476Y-63843771D01*
X140168476Y-63843771D02*
X140168476Y-64081866D01*
X140168476Y-64081866D02*
X140120857Y-64272342D01*
X140120857Y-64272342D02*
X140073238Y-64367580D01*
X140073238Y-64367580D02*
X140025619Y-64415200D01*
X140025619Y-64415200D02*
X139930381Y-64462819D01*
X139930381Y-64462819D02*
X139835143Y-64462819D01*
X139835143Y-64462819D02*
X139739905Y-64415200D01*
X139739905Y-64415200D02*
X139692286Y-64367580D01*
X139692286Y-64367580D02*
X139644667Y-64272342D01*
X139644667Y-64272342D02*
X139597048Y-64081866D01*
X139597048Y-64081866D02*
X139597048Y-63843771D01*
X139597048Y-63843771D02*
X139644667Y-63653295D01*
X139644667Y-63653295D02*
X139692286Y-63558057D01*
X139692286Y-63558057D02*
X139739905Y-63510438D01*
X139739905Y-63510438D02*
X139835143Y-63462819D01*
X140597048Y-64367580D02*
X140644667Y-64415200D01*
X140644667Y-64415200D02*
X140597048Y-64462819D01*
X140597048Y-64462819D02*
X140549429Y-64415200D01*
X140549429Y-64415200D02*
X140597048Y-64367580D01*
X140597048Y-64367580D02*
X140597048Y-64462819D01*
X141597047Y-64462819D02*
X141025619Y-64462819D01*
X141311333Y-64462819D02*
X141311333Y-63462819D01*
X141311333Y-63462819D02*
X141216095Y-63605676D01*
X141216095Y-63605676D02*
X141120857Y-63700914D01*
X141120857Y-63700914D02*
X141025619Y-63748533D01*
X142454190Y-63796152D02*
X142454190Y-64462819D01*
X142025619Y-63796152D02*
X142025619Y-64319961D01*
X142025619Y-64319961D02*
X142073238Y-64415200D01*
X142073238Y-64415200D02*
X142168476Y-64462819D01*
X142168476Y-64462819D02*
X142311333Y-64462819D01*
X142311333Y-64462819D02*
X142406571Y-64415200D01*
X142406571Y-64415200D02*
X142454190Y-64367580D01*
X143263714Y-63939009D02*
X142930381Y-63939009D01*
X142930381Y-64462819D02*
X142930381Y-63462819D01*
X142930381Y-63462819D02*
X143406571Y-63462819D01*
X135953523Y-53048819D02*
X135477333Y-53048819D01*
X135477333Y-53048819D02*
X135429714Y-53525009D01*
X135429714Y-53525009D02*
X135477333Y-53477390D01*
X135477333Y-53477390D02*
X135572571Y-53429771D01*
X135572571Y-53429771D02*
X135810666Y-53429771D01*
X135810666Y-53429771D02*
X135905904Y-53477390D01*
X135905904Y-53477390D02*
X135953523Y-53525009D01*
X135953523Y-53525009D02*
X136001142Y-53620247D01*
X136001142Y-53620247D02*
X136001142Y-53858342D01*
X136001142Y-53858342D02*
X135953523Y-53953580D01*
X135953523Y-53953580D02*
X135905904Y-54001200D01*
X135905904Y-54001200D02*
X135810666Y-54048819D01*
X135810666Y-54048819D02*
X135572571Y-54048819D01*
X135572571Y-54048819D02*
X135477333Y-54001200D01*
X135477333Y-54001200D02*
X135429714Y-53953580D01*
X136286857Y-53048819D02*
X136620190Y-54048819D01*
X136620190Y-54048819D02*
X136953523Y-53048819D01*
X110331666Y-91402819D02*
X110331666Y-92117104D01*
X110331666Y-92117104D02*
X110284047Y-92259961D01*
X110284047Y-92259961D02*
X110188809Y-92355200D01*
X110188809Y-92355200D02*
X110045952Y-92402819D01*
X110045952Y-92402819D02*
X109950714Y-92402819D01*
X111331666Y-92402819D02*
X110760238Y-92402819D01*
X111045952Y-92402819D02*
X111045952Y-91402819D01*
X111045952Y-91402819D02*
X110950714Y-91545676D01*
X110950714Y-91545676D02*
X110855476Y-91640914D01*
X110855476Y-91640914D02*
X110760238Y-91688533D01*
X108617381Y-86322819D02*
X108950714Y-87322819D01*
X108950714Y-87322819D02*
X109284047Y-86322819D01*
X109569762Y-87037104D02*
X110045952Y-87037104D01*
X109474524Y-87322819D02*
X109807857Y-86322819D01*
X109807857Y-86322819D02*
X110141190Y-87322819D01*
X110950714Y-87322819D02*
X110474524Y-87322819D01*
X110474524Y-87322819D02*
X110474524Y-86322819D01*
X111141191Y-86322819D02*
X111474524Y-87322819D01*
X111474524Y-87322819D02*
X111807857Y-86322819D01*
X112141191Y-86799009D02*
X112474524Y-86799009D01*
X112617381Y-87322819D02*
X112141191Y-87322819D01*
X112141191Y-87322819D02*
X112141191Y-86322819D01*
X112141191Y-86322819D02*
X112617381Y-86322819D01*
X166838333Y-62049819D02*
X166505000Y-61573628D01*
X166266905Y-62049819D02*
X166266905Y-61049819D01*
X166266905Y-61049819D02*
X166647857Y-61049819D01*
X166647857Y-61049819D02*
X166743095Y-61097438D01*
X166743095Y-61097438D02*
X166790714Y-61145057D01*
X166790714Y-61145057D02*
X166838333Y-61240295D01*
X166838333Y-61240295D02*
X166838333Y-61383152D01*
X166838333Y-61383152D02*
X166790714Y-61478390D01*
X166790714Y-61478390D02*
X166743095Y-61526009D01*
X166743095Y-61526009D02*
X166647857Y-61573628D01*
X166647857Y-61573628D02*
X166266905Y-61573628D01*
X167695476Y-61049819D02*
X167505000Y-61049819D01*
X167505000Y-61049819D02*
X167409762Y-61097438D01*
X167409762Y-61097438D02*
X167362143Y-61145057D01*
X167362143Y-61145057D02*
X167266905Y-61287914D01*
X167266905Y-61287914D02*
X167219286Y-61478390D01*
X167219286Y-61478390D02*
X167219286Y-61859342D01*
X167219286Y-61859342D02*
X167266905Y-61954580D01*
X167266905Y-61954580D02*
X167314524Y-62002200D01*
X167314524Y-62002200D02*
X167409762Y-62049819D01*
X167409762Y-62049819D02*
X167600238Y-62049819D01*
X167600238Y-62049819D02*
X167695476Y-62002200D01*
X167695476Y-62002200D02*
X167743095Y-61954580D01*
X167743095Y-61954580D02*
X167790714Y-61859342D01*
X167790714Y-61859342D02*
X167790714Y-61621247D01*
X167790714Y-61621247D02*
X167743095Y-61526009D01*
X167743095Y-61526009D02*
X167695476Y-61478390D01*
X167695476Y-61478390D02*
X167600238Y-61430771D01*
X167600238Y-61430771D02*
X167409762Y-61430771D01*
X167409762Y-61430771D02*
X167314524Y-61478390D01*
X167314524Y-61478390D02*
X167266905Y-61526009D01*
X167266905Y-61526009D02*
X167219286Y-61621247D01*
X157683690Y-130741009D02*
X157826547Y-130788628D01*
X157826547Y-130788628D02*
X157874166Y-130836247D01*
X157874166Y-130836247D02*
X157921785Y-130931485D01*
X157921785Y-130931485D02*
X157921785Y-131074342D01*
X157921785Y-131074342D02*
X157874166Y-131169580D01*
X157874166Y-131169580D02*
X157826547Y-131217200D01*
X157826547Y-131217200D02*
X157731309Y-131264819D01*
X157731309Y-131264819D02*
X157350357Y-131264819D01*
X157350357Y-131264819D02*
X157350357Y-130264819D01*
X157350357Y-130264819D02*
X157683690Y-130264819D01*
X157683690Y-130264819D02*
X157778928Y-130312438D01*
X157778928Y-130312438D02*
X157826547Y-130360057D01*
X157826547Y-130360057D02*
X157874166Y-130455295D01*
X157874166Y-130455295D02*
X157874166Y-130550533D01*
X157874166Y-130550533D02*
X157826547Y-130645771D01*
X157826547Y-130645771D02*
X157778928Y-130693390D01*
X157778928Y-130693390D02*
X157683690Y-130741009D01*
X157683690Y-130741009D02*
X157350357Y-130741009D01*
X158350357Y-131264819D02*
X158350357Y-130264819D01*
X158350357Y-130264819D02*
X158683690Y-130979104D01*
X158683690Y-130979104D02*
X159017023Y-130264819D01*
X159017023Y-130264819D02*
X159017023Y-131264819D01*
X159493214Y-131264819D02*
X159493214Y-130264819D01*
X159493214Y-130264819D02*
X159874166Y-130264819D01*
X159874166Y-130264819D02*
X159969404Y-130312438D01*
X159969404Y-130312438D02*
X160017023Y-130360057D01*
X160017023Y-130360057D02*
X160064642Y-130455295D01*
X160064642Y-130455295D02*
X160064642Y-130598152D01*
X160064642Y-130598152D02*
X160017023Y-130693390D01*
X160017023Y-130693390D02*
X159969404Y-130741009D01*
X159969404Y-130741009D02*
X159874166Y-130788628D01*
X159874166Y-130788628D02*
X159493214Y-130788628D01*
X160445595Y-130360057D02*
X160493214Y-130312438D01*
X160493214Y-130312438D02*
X160588452Y-130264819D01*
X160588452Y-130264819D02*
X160826547Y-130264819D01*
X160826547Y-130264819D02*
X160921785Y-130312438D01*
X160921785Y-130312438D02*
X160969404Y-130360057D01*
X160969404Y-130360057D02*
X161017023Y-130455295D01*
X161017023Y-130455295D02*
X161017023Y-130550533D01*
X161017023Y-130550533D02*
X160969404Y-130693390D01*
X160969404Y-130693390D02*
X160397976Y-131264819D01*
X160397976Y-131264819D02*
X161017023Y-131264819D01*
X162540833Y-130741009D02*
X162207500Y-130741009D01*
X162207500Y-131264819D02*
X162207500Y-130264819D01*
X162207500Y-130264819D02*
X162683690Y-130264819D01*
X163017024Y-130979104D02*
X163493214Y-130979104D01*
X162921786Y-131264819D02*
X163255119Y-130264819D01*
X163255119Y-130264819D02*
X163588452Y-131264819D01*
X163921786Y-130264819D02*
X163921786Y-131074342D01*
X163921786Y-131074342D02*
X163969405Y-131169580D01*
X163969405Y-131169580D02*
X164017024Y-131217200D01*
X164017024Y-131217200D02*
X164112262Y-131264819D01*
X164112262Y-131264819D02*
X164302738Y-131264819D01*
X164302738Y-131264819D02*
X164397976Y-131217200D01*
X164397976Y-131217200D02*
X164445595Y-131169580D01*
X164445595Y-131169580D02*
X164493214Y-131074342D01*
X164493214Y-131074342D02*
X164493214Y-130264819D01*
X165445595Y-131264819D02*
X164969405Y-131264819D01*
X164969405Y-131264819D02*
X164969405Y-130264819D01*
X165636072Y-130264819D02*
X166207500Y-130264819D01*
X165921786Y-131264819D02*
X165921786Y-130264819D01*
X122388333Y-95614080D02*
X122340714Y-95661700D01*
X122340714Y-95661700D02*
X122197857Y-95709319D01*
X122197857Y-95709319D02*
X122102619Y-95709319D01*
X122102619Y-95709319D02*
X121959762Y-95661700D01*
X121959762Y-95661700D02*
X121864524Y-95566461D01*
X121864524Y-95566461D02*
X121816905Y-95471223D01*
X121816905Y-95471223D02*
X121769286Y-95280747D01*
X121769286Y-95280747D02*
X121769286Y-95137890D01*
X121769286Y-95137890D02*
X121816905Y-94947414D01*
X121816905Y-94947414D02*
X121864524Y-94852176D01*
X121864524Y-94852176D02*
X121959762Y-94756938D01*
X121959762Y-94756938D02*
X122102619Y-94709319D01*
X122102619Y-94709319D02*
X122197857Y-94709319D01*
X122197857Y-94709319D02*
X122340714Y-94756938D01*
X122340714Y-94756938D02*
X122388333Y-94804557D01*
X122769286Y-94804557D02*
X122816905Y-94756938D01*
X122816905Y-94756938D02*
X122912143Y-94709319D01*
X122912143Y-94709319D02*
X123150238Y-94709319D01*
X123150238Y-94709319D02*
X123245476Y-94756938D01*
X123245476Y-94756938D02*
X123293095Y-94804557D01*
X123293095Y-94804557D02*
X123340714Y-94899795D01*
X123340714Y-94899795D02*
X123340714Y-94995033D01*
X123340714Y-94995033D02*
X123293095Y-95137890D01*
X123293095Y-95137890D02*
X122721667Y-95709319D01*
X122721667Y-95709319D02*
X123340714Y-95709319D01*
X118580819Y-98670856D02*
X118580819Y-98575618D01*
X118580819Y-98575618D02*
X118628438Y-98480380D01*
X118628438Y-98480380D02*
X118676057Y-98432761D01*
X118676057Y-98432761D02*
X118771295Y-98385142D01*
X118771295Y-98385142D02*
X118961771Y-98337523D01*
X118961771Y-98337523D02*
X119199866Y-98337523D01*
X119199866Y-98337523D02*
X119390342Y-98385142D01*
X119390342Y-98385142D02*
X119485580Y-98432761D01*
X119485580Y-98432761D02*
X119533200Y-98480380D01*
X119533200Y-98480380D02*
X119580819Y-98575618D01*
X119580819Y-98575618D02*
X119580819Y-98670856D01*
X119580819Y-98670856D02*
X119533200Y-98766094D01*
X119533200Y-98766094D02*
X119485580Y-98813713D01*
X119485580Y-98813713D02*
X119390342Y-98861332D01*
X119390342Y-98861332D02*
X119199866Y-98908951D01*
X119199866Y-98908951D02*
X118961771Y-98908951D01*
X118961771Y-98908951D02*
X118771295Y-98861332D01*
X118771295Y-98861332D02*
X118676057Y-98813713D01*
X118676057Y-98813713D02*
X118628438Y-98766094D01*
X118628438Y-98766094D02*
X118580819Y-98670856D01*
X119485580Y-97908951D02*
X119533200Y-97861332D01*
X119533200Y-97861332D02*
X119580819Y-97908951D01*
X119580819Y-97908951D02*
X119533200Y-97956570D01*
X119533200Y-97956570D02*
X119485580Y-97908951D01*
X119485580Y-97908951D02*
X119580819Y-97908951D01*
X119580819Y-96908952D02*
X119580819Y-97480380D01*
X119580819Y-97194666D02*
X118580819Y-97194666D01*
X118580819Y-97194666D02*
X118723676Y-97289904D01*
X118723676Y-97289904D02*
X118818914Y-97385142D01*
X118818914Y-97385142D02*
X118866533Y-97480380D01*
X118914152Y-96480380D02*
X119580819Y-96480380D01*
X119009390Y-96480380D02*
X118961771Y-96432761D01*
X118961771Y-96432761D02*
X118914152Y-96337523D01*
X118914152Y-96337523D02*
X118914152Y-96194666D01*
X118914152Y-96194666D02*
X118961771Y-96099428D01*
X118961771Y-96099428D02*
X119057009Y-96051809D01*
X119057009Y-96051809D02*
X119580819Y-96051809D01*
X119057009Y-95242285D02*
X119057009Y-95575618D01*
X119580819Y-95575618D02*
X118580819Y-95575618D01*
X118580819Y-95575618D02*
X118580819Y-95099428D01*
X121397143Y-104442200D02*
X121540000Y-104489819D01*
X121540000Y-104489819D02*
X121778095Y-104489819D01*
X121778095Y-104489819D02*
X121873333Y-104442200D01*
X121873333Y-104442200D02*
X121920952Y-104394580D01*
X121920952Y-104394580D02*
X121968571Y-104299342D01*
X121968571Y-104299342D02*
X121968571Y-104204104D01*
X121968571Y-104204104D02*
X121920952Y-104108866D01*
X121920952Y-104108866D02*
X121873333Y-104061247D01*
X121873333Y-104061247D02*
X121778095Y-104013628D01*
X121778095Y-104013628D02*
X121587619Y-103966009D01*
X121587619Y-103966009D02*
X121492381Y-103918390D01*
X121492381Y-103918390D02*
X121444762Y-103870771D01*
X121444762Y-103870771D02*
X121397143Y-103775533D01*
X121397143Y-103775533D02*
X121397143Y-103680295D01*
X121397143Y-103680295D02*
X121444762Y-103585057D01*
X121444762Y-103585057D02*
X121492381Y-103537438D01*
X121492381Y-103537438D02*
X121587619Y-103489819D01*
X121587619Y-103489819D02*
X121825714Y-103489819D01*
X121825714Y-103489819D02*
X121968571Y-103537438D01*
X122682857Y-103489819D02*
X122682857Y-104204104D01*
X122682857Y-104204104D02*
X122635238Y-104346961D01*
X122635238Y-104346961D02*
X122540000Y-104442200D01*
X122540000Y-104442200D02*
X122397143Y-104489819D01*
X122397143Y-104489819D02*
X122301905Y-104489819D01*
X123682857Y-104489819D02*
X123111429Y-104489819D01*
X123397143Y-104489819D02*
X123397143Y-103489819D01*
X123397143Y-103489819D02*
X123301905Y-103632676D01*
X123301905Y-103632676D02*
X123206667Y-103727914D01*
X123206667Y-103727914D02*
X123111429Y-103775533D01*
X154902819Y-77775237D02*
X154902819Y-77203809D01*
X155902819Y-77489523D02*
X154902819Y-77489523D01*
X155379009Y-76870475D02*
X155379009Y-76537142D01*
X155902819Y-76394285D02*
X155902819Y-76870475D01*
X155902819Y-76870475D02*
X154902819Y-76870475D01*
X154902819Y-76870475D02*
X154902819Y-76394285D01*
X155855200Y-76013332D02*
X155902819Y-75870475D01*
X155902819Y-75870475D02*
X155902819Y-75632380D01*
X155902819Y-75632380D02*
X155855200Y-75537142D01*
X155855200Y-75537142D02*
X155807580Y-75489523D01*
X155807580Y-75489523D02*
X155712342Y-75441904D01*
X155712342Y-75441904D02*
X155617104Y-75441904D01*
X155617104Y-75441904D02*
X155521866Y-75489523D01*
X155521866Y-75489523D02*
X155474247Y-75537142D01*
X155474247Y-75537142D02*
X155426628Y-75632380D01*
X155426628Y-75632380D02*
X155379009Y-75822856D01*
X155379009Y-75822856D02*
X155331390Y-75918094D01*
X155331390Y-75918094D02*
X155283771Y-75965713D01*
X155283771Y-75965713D02*
X155188533Y-76013332D01*
X155188533Y-76013332D02*
X155093295Y-76013332D01*
X155093295Y-76013332D02*
X154998057Y-75965713D01*
X154998057Y-75965713D02*
X154950438Y-75918094D01*
X154950438Y-75918094D02*
X154902819Y-75822856D01*
X154902819Y-75822856D02*
X154902819Y-75584761D01*
X154902819Y-75584761D02*
X154950438Y-75441904D01*
X154902819Y-75156189D02*
X154902819Y-74584761D01*
X155902819Y-74870475D02*
X154902819Y-74870475D01*
X163750666Y-110960819D02*
X163750666Y-111675104D01*
X163750666Y-111675104D02*
X163703047Y-111817961D01*
X163703047Y-111817961D02*
X163607809Y-111913200D01*
X163607809Y-111913200D02*
X163464952Y-111960819D01*
X163464952Y-111960819D02*
X163369714Y-111960819D01*
X164179238Y-111056057D02*
X164226857Y-111008438D01*
X164226857Y-111008438D02*
X164322095Y-110960819D01*
X164322095Y-110960819D02*
X164560190Y-110960819D01*
X164560190Y-110960819D02*
X164655428Y-111008438D01*
X164655428Y-111008438D02*
X164703047Y-111056057D01*
X164703047Y-111056057D02*
X164750666Y-111151295D01*
X164750666Y-111151295D02*
X164750666Y-111246533D01*
X164750666Y-111246533D02*
X164703047Y-111389390D01*
X164703047Y-111389390D02*
X164131619Y-111960819D01*
X164131619Y-111960819D02*
X164750666Y-111960819D01*
X158046009Y-114950476D02*
X158046009Y-115283809D01*
X158569819Y-115283809D02*
X157569819Y-115283809D01*
X157569819Y-115283809D02*
X157569819Y-114807619D01*
X158046009Y-114426666D02*
X158046009Y-114093333D01*
X158569819Y-113950476D02*
X158569819Y-114426666D01*
X158569819Y-114426666D02*
X157569819Y-114426666D01*
X157569819Y-114426666D02*
X157569819Y-113950476D01*
X158046009Y-113521904D02*
X158046009Y-113188571D01*
X158569819Y-113045714D02*
X158569819Y-113521904D01*
X158569819Y-113521904D02*
X157569819Y-113521904D01*
X157569819Y-113521904D02*
X157569819Y-113045714D01*
X158569819Y-112617142D02*
X157569819Y-112617142D01*
X157569819Y-112617142D02*
X157569819Y-112379047D01*
X157569819Y-112379047D02*
X157617438Y-112236190D01*
X157617438Y-112236190D02*
X157712676Y-112140952D01*
X157712676Y-112140952D02*
X157807914Y-112093333D01*
X157807914Y-112093333D02*
X157998390Y-112045714D01*
X157998390Y-112045714D02*
X158141247Y-112045714D01*
X158141247Y-112045714D02*
X158331723Y-112093333D01*
X158331723Y-112093333D02*
X158426961Y-112140952D01*
X158426961Y-112140952D02*
X158522200Y-112236190D01*
X158522200Y-112236190D02*
X158569819Y-112379047D01*
X158569819Y-112379047D02*
X158569819Y-112617142D01*
X158046009Y-111283809D02*
X158093628Y-111140952D01*
X158093628Y-111140952D02*
X158141247Y-111093333D01*
X158141247Y-111093333D02*
X158236485Y-111045714D01*
X158236485Y-111045714D02*
X158379342Y-111045714D01*
X158379342Y-111045714D02*
X158474580Y-111093333D01*
X158474580Y-111093333D02*
X158522200Y-111140952D01*
X158522200Y-111140952D02*
X158569819Y-111236190D01*
X158569819Y-111236190D02*
X158569819Y-111617142D01*
X158569819Y-111617142D02*
X157569819Y-111617142D01*
X157569819Y-111617142D02*
X157569819Y-111283809D01*
X157569819Y-111283809D02*
X157617438Y-111188571D01*
X157617438Y-111188571D02*
X157665057Y-111140952D01*
X157665057Y-111140952D02*
X157760295Y-111093333D01*
X157760295Y-111093333D02*
X157855533Y-111093333D01*
X157855533Y-111093333D02*
X157950771Y-111140952D01*
X157950771Y-111140952D02*
X157998390Y-111188571D01*
X157998390Y-111188571D02*
X158046009Y-111283809D01*
X158046009Y-111283809D02*
X158046009Y-111617142D01*
X158284104Y-110664761D02*
X158284104Y-110188571D01*
X158569819Y-110759999D02*
X157569819Y-110426666D01*
X157569819Y-110426666D02*
X158569819Y-110093333D01*
X158474580Y-109188571D02*
X158522200Y-109236190D01*
X158522200Y-109236190D02*
X158569819Y-109379047D01*
X158569819Y-109379047D02*
X158569819Y-109474285D01*
X158569819Y-109474285D02*
X158522200Y-109617142D01*
X158522200Y-109617142D02*
X158426961Y-109712380D01*
X158426961Y-109712380D02*
X158331723Y-109759999D01*
X158331723Y-109759999D02*
X158141247Y-109807618D01*
X158141247Y-109807618D02*
X157998390Y-109807618D01*
X157998390Y-109807618D02*
X157807914Y-109759999D01*
X157807914Y-109759999D02*
X157712676Y-109712380D01*
X157712676Y-109712380D02*
X157617438Y-109617142D01*
X157617438Y-109617142D02*
X157569819Y-109474285D01*
X157569819Y-109474285D02*
X157569819Y-109379047D01*
X157569819Y-109379047D02*
X157617438Y-109236190D01*
X157617438Y-109236190D02*
X157665057Y-109188571D01*
X158569819Y-108759999D02*
X157569819Y-108759999D01*
X158569819Y-108188571D02*
X157998390Y-108617142D01*
X157569819Y-108188571D02*
X158141247Y-108759999D01*
X130048095Y-59398819D02*
X130048095Y-60208342D01*
X130048095Y-60208342D02*
X130095714Y-60303580D01*
X130095714Y-60303580D02*
X130143333Y-60351200D01*
X130143333Y-60351200D02*
X130238571Y-60398819D01*
X130238571Y-60398819D02*
X130429047Y-60398819D01*
X130429047Y-60398819D02*
X130524285Y-60351200D01*
X130524285Y-60351200D02*
X130571904Y-60303580D01*
X130571904Y-60303580D02*
X130619523Y-60208342D01*
X130619523Y-60208342D02*
X130619523Y-59398819D01*
X131000476Y-59398819D02*
X131667142Y-59398819D01*
X131667142Y-59398819D02*
X131238571Y-60398819D01*
X128738333Y-107094580D02*
X128690714Y-107142200D01*
X128690714Y-107142200D02*
X128547857Y-107189819D01*
X128547857Y-107189819D02*
X128452619Y-107189819D01*
X128452619Y-107189819D02*
X128309762Y-107142200D01*
X128309762Y-107142200D02*
X128214524Y-107046961D01*
X128214524Y-107046961D02*
X128166905Y-106951723D01*
X128166905Y-106951723D02*
X128119286Y-106761247D01*
X128119286Y-106761247D02*
X128119286Y-106618390D01*
X128119286Y-106618390D02*
X128166905Y-106427914D01*
X128166905Y-106427914D02*
X128214524Y-106332676D01*
X128214524Y-106332676D02*
X128309762Y-106237438D01*
X128309762Y-106237438D02*
X128452619Y-106189819D01*
X128452619Y-106189819D02*
X128547857Y-106189819D01*
X128547857Y-106189819D02*
X128690714Y-106237438D01*
X128690714Y-106237438D02*
X128738333Y-106285057D01*
X129690714Y-107189819D02*
X129119286Y-107189819D01*
X129405000Y-107189819D02*
X129405000Y-106189819D01*
X129405000Y-106189819D02*
X129309762Y-106332676D01*
X129309762Y-106332676D02*
X129214524Y-106427914D01*
X129214524Y-106427914D02*
X129119286Y-106475533D01*
X127262143Y-109889819D02*
X127357381Y-109889819D01*
X127357381Y-109889819D02*
X127452619Y-109937438D01*
X127452619Y-109937438D02*
X127500238Y-109985057D01*
X127500238Y-109985057D02*
X127547857Y-110080295D01*
X127547857Y-110080295D02*
X127595476Y-110270771D01*
X127595476Y-110270771D02*
X127595476Y-110508866D01*
X127595476Y-110508866D02*
X127547857Y-110699342D01*
X127547857Y-110699342D02*
X127500238Y-110794580D01*
X127500238Y-110794580D02*
X127452619Y-110842200D01*
X127452619Y-110842200D02*
X127357381Y-110889819D01*
X127357381Y-110889819D02*
X127262143Y-110889819D01*
X127262143Y-110889819D02*
X127166905Y-110842200D01*
X127166905Y-110842200D02*
X127119286Y-110794580D01*
X127119286Y-110794580D02*
X127071667Y-110699342D01*
X127071667Y-110699342D02*
X127024048Y-110508866D01*
X127024048Y-110508866D02*
X127024048Y-110270771D01*
X127024048Y-110270771D02*
X127071667Y-110080295D01*
X127071667Y-110080295D02*
X127119286Y-109985057D01*
X127119286Y-109985057D02*
X127166905Y-109937438D01*
X127166905Y-109937438D02*
X127262143Y-109889819D01*
X128024048Y-110794580D02*
X128071667Y-110842200D01*
X128071667Y-110842200D02*
X128024048Y-110889819D01*
X128024048Y-110889819D02*
X127976429Y-110842200D01*
X127976429Y-110842200D02*
X128024048Y-110794580D01*
X128024048Y-110794580D02*
X128024048Y-110889819D01*
X129024047Y-110889819D02*
X128452619Y-110889819D01*
X128738333Y-110889819D02*
X128738333Y-109889819D01*
X128738333Y-109889819D02*
X128643095Y-110032676D01*
X128643095Y-110032676D02*
X128547857Y-110127914D01*
X128547857Y-110127914D02*
X128452619Y-110175533D01*
X129452619Y-110223152D02*
X129452619Y-110889819D01*
X129452619Y-110318390D02*
X129500238Y-110270771D01*
X129500238Y-110270771D02*
X129595476Y-110223152D01*
X129595476Y-110223152D02*
X129738333Y-110223152D01*
X129738333Y-110223152D02*
X129833571Y-110270771D01*
X129833571Y-110270771D02*
X129881190Y-110366009D01*
X129881190Y-110366009D02*
X129881190Y-110889819D01*
X130690714Y-110366009D02*
X130357381Y-110366009D01*
X130357381Y-110889819D02*
X130357381Y-109889819D01*
X130357381Y-109889819D02*
X130833571Y-109889819D01*
X127468333Y-104594819D02*
X127135000Y-104118628D01*
X126896905Y-104594819D02*
X126896905Y-103594819D01*
X126896905Y-103594819D02*
X127277857Y-103594819D01*
X127277857Y-103594819D02*
X127373095Y-103642438D01*
X127373095Y-103642438D02*
X127420714Y-103690057D01*
X127420714Y-103690057D02*
X127468333Y-103785295D01*
X127468333Y-103785295D02*
X127468333Y-103928152D01*
X127468333Y-103928152D02*
X127420714Y-104023390D01*
X127420714Y-104023390D02*
X127373095Y-104071009D01*
X127373095Y-104071009D02*
X127277857Y-104118628D01*
X127277857Y-104118628D02*
X126896905Y-104118628D01*
X127849286Y-103690057D02*
X127896905Y-103642438D01*
X127896905Y-103642438D02*
X127992143Y-103594819D01*
X127992143Y-103594819D02*
X128230238Y-103594819D01*
X128230238Y-103594819D02*
X128325476Y-103642438D01*
X128325476Y-103642438D02*
X128373095Y-103690057D01*
X128373095Y-103690057D02*
X128420714Y-103785295D01*
X128420714Y-103785295D02*
X128420714Y-103880533D01*
X128420714Y-103880533D02*
X128373095Y-104023390D01*
X128373095Y-104023390D02*
X127801667Y-104594819D01*
X127801667Y-104594819D02*
X128420714Y-104594819D01*
X150314819Y-59348666D02*
X149838628Y-59681999D01*
X150314819Y-59920094D02*
X149314819Y-59920094D01*
X149314819Y-59920094D02*
X149314819Y-59539142D01*
X149314819Y-59539142D02*
X149362438Y-59443904D01*
X149362438Y-59443904D02*
X149410057Y-59396285D01*
X149410057Y-59396285D02*
X149505295Y-59348666D01*
X149505295Y-59348666D02*
X149648152Y-59348666D01*
X149648152Y-59348666D02*
X149743390Y-59396285D01*
X149743390Y-59396285D02*
X149791009Y-59443904D01*
X149791009Y-59443904D02*
X149838628Y-59539142D01*
X149838628Y-59539142D02*
X149838628Y-59920094D01*
X149743390Y-58777237D02*
X149695771Y-58872475D01*
X149695771Y-58872475D02*
X149648152Y-58920094D01*
X149648152Y-58920094D02*
X149552914Y-58967713D01*
X149552914Y-58967713D02*
X149505295Y-58967713D01*
X149505295Y-58967713D02*
X149410057Y-58920094D01*
X149410057Y-58920094D02*
X149362438Y-58872475D01*
X149362438Y-58872475D02*
X149314819Y-58777237D01*
X149314819Y-58777237D02*
X149314819Y-58586761D01*
X149314819Y-58586761D02*
X149362438Y-58491523D01*
X149362438Y-58491523D02*
X149410057Y-58443904D01*
X149410057Y-58443904D02*
X149505295Y-58396285D01*
X149505295Y-58396285D02*
X149552914Y-58396285D01*
X149552914Y-58396285D02*
X149648152Y-58443904D01*
X149648152Y-58443904D02*
X149695771Y-58491523D01*
X149695771Y-58491523D02*
X149743390Y-58586761D01*
X149743390Y-58586761D02*
X149743390Y-58777237D01*
X149743390Y-58777237D02*
X149791009Y-58872475D01*
X149791009Y-58872475D02*
X149838628Y-58920094D01*
X149838628Y-58920094D02*
X149933866Y-58967713D01*
X149933866Y-58967713D02*
X150124342Y-58967713D01*
X150124342Y-58967713D02*
X150219580Y-58920094D01*
X150219580Y-58920094D02*
X150267200Y-58872475D01*
X150267200Y-58872475D02*
X150314819Y-58777237D01*
X150314819Y-58777237D02*
X150314819Y-58586761D01*
X150314819Y-58586761D02*
X150267200Y-58491523D01*
X150267200Y-58491523D02*
X150219580Y-58443904D01*
X150219580Y-58443904D02*
X150124342Y-58396285D01*
X150124342Y-58396285D02*
X149933866Y-58396285D01*
X149933866Y-58396285D02*
X149838628Y-58443904D01*
X149838628Y-58443904D02*
X149791009Y-58491523D01*
X149791009Y-58491523D02*
X149743390Y-58586761D01*
X146351714Y-56604819D02*
X145875524Y-56604819D01*
X145875524Y-56604819D02*
X145827905Y-57081009D01*
X145827905Y-57081009D02*
X145875524Y-57033390D01*
X145875524Y-57033390D02*
X145970762Y-56985771D01*
X145970762Y-56985771D02*
X146208857Y-56985771D01*
X146208857Y-56985771D02*
X146304095Y-57033390D01*
X146304095Y-57033390D02*
X146351714Y-57081009D01*
X146351714Y-57081009D02*
X146399333Y-57176247D01*
X146399333Y-57176247D02*
X146399333Y-57414342D01*
X146399333Y-57414342D02*
X146351714Y-57509580D01*
X146351714Y-57509580D02*
X146304095Y-57557200D01*
X146304095Y-57557200D02*
X146208857Y-57604819D01*
X146208857Y-57604819D02*
X145970762Y-57604819D01*
X145970762Y-57604819D02*
X145875524Y-57557200D01*
X145875524Y-57557200D02*
X145827905Y-57509580D01*
X147018381Y-56604819D02*
X147113619Y-56604819D01*
X147113619Y-56604819D02*
X147208857Y-56652438D01*
X147208857Y-56652438D02*
X147256476Y-56700057D01*
X147256476Y-56700057D02*
X147304095Y-56795295D01*
X147304095Y-56795295D02*
X147351714Y-56985771D01*
X147351714Y-56985771D02*
X147351714Y-57223866D01*
X147351714Y-57223866D02*
X147304095Y-57414342D01*
X147304095Y-57414342D02*
X147256476Y-57509580D01*
X147256476Y-57509580D02*
X147208857Y-57557200D01*
X147208857Y-57557200D02*
X147113619Y-57604819D01*
X147113619Y-57604819D02*
X147018381Y-57604819D01*
X147018381Y-57604819D02*
X146923143Y-57557200D01*
X146923143Y-57557200D02*
X146875524Y-57509580D01*
X146875524Y-57509580D02*
X146827905Y-57414342D01*
X146827905Y-57414342D02*
X146780286Y-57223866D01*
X146780286Y-57223866D02*
X146780286Y-56985771D01*
X146780286Y-56985771D02*
X146827905Y-56795295D01*
X146827905Y-56795295D02*
X146875524Y-56700057D01*
X146875524Y-56700057D02*
X146923143Y-56652438D01*
X146923143Y-56652438D02*
X147018381Y-56604819D01*
X147970762Y-56604819D02*
X148066000Y-56604819D01*
X148066000Y-56604819D02*
X148161238Y-56652438D01*
X148161238Y-56652438D02*
X148208857Y-56700057D01*
X148208857Y-56700057D02*
X148256476Y-56795295D01*
X148256476Y-56795295D02*
X148304095Y-56985771D01*
X148304095Y-56985771D02*
X148304095Y-57223866D01*
X148304095Y-57223866D02*
X148256476Y-57414342D01*
X148256476Y-57414342D02*
X148208857Y-57509580D01*
X148208857Y-57509580D02*
X148161238Y-57557200D01*
X148161238Y-57557200D02*
X148066000Y-57604819D01*
X148066000Y-57604819D02*
X147970762Y-57604819D01*
X147970762Y-57604819D02*
X147875524Y-57557200D01*
X147875524Y-57557200D02*
X147827905Y-57509580D01*
X147827905Y-57509580D02*
X147780286Y-57414342D01*
X147780286Y-57414342D02*
X147732667Y-57223866D01*
X147732667Y-57223866D02*
X147732667Y-56985771D01*
X147732667Y-56985771D02*
X147780286Y-56795295D01*
X147780286Y-56795295D02*
X147827905Y-56700057D01*
X147827905Y-56700057D02*
X147875524Y-56652438D01*
X147875524Y-56652438D02*
X147970762Y-56604819D01*
X128778095Y-123914819D02*
X128778095Y-124724342D01*
X128778095Y-124724342D02*
X128825714Y-124819580D01*
X128825714Y-124819580D02*
X128873333Y-124867200D01*
X128873333Y-124867200D02*
X128968571Y-124914819D01*
X128968571Y-124914819D02*
X129159047Y-124914819D01*
X129159047Y-124914819D02*
X129254285Y-124867200D01*
X129254285Y-124867200D02*
X129301904Y-124819580D01*
X129301904Y-124819580D02*
X129349523Y-124724342D01*
X129349523Y-124724342D02*
X129349523Y-123914819D01*
X130254285Y-124248152D02*
X130254285Y-124914819D01*
X130016190Y-123867200D02*
X129778095Y-124581485D01*
X129778095Y-124581485D02*
X130397142Y-124581485D01*
X123371009Y-127800714D02*
X123418628Y-127657857D01*
X123418628Y-127657857D02*
X123466247Y-127610238D01*
X123466247Y-127610238D02*
X123561485Y-127562619D01*
X123561485Y-127562619D02*
X123704342Y-127562619D01*
X123704342Y-127562619D02*
X123799580Y-127610238D01*
X123799580Y-127610238D02*
X123847200Y-127657857D01*
X123847200Y-127657857D02*
X123894819Y-127753095D01*
X123894819Y-127753095D02*
X123894819Y-128134047D01*
X123894819Y-128134047D02*
X122894819Y-128134047D01*
X122894819Y-128134047D02*
X122894819Y-127800714D01*
X122894819Y-127800714D02*
X122942438Y-127705476D01*
X122942438Y-127705476D02*
X122990057Y-127657857D01*
X122990057Y-127657857D02*
X123085295Y-127610238D01*
X123085295Y-127610238D02*
X123180533Y-127610238D01*
X123180533Y-127610238D02*
X123275771Y-127657857D01*
X123275771Y-127657857D02*
X123323390Y-127705476D01*
X123323390Y-127705476D02*
X123371009Y-127800714D01*
X123371009Y-127800714D02*
X123371009Y-128134047D01*
X123894819Y-127134047D02*
X122894819Y-127134047D01*
X122894819Y-127134047D02*
X123609104Y-126800714D01*
X123609104Y-126800714D02*
X122894819Y-126467381D01*
X122894819Y-126467381D02*
X123894819Y-126467381D01*
X123894819Y-125991190D02*
X122894819Y-125991190D01*
X122894819Y-125991190D02*
X122894819Y-125610238D01*
X122894819Y-125610238D02*
X122942438Y-125515000D01*
X122942438Y-125515000D02*
X122990057Y-125467381D01*
X122990057Y-125467381D02*
X123085295Y-125419762D01*
X123085295Y-125419762D02*
X123228152Y-125419762D01*
X123228152Y-125419762D02*
X123323390Y-125467381D01*
X123323390Y-125467381D02*
X123371009Y-125515000D01*
X123371009Y-125515000D02*
X123418628Y-125610238D01*
X123418628Y-125610238D02*
X123418628Y-125991190D01*
X122990057Y-125038809D02*
X122942438Y-124991190D01*
X122942438Y-124991190D02*
X122894819Y-124895952D01*
X122894819Y-124895952D02*
X122894819Y-124657857D01*
X122894819Y-124657857D02*
X122942438Y-124562619D01*
X122942438Y-124562619D02*
X122990057Y-124515000D01*
X122990057Y-124515000D02*
X123085295Y-124467381D01*
X123085295Y-124467381D02*
X123180533Y-124467381D01*
X123180533Y-124467381D02*
X123323390Y-124515000D01*
X123323390Y-124515000D02*
X123894819Y-125086428D01*
X123894819Y-125086428D02*
X123894819Y-124467381D01*
X123323390Y-123895952D02*
X123275771Y-123991190D01*
X123275771Y-123991190D02*
X123228152Y-124038809D01*
X123228152Y-124038809D02*
X123132914Y-124086428D01*
X123132914Y-124086428D02*
X123085295Y-124086428D01*
X123085295Y-124086428D02*
X122990057Y-124038809D01*
X122990057Y-124038809D02*
X122942438Y-123991190D01*
X122942438Y-123991190D02*
X122894819Y-123895952D01*
X122894819Y-123895952D02*
X122894819Y-123705476D01*
X122894819Y-123705476D02*
X122942438Y-123610238D01*
X122942438Y-123610238D02*
X122990057Y-123562619D01*
X122990057Y-123562619D02*
X123085295Y-123515000D01*
X123085295Y-123515000D02*
X123132914Y-123515000D01*
X123132914Y-123515000D02*
X123228152Y-123562619D01*
X123228152Y-123562619D02*
X123275771Y-123610238D01*
X123275771Y-123610238D02*
X123323390Y-123705476D01*
X123323390Y-123705476D02*
X123323390Y-123895952D01*
X123323390Y-123895952D02*
X123371009Y-123991190D01*
X123371009Y-123991190D02*
X123418628Y-124038809D01*
X123418628Y-124038809D02*
X123513866Y-124086428D01*
X123513866Y-124086428D02*
X123704342Y-124086428D01*
X123704342Y-124086428D02*
X123799580Y-124038809D01*
X123799580Y-124038809D02*
X123847200Y-123991190D01*
X123847200Y-123991190D02*
X123894819Y-123895952D01*
X123894819Y-123895952D02*
X123894819Y-123705476D01*
X123894819Y-123705476D02*
X123847200Y-123610238D01*
X123847200Y-123610238D02*
X123799580Y-123562619D01*
X123799580Y-123562619D02*
X123704342Y-123515000D01*
X123704342Y-123515000D02*
X123513866Y-123515000D01*
X123513866Y-123515000D02*
X123418628Y-123562619D01*
X123418628Y-123562619D02*
X123371009Y-123610238D01*
X123371009Y-123610238D02*
X123323390Y-123705476D01*
X122894819Y-122895952D02*
X122894819Y-122800714D01*
X122894819Y-122800714D02*
X122942438Y-122705476D01*
X122942438Y-122705476D02*
X122990057Y-122657857D01*
X122990057Y-122657857D02*
X123085295Y-122610238D01*
X123085295Y-122610238D02*
X123275771Y-122562619D01*
X123275771Y-122562619D02*
X123513866Y-122562619D01*
X123513866Y-122562619D02*
X123704342Y-122610238D01*
X123704342Y-122610238D02*
X123799580Y-122657857D01*
X123799580Y-122657857D02*
X123847200Y-122705476D01*
X123847200Y-122705476D02*
X123894819Y-122800714D01*
X123894819Y-122800714D02*
X123894819Y-122895952D01*
X123894819Y-122895952D02*
X123847200Y-122991190D01*
X123847200Y-122991190D02*
X123799580Y-123038809D01*
X123799580Y-123038809D02*
X123704342Y-123086428D01*
X123704342Y-123086428D02*
X123513866Y-123134047D01*
X123513866Y-123134047D02*
X123275771Y-123134047D01*
X123275771Y-123134047D02*
X123085295Y-123086428D01*
X123085295Y-123086428D02*
X122990057Y-123038809D01*
X122990057Y-123038809D02*
X122942438Y-122991190D01*
X122942438Y-122991190D02*
X122894819Y-122895952D01*
X123990057Y-122372143D02*
X123990057Y-121610238D01*
X122990057Y-121419761D02*
X122942438Y-121372142D01*
X122942438Y-121372142D02*
X122894819Y-121276904D01*
X122894819Y-121276904D02*
X122894819Y-121038809D01*
X122894819Y-121038809D02*
X122942438Y-120943571D01*
X122942438Y-120943571D02*
X122990057Y-120895952D01*
X122990057Y-120895952D02*
X123085295Y-120848333D01*
X123085295Y-120848333D02*
X123180533Y-120848333D01*
X123180533Y-120848333D02*
X123323390Y-120895952D01*
X123323390Y-120895952D02*
X123894819Y-121467380D01*
X123894819Y-121467380D02*
X123894819Y-120848333D01*
X156029819Y-87796666D02*
X155553628Y-88129999D01*
X156029819Y-88368094D02*
X155029819Y-88368094D01*
X155029819Y-88368094D02*
X155029819Y-87987142D01*
X155029819Y-87987142D02*
X155077438Y-87891904D01*
X155077438Y-87891904D02*
X155125057Y-87844285D01*
X155125057Y-87844285D02*
X155220295Y-87796666D01*
X155220295Y-87796666D02*
X155363152Y-87796666D01*
X155363152Y-87796666D02*
X155458390Y-87844285D01*
X155458390Y-87844285D02*
X155506009Y-87891904D01*
X155506009Y-87891904D02*
X155553628Y-87987142D01*
X155553628Y-87987142D02*
X155553628Y-88368094D01*
X155029819Y-86891904D02*
X155029819Y-87368094D01*
X155029819Y-87368094D02*
X155506009Y-87415713D01*
X155506009Y-87415713D02*
X155458390Y-87368094D01*
X155458390Y-87368094D02*
X155410771Y-87272856D01*
X155410771Y-87272856D02*
X155410771Y-87034761D01*
X155410771Y-87034761D02*
X155458390Y-86939523D01*
X155458390Y-86939523D02*
X155506009Y-86891904D01*
X155506009Y-86891904D02*
X155601247Y-86844285D01*
X155601247Y-86844285D02*
X155839342Y-86844285D01*
X155839342Y-86844285D02*
X155934580Y-86891904D01*
X155934580Y-86891904D02*
X155982200Y-86939523D01*
X155982200Y-86939523D02*
X156029819Y-87034761D01*
X156029819Y-87034761D02*
X156029819Y-87272856D01*
X156029819Y-87272856D02*
X155982200Y-87368094D01*
X155982200Y-87368094D02*
X155934580Y-87415713D01*
X137910219Y-59372476D02*
X137910219Y-59848666D01*
X137910219Y-59848666D02*
X138386409Y-59896285D01*
X138386409Y-59896285D02*
X138338790Y-59848666D01*
X138338790Y-59848666D02*
X138291171Y-59753428D01*
X138291171Y-59753428D02*
X138291171Y-59515333D01*
X138291171Y-59515333D02*
X138338790Y-59420095D01*
X138338790Y-59420095D02*
X138386409Y-59372476D01*
X138386409Y-59372476D02*
X138481647Y-59324857D01*
X138481647Y-59324857D02*
X138719742Y-59324857D01*
X138719742Y-59324857D02*
X138814980Y-59372476D01*
X138814980Y-59372476D02*
X138862600Y-59420095D01*
X138862600Y-59420095D02*
X138910219Y-59515333D01*
X138910219Y-59515333D02*
X138910219Y-59753428D01*
X138910219Y-59753428D02*
X138862600Y-59848666D01*
X138862600Y-59848666D02*
X138814980Y-59896285D01*
X137910219Y-59039142D02*
X138910219Y-58705809D01*
X138910219Y-58705809D02*
X137910219Y-58372476D01*
X156029819Y-56046666D02*
X155553628Y-56379999D01*
X156029819Y-56618094D02*
X155029819Y-56618094D01*
X155029819Y-56618094D02*
X155029819Y-56237142D01*
X155029819Y-56237142D02*
X155077438Y-56141904D01*
X155077438Y-56141904D02*
X155125057Y-56094285D01*
X155125057Y-56094285D02*
X155220295Y-56046666D01*
X155220295Y-56046666D02*
X155363152Y-56046666D01*
X155363152Y-56046666D02*
X155458390Y-56094285D01*
X155458390Y-56094285D02*
X155506009Y-56141904D01*
X155506009Y-56141904D02*
X155553628Y-56237142D01*
X155553628Y-56237142D02*
X155553628Y-56618094D01*
X155029819Y-55713332D02*
X155029819Y-55046666D01*
X155029819Y-55046666D02*
X156029819Y-55475237D01*
X159839819Y-56094285D02*
X159839819Y-56665713D01*
X159839819Y-56379999D02*
X158839819Y-56379999D01*
X158839819Y-56379999D02*
X158982676Y-56475237D01*
X158982676Y-56475237D02*
X159077914Y-56570475D01*
X159077914Y-56570475D02*
X159125533Y-56665713D01*
X159839819Y-55665713D02*
X158839819Y-55665713D01*
X159839819Y-55094285D02*
X159268390Y-55522856D01*
X158839819Y-55094285D02*
X159411247Y-55665713D01*
X139877580Y-128221166D02*
X139925200Y-128268785D01*
X139925200Y-128268785D02*
X139972819Y-128411642D01*
X139972819Y-128411642D02*
X139972819Y-128506880D01*
X139972819Y-128506880D02*
X139925200Y-128649737D01*
X139925200Y-128649737D02*
X139829961Y-128744975D01*
X139829961Y-128744975D02*
X139734723Y-128792594D01*
X139734723Y-128792594D02*
X139544247Y-128840213D01*
X139544247Y-128840213D02*
X139401390Y-128840213D01*
X139401390Y-128840213D02*
X139210914Y-128792594D01*
X139210914Y-128792594D02*
X139115676Y-128744975D01*
X139115676Y-128744975D02*
X139020438Y-128649737D01*
X139020438Y-128649737D02*
X138972819Y-128506880D01*
X138972819Y-128506880D02*
X138972819Y-128411642D01*
X138972819Y-128411642D02*
X139020438Y-128268785D01*
X139020438Y-128268785D02*
X139068057Y-128221166D01*
X138972819Y-127887832D02*
X138972819Y-127268785D01*
X138972819Y-127268785D02*
X139353771Y-127602118D01*
X139353771Y-127602118D02*
X139353771Y-127459261D01*
X139353771Y-127459261D02*
X139401390Y-127364023D01*
X139401390Y-127364023D02*
X139449009Y-127316404D01*
X139449009Y-127316404D02*
X139544247Y-127268785D01*
X139544247Y-127268785D02*
X139782342Y-127268785D01*
X139782342Y-127268785D02*
X139877580Y-127316404D01*
X139877580Y-127316404D02*
X139925200Y-127364023D01*
X139925200Y-127364023D02*
X139972819Y-127459261D01*
X139972819Y-127459261D02*
X139972819Y-127744975D01*
X139972819Y-127744975D02*
X139925200Y-127840213D01*
X139925200Y-127840213D02*
X139877580Y-127887832D01*
X127468333Y-95739319D02*
X127135000Y-95263128D01*
X126896905Y-95739319D02*
X126896905Y-94739319D01*
X126896905Y-94739319D02*
X127277857Y-94739319D01*
X127277857Y-94739319D02*
X127373095Y-94786938D01*
X127373095Y-94786938D02*
X127420714Y-94834557D01*
X127420714Y-94834557D02*
X127468333Y-94929795D01*
X127468333Y-94929795D02*
X127468333Y-95072652D01*
X127468333Y-95072652D02*
X127420714Y-95167890D01*
X127420714Y-95167890D02*
X127373095Y-95215509D01*
X127373095Y-95215509D02*
X127277857Y-95263128D01*
X127277857Y-95263128D02*
X126896905Y-95263128D01*
X127801667Y-94739319D02*
X128420714Y-94739319D01*
X128420714Y-94739319D02*
X128087381Y-95120271D01*
X128087381Y-95120271D02*
X128230238Y-95120271D01*
X128230238Y-95120271D02*
X128325476Y-95167890D01*
X128325476Y-95167890D02*
X128373095Y-95215509D01*
X128373095Y-95215509D02*
X128420714Y-95310747D01*
X128420714Y-95310747D02*
X128420714Y-95548842D01*
X128420714Y-95548842D02*
X128373095Y-95644080D01*
X128373095Y-95644080D02*
X128325476Y-95691700D01*
X128325476Y-95691700D02*
X128230238Y-95739319D01*
X128230238Y-95739319D02*
X127944524Y-95739319D01*
X127944524Y-95739319D02*
X127849286Y-95691700D01*
X127849286Y-95691700D02*
X127801667Y-95644080D01*
X156029819Y-82081666D02*
X155553628Y-82414999D01*
X156029819Y-82653094D02*
X155029819Y-82653094D01*
X155029819Y-82653094D02*
X155029819Y-82272142D01*
X155029819Y-82272142D02*
X155077438Y-82176904D01*
X155077438Y-82176904D02*
X155125057Y-82129285D01*
X155125057Y-82129285D02*
X155220295Y-82081666D01*
X155220295Y-82081666D02*
X155363152Y-82081666D01*
X155363152Y-82081666D02*
X155458390Y-82129285D01*
X155458390Y-82129285D02*
X155506009Y-82176904D01*
X155506009Y-82176904D02*
X155553628Y-82272142D01*
X155553628Y-82272142D02*
X155553628Y-82653094D01*
X155363152Y-81224523D02*
X156029819Y-81224523D01*
X154982200Y-81462618D02*
X155696485Y-81700713D01*
X155696485Y-81700713D02*
X155696485Y-81081666D01*
X175133095Y-105499819D02*
X175133095Y-106309342D01*
X175133095Y-106309342D02*
X175180714Y-106404580D01*
X175180714Y-106404580D02*
X175228333Y-106452200D01*
X175228333Y-106452200D02*
X175323571Y-106499819D01*
X175323571Y-106499819D02*
X175514047Y-106499819D01*
X175514047Y-106499819D02*
X175609285Y-106452200D01*
X175609285Y-106452200D02*
X175656904Y-106404580D01*
X175656904Y-106404580D02*
X175704523Y-106309342D01*
X175704523Y-106309342D02*
X175704523Y-105499819D01*
X176323571Y-105928390D02*
X176228333Y-105880771D01*
X176228333Y-105880771D02*
X176180714Y-105833152D01*
X176180714Y-105833152D02*
X176133095Y-105737914D01*
X176133095Y-105737914D02*
X176133095Y-105690295D01*
X176133095Y-105690295D02*
X176180714Y-105595057D01*
X176180714Y-105595057D02*
X176228333Y-105547438D01*
X176228333Y-105547438D02*
X176323571Y-105499819D01*
X176323571Y-105499819D02*
X176514047Y-105499819D01*
X176514047Y-105499819D02*
X176609285Y-105547438D01*
X176609285Y-105547438D02*
X176656904Y-105595057D01*
X176656904Y-105595057D02*
X176704523Y-105690295D01*
X176704523Y-105690295D02*
X176704523Y-105737914D01*
X176704523Y-105737914D02*
X176656904Y-105833152D01*
X176656904Y-105833152D02*
X176609285Y-105880771D01*
X176609285Y-105880771D02*
X176514047Y-105928390D01*
X176514047Y-105928390D02*
X176323571Y-105928390D01*
X176323571Y-105928390D02*
X176228333Y-105976009D01*
X176228333Y-105976009D02*
X176180714Y-106023628D01*
X176180714Y-106023628D02*
X176133095Y-106118866D01*
X176133095Y-106118866D02*
X176133095Y-106309342D01*
X176133095Y-106309342D02*
X176180714Y-106404580D01*
X176180714Y-106404580D02*
X176228333Y-106452200D01*
X176228333Y-106452200D02*
X176323571Y-106499819D01*
X176323571Y-106499819D02*
X176514047Y-106499819D01*
X176514047Y-106499819D02*
X176609285Y-106452200D01*
X176609285Y-106452200D02*
X176656904Y-106404580D01*
X176656904Y-106404580D02*
X176704523Y-106309342D01*
X176704523Y-106309342D02*
X176704523Y-106118866D01*
X176704523Y-106118866D02*
X176656904Y-106023628D01*
X176656904Y-106023628D02*
X176609285Y-105976009D01*
X176609285Y-105976009D02*
X176514047Y-105928390D01*
X169204523Y-113199104D02*
X169680713Y-113199104D01*
X169109285Y-113484819D02*
X169442618Y-112484819D01*
X169442618Y-112484819D02*
X169775951Y-113484819D01*
X170680713Y-113389580D02*
X170633094Y-113437200D01*
X170633094Y-113437200D02*
X170490237Y-113484819D01*
X170490237Y-113484819D02*
X170394999Y-113484819D01*
X170394999Y-113484819D02*
X170252142Y-113437200D01*
X170252142Y-113437200D02*
X170156904Y-113341961D01*
X170156904Y-113341961D02*
X170109285Y-113246723D01*
X170109285Y-113246723D02*
X170061666Y-113056247D01*
X170061666Y-113056247D02*
X170061666Y-112913390D01*
X170061666Y-112913390D02*
X170109285Y-112722914D01*
X170109285Y-112722914D02*
X170156904Y-112627676D01*
X170156904Y-112627676D02*
X170252142Y-112532438D01*
X170252142Y-112532438D02*
X170394999Y-112484819D01*
X170394999Y-112484819D02*
X170490237Y-112484819D01*
X170490237Y-112484819D02*
X170633094Y-112532438D01*
X170633094Y-112532438D02*
X170680713Y-112580057D01*
X170966428Y-112484819D02*
X171537856Y-112484819D01*
X171252142Y-113484819D02*
X171252142Y-112484819D01*
X171871190Y-112484819D02*
X171871190Y-113294342D01*
X171871190Y-113294342D02*
X171918809Y-113389580D01*
X171918809Y-113389580D02*
X171966428Y-113437200D01*
X171966428Y-113437200D02*
X172061666Y-113484819D01*
X172061666Y-113484819D02*
X172252142Y-113484819D01*
X172252142Y-113484819D02*
X172347380Y-113437200D01*
X172347380Y-113437200D02*
X172394999Y-113389580D01*
X172394999Y-113389580D02*
X172442618Y-113294342D01*
X172442618Y-113294342D02*
X172442618Y-112484819D01*
X172871190Y-113199104D02*
X173347380Y-113199104D01*
X172775952Y-113484819D02*
X173109285Y-112484819D01*
X173109285Y-112484819D02*
X173442618Y-113484819D01*
X173633095Y-112484819D02*
X174204523Y-112484819D01*
X173918809Y-113484819D02*
X173918809Y-112484819D01*
X174728333Y-112484819D02*
X174918809Y-112484819D01*
X174918809Y-112484819D02*
X175014047Y-112532438D01*
X175014047Y-112532438D02*
X175109285Y-112627676D01*
X175109285Y-112627676D02*
X175156904Y-112818152D01*
X175156904Y-112818152D02*
X175156904Y-113151485D01*
X175156904Y-113151485D02*
X175109285Y-113341961D01*
X175109285Y-113341961D02*
X175014047Y-113437200D01*
X175014047Y-113437200D02*
X174918809Y-113484819D01*
X174918809Y-113484819D02*
X174728333Y-113484819D01*
X174728333Y-113484819D02*
X174633095Y-113437200D01*
X174633095Y-113437200D02*
X174537857Y-113341961D01*
X174537857Y-113341961D02*
X174490238Y-113151485D01*
X174490238Y-113151485D02*
X174490238Y-112818152D01*
X174490238Y-112818152D02*
X174537857Y-112627676D01*
X174537857Y-112627676D02*
X174633095Y-112532438D01*
X174633095Y-112532438D02*
X174728333Y-112484819D01*
X176156904Y-113484819D02*
X175823571Y-113008628D01*
X175585476Y-113484819D02*
X175585476Y-112484819D01*
X175585476Y-112484819D02*
X175966428Y-112484819D01*
X175966428Y-112484819D02*
X176061666Y-112532438D01*
X176061666Y-112532438D02*
X176109285Y-112580057D01*
X176109285Y-112580057D02*
X176156904Y-112675295D01*
X176156904Y-112675295D02*
X176156904Y-112818152D01*
X176156904Y-112818152D02*
X176109285Y-112913390D01*
X176109285Y-112913390D02*
X176061666Y-112961009D01*
X176061666Y-112961009D02*
X175966428Y-113008628D01*
X175966428Y-113008628D02*
X175585476Y-113008628D01*
X177347381Y-113484819D02*
X177347381Y-112484819D01*
X177347381Y-112484819D02*
X177680714Y-113199104D01*
X177680714Y-113199104D02*
X178014047Y-112484819D01*
X178014047Y-112484819D02*
X178014047Y-113484819D01*
X178680714Y-112484819D02*
X178871190Y-112484819D01*
X178871190Y-112484819D02*
X178966428Y-112532438D01*
X178966428Y-112532438D02*
X179061666Y-112627676D01*
X179061666Y-112627676D02*
X179109285Y-112818152D01*
X179109285Y-112818152D02*
X179109285Y-113151485D01*
X179109285Y-113151485D02*
X179061666Y-113341961D01*
X179061666Y-113341961D02*
X178966428Y-113437200D01*
X178966428Y-113437200D02*
X178871190Y-113484819D01*
X178871190Y-113484819D02*
X178680714Y-113484819D01*
X178680714Y-113484819D02*
X178585476Y-113437200D01*
X178585476Y-113437200D02*
X178490238Y-113341961D01*
X178490238Y-113341961D02*
X178442619Y-113151485D01*
X178442619Y-113151485D02*
X178442619Y-112818152D01*
X178442619Y-112818152D02*
X178490238Y-112627676D01*
X178490238Y-112627676D02*
X178585476Y-112532438D01*
X178585476Y-112532438D02*
X178680714Y-112484819D01*
X179490238Y-113437200D02*
X179633095Y-113484819D01*
X179633095Y-113484819D02*
X179871190Y-113484819D01*
X179871190Y-113484819D02*
X179966428Y-113437200D01*
X179966428Y-113437200D02*
X180014047Y-113389580D01*
X180014047Y-113389580D02*
X180061666Y-113294342D01*
X180061666Y-113294342D02*
X180061666Y-113199104D01*
X180061666Y-113199104D02*
X180014047Y-113103866D01*
X180014047Y-113103866D02*
X179966428Y-113056247D01*
X179966428Y-113056247D02*
X179871190Y-113008628D01*
X179871190Y-113008628D02*
X179680714Y-112961009D01*
X179680714Y-112961009D02*
X179585476Y-112913390D01*
X179585476Y-112913390D02*
X179537857Y-112865771D01*
X179537857Y-112865771D02*
X179490238Y-112770533D01*
X179490238Y-112770533D02*
X179490238Y-112675295D01*
X179490238Y-112675295D02*
X179537857Y-112580057D01*
X179537857Y-112580057D02*
X179585476Y-112532438D01*
X179585476Y-112532438D02*
X179680714Y-112484819D01*
X179680714Y-112484819D02*
X179918809Y-112484819D01*
X179918809Y-112484819D02*
X180061666Y-112532438D01*
X180823571Y-112961009D02*
X180490238Y-112961009D01*
X180490238Y-113484819D02*
X180490238Y-112484819D01*
X180490238Y-112484819D02*
X180966428Y-112484819D01*
X181347381Y-112961009D02*
X181680714Y-112961009D01*
X181823571Y-113484819D02*
X181347381Y-113484819D01*
X181347381Y-113484819D02*
X181347381Y-112484819D01*
X181347381Y-112484819D02*
X181823571Y-112484819D01*
X182109286Y-112484819D02*
X182680714Y-112484819D01*
X182395000Y-113484819D02*
X182395000Y-112484819D01*
X122120819Y-106846666D02*
X121644628Y-107179999D01*
X122120819Y-107418094D02*
X121120819Y-107418094D01*
X121120819Y-107418094D02*
X121120819Y-107037142D01*
X121120819Y-107037142D02*
X121168438Y-106941904D01*
X121168438Y-106941904D02*
X121216057Y-106894285D01*
X121216057Y-106894285D02*
X121311295Y-106846666D01*
X121311295Y-106846666D02*
X121454152Y-106846666D01*
X121454152Y-106846666D02*
X121549390Y-106894285D01*
X121549390Y-106894285D02*
X121597009Y-106941904D01*
X121597009Y-106941904D02*
X121644628Y-107037142D01*
X121644628Y-107037142D02*
X121644628Y-107418094D01*
X122120819Y-106370475D02*
X122120819Y-106179999D01*
X122120819Y-106179999D02*
X122073200Y-106084761D01*
X122073200Y-106084761D02*
X122025580Y-106037142D01*
X122025580Y-106037142D02*
X121882723Y-105941904D01*
X121882723Y-105941904D02*
X121692247Y-105894285D01*
X121692247Y-105894285D02*
X121311295Y-105894285D01*
X121311295Y-105894285D02*
X121216057Y-105941904D01*
X121216057Y-105941904D02*
X121168438Y-105989523D01*
X121168438Y-105989523D02*
X121120819Y-106084761D01*
X121120819Y-106084761D02*
X121120819Y-106275237D01*
X121120819Y-106275237D02*
X121168438Y-106370475D01*
X121168438Y-106370475D02*
X121216057Y-106418094D01*
X121216057Y-106418094D02*
X121311295Y-106465713D01*
X121311295Y-106465713D02*
X121549390Y-106465713D01*
X121549390Y-106465713D02*
X121644628Y-106418094D01*
X121644628Y-106418094D02*
X121692247Y-106370475D01*
X121692247Y-106370475D02*
X121739866Y-106275237D01*
X121739866Y-106275237D02*
X121739866Y-106084761D01*
X121739866Y-106084761D02*
X121692247Y-105989523D01*
X121692247Y-105989523D02*
X121644628Y-105941904D01*
X121644628Y-105941904D02*
X121549390Y-105894285D01*
X118056819Y-107275238D02*
X118056819Y-107846666D01*
X118056819Y-107560952D02*
X117056819Y-107560952D01*
X117056819Y-107560952D02*
X117199676Y-107656190D01*
X117199676Y-107656190D02*
X117294914Y-107751428D01*
X117294914Y-107751428D02*
X117342533Y-107846666D01*
X117056819Y-106656190D02*
X117056819Y-106560952D01*
X117056819Y-106560952D02*
X117104438Y-106465714D01*
X117104438Y-106465714D02*
X117152057Y-106418095D01*
X117152057Y-106418095D02*
X117247295Y-106370476D01*
X117247295Y-106370476D02*
X117437771Y-106322857D01*
X117437771Y-106322857D02*
X117675866Y-106322857D01*
X117675866Y-106322857D02*
X117866342Y-106370476D01*
X117866342Y-106370476D02*
X117961580Y-106418095D01*
X117961580Y-106418095D02*
X118009200Y-106465714D01*
X118009200Y-106465714D02*
X118056819Y-106560952D01*
X118056819Y-106560952D02*
X118056819Y-106656190D01*
X118056819Y-106656190D02*
X118009200Y-106751428D01*
X118009200Y-106751428D02*
X117961580Y-106799047D01*
X117961580Y-106799047D02*
X117866342Y-106846666D01*
X117866342Y-106846666D02*
X117675866Y-106894285D01*
X117675866Y-106894285D02*
X117437771Y-106894285D01*
X117437771Y-106894285D02*
X117247295Y-106846666D01*
X117247295Y-106846666D02*
X117152057Y-106799047D01*
X117152057Y-106799047D02*
X117104438Y-106751428D01*
X117104438Y-106751428D02*
X117056819Y-106656190D01*
X118056819Y-105894285D02*
X117056819Y-105894285D01*
X117675866Y-105799047D02*
X118056819Y-105513333D01*
X117390152Y-105513333D02*
X117771104Y-105894285D01*
X154902819Y-94813237D02*
X154902819Y-94241809D01*
X155902819Y-94527523D02*
X154902819Y-94527523D01*
X155379009Y-93908475D02*
X155379009Y-93575142D01*
X155902819Y-93432285D02*
X155902819Y-93908475D01*
X155902819Y-93908475D02*
X154902819Y-93908475D01*
X154902819Y-93908475D02*
X154902819Y-93432285D01*
X155855200Y-93051332D02*
X155902819Y-92908475D01*
X155902819Y-92908475D02*
X155902819Y-92670380D01*
X155902819Y-92670380D02*
X155855200Y-92575142D01*
X155855200Y-92575142D02*
X155807580Y-92527523D01*
X155807580Y-92527523D02*
X155712342Y-92479904D01*
X155712342Y-92479904D02*
X155617104Y-92479904D01*
X155617104Y-92479904D02*
X155521866Y-92527523D01*
X155521866Y-92527523D02*
X155474247Y-92575142D01*
X155474247Y-92575142D02*
X155426628Y-92670380D01*
X155426628Y-92670380D02*
X155379009Y-92860856D01*
X155379009Y-92860856D02*
X155331390Y-92956094D01*
X155331390Y-92956094D02*
X155283771Y-93003713D01*
X155283771Y-93003713D02*
X155188533Y-93051332D01*
X155188533Y-93051332D02*
X155093295Y-93051332D01*
X155093295Y-93051332D02*
X154998057Y-93003713D01*
X154998057Y-93003713D02*
X154950438Y-92956094D01*
X154950438Y-92956094D02*
X154902819Y-92860856D01*
X154902819Y-92860856D02*
X154902819Y-92622761D01*
X154902819Y-92622761D02*
X154950438Y-92479904D01*
X154902819Y-92194189D02*
X154902819Y-91622761D01*
X155902819Y-91908475D02*
X154902819Y-91908475D01*
X150473580Y-62142666D02*
X150521200Y-62190285D01*
X150521200Y-62190285D02*
X150568819Y-62333142D01*
X150568819Y-62333142D02*
X150568819Y-62428380D01*
X150568819Y-62428380D02*
X150521200Y-62571237D01*
X150521200Y-62571237D02*
X150425961Y-62666475D01*
X150425961Y-62666475D02*
X150330723Y-62714094D01*
X150330723Y-62714094D02*
X150140247Y-62761713D01*
X150140247Y-62761713D02*
X149997390Y-62761713D01*
X149997390Y-62761713D02*
X149806914Y-62714094D01*
X149806914Y-62714094D02*
X149711676Y-62666475D01*
X149711676Y-62666475D02*
X149616438Y-62571237D01*
X149616438Y-62571237D02*
X149568819Y-62428380D01*
X149568819Y-62428380D02*
X149568819Y-62333142D01*
X149568819Y-62333142D02*
X149616438Y-62190285D01*
X149616438Y-62190285D02*
X149664057Y-62142666D01*
X149902152Y-61285523D02*
X150568819Y-61285523D01*
X149521200Y-61523618D02*
X150235485Y-61761713D01*
X150235485Y-61761713D02*
X150235485Y-61142666D01*
X145423143Y-63462819D02*
X145518381Y-63462819D01*
X145518381Y-63462819D02*
X145613619Y-63510438D01*
X145613619Y-63510438D02*
X145661238Y-63558057D01*
X145661238Y-63558057D02*
X145708857Y-63653295D01*
X145708857Y-63653295D02*
X145756476Y-63843771D01*
X145756476Y-63843771D02*
X145756476Y-64081866D01*
X145756476Y-64081866D02*
X145708857Y-64272342D01*
X145708857Y-64272342D02*
X145661238Y-64367580D01*
X145661238Y-64367580D02*
X145613619Y-64415200D01*
X145613619Y-64415200D02*
X145518381Y-64462819D01*
X145518381Y-64462819D02*
X145423143Y-64462819D01*
X145423143Y-64462819D02*
X145327905Y-64415200D01*
X145327905Y-64415200D02*
X145280286Y-64367580D01*
X145280286Y-64367580D02*
X145232667Y-64272342D01*
X145232667Y-64272342D02*
X145185048Y-64081866D01*
X145185048Y-64081866D02*
X145185048Y-63843771D01*
X145185048Y-63843771D02*
X145232667Y-63653295D01*
X145232667Y-63653295D02*
X145280286Y-63558057D01*
X145280286Y-63558057D02*
X145327905Y-63510438D01*
X145327905Y-63510438D02*
X145423143Y-63462819D01*
X146185048Y-64367580D02*
X146232667Y-64415200D01*
X146232667Y-64415200D02*
X146185048Y-64462819D01*
X146185048Y-64462819D02*
X146137429Y-64415200D01*
X146137429Y-64415200D02*
X146185048Y-64367580D01*
X146185048Y-64367580D02*
X146185048Y-64462819D01*
X147185047Y-64462819D02*
X146613619Y-64462819D01*
X146899333Y-64462819D02*
X146899333Y-63462819D01*
X146899333Y-63462819D02*
X146804095Y-63605676D01*
X146804095Y-63605676D02*
X146708857Y-63700914D01*
X146708857Y-63700914D02*
X146613619Y-63748533D01*
X148042190Y-63796152D02*
X148042190Y-64462819D01*
X147613619Y-63796152D02*
X147613619Y-64319961D01*
X147613619Y-64319961D02*
X147661238Y-64415200D01*
X147661238Y-64415200D02*
X147756476Y-64462819D01*
X147756476Y-64462819D02*
X147899333Y-64462819D01*
X147899333Y-64462819D02*
X147994571Y-64415200D01*
X147994571Y-64415200D02*
X148042190Y-64367580D01*
X148851714Y-63939009D02*
X148518381Y-63939009D01*
X148518381Y-64462819D02*
X148518381Y-63462819D01*
X148518381Y-63462819D02*
X148994571Y-63462819D01*
X156802738Y-127169104D02*
X157278928Y-127169104D01*
X156707500Y-127454819D02*
X157040833Y-126454819D01*
X157040833Y-126454819D02*
X157374166Y-127454819D01*
X158278928Y-127359580D02*
X158231309Y-127407200D01*
X158231309Y-127407200D02*
X158088452Y-127454819D01*
X158088452Y-127454819D02*
X157993214Y-127454819D01*
X157993214Y-127454819D02*
X157850357Y-127407200D01*
X157850357Y-127407200D02*
X157755119Y-127311961D01*
X157755119Y-127311961D02*
X157707500Y-127216723D01*
X157707500Y-127216723D02*
X157659881Y-127026247D01*
X157659881Y-127026247D02*
X157659881Y-126883390D01*
X157659881Y-126883390D02*
X157707500Y-126692914D01*
X157707500Y-126692914D02*
X157755119Y-126597676D01*
X157755119Y-126597676D02*
X157850357Y-126502438D01*
X157850357Y-126502438D02*
X157993214Y-126454819D01*
X157993214Y-126454819D02*
X158088452Y-126454819D01*
X158088452Y-126454819D02*
X158231309Y-126502438D01*
X158231309Y-126502438D02*
X158278928Y-126550057D01*
X158564643Y-126454819D02*
X159136071Y-126454819D01*
X158850357Y-127454819D02*
X158850357Y-126454819D01*
X159469405Y-126454819D02*
X159469405Y-127264342D01*
X159469405Y-127264342D02*
X159517024Y-127359580D01*
X159517024Y-127359580D02*
X159564643Y-127407200D01*
X159564643Y-127407200D02*
X159659881Y-127454819D01*
X159659881Y-127454819D02*
X159850357Y-127454819D01*
X159850357Y-127454819D02*
X159945595Y-127407200D01*
X159945595Y-127407200D02*
X159993214Y-127359580D01*
X159993214Y-127359580D02*
X160040833Y-127264342D01*
X160040833Y-127264342D02*
X160040833Y-126454819D01*
X160469405Y-127169104D02*
X160945595Y-127169104D01*
X160374167Y-127454819D02*
X160707500Y-126454819D01*
X160707500Y-126454819D02*
X161040833Y-127454819D01*
X161231310Y-126454819D02*
X161802738Y-126454819D01*
X161517024Y-127454819D02*
X161517024Y-126454819D01*
X162326548Y-126454819D02*
X162517024Y-126454819D01*
X162517024Y-126454819D02*
X162612262Y-126502438D01*
X162612262Y-126502438D02*
X162707500Y-126597676D01*
X162707500Y-126597676D02*
X162755119Y-126788152D01*
X162755119Y-126788152D02*
X162755119Y-127121485D01*
X162755119Y-127121485D02*
X162707500Y-127311961D01*
X162707500Y-127311961D02*
X162612262Y-127407200D01*
X162612262Y-127407200D02*
X162517024Y-127454819D01*
X162517024Y-127454819D02*
X162326548Y-127454819D01*
X162326548Y-127454819D02*
X162231310Y-127407200D01*
X162231310Y-127407200D02*
X162136072Y-127311961D01*
X162136072Y-127311961D02*
X162088453Y-127121485D01*
X162088453Y-127121485D02*
X162088453Y-126788152D01*
X162088453Y-126788152D02*
X162136072Y-126597676D01*
X162136072Y-126597676D02*
X162231310Y-126502438D01*
X162231310Y-126502438D02*
X162326548Y-126454819D01*
X163755119Y-127454819D02*
X163421786Y-126978628D01*
X163183691Y-127454819D02*
X163183691Y-126454819D01*
X163183691Y-126454819D02*
X163564643Y-126454819D01*
X163564643Y-126454819D02*
X163659881Y-126502438D01*
X163659881Y-126502438D02*
X163707500Y-126550057D01*
X163707500Y-126550057D02*
X163755119Y-126645295D01*
X163755119Y-126645295D02*
X163755119Y-126788152D01*
X163755119Y-126788152D02*
X163707500Y-126883390D01*
X163707500Y-126883390D02*
X163659881Y-126931009D01*
X163659881Y-126931009D02*
X163564643Y-126978628D01*
X163564643Y-126978628D02*
X163183691Y-126978628D01*
X165136072Y-126454819D02*
X165326548Y-126454819D01*
X165326548Y-126454819D02*
X165421786Y-126502438D01*
X165421786Y-126502438D02*
X165517024Y-126597676D01*
X165517024Y-126597676D02*
X165564643Y-126788152D01*
X165564643Y-126788152D02*
X165564643Y-127121485D01*
X165564643Y-127121485D02*
X165517024Y-127311961D01*
X165517024Y-127311961D02*
X165421786Y-127407200D01*
X165421786Y-127407200D02*
X165326548Y-127454819D01*
X165326548Y-127454819D02*
X165136072Y-127454819D01*
X165136072Y-127454819D02*
X165040834Y-127407200D01*
X165040834Y-127407200D02*
X164945596Y-127311961D01*
X164945596Y-127311961D02*
X164897977Y-127121485D01*
X164897977Y-127121485D02*
X164897977Y-126788152D01*
X164897977Y-126788152D02*
X164945596Y-126597676D01*
X164945596Y-126597676D02*
X165040834Y-126502438D01*
X165040834Y-126502438D02*
X165136072Y-126454819D01*
X165993215Y-127454819D02*
X165993215Y-126454819D01*
X165993215Y-126454819D02*
X166564643Y-127454819D01*
X166564643Y-127454819D02*
X166564643Y-126454819D01*
X175434666Y-121882819D02*
X175434666Y-122597104D01*
X175434666Y-122597104D02*
X175387047Y-122739961D01*
X175387047Y-122739961D02*
X175291809Y-122835200D01*
X175291809Y-122835200D02*
X175148952Y-122882819D01*
X175148952Y-122882819D02*
X175053714Y-122882819D01*
X175815619Y-121882819D02*
X176434666Y-121882819D01*
X176434666Y-121882819D02*
X176101333Y-122263771D01*
X176101333Y-122263771D02*
X176244190Y-122263771D01*
X176244190Y-122263771D02*
X176339428Y-122311390D01*
X176339428Y-122311390D02*
X176387047Y-122359009D01*
X176387047Y-122359009D02*
X176434666Y-122454247D01*
X176434666Y-122454247D02*
X176434666Y-122692342D01*
X176434666Y-122692342D02*
X176387047Y-122787580D01*
X176387047Y-122787580D02*
X176339428Y-122835200D01*
X176339428Y-122835200D02*
X176244190Y-122882819D01*
X176244190Y-122882819D02*
X175958476Y-122882819D01*
X175958476Y-122882819D02*
X175863238Y-122835200D01*
X175863238Y-122835200D02*
X175815619Y-122787580D01*
X169565238Y-117009104D02*
X170041428Y-117009104D01*
X169470000Y-117294819D02*
X169803333Y-116294819D01*
X169803333Y-116294819D02*
X170136666Y-117294819D01*
X171041428Y-117199580D02*
X170993809Y-117247200D01*
X170993809Y-117247200D02*
X170850952Y-117294819D01*
X170850952Y-117294819D02*
X170755714Y-117294819D01*
X170755714Y-117294819D02*
X170612857Y-117247200D01*
X170612857Y-117247200D02*
X170517619Y-117151961D01*
X170517619Y-117151961D02*
X170470000Y-117056723D01*
X170470000Y-117056723D02*
X170422381Y-116866247D01*
X170422381Y-116866247D02*
X170422381Y-116723390D01*
X170422381Y-116723390D02*
X170470000Y-116532914D01*
X170470000Y-116532914D02*
X170517619Y-116437676D01*
X170517619Y-116437676D02*
X170612857Y-116342438D01*
X170612857Y-116342438D02*
X170755714Y-116294819D01*
X170755714Y-116294819D02*
X170850952Y-116294819D01*
X170850952Y-116294819D02*
X170993809Y-116342438D01*
X170993809Y-116342438D02*
X171041428Y-116390057D01*
X171327143Y-116294819D02*
X171898571Y-116294819D01*
X171612857Y-117294819D02*
X171612857Y-116294819D01*
X172231905Y-116294819D02*
X172231905Y-117104342D01*
X172231905Y-117104342D02*
X172279524Y-117199580D01*
X172279524Y-117199580D02*
X172327143Y-117247200D01*
X172327143Y-117247200D02*
X172422381Y-117294819D01*
X172422381Y-117294819D02*
X172612857Y-117294819D01*
X172612857Y-117294819D02*
X172708095Y-117247200D01*
X172708095Y-117247200D02*
X172755714Y-117199580D01*
X172755714Y-117199580D02*
X172803333Y-117104342D01*
X172803333Y-117104342D02*
X172803333Y-116294819D01*
X173231905Y-117009104D02*
X173708095Y-117009104D01*
X173136667Y-117294819D02*
X173470000Y-116294819D01*
X173470000Y-116294819D02*
X173803333Y-117294819D01*
X173993810Y-116294819D02*
X174565238Y-116294819D01*
X174279524Y-117294819D02*
X174279524Y-116294819D01*
X175089048Y-116294819D02*
X175279524Y-116294819D01*
X175279524Y-116294819D02*
X175374762Y-116342438D01*
X175374762Y-116342438D02*
X175470000Y-116437676D01*
X175470000Y-116437676D02*
X175517619Y-116628152D01*
X175517619Y-116628152D02*
X175517619Y-116961485D01*
X175517619Y-116961485D02*
X175470000Y-117151961D01*
X175470000Y-117151961D02*
X175374762Y-117247200D01*
X175374762Y-117247200D02*
X175279524Y-117294819D01*
X175279524Y-117294819D02*
X175089048Y-117294819D01*
X175089048Y-117294819D02*
X174993810Y-117247200D01*
X174993810Y-117247200D02*
X174898572Y-117151961D01*
X174898572Y-117151961D02*
X174850953Y-116961485D01*
X174850953Y-116961485D02*
X174850953Y-116628152D01*
X174850953Y-116628152D02*
X174898572Y-116437676D01*
X174898572Y-116437676D02*
X174993810Y-116342438D01*
X174993810Y-116342438D02*
X175089048Y-116294819D01*
X176517619Y-117294819D02*
X176184286Y-116818628D01*
X175946191Y-117294819D02*
X175946191Y-116294819D01*
X175946191Y-116294819D02*
X176327143Y-116294819D01*
X176327143Y-116294819D02*
X176422381Y-116342438D01*
X176422381Y-116342438D02*
X176470000Y-116390057D01*
X176470000Y-116390057D02*
X176517619Y-116485295D01*
X176517619Y-116485295D02*
X176517619Y-116628152D01*
X176517619Y-116628152D02*
X176470000Y-116723390D01*
X176470000Y-116723390D02*
X176422381Y-116771009D01*
X176422381Y-116771009D02*
X176327143Y-116818628D01*
X176327143Y-116818628D02*
X175946191Y-116818628D01*
X177708096Y-117294819D02*
X177708096Y-116294819D01*
X177708096Y-116294819D02*
X178089048Y-116294819D01*
X178089048Y-116294819D02*
X178184286Y-116342438D01*
X178184286Y-116342438D02*
X178231905Y-116390057D01*
X178231905Y-116390057D02*
X178279524Y-116485295D01*
X178279524Y-116485295D02*
X178279524Y-116628152D01*
X178279524Y-116628152D02*
X178231905Y-116723390D01*
X178231905Y-116723390D02*
X178184286Y-116771009D01*
X178184286Y-116771009D02*
X178089048Y-116818628D01*
X178089048Y-116818628D02*
X177708096Y-116818628D01*
X178898572Y-116294819D02*
X179089048Y-116294819D01*
X179089048Y-116294819D02*
X179184286Y-116342438D01*
X179184286Y-116342438D02*
X179279524Y-116437676D01*
X179279524Y-116437676D02*
X179327143Y-116628152D01*
X179327143Y-116628152D02*
X179327143Y-116961485D01*
X179327143Y-116961485D02*
X179279524Y-117151961D01*
X179279524Y-117151961D02*
X179184286Y-117247200D01*
X179184286Y-117247200D02*
X179089048Y-117294819D01*
X179089048Y-117294819D02*
X178898572Y-117294819D01*
X178898572Y-117294819D02*
X178803334Y-117247200D01*
X178803334Y-117247200D02*
X178708096Y-117151961D01*
X178708096Y-117151961D02*
X178660477Y-116961485D01*
X178660477Y-116961485D02*
X178660477Y-116628152D01*
X178660477Y-116628152D02*
X178708096Y-116437676D01*
X178708096Y-116437676D02*
X178803334Y-116342438D01*
X178803334Y-116342438D02*
X178898572Y-116294819D01*
X179660477Y-116294819D02*
X179898572Y-117294819D01*
X179898572Y-117294819D02*
X180089048Y-116580533D01*
X180089048Y-116580533D02*
X180279524Y-117294819D01*
X180279524Y-117294819D02*
X180517620Y-116294819D01*
X180898572Y-116771009D02*
X181231905Y-116771009D01*
X181374762Y-117294819D02*
X180898572Y-117294819D01*
X180898572Y-117294819D02*
X180898572Y-116294819D01*
X180898572Y-116294819D02*
X181374762Y-116294819D01*
X182374762Y-117294819D02*
X182041429Y-116818628D01*
X181803334Y-117294819D02*
X181803334Y-116294819D01*
X181803334Y-116294819D02*
X182184286Y-116294819D01*
X182184286Y-116294819D02*
X182279524Y-116342438D01*
X182279524Y-116342438D02*
X182327143Y-116390057D01*
X182327143Y-116390057D02*
X182374762Y-116485295D01*
X182374762Y-116485295D02*
X182374762Y-116628152D01*
X182374762Y-116628152D02*
X182327143Y-116723390D01*
X182327143Y-116723390D02*
X182279524Y-116771009D01*
X182279524Y-116771009D02*
X182184286Y-116818628D01*
X182184286Y-116818628D02*
X181803334Y-116818628D01*
X169441905Y-64462819D02*
X169441905Y-63462819D01*
X169441905Y-63462819D02*
X169680000Y-63462819D01*
X169680000Y-63462819D02*
X169822857Y-63510438D01*
X169822857Y-63510438D02*
X169918095Y-63605676D01*
X169918095Y-63605676D02*
X169965714Y-63700914D01*
X169965714Y-63700914D02*
X170013333Y-63891390D01*
X170013333Y-63891390D02*
X170013333Y-64034247D01*
X170013333Y-64034247D02*
X169965714Y-64224723D01*
X169965714Y-64224723D02*
X169918095Y-64319961D01*
X169918095Y-64319961D02*
X169822857Y-64415200D01*
X169822857Y-64415200D02*
X169680000Y-64462819D01*
X169680000Y-64462819D02*
X169441905Y-64462819D01*
X170584762Y-63891390D02*
X170489524Y-63843771D01*
X170489524Y-63843771D02*
X170441905Y-63796152D01*
X170441905Y-63796152D02*
X170394286Y-63700914D01*
X170394286Y-63700914D02*
X170394286Y-63653295D01*
X170394286Y-63653295D02*
X170441905Y-63558057D01*
X170441905Y-63558057D02*
X170489524Y-63510438D01*
X170489524Y-63510438D02*
X170584762Y-63462819D01*
X170584762Y-63462819D02*
X170775238Y-63462819D01*
X170775238Y-63462819D02*
X170870476Y-63510438D01*
X170870476Y-63510438D02*
X170918095Y-63558057D01*
X170918095Y-63558057D02*
X170965714Y-63653295D01*
X170965714Y-63653295D02*
X170965714Y-63700914D01*
X170965714Y-63700914D02*
X170918095Y-63796152D01*
X170918095Y-63796152D02*
X170870476Y-63843771D01*
X170870476Y-63843771D02*
X170775238Y-63891390D01*
X170775238Y-63891390D02*
X170584762Y-63891390D01*
X170584762Y-63891390D02*
X170489524Y-63939009D01*
X170489524Y-63939009D02*
X170441905Y-63986628D01*
X170441905Y-63986628D02*
X170394286Y-64081866D01*
X170394286Y-64081866D02*
X170394286Y-64272342D01*
X170394286Y-64272342D02*
X170441905Y-64367580D01*
X170441905Y-64367580D02*
X170489524Y-64415200D01*
X170489524Y-64415200D02*
X170584762Y-64462819D01*
X170584762Y-64462819D02*
X170775238Y-64462819D01*
X170775238Y-64462819D02*
X170870476Y-64415200D01*
X170870476Y-64415200D02*
X170918095Y-64367580D01*
X170918095Y-64367580D02*
X170965714Y-64272342D01*
X170965714Y-64272342D02*
X170965714Y-64081866D01*
X170965714Y-64081866D02*
X170918095Y-63986628D01*
X170918095Y-63986628D02*
X170870476Y-63939009D01*
X170870476Y-63939009D02*
X170775238Y-63891390D01*
X169152819Y-122620666D02*
X168676628Y-122953999D01*
X169152819Y-123192094D02*
X168152819Y-123192094D01*
X168152819Y-123192094D02*
X168152819Y-122811142D01*
X168152819Y-122811142D02*
X168200438Y-122715904D01*
X168200438Y-122715904D02*
X168248057Y-122668285D01*
X168248057Y-122668285D02*
X168343295Y-122620666D01*
X168343295Y-122620666D02*
X168486152Y-122620666D01*
X168486152Y-122620666D02*
X168581390Y-122668285D01*
X168581390Y-122668285D02*
X168629009Y-122715904D01*
X168629009Y-122715904D02*
X168676628Y-122811142D01*
X168676628Y-122811142D02*
X168676628Y-123192094D01*
X169152819Y-121668285D02*
X169152819Y-122239713D01*
X169152819Y-121953999D02*
X168152819Y-121953999D01*
X168152819Y-121953999D02*
X168295676Y-122049237D01*
X168295676Y-122049237D02*
X168390914Y-122144475D01*
X168390914Y-122144475D02*
X168438533Y-122239713D01*
X165512819Y-122668285D02*
X165512819Y-123239713D01*
X165512819Y-122953999D02*
X164512819Y-122953999D01*
X164512819Y-122953999D02*
X164655676Y-123049237D01*
X164655676Y-123049237D02*
X164750914Y-123144475D01*
X164750914Y-123144475D02*
X164798533Y-123239713D01*
X165512819Y-122239713D02*
X164512819Y-122239713D01*
X165512819Y-121668285D02*
X164941390Y-122096856D01*
X164512819Y-121668285D02*
X165084247Y-122239713D01*
X156675295Y-61024419D02*
X157246723Y-61024419D01*
X156961009Y-62024419D02*
X156961009Y-61024419D01*
X157580057Y-62024419D02*
X157580057Y-61024419D01*
X157580057Y-61024419D02*
X157961009Y-61024419D01*
X157961009Y-61024419D02*
X158056247Y-61072038D01*
X158056247Y-61072038D02*
X158103866Y-61119657D01*
X158103866Y-61119657D02*
X158151485Y-61214895D01*
X158151485Y-61214895D02*
X158151485Y-61357752D01*
X158151485Y-61357752D02*
X158103866Y-61452990D01*
X158103866Y-61452990D02*
X158056247Y-61500609D01*
X158056247Y-61500609D02*
X157961009Y-61548228D01*
X157961009Y-61548228D02*
X157580057Y-61548228D01*
X159056247Y-61024419D02*
X158580057Y-61024419D01*
X158580057Y-61024419D02*
X158532438Y-61500609D01*
X158532438Y-61500609D02*
X158580057Y-61452990D01*
X158580057Y-61452990D02*
X158675295Y-61405371D01*
X158675295Y-61405371D02*
X158913390Y-61405371D01*
X158913390Y-61405371D02*
X159008628Y-61452990D01*
X159008628Y-61452990D02*
X159056247Y-61500609D01*
X159056247Y-61500609D02*
X159103866Y-61595847D01*
X159103866Y-61595847D02*
X159103866Y-61833942D01*
X159103866Y-61833942D02*
X159056247Y-61929180D01*
X159056247Y-61929180D02*
X159008628Y-61976800D01*
X159008628Y-61976800D02*
X158913390Y-62024419D01*
X158913390Y-62024419D02*
X158675295Y-62024419D01*
X158675295Y-62024419D02*
X158580057Y-61976800D01*
X158580057Y-61976800D02*
X158532438Y-61929180D01*
X157278928Y-118919819D02*
X157612261Y-119919819D01*
X157612261Y-119919819D02*
X157945594Y-118919819D01*
X158231309Y-119634104D02*
X158707499Y-119634104D01*
X158136071Y-119919819D02*
X158469404Y-118919819D01*
X158469404Y-118919819D02*
X158802737Y-119919819D01*
X159612261Y-119919819D02*
X159136071Y-119919819D01*
X159136071Y-119919819D02*
X159136071Y-118919819D01*
X159802738Y-118919819D02*
X160136071Y-119919819D01*
X160136071Y-119919819D02*
X160469404Y-118919819D01*
X160802738Y-119396009D02*
X161136071Y-119396009D01*
X161278928Y-119919819D02*
X160802738Y-119919819D01*
X160802738Y-119919819D02*
X160802738Y-118919819D01*
X160802738Y-118919819D02*
X161278928Y-118919819D01*
X162659881Y-118919819D02*
X162850357Y-118919819D01*
X162850357Y-118919819D02*
X162945595Y-118967438D01*
X162945595Y-118967438D02*
X163040833Y-119062676D01*
X163040833Y-119062676D02*
X163088452Y-119253152D01*
X163088452Y-119253152D02*
X163088452Y-119586485D01*
X163088452Y-119586485D02*
X163040833Y-119776961D01*
X163040833Y-119776961D02*
X162945595Y-119872200D01*
X162945595Y-119872200D02*
X162850357Y-119919819D01*
X162850357Y-119919819D02*
X162659881Y-119919819D01*
X162659881Y-119919819D02*
X162564643Y-119872200D01*
X162564643Y-119872200D02*
X162469405Y-119776961D01*
X162469405Y-119776961D02*
X162421786Y-119586485D01*
X162421786Y-119586485D02*
X162421786Y-119253152D01*
X162421786Y-119253152D02*
X162469405Y-119062676D01*
X162469405Y-119062676D02*
X162564643Y-118967438D01*
X162564643Y-118967438D02*
X162659881Y-118919819D01*
X163517024Y-119919819D02*
X163517024Y-118919819D01*
X163517024Y-118919819D02*
X163897976Y-118919819D01*
X163897976Y-118919819D02*
X163993214Y-118967438D01*
X163993214Y-118967438D02*
X164040833Y-119015057D01*
X164040833Y-119015057D02*
X164088452Y-119110295D01*
X164088452Y-119110295D02*
X164088452Y-119253152D01*
X164088452Y-119253152D02*
X164040833Y-119348390D01*
X164040833Y-119348390D02*
X163993214Y-119396009D01*
X163993214Y-119396009D02*
X163897976Y-119443628D01*
X163897976Y-119443628D02*
X163517024Y-119443628D01*
X164517024Y-119396009D02*
X164850357Y-119396009D01*
X164993214Y-119919819D02*
X164517024Y-119919819D01*
X164517024Y-119919819D02*
X164517024Y-118919819D01*
X164517024Y-118919819D02*
X164993214Y-118919819D01*
X165421786Y-119919819D02*
X165421786Y-118919819D01*
X165421786Y-118919819D02*
X165993214Y-119919819D01*
X165993214Y-119919819D02*
X165993214Y-118919819D01*
X134479438Y-89997268D02*
X133527057Y-90663935D01*
X134479438Y-91140125D02*
X132479438Y-91140125D01*
X132479438Y-91140125D02*
X132479438Y-90378220D01*
X132479438Y-90378220D02*
X132574676Y-90187744D01*
X132574676Y-90187744D02*
X132669914Y-90092506D01*
X132669914Y-90092506D02*
X132860390Y-89997268D01*
X132860390Y-89997268D02*
X133146104Y-89997268D01*
X133146104Y-89997268D02*
X133336580Y-90092506D01*
X133336580Y-90092506D02*
X133431819Y-90187744D01*
X133431819Y-90187744D02*
X133527057Y-90378220D01*
X133527057Y-90378220D02*
X133527057Y-91140125D01*
X133431819Y-89140125D02*
X133431819Y-88473458D01*
X134479438Y-88187744D02*
X134479438Y-89140125D01*
X134479438Y-89140125D02*
X132479438Y-89140125D01*
X132479438Y-89140125D02*
X132479438Y-88187744D01*
X132479438Y-87616315D02*
X134479438Y-86949649D01*
X134479438Y-86949649D02*
X132479438Y-86282982D01*
X132669914Y-84187743D02*
X132574676Y-84092505D01*
X132574676Y-84092505D02*
X132479438Y-83902029D01*
X132479438Y-83902029D02*
X132479438Y-83425838D01*
X132479438Y-83425838D02*
X132574676Y-83235362D01*
X132574676Y-83235362D02*
X132669914Y-83140124D01*
X132669914Y-83140124D02*
X132860390Y-83044886D01*
X132860390Y-83044886D02*
X133050866Y-83044886D01*
X133050866Y-83044886D02*
X133336580Y-83140124D01*
X133336580Y-83140124D02*
X134479438Y-84282981D01*
X134479438Y-84282981D02*
X134479438Y-83044886D01*
X133717533Y-80663933D02*
X133717533Y-79140124D01*
X134479438Y-76663933D02*
X132479438Y-76663933D01*
X132479438Y-76663933D02*
X133908009Y-75997266D01*
X133908009Y-75997266D02*
X132479438Y-75330600D01*
X132479438Y-75330600D02*
X134479438Y-75330600D01*
X133908009Y-74473457D02*
X133908009Y-73521076D01*
X134479438Y-74663933D02*
X132479438Y-73997267D01*
X132479438Y-73997267D02*
X134479438Y-73330600D01*
X134479438Y-71521076D02*
X133527057Y-72187743D01*
X134479438Y-72663933D02*
X132479438Y-72663933D01*
X132479438Y-72663933D02*
X132479438Y-71902028D01*
X132479438Y-71902028D02*
X132574676Y-71711552D01*
X132574676Y-71711552D02*
X132669914Y-71616314D01*
X132669914Y-71616314D02*
X132860390Y-71521076D01*
X132860390Y-71521076D02*
X133146104Y-71521076D01*
X133146104Y-71521076D02*
X133336580Y-71616314D01*
X133336580Y-71616314D02*
X133431819Y-71711552D01*
X133431819Y-71711552D02*
X133527057Y-71902028D01*
X133527057Y-71902028D02*
X133527057Y-72663933D01*
X132669914Y-69235361D02*
X132574676Y-69140123D01*
X132574676Y-69140123D02*
X132479438Y-68949647D01*
X132479438Y-68949647D02*
X132479438Y-68473456D01*
X132479438Y-68473456D02*
X132574676Y-68282980D01*
X132574676Y-68282980D02*
X132669914Y-68187742D01*
X132669914Y-68187742D02*
X132860390Y-68092504D01*
X132860390Y-68092504D02*
X133050866Y-68092504D01*
X133050866Y-68092504D02*
X133336580Y-68187742D01*
X133336580Y-68187742D02*
X134479438Y-69330599D01*
X134479438Y-69330599D02*
X134479438Y-68092504D01*
X132479438Y-66854409D02*
X132479438Y-66663932D01*
X132479438Y-66663932D02*
X132574676Y-66473456D01*
X132574676Y-66473456D02*
X132669914Y-66378218D01*
X132669914Y-66378218D02*
X132860390Y-66282980D01*
X132860390Y-66282980D02*
X133241342Y-66187742D01*
X133241342Y-66187742D02*
X133717533Y-66187742D01*
X133717533Y-66187742D02*
X134098485Y-66282980D01*
X134098485Y-66282980D02*
X134288961Y-66378218D01*
X134288961Y-66378218D02*
X134384200Y-66473456D01*
X134384200Y-66473456D02*
X134479438Y-66663932D01*
X134479438Y-66663932D02*
X134479438Y-66854409D01*
X134479438Y-66854409D02*
X134384200Y-67044885D01*
X134384200Y-67044885D02*
X134288961Y-67140123D01*
X134288961Y-67140123D02*
X134098485Y-67235361D01*
X134098485Y-67235361D02*
X133717533Y-67330599D01*
X133717533Y-67330599D02*
X133241342Y-67330599D01*
X133241342Y-67330599D02*
X132860390Y-67235361D01*
X132860390Y-67235361D02*
X132669914Y-67140123D01*
X132669914Y-67140123D02*
X132574676Y-67044885D01*
X132574676Y-67044885D02*
X132479438Y-66854409D01*
X132669914Y-65425837D02*
X132574676Y-65330599D01*
X132574676Y-65330599D02*
X132479438Y-65140123D01*
X132479438Y-65140123D02*
X132479438Y-64663932D01*
X132479438Y-64663932D02*
X132574676Y-64473456D01*
X132574676Y-64473456D02*
X132669914Y-64378218D01*
X132669914Y-64378218D02*
X132860390Y-64282980D01*
X132860390Y-64282980D02*
X133050866Y-64282980D01*
X133050866Y-64282980D02*
X133336580Y-64378218D01*
X133336580Y-64378218D02*
X134479438Y-65521075D01*
X134479438Y-65521075D02*
X134479438Y-64282980D01*
X133146104Y-62568694D02*
X134479438Y-62568694D01*
X132384200Y-63044885D02*
X133812771Y-63521075D01*
X133812771Y-63521075D02*
X133812771Y-62282980D01*
X130010485Y-84980791D02*
X130105723Y-84695077D01*
X130105723Y-84695077D02*
X130200961Y-84599839D01*
X130200961Y-84599839D02*
X130391437Y-84504601D01*
X130391437Y-84504601D02*
X130677151Y-84504601D01*
X130677151Y-84504601D02*
X130867627Y-84599839D01*
X130867627Y-84599839D02*
X130962866Y-84695077D01*
X130962866Y-84695077D02*
X131058104Y-84885553D01*
X131058104Y-84885553D02*
X131058104Y-85647458D01*
X131058104Y-85647458D02*
X129058104Y-85647458D01*
X129058104Y-85647458D02*
X129058104Y-84980791D01*
X129058104Y-84980791D02*
X129153342Y-84790315D01*
X129153342Y-84790315D02*
X129248580Y-84695077D01*
X129248580Y-84695077D02*
X129439056Y-84599839D01*
X129439056Y-84599839D02*
X129629532Y-84599839D01*
X129629532Y-84599839D02*
X129820008Y-84695077D01*
X129820008Y-84695077D02*
X129915246Y-84790315D01*
X129915246Y-84790315D02*
X130010485Y-84980791D01*
X130010485Y-84980791D02*
X130010485Y-85647458D01*
X130105723Y-83266506D02*
X131058104Y-83266506D01*
X129058104Y-83933172D02*
X130105723Y-83266506D01*
X130105723Y-83266506D02*
X129058104Y-82599839D01*
X130867627Y-81933172D02*
X130962866Y-81837934D01*
X130962866Y-81837934D02*
X131058104Y-81933172D01*
X131058104Y-81933172D02*
X130962866Y-82028410D01*
X130962866Y-82028410D02*
X130867627Y-81933172D01*
X130867627Y-81933172D02*
X131058104Y-81933172D01*
X129820008Y-81933172D02*
X129915246Y-81837934D01*
X129915246Y-81837934D02*
X130010485Y-81933172D01*
X130010485Y-81933172D02*
X129915246Y-82028410D01*
X129915246Y-82028410D02*
X129820008Y-81933172D01*
X129820008Y-81933172D02*
X130010485Y-81933172D01*
X129058104Y-78885552D02*
X130486675Y-78885552D01*
X130486675Y-78885552D02*
X130772389Y-78980791D01*
X130772389Y-78980791D02*
X130962866Y-79171267D01*
X130962866Y-79171267D02*
X131058104Y-79456981D01*
X131058104Y-79456981D02*
X131058104Y-79647457D01*
X130486675Y-78028409D02*
X130486675Y-77076028D01*
X131058104Y-78218885D02*
X129058104Y-77552219D01*
X129058104Y-77552219D02*
X131058104Y-76885552D01*
X130867627Y-75076028D02*
X130962866Y-75171266D01*
X130962866Y-75171266D02*
X131058104Y-75456980D01*
X131058104Y-75456980D02*
X131058104Y-75647456D01*
X131058104Y-75647456D02*
X130962866Y-75933171D01*
X130962866Y-75933171D02*
X130772389Y-76123647D01*
X130772389Y-76123647D02*
X130581913Y-76218885D01*
X130581913Y-76218885D02*
X130200961Y-76314123D01*
X130200961Y-76314123D02*
X129915246Y-76314123D01*
X129915246Y-76314123D02*
X129534294Y-76218885D01*
X129534294Y-76218885D02*
X129343818Y-76123647D01*
X129343818Y-76123647D02*
X129153342Y-75933171D01*
X129153342Y-75933171D02*
X129058104Y-75647456D01*
X129058104Y-75647456D02*
X129058104Y-75456980D01*
X129058104Y-75456980D02*
X129153342Y-75171266D01*
X129153342Y-75171266D02*
X129248580Y-75076028D01*
X131058104Y-74218885D02*
X129058104Y-74218885D01*
X131058104Y-73076028D02*
X129915246Y-73933171D01*
X129058104Y-73076028D02*
X130200961Y-74218885D01*
X130010485Y-70028408D02*
X130010485Y-70695075D01*
X131058104Y-70695075D02*
X129058104Y-70695075D01*
X129058104Y-70695075D02*
X129058104Y-69742694D01*
X130486675Y-69076027D02*
X130486675Y-68123646D01*
X131058104Y-69266503D02*
X129058104Y-68599837D01*
X129058104Y-68599837D02*
X131058104Y-67933170D01*
X131058104Y-67266503D02*
X129058104Y-67266503D01*
X130010485Y-67266503D02*
X130010485Y-66123646D01*
X131058104Y-66123646D02*
X129058104Y-66123646D01*
X130010485Y-65171265D02*
X130010485Y-64504598D01*
X131058104Y-64218884D02*
X131058104Y-65171265D01*
X131058104Y-65171265D02*
X129058104Y-65171265D01*
X129058104Y-65171265D02*
X129058104Y-64218884D01*
X130105723Y-62980789D02*
X131058104Y-62980789D01*
X129058104Y-63647455D02*
X130105723Y-62980789D01*
X130105723Y-62980789D02*
X129058104Y-62314122D01*
D12*
X124102438Y-85180444D02*
X122102438Y-85180444D01*
X122102438Y-85180444D02*
X122102438Y-84418539D01*
X122102438Y-84418539D02*
X122197676Y-84228063D01*
X122197676Y-84228063D02*
X122292914Y-84132825D01*
X122292914Y-84132825D02*
X122483390Y-84037587D01*
X122483390Y-84037587D02*
X122769104Y-84037587D01*
X122769104Y-84037587D02*
X122959580Y-84132825D01*
X122959580Y-84132825D02*
X123054819Y-84228063D01*
X123054819Y-84228063D02*
X123150057Y-84418539D01*
X123150057Y-84418539D02*
X123150057Y-85180444D01*
X123531009Y-83275682D02*
X123531009Y-82323301D01*
X124102438Y-83466158D02*
X122102438Y-82799492D01*
X122102438Y-82799492D02*
X124102438Y-82132825D01*
X123150057Y-81085206D02*
X124102438Y-81085206D01*
X122102438Y-81751872D02*
X123150057Y-81085206D01*
X123150057Y-81085206D02*
X122102438Y-80418539D01*
X124102438Y-78799491D02*
X124102438Y-79751872D01*
X124102438Y-79751872D02*
X122102438Y-79751872D01*
X122102438Y-77751872D02*
X122102438Y-77370919D01*
X122102438Y-77370919D02*
X122197676Y-77180443D01*
X122197676Y-77180443D02*
X122388152Y-76989967D01*
X122388152Y-76989967D02*
X122769104Y-76894729D01*
X122769104Y-76894729D02*
X123435771Y-76894729D01*
X123435771Y-76894729D02*
X123816723Y-76989967D01*
X123816723Y-76989967D02*
X124007200Y-77180443D01*
X124007200Y-77180443D02*
X124102438Y-77370919D01*
X124102438Y-77370919D02*
X124102438Y-77751872D01*
X124102438Y-77751872D02*
X124007200Y-77942348D01*
X124007200Y-77942348D02*
X123816723Y-78132824D01*
X123816723Y-78132824D02*
X123435771Y-78228062D01*
X123435771Y-78228062D02*
X122769104Y-78228062D01*
X122769104Y-78228062D02*
X122388152Y-78132824D01*
X122388152Y-78132824D02*
X122197676Y-77942348D01*
X122197676Y-77942348D02*
X122102438Y-77751872D01*
X123531009Y-76132824D02*
X123531009Y-75180443D01*
X124102438Y-76323300D02*
X122102438Y-75656634D01*
X122102438Y-75656634D02*
X124102438Y-74989967D01*
X124102438Y-74323300D02*
X122102438Y-74323300D01*
X122102438Y-74323300D02*
X122102438Y-73847110D01*
X122102438Y-73847110D02*
X122197676Y-73561395D01*
X122197676Y-73561395D02*
X122388152Y-73370919D01*
X122388152Y-73370919D02*
X122578628Y-73275681D01*
X122578628Y-73275681D02*
X122959580Y-73180443D01*
X122959580Y-73180443D02*
X123245295Y-73180443D01*
X123245295Y-73180443D02*
X123626247Y-73275681D01*
X123626247Y-73275681D02*
X123816723Y-73370919D01*
X123816723Y-73370919D02*
X124007200Y-73561395D01*
X124007200Y-73561395D02*
X124102438Y-73847110D01*
X124102438Y-73847110D02*
X124102438Y-74323300D01*
X123054819Y-70132823D02*
X123150057Y-69847109D01*
X123150057Y-69847109D02*
X123245295Y-69751871D01*
X123245295Y-69751871D02*
X123435771Y-69656633D01*
X123435771Y-69656633D02*
X123721485Y-69656633D01*
X123721485Y-69656633D02*
X123911961Y-69751871D01*
X123911961Y-69751871D02*
X124007200Y-69847109D01*
X124007200Y-69847109D02*
X124102438Y-70037585D01*
X124102438Y-70037585D02*
X124102438Y-70799490D01*
X124102438Y-70799490D02*
X122102438Y-70799490D01*
X122102438Y-70799490D02*
X122102438Y-70132823D01*
X122102438Y-70132823D02*
X122197676Y-69942347D01*
X122197676Y-69942347D02*
X122292914Y-69847109D01*
X122292914Y-69847109D02*
X122483390Y-69751871D01*
X122483390Y-69751871D02*
X122673866Y-69751871D01*
X122673866Y-69751871D02*
X122864342Y-69847109D01*
X122864342Y-69847109D02*
X122959580Y-69942347D01*
X122959580Y-69942347D02*
X123054819Y-70132823D01*
X123054819Y-70132823D02*
X123054819Y-70799490D01*
X122102438Y-68418538D02*
X122102438Y-68037585D01*
X122102438Y-68037585D02*
X122197676Y-67847109D01*
X122197676Y-67847109D02*
X122388152Y-67656633D01*
X122388152Y-67656633D02*
X122769104Y-67561395D01*
X122769104Y-67561395D02*
X123435771Y-67561395D01*
X123435771Y-67561395D02*
X123816723Y-67656633D01*
X123816723Y-67656633D02*
X124007200Y-67847109D01*
X124007200Y-67847109D02*
X124102438Y-68037585D01*
X124102438Y-68037585D02*
X124102438Y-68418538D01*
X124102438Y-68418538D02*
X124007200Y-68609014D01*
X124007200Y-68609014D02*
X123816723Y-68799490D01*
X123816723Y-68799490D02*
X123435771Y-68894728D01*
X123435771Y-68894728D02*
X122769104Y-68894728D01*
X122769104Y-68894728D02*
X122388152Y-68799490D01*
X122388152Y-68799490D02*
X122197676Y-68609014D01*
X122197676Y-68609014D02*
X122102438Y-68418538D01*
X123531009Y-66799490D02*
X123531009Y-65847109D01*
X124102438Y-66989966D02*
X122102438Y-66323300D01*
X122102438Y-66323300D02*
X124102438Y-65656633D01*
X124102438Y-63847109D02*
X123150057Y-64513776D01*
X124102438Y-64989966D02*
X122102438Y-64989966D01*
X122102438Y-64989966D02*
X122102438Y-64228061D01*
X122102438Y-64228061D02*
X122197676Y-64037585D01*
X122197676Y-64037585D02*
X122292914Y-63942347D01*
X122292914Y-63942347D02*
X122483390Y-63847109D01*
X122483390Y-63847109D02*
X122769104Y-63847109D01*
X122769104Y-63847109D02*
X122959580Y-63942347D01*
X122959580Y-63942347D02*
X123054819Y-64037585D01*
X123054819Y-64037585D02*
X123150057Y-64228061D01*
X123150057Y-64228061D02*
X123150057Y-64989966D01*
X124102438Y-62989966D02*
X122102438Y-62989966D01*
X122102438Y-62989966D02*
X122102438Y-62513776D01*
X122102438Y-62513776D02*
X122197676Y-62228061D01*
X122197676Y-62228061D02*
X122388152Y-62037585D01*
X122388152Y-62037585D02*
X122578628Y-61942347D01*
X122578628Y-61942347D02*
X122959580Y-61847109D01*
X122959580Y-61847109D02*
X123245295Y-61847109D01*
X123245295Y-61847109D02*
X123626247Y-61942347D01*
X123626247Y-61942347D02*
X123816723Y-62037585D01*
X123816723Y-62037585D02*
X124007200Y-62228061D01*
X124007200Y-62228061D02*
X124102438Y-62513776D01*
X124102438Y-62513776D02*
X124102438Y-62989966D01*
D10*
X127322200Y-79265363D02*
X127417438Y-78979649D01*
X127417438Y-78979649D02*
X127417438Y-78503458D01*
X127417438Y-78503458D02*
X127322200Y-78312982D01*
X127322200Y-78312982D02*
X127226961Y-78217744D01*
X127226961Y-78217744D02*
X127036485Y-78122506D01*
X127036485Y-78122506D02*
X126846009Y-78122506D01*
X126846009Y-78122506D02*
X126655533Y-78217744D01*
X126655533Y-78217744D02*
X126560295Y-78312982D01*
X126560295Y-78312982D02*
X126465057Y-78503458D01*
X126465057Y-78503458D02*
X126369819Y-78884411D01*
X126369819Y-78884411D02*
X126274580Y-79074887D01*
X126274580Y-79074887D02*
X126179342Y-79170125D01*
X126179342Y-79170125D02*
X125988866Y-79265363D01*
X125988866Y-79265363D02*
X125798390Y-79265363D01*
X125798390Y-79265363D02*
X125607914Y-79170125D01*
X125607914Y-79170125D02*
X125512676Y-79074887D01*
X125512676Y-79074887D02*
X125417438Y-78884411D01*
X125417438Y-78884411D02*
X125417438Y-78408220D01*
X125417438Y-78408220D02*
X125512676Y-78122506D01*
X127417438Y-77265363D02*
X125417438Y-77265363D01*
X125417438Y-77265363D02*
X125417438Y-76503458D01*
X125417438Y-76503458D02*
X125512676Y-76312982D01*
X125512676Y-76312982D02*
X125607914Y-76217744D01*
X125607914Y-76217744D02*
X125798390Y-76122506D01*
X125798390Y-76122506D02*
X126084104Y-76122506D01*
X126084104Y-76122506D02*
X126274580Y-76217744D01*
X126274580Y-76217744D02*
X126369819Y-76312982D01*
X126369819Y-76312982D02*
X126465057Y-76503458D01*
X126465057Y-76503458D02*
X126465057Y-77265363D01*
X126846009Y-75360601D02*
X126846009Y-74408220D01*
X127417438Y-75551077D02*
X125417438Y-74884411D01*
X125417438Y-74884411D02*
X127417438Y-74217744D01*
X127226961Y-72408220D02*
X127322200Y-72503458D01*
X127322200Y-72503458D02*
X127417438Y-72789172D01*
X127417438Y-72789172D02*
X127417438Y-72979648D01*
X127417438Y-72979648D02*
X127322200Y-73265363D01*
X127322200Y-73265363D02*
X127131723Y-73455839D01*
X127131723Y-73455839D02*
X126941247Y-73551077D01*
X126941247Y-73551077D02*
X126560295Y-73646315D01*
X126560295Y-73646315D02*
X126274580Y-73646315D01*
X126274580Y-73646315D02*
X125893628Y-73551077D01*
X125893628Y-73551077D02*
X125703152Y-73455839D01*
X125703152Y-73455839D02*
X125512676Y-73265363D01*
X125512676Y-73265363D02*
X125417438Y-72979648D01*
X125417438Y-72979648D02*
X125417438Y-72789172D01*
X125417438Y-72789172D02*
X125512676Y-72503458D01*
X125512676Y-72503458D02*
X125607914Y-72408220D01*
X127226961Y-71551077D02*
X127322200Y-71455839D01*
X127322200Y-71455839D02*
X127417438Y-71551077D01*
X127417438Y-71551077D02*
X127322200Y-71646315D01*
X127322200Y-71646315D02*
X127226961Y-71551077D01*
X127226961Y-71551077D02*
X127417438Y-71551077D01*
X126179342Y-71551077D02*
X126274580Y-71455839D01*
X126274580Y-71455839D02*
X126369819Y-71551077D01*
X126369819Y-71551077D02*
X126274580Y-71646315D01*
X126274580Y-71646315D02*
X126179342Y-71551077D01*
X126179342Y-71551077D02*
X126369819Y-71551077D01*
X125607914Y-69170124D02*
X125512676Y-69074886D01*
X125512676Y-69074886D02*
X125417438Y-68884410D01*
X125417438Y-68884410D02*
X125417438Y-68408219D01*
X125417438Y-68408219D02*
X125512676Y-68217743D01*
X125512676Y-68217743D02*
X125607914Y-68122505D01*
X125607914Y-68122505D02*
X125798390Y-68027267D01*
X125798390Y-68027267D02*
X125988866Y-68027267D01*
X125988866Y-68027267D02*
X126274580Y-68122505D01*
X126274580Y-68122505D02*
X127417438Y-69265362D01*
X127417438Y-69265362D02*
X127417438Y-68027267D01*
X125417438Y-66789172D02*
X125417438Y-66598695D01*
X125417438Y-66598695D02*
X125512676Y-66408219D01*
X125512676Y-66408219D02*
X125607914Y-66312981D01*
X125607914Y-66312981D02*
X125798390Y-66217743D01*
X125798390Y-66217743D02*
X126179342Y-66122505D01*
X126179342Y-66122505D02*
X126655533Y-66122505D01*
X126655533Y-66122505D02*
X127036485Y-66217743D01*
X127036485Y-66217743D02*
X127226961Y-66312981D01*
X127226961Y-66312981D02*
X127322200Y-66408219D01*
X127322200Y-66408219D02*
X127417438Y-66598695D01*
X127417438Y-66598695D02*
X127417438Y-66789172D01*
X127417438Y-66789172D02*
X127322200Y-66979648D01*
X127322200Y-66979648D02*
X127226961Y-67074886D01*
X127226961Y-67074886D02*
X127036485Y-67170124D01*
X127036485Y-67170124D02*
X126655533Y-67265362D01*
X126655533Y-67265362D02*
X126179342Y-67265362D01*
X126179342Y-67265362D02*
X125798390Y-67170124D01*
X125798390Y-67170124D02*
X125607914Y-67074886D01*
X125607914Y-67074886D02*
X125512676Y-66979648D01*
X125512676Y-66979648D02*
X125417438Y-66789172D01*
X125607914Y-65360600D02*
X125512676Y-65265362D01*
X125512676Y-65265362D02*
X125417438Y-65074886D01*
X125417438Y-65074886D02*
X125417438Y-64598695D01*
X125417438Y-64598695D02*
X125512676Y-64408219D01*
X125512676Y-64408219D02*
X125607914Y-64312981D01*
X125607914Y-64312981D02*
X125798390Y-64217743D01*
X125798390Y-64217743D02*
X125988866Y-64217743D01*
X125988866Y-64217743D02*
X126274580Y-64312981D01*
X126274580Y-64312981D02*
X127417438Y-65455838D01*
X127417438Y-65455838D02*
X127417438Y-64217743D01*
X126084104Y-62503457D02*
X127417438Y-62503457D01*
X125322200Y-62979648D02*
X126750771Y-63455838D01*
X126750771Y-63455838D02*
X126750771Y-62217743D01*
X187811580Y-90108066D02*
X187859200Y-90155685D01*
X187859200Y-90155685D02*
X187906819Y-90298542D01*
X187906819Y-90298542D02*
X187906819Y-90393780D01*
X187906819Y-90393780D02*
X187859200Y-90536637D01*
X187859200Y-90536637D02*
X187763961Y-90631875D01*
X187763961Y-90631875D02*
X187668723Y-90679494D01*
X187668723Y-90679494D02*
X187478247Y-90727113D01*
X187478247Y-90727113D02*
X187335390Y-90727113D01*
X187335390Y-90727113D02*
X187144914Y-90679494D01*
X187144914Y-90679494D02*
X187049676Y-90631875D01*
X187049676Y-90631875D02*
X186954438Y-90536637D01*
X186954438Y-90536637D02*
X186906819Y-90393780D01*
X186906819Y-90393780D02*
X186906819Y-90298542D01*
X186906819Y-90298542D02*
X186954438Y-90155685D01*
X186954438Y-90155685D02*
X187002057Y-90108066D01*
X186906819Y-89250923D02*
X186906819Y-89441399D01*
X186906819Y-89441399D02*
X186954438Y-89536637D01*
X186954438Y-89536637D02*
X187002057Y-89584256D01*
X187002057Y-89584256D02*
X187144914Y-89679494D01*
X187144914Y-89679494D02*
X187335390Y-89727113D01*
X187335390Y-89727113D02*
X187716342Y-89727113D01*
X187716342Y-89727113D02*
X187811580Y-89679494D01*
X187811580Y-89679494D02*
X187859200Y-89631875D01*
X187859200Y-89631875D02*
X187906819Y-89536637D01*
X187906819Y-89536637D02*
X187906819Y-89346161D01*
X187906819Y-89346161D02*
X187859200Y-89250923D01*
X187859200Y-89250923D02*
X187811580Y-89203304D01*
X187811580Y-89203304D02*
X187716342Y-89155685D01*
X187716342Y-89155685D02*
X187478247Y-89155685D01*
X187478247Y-89155685D02*
X187383009Y-89203304D01*
X187383009Y-89203304D02*
X187335390Y-89250923D01*
X187335390Y-89250923D02*
X187287771Y-89346161D01*
X187287771Y-89346161D02*
X187287771Y-89536637D01*
X187287771Y-89536637D02*
X187335390Y-89631875D01*
X187335390Y-89631875D02*
X187383009Y-89679494D01*
X187383009Y-89679494D02*
X187478247Y-89727113D01*
X120864999Y-115501009D02*
X121007856Y-115548628D01*
X121007856Y-115548628D02*
X121055475Y-115596247D01*
X121055475Y-115596247D02*
X121103094Y-115691485D01*
X121103094Y-115691485D02*
X121103094Y-115834342D01*
X121103094Y-115834342D02*
X121055475Y-115929580D01*
X121055475Y-115929580D02*
X121007856Y-115977200D01*
X121007856Y-115977200D02*
X120912618Y-116024819D01*
X120912618Y-116024819D02*
X120531666Y-116024819D01*
X120531666Y-116024819D02*
X120531666Y-115024819D01*
X120531666Y-115024819D02*
X120864999Y-115024819D01*
X120864999Y-115024819D02*
X120960237Y-115072438D01*
X120960237Y-115072438D02*
X121007856Y-115120057D01*
X121007856Y-115120057D02*
X121055475Y-115215295D01*
X121055475Y-115215295D02*
X121055475Y-115310533D01*
X121055475Y-115310533D02*
X121007856Y-115405771D01*
X121007856Y-115405771D02*
X120960237Y-115453390D01*
X120960237Y-115453390D02*
X120864999Y-115501009D01*
X120864999Y-115501009D02*
X120531666Y-115501009D01*
X121531666Y-116024819D02*
X121531666Y-115024819D01*
X121531666Y-115024819D02*
X121864999Y-115739104D01*
X121864999Y-115739104D02*
X122198332Y-115024819D01*
X122198332Y-115024819D02*
X122198332Y-116024819D01*
X122674523Y-116024819D02*
X122674523Y-115024819D01*
X122674523Y-115024819D02*
X123055475Y-115024819D01*
X123055475Y-115024819D02*
X123150713Y-115072438D01*
X123150713Y-115072438D02*
X123198332Y-115120057D01*
X123198332Y-115120057D02*
X123245951Y-115215295D01*
X123245951Y-115215295D02*
X123245951Y-115358152D01*
X123245951Y-115358152D02*
X123198332Y-115453390D01*
X123198332Y-115453390D02*
X123150713Y-115501009D01*
X123150713Y-115501009D02*
X123055475Y-115548628D01*
X123055475Y-115548628D02*
X122674523Y-115548628D01*
X123626904Y-115120057D02*
X123674523Y-115072438D01*
X123674523Y-115072438D02*
X123769761Y-115024819D01*
X123769761Y-115024819D02*
X124007856Y-115024819D01*
X124007856Y-115024819D02*
X124103094Y-115072438D01*
X124103094Y-115072438D02*
X124150713Y-115120057D01*
X124150713Y-115120057D02*
X124198332Y-115215295D01*
X124198332Y-115215295D02*
X124198332Y-115310533D01*
X124198332Y-115310533D02*
X124150713Y-115453390D01*
X124150713Y-115453390D02*
X123579285Y-116024819D01*
X123579285Y-116024819D02*
X124198332Y-116024819D01*
X124769761Y-115453390D02*
X124674523Y-115405771D01*
X124674523Y-115405771D02*
X124626904Y-115358152D01*
X124626904Y-115358152D02*
X124579285Y-115262914D01*
X124579285Y-115262914D02*
X124579285Y-115215295D01*
X124579285Y-115215295D02*
X124626904Y-115120057D01*
X124626904Y-115120057D02*
X124674523Y-115072438D01*
X124674523Y-115072438D02*
X124769761Y-115024819D01*
X124769761Y-115024819D02*
X124960237Y-115024819D01*
X124960237Y-115024819D02*
X125055475Y-115072438D01*
X125055475Y-115072438D02*
X125103094Y-115120057D01*
X125103094Y-115120057D02*
X125150713Y-115215295D01*
X125150713Y-115215295D02*
X125150713Y-115262914D01*
X125150713Y-115262914D02*
X125103094Y-115358152D01*
X125103094Y-115358152D02*
X125055475Y-115405771D01*
X125055475Y-115405771D02*
X124960237Y-115453390D01*
X124960237Y-115453390D02*
X124769761Y-115453390D01*
X124769761Y-115453390D02*
X124674523Y-115501009D01*
X124674523Y-115501009D02*
X124626904Y-115548628D01*
X124626904Y-115548628D02*
X124579285Y-115643866D01*
X124579285Y-115643866D02*
X124579285Y-115834342D01*
X124579285Y-115834342D02*
X124626904Y-115929580D01*
X124626904Y-115929580D02*
X124674523Y-115977200D01*
X124674523Y-115977200D02*
X124769761Y-116024819D01*
X124769761Y-116024819D02*
X124960237Y-116024819D01*
X124960237Y-116024819D02*
X125055475Y-115977200D01*
X125055475Y-115977200D02*
X125103094Y-115929580D01*
X125103094Y-115929580D02*
X125150713Y-115834342D01*
X125150713Y-115834342D02*
X125150713Y-115643866D01*
X125150713Y-115643866D02*
X125103094Y-115548628D01*
X125103094Y-115548628D02*
X125055475Y-115501009D01*
X125055475Y-115501009D02*
X124960237Y-115453390D01*
X125769761Y-115024819D02*
X125864999Y-115024819D01*
X125864999Y-115024819D02*
X125960237Y-115072438D01*
X125960237Y-115072438D02*
X126007856Y-115120057D01*
X126007856Y-115120057D02*
X126055475Y-115215295D01*
X126055475Y-115215295D02*
X126103094Y-115405771D01*
X126103094Y-115405771D02*
X126103094Y-115643866D01*
X126103094Y-115643866D02*
X126055475Y-115834342D01*
X126055475Y-115834342D02*
X126007856Y-115929580D01*
X126007856Y-115929580D02*
X125960237Y-115977200D01*
X125960237Y-115977200D02*
X125864999Y-116024819D01*
X125864999Y-116024819D02*
X125769761Y-116024819D01*
X125769761Y-116024819D02*
X125674523Y-115977200D01*
X125674523Y-115977200D02*
X125626904Y-115929580D01*
X125626904Y-115929580D02*
X125579285Y-115834342D01*
X125579285Y-115834342D02*
X125531666Y-115643866D01*
X125531666Y-115643866D02*
X125531666Y-115405771D01*
X125531666Y-115405771D02*
X125579285Y-115215295D01*
X125579285Y-115215295D02*
X125626904Y-115120057D01*
X125626904Y-115120057D02*
X125674523Y-115072438D01*
X125674523Y-115072438D02*
X125769761Y-115024819D01*
X126293571Y-116120057D02*
X127055475Y-116120057D01*
X127626904Y-115501009D02*
X127769761Y-115548628D01*
X127769761Y-115548628D02*
X127817380Y-115596247D01*
X127817380Y-115596247D02*
X127864999Y-115691485D01*
X127864999Y-115691485D02*
X127864999Y-115834342D01*
X127864999Y-115834342D02*
X127817380Y-115929580D01*
X127817380Y-115929580D02*
X127769761Y-115977200D01*
X127769761Y-115977200D02*
X127674523Y-116024819D01*
X127674523Y-116024819D02*
X127293571Y-116024819D01*
X127293571Y-116024819D02*
X127293571Y-115024819D01*
X127293571Y-115024819D02*
X127626904Y-115024819D01*
X127626904Y-115024819D02*
X127722142Y-115072438D01*
X127722142Y-115072438D02*
X127769761Y-115120057D01*
X127769761Y-115120057D02*
X127817380Y-115215295D01*
X127817380Y-115215295D02*
X127817380Y-115310533D01*
X127817380Y-115310533D02*
X127769761Y-115405771D01*
X127769761Y-115405771D02*
X127722142Y-115453390D01*
X127722142Y-115453390D02*
X127626904Y-115501009D01*
X127626904Y-115501009D02*
X127293571Y-115501009D01*
X128722142Y-116024819D02*
X128722142Y-115501009D01*
X128722142Y-115501009D02*
X128674523Y-115405771D01*
X128674523Y-115405771D02*
X128579285Y-115358152D01*
X128579285Y-115358152D02*
X128388809Y-115358152D01*
X128388809Y-115358152D02*
X128293571Y-115405771D01*
X128722142Y-115977200D02*
X128626904Y-116024819D01*
X128626904Y-116024819D02*
X128388809Y-116024819D01*
X128388809Y-116024819D02*
X128293571Y-115977200D01*
X128293571Y-115977200D02*
X128245952Y-115881961D01*
X128245952Y-115881961D02*
X128245952Y-115786723D01*
X128245952Y-115786723D02*
X128293571Y-115691485D01*
X128293571Y-115691485D02*
X128388809Y-115643866D01*
X128388809Y-115643866D02*
X128626904Y-115643866D01*
X128626904Y-115643866D02*
X128722142Y-115596247D01*
X129626904Y-115977200D02*
X129531666Y-116024819D01*
X129531666Y-116024819D02*
X129341190Y-116024819D01*
X129341190Y-116024819D02*
X129245952Y-115977200D01*
X129245952Y-115977200D02*
X129198333Y-115929580D01*
X129198333Y-115929580D02*
X129150714Y-115834342D01*
X129150714Y-115834342D02*
X129150714Y-115548628D01*
X129150714Y-115548628D02*
X129198333Y-115453390D01*
X129198333Y-115453390D02*
X129245952Y-115405771D01*
X129245952Y-115405771D02*
X129341190Y-115358152D01*
X129341190Y-115358152D02*
X129531666Y-115358152D01*
X129531666Y-115358152D02*
X129626904Y-115405771D01*
X130055476Y-116024819D02*
X130055476Y-115024819D01*
X130150714Y-115643866D02*
X130436428Y-116024819D01*
X130436428Y-115358152D02*
X130055476Y-115739104D01*
X131293571Y-115358152D02*
X131293571Y-116024819D01*
X130865000Y-115358152D02*
X130865000Y-115881961D01*
X130865000Y-115881961D02*
X130912619Y-115977200D01*
X130912619Y-115977200D02*
X131007857Y-116024819D01*
X131007857Y-116024819D02*
X131150714Y-116024819D01*
X131150714Y-116024819D02*
X131245952Y-115977200D01*
X131245952Y-115977200D02*
X131293571Y-115929580D01*
X131769762Y-115358152D02*
X131769762Y-116358152D01*
X131769762Y-115405771D02*
X131865000Y-115358152D01*
X131865000Y-115358152D02*
X132055476Y-115358152D01*
X132055476Y-115358152D02*
X132150714Y-115405771D01*
X132150714Y-115405771D02*
X132198333Y-115453390D01*
X132198333Y-115453390D02*
X132245952Y-115548628D01*
X132245952Y-115548628D02*
X132245952Y-115834342D01*
X132245952Y-115834342D02*
X132198333Y-115929580D01*
X132198333Y-115929580D02*
X132150714Y-115977200D01*
X132150714Y-115977200D02*
X132055476Y-116024819D01*
X132055476Y-116024819D02*
X131865000Y-116024819D01*
X131865000Y-116024819D02*
X131769762Y-115977200D01*
X114808095Y-116294819D02*
X115427142Y-116294819D01*
X115427142Y-116294819D02*
X115093809Y-116675771D01*
X115093809Y-116675771D02*
X115236666Y-116675771D01*
X115236666Y-116675771D02*
X115331904Y-116723390D01*
X115331904Y-116723390D02*
X115379523Y-116771009D01*
X115379523Y-116771009D02*
X115427142Y-116866247D01*
X115427142Y-116866247D02*
X115427142Y-117104342D01*
X115427142Y-117104342D02*
X115379523Y-117199580D01*
X115379523Y-117199580D02*
X115331904Y-117247200D01*
X115331904Y-117247200D02*
X115236666Y-117294819D01*
X115236666Y-117294819D02*
X114950952Y-117294819D01*
X114950952Y-117294819D02*
X114855714Y-117247200D01*
X114855714Y-117247200D02*
X114808095Y-117199580D01*
X115712857Y-116294819D02*
X116046190Y-117294819D01*
X116046190Y-117294819D02*
X116379523Y-116294819D01*
X164284819Y-58784762D02*
X164284819Y-59356190D01*
X164284819Y-59070476D02*
X163284819Y-59070476D01*
X163284819Y-59070476D02*
X163427676Y-59165714D01*
X163427676Y-59165714D02*
X163522914Y-59260952D01*
X163522914Y-59260952D02*
X163570533Y-59356190D01*
X163380057Y-58403809D02*
X163332438Y-58356190D01*
X163332438Y-58356190D02*
X163284819Y-58260952D01*
X163284819Y-58260952D02*
X163284819Y-58022857D01*
X163284819Y-58022857D02*
X163332438Y-57927619D01*
X163332438Y-57927619D02*
X163380057Y-57880000D01*
X163380057Y-57880000D02*
X163475295Y-57832381D01*
X163475295Y-57832381D02*
X163570533Y-57832381D01*
X163570533Y-57832381D02*
X163713390Y-57880000D01*
X163713390Y-57880000D02*
X164284819Y-58451428D01*
X164284819Y-58451428D02*
X164284819Y-57832381D01*
X163284819Y-57546666D02*
X164284819Y-57213333D01*
X164284819Y-57213333D02*
X163284819Y-56880000D01*
X164380057Y-56784762D02*
X164380057Y-56022857D01*
X164284819Y-55784761D02*
X163284819Y-55784761D01*
X163284819Y-55784761D02*
X163284819Y-55403809D01*
X163284819Y-55403809D02*
X163332438Y-55308571D01*
X163332438Y-55308571D02*
X163380057Y-55260952D01*
X163380057Y-55260952D02*
X163475295Y-55213333D01*
X163475295Y-55213333D02*
X163618152Y-55213333D01*
X163618152Y-55213333D02*
X163713390Y-55260952D01*
X163713390Y-55260952D02*
X163761009Y-55308571D01*
X163761009Y-55308571D02*
X163808628Y-55403809D01*
X163808628Y-55403809D02*
X163808628Y-55784761D01*
X164284819Y-54213333D02*
X163808628Y-54546666D01*
X164284819Y-54784761D02*
X163284819Y-54784761D01*
X163284819Y-54784761D02*
X163284819Y-54403809D01*
X163284819Y-54403809D02*
X163332438Y-54308571D01*
X163332438Y-54308571D02*
X163380057Y-54260952D01*
X163380057Y-54260952D02*
X163475295Y-54213333D01*
X163475295Y-54213333D02*
X163618152Y-54213333D01*
X163618152Y-54213333D02*
X163713390Y-54260952D01*
X163713390Y-54260952D02*
X163761009Y-54308571D01*
X163761009Y-54308571D02*
X163808628Y-54403809D01*
X163808628Y-54403809D02*
X163808628Y-54784761D01*
X163284819Y-53594285D02*
X163284819Y-53403809D01*
X163284819Y-53403809D02*
X163332438Y-53308571D01*
X163332438Y-53308571D02*
X163427676Y-53213333D01*
X163427676Y-53213333D02*
X163618152Y-53165714D01*
X163618152Y-53165714D02*
X163951485Y-53165714D01*
X163951485Y-53165714D02*
X164141961Y-53213333D01*
X164141961Y-53213333D02*
X164237200Y-53308571D01*
X164237200Y-53308571D02*
X164284819Y-53403809D01*
X164284819Y-53403809D02*
X164284819Y-53594285D01*
X164284819Y-53594285D02*
X164237200Y-53689523D01*
X164237200Y-53689523D02*
X164141961Y-53784761D01*
X164141961Y-53784761D02*
X163951485Y-53832380D01*
X163951485Y-53832380D02*
X163618152Y-53832380D01*
X163618152Y-53832380D02*
X163427676Y-53784761D01*
X163427676Y-53784761D02*
X163332438Y-53689523D01*
X163332438Y-53689523D02*
X163284819Y-53594285D01*
X163284819Y-52879999D02*
X163284819Y-52308571D01*
X164284819Y-52594285D02*
X163284819Y-52594285D01*
D13*
X168177198Y-75328019D02*
X168177198Y-76042304D01*
X168177198Y-76042304D02*
X168129579Y-76185161D01*
X168129579Y-76185161D02*
X168034341Y-76280400D01*
X168034341Y-76280400D02*
X167891484Y-76328019D01*
X167891484Y-76328019D02*
X167796246Y-76328019D01*
X169224817Y-76328019D02*
X168891484Y-75851828D01*
X168653389Y-76328019D02*
X168653389Y-75328019D01*
X168653389Y-75328019D02*
X169034341Y-75328019D01*
X169034341Y-75328019D02*
X169129579Y-75375638D01*
X169129579Y-75375638D02*
X169177198Y-75423257D01*
X169177198Y-75423257D02*
X169224817Y-75518495D01*
X169224817Y-75518495D02*
X169224817Y-75661352D01*
X169224817Y-75661352D02*
X169177198Y-75756590D01*
X169177198Y-75756590D02*
X169129579Y-75804209D01*
X169129579Y-75804209D02*
X169034341Y-75851828D01*
X169034341Y-75851828D02*
X168653389Y-75851828D01*
X169653389Y-76328019D02*
X169653389Y-75328019D01*
X170224817Y-76328019D02*
X169796246Y-75756590D01*
X170224817Y-75328019D02*
X169653389Y-75899447D01*
X171939103Y-75375638D02*
X171843865Y-75328019D01*
X171843865Y-75328019D02*
X171701008Y-75328019D01*
X171701008Y-75328019D02*
X171558151Y-75375638D01*
X171558151Y-75375638D02*
X171462913Y-75470876D01*
X171462913Y-75470876D02*
X171415294Y-75566114D01*
X171415294Y-75566114D02*
X171367675Y-75756590D01*
X171367675Y-75756590D02*
X171367675Y-75899447D01*
X171367675Y-75899447D02*
X171415294Y-76089923D01*
X171415294Y-76089923D02*
X171462913Y-76185161D01*
X171462913Y-76185161D02*
X171558151Y-76280400D01*
X171558151Y-76280400D02*
X171701008Y-76328019D01*
X171701008Y-76328019D02*
X171796246Y-76328019D01*
X171796246Y-76328019D02*
X171939103Y-76280400D01*
X171939103Y-76280400D02*
X171986722Y-76232780D01*
X171986722Y-76232780D02*
X171986722Y-75899447D01*
X171986722Y-75899447D02*
X171796246Y-75899447D01*
X172367675Y-75423257D02*
X172415294Y-75375638D01*
X172415294Y-75375638D02*
X172510532Y-75328019D01*
X172510532Y-75328019D02*
X172748627Y-75328019D01*
X172748627Y-75328019D02*
X172843865Y-75375638D01*
X172843865Y-75375638D02*
X172891484Y-75423257D01*
X172891484Y-75423257D02*
X172939103Y-75518495D01*
X172939103Y-75518495D02*
X172939103Y-75613733D01*
X172939103Y-75613733D02*
X172891484Y-75756590D01*
X172891484Y-75756590D02*
X172320056Y-76328019D01*
X172320056Y-76328019D02*
X172939103Y-76328019D01*
X174081961Y-75423257D02*
X174129580Y-75375638D01*
X174129580Y-75375638D02*
X174224818Y-75328019D01*
X174224818Y-75328019D02*
X174462913Y-75328019D01*
X174462913Y-75328019D02*
X174558151Y-75375638D01*
X174558151Y-75375638D02*
X174605770Y-75423257D01*
X174605770Y-75423257D02*
X174653389Y-75518495D01*
X174653389Y-75518495D02*
X174653389Y-75613733D01*
X174653389Y-75613733D02*
X174605770Y-75756590D01*
X174605770Y-75756590D02*
X174034342Y-76328019D01*
X174034342Y-76328019D02*
X174653389Y-76328019D01*
X175605770Y-76328019D02*
X175034342Y-76328019D01*
X175320056Y-76328019D02*
X175320056Y-75328019D01*
X175320056Y-75328019D02*
X175224818Y-75470876D01*
X175224818Y-75470876D02*
X175129580Y-75566114D01*
X175129580Y-75566114D02*
X175034342Y-75613733D01*
X175939104Y-75661352D02*
X176177199Y-76328019D01*
X176177199Y-76328019D02*
X176415294Y-75661352D01*
X176701009Y-75328019D02*
X177320056Y-75328019D01*
X177320056Y-75328019D02*
X176986723Y-75708971D01*
X176986723Y-75708971D02*
X177129580Y-75708971D01*
X177129580Y-75708971D02*
X177224818Y-75756590D01*
X177224818Y-75756590D02*
X177272437Y-75804209D01*
X177272437Y-75804209D02*
X177320056Y-75899447D01*
X177320056Y-75899447D02*
X177320056Y-76137542D01*
X177320056Y-76137542D02*
X177272437Y-76232780D01*
X177272437Y-76232780D02*
X177224818Y-76280400D01*
X177224818Y-76280400D02*
X177129580Y-76328019D01*
X177129580Y-76328019D02*
X176843866Y-76328019D01*
X176843866Y-76328019D02*
X176748628Y-76280400D01*
X176748628Y-76280400D02*
X176701009Y-76232780D01*
X167332684Y-78080619D02*
X167332684Y-77080619D01*
X167332684Y-77080619D02*
X167666017Y-77794904D01*
X167666017Y-77794904D02*
X167999350Y-77080619D01*
X167999350Y-77080619D02*
X167999350Y-78080619D01*
X168618398Y-78080619D02*
X168523160Y-78033000D01*
X168523160Y-78033000D02*
X168475541Y-77985380D01*
X168475541Y-77985380D02*
X168427922Y-77890142D01*
X168427922Y-77890142D02*
X168427922Y-77604428D01*
X168427922Y-77604428D02*
X168475541Y-77509190D01*
X168475541Y-77509190D02*
X168523160Y-77461571D01*
X168523160Y-77461571D02*
X168618398Y-77413952D01*
X168618398Y-77413952D02*
X168761255Y-77413952D01*
X168761255Y-77413952D02*
X168856493Y-77461571D01*
X168856493Y-77461571D02*
X168904112Y-77509190D01*
X168904112Y-77509190D02*
X168951731Y-77604428D01*
X168951731Y-77604428D02*
X168951731Y-77890142D01*
X168951731Y-77890142D02*
X168904112Y-77985380D01*
X168904112Y-77985380D02*
X168856493Y-78033000D01*
X168856493Y-78033000D02*
X168761255Y-78080619D01*
X168761255Y-78080619D02*
X168618398Y-78080619D01*
X169237446Y-77413952D02*
X169618398Y-77413952D01*
X169380303Y-77080619D02*
X169380303Y-77937761D01*
X169380303Y-77937761D02*
X169427922Y-78033000D01*
X169427922Y-78033000D02*
X169523160Y-78080619D01*
X169523160Y-78080619D02*
X169618398Y-78080619D01*
X170094589Y-78080619D02*
X169999351Y-78033000D01*
X169999351Y-78033000D02*
X169951732Y-77985380D01*
X169951732Y-77985380D02*
X169904113Y-77890142D01*
X169904113Y-77890142D02*
X169904113Y-77604428D01*
X169904113Y-77604428D02*
X169951732Y-77509190D01*
X169951732Y-77509190D02*
X169999351Y-77461571D01*
X169999351Y-77461571D02*
X170094589Y-77413952D01*
X170094589Y-77413952D02*
X170237446Y-77413952D01*
X170237446Y-77413952D02*
X170332684Y-77461571D01*
X170332684Y-77461571D02*
X170380303Y-77509190D01*
X170380303Y-77509190D02*
X170427922Y-77604428D01*
X170427922Y-77604428D02*
X170427922Y-77890142D01*
X170427922Y-77890142D02*
X170380303Y-77985380D01*
X170380303Y-77985380D02*
X170332684Y-78033000D01*
X170332684Y-78033000D02*
X170237446Y-78080619D01*
X170237446Y-78080619D02*
X170094589Y-78080619D01*
X170856494Y-78080619D02*
X170856494Y-77413952D01*
X170856494Y-77604428D02*
X170904113Y-77509190D01*
X170904113Y-77509190D02*
X170951732Y-77461571D01*
X170951732Y-77461571D02*
X171046970Y-77413952D01*
X171046970Y-77413952D02*
X171142208Y-77413952D01*
X172808875Y-77985380D02*
X172761256Y-78033000D01*
X172761256Y-78033000D02*
X172618399Y-78080619D01*
X172618399Y-78080619D02*
X172523161Y-78080619D01*
X172523161Y-78080619D02*
X172380304Y-78033000D01*
X172380304Y-78033000D02*
X172285066Y-77937761D01*
X172285066Y-77937761D02*
X172237447Y-77842523D01*
X172237447Y-77842523D02*
X172189828Y-77652047D01*
X172189828Y-77652047D02*
X172189828Y-77509190D01*
X172189828Y-77509190D02*
X172237447Y-77318714D01*
X172237447Y-77318714D02*
X172285066Y-77223476D01*
X172285066Y-77223476D02*
X172380304Y-77128238D01*
X172380304Y-77128238D02*
X172523161Y-77080619D01*
X172523161Y-77080619D02*
X172618399Y-77080619D01*
X172618399Y-77080619D02*
X172761256Y-77128238D01*
X172761256Y-77128238D02*
X172808875Y-77175857D01*
X173380304Y-78080619D02*
X173285066Y-78033000D01*
X173285066Y-78033000D02*
X173237447Y-77985380D01*
X173237447Y-77985380D02*
X173189828Y-77890142D01*
X173189828Y-77890142D02*
X173189828Y-77604428D01*
X173189828Y-77604428D02*
X173237447Y-77509190D01*
X173237447Y-77509190D02*
X173285066Y-77461571D01*
X173285066Y-77461571D02*
X173380304Y-77413952D01*
X173380304Y-77413952D02*
X173523161Y-77413952D01*
X173523161Y-77413952D02*
X173618399Y-77461571D01*
X173618399Y-77461571D02*
X173666018Y-77509190D01*
X173666018Y-77509190D02*
X173713637Y-77604428D01*
X173713637Y-77604428D02*
X173713637Y-77890142D01*
X173713637Y-77890142D02*
X173666018Y-77985380D01*
X173666018Y-77985380D02*
X173618399Y-78033000D01*
X173618399Y-78033000D02*
X173523161Y-78080619D01*
X173523161Y-78080619D02*
X173380304Y-78080619D01*
X174142209Y-77413952D02*
X174142209Y-78080619D01*
X174142209Y-77509190D02*
X174189828Y-77461571D01*
X174189828Y-77461571D02*
X174285066Y-77413952D01*
X174285066Y-77413952D02*
X174427923Y-77413952D01*
X174427923Y-77413952D02*
X174523161Y-77461571D01*
X174523161Y-77461571D02*
X174570780Y-77556809D01*
X174570780Y-77556809D02*
X174570780Y-78080619D01*
X174904114Y-77413952D02*
X175285066Y-77413952D01*
X175046971Y-77080619D02*
X175046971Y-77937761D01*
X175046971Y-77937761D02*
X175094590Y-78033000D01*
X175094590Y-78033000D02*
X175189828Y-78080619D01*
X175189828Y-78080619D02*
X175285066Y-78080619D01*
X175618400Y-78080619D02*
X175618400Y-77413952D01*
X175618400Y-77604428D02*
X175666019Y-77509190D01*
X175666019Y-77509190D02*
X175713638Y-77461571D01*
X175713638Y-77461571D02*
X175808876Y-77413952D01*
X175808876Y-77413952D02*
X175904114Y-77413952D01*
X176380305Y-78080619D02*
X176285067Y-78033000D01*
X176285067Y-78033000D02*
X176237448Y-77985380D01*
X176237448Y-77985380D02*
X176189829Y-77890142D01*
X176189829Y-77890142D02*
X176189829Y-77604428D01*
X176189829Y-77604428D02*
X176237448Y-77509190D01*
X176237448Y-77509190D02*
X176285067Y-77461571D01*
X176285067Y-77461571D02*
X176380305Y-77413952D01*
X176380305Y-77413952D02*
X176523162Y-77413952D01*
X176523162Y-77413952D02*
X176618400Y-77461571D01*
X176618400Y-77461571D02*
X176666019Y-77509190D01*
X176666019Y-77509190D02*
X176713638Y-77604428D01*
X176713638Y-77604428D02*
X176713638Y-77890142D01*
X176713638Y-77890142D02*
X176666019Y-77985380D01*
X176666019Y-77985380D02*
X176618400Y-78033000D01*
X176618400Y-78033000D02*
X176523162Y-78080619D01*
X176523162Y-78080619D02*
X176380305Y-78080619D01*
X177285067Y-78080619D02*
X177189829Y-78033000D01*
X177189829Y-78033000D02*
X177142210Y-77937761D01*
X177142210Y-77937761D02*
X177142210Y-77080619D01*
X177808877Y-78080619D02*
X177713639Y-78033000D01*
X177713639Y-78033000D02*
X177666020Y-77937761D01*
X177666020Y-77937761D02*
X177666020Y-77080619D01*
X178570782Y-78033000D02*
X178475544Y-78080619D01*
X178475544Y-78080619D02*
X178285068Y-78080619D01*
X178285068Y-78080619D02*
X178189830Y-78033000D01*
X178189830Y-78033000D02*
X178142211Y-77937761D01*
X178142211Y-77937761D02*
X178142211Y-77556809D01*
X178142211Y-77556809D02*
X178189830Y-77461571D01*
X178189830Y-77461571D02*
X178285068Y-77413952D01*
X178285068Y-77413952D02*
X178475544Y-77413952D01*
X178475544Y-77413952D02*
X178570782Y-77461571D01*
X178570782Y-77461571D02*
X178618401Y-77556809D01*
X178618401Y-77556809D02*
X178618401Y-77652047D01*
X178618401Y-77652047D02*
X178142211Y-77747285D01*
X179046973Y-78080619D02*
X179046973Y-77413952D01*
X179046973Y-77604428D02*
X179094592Y-77509190D01*
X179094592Y-77509190D02*
X179142211Y-77461571D01*
X179142211Y-77461571D02*
X179237449Y-77413952D01*
X179237449Y-77413952D02*
X179332687Y-77413952D01*
D10*
X169584999Y-58112819D02*
X169013571Y-58112819D01*
X169299285Y-58112819D02*
X169299285Y-57112819D01*
X169299285Y-57112819D02*
X169204047Y-57255676D01*
X169204047Y-57255676D02*
X169108809Y-57350914D01*
X169108809Y-57350914D02*
X169013571Y-57398533D01*
X169965952Y-57208057D02*
X170013571Y-57160438D01*
X170013571Y-57160438D02*
X170108809Y-57112819D01*
X170108809Y-57112819D02*
X170346904Y-57112819D01*
X170346904Y-57112819D02*
X170442142Y-57160438D01*
X170442142Y-57160438D02*
X170489761Y-57208057D01*
X170489761Y-57208057D02*
X170537380Y-57303295D01*
X170537380Y-57303295D02*
X170537380Y-57398533D01*
X170537380Y-57398533D02*
X170489761Y-57541390D01*
X170489761Y-57541390D02*
X169918333Y-58112819D01*
X169918333Y-58112819D02*
X170537380Y-58112819D01*
X170823095Y-57112819D02*
X171156428Y-58112819D01*
X171156428Y-58112819D02*
X171489761Y-57112819D01*
X171585000Y-58208057D02*
X172346904Y-58208057D01*
X173156428Y-58112819D02*
X172823095Y-57636628D01*
X172585000Y-58112819D02*
X172585000Y-57112819D01*
X172585000Y-57112819D02*
X172965952Y-57112819D01*
X172965952Y-57112819D02*
X173061190Y-57160438D01*
X173061190Y-57160438D02*
X173108809Y-57208057D01*
X173108809Y-57208057D02*
X173156428Y-57303295D01*
X173156428Y-57303295D02*
X173156428Y-57446152D01*
X173156428Y-57446152D02*
X173108809Y-57541390D01*
X173108809Y-57541390D02*
X173061190Y-57589009D01*
X173061190Y-57589009D02*
X172965952Y-57636628D01*
X172965952Y-57636628D02*
X172585000Y-57636628D01*
X173537381Y-57827104D02*
X174013571Y-57827104D01*
X173442143Y-58112819D02*
X173775476Y-57112819D01*
X173775476Y-57112819D02*
X174108809Y-58112819D01*
X174346905Y-57112819D02*
X174585000Y-58112819D01*
X174585000Y-58112819D02*
X174775476Y-57398533D01*
X174775476Y-57398533D02*
X174965952Y-58112819D01*
X174965952Y-58112819D02*
X175204048Y-57112819D01*
X161830609Y-67246933D02*
X161830609Y-67580266D01*
X162354419Y-67580266D02*
X161354419Y-67580266D01*
X161354419Y-67580266D02*
X161354419Y-67104076D01*
X162354419Y-66199314D02*
X162354419Y-66770742D01*
X162354419Y-66485028D02*
X161354419Y-66485028D01*
X161354419Y-66485028D02*
X161497276Y-66580266D01*
X161497276Y-66580266D02*
X161592514Y-66675504D01*
X161592514Y-66675504D02*
X161640133Y-66770742D01*
X106642819Y-108131904D02*
X107642819Y-107798571D01*
X107642819Y-107798571D02*
X106642819Y-107465238D01*
X107357104Y-107179523D02*
X107357104Y-106703333D01*
X107642819Y-107274761D02*
X106642819Y-106941428D01*
X106642819Y-106941428D02*
X107642819Y-106608095D01*
X107642819Y-105798571D02*
X107642819Y-106274761D01*
X107642819Y-106274761D02*
X106642819Y-106274761D01*
X106642819Y-105608094D02*
X107642819Y-105274761D01*
X107642819Y-105274761D02*
X106642819Y-104941428D01*
X107119009Y-104608094D02*
X107119009Y-104274761D01*
X107642819Y-104131904D02*
X107642819Y-104608094D01*
X107642819Y-104608094D02*
X106642819Y-104608094D01*
X106642819Y-104608094D02*
X106642819Y-104131904D01*
X107642819Y-102941427D02*
X106642819Y-102941427D01*
X106642819Y-102941427D02*
X107357104Y-102608094D01*
X107357104Y-102608094D02*
X106642819Y-102274761D01*
X106642819Y-102274761D02*
X107642819Y-102274761D01*
X106642819Y-101608094D02*
X106642819Y-101417618D01*
X106642819Y-101417618D02*
X106690438Y-101322380D01*
X106690438Y-101322380D02*
X106785676Y-101227142D01*
X106785676Y-101227142D02*
X106976152Y-101179523D01*
X106976152Y-101179523D02*
X107309485Y-101179523D01*
X107309485Y-101179523D02*
X107499961Y-101227142D01*
X107499961Y-101227142D02*
X107595200Y-101322380D01*
X107595200Y-101322380D02*
X107642819Y-101417618D01*
X107642819Y-101417618D02*
X107642819Y-101608094D01*
X107642819Y-101608094D02*
X107595200Y-101703332D01*
X107595200Y-101703332D02*
X107499961Y-101798570D01*
X107499961Y-101798570D02*
X107309485Y-101846189D01*
X107309485Y-101846189D02*
X106976152Y-101846189D01*
X106976152Y-101846189D02*
X106785676Y-101798570D01*
X106785676Y-101798570D02*
X106690438Y-101703332D01*
X106690438Y-101703332D02*
X106642819Y-101608094D01*
X107595200Y-100798570D02*
X107642819Y-100655713D01*
X107642819Y-100655713D02*
X107642819Y-100417618D01*
X107642819Y-100417618D02*
X107595200Y-100322380D01*
X107595200Y-100322380D02*
X107547580Y-100274761D01*
X107547580Y-100274761D02*
X107452342Y-100227142D01*
X107452342Y-100227142D02*
X107357104Y-100227142D01*
X107357104Y-100227142D02*
X107261866Y-100274761D01*
X107261866Y-100274761D02*
X107214247Y-100322380D01*
X107214247Y-100322380D02*
X107166628Y-100417618D01*
X107166628Y-100417618D02*
X107119009Y-100608094D01*
X107119009Y-100608094D02*
X107071390Y-100703332D01*
X107071390Y-100703332D02*
X107023771Y-100750951D01*
X107023771Y-100750951D02*
X106928533Y-100798570D01*
X106928533Y-100798570D02*
X106833295Y-100798570D01*
X106833295Y-100798570D02*
X106738057Y-100750951D01*
X106738057Y-100750951D02*
X106690438Y-100703332D01*
X106690438Y-100703332D02*
X106642819Y-100608094D01*
X106642819Y-100608094D02*
X106642819Y-100369999D01*
X106642819Y-100369999D02*
X106690438Y-100227142D01*
X107119009Y-99465237D02*
X107119009Y-99798570D01*
X107642819Y-99798570D02*
X106642819Y-99798570D01*
X106642819Y-99798570D02*
X106642819Y-99322380D01*
X107119009Y-98941427D02*
X107119009Y-98608094D01*
X107642819Y-98465237D02*
X107642819Y-98941427D01*
X107642819Y-98941427D02*
X106642819Y-98941427D01*
X106642819Y-98941427D02*
X106642819Y-98465237D01*
X106642819Y-98179522D02*
X106642819Y-97608094D01*
X107642819Y-97893808D02*
X106642819Y-97893808D01*
D14*
%TO.C,D5*%
X118094000Y-93292000D02*
X118094000Y-89282000D01*
X116094000Y-93292000D02*
X116094000Y-89282000D01*
X116094000Y-93292000D02*
X118094000Y-93292000D01*
D10*
%TO.C,U2*%
X141732000Y-125984000D02*
X141732000Y-124714000D01*
X149352000Y-125984000D02*
X141732000Y-125984000D01*
X136652000Y-124714000D02*
X136652000Y-63754000D01*
X149352000Y-124714000D02*
X149352000Y-125984000D01*
X154432000Y-124714000D02*
X136652000Y-124714000D01*
X141732000Y-119634000D02*
X141732000Y-124714000D01*
X149352000Y-119634000D02*
X149352000Y-124714000D01*
X149352000Y-119634000D02*
X141732000Y-119634000D01*
X139192000Y-101854000D02*
X151892000Y-101854000D01*
X151892000Y-101854000D02*
X151892000Y-89154000D01*
X139192000Y-89154000D02*
X139192000Y-101854000D01*
X151892000Y-89154000D02*
X139192000Y-89154000D01*
X144272000Y-84074000D02*
X144272000Y-80264000D01*
X146812000Y-84074000D02*
X144272000Y-84074000D01*
X144272000Y-80264000D02*
X146812000Y-80264000D01*
X146812000Y-80264000D02*
X146812000Y-84074000D01*
X139192000Y-76454000D02*
X151892000Y-76454000D01*
X151892000Y-76454000D02*
X151892000Y-63754000D01*
X140462000Y-65024000D02*
X150622000Y-65024000D01*
X150622000Y-65024000D02*
X150622000Y-63754000D01*
X136652000Y-63754000D02*
X154432000Y-63754000D01*
X139192000Y-63754000D02*
X139192000Y-76454000D01*
X140462000Y-63754000D02*
X140462000Y-65024000D01*
X154432000Y-63754000D02*
X154432000Y-124714000D01*
X146440026Y-82169000D02*
G75*
G03*
X146440026Y-82169000I-898026J0D01*
G01*
D13*
X145108000Y-93577000D02*
X144727000Y-93831000D01*
X144473000Y-93577000D01*
X144854000Y-93323000D01*
X145108000Y-93577000D01*
G36*
X145108000Y-93577000D02*
G01*
X144727000Y-93831000D01*
X144473000Y-93577000D01*
X144854000Y-93323000D01*
X145108000Y-93577000D01*
G37*
X145616000Y-93196000D02*
X145235000Y-93450000D01*
X144981000Y-93196000D01*
X145362000Y-92942000D01*
X145616000Y-93196000D01*
G36*
X145616000Y-93196000D02*
G01*
X145235000Y-93450000D01*
X144981000Y-93196000D01*
X145362000Y-92942000D01*
X145616000Y-93196000D01*
G37*
X145235000Y-92815000D02*
X144854000Y-93069000D01*
X144600000Y-92815000D01*
X144981000Y-92561000D01*
X145235000Y-92815000D01*
G36*
X145235000Y-92815000D02*
G01*
X144854000Y-93069000D01*
X144600000Y-92815000D01*
X144981000Y-92561000D01*
X145235000Y-92815000D01*
G37*
X146124000Y-92815000D02*
X145743000Y-93069000D01*
X145489000Y-92815000D01*
X145870000Y-92561000D01*
X146124000Y-92815000D01*
G36*
X146124000Y-92815000D02*
G01*
X145743000Y-93069000D01*
X145489000Y-92815000D01*
X145870000Y-92561000D01*
X146124000Y-92815000D01*
G37*
X145743000Y-92434000D02*
X145362000Y-92688000D01*
X145108000Y-92434000D01*
X145489000Y-92180000D01*
X145743000Y-92434000D01*
G36*
X145743000Y-92434000D02*
G01*
X145362000Y-92688000D01*
X145108000Y-92434000D01*
X145489000Y-92180000D01*
X145743000Y-92434000D01*
G37*
X146251000Y-92053000D02*
X145870000Y-92307000D01*
X145616000Y-92053000D01*
X145997000Y-91799000D01*
X146251000Y-92053000D01*
G36*
X146251000Y-92053000D02*
G01*
X145870000Y-92307000D01*
X145616000Y-92053000D01*
X145997000Y-91799000D01*
X146251000Y-92053000D01*
G37*
X145870000Y-91672000D02*
X145489000Y-91926000D01*
X145235000Y-91672000D01*
X145616000Y-91418000D01*
X145870000Y-91672000D01*
G36*
X145870000Y-91672000D02*
G01*
X145489000Y-91926000D01*
X145235000Y-91672000D01*
X145616000Y-91418000D01*
X145870000Y-91672000D01*
G37*
X145489000Y-91291000D02*
X145108000Y-91545000D01*
X144854000Y-91291000D01*
X145235000Y-91037000D01*
X145489000Y-91291000D01*
G36*
X145489000Y-91291000D02*
G01*
X145108000Y-91545000D01*
X144854000Y-91291000D01*
X145235000Y-91037000D01*
X145489000Y-91291000D01*
G37*
D14*
%TO.C,D1*%
X164167500Y-133977000D02*
X164167500Y-131707000D01*
X164167500Y-131707000D02*
X160107500Y-131707000D01*
X160107500Y-133977000D02*
X164167500Y-133977000D01*
%TO.C,TP4*%
X169394000Y-69850000D02*
G75*
G03*
X169394000Y-69850000I-1500000J0D01*
G01*
%TO.C,TP3*%
X174855000Y-69850000D02*
G75*
G03*
X174855000Y-69850000I-1500000J0D01*
G01*
%TO.C,C5*%
X140766748Y-61066000D02*
X142189252Y-61066000D01*
X140766748Y-62886000D02*
X142189252Y-62886000D01*
%TO.C,TP6*%
X140184000Y-53594000D02*
G75*
G03*
X140184000Y-53594000I-1500000J0D01*
G01*
%TO.C,J1*%
X107230000Y-88095000D02*
X108650000Y-88095000D01*
X107230000Y-93855000D02*
X107230000Y-88095000D01*
X107230000Y-95375000D02*
X107230000Y-95685000D01*
X107230000Y-95685000D02*
X114100000Y-95685000D01*
X108650000Y-88095000D02*
X108650000Y-88595000D01*
X108650000Y-88595000D02*
X112680000Y-88595000D01*
X112680000Y-88095000D02*
X114100000Y-88095000D01*
X112680000Y-88595000D02*
X112680000Y-88095000D01*
X114100000Y-88095000D02*
X114100000Y-93855000D01*
X114100000Y-95685000D02*
X114100000Y-95375000D01*
%TO.C,R6*%
X167732064Y-60600000D02*
X166277936Y-60600000D01*
X167732064Y-58780000D02*
X166277936Y-58780000D01*
%TO.C,D2*%
X164167500Y-130167000D02*
X164167500Y-127897000D01*
X164167500Y-127897000D02*
X160107500Y-127897000D01*
X160107500Y-130167000D02*
X164167500Y-130167000D01*
%TO.C,C2*%
X121843748Y-96194500D02*
X123266252Y-96194500D01*
X121843748Y-98014500D02*
X123266252Y-98014500D01*
%TO.C,SJ1*%
X123940000Y-101935000D02*
X123940000Y-102535000D01*
X123240000Y-103235000D02*
X121840000Y-103235000D01*
X121840000Y-101235000D02*
X123240000Y-101235000D01*
X121140000Y-102535000D02*
X121140000Y-101935000D01*
X123240000Y-103235000D02*
G75*
G03*
X123940000Y-102535000I1J699999D01*
G01*
X123940000Y-101935000D02*
G75*
G03*
X123240000Y-101235000I-699999J1D01*
G01*
X121140000Y-102535000D02*
G75*
G03*
X121840000Y-103235000I700000J0D01*
G01*
X121840000Y-101235000D02*
G75*
G03*
X121140000Y-101935000I0J-700000D01*
G01*
D10*
%TO.C,SJ2*%
X157080000Y-78480000D02*
X156580000Y-77980000D01*
X157880000Y-78480000D02*
X157080000Y-78480000D01*
X156580000Y-77980000D02*
X156580000Y-74380000D01*
X158380000Y-77980000D02*
X157880000Y-78480000D01*
X156580000Y-74380000D02*
X157080000Y-73880000D01*
X158380000Y-74380000D02*
X158380000Y-77980000D01*
X157080000Y-73880000D02*
X157880000Y-73880000D01*
X157880000Y-73880000D02*
X158380000Y-74380000D01*
D14*
%TO.C,J2*%
X158875000Y-105985000D02*
X158875000Y-108835000D01*
X159115000Y-106225000D02*
X159115000Y-116045000D01*
X159115000Y-116045000D02*
X162215000Y-116045000D01*
X161725000Y-105985000D02*
X158875000Y-105985000D01*
X162215000Y-116045000D02*
X162215000Y-117445000D01*
X162215000Y-117445000D02*
X164025000Y-117445000D01*
X164025000Y-106225000D02*
X159115000Y-106225000D01*
X164025000Y-106225000D02*
X168935000Y-106225000D01*
X165835000Y-116045000D02*
X165835000Y-117445000D01*
X165835000Y-117445000D02*
X164025000Y-117445000D01*
X168935000Y-106225000D02*
X168935000Y-116045000D01*
X168935000Y-116045000D02*
X165835000Y-116045000D01*
%TO.C,U7*%
X135853800Y-60541800D02*
X135853800Y-55900800D01*
X135853800Y-60541800D02*
X125613800Y-60541800D01*
X135853800Y-59031800D02*
X125613800Y-59031800D01*
X135853800Y-55900800D02*
X125613800Y-55900800D01*
X132583800Y-60541800D02*
X132583800Y-59031800D01*
X128882800Y-60541800D02*
X128882800Y-59031800D01*
X125613800Y-60541800D02*
X125613800Y-55900800D01*
%TO.C,C1*%
X128193748Y-107675000D02*
X129616252Y-107675000D01*
X128193748Y-109495000D02*
X129616252Y-109495000D01*
%TO.C,R2*%
X126907936Y-101325000D02*
X128362064Y-101325000D01*
X126907936Y-103145000D02*
X128362064Y-103145000D01*
%TO.C,R8*%
X146313536Y-60092000D02*
X147767664Y-60092000D01*
X146313536Y-58272000D02*
X147767664Y-58272000D01*
%TO.C,U4*%
X133520000Y-119580000D02*
X133520000Y-121000000D01*
X127760000Y-119580000D02*
X133520000Y-119580000D01*
X126240000Y-119580000D02*
X125930000Y-119580000D01*
X125930000Y-119580000D02*
X125930000Y-129450000D01*
X133520000Y-121000000D02*
X133020000Y-121000000D01*
X133020000Y-121000000D02*
X133020000Y-128030000D01*
X133520000Y-128030000D02*
X133520000Y-129450000D01*
X133020000Y-128030000D02*
X133520000Y-128030000D01*
X133520000Y-129450000D02*
X127760000Y-129450000D01*
X125930000Y-129450000D02*
X126240000Y-129450000D01*
%TO.C,R5*%
X158390000Y-86902936D02*
X158390000Y-88357064D01*
X156570000Y-86902936D02*
X156570000Y-88357064D01*
%TO.C,D10*%
X143712200Y-60418600D02*
X143712200Y-58148600D01*
X143712200Y-58148600D02*
X139827200Y-58148600D01*
X139827200Y-60418600D02*
X143712200Y-60418600D01*
%TO.C,R7*%
X158390000Y-55152936D02*
X158390000Y-56607064D01*
X156570000Y-55152936D02*
X156570000Y-56607064D01*
%TO.C,G\u002A\u002A\u002A*%
G36*
X120856433Y-45813069D02*
G01*
X120930049Y-46019086D01*
X121025253Y-46321407D01*
X121107876Y-46604767D01*
X121233670Y-47016468D01*
X121371339Y-47413369D01*
X121500094Y-47737636D01*
X121562632Y-47869898D01*
X121661970Y-48043128D01*
X121770677Y-48180209D01*
X121914974Y-48295042D01*
X122121082Y-48401526D01*
X122415219Y-48513563D01*
X122823606Y-48645052D01*
X123289012Y-48785128D01*
X123645099Y-48892625D01*
X123935212Y-48983439D01*
X124124527Y-49046467D01*
X124179738Y-49069117D01*
X124117159Y-49102072D01*
X123926450Y-49166451D01*
X123643249Y-49250615D01*
X123511120Y-49287469D01*
X122894576Y-49466970D01*
X122423550Y-49629772D01*
X122076208Y-49785022D01*
X121830720Y-49941867D01*
X121729403Y-50034011D01*
X121573550Y-50266344D01*
X121401985Y-50644120D01*
X121223181Y-51145185D01*
X121045616Y-51747384D01*
X120984530Y-51981100D01*
X120914216Y-52226818D01*
X120852490Y-52388247D01*
X120823719Y-52425600D01*
X120782051Y-52349663D01*
X120711685Y-52146663D01*
X120624983Y-51853813D01*
X120585455Y-51708388D01*
X120422039Y-51120455D01*
X120277867Y-50674930D01*
X120141810Y-50347635D01*
X120002742Y-50114391D01*
X119849535Y-49951017D01*
X119740894Y-49873174D01*
X119538937Y-49773744D01*
X119218750Y-49644906D01*
X118824971Y-49503588D01*
X118417903Y-49371512D01*
X117402247Y-49059793D01*
X117861956Y-48928517D01*
X118216658Y-48827646D01*
X118617765Y-48714176D01*
X118829666Y-48654493D01*
X119307597Y-48500886D01*
X119652478Y-48335685D01*
X119900015Y-48133320D01*
X120085913Y-47868216D01*
X120171770Y-47693275D01*
X120294640Y-47380515D01*
X120430065Y-46978887D01*
X120552723Y-46564564D01*
X120575872Y-46477767D01*
X120665563Y-46151680D01*
X120744318Y-45898798D01*
X120800267Y-45755790D01*
X120815711Y-45736934D01*
X120856433Y-45813069D01*
G37*
G36*
X135095044Y-45670767D02*
G01*
X135164729Y-45873030D01*
X135262911Y-46185284D01*
X135381134Y-46580960D01*
X135462197Y-46861453D01*
X135678805Y-47588431D01*
X135873727Y-48167999D01*
X136055738Y-48619320D01*
X136233610Y-48961555D01*
X136416118Y-49213868D01*
X136612034Y-49395418D01*
X136627610Y-49406786D01*
X136807700Y-49512076D01*
X137084189Y-49635512D01*
X137470046Y-49781682D01*
X137978243Y-49955173D01*
X138621750Y-50160574D01*
X139413539Y-50402473D01*
X139603320Y-50459371D01*
X140141641Y-50620307D01*
X139179987Y-50900913D01*
X138412526Y-51125882D01*
X137787707Y-51319579D01*
X137286189Y-51500094D01*
X136888636Y-51685516D01*
X136575708Y-51893934D01*
X136328066Y-52143436D01*
X136126373Y-52452112D01*
X135951289Y-52838051D01*
X135783476Y-53319341D01*
X135603596Y-53914072D01*
X135470984Y-54370246D01*
X135066093Y-55764559D01*
X134921971Y-55259246D01*
X134687211Y-54444697D01*
X134487802Y-53776945D01*
X134316422Y-53238917D01*
X134165749Y-52813543D01*
X134028461Y-52483750D01*
X133897237Y-52232466D01*
X133764755Y-52042620D01*
X133623693Y-51897141D01*
X133466728Y-51778956D01*
X133415250Y-51746151D01*
X133215906Y-51650434D01*
X132877037Y-51518900D01*
X132422660Y-51359632D01*
X131876796Y-51180715D01*
X131263461Y-50990231D01*
X130606674Y-50796264D01*
X130513666Y-50769589D01*
X130005666Y-50624429D01*
X130683000Y-50420434D01*
X131403352Y-50202618D01*
X131980342Y-50025321D01*
X132433096Y-49881394D01*
X132780736Y-49763688D01*
X133042386Y-49665056D01*
X133237172Y-49578347D01*
X133384217Y-49496413D01*
X133502645Y-49412106D01*
X133597696Y-49330890D01*
X133761730Y-49164739D01*
X133906443Y-48970616D01*
X134042219Y-48724858D01*
X134179445Y-48403805D01*
X134328506Y-47983797D01*
X134499788Y-47441173D01*
X134652516Y-46927763D01*
X134782804Y-46487213D01*
X134897767Y-46107203D01*
X134988651Y-45815987D01*
X135046703Y-45641821D01*
X135062313Y-45605065D01*
X135095044Y-45670767D01*
G37*
G36*
X126213883Y-47270501D02*
G01*
X126280289Y-47475774D01*
X126375472Y-47790604D01*
X126491248Y-48188166D01*
X126570940Y-48468548D01*
X126836571Y-49396831D01*
X127069930Y-50175770D01*
X127277627Y-50820831D01*
X127466273Y-51347477D01*
X127642479Y-51771175D01*
X127812854Y-52107388D01*
X127984009Y-52371582D01*
X128162554Y-52579222D01*
X128355101Y-52745773D01*
X128418816Y-52791581D01*
X128622240Y-52923149D01*
X128842944Y-53044137D01*
X129103252Y-53162867D01*
X129425487Y-53287657D01*
X129831971Y-53426826D01*
X130345025Y-53588695D01*
X130986974Y-53781581D01*
X131404581Y-53904345D01*
X132043677Y-54091107D01*
X132537580Y-54235733D01*
X132903473Y-54344116D01*
X133158543Y-54422153D01*
X133319973Y-54475740D01*
X133404948Y-54510771D01*
X133430654Y-54533143D01*
X133414274Y-54548750D01*
X133372993Y-54563488D01*
X133350000Y-54571743D01*
X133232621Y-54609388D01*
X132979227Y-54685723D01*
X132616598Y-54792846D01*
X132171515Y-54922857D01*
X131670760Y-55067854D01*
X131576089Y-55095133D01*
X130729090Y-55343873D01*
X130029021Y-55562879D01*
X129458064Y-55761554D01*
X128998401Y-55949303D01*
X128632214Y-56135530D01*
X128341685Y-56329639D01*
X128108995Y-56541034D01*
X127916328Y-56779119D01*
X127745864Y-57053298D01*
X127697308Y-57142273D01*
X127599524Y-57362959D01*
X127466209Y-57717674D01*
X127307218Y-58177306D01*
X127132405Y-58712747D01*
X126951622Y-59294887D01*
X126828172Y-59709876D01*
X126663101Y-60272876D01*
X126513067Y-60779841D01*
X126384682Y-61208814D01*
X126284558Y-61537840D01*
X126219305Y-61744962D01*
X126196154Y-61808814D01*
X126187344Y-61819853D01*
X126178027Y-61819690D01*
X126162515Y-61789983D01*
X126135120Y-61712385D01*
X126090154Y-61568553D01*
X126021931Y-61340141D01*
X125924762Y-61008805D01*
X125792960Y-60556200D01*
X125620837Y-59963981D01*
X125570735Y-59791600D01*
X125354629Y-59054905D01*
X125174709Y-58460618D01*
X125022938Y-57987692D01*
X124891277Y-57615080D01*
X124771688Y-57321732D01*
X124656133Y-57086602D01*
X124536576Y-56888642D01*
X124404977Y-56706804D01*
X124381001Y-56676198D01*
X124200999Y-56474325D01*
X123987818Y-56292570D01*
X123722247Y-56122226D01*
X123385077Y-55954588D01*
X122957095Y-55780952D01*
X122419093Y-55592611D01*
X121751860Y-55380862D01*
X121073333Y-55177316D01*
X120527417Y-55016058D01*
X120031651Y-54868963D01*
X119610534Y-54743354D01*
X119288563Y-54646551D01*
X119090236Y-54585876D01*
X119041333Y-54570057D01*
X119075803Y-54532851D01*
X119249960Y-54457894D01*
X119540571Y-54353596D01*
X119924400Y-54228368D01*
X120311333Y-54110345D01*
X121195636Y-53845630D01*
X121932897Y-53617388D01*
X122539589Y-53418096D01*
X123032188Y-53240230D01*
X123427169Y-53076264D01*
X123741005Y-52918674D01*
X123990172Y-52759937D01*
X124191145Y-52592527D01*
X124360397Y-52408920D01*
X124514404Y-52201592D01*
X124525196Y-52185765D01*
X124627722Y-52029483D01*
X124718099Y-51874064D01*
X124803660Y-51698871D01*
X124891736Y-51483266D01*
X124989660Y-51206611D01*
X125104765Y-50848270D01*
X125244383Y-50387604D01*
X125415845Y-49803977D01*
X125612074Y-49126660D01*
X125768258Y-48588155D01*
X125909142Y-48106841D01*
X126027915Y-47705623D01*
X126117766Y-47407407D01*
X126171885Y-47235099D01*
X126184437Y-47201607D01*
X126213883Y-47270501D01*
G37*
%TO.C,C3*%
X136758000Y-127343248D02*
X136758000Y-128765752D01*
X138578000Y-127343248D02*
X138578000Y-128765752D01*
%TO.C,R3*%
X126907936Y-96194500D02*
X128362064Y-96194500D01*
X126907936Y-98014500D02*
X128362064Y-98014500D01*
%TO.C,R4*%
X158390000Y-81187936D02*
X158390000Y-82642064D01*
X156570000Y-81187936D02*
X156570000Y-82642064D01*
%TO.C,COMMISIONING_PWR1*%
X182120000Y-72450000D02*
X182120000Y-69600000D01*
X181880000Y-72210000D02*
X181880000Y-62390000D01*
X181880000Y-62390000D02*
X180880000Y-62390000D01*
X180880000Y-62390000D02*
X180880000Y-60990000D01*
X180880000Y-60990000D02*
X179070000Y-60990000D01*
X179270000Y-72450000D02*
X182120000Y-72450000D01*
X179070000Y-72210000D02*
X181880000Y-72210000D01*
X179070000Y-72210000D02*
X176260000Y-72210000D01*
X177260000Y-62390000D02*
X177260000Y-60990000D01*
X177260000Y-60990000D02*
X179070000Y-60990000D01*
X176260000Y-72210000D02*
X176260000Y-62390000D01*
X176260000Y-62390000D02*
X177260000Y-62390000D01*
%TO.C,U8*%
X181015000Y-111545000D02*
X181015000Y-106904000D01*
X181015000Y-111545000D02*
X170775000Y-111545000D01*
X181015000Y-110035000D02*
X170775000Y-110035000D01*
X181015000Y-106904000D02*
X170775000Y-106904000D01*
X177745000Y-111545000D02*
X177745000Y-110035000D01*
X174044000Y-111545000D02*
X174044000Y-110035000D01*
X170775000Y-111545000D02*
X170775000Y-106904000D01*
%TO.C,R9*%
X118724000Y-107433064D02*
X118724000Y-105978936D01*
X120544000Y-107433064D02*
X120544000Y-105978936D01*
%TO.C,D6*%
X156345000Y-95805000D02*
X158615000Y-95805000D01*
X158615000Y-95805000D02*
X158615000Y-91745000D01*
X156345000Y-91745000D02*
X156345000Y-95805000D01*
%TO.C,C4*%
X147777252Y-62886000D02*
X146354748Y-62886000D01*
X147777252Y-61066000D02*
X146354748Y-61066000D01*
%TO.C,D3*%
X164167500Y-126015000D02*
X164167500Y-123745000D01*
X164167500Y-123745000D02*
X160107500Y-123745000D01*
X160107500Y-126015000D02*
X164167500Y-126015000D01*
%TO.C,G\u002A\u002A\u002A*%
G36*
X116781083Y-65080756D02*
G01*
X116881954Y-65435458D01*
X116995424Y-65836565D01*
X117055107Y-66048466D01*
X117208714Y-66526397D01*
X117373915Y-66871278D01*
X117576280Y-67118815D01*
X117841384Y-67304713D01*
X118016325Y-67390570D01*
X118329085Y-67513440D01*
X118730713Y-67648865D01*
X119145036Y-67771523D01*
X119231833Y-67794672D01*
X119557920Y-67884363D01*
X119810802Y-67963118D01*
X119953810Y-68019067D01*
X119972666Y-68034511D01*
X119896531Y-68075233D01*
X119690514Y-68148849D01*
X119388193Y-68244053D01*
X119104833Y-68326676D01*
X118693132Y-68452470D01*
X118296231Y-68590139D01*
X117971964Y-68718894D01*
X117839702Y-68781432D01*
X117666472Y-68880770D01*
X117529391Y-68989477D01*
X117414558Y-69133774D01*
X117308074Y-69339882D01*
X117196037Y-69634019D01*
X117064548Y-70042406D01*
X116924472Y-70507812D01*
X116816975Y-70863899D01*
X116726161Y-71154012D01*
X116663133Y-71343327D01*
X116640483Y-71398538D01*
X116607528Y-71335959D01*
X116543149Y-71145250D01*
X116458985Y-70862049D01*
X116422131Y-70729920D01*
X116242630Y-70113376D01*
X116079828Y-69642350D01*
X115924578Y-69295008D01*
X115767733Y-69049520D01*
X115675589Y-68948203D01*
X115443256Y-68792350D01*
X115065480Y-68620785D01*
X114564415Y-68441981D01*
X113962216Y-68264416D01*
X113728500Y-68203330D01*
X113482782Y-68133016D01*
X113321353Y-68071290D01*
X113284000Y-68042519D01*
X113359937Y-68000851D01*
X113562937Y-67930485D01*
X113855787Y-67843783D01*
X114001212Y-67804255D01*
X114589145Y-67640839D01*
X115034670Y-67496667D01*
X115361965Y-67360610D01*
X115595209Y-67221542D01*
X115758583Y-67068335D01*
X115836426Y-66959694D01*
X115935856Y-66757737D01*
X116064694Y-66437550D01*
X116206012Y-66043771D01*
X116338088Y-65636703D01*
X116649807Y-64621047D01*
X116781083Y-65080756D01*
G37*
G36*
X115289166Y-77901800D02*
G01*
X115506982Y-78622152D01*
X115684279Y-79199142D01*
X115828206Y-79651896D01*
X115945912Y-79999536D01*
X116044544Y-80261186D01*
X116131253Y-80455972D01*
X116213187Y-80603017D01*
X116297494Y-80721445D01*
X116378710Y-80816496D01*
X116544861Y-80980530D01*
X116738984Y-81125243D01*
X116984742Y-81261019D01*
X117305795Y-81398245D01*
X117725803Y-81547306D01*
X118268427Y-81718588D01*
X118781837Y-81871316D01*
X119222387Y-82001604D01*
X119602397Y-82116567D01*
X119893613Y-82207451D01*
X120067779Y-82265503D01*
X120104535Y-82281113D01*
X120038833Y-82313844D01*
X119836570Y-82383529D01*
X119524316Y-82481711D01*
X119128640Y-82599934D01*
X118848147Y-82680997D01*
X118121169Y-82897605D01*
X117541601Y-83092527D01*
X117090280Y-83274538D01*
X116748045Y-83452410D01*
X116495732Y-83634918D01*
X116314182Y-83830834D01*
X116302814Y-83846410D01*
X116197524Y-84026500D01*
X116074088Y-84302989D01*
X115927918Y-84688846D01*
X115754427Y-85197043D01*
X115549026Y-85840550D01*
X115307127Y-86632339D01*
X115250229Y-86822120D01*
X115089293Y-87360441D01*
X114808687Y-86398787D01*
X114583718Y-85631326D01*
X114390021Y-85006507D01*
X114209506Y-84504989D01*
X114024084Y-84107436D01*
X113815666Y-83794508D01*
X113566164Y-83546866D01*
X113257488Y-83345173D01*
X112871549Y-83170089D01*
X112390259Y-83002276D01*
X111795528Y-82822396D01*
X111339354Y-82689784D01*
X109945041Y-82284893D01*
X110450354Y-82140771D01*
X111264903Y-81906011D01*
X111932655Y-81706602D01*
X112470683Y-81535222D01*
X112896057Y-81384549D01*
X113225850Y-81247261D01*
X113477134Y-81116037D01*
X113666980Y-80983555D01*
X113812459Y-80842493D01*
X113930644Y-80685528D01*
X113963449Y-80634050D01*
X114059166Y-80434706D01*
X114190700Y-80095837D01*
X114349968Y-79641460D01*
X114528885Y-79095596D01*
X114719369Y-78482261D01*
X114913336Y-77825474D01*
X114940011Y-77732466D01*
X115085171Y-77224466D01*
X115289166Y-77901800D01*
G37*
G36*
X111176749Y-66294603D02*
G01*
X111251706Y-66468760D01*
X111356004Y-66759371D01*
X111481232Y-67143200D01*
X111599255Y-67530133D01*
X111863970Y-68414436D01*
X112092212Y-69151697D01*
X112291504Y-69758389D01*
X112469370Y-70250988D01*
X112633336Y-70645969D01*
X112790926Y-70959805D01*
X112949663Y-71208972D01*
X113117073Y-71409945D01*
X113300680Y-71579197D01*
X113508008Y-71733204D01*
X113523835Y-71743996D01*
X113680117Y-71846522D01*
X113835536Y-71936899D01*
X114010729Y-72022460D01*
X114226334Y-72110536D01*
X114502989Y-72208460D01*
X114861330Y-72323565D01*
X115321996Y-72463183D01*
X115905623Y-72634645D01*
X116582940Y-72830874D01*
X117121445Y-72987058D01*
X117602759Y-73127942D01*
X118003977Y-73246715D01*
X118302193Y-73336566D01*
X118474501Y-73390685D01*
X118507993Y-73403237D01*
X118439099Y-73432683D01*
X118233826Y-73499089D01*
X117918996Y-73594272D01*
X117521434Y-73710048D01*
X117241052Y-73789740D01*
X116312769Y-74055371D01*
X115533830Y-74288730D01*
X114888769Y-74496427D01*
X114362123Y-74685073D01*
X113938425Y-74861279D01*
X113602212Y-75031654D01*
X113338018Y-75202809D01*
X113130378Y-75381354D01*
X112963827Y-75573901D01*
X112918019Y-75637616D01*
X112786451Y-75841040D01*
X112665463Y-76061744D01*
X112546733Y-76322052D01*
X112421943Y-76644287D01*
X112282774Y-77050771D01*
X112120905Y-77563825D01*
X111928019Y-78205774D01*
X111805255Y-78623381D01*
X111618493Y-79262477D01*
X111473867Y-79756380D01*
X111365484Y-80122273D01*
X111287447Y-80377343D01*
X111233860Y-80538773D01*
X111198829Y-80623748D01*
X111176457Y-80649454D01*
X111160850Y-80633074D01*
X111146112Y-80591793D01*
X111137857Y-80568800D01*
X111100212Y-80451421D01*
X111023877Y-80198027D01*
X110916754Y-79835398D01*
X110786743Y-79390315D01*
X110641746Y-78889560D01*
X110614467Y-78794889D01*
X110365727Y-77947890D01*
X110146721Y-77247821D01*
X109948046Y-76676864D01*
X109760297Y-76217201D01*
X109574070Y-75851014D01*
X109379961Y-75560485D01*
X109168566Y-75327795D01*
X108930481Y-75135128D01*
X108656302Y-74964664D01*
X108567327Y-74916108D01*
X108346641Y-74818324D01*
X107991926Y-74685009D01*
X107532294Y-74526018D01*
X106996853Y-74351205D01*
X106414713Y-74170422D01*
X105999724Y-74046972D01*
X105436724Y-73881901D01*
X104929759Y-73731867D01*
X104500786Y-73603482D01*
X104171760Y-73503358D01*
X103964638Y-73438105D01*
X103900786Y-73414954D01*
X103889747Y-73406144D01*
X103889910Y-73396827D01*
X103919617Y-73381315D01*
X103997215Y-73353920D01*
X104141047Y-73308954D01*
X104369459Y-73240731D01*
X104700795Y-73143562D01*
X105153400Y-73011760D01*
X105745619Y-72839637D01*
X105918000Y-72789535D01*
X106654695Y-72573429D01*
X107248982Y-72393509D01*
X107721908Y-72241738D01*
X108094520Y-72110077D01*
X108387868Y-71990488D01*
X108622998Y-71874933D01*
X108820958Y-71755376D01*
X109002796Y-71623777D01*
X109033402Y-71599801D01*
X109235275Y-71419799D01*
X109417030Y-71206618D01*
X109587374Y-70941047D01*
X109755012Y-70603877D01*
X109928648Y-70175895D01*
X110116989Y-69637893D01*
X110328738Y-68970660D01*
X110532284Y-68292133D01*
X110693542Y-67746217D01*
X110840637Y-67250451D01*
X110966246Y-66829334D01*
X111063049Y-66507363D01*
X111123724Y-66309036D01*
X111139543Y-66260133D01*
X111176749Y-66294603D01*
G37*
%TO.C,IC1*%
X126840000Y-104300000D02*
X126840000Y-104725000D01*
X126665000Y-106520000D02*
X126840000Y-106520000D01*
X126665000Y-104300000D02*
X126840000Y-104300000D01*
X124795000Y-106520000D02*
X124620000Y-106520000D01*
X124795000Y-104300000D02*
X124620000Y-104300000D01*
X124620000Y-106520000D02*
X124620000Y-106095000D01*
X124620000Y-104300000D02*
X124620000Y-104725000D01*
%TO.C,J3*%
X170120000Y-123700000D02*
X172970000Y-123700000D01*
X170360000Y-123460000D02*
X180180000Y-123460000D01*
X180180000Y-123460000D02*
X180180000Y-122460000D01*
X180180000Y-122460000D02*
X181580000Y-122460000D01*
X181580000Y-122460000D02*
X181580000Y-120650000D01*
X170120000Y-120850000D02*
X170120000Y-123700000D01*
X170360000Y-120650000D02*
X170360000Y-123460000D01*
X170360000Y-120650000D02*
X170360000Y-117840000D01*
X180180000Y-118840000D02*
X181580000Y-118840000D01*
X181580000Y-118840000D02*
X181580000Y-120650000D01*
X170360000Y-117840000D02*
X180180000Y-117840000D01*
X180180000Y-117840000D02*
X180180000Y-118840000D01*
%TO.C,D8*%
X165670000Y-62485000D02*
X165670000Y-65785000D01*
X165670000Y-62485000D02*
X172680000Y-62485000D01*
X165670000Y-65785000D02*
X172680000Y-65785000D01*
%TO.C,R1*%
X167788000Y-121726936D02*
X167788000Y-123181064D01*
X165968000Y-121726936D02*
X165968000Y-123181064D01*
%TO.C,TP5*%
X159132400Y-60096400D02*
G75*
G03*
X159132400Y-60096400I-1500000J0D01*
G01*
%TO.C,D4*%
X164167500Y-122420000D02*
X164167500Y-120150000D01*
X164167500Y-120150000D02*
X160107500Y-120150000D01*
X160107500Y-122420000D02*
X164167500Y-122420000D01*
%TO.C,U3*%
X121735500Y-86070000D02*
X127704500Y-86070000D01*
X120770000Y-94145000D02*
X135770000Y-94145000D01*
X135770000Y-94145000D02*
X135770000Y-60795000D01*
X135770000Y-60795000D02*
X120770000Y-60795000D01*
X120770000Y-60795000D02*
X120770000Y-94145000D01*
G36*
X126772064Y-87560219D02*
G01*
X126803427Y-87573570D01*
X126827750Y-87587980D01*
X126840680Y-87609287D01*
X126845733Y-87647239D01*
X126846471Y-87692866D01*
X126846471Y-87792549D01*
X127040816Y-87886001D01*
X127120703Y-87924725D01*
X127175013Y-87952744D01*
X127208679Y-87973894D01*
X127226636Y-87992012D01*
X127233818Y-88010933D01*
X127235158Y-88034494D01*
X127235160Y-88037098D01*
X127232904Y-88075616D01*
X127227377Y-88094387D01*
X127226403Y-88094743D01*
X127208670Y-88087606D01*
X127167259Y-88068251D01*
X127108632Y-88039759D01*
X127049265Y-88010245D01*
X126979982Y-87976212D01*
X126921251Y-87948734D01*
X126879936Y-87930935D01*
X126863678Y-87925747D01*
X126854133Y-87941086D01*
X126847921Y-87980935D01*
X126846471Y-88018695D01*
X126845212Y-88069610D01*
X126841964Y-88103371D01*
X126838816Y-88111642D01*
X126819481Y-88105381D01*
X126788118Y-88092030D01*
X126745074Y-88072418D01*
X126745074Y-87813188D01*
X126745544Y-87723914D01*
X126746842Y-87647927D01*
X126748797Y-87591004D01*
X126751238Y-87558922D01*
X126752728Y-87553958D01*
X126772064Y-87560219D01*
G37*
G36*
X126885943Y-86550931D02*
G01*
X126943377Y-86624025D01*
X126987471Y-86675631D01*
X127024685Y-86711653D01*
X127061479Y-86737995D01*
X127104314Y-86760563D01*
X127126307Y-86770625D01*
X127182880Y-86796842D01*
X127215204Y-86816792D01*
X127230106Y-86837501D01*
X127234413Y-86865996D01*
X127234706Y-86882201D01*
X127232892Y-86922960D01*
X127227826Y-86944543D01*
X127226229Y-86945574D01*
X127207786Y-86938483D01*
X127167791Y-86919850D01*
X127114728Y-86893633D01*
X127112157Y-86892332D01*
X127007017Y-86839089D01*
X126905619Y-86874334D01*
X126847099Y-86894847D01*
X126798091Y-86912327D01*
X126773494Y-86921378D01*
X126753966Y-86924838D01*
X126746660Y-86909725D01*
X126748083Y-86868674D01*
X126748144Y-86867933D01*
X126754575Y-86826357D01*
X126771329Y-86801729D01*
X126807902Y-86782889D01*
X126826492Y-86775836D01*
X126869652Y-86756774D01*
X126895299Y-86739285D01*
X126898472Y-86733206D01*
X126888600Y-86712883D01*
X126863370Y-86673424D01*
X126827833Y-86622640D01*
X126820234Y-86612222D01*
X126779358Y-86553472D01*
X126756615Y-86510572D01*
X126747911Y-86473909D01*
X126748254Y-86443226D01*
X126753524Y-86379440D01*
X126885943Y-86550931D01*
G37*
G36*
X126821918Y-89966560D02*
G01*
X126880633Y-89986587D01*
X126960814Y-90020704D01*
X127035494Y-90055800D01*
X127103614Y-90092423D01*
X127155713Y-90125259D01*
X127176012Y-90141573D01*
X127197250Y-90163308D01*
X127211715Y-90184288D01*
X127220928Y-90211445D01*
X127226411Y-90251707D01*
X127229684Y-90312005D01*
X127232226Y-90397699D01*
X127233376Y-90478270D01*
X127232470Y-90546320D01*
X127229731Y-90594857D01*
X127225385Y-90616889D01*
X127225185Y-90617116D01*
X127199377Y-90628504D01*
X127156815Y-90624794D01*
X127124658Y-90614722D01*
X127093874Y-90605081D01*
X127006933Y-90568463D01*
X126979554Y-90555878D01*
X126892809Y-90514570D01*
X126831699Y-90480056D01*
X126791544Y-90445145D01*
X126767660Y-90402643D01*
X126760971Y-90371476D01*
X126846471Y-90371476D01*
X126981012Y-90432977D01*
X127042327Y-90460560D01*
X127091267Y-90481742D01*
X127120263Y-90493283D01*
X127124658Y-90494477D01*
X127128876Y-90478909D01*
X127132058Y-90437522D01*
X127133667Y-90378295D01*
X127133763Y-90358575D01*
X127133763Y-90222673D01*
X127008966Y-90164230D01*
X126948589Y-90136981D01*
X126899064Y-90116510D01*
X126869002Y-90106321D01*
X126865320Y-90105787D01*
X126854637Y-90122297D01*
X126848290Y-90170767D01*
X126846471Y-90238632D01*
X126846471Y-90371476D01*
X126760971Y-90371476D01*
X126755366Y-90345361D01*
X126749981Y-90266106D01*
X126747988Y-90200172D01*
X126745924Y-90098463D01*
X126748554Y-90027393D01*
X126759609Y-89983817D01*
X126782820Y-89964587D01*
X126821918Y-89966560D01*
G37*
G36*
X126849341Y-89356706D02*
G01*
X126893152Y-89371541D01*
X126923948Y-89389222D01*
X126931199Y-89400910D01*
X126935533Y-89432567D01*
X126942113Y-89461264D01*
X126946521Y-89487923D01*
X126933967Y-89495304D01*
X126899633Y-89489495D01*
X126846471Y-89477819D01*
X126846471Y-89597270D01*
X126846471Y-89716721D01*
X126981292Y-89784508D01*
X127042121Y-89814627D01*
X127090826Y-89837871D01*
X127120072Y-89850780D01*
X127124938Y-89852294D01*
X127129275Y-89836817D01*
X127132425Y-89796067D01*
X127133754Y-89738566D01*
X127133763Y-89733212D01*
X127132940Y-89670427D01*
X127128362Y-89632195D01*
X127116868Y-89609277D01*
X127095296Y-89592430D01*
X127083171Y-89585341D01*
X127044048Y-89552524D01*
X127032473Y-89511076D01*
X127039707Y-89468501D01*
X127063221Y-89454050D01*
X127105328Y-89466799D01*
X127121553Y-89475570D01*
X127170433Y-89512946D01*
X127204050Y-89562856D01*
X127224508Y-89631042D01*
X127233912Y-89723247D01*
X127235134Y-89785541D01*
X127232871Y-89873832D01*
X127226289Y-89935140D01*
X127215743Y-89966261D01*
X127214881Y-89967211D01*
X127194685Y-89981350D01*
X127168395Y-89984940D01*
X127130614Y-89976577D01*
X127075946Y-89954859D01*
X126998995Y-89918385D01*
X126968282Y-89903116D01*
X126882259Y-89858089D01*
X126821694Y-89818447D01*
X126782145Y-89776810D01*
X126759171Y-89725803D01*
X126748331Y-89658047D01*
X126745182Y-89566165D01*
X126745074Y-89532344D01*
X126745977Y-89451936D01*
X126749271Y-89399325D01*
X126755832Y-89368542D01*
X126766534Y-89353619D01*
X126771692Y-89350933D01*
X126804769Y-89348556D01*
X126849341Y-89356706D01*
G37*
G36*
X126875305Y-87065637D02*
G01*
X126906948Y-87079019D01*
X126977665Y-87123358D01*
X127026711Y-87179502D01*
X127048621Y-87240775D01*
X127049265Y-87252857D01*
X127049265Y-87302088D01*
X127121088Y-87253454D01*
X127177583Y-87215467D01*
X127211483Y-87195984D01*
X127228543Y-87195105D01*
X127234520Y-87212930D01*
X127235167Y-87249562D01*
X127235160Y-87255457D01*
X127233278Y-87298862D01*
X127223018Y-87327950D01*
X127197462Y-87353323D01*
X127150663Y-87384962D01*
X127092529Y-87428550D01*
X127066933Y-87465545D01*
X127073882Y-87498526D01*
X127113380Y-87530068D01*
X127151061Y-87548656D01*
X127199604Y-87571560D01*
X127224611Y-87591493D01*
X127233866Y-87618192D01*
X127235160Y-87653875D01*
X127235160Y-87722148D01*
X126994342Y-87603194D01*
X126955479Y-87583997D01*
X126753524Y-87484240D01*
X126748608Y-87303630D01*
X126748427Y-87291581D01*
X126846471Y-87291581D01*
X126847484Y-87351335D01*
X126852888Y-87386916D01*
X126866228Y-87407938D01*
X126891050Y-87424017D01*
X126896330Y-87426777D01*
X126932980Y-87444421D01*
X126954768Y-87452506D01*
X126955479Y-87452560D01*
X126963672Y-87437633D01*
X126966442Y-87399609D01*
X126964528Y-87348621D01*
X126958672Y-87294803D01*
X126949614Y-87248291D01*
X126938460Y-87219727D01*
X126907309Y-87191415D01*
X126879312Y-87182168D01*
X126861481Y-87185864D01*
X126851553Y-87201907D01*
X126847297Y-87237735D01*
X126846471Y-87291581D01*
X126748427Y-87291581D01*
X126747426Y-87225011D01*
X126748127Y-87155797D01*
X126750525Y-87104979D01*
X126753155Y-87084996D01*
X126773029Y-87055154D01*
X126813150Y-87048725D01*
X126875305Y-87065637D01*
G37*
G36*
X126868001Y-88867779D02*
G01*
X126913963Y-88937803D01*
X126954126Y-88996214D01*
X126984728Y-89037744D01*
X127002012Y-89057127D01*
X127003719Y-89057898D01*
X127023503Y-89049082D01*
X127062743Y-89025778D01*
X127113213Y-88992891D01*
X127116864Y-88990418D01*
X127167100Y-88957134D01*
X127205862Y-88932999D01*
X127225306Y-88922878D01*
X127225783Y-88922820D01*
X127231780Y-88937764D01*
X127234887Y-88974813D01*
X127235012Y-88986193D01*
X127232676Y-89020940D01*
X127221651Y-89047032D01*
X127195625Y-89072481D01*
X127148284Y-89105301D01*
X127133724Y-89114730D01*
X127085353Y-89148418D01*
X127052248Y-89176395D01*
X127040930Y-89193079D01*
X127041248Y-89193911D01*
X127060244Y-89207971D01*
X127100669Y-89230124D01*
X127142536Y-89250335D01*
X127194115Y-89275407D01*
X127221844Y-89295732D01*
X127233075Y-89319556D01*
X127235160Y-89354231D01*
X127231680Y-89392591D01*
X127223060Y-89410136D01*
X127220527Y-89410090D01*
X127200819Y-89401228D01*
X127156282Y-89380574D01*
X127092638Y-89350798D01*
X127015606Y-89314571D01*
X126975484Y-89295642D01*
X126887225Y-89253763D01*
X126824989Y-89223016D01*
X126784230Y-89200112D01*
X126760403Y-89181760D01*
X126748962Y-89164673D01*
X126745362Y-89145561D01*
X126745074Y-89128901D01*
X126746680Y-89096770D01*
X126755666Y-89080953D01*
X126778286Y-89080811D01*
X126820794Y-89095702D01*
X126869129Y-89116195D01*
X126909575Y-89131421D01*
X126923607Y-89130116D01*
X126920980Y-89122257D01*
X126906590Y-89098688D01*
X126879175Y-89054304D01*
X126843598Y-88996964D01*
X126826499Y-88969479D01*
X126785479Y-88900515D01*
X126760770Y-88849129D01*
X126748669Y-88805664D01*
X126745473Y-88760461D01*
X126745479Y-88758234D01*
X126745884Y-88677777D01*
X126868001Y-88867779D01*
G37*
G36*
X126795666Y-88175802D02*
G01*
X126846257Y-88204590D01*
X126846364Y-88367552D01*
X126847395Y-88445810D01*
X126850995Y-88496418D01*
X126858112Y-88525487D01*
X126869692Y-88539130D01*
X126873202Y-88540772D01*
X126904695Y-88549143D01*
X126922176Y-88539919D01*
X126929603Y-88507431D01*
X126930969Y-88458083D01*
X126933616Y-88400314D01*
X126944170Y-88371804D01*
X126966552Y-88368248D01*
X126999678Y-88382629D01*
X127018202Y-88398480D01*
X127028226Y-88426661D01*
X127032052Y-88475913D01*
X127032366Y-88506663D01*
X127033581Y-88565771D01*
X127039344Y-88600424D01*
X127052836Y-88619942D01*
X127075410Y-88632815D01*
X127110197Y-88647204D01*
X127128411Y-88652427D01*
X127131856Y-88636781D01*
X127133007Y-88594704D01*
X127131795Y-88533493D01*
X127129923Y-88490959D01*
X127126566Y-88416285D01*
X127126441Y-88369705D01*
X127130251Y-88345611D01*
X127138698Y-88338393D01*
X127148744Y-88340780D01*
X127190063Y-88355768D01*
X127205586Y-88360574D01*
X127217630Y-88367352D01*
X127225914Y-88383163D01*
X127231121Y-88413425D01*
X127233934Y-88463558D01*
X127235036Y-88538981D01*
X127235160Y-88595250D01*
X127234123Y-88678256D01*
X127231279Y-88747568D01*
X127227034Y-88797002D01*
X127221791Y-88820376D01*
X127220368Y-88821423D01*
X127200370Y-88814319D01*
X127156429Y-88794920D01*
X127094810Y-88766096D01*
X127021777Y-88730718D01*
X127013349Y-88726565D01*
X126936637Y-88689034D01*
X126867975Y-88656032D01*
X126814641Y-88631019D01*
X126783913Y-88617453D01*
X126783098Y-88617137D01*
X126767809Y-88609824D01*
X126757286Y-88597879D01*
X126750640Y-88575639D01*
X126746982Y-88537440D01*
X126745424Y-88477617D01*
X126745076Y-88390507D01*
X126745074Y-88374789D01*
X126745074Y-88147013D01*
X126795666Y-88175802D01*
G37*
G36*
X126855677Y-90621371D02*
G01*
X126912743Y-90644623D01*
X126967883Y-90681145D01*
X127013701Y-90726342D01*
X127042801Y-90775622D01*
X127049265Y-90809397D01*
X127050958Y-90836425D01*
X127060087Y-90846084D01*
X127082730Y-90837671D01*
X127124964Y-90810486D01*
X127142213Y-90798668D01*
X127185279Y-90770190D01*
X127216307Y-90751797D01*
X127225531Y-90747970D01*
X127231357Y-90763055D01*
X127234781Y-90801085D01*
X127235160Y-90821491D01*
X127233204Y-90864072D01*
X127222660Y-90892599D01*
X127196512Y-90917538D01*
X127150663Y-90947540D01*
X127093619Y-90988800D01*
X127068877Y-91023813D01*
X127076344Y-91055983D01*
X127115930Y-91088716D01*
X127146438Y-91105691D01*
X127194355Y-91132934D01*
X127219343Y-91157623D01*
X127229789Y-91189926D01*
X127231956Y-91209371D01*
X127231375Y-91249634D01*
X127223344Y-91270875D01*
X127220476Y-91271855D01*
X127200106Y-91264837D01*
X127155140Y-91245506D01*
X127091322Y-91216449D01*
X127014395Y-91180251D01*
X126974413Y-91161057D01*
X126940519Y-91144682D01*
X126745074Y-91050260D01*
X126745074Y-90866685D01*
X126846471Y-90866685D01*
X126847327Y-90929265D01*
X126851701Y-90966499D01*
X126862299Y-90986833D01*
X126881829Y-90998710D01*
X126889820Y-91001881D01*
X126924130Y-91014017D01*
X126940519Y-91018362D01*
X126944150Y-91002893D01*
X126946776Y-90962200D01*
X126947864Y-90904854D01*
X126947868Y-90900660D01*
X126946411Y-90836188D01*
X126940702Y-90797147D01*
X126928737Y-90775245D01*
X126915180Y-90765464D01*
X126881597Y-90750936D01*
X126861062Y-90754430D01*
X126850477Y-90780514D01*
X126846743Y-90833752D01*
X126846471Y-90866685D01*
X126745074Y-90866685D01*
X126745074Y-90851796D01*
X126746977Y-90747357D01*
X126752668Y-90675892D01*
X126762122Y-90637673D01*
X126765353Y-90633053D01*
X126804082Y-90615983D01*
X126855677Y-90621371D01*
G37*
G36*
X122144616Y-89362452D02*
G01*
X122196239Y-89363911D01*
X122244802Y-89367674D01*
X122293433Y-89374830D01*
X122345265Y-89386468D01*
X122403427Y-89403676D01*
X122471051Y-89427545D01*
X122551265Y-89459162D01*
X122647202Y-89499617D01*
X122761990Y-89550000D01*
X122898762Y-89611398D01*
X123060647Y-89684901D01*
X123209538Y-89752786D01*
X123302504Y-89794610D01*
X123385987Y-89831059D01*
X123454727Y-89859926D01*
X123503469Y-89879005D01*
X123526952Y-89886089D01*
X123527167Y-89886093D01*
X123551915Y-89877080D01*
X123596357Y-89852996D01*
X123652584Y-89818279D01*
X123677808Y-89801596D01*
X123737302Y-89763742D01*
X123789146Y-89734880D01*
X123825109Y-89719432D01*
X123833366Y-89718004D01*
X123862772Y-89724625D01*
X123913907Y-89741635D01*
X123979943Y-89766213D01*
X124054052Y-89795539D01*
X124129407Y-89826791D01*
X124199178Y-89857150D01*
X124256539Y-89883793D01*
X124294661Y-89903902D01*
X124306792Y-89913585D01*
X124298980Y-89934801D01*
X124285524Y-89943160D01*
X124251594Y-89950120D01*
X124201509Y-89954289D01*
X124187637Y-89954665D01*
X124096684Y-89959370D01*
X124033369Y-89971853D01*
X123992032Y-89994094D01*
X123967014Y-90028073D01*
X123965059Y-90032506D01*
X123951926Y-90069384D01*
X123957757Y-90088928D01*
X123987411Y-90104520D01*
X123991879Y-90106379D01*
X124026162Y-90125260D01*
X124041124Y-90142771D01*
X124041148Y-90143297D01*
X124035211Y-90163144D01*
X124019270Y-90207107D01*
X123996131Y-90268079D01*
X123968599Y-90338952D01*
X123939480Y-90412620D01*
X123911580Y-90481975D01*
X123887703Y-90539909D01*
X123870657Y-90579315D01*
X123863672Y-90592895D01*
X123846871Y-90589580D01*
X123812211Y-90574395D01*
X123804184Y-90570333D01*
X123759059Y-90553698D01*
X123732241Y-90563397D01*
X123718222Y-90601780D01*
X123717293Y-90607410D01*
X123725199Y-90642357D01*
X123757512Y-90696111D01*
X123807366Y-90760795D01*
X123858721Y-90826325D01*
X123887590Y-90871842D01*
X123892844Y-90897837D01*
X123873356Y-90904800D01*
X123827997Y-90893222D01*
X123755639Y-90863592D01*
X123666606Y-90821948D01*
X123587562Y-90783583D01*
X123517571Y-90749263D01*
X123463268Y-90722267D01*
X123431288Y-90705871D01*
X123427808Y-90703956D01*
X123410494Y-90684191D01*
X123394946Y-90643047D01*
X123379630Y-90575713D01*
X123370455Y-90524005D01*
X123343409Y-90361352D01*
X123265565Y-90327786D01*
X123215022Y-90305412D01*
X123145667Y-90273954D01*
X123069250Y-90238762D01*
X123035626Y-90223103D01*
X122970376Y-90192802D01*
X122882549Y-90152314D01*
X122780353Y-90105407D01*
X122671996Y-90055850D01*
X122576091Y-90012142D01*
X122435741Y-89947016D01*
X122322030Y-89890999D01*
X122230006Y-89841184D01*
X122154718Y-89794663D01*
X122091215Y-89748528D01*
X122034544Y-89699873D01*
X122018551Y-89684751D01*
X121959044Y-89621170D01*
X121904267Y-89551626D01*
X121861136Y-89485667D01*
X121836940Y-89434044D01*
X121836042Y-89406268D01*
X121855447Y-89386118D01*
X121898343Y-89372678D01*
X121967919Y-89365031D01*
X122067365Y-89362260D01*
X122086802Y-89362208D01*
X122144616Y-89362452D01*
G37*
G36*
X124400263Y-90281030D02*
G01*
X124427847Y-90293322D01*
X124477018Y-90315794D01*
X124548780Y-90348913D01*
X124644139Y-90393148D01*
X124764101Y-90448967D01*
X124909671Y-90516838D01*
X125081853Y-90597230D01*
X125281653Y-90690611D01*
X125510077Y-90797448D01*
X125756451Y-90912744D01*
X125930448Y-90994186D01*
X126079060Y-91063739D01*
X126207514Y-91123848D01*
X126321034Y-91176957D01*
X126424846Y-91225510D01*
X126524176Y-91271951D01*
X126624249Y-91318725D01*
X126730290Y-91368275D01*
X126804222Y-91402816D01*
X126931285Y-91463688D01*
X127032054Y-91516251D01*
X127111763Y-91564377D01*
X127175645Y-91611938D01*
X127228934Y-91662808D01*
X127276864Y-91720857D01*
X127322058Y-91785966D01*
X127384231Y-91903479D01*
X127434995Y-92044618D01*
X127472745Y-92200663D01*
X127495878Y-92362895D01*
X127502789Y-92522594D01*
X127491874Y-92671040D01*
X127488665Y-92691416D01*
X127454275Y-92821406D01*
X127400323Y-92926273D01*
X127328242Y-93004680D01*
X127239469Y-93055288D01*
X127135440Y-93076761D01*
X127075926Y-93075979D01*
X127054158Y-93073541D01*
X127030094Y-93069053D01*
X127001630Y-93061599D01*
X126966663Y-93050264D01*
X126923092Y-93034131D01*
X126868814Y-93012283D01*
X126801727Y-92983805D01*
X126719727Y-92947779D01*
X126620713Y-92903289D01*
X126502582Y-92849419D01*
X126363232Y-92785252D01*
X126200560Y-92709873D01*
X126012464Y-92622364D01*
X125796840Y-92521809D01*
X125688853Y-92471398D01*
X125621768Y-92440211D01*
X125532728Y-92399016D01*
X125430515Y-92351863D01*
X125323908Y-92302806D01*
X125249465Y-92268628D01*
X125141485Y-92218948D01*
X125028147Y-92166528D01*
X124919352Y-92115965D01*
X124824998Y-92071856D01*
X124776278Y-92048907D01*
X124696555Y-92011373D01*
X124621193Y-91976234D01*
X124559247Y-91947691D01*
X124522785Y-91931262D01*
X124490954Y-91916885D01*
X124432815Y-91890217D01*
X124352688Y-91853258D01*
X124254897Y-91808005D01*
X124143762Y-91756458D01*
X124023606Y-91700615D01*
X123965100Y-91673385D01*
X123818353Y-91605061D01*
X123696947Y-91548559D01*
X123595587Y-91501428D01*
X123508978Y-91461218D01*
X123431825Y-91425479D01*
X123358831Y-91391758D01*
X123284702Y-91357606D01*
X123204141Y-91320571D01*
X123111854Y-91278202D01*
X123039851Y-91245165D01*
X122807482Y-91138558D01*
X122807482Y-91309718D01*
X122813236Y-91432517D01*
X122833210Y-91529500D01*
X122871477Y-91607022D01*
X122932106Y-91671434D01*
X123019168Y-91729088D01*
X123103224Y-91771239D01*
X123168419Y-91801525D01*
X123252092Y-91840692D01*
X123342207Y-91883094D01*
X123407416Y-91913925D01*
X123491894Y-91953894D01*
X123576615Y-91993853D01*
X123650594Y-92028628D01*
X123694708Y-92049259D01*
X123733467Y-92067352D01*
X123798610Y-92097811D01*
X123885916Y-92138660D01*
X123991164Y-92187924D01*
X124110134Y-92243627D01*
X124238604Y-92303792D01*
X124362239Y-92361707D01*
X124505688Y-92428888D01*
X124652217Y-92497471D01*
X124795893Y-92564681D01*
X124930780Y-92627743D01*
X125050944Y-92683882D01*
X125150450Y-92730324D01*
X125202991Y-92754811D01*
X125477609Y-92882690D01*
X125477609Y-93150393D01*
X125477125Y-93241206D01*
X125475787Y-93318824D01*
X125473769Y-93377563D01*
X125471243Y-93411737D01*
X125469484Y-93418096D01*
X125455523Y-93413172D01*
X125420525Y-93397868D01*
X125362776Y-93371385D01*
X125280560Y-93332924D01*
X125172163Y-93281686D01*
X125035870Y-93216872D01*
X124962173Y-93181724D01*
X124628704Y-93022759D01*
X124324503Y-92878147D01*
X124049755Y-92747975D01*
X123804646Y-92632333D01*
X123589364Y-92531306D01*
X123404094Y-92444985D01*
X123272220Y-92384097D01*
X123124777Y-92316160D01*
X123004509Y-92260017D01*
X122907752Y-92213625D01*
X122830842Y-92174942D01*
X122770117Y-92141927D01*
X122721913Y-92112536D01*
X122682567Y-92084727D01*
X122648415Y-92056459D01*
X122615795Y-92025689D01*
X122598940Y-92008752D01*
X122496855Y-91887248D01*
X122420286Y-91754825D01*
X122367731Y-91607294D01*
X122337689Y-91440466D01*
X122328639Y-91254956D01*
X122337120Y-91073645D01*
X122361652Y-90921914D01*
X122402358Y-90799533D01*
X122459356Y-90706274D01*
X122532766Y-90641907D01*
X122622709Y-90606205D01*
X122672287Y-90599146D01*
X122701817Y-90597412D01*
X122729352Y-90597667D01*
X122758361Y-90601224D01*
X122792313Y-90609394D01*
X122834679Y-90623488D01*
X122888926Y-90644817D01*
X122958525Y-90674693D01*
X123046945Y-90714428D01*
X123157654Y-90765332D01*
X123294123Y-90828718D01*
X123356717Y-90857869D01*
X123469307Y-90910301D01*
X123577539Y-90960675D01*
X123675800Y-91006380D01*
X123758475Y-91044805D01*
X123819952Y-91073340D01*
X123846804Y-91085772D01*
X123912552Y-91116218D01*
X123993054Y-91153600D01*
X124072439Y-91190549D01*
X124083397Y-91195658D01*
X124178896Y-91240072D01*
X124303114Y-91297640D01*
X124454042Y-91367436D01*
X124629676Y-91448531D01*
X124828007Y-91539998D01*
X124869226Y-91558996D01*
X124964455Y-91602940D01*
X125080313Y-91656493D01*
X125210253Y-91716620D01*
X125347728Y-91780287D01*
X125486192Y-91844461D01*
X125619098Y-91906108D01*
X125739901Y-91962194D01*
X125842054Y-92009685D01*
X125908547Y-92040663D01*
X125968034Y-92068326D01*
X126050432Y-92106509D01*
X126147942Y-92151606D01*
X126252771Y-92200013D01*
X126347935Y-92243890D01*
X126455673Y-92293590D01*
X126566047Y-92344618D01*
X126670389Y-92392960D01*
X126760036Y-92434602D01*
X126818089Y-92461676D01*
X126887138Y-92493337D01*
X126945219Y-92518771D01*
X126985341Y-92534989D01*
X126999759Y-92539320D01*
X127006233Y-92523568D01*
X127011398Y-92480888D01*
X127014648Y-92418144D01*
X127015466Y-92361202D01*
X127014127Y-92272390D01*
X127009339Y-92208778D01*
X126999950Y-92161845D01*
X126984807Y-92123069D01*
X126982663Y-92118784D01*
X126920906Y-92033143D01*
X126829513Y-91957810D01*
X126742605Y-91909393D01*
X126676413Y-91878345D01*
X126583773Y-91835016D01*
X126468887Y-91781365D01*
X126335960Y-91719353D01*
X126189196Y-91650937D01*
X126032799Y-91578077D01*
X125870972Y-91502731D01*
X125707920Y-91426860D01*
X125547847Y-91352421D01*
X125394956Y-91281374D01*
X125376212Y-91272667D01*
X125239665Y-91209221D01*
X125098948Y-91143787D01*
X124960732Y-91079470D01*
X124831689Y-91019378D01*
X124718491Y-90966615D01*
X124627809Y-90924288D01*
X124611508Y-90916668D01*
X124345340Y-90792211D01*
X124345340Y-90524820D01*
X124345340Y-90257430D01*
X124400263Y-90281030D01*
G37*
%TO.C,C6*%
X188235000Y-85039148D02*
X188235000Y-86461652D01*
X186415000Y-85039148D02*
X186415000Y-86461652D01*
%TO.C,U6*%
X132140000Y-111700000D02*
X132140000Y-113030000D01*
X130810000Y-111700000D02*
X132140000Y-111700000D01*
X129540000Y-111700000D02*
X119320000Y-111700000D01*
X129540000Y-111700000D02*
X129540000Y-114360000D01*
X119320000Y-111700000D02*
X119320000Y-114360000D01*
X129540000Y-114360000D02*
X119320000Y-114360000D01*
%TO.C,TP2*%
X120245000Y-116840000D02*
G75*
G03*
X120245000Y-116840000I-1500000J0D01*
G01*
%TO.C,D9*%
X163060000Y-53595000D02*
X160790000Y-53595000D01*
X160790000Y-53595000D02*
X160790000Y-57480000D01*
X163060000Y-57480000D02*
X163060000Y-53595000D01*
D13*
%TO.C,U5*%
X160120000Y-74195000D02*
X185520000Y-74195000D01*
X185520000Y-74195000D02*
X185520000Y-104675000D01*
X185520000Y-104675000D02*
X160120000Y-104675000D01*
X160120000Y-104675000D02*
X160120000Y-74195000D01*
D14*
%TO.C,D7*%
X169800000Y-58555000D02*
X169800000Y-60825000D01*
X169800000Y-60825000D02*
X173685000Y-60825000D01*
X173685000Y-58555000D02*
X169800000Y-58555000D01*
%TO.C,F1*%
X159147600Y-71888600D02*
X159607600Y-71888600D01*
X159147600Y-71888600D02*
X159147600Y-61938600D01*
X163937600Y-71888600D02*
X164397600Y-71888600D01*
X164397600Y-71888600D02*
X164397600Y-61938600D01*
X159147600Y-61938600D02*
X159607600Y-61938600D01*
X164397600Y-61938600D02*
X163937600Y-61938600D01*
%TO.C,U1*%
X108165000Y-107990000D02*
X112806000Y-107990000D01*
X108165000Y-107990000D02*
X108165000Y-97750000D01*
X109675000Y-107990000D02*
X109675000Y-97750000D01*
X112806000Y-107990000D02*
X112806000Y-97750000D01*
X108165000Y-104720000D02*
X109675000Y-104720000D01*
X108165000Y-101019000D02*
X109675000Y-101019000D01*
X108165000Y-97750000D02*
X112806000Y-97750000D01*
%TD*%
M02*
