%TF.GenerationSoftware,KiCad,Pcbnew,7.0.6*%
%TF.CreationDate,2024-03-14T18:06:26+11:00*%
%TF.ProjectId,Rocketry_Payload_Main_DDR_Spec_V2,526f636b-6574-4727-995f-5061796c6f61,rev?*%
%TF.SameCoordinates,Original*%
%TF.FileFunction,Legend,Bot*%
%TF.FilePolarity,Positive*%
%FSLAX46Y46*%
G04 Gerber Fmt 4.6, Leading zero omitted, Abs format (unit mm)*
G04 Created by KiCad (PCBNEW 7.0.6) date 2024-03-14 18:06:26*
%MOMM*%
%LPD*%
G01*
G04 APERTURE LIST*
%ADD10C,0.150000*%
%ADD11C,0.050000*%
%ADD12C,0.300000*%
G04 APERTURE END LIST*
D10*
X176250600Y-62382400D02*
X181889400Y-62382400D01*
X181889400Y-72212200D01*
X176250600Y-72212200D01*
X176250600Y-62382400D01*
D11*
X190714409Y-92986897D02*
G75*
G03*
X190714409Y-92986897I-42500000J0D01*
G01*
D10*
X177241200Y-60960000D02*
X180898800Y-60960000D01*
X180898800Y-62382400D01*
X177241200Y-62382400D01*
X177241200Y-60960000D01*
X156210000Y-73660000D02*
X158750000Y-73660000D01*
X158750000Y-78740000D01*
X156210000Y-78740000D01*
X156210000Y-73660000D01*
X183456990Y-71665552D02*
X183409371Y-71522695D01*
X183409371Y-71522695D02*
X183361752Y-71475076D01*
X183361752Y-71475076D02*
X183266514Y-71427457D01*
X183266514Y-71427457D02*
X183123657Y-71427457D01*
X183123657Y-71427457D02*
X183028419Y-71475076D01*
X183028419Y-71475076D02*
X182980800Y-71522695D01*
X182980800Y-71522695D02*
X182933180Y-71617933D01*
X182933180Y-71617933D02*
X182933180Y-71998885D01*
X182933180Y-71998885D02*
X183933180Y-71998885D01*
X183933180Y-71998885D02*
X183933180Y-71665552D01*
X183933180Y-71665552D02*
X183885561Y-71570314D01*
X183885561Y-71570314D02*
X183837942Y-71522695D01*
X183837942Y-71522695D02*
X183742704Y-71475076D01*
X183742704Y-71475076D02*
X183647466Y-71475076D01*
X183647466Y-71475076D02*
X183552228Y-71522695D01*
X183552228Y-71522695D02*
X183504609Y-71570314D01*
X183504609Y-71570314D02*
X183456990Y-71665552D01*
X183456990Y-71665552D02*
X183456990Y-71998885D01*
X183218895Y-71046504D02*
X183218895Y-70570314D01*
X182933180Y-71141742D02*
X183933180Y-70808409D01*
X183933180Y-70808409D02*
X182933180Y-70475076D01*
X183933180Y-70284599D02*
X183933180Y-69713171D01*
X182933180Y-69998885D02*
X183933180Y-69998885D01*
X183933180Y-69522694D02*
X183933180Y-68951266D01*
X182933180Y-69236980D02*
X183933180Y-69236980D01*
X183456990Y-68617932D02*
X183456990Y-68284599D01*
X182933180Y-68141742D02*
X182933180Y-68617932D01*
X182933180Y-68617932D02*
X183933180Y-68617932D01*
X183933180Y-68617932D02*
X183933180Y-68141742D01*
X182933180Y-67141742D02*
X183409371Y-67475075D01*
X182933180Y-67713170D02*
X183933180Y-67713170D01*
X183933180Y-67713170D02*
X183933180Y-67332218D01*
X183933180Y-67332218D02*
X183885561Y-67236980D01*
X183885561Y-67236980D02*
X183837942Y-67189361D01*
X183837942Y-67189361D02*
X183742704Y-67141742D01*
X183742704Y-67141742D02*
X183599847Y-67141742D01*
X183599847Y-67141742D02*
X183504609Y-67189361D01*
X183504609Y-67189361D02*
X183456990Y-67236980D01*
X183456990Y-67236980D02*
X183409371Y-67332218D01*
X183409371Y-67332218D02*
X183409371Y-67713170D01*
X182933180Y-66713170D02*
X183933180Y-66713170D01*
X183456990Y-66236980D02*
X183456990Y-65903647D01*
X182933180Y-65760790D02*
X182933180Y-66236980D01*
X182933180Y-66236980D02*
X183933180Y-66236980D01*
X183933180Y-66236980D02*
X183933180Y-65760790D01*
X182980800Y-65379837D02*
X182933180Y-65236980D01*
X182933180Y-65236980D02*
X182933180Y-64998885D01*
X182933180Y-64998885D02*
X182980800Y-64903647D01*
X182980800Y-64903647D02*
X183028419Y-64856028D01*
X183028419Y-64856028D02*
X183123657Y-64808409D01*
X183123657Y-64808409D02*
X183218895Y-64808409D01*
X183218895Y-64808409D02*
X183314133Y-64856028D01*
X183314133Y-64856028D02*
X183361752Y-64903647D01*
X183361752Y-64903647D02*
X183409371Y-64998885D01*
X183409371Y-64998885D02*
X183456990Y-65189361D01*
X183456990Y-65189361D02*
X183504609Y-65284599D01*
X183504609Y-65284599D02*
X183552228Y-65332218D01*
X183552228Y-65332218D02*
X183647466Y-65379837D01*
X183647466Y-65379837D02*
X183742704Y-65379837D01*
X183742704Y-65379837D02*
X183837942Y-65332218D01*
X183837942Y-65332218D02*
X183885561Y-65284599D01*
X183885561Y-65284599D02*
X183933180Y-65189361D01*
X183933180Y-65189361D02*
X183933180Y-64951266D01*
X183933180Y-64951266D02*
X183885561Y-64808409D01*
X182933180Y-63617932D02*
X183933180Y-63617932D01*
X182933180Y-63141742D02*
X183933180Y-63141742D01*
X183933180Y-63141742D02*
X182933180Y-62570314D01*
X182933180Y-62570314D02*
X183933180Y-62570314D01*
X154902819Y-74604762D02*
X154902819Y-75176190D01*
X155902819Y-74890476D02*
X154902819Y-74890476D01*
X155379009Y-75509524D02*
X155379009Y-75842857D01*
X155902819Y-75985714D02*
X155902819Y-75509524D01*
X155902819Y-75509524D02*
X154902819Y-75509524D01*
X154902819Y-75509524D02*
X154902819Y-75985714D01*
X155855200Y-76366667D02*
X155902819Y-76509524D01*
X155902819Y-76509524D02*
X155902819Y-76747619D01*
X155902819Y-76747619D02*
X155855200Y-76842857D01*
X155855200Y-76842857D02*
X155807580Y-76890476D01*
X155807580Y-76890476D02*
X155712342Y-76938095D01*
X155712342Y-76938095D02*
X155617104Y-76938095D01*
X155617104Y-76938095D02*
X155521866Y-76890476D01*
X155521866Y-76890476D02*
X155474247Y-76842857D01*
X155474247Y-76842857D02*
X155426628Y-76747619D01*
X155426628Y-76747619D02*
X155379009Y-76557143D01*
X155379009Y-76557143D02*
X155331390Y-76461905D01*
X155331390Y-76461905D02*
X155283771Y-76414286D01*
X155283771Y-76414286D02*
X155188533Y-76366667D01*
X155188533Y-76366667D02*
X155093295Y-76366667D01*
X155093295Y-76366667D02*
X154998057Y-76414286D01*
X154998057Y-76414286D02*
X154950438Y-76461905D01*
X154950438Y-76461905D02*
X154902819Y-76557143D01*
X154902819Y-76557143D02*
X154902819Y-76795238D01*
X154902819Y-76795238D02*
X154950438Y-76938095D01*
X154902819Y-77223810D02*
X154902819Y-77795238D01*
X155902819Y-77509524D02*
X154902819Y-77509524D01*
D12*
X148273127Y-90812796D02*
X148415985Y-90741367D01*
X148415985Y-90741367D02*
X148630270Y-90741367D01*
X148630270Y-90741367D02*
X148844556Y-90812796D01*
X148844556Y-90812796D02*
X148987413Y-90955653D01*
X148987413Y-90955653D02*
X149058842Y-91098510D01*
X149058842Y-91098510D02*
X149130270Y-91384224D01*
X149130270Y-91384224D02*
X149130270Y-91598510D01*
X149130270Y-91598510D02*
X149058842Y-91884224D01*
X149058842Y-91884224D02*
X148987413Y-92027081D01*
X148987413Y-92027081D02*
X148844556Y-92169939D01*
X148844556Y-92169939D02*
X148630270Y-92241367D01*
X148630270Y-92241367D02*
X148487413Y-92241367D01*
X148487413Y-92241367D02*
X148273127Y-92169939D01*
X148273127Y-92169939D02*
X148201699Y-92098510D01*
X148201699Y-92098510D02*
X148201699Y-91598510D01*
X148201699Y-91598510D02*
X148487413Y-91598510D01*
X147344556Y-90741367D02*
X147344556Y-91098510D01*
X147701699Y-90955653D02*
X147344556Y-91098510D01*
X147344556Y-91098510D02*
X146987413Y-90955653D01*
X147558842Y-91384224D02*
X147344556Y-91098510D01*
X147344556Y-91098510D02*
X147130270Y-91384224D01*
X146201699Y-90741367D02*
X146201699Y-91098510D01*
X146558842Y-90955653D02*
X146201699Y-91098510D01*
X146201699Y-91098510D02*
X145844556Y-90955653D01*
X146415985Y-91384224D02*
X146201699Y-91098510D01*
X146201699Y-91098510D02*
X145987413Y-91384224D01*
X145058842Y-90741367D02*
X145058842Y-91098510D01*
X145415985Y-90955653D02*
X145058842Y-91098510D01*
X145058842Y-91098510D02*
X144701699Y-90955653D01*
X145273128Y-91384224D02*
X145058842Y-91098510D01*
X145058842Y-91098510D02*
X144844556Y-91384224D01*
%TO.C,G\u002A\u002A\u002A*%
G36*
X120178847Y-110210872D02*
G01*
X120138901Y-110317920D01*
X119976084Y-110758639D01*
X119867882Y-111084650D01*
X119812735Y-111333283D01*
X119809083Y-111541867D01*
X119855366Y-111747732D01*
X119950022Y-111988208D01*
X120091492Y-112300624D01*
X120441199Y-113068372D01*
X120017004Y-113068372D01*
X119592808Y-113068372D01*
X119220047Y-112270685D01*
X118847286Y-111472998D01*
X117595993Y-110513852D01*
X116344700Y-109554705D01*
X116785476Y-109529243D01*
X116799623Y-109528431D01*
X116982650Y-109522562D01*
X117133739Y-109539668D01*
X117286043Y-109595902D01*
X117472716Y-109707420D01*
X117726910Y-109890378D01*
X118081778Y-110160930D01*
X118400585Y-110402100D01*
X118671238Y-110593867D01*
X118850229Y-110698667D01*
X118958137Y-110728257D01*
X119015540Y-110694393D01*
X119053554Y-110626969D01*
X119095071Y-110510381D01*
X119113206Y-110437178D01*
X119177406Y-110242410D01*
X119271784Y-109981215D01*
X119447200Y-109512372D01*
X119943203Y-109512372D01*
X120439205Y-109512372D01*
X120178847Y-110210872D01*
G37*
G36*
X128873193Y-109762167D02*
G01*
X128954518Y-109931515D01*
X128984677Y-110073044D01*
X128912579Y-110150554D01*
X128715912Y-110183092D01*
X128372364Y-110189705D01*
X128325219Y-110189918D01*
X128022194Y-110202115D01*
X127796839Y-110229342D01*
X127694953Y-110266413D01*
X127706250Y-110338194D01*
X127779328Y-110542396D01*
X127907045Y-110850572D01*
X128078458Y-111236510D01*
X128282623Y-111673997D01*
X128457345Y-112041377D01*
X128641090Y-112430785D01*
X128786914Y-112743303D01*
X128883042Y-112953669D01*
X128917700Y-113036623D01*
X128892968Y-113047460D01*
X128744994Y-113062479D01*
X128507886Y-113068372D01*
X128098071Y-113068372D01*
X127483523Y-111734872D01*
X127318814Y-111383935D01*
X127119489Y-110976593D01*
X126946014Y-110640992D01*
X126812774Y-110404763D01*
X126734155Y-110295539D01*
X126599691Y-110243871D01*
X126319460Y-110204068D01*
X125939906Y-110189705D01*
X125280475Y-110189705D01*
X125107700Y-109851039D01*
X124934926Y-109512372D01*
X126839472Y-109512372D01*
X128744019Y-109512372D01*
X128873193Y-109762167D01*
G37*
G36*
X137814081Y-111248661D02*
G01*
X137945227Y-111520160D01*
X138172750Y-111993797D01*
X138367839Y-112403299D01*
X138520079Y-112726632D01*
X138619060Y-112941764D01*
X138654367Y-113026661D01*
X138629289Y-113040973D01*
X138480824Y-113060652D01*
X138243313Y-113068372D01*
X137832260Y-113068372D01*
X137478219Y-112306372D01*
X137375742Y-112092691D01*
X137228379Y-111810110D01*
X137111793Y-111616316D01*
X137044790Y-111544372D01*
X136989059Y-111587978D01*
X136854374Y-111747510D01*
X136668186Y-111996649D01*
X136453034Y-112306372D01*
X135940666Y-113068372D01*
X135475290Y-113068372D01*
X135009913Y-113068372D01*
X135603137Y-112184186D01*
X136196362Y-111300000D01*
X135964864Y-111140845D01*
X135901245Y-111098388D01*
X135686896Y-110959876D01*
X135376220Y-110762168D01*
X135000337Y-110525022D01*
X134590367Y-110268198D01*
X133447367Y-109554705D01*
X133929415Y-109529456D01*
X134087241Y-109523126D01*
X134245627Y-109530131D01*
X134400369Y-109564798D01*
X134580827Y-109639684D01*
X134816358Y-109767347D01*
X135136322Y-109960346D01*
X135570078Y-110231238D01*
X135835636Y-110396469D01*
X136195036Y-110615108D01*
X136485528Y-110785755D01*
X136682491Y-110894055D01*
X136761305Y-110925656D01*
X136762346Y-110909342D01*
X136721284Y-110775493D01*
X136627832Y-110540001D01*
X136496476Y-110240350D01*
X136444564Y-110125861D01*
X136319098Y-109843646D01*
X136231785Y-109639002D01*
X136199034Y-109550015D01*
X136217983Y-109538410D01*
X136356901Y-109519739D01*
X136586415Y-109512372D01*
X136973796Y-109512372D01*
X137814081Y-111248661D01*
G37*
G36*
X133412325Y-111099872D02*
G01*
X133469023Y-111218683D01*
X133697440Y-111695742D01*
X133902312Y-112121174D01*
X134071360Y-112469648D01*
X134192309Y-112715830D01*
X134252882Y-112834390D01*
X134299514Y-112923974D01*
X134336367Y-113024890D01*
X134334777Y-113026801D01*
X134233099Y-113039971D01*
X133991253Y-113051386D01*
X133634872Y-113060374D01*
X133189591Y-113066260D01*
X132681047Y-113068372D01*
X131025727Y-113068372D01*
X130903047Y-112774758D01*
X130883416Y-112727194D01*
X130810056Y-112536450D01*
X130780367Y-112436091D01*
X130785281Y-112431886D01*
X130901189Y-112415873D01*
X131147848Y-112402902D01*
X131494218Y-112394211D01*
X131909256Y-112391039D01*
X132005842Y-112390846D01*
X132415587Y-112385522D01*
X132755026Y-112373993D01*
X132991153Y-112357734D01*
X133090962Y-112338222D01*
X133098979Y-112311843D01*
X133067245Y-112167868D01*
X132976352Y-111957222D01*
X132808926Y-111629039D01*
X132064328Y-111629039D01*
X131319730Y-111629039D01*
X131175645Y-111326890D01*
X131148714Y-111266997D01*
X131082553Y-111066139D01*
X131080294Y-110945890D01*
X131085647Y-110940034D01*
X131208623Y-110903037D01*
X131448392Y-110876927D01*
X131759031Y-110867039D01*
X132043069Y-110863338D01*
X132268869Y-110837856D01*
X132365393Y-110771420D01*
X132354952Y-110644984D01*
X132259860Y-110439501D01*
X132130685Y-110189705D01*
X130920874Y-110189705D01*
X129711063Y-110189705D01*
X129568382Y-109890499D01*
X129540941Y-109832218D01*
X129458772Y-109646375D01*
X129425700Y-109551833D01*
X129426165Y-109550883D01*
X129518039Y-109538710D01*
X129751362Y-109528139D01*
X130100179Y-109519802D01*
X130538536Y-109514335D01*
X131040476Y-109512372D01*
X132655252Y-109512372D01*
X133412325Y-111099872D01*
G37*
G36*
X125223022Y-111242764D02*
G01*
X125345173Y-111502327D01*
X125567635Y-111978014D01*
X125758501Y-112390031D01*
X125907521Y-112716047D01*
X126004448Y-112933734D01*
X126039034Y-113020764D01*
X126021864Y-113034886D01*
X125886028Y-113058884D01*
X125659098Y-113068372D01*
X125279163Y-113068372D01*
X124970978Y-112454539D01*
X124828289Y-112177081D01*
X124685288Y-111933378D01*
X124565386Y-111794010D01*
X124442531Y-111730657D01*
X124290674Y-111715002D01*
X124216982Y-111731121D01*
X124082314Y-111833030D01*
X123908951Y-112046276D01*
X123678621Y-112391039D01*
X123248593Y-113068372D01*
X122738813Y-113068372D01*
X122506052Y-113062967D01*
X122305985Y-113045333D01*
X122229034Y-113019697D01*
X122232955Y-113006607D01*
X122299061Y-112883188D01*
X122429898Y-112666101D01*
X122603454Y-112392229D01*
X122659301Y-112304449D01*
X122812612Y-112044860D01*
X122908458Y-111852408D01*
X122928010Y-111763570D01*
X122852805Y-111732525D01*
X122676385Y-111713705D01*
X122337774Y-111648619D01*
X121994019Y-111425725D01*
X121675492Y-111041110D01*
X121378671Y-110491456D01*
X121276100Y-110256556D01*
X121252464Y-110189705D01*
X122123200Y-110189705D01*
X122177123Y-110459316D01*
X122252962Y-110688013D01*
X122370162Y-110882650D01*
X122414251Y-110924215D01*
X122524413Y-110981151D01*
X122699862Y-111015326D01*
X122975232Y-111031985D01*
X123385156Y-111036372D01*
X123657652Y-111034375D01*
X123969371Y-111026092D01*
X124182245Y-111012865D01*
X124261034Y-110996303D01*
X124249008Y-110957420D01*
X124181656Y-110800150D01*
X124074829Y-110572970D01*
X123888625Y-110189705D01*
X123005913Y-110189705D01*
X122123200Y-110189705D01*
X121252464Y-110189705D01*
X121189721Y-110012241D01*
X121168870Y-109844275D01*
X121204018Y-109710016D01*
X121217687Y-109680643D01*
X121256651Y-109618620D01*
X121320164Y-109574086D01*
X121432356Y-109544145D01*
X121617360Y-109525899D01*
X121899304Y-109516453D01*
X122302321Y-109512909D01*
X122850540Y-109512372D01*
X124407010Y-109512372D01*
X125106797Y-110996303D01*
X125223022Y-111242764D01*
G37*
G36*
X147676234Y-112468183D02*
G01*
X147713700Y-112619122D01*
X147683851Y-112737976D01*
X147573578Y-112913538D01*
X147504787Y-112972038D01*
X147401736Y-113014314D01*
X147238259Y-113042049D01*
X146987137Y-113058093D01*
X146621150Y-113065297D01*
X146113078Y-113066512D01*
X145928627Y-113066111D01*
X145338965Y-113057309D01*
X144880945Y-113023025D01*
X144525939Y-112944792D01*
X144245323Y-112804142D01*
X144010469Y-112582609D01*
X143792750Y-112261726D01*
X143563542Y-111823025D01*
X143294217Y-111248039D01*
X143239858Y-111129971D01*
X143036115Y-110685185D01*
X142893843Y-110363378D01*
X142870565Y-110304217D01*
X143734367Y-110304217D01*
X143763084Y-110428067D01*
X143857285Y-110671440D01*
X143998677Y-110985916D01*
X144168173Y-111333751D01*
X144346686Y-111677197D01*
X144515129Y-111978508D01*
X144654416Y-112199940D01*
X144745459Y-112303745D01*
X144830279Y-112329831D01*
X145060120Y-112360398D01*
X145374613Y-112380073D01*
X145731494Y-112388720D01*
X146088499Y-112386199D01*
X146403367Y-112372373D01*
X146633833Y-112347104D01*
X146737635Y-112310253D01*
X146740072Y-112298156D01*
X146705235Y-112164590D01*
X146607883Y-111918490D01*
X146460687Y-111590080D01*
X146276313Y-111209586D01*
X145765062Y-110189705D01*
X144749715Y-110189705D01*
X144493530Y-110190779D01*
X144126529Y-110199693D01*
X143893165Y-110219824D01*
X143770193Y-110253791D01*
X143734367Y-110304217D01*
X142870565Y-110304217D01*
X142805639Y-110139209D01*
X142764097Y-109987339D01*
X142761813Y-109882425D01*
X142791382Y-109799129D01*
X142845398Y-109712109D01*
X142894756Y-109643407D01*
X142959744Y-109589038D01*
X143062324Y-109552266D01*
X143228844Y-109529653D01*
X143485651Y-109517760D01*
X143859095Y-109513146D01*
X144375524Y-109512372D01*
X144923191Y-109515281D01*
X145363706Y-109528892D01*
X145691478Y-109559898D01*
X145935538Y-109614988D01*
X146124916Y-109700850D01*
X146288642Y-109824174D01*
X146455747Y-109991646D01*
X146531053Y-110093576D01*
X146675324Y-110336071D01*
X146853163Y-110667466D01*
X147048293Y-111053768D01*
X147244440Y-111460984D01*
X147425329Y-111855120D01*
X147574686Y-112202184D01*
X147611324Y-112298156D01*
X147676234Y-112468183D01*
G37*
G36*
X151609103Y-111248039D02*
G01*
X151640144Y-111315242D01*
X151857490Y-111781733D01*
X152052508Y-112193544D01*
X152213205Y-112525833D01*
X152327586Y-112753756D01*
X152383659Y-112852472D01*
X152405631Y-112880535D01*
X152455034Y-113000639D01*
X152432293Y-113023029D01*
X152287358Y-113055490D01*
X152052867Y-113068153D01*
X151650700Y-113067935D01*
X151312034Y-112411987D01*
X151206737Y-112213951D01*
X151039458Y-111939572D01*
X150903046Y-111785948D01*
X150778207Y-111728372D01*
X150652721Y-111723867D01*
X150521616Y-111770697D01*
X150385919Y-111896557D01*
X150221144Y-112125195D01*
X150002804Y-112480358D01*
X149653472Y-113068372D01*
X149101923Y-113068372D01*
X149006798Y-113067859D01*
X148743486Y-113055177D01*
X148619734Y-113021734D01*
X148612448Y-112962539D01*
X148685945Y-112846482D01*
X148825229Y-112634240D01*
X148998445Y-112374517D01*
X148999440Y-112373036D01*
X149162141Y-112120053D01*
X149278135Y-111919316D01*
X149322367Y-111814165D01*
X149314338Y-111796086D01*
X149198115Y-111736834D01*
X148987665Y-111691108D01*
X148662562Y-111607903D01*
X148368488Y-111424482D01*
X148107108Y-111120589D01*
X147851870Y-110672411D01*
X147798773Y-110563516D01*
X147686798Y-110308951D01*
X148512680Y-110308951D01*
X148548883Y-110472538D01*
X148643552Y-110694801D01*
X148817809Y-111036372D01*
X149705088Y-111036372D01*
X149900497Y-111034904D01*
X150274745Y-111020166D01*
X150510431Y-110990806D01*
X150592367Y-110948332D01*
X150586408Y-110913652D01*
X150525933Y-110748580D01*
X150421313Y-110524999D01*
X150250259Y-110189705D01*
X149410310Y-110189705D01*
X149175320Y-110192925D01*
X148852393Y-110209439D01*
X148620923Y-110236811D01*
X148519828Y-110271468D01*
X148512680Y-110308951D01*
X147686798Y-110308951D01*
X147636193Y-110193906D01*
X147560145Y-109931015D01*
X147565209Y-109746989D01*
X147645967Y-109613972D01*
X147762210Y-109575412D01*
X148014205Y-109544548D01*
X148366943Y-109522693D01*
X148786693Y-109509803D01*
X149239722Y-109505833D01*
X149692299Y-109510737D01*
X150110692Y-109524472D01*
X150461168Y-109546991D01*
X150709996Y-109578251D01*
X150823444Y-109618205D01*
X150827422Y-109623832D01*
X150895209Y-109748601D01*
X151019503Y-109998784D01*
X151188073Y-110349003D01*
X151388683Y-110773880D01*
X151469780Y-110948332D01*
X151609103Y-111248039D01*
G37*
G36*
X139933537Y-109513269D02*
G01*
X140464735Y-109525713D01*
X140865742Y-109558379D01*
X141164315Y-109618332D01*
X141388210Y-109712636D01*
X141565182Y-109848356D01*
X141722988Y-110032555D01*
X141804994Y-110161611D01*
X141954617Y-110433816D01*
X142138599Y-110792371D01*
X142338449Y-111198831D01*
X142535674Y-111614755D01*
X142711782Y-112001699D01*
X142848280Y-112321220D01*
X142926677Y-112534874D01*
X142934140Y-112686974D01*
X142807365Y-112894708D01*
X142803675Y-112898379D01*
X142722879Y-112965156D01*
X142618741Y-113011749D01*
X142462065Y-113041691D01*
X142223656Y-113058520D01*
X141874322Y-113065771D01*
X141384867Y-113066979D01*
X140916411Y-113064639D01*
X140549612Y-113055796D01*
X140287811Y-113036469D01*
X140097804Y-113002648D01*
X139946389Y-112950318D01*
X139800363Y-112875466D01*
X139766932Y-112855421D01*
X139541575Y-112671987D01*
X139324532Y-112427713D01*
X139145720Y-112165530D01*
X139035055Y-111928369D01*
X139022454Y-111759159D01*
X139135233Y-111664461D01*
X139403438Y-111629039D01*
X139614009Y-111643371D01*
X139747819Y-111716989D01*
X139842687Y-111890250D01*
X139887655Y-111994650D01*
X139990049Y-112176883D01*
X140120595Y-112292813D01*
X140314553Y-112357266D01*
X140607181Y-112385066D01*
X141033739Y-112391039D01*
X141370112Y-112387165D01*
X141674083Y-112369059D01*
X141849916Y-112333457D01*
X141920618Y-112277412D01*
X141908762Y-112194636D01*
X141837584Y-111987064D01*
X141720057Y-111696517D01*
X141572942Y-111360035D01*
X141413000Y-111014656D01*
X141256990Y-110697421D01*
X141121673Y-110445369D01*
X141023811Y-110295539D01*
X141003474Y-110278460D01*
X140835910Y-110228547D01*
X140516954Y-110199265D01*
X140038159Y-110189705D01*
X139995951Y-110189682D01*
X139601898Y-110189707D01*
X139350692Y-110202910D01*
X139218101Y-110247457D01*
X139179892Y-110341516D01*
X139211834Y-110503252D01*
X139289694Y-110750833D01*
X139311771Y-110843384D01*
X139271396Y-110904920D01*
X139106030Y-110893863D01*
X138966186Y-110871589D01*
X138693108Y-110814778D01*
X138524104Y-110739043D01*
X138412615Y-110616573D01*
X138312083Y-110419551D01*
X138277778Y-110342711D01*
X138170692Y-110061218D01*
X138140415Y-109851015D01*
X138202318Y-109701904D01*
X138371770Y-109603683D01*
X138664143Y-109546155D01*
X139094808Y-109519118D01*
X139679134Y-109512372D01*
X139933537Y-109513269D01*
G37*
G36*
X132718219Y-61050790D02*
G01*
X132911031Y-61130780D01*
X132986990Y-61165647D01*
X133733744Y-61587839D01*
X134494968Y-62152119D01*
X135250849Y-62837379D01*
X135981579Y-63622514D01*
X136667345Y-64486415D01*
X137288337Y-65407975D01*
X137824745Y-66366087D01*
X137845615Y-66408197D01*
X137960027Y-66646703D01*
X138135645Y-67019792D01*
X138365486Y-67512372D01*
X138642569Y-68109352D01*
X138959913Y-68795639D01*
X139310535Y-69556143D01*
X139687454Y-70375772D01*
X140083688Y-71239434D01*
X140492255Y-72132039D01*
X140659471Y-72497462D01*
X141052176Y-73353075D01*
X141423581Y-74158729D01*
X141767587Y-74901400D01*
X142078096Y-75568065D01*
X142349010Y-76145700D01*
X142574229Y-76621281D01*
X142747657Y-76981786D01*
X142863194Y-77214189D01*
X142914742Y-77305469D01*
X142919650Y-77309136D01*
X143049132Y-77351351D01*
X143315924Y-77409411D01*
X143692580Y-77478259D01*
X144151654Y-77552839D01*
X144665700Y-77628094D01*
X144727180Y-77636688D01*
X145236499Y-77712575D01*
X145687826Y-77787824D01*
X146053664Y-77857260D01*
X146306515Y-77915709D01*
X146418879Y-77957996D01*
X146436162Y-77979592D01*
X146530206Y-78138429D01*
X146678446Y-78419815D01*
X146870143Y-78800873D01*
X147094555Y-79258727D01*
X147340942Y-79770500D01*
X147598566Y-80313314D01*
X147856685Y-80864293D01*
X148104560Y-81400560D01*
X148331450Y-81899239D01*
X148526616Y-82337451D01*
X148679318Y-82692320D01*
X148778815Y-82940969D01*
X148814367Y-83060522D01*
X148806114Y-83156533D01*
X148746838Y-83257832D01*
X148621129Y-83267634D01*
X148418055Y-83180565D01*
X148126684Y-82991254D01*
X147736082Y-82694326D01*
X147235319Y-82284407D01*
X146890381Y-81997716D01*
X146542723Y-81713120D01*
X146255719Y-81482864D01*
X146052250Y-81325282D01*
X145955198Y-81258708D01*
X145947721Y-81256758D01*
X145820898Y-81271733D01*
X145602412Y-81326123D01*
X145343424Y-81403718D01*
X145095091Y-81488309D01*
X144908575Y-81563685D01*
X144835034Y-81613636D01*
X144838264Y-81623682D01*
X144889683Y-81743639D01*
X144990723Y-81968029D01*
X145124531Y-82259260D01*
X145168353Y-82354383D01*
X145291023Y-82627130D01*
X145373446Y-82820545D01*
X145399698Y-82897685D01*
X145381687Y-82907320D01*
X145238813Y-82972533D01*
X144973437Y-83089587D01*
X144608717Y-83248554D01*
X144167808Y-83439505D01*
X143673868Y-83652510D01*
X143150055Y-83877641D01*
X142619524Y-84104968D01*
X142105434Y-84324563D01*
X141630941Y-84526497D01*
X141219201Y-84700841D01*
X140893373Y-84837665D01*
X140676614Y-84927040D01*
X140592079Y-84959039D01*
X140578106Y-84949724D01*
X140498740Y-84832826D01*
X140376395Y-84610180D01*
X140231186Y-84317536D01*
X139926537Y-83676033D01*
X139260865Y-84030718D01*
X138595193Y-84385403D01*
X138490172Y-85997456D01*
X138489043Y-86014759D01*
X138453806Y-86524434D01*
X138418764Y-86979126D01*
X138386397Y-87350324D01*
X138359185Y-87609515D01*
X138339610Y-87728187D01*
X138264477Y-87799172D01*
X138076824Y-87821119D01*
X138065837Y-87819631D01*
X138003315Y-87799983D01*
X137940386Y-87750284D01*
X137869566Y-87654508D01*
X137783375Y-87496632D01*
X137674329Y-87260631D01*
X137534948Y-86930481D01*
X137357750Y-86490157D01*
X137135252Y-85923634D01*
X136859973Y-85214889D01*
X136708631Y-84823107D01*
X136479601Y-84225784D01*
X136275980Y-83689323D01*
X136105008Y-83233098D01*
X135973922Y-82876481D01*
X135889962Y-82638848D01*
X135860367Y-82539571D01*
X135864884Y-82525302D01*
X135937454Y-82397517D01*
X136085073Y-82165095D01*
X136290200Y-81853661D01*
X136535294Y-81488843D01*
X136802815Y-81096267D01*
X137075220Y-80701560D01*
X137334971Y-80330349D01*
X137564525Y-80008259D01*
X137746342Y-79760918D01*
X137862881Y-79613953D01*
X137877216Y-79588581D01*
X137882847Y-79529791D01*
X137866943Y-79434836D01*
X137824929Y-79293063D01*
X137752228Y-79093823D01*
X137644265Y-78826465D01*
X137496464Y-78480336D01*
X137304250Y-78044787D01*
X137063047Y-77509167D01*
X136768280Y-76862824D01*
X136415372Y-76095108D01*
X135999748Y-75195368D01*
X135516833Y-74152953D01*
X135303228Y-73691339D01*
X134885921Y-72784024D01*
X134486425Y-71908376D01*
X134111498Y-71079603D01*
X133767901Y-70312909D01*
X133462392Y-69623503D01*
X133201730Y-69026589D01*
X132992675Y-68537374D01*
X132841987Y-68171065D01*
X132756423Y-67942867D01*
X132555983Y-67256069D01*
X132328226Y-66184331D01*
X132181393Y-65072681D01*
X132119175Y-63966022D01*
X132145266Y-62909258D01*
X132263358Y-61947292D01*
X132342552Y-61531106D01*
X132411764Y-61247324D01*
X132485902Y-61087231D01*
X132582281Y-61028997D01*
X132718219Y-61050790D01*
G37*
G36*
X152716205Y-66386431D02*
G01*
X153497816Y-66422597D01*
X154214245Y-66483808D01*
X154825700Y-66570039D01*
X154983966Y-66599525D01*
X156382195Y-66940983D01*
X157668802Y-67408405D01*
X158846847Y-68003312D01*
X159919391Y-68727223D01*
X160889493Y-69581658D01*
X161073189Y-69769164D01*
X161449896Y-70184211D01*
X161795708Y-70616741D01*
X162125437Y-71090357D01*
X162453900Y-71628659D01*
X162795909Y-72255250D01*
X163166281Y-72993732D01*
X163579830Y-73867705D01*
X163705696Y-74139187D01*
X164098778Y-74985960D01*
X164559699Y-75977519D01*
X165085535Y-77107593D01*
X165673362Y-78369910D01*
X166320257Y-79758199D01*
X167023295Y-81266190D01*
X167779552Y-82887610D01*
X168586103Y-84616188D01*
X169440025Y-86445654D01*
X170338394Y-88369736D01*
X171278284Y-90382163D01*
X172256773Y-92476664D01*
X172620389Y-93255306D01*
X173111450Y-94308193D01*
X173578372Y-95310851D01*
X174016387Y-96252966D01*
X174420726Y-97124227D01*
X174786623Y-97914322D01*
X175109308Y-98612939D01*
X175384015Y-99209767D01*
X175605976Y-99694493D01*
X175770422Y-100056805D01*
X175872586Y-100286392D01*
X175907701Y-100372942D01*
X175906190Y-100376310D01*
X175800740Y-100398730D01*
X175534532Y-100416168D01*
X175115071Y-100428468D01*
X174549860Y-100435474D01*
X173846403Y-100437031D01*
X173012205Y-100432983D01*
X170116710Y-100410705D01*
X164210881Y-87753039D01*
X163685043Y-86626094D01*
X163044731Y-85253967D01*
X162422726Y-83921234D01*
X161823125Y-82636671D01*
X161250027Y-81409050D01*
X160707530Y-80247145D01*
X160199732Y-79159733D01*
X159730731Y-78155585D01*
X159304626Y-77243477D01*
X158925514Y-76432183D01*
X158597494Y-75730477D01*
X158324665Y-75147133D01*
X158111123Y-74690926D01*
X157960969Y-74370629D01*
X157878298Y-74195017D01*
X157866042Y-74169227D01*
X157543353Y-73548370D01*
X157221955Y-73061458D01*
X156873534Y-72677056D01*
X156469776Y-72363728D01*
X155982367Y-72090039D01*
X155371977Y-71834108D01*
X154698700Y-71667998D01*
X154508578Y-71647624D01*
X154171229Y-71625012D01*
X153759584Y-71606997D01*
X153304078Y-71593878D01*
X152835148Y-71585958D01*
X152383228Y-71583539D01*
X151978755Y-71586921D01*
X151652163Y-71596405D01*
X151433889Y-71612294D01*
X151354367Y-71634888D01*
X151386745Y-71713880D01*
X151484543Y-71933598D01*
X151641606Y-72280286D01*
X151851736Y-72740439D01*
X152108735Y-73300547D01*
X152406403Y-73947104D01*
X152738544Y-74666601D01*
X153098959Y-75445532D01*
X153481449Y-76270388D01*
X153524192Y-76362478D01*
X153817865Y-76995529D01*
X154175800Y-77767591D01*
X154592176Y-78666089D01*
X155061173Y-79678452D01*
X155576970Y-80792108D01*
X156133748Y-81994483D01*
X156725684Y-83273005D01*
X157346960Y-84615103D01*
X157991754Y-86008203D01*
X158654246Y-87439733D01*
X159328616Y-88897121D01*
X160009043Y-90367793D01*
X160689707Y-91839179D01*
X161364787Y-93298705D01*
X161432067Y-93444177D01*
X162113084Y-94916604D01*
X162802004Y-96406046D01*
X163492752Y-97899371D01*
X164179252Y-99383447D01*
X164855430Y-100845143D01*
X165515210Y-102271328D01*
X166152516Y-103648869D01*
X166761274Y-104964636D01*
X167335408Y-106205497D01*
X167868842Y-107358321D01*
X168355503Y-108409976D01*
X168789314Y-109347330D01*
X169164199Y-110157253D01*
X169474085Y-110826613D01*
X169609010Y-111118345D01*
X170014513Y-111999138D01*
X170401195Y-112844909D01*
X170762448Y-113640861D01*
X171091664Y-114372193D01*
X171382235Y-115024108D01*
X171627553Y-115581806D01*
X171821011Y-116030489D01*
X171956001Y-116355357D01*
X172025914Y-116541613D01*
X172115909Y-116861418D01*
X172181646Y-117211947D01*
X172215261Y-117605979D01*
X172224700Y-118106039D01*
X172224655Y-118173264D01*
X172219770Y-118578308D01*
X172200901Y-118869399D01*
X172159663Y-119095178D01*
X172087668Y-119304288D01*
X171976530Y-119545372D01*
X171875754Y-119735283D01*
X171434924Y-120343707D01*
X170857147Y-120883703D01*
X170161243Y-121342220D01*
X169366033Y-121706209D01*
X168490337Y-121962621D01*
X168304615Y-122001133D01*
X168065265Y-122042143D01*
X167813362Y-122071930D01*
X167522787Y-122091599D01*
X167167419Y-122102256D01*
X166721140Y-122105004D01*
X166157829Y-122100950D01*
X165451367Y-122091198D01*
X165030087Y-122084045D01*
X164314152Y-122066910D01*
X163722898Y-122042458D01*
X163226725Y-122006802D01*
X162796034Y-121956054D01*
X162401228Y-121886327D01*
X162012708Y-121793732D01*
X161600874Y-121674382D01*
X161136128Y-121524389D01*
X160413685Y-121259720D01*
X159222889Y-120705929D01*
X158133679Y-120043932D01*
X157159212Y-119283295D01*
X156312645Y-118433585D01*
X155607135Y-117504369D01*
X155540158Y-117389009D01*
X155389653Y-117101878D01*
X155170159Y-116664348D01*
X154882627Y-116078417D01*
X154528004Y-115346080D01*
X154107241Y-114469335D01*
X153621287Y-113450179D01*
X153071090Y-112290609D01*
X152457600Y-110992621D01*
X151781766Y-109558214D01*
X151044536Y-107989382D01*
X150246861Y-106288124D01*
X149389689Y-104456437D01*
X148473969Y-102496317D01*
X147873903Y-101210706D01*
X147204087Y-99775270D01*
X146556771Y-98387645D01*
X145935467Y-97055375D01*
X145343688Y-95786004D01*
X144784945Y-94587075D01*
X144262749Y-93466132D01*
X143780612Y-92430719D01*
X143342045Y-91488378D01*
X142950561Y-90646654D01*
X142609670Y-89913090D01*
X142322886Y-89295230D01*
X142093718Y-88800617D01*
X141925679Y-88436794D01*
X141822280Y-88211306D01*
X141787034Y-88131696D01*
X141840427Y-88124068D01*
X142044355Y-88115289D01*
X142382659Y-88107509D01*
X142835990Y-88100994D01*
X143384998Y-88096011D01*
X144010335Y-88092826D01*
X144692650Y-88091705D01*
X147598265Y-88091705D01*
X153807388Y-101405539D01*
X153980492Y-101776684D01*
X154640296Y-103190770D01*
X155281646Y-104564416D01*
X155900754Y-105889548D01*
X156493832Y-107158089D01*
X157057092Y-108361964D01*
X157586744Y-109493096D01*
X158079001Y-110543409D01*
X158530073Y-111504828D01*
X158936173Y-112369277D01*
X159293512Y-113128680D01*
X159598302Y-113774960D01*
X159846754Y-114300043D01*
X160035080Y-114695851D01*
X160159491Y-114954310D01*
X160216199Y-115067343D01*
X160477170Y-115449293D01*
X160986623Y-115963374D01*
X161614388Y-116387219D01*
X162336202Y-116702117D01*
X162344495Y-116704876D01*
X162561941Y-116768027D01*
X162804345Y-116817241D01*
X163100581Y-116855471D01*
X163479526Y-116885672D01*
X163970052Y-116910796D01*
X164601035Y-116933798D01*
X164779803Y-116939444D01*
X165337037Y-116954572D01*
X165749688Y-116960306D01*
X166037052Y-116956011D01*
X166218424Y-116941054D01*
X166313097Y-116914799D01*
X166340367Y-116876613D01*
X166309290Y-116797975D01*
X166207528Y-116566409D01*
X166035485Y-116183616D01*
X165793717Y-115650804D01*
X165482782Y-114969183D01*
X165103238Y-114139958D01*
X164655642Y-113164340D01*
X164140551Y-112043535D01*
X163558522Y-110778751D01*
X162910114Y-109371196D01*
X162195882Y-107822079D01*
X161416385Y-106132607D01*
X160572180Y-104303988D01*
X159663824Y-102337430D01*
X158691875Y-100234142D01*
X157656890Y-97995330D01*
X156559425Y-95622203D01*
X155400040Y-93115969D01*
X154179290Y-90477836D01*
X152897734Y-87709012D01*
X151555928Y-84810705D01*
X150154430Y-81784122D01*
X148693798Y-78630472D01*
X148283608Y-77742437D01*
X147858968Y-76817811D01*
X147455697Y-75934370D01*
X147080082Y-75106143D01*
X146738410Y-74347160D01*
X146436969Y-73671451D01*
X146182044Y-73093044D01*
X145979924Y-72625969D01*
X145836894Y-72284257D01*
X145759243Y-72081935D01*
X145602918Y-71559226D01*
X145466397Y-70841512D01*
X145450316Y-70193779D01*
X145552416Y-69588787D01*
X145555305Y-69578179D01*
X145837421Y-68860034D01*
X146265126Y-68220818D01*
X146831399Y-67666204D01*
X147529221Y-67201866D01*
X148351574Y-66833477D01*
X149291437Y-66566711D01*
X149733800Y-66492692D01*
X150378211Y-66428440D01*
X151116611Y-66389329D01*
X151909206Y-66375334D01*
X152716205Y-66386431D01*
G37*
%TD*%
M02*
