%TF.GenerationSoftware,KiCad,Pcbnew,7.0.6*%
%TF.CreationDate,2024-04-15T18:34:20+10:00*%
%TF.ProjectId,Rocketry_Payload_Main_DDR_Spec_V2,526f636b-6574-4727-995f-5061796c6f61,rev?*%
%TF.SameCoordinates,Original*%
%TF.FileFunction,Legend,Top*%
%TF.FilePolarity,Positive*%
%FSLAX46Y46*%
G04 Gerber Fmt 4.6, Leading zero omitted, Abs format (unit mm)*
G04 Created by KiCad (PCBNEW 7.0.6) date 2024-04-15 18:34:20*
%MOMM*%
%LPD*%
G01*
G04 APERTURE LIST*
%ADD10C,0.150000*%
%ADD11C,0.300000*%
%ADD12C,0.200000*%
%ADD13C,0.100000*%
%ADD14C,0.120000*%
G04 APERTURE END LIST*
D10*
X173768000Y-123444000D02*
X175768000Y-123444000D01*
X174768000Y-122444000D02*
X174768000Y-124444000D01*
X131965819Y-127774458D02*
X131965819Y-127155411D01*
X131965819Y-127155411D02*
X132346771Y-127488744D01*
X132346771Y-127488744D02*
X132346771Y-127345887D01*
X132346771Y-127345887D02*
X132394390Y-127250649D01*
X132394390Y-127250649D02*
X132442009Y-127203030D01*
X132442009Y-127203030D02*
X132537247Y-127155411D01*
X132537247Y-127155411D02*
X132775342Y-127155411D01*
X132775342Y-127155411D02*
X132870580Y-127203030D01*
X132870580Y-127203030D02*
X132918200Y-127250649D01*
X132918200Y-127250649D02*
X132965819Y-127345887D01*
X132965819Y-127345887D02*
X132965819Y-127631601D01*
X132965819Y-127631601D02*
X132918200Y-127726839D01*
X132918200Y-127726839D02*
X132870580Y-127774458D01*
X132870580Y-126726839D02*
X132918200Y-126679220D01*
X132918200Y-126679220D02*
X132965819Y-126726839D01*
X132965819Y-126726839D02*
X132918200Y-126774458D01*
X132918200Y-126774458D02*
X132870580Y-126726839D01*
X132870580Y-126726839D02*
X132965819Y-126726839D01*
X131965819Y-126345887D02*
X131965819Y-125726840D01*
X131965819Y-125726840D02*
X132346771Y-126060173D01*
X132346771Y-126060173D02*
X132346771Y-125917316D01*
X132346771Y-125917316D02*
X132394390Y-125822078D01*
X132394390Y-125822078D02*
X132442009Y-125774459D01*
X132442009Y-125774459D02*
X132537247Y-125726840D01*
X132537247Y-125726840D02*
X132775342Y-125726840D01*
X132775342Y-125726840D02*
X132870580Y-125774459D01*
X132870580Y-125774459D02*
X132918200Y-125822078D01*
X132918200Y-125822078D02*
X132965819Y-125917316D01*
X132965819Y-125917316D02*
X132965819Y-126203030D01*
X132965819Y-126203030D02*
X132918200Y-126298268D01*
X132918200Y-126298268D02*
X132870580Y-126345887D01*
X131965819Y-125441125D02*
X132965819Y-125107792D01*
X132965819Y-125107792D02*
X131965819Y-124774459D01*
X132013438Y-123155411D02*
X131965819Y-123250649D01*
X131965819Y-123250649D02*
X131965819Y-123393506D01*
X131965819Y-123393506D02*
X132013438Y-123536363D01*
X132013438Y-123536363D02*
X132108676Y-123631601D01*
X132108676Y-123631601D02*
X132203914Y-123679220D01*
X132203914Y-123679220D02*
X132394390Y-123726839D01*
X132394390Y-123726839D02*
X132537247Y-123726839D01*
X132537247Y-123726839D02*
X132727723Y-123679220D01*
X132727723Y-123679220D02*
X132822961Y-123631601D01*
X132822961Y-123631601D02*
X132918200Y-123536363D01*
X132918200Y-123536363D02*
X132965819Y-123393506D01*
X132965819Y-123393506D02*
X132965819Y-123298268D01*
X132965819Y-123298268D02*
X132918200Y-123155411D01*
X132918200Y-123155411D02*
X132870580Y-123107792D01*
X132870580Y-123107792D02*
X132537247Y-123107792D01*
X132537247Y-123107792D02*
X132537247Y-123298268D01*
X132965819Y-122679220D02*
X131965819Y-122679220D01*
X131965819Y-122679220D02*
X132965819Y-122107792D01*
X132965819Y-122107792D02*
X131965819Y-122107792D01*
X132965819Y-121631601D02*
X131965819Y-121631601D01*
X131965819Y-121631601D02*
X131965819Y-121393506D01*
X131965819Y-121393506D02*
X132013438Y-121250649D01*
X132013438Y-121250649D02*
X132108676Y-121155411D01*
X132108676Y-121155411D02*
X132203914Y-121107792D01*
X132203914Y-121107792D02*
X132394390Y-121060173D01*
X132394390Y-121060173D02*
X132537247Y-121060173D01*
X132537247Y-121060173D02*
X132727723Y-121107792D01*
X132727723Y-121107792D02*
X132822961Y-121155411D01*
X132822961Y-121155411D02*
X132918200Y-121250649D01*
X132918200Y-121250649D02*
X132965819Y-121393506D01*
X132965819Y-121393506D02*
X132965819Y-121631601D01*
X122758200Y-127218839D02*
X122805819Y-127075982D01*
X122805819Y-127075982D02*
X122805819Y-126837887D01*
X122805819Y-126837887D02*
X122758200Y-126742649D01*
X122758200Y-126742649D02*
X122710580Y-126695030D01*
X122710580Y-126695030D02*
X122615342Y-126647411D01*
X122615342Y-126647411D02*
X122520104Y-126647411D01*
X122520104Y-126647411D02*
X122424866Y-126695030D01*
X122424866Y-126695030D02*
X122377247Y-126742649D01*
X122377247Y-126742649D02*
X122329628Y-126837887D01*
X122329628Y-126837887D02*
X122282009Y-127028363D01*
X122282009Y-127028363D02*
X122234390Y-127123601D01*
X122234390Y-127123601D02*
X122186771Y-127171220D01*
X122186771Y-127171220D02*
X122091533Y-127218839D01*
X122091533Y-127218839D02*
X121996295Y-127218839D01*
X121996295Y-127218839D02*
X121901057Y-127171220D01*
X121901057Y-127171220D02*
X121853438Y-127123601D01*
X121853438Y-127123601D02*
X121805819Y-127028363D01*
X121805819Y-127028363D02*
X121805819Y-126790268D01*
X121805819Y-126790268D02*
X121853438Y-126647411D01*
X122805819Y-126218839D02*
X121805819Y-126218839D01*
X121805819Y-126218839D02*
X121805819Y-125980744D01*
X121805819Y-125980744D02*
X121853438Y-125837887D01*
X121853438Y-125837887D02*
X121948676Y-125742649D01*
X121948676Y-125742649D02*
X122043914Y-125695030D01*
X122043914Y-125695030D02*
X122234390Y-125647411D01*
X122234390Y-125647411D02*
X122377247Y-125647411D01*
X122377247Y-125647411D02*
X122567723Y-125695030D01*
X122567723Y-125695030D02*
X122662961Y-125742649D01*
X122662961Y-125742649D02*
X122758200Y-125837887D01*
X122758200Y-125837887D02*
X122805819Y-125980744D01*
X122805819Y-125980744D02*
X122805819Y-126218839D01*
X122520104Y-125266458D02*
X122520104Y-124790268D01*
X122805819Y-125361696D02*
X121805819Y-125028363D01*
X121805819Y-125028363D02*
X122805819Y-124695030D01*
X122758200Y-123647410D02*
X122805819Y-123504553D01*
X122805819Y-123504553D02*
X122805819Y-123266458D01*
X122805819Y-123266458D02*
X122758200Y-123171220D01*
X122758200Y-123171220D02*
X122710580Y-123123601D01*
X122710580Y-123123601D02*
X122615342Y-123075982D01*
X122615342Y-123075982D02*
X122520104Y-123075982D01*
X122520104Y-123075982D02*
X122424866Y-123123601D01*
X122424866Y-123123601D02*
X122377247Y-123171220D01*
X122377247Y-123171220D02*
X122329628Y-123266458D01*
X122329628Y-123266458D02*
X122282009Y-123456934D01*
X122282009Y-123456934D02*
X122234390Y-123552172D01*
X122234390Y-123552172D02*
X122186771Y-123599791D01*
X122186771Y-123599791D02*
X122091533Y-123647410D01*
X122091533Y-123647410D02*
X121996295Y-123647410D01*
X121996295Y-123647410D02*
X121901057Y-123599791D01*
X121901057Y-123599791D02*
X121853438Y-123552172D01*
X121853438Y-123552172D02*
X121805819Y-123456934D01*
X121805819Y-123456934D02*
X121805819Y-123218839D01*
X121805819Y-123218839D02*
X121853438Y-123075982D01*
X122710580Y-122075982D02*
X122758200Y-122123601D01*
X122758200Y-122123601D02*
X122805819Y-122266458D01*
X122805819Y-122266458D02*
X122805819Y-122361696D01*
X122805819Y-122361696D02*
X122758200Y-122504553D01*
X122758200Y-122504553D02*
X122662961Y-122599791D01*
X122662961Y-122599791D02*
X122567723Y-122647410D01*
X122567723Y-122647410D02*
X122377247Y-122695029D01*
X122377247Y-122695029D02*
X122234390Y-122695029D01*
X122234390Y-122695029D02*
X122043914Y-122647410D01*
X122043914Y-122647410D02*
X121948676Y-122599791D01*
X121948676Y-122599791D02*
X121853438Y-122504553D01*
X121853438Y-122504553D02*
X121805819Y-122361696D01*
X121805819Y-122361696D02*
X121805819Y-122266458D01*
X121805819Y-122266458D02*
X121853438Y-122123601D01*
X121853438Y-122123601D02*
X121901057Y-122075982D01*
X122805819Y-121171220D02*
X122805819Y-121647410D01*
X122805819Y-121647410D02*
X121805819Y-121647410D01*
X179000000Y-58000000D02*
X179000000Y-60000000D01*
X178000000Y-59000000D02*
X180000000Y-59000000D01*
X114935000Y-92186000D02*
X135890000Y-92186000D01*
X135890000Y-111506000D01*
X114935000Y-111506000D01*
X114935000Y-92186000D01*
D11*
X156795887Y-134552625D02*
G75*
G03*
X139630000Y-134570000I-8582007J-933685D01*
G01*
D12*
X190714409Y-92986897D02*
G75*
G03*
X190714409Y-92986897I-42500000J0D01*
G01*
D11*
X139630000Y-134570000D02*
X139630000Y-141500000D01*
X156795881Y-134552626D02*
X156796000Y-141500000D01*
D10*
X183456990Y-62929047D02*
X183409371Y-63071904D01*
X183409371Y-63071904D02*
X183361752Y-63119523D01*
X183361752Y-63119523D02*
X183266514Y-63167142D01*
X183266514Y-63167142D02*
X183123657Y-63167142D01*
X183123657Y-63167142D02*
X183028419Y-63119523D01*
X183028419Y-63119523D02*
X182980800Y-63071904D01*
X182980800Y-63071904D02*
X182933180Y-62976666D01*
X182933180Y-62976666D02*
X182933180Y-62595714D01*
X182933180Y-62595714D02*
X183933180Y-62595714D01*
X183933180Y-62595714D02*
X183933180Y-62929047D01*
X183933180Y-62929047D02*
X183885561Y-63024285D01*
X183885561Y-63024285D02*
X183837942Y-63071904D01*
X183837942Y-63071904D02*
X183742704Y-63119523D01*
X183742704Y-63119523D02*
X183647466Y-63119523D01*
X183647466Y-63119523D02*
X183552228Y-63071904D01*
X183552228Y-63071904D02*
X183504609Y-63024285D01*
X183504609Y-63024285D02*
X183456990Y-62929047D01*
X183456990Y-62929047D02*
X183456990Y-62595714D01*
X183218895Y-63548095D02*
X183218895Y-64024285D01*
X182933180Y-63452857D02*
X183933180Y-63786190D01*
X183933180Y-63786190D02*
X182933180Y-64119523D01*
X183933180Y-64310000D02*
X183933180Y-64881428D01*
X182933180Y-64595714D02*
X183933180Y-64595714D01*
X183933180Y-65071905D02*
X183933180Y-65643333D01*
X182933180Y-65357619D02*
X183933180Y-65357619D01*
X183456990Y-65976667D02*
X183456990Y-66310000D01*
X182933180Y-66452857D02*
X182933180Y-65976667D01*
X182933180Y-65976667D02*
X183933180Y-65976667D01*
X183933180Y-65976667D02*
X183933180Y-66452857D01*
X182933180Y-67452857D02*
X183409371Y-67119524D01*
X182933180Y-66881429D02*
X183933180Y-66881429D01*
X183933180Y-66881429D02*
X183933180Y-67262381D01*
X183933180Y-67262381D02*
X183885561Y-67357619D01*
X183885561Y-67357619D02*
X183837942Y-67405238D01*
X183837942Y-67405238D02*
X183742704Y-67452857D01*
X183742704Y-67452857D02*
X183599847Y-67452857D01*
X183599847Y-67452857D02*
X183504609Y-67405238D01*
X183504609Y-67405238D02*
X183456990Y-67357619D01*
X183456990Y-67357619D02*
X183409371Y-67262381D01*
X183409371Y-67262381D02*
X183409371Y-66881429D01*
X182933180Y-67881429D02*
X183933180Y-67881429D01*
X183456990Y-68357619D02*
X183456990Y-68690952D01*
X182933180Y-68833809D02*
X182933180Y-68357619D01*
X182933180Y-68357619D02*
X183933180Y-68357619D01*
X183933180Y-68357619D02*
X183933180Y-68833809D01*
X182980800Y-69214762D02*
X182933180Y-69357619D01*
X182933180Y-69357619D02*
X182933180Y-69595714D01*
X182933180Y-69595714D02*
X182980800Y-69690952D01*
X182980800Y-69690952D02*
X183028419Y-69738571D01*
X183028419Y-69738571D02*
X183123657Y-69786190D01*
X183123657Y-69786190D02*
X183218895Y-69786190D01*
X183218895Y-69786190D02*
X183314133Y-69738571D01*
X183314133Y-69738571D02*
X183361752Y-69690952D01*
X183361752Y-69690952D02*
X183409371Y-69595714D01*
X183409371Y-69595714D02*
X183456990Y-69405238D01*
X183456990Y-69405238D02*
X183504609Y-69310000D01*
X183504609Y-69310000D02*
X183552228Y-69262381D01*
X183552228Y-69262381D02*
X183647466Y-69214762D01*
X183647466Y-69214762D02*
X183742704Y-69214762D01*
X183742704Y-69214762D02*
X183837942Y-69262381D01*
X183837942Y-69262381D02*
X183885561Y-69310000D01*
X183885561Y-69310000D02*
X183933180Y-69405238D01*
X183933180Y-69405238D02*
X183933180Y-69643333D01*
X183933180Y-69643333D02*
X183885561Y-69786190D01*
X182933180Y-70976667D02*
X183933180Y-70976667D01*
X182933180Y-71452857D02*
X183933180Y-71452857D01*
X183933180Y-71452857D02*
X182933180Y-72024285D01*
X182933180Y-72024285D02*
X183933180Y-72024285D01*
X117141810Y-116548819D02*
X117760857Y-116548819D01*
X117760857Y-116548819D02*
X117427524Y-116929771D01*
X117427524Y-116929771D02*
X117570381Y-116929771D01*
X117570381Y-116929771D02*
X117665619Y-116977390D01*
X117665619Y-116977390D02*
X117713238Y-117025009D01*
X117713238Y-117025009D02*
X117760857Y-117120247D01*
X117760857Y-117120247D02*
X117760857Y-117358342D01*
X117760857Y-117358342D02*
X117713238Y-117453580D01*
X117713238Y-117453580D02*
X117665619Y-117501200D01*
X117665619Y-117501200D02*
X117570381Y-117548819D01*
X117570381Y-117548819D02*
X117284667Y-117548819D01*
X117284667Y-117548819D02*
X117189429Y-117501200D01*
X117189429Y-117501200D02*
X117141810Y-117453580D01*
X118189429Y-117453580D02*
X118237048Y-117501200D01*
X118237048Y-117501200D02*
X118189429Y-117548819D01*
X118189429Y-117548819D02*
X118141810Y-117501200D01*
X118141810Y-117501200D02*
X118189429Y-117453580D01*
X118189429Y-117453580D02*
X118189429Y-117548819D01*
X118570381Y-116548819D02*
X119189428Y-116548819D01*
X119189428Y-116548819D02*
X118856095Y-116929771D01*
X118856095Y-116929771D02*
X118998952Y-116929771D01*
X118998952Y-116929771D02*
X119094190Y-116977390D01*
X119094190Y-116977390D02*
X119141809Y-117025009D01*
X119141809Y-117025009D02*
X119189428Y-117120247D01*
X119189428Y-117120247D02*
X119189428Y-117358342D01*
X119189428Y-117358342D02*
X119141809Y-117453580D01*
X119141809Y-117453580D02*
X119094190Y-117501200D01*
X119094190Y-117501200D02*
X118998952Y-117548819D01*
X118998952Y-117548819D02*
X118713238Y-117548819D01*
X118713238Y-117548819D02*
X118618000Y-117501200D01*
X118618000Y-117501200D02*
X118570381Y-117453580D01*
X119475143Y-116548819D02*
X119808476Y-117548819D01*
X119808476Y-117548819D02*
X120141809Y-116548819D01*
X144081009Y-117347142D02*
X144081009Y-117013809D01*
X144604819Y-116870952D02*
X144604819Y-117347142D01*
X144604819Y-117347142D02*
X143604819Y-117347142D01*
X143604819Y-117347142D02*
X143604819Y-116870952D01*
X144604819Y-116442380D02*
X143604819Y-116442380D01*
X143604819Y-116442380D02*
X144319104Y-116109047D01*
X144319104Y-116109047D02*
X143604819Y-115775714D01*
X143604819Y-115775714D02*
X144604819Y-115775714D01*
X144557200Y-115347142D02*
X144604819Y-115204285D01*
X144604819Y-115204285D02*
X144604819Y-114966190D01*
X144604819Y-114966190D02*
X144557200Y-114870952D01*
X144557200Y-114870952D02*
X144509580Y-114823333D01*
X144509580Y-114823333D02*
X144414342Y-114775714D01*
X144414342Y-114775714D02*
X144319104Y-114775714D01*
X144319104Y-114775714D02*
X144223866Y-114823333D01*
X144223866Y-114823333D02*
X144176247Y-114870952D01*
X144176247Y-114870952D02*
X144128628Y-114966190D01*
X144128628Y-114966190D02*
X144081009Y-115156666D01*
X144081009Y-115156666D02*
X144033390Y-115251904D01*
X144033390Y-115251904D02*
X143985771Y-115299523D01*
X143985771Y-115299523D02*
X143890533Y-115347142D01*
X143890533Y-115347142D02*
X143795295Y-115347142D01*
X143795295Y-115347142D02*
X143700057Y-115299523D01*
X143700057Y-115299523D02*
X143652438Y-115251904D01*
X143652438Y-115251904D02*
X143604819Y-115156666D01*
X143604819Y-115156666D02*
X143604819Y-114918571D01*
X143604819Y-114918571D02*
X143652438Y-114775714D01*
X143604819Y-114347142D02*
X144414342Y-114347142D01*
X144414342Y-114347142D02*
X144509580Y-114299523D01*
X144509580Y-114299523D02*
X144557200Y-114251904D01*
X144557200Y-114251904D02*
X144604819Y-114156666D01*
X144604819Y-114156666D02*
X144604819Y-113966190D01*
X144604819Y-113966190D02*
X144557200Y-113870952D01*
X144557200Y-113870952D02*
X144509580Y-113823333D01*
X144509580Y-113823333D02*
X144414342Y-113775714D01*
X144414342Y-113775714D02*
X143604819Y-113775714D01*
X144604819Y-112728095D02*
X144128628Y-113061428D01*
X144604819Y-113299523D02*
X143604819Y-113299523D01*
X143604819Y-113299523D02*
X143604819Y-112918571D01*
X143604819Y-112918571D02*
X143652438Y-112823333D01*
X143652438Y-112823333D02*
X143700057Y-112775714D01*
X143700057Y-112775714D02*
X143795295Y-112728095D01*
X143795295Y-112728095D02*
X143938152Y-112728095D01*
X143938152Y-112728095D02*
X144033390Y-112775714D01*
X144033390Y-112775714D02*
X144081009Y-112823333D01*
X144081009Y-112823333D02*
X144128628Y-112918571D01*
X144128628Y-112918571D02*
X144128628Y-113299523D01*
X144081009Y-112299523D02*
X144081009Y-111966190D01*
X144604819Y-111823333D02*
X144604819Y-112299523D01*
X144604819Y-112299523D02*
X143604819Y-112299523D01*
X143604819Y-112299523D02*
X143604819Y-111823333D01*
X144509580Y-110061428D02*
X144557200Y-110109047D01*
X144557200Y-110109047D02*
X144604819Y-110251904D01*
X144604819Y-110251904D02*
X144604819Y-110347142D01*
X144604819Y-110347142D02*
X144557200Y-110489999D01*
X144557200Y-110489999D02*
X144461961Y-110585237D01*
X144461961Y-110585237D02*
X144366723Y-110632856D01*
X144366723Y-110632856D02*
X144176247Y-110680475D01*
X144176247Y-110680475D02*
X144033390Y-110680475D01*
X144033390Y-110680475D02*
X143842914Y-110632856D01*
X143842914Y-110632856D02*
X143747676Y-110585237D01*
X143747676Y-110585237D02*
X143652438Y-110489999D01*
X143652438Y-110489999D02*
X143604819Y-110347142D01*
X143604819Y-110347142D02*
X143604819Y-110251904D01*
X143604819Y-110251904D02*
X143652438Y-110109047D01*
X143652438Y-110109047D02*
X143700057Y-110061428D01*
X143604819Y-109442380D02*
X143604819Y-109251904D01*
X143604819Y-109251904D02*
X143652438Y-109156666D01*
X143652438Y-109156666D02*
X143747676Y-109061428D01*
X143747676Y-109061428D02*
X143938152Y-109013809D01*
X143938152Y-109013809D02*
X144271485Y-109013809D01*
X144271485Y-109013809D02*
X144461961Y-109061428D01*
X144461961Y-109061428D02*
X144557200Y-109156666D01*
X144557200Y-109156666D02*
X144604819Y-109251904D01*
X144604819Y-109251904D02*
X144604819Y-109442380D01*
X144604819Y-109442380D02*
X144557200Y-109537618D01*
X144557200Y-109537618D02*
X144461961Y-109632856D01*
X144461961Y-109632856D02*
X144271485Y-109680475D01*
X144271485Y-109680475D02*
X143938152Y-109680475D01*
X143938152Y-109680475D02*
X143747676Y-109632856D01*
X143747676Y-109632856D02*
X143652438Y-109537618D01*
X143652438Y-109537618D02*
X143604819Y-109442380D01*
X144604819Y-108013809D02*
X144128628Y-108347142D01*
X144604819Y-108585237D02*
X143604819Y-108585237D01*
X143604819Y-108585237D02*
X143604819Y-108204285D01*
X143604819Y-108204285D02*
X143652438Y-108109047D01*
X143652438Y-108109047D02*
X143700057Y-108061428D01*
X143700057Y-108061428D02*
X143795295Y-108013809D01*
X143795295Y-108013809D02*
X143938152Y-108013809D01*
X143938152Y-108013809D02*
X144033390Y-108061428D01*
X144033390Y-108061428D02*
X144081009Y-108109047D01*
X144081009Y-108109047D02*
X144128628Y-108204285D01*
X144128628Y-108204285D02*
X144128628Y-108585237D01*
X144604819Y-107013809D02*
X144128628Y-107347142D01*
X144604819Y-107585237D02*
X143604819Y-107585237D01*
X143604819Y-107585237D02*
X143604819Y-107204285D01*
X143604819Y-107204285D02*
X143652438Y-107109047D01*
X143652438Y-107109047D02*
X143700057Y-107061428D01*
X143700057Y-107061428D02*
X143795295Y-107013809D01*
X143795295Y-107013809D02*
X143938152Y-107013809D01*
X143938152Y-107013809D02*
X144033390Y-107061428D01*
X144033390Y-107061428D02*
X144081009Y-107109047D01*
X144081009Y-107109047D02*
X144128628Y-107204285D01*
X144128628Y-107204285D02*
X144128628Y-107585237D01*
X144081009Y-106585237D02*
X144081009Y-106251904D01*
X144604819Y-106109047D02*
X144604819Y-106585237D01*
X144604819Y-106585237D02*
X143604819Y-106585237D01*
X143604819Y-106585237D02*
X143604819Y-106109047D01*
X144509580Y-105109047D02*
X144557200Y-105156666D01*
X144557200Y-105156666D02*
X144604819Y-105299523D01*
X144604819Y-105299523D02*
X144604819Y-105394761D01*
X144604819Y-105394761D02*
X144557200Y-105537618D01*
X144557200Y-105537618D02*
X144461961Y-105632856D01*
X144461961Y-105632856D02*
X144366723Y-105680475D01*
X144366723Y-105680475D02*
X144176247Y-105728094D01*
X144176247Y-105728094D02*
X144033390Y-105728094D01*
X144033390Y-105728094D02*
X143842914Y-105680475D01*
X143842914Y-105680475D02*
X143747676Y-105632856D01*
X143747676Y-105632856D02*
X143652438Y-105537618D01*
X143652438Y-105537618D02*
X143604819Y-105394761D01*
X143604819Y-105394761D02*
X143604819Y-105299523D01*
X143604819Y-105299523D02*
X143652438Y-105156666D01*
X143652438Y-105156666D02*
X143700057Y-105109047D01*
X143604819Y-104823332D02*
X143604819Y-104251904D01*
X144604819Y-104537618D02*
X143604819Y-104537618D01*
X145214819Y-116609047D02*
X145214819Y-116418571D01*
X145214819Y-116418571D02*
X145262438Y-116323333D01*
X145262438Y-116323333D02*
X145357676Y-116228095D01*
X145357676Y-116228095D02*
X145548152Y-116180476D01*
X145548152Y-116180476D02*
X145881485Y-116180476D01*
X145881485Y-116180476D02*
X146071961Y-116228095D01*
X146071961Y-116228095D02*
X146167200Y-116323333D01*
X146167200Y-116323333D02*
X146214819Y-116418571D01*
X146214819Y-116418571D02*
X146214819Y-116609047D01*
X146214819Y-116609047D02*
X146167200Y-116704285D01*
X146167200Y-116704285D02*
X146071961Y-116799523D01*
X146071961Y-116799523D02*
X145881485Y-116847142D01*
X145881485Y-116847142D02*
X145548152Y-116847142D01*
X145548152Y-116847142D02*
X145357676Y-116799523D01*
X145357676Y-116799523D02*
X145262438Y-116704285D01*
X145262438Y-116704285D02*
X145214819Y-116609047D01*
X146214819Y-115180476D02*
X145738628Y-115513809D01*
X146214819Y-115751904D02*
X145214819Y-115751904D01*
X145214819Y-115751904D02*
X145214819Y-115370952D01*
X145214819Y-115370952D02*
X145262438Y-115275714D01*
X145262438Y-115275714D02*
X145310057Y-115228095D01*
X145310057Y-115228095D02*
X145405295Y-115180476D01*
X145405295Y-115180476D02*
X145548152Y-115180476D01*
X145548152Y-115180476D02*
X145643390Y-115228095D01*
X145643390Y-115228095D02*
X145691009Y-115275714D01*
X145691009Y-115275714D02*
X145738628Y-115370952D01*
X145738628Y-115370952D02*
X145738628Y-115751904D01*
X146214819Y-114751904D02*
X145214819Y-114751904D01*
X145691009Y-114275714D02*
X145691009Y-113942381D01*
X146214819Y-113799524D02*
X146214819Y-114275714D01*
X146214819Y-114275714D02*
X145214819Y-114275714D01*
X145214819Y-114275714D02*
X145214819Y-113799524D01*
X146214819Y-113370952D02*
X145214819Y-113370952D01*
X145214819Y-113370952D02*
X146214819Y-112799524D01*
X146214819Y-112799524D02*
X145214819Y-112799524D01*
X145214819Y-112466190D02*
X145214819Y-111894762D01*
X146214819Y-112180476D02*
X145214819Y-112180476D01*
X145929104Y-111609047D02*
X145929104Y-111132857D01*
X146214819Y-111704285D02*
X145214819Y-111370952D01*
X145214819Y-111370952D02*
X146214819Y-111037619D01*
X145214819Y-110847142D02*
X145214819Y-110275714D01*
X146214819Y-110561428D02*
X145214819Y-110561428D01*
X146214819Y-109942380D02*
X145214819Y-109942380D01*
X145214819Y-109275714D02*
X145214819Y-109085238D01*
X145214819Y-109085238D02*
X145262438Y-108990000D01*
X145262438Y-108990000D02*
X145357676Y-108894762D01*
X145357676Y-108894762D02*
X145548152Y-108847143D01*
X145548152Y-108847143D02*
X145881485Y-108847143D01*
X145881485Y-108847143D02*
X146071961Y-108894762D01*
X146071961Y-108894762D02*
X146167200Y-108990000D01*
X146167200Y-108990000D02*
X146214819Y-109085238D01*
X146214819Y-109085238D02*
X146214819Y-109275714D01*
X146214819Y-109275714D02*
X146167200Y-109370952D01*
X146167200Y-109370952D02*
X146071961Y-109466190D01*
X146071961Y-109466190D02*
X145881485Y-109513809D01*
X145881485Y-109513809D02*
X145548152Y-109513809D01*
X145548152Y-109513809D02*
X145357676Y-109466190D01*
X145357676Y-109466190D02*
X145262438Y-109370952D01*
X145262438Y-109370952D02*
X145214819Y-109275714D01*
X146214819Y-108418571D02*
X145214819Y-108418571D01*
X145214819Y-108418571D02*
X146214819Y-107847143D01*
X146214819Y-107847143D02*
X145214819Y-107847143D01*
X145929104Y-106656666D02*
X145929104Y-106180476D01*
X146214819Y-106751904D02*
X145214819Y-106418571D01*
X145214819Y-106418571D02*
X146214819Y-106085238D01*
X146214819Y-105751904D02*
X145214819Y-105751904D01*
X145214819Y-105751904D02*
X146214819Y-105180476D01*
X146214819Y-105180476D02*
X145214819Y-105180476D01*
X146214819Y-104704285D02*
X145214819Y-104704285D01*
X145214819Y-104704285D02*
X145214819Y-104466190D01*
X145214819Y-104466190D02*
X145262438Y-104323333D01*
X145262438Y-104323333D02*
X145357676Y-104228095D01*
X145357676Y-104228095D02*
X145452914Y-104180476D01*
X145452914Y-104180476D02*
X145643390Y-104132857D01*
X145643390Y-104132857D02*
X145786247Y-104132857D01*
X145786247Y-104132857D02*
X145976723Y-104180476D01*
X145976723Y-104180476D02*
X146071961Y-104228095D01*
X146071961Y-104228095D02*
X146167200Y-104323333D01*
X146167200Y-104323333D02*
X146214819Y-104466190D01*
X146214819Y-104466190D02*
X146214819Y-104704285D01*
X147824819Y-114466190D02*
X146824819Y-114466190D01*
X146824819Y-114466190D02*
X146824819Y-114085238D01*
X146824819Y-114085238D02*
X146872438Y-113990000D01*
X146872438Y-113990000D02*
X146920057Y-113942381D01*
X146920057Y-113942381D02*
X147015295Y-113894762D01*
X147015295Y-113894762D02*
X147158152Y-113894762D01*
X147158152Y-113894762D02*
X147253390Y-113942381D01*
X147253390Y-113942381D02*
X147301009Y-113990000D01*
X147301009Y-113990000D02*
X147348628Y-114085238D01*
X147348628Y-114085238D02*
X147348628Y-114466190D01*
X147824819Y-112990000D02*
X147824819Y-113466190D01*
X147824819Y-113466190D02*
X146824819Y-113466190D01*
X147539104Y-112704285D02*
X147539104Y-112228095D01*
X147824819Y-112799523D02*
X146824819Y-112466190D01*
X146824819Y-112466190D02*
X147824819Y-112132857D01*
X147729580Y-111228095D02*
X147777200Y-111275714D01*
X147777200Y-111275714D02*
X147824819Y-111418571D01*
X147824819Y-111418571D02*
X147824819Y-111513809D01*
X147824819Y-111513809D02*
X147777200Y-111656666D01*
X147777200Y-111656666D02*
X147681961Y-111751904D01*
X147681961Y-111751904D02*
X147586723Y-111799523D01*
X147586723Y-111799523D02*
X147396247Y-111847142D01*
X147396247Y-111847142D02*
X147253390Y-111847142D01*
X147253390Y-111847142D02*
X147062914Y-111799523D01*
X147062914Y-111799523D02*
X146967676Y-111751904D01*
X146967676Y-111751904D02*
X146872438Y-111656666D01*
X146872438Y-111656666D02*
X146824819Y-111513809D01*
X146824819Y-111513809D02*
X146824819Y-111418571D01*
X146824819Y-111418571D02*
X146872438Y-111275714D01*
X146872438Y-111275714D02*
X146920057Y-111228095D01*
X147301009Y-110799523D02*
X147301009Y-110466190D01*
X147824819Y-110323333D02*
X147824819Y-110799523D01*
X147824819Y-110799523D02*
X146824819Y-110799523D01*
X146824819Y-110799523D02*
X146824819Y-110323333D01*
X147824819Y-109894761D02*
X146824819Y-109894761D01*
X146824819Y-109894761D02*
X147539104Y-109561428D01*
X147539104Y-109561428D02*
X146824819Y-109228095D01*
X146824819Y-109228095D02*
X147824819Y-109228095D01*
X147301009Y-108751904D02*
X147301009Y-108418571D01*
X147824819Y-108275714D02*
X147824819Y-108751904D01*
X147824819Y-108751904D02*
X146824819Y-108751904D01*
X146824819Y-108751904D02*
X146824819Y-108275714D01*
X147824819Y-107847142D02*
X146824819Y-107847142D01*
X146824819Y-107847142D02*
X147824819Y-107275714D01*
X147824819Y-107275714D02*
X146824819Y-107275714D01*
X146824819Y-106942380D02*
X146824819Y-106370952D01*
X147824819Y-106656666D02*
X146824819Y-106656666D01*
X171458095Y-66510819D02*
X172029523Y-66510819D01*
X171743809Y-67510819D02*
X171743809Y-66510819D01*
X172362857Y-67510819D02*
X172362857Y-66510819D01*
X172362857Y-66510819D02*
X172743809Y-66510819D01*
X172743809Y-66510819D02*
X172839047Y-66558438D01*
X172839047Y-66558438D02*
X172886666Y-66606057D01*
X172886666Y-66606057D02*
X172934285Y-66701295D01*
X172934285Y-66701295D02*
X172934285Y-66844152D01*
X172934285Y-66844152D02*
X172886666Y-66939390D01*
X172886666Y-66939390D02*
X172839047Y-66987009D01*
X172839047Y-66987009D02*
X172743809Y-67034628D01*
X172743809Y-67034628D02*
X172362857Y-67034628D01*
X173267619Y-66510819D02*
X173886666Y-66510819D01*
X173886666Y-66510819D02*
X173553333Y-66891771D01*
X173553333Y-66891771D02*
X173696190Y-66891771D01*
X173696190Y-66891771D02*
X173791428Y-66939390D01*
X173791428Y-66939390D02*
X173839047Y-66987009D01*
X173839047Y-66987009D02*
X173886666Y-67082247D01*
X173886666Y-67082247D02*
X173886666Y-67320342D01*
X173886666Y-67320342D02*
X173839047Y-67415580D01*
X173839047Y-67415580D02*
X173791428Y-67463200D01*
X173791428Y-67463200D02*
X173696190Y-67510819D01*
X173696190Y-67510819D02*
X173410476Y-67510819D01*
X173410476Y-67510819D02*
X173315238Y-67463200D01*
X173315238Y-67463200D02*
X173267619Y-67415580D01*
X171958095Y-71638438D02*
X171862857Y-71590819D01*
X171862857Y-71590819D02*
X171720000Y-71590819D01*
X171720000Y-71590819D02*
X171577143Y-71638438D01*
X171577143Y-71638438D02*
X171481905Y-71733676D01*
X171481905Y-71733676D02*
X171434286Y-71828914D01*
X171434286Y-71828914D02*
X171386667Y-72019390D01*
X171386667Y-72019390D02*
X171386667Y-72162247D01*
X171386667Y-72162247D02*
X171434286Y-72352723D01*
X171434286Y-72352723D02*
X171481905Y-72447961D01*
X171481905Y-72447961D02*
X171577143Y-72543200D01*
X171577143Y-72543200D02*
X171720000Y-72590819D01*
X171720000Y-72590819D02*
X171815238Y-72590819D01*
X171815238Y-72590819D02*
X171958095Y-72543200D01*
X171958095Y-72543200D02*
X172005714Y-72495580D01*
X172005714Y-72495580D02*
X172005714Y-72162247D01*
X172005714Y-72162247D02*
X171815238Y-72162247D01*
X172434286Y-72590819D02*
X172434286Y-71590819D01*
X172434286Y-71590819D02*
X173005714Y-72590819D01*
X173005714Y-72590819D02*
X173005714Y-71590819D01*
X173481905Y-72590819D02*
X173481905Y-71590819D01*
X173481905Y-71590819D02*
X173720000Y-71590819D01*
X173720000Y-71590819D02*
X173862857Y-71638438D01*
X173862857Y-71638438D02*
X173958095Y-71733676D01*
X173958095Y-71733676D02*
X174005714Y-71828914D01*
X174005714Y-71828914D02*
X174053333Y-72019390D01*
X174053333Y-72019390D02*
X174053333Y-72162247D01*
X174053333Y-72162247D02*
X174005714Y-72352723D01*
X174005714Y-72352723D02*
X173958095Y-72447961D01*
X173958095Y-72447961D02*
X173862857Y-72543200D01*
X173862857Y-72543200D02*
X173720000Y-72590819D01*
X173720000Y-72590819D02*
X173481905Y-72590819D01*
X157774190Y-135059009D02*
X157917047Y-135106628D01*
X157917047Y-135106628D02*
X157964666Y-135154247D01*
X157964666Y-135154247D02*
X158012285Y-135249485D01*
X158012285Y-135249485D02*
X158012285Y-135392342D01*
X158012285Y-135392342D02*
X157964666Y-135487580D01*
X157964666Y-135487580D02*
X157917047Y-135535200D01*
X157917047Y-135535200D02*
X157821809Y-135582819D01*
X157821809Y-135582819D02*
X157440857Y-135582819D01*
X157440857Y-135582819D02*
X157440857Y-134582819D01*
X157440857Y-134582819D02*
X157774190Y-134582819D01*
X157774190Y-134582819D02*
X157869428Y-134630438D01*
X157869428Y-134630438D02*
X157917047Y-134678057D01*
X157917047Y-134678057D02*
X157964666Y-134773295D01*
X157964666Y-134773295D02*
X157964666Y-134868533D01*
X157964666Y-134868533D02*
X157917047Y-134963771D01*
X157917047Y-134963771D02*
X157869428Y-135011390D01*
X157869428Y-135011390D02*
X157774190Y-135059009D01*
X157774190Y-135059009D02*
X157440857Y-135059009D01*
X158440857Y-135582819D02*
X158440857Y-134582819D01*
X158440857Y-134582819D02*
X158774190Y-135297104D01*
X158774190Y-135297104D02*
X159107523Y-134582819D01*
X159107523Y-134582819D02*
X159107523Y-135582819D01*
X159583714Y-135582819D02*
X159583714Y-134582819D01*
X159583714Y-134582819D02*
X159964666Y-134582819D01*
X159964666Y-134582819D02*
X160059904Y-134630438D01*
X160059904Y-134630438D02*
X160107523Y-134678057D01*
X160107523Y-134678057D02*
X160155142Y-134773295D01*
X160155142Y-134773295D02*
X160155142Y-134916152D01*
X160155142Y-134916152D02*
X160107523Y-135011390D01*
X160107523Y-135011390D02*
X160059904Y-135059009D01*
X160059904Y-135059009D02*
X159964666Y-135106628D01*
X159964666Y-135106628D02*
X159583714Y-135106628D01*
X161107523Y-135582819D02*
X160536095Y-135582819D01*
X160821809Y-135582819D02*
X160821809Y-134582819D01*
X160821809Y-134582819D02*
X160726571Y-134725676D01*
X160726571Y-134725676D02*
X160631333Y-134820914D01*
X160631333Y-134820914D02*
X160536095Y-134868533D01*
X162631333Y-135059009D02*
X162298000Y-135059009D01*
X162298000Y-135582819D02*
X162298000Y-134582819D01*
X162298000Y-134582819D02*
X162774190Y-134582819D01*
X163107524Y-135297104D02*
X163583714Y-135297104D01*
X163012286Y-135582819D02*
X163345619Y-134582819D01*
X163345619Y-134582819D02*
X163678952Y-135582819D01*
X164012286Y-134582819D02*
X164012286Y-135392342D01*
X164012286Y-135392342D02*
X164059905Y-135487580D01*
X164059905Y-135487580D02*
X164107524Y-135535200D01*
X164107524Y-135535200D02*
X164202762Y-135582819D01*
X164202762Y-135582819D02*
X164393238Y-135582819D01*
X164393238Y-135582819D02*
X164488476Y-135535200D01*
X164488476Y-135535200D02*
X164536095Y-135487580D01*
X164536095Y-135487580D02*
X164583714Y-135392342D01*
X164583714Y-135392342D02*
X164583714Y-134582819D01*
X165536095Y-135582819D02*
X165059905Y-135582819D01*
X165059905Y-135582819D02*
X165059905Y-134582819D01*
X165726572Y-134582819D02*
X166298000Y-134582819D01*
X166012286Y-135582819D02*
X166012286Y-134582819D01*
X165870095Y-66510819D02*
X166441523Y-66510819D01*
X166155809Y-67510819D02*
X166155809Y-66510819D01*
X166774857Y-67510819D02*
X166774857Y-66510819D01*
X166774857Y-66510819D02*
X167155809Y-66510819D01*
X167155809Y-66510819D02*
X167251047Y-66558438D01*
X167251047Y-66558438D02*
X167298666Y-66606057D01*
X167298666Y-66606057D02*
X167346285Y-66701295D01*
X167346285Y-66701295D02*
X167346285Y-66844152D01*
X167346285Y-66844152D02*
X167298666Y-66939390D01*
X167298666Y-66939390D02*
X167251047Y-66987009D01*
X167251047Y-66987009D02*
X167155809Y-67034628D01*
X167155809Y-67034628D02*
X166774857Y-67034628D01*
X168203428Y-66844152D02*
X168203428Y-67510819D01*
X167965333Y-66463200D02*
X167727238Y-67177485D01*
X167727238Y-67177485D02*
X168346285Y-67177485D01*
X164631999Y-72590819D02*
X164060571Y-72590819D01*
X164346285Y-72590819D02*
X164346285Y-71590819D01*
X164346285Y-71590819D02*
X164251047Y-71733676D01*
X164251047Y-71733676D02*
X164155809Y-71828914D01*
X164155809Y-71828914D02*
X164060571Y-71876533D01*
X165012952Y-71686057D02*
X165060571Y-71638438D01*
X165060571Y-71638438D02*
X165155809Y-71590819D01*
X165155809Y-71590819D02*
X165393904Y-71590819D01*
X165393904Y-71590819D02*
X165489142Y-71638438D01*
X165489142Y-71638438D02*
X165536761Y-71686057D01*
X165536761Y-71686057D02*
X165584380Y-71781295D01*
X165584380Y-71781295D02*
X165584380Y-71876533D01*
X165584380Y-71876533D02*
X165536761Y-72019390D01*
X165536761Y-72019390D02*
X164965333Y-72590819D01*
X164965333Y-72590819D02*
X165584380Y-72590819D01*
X165870095Y-71590819D02*
X166203428Y-72590819D01*
X166203428Y-72590819D02*
X166536761Y-71590819D01*
X166632000Y-72686057D02*
X167393904Y-72686057D01*
X168203428Y-72590819D02*
X167870095Y-72114628D01*
X167632000Y-72590819D02*
X167632000Y-71590819D01*
X167632000Y-71590819D02*
X168012952Y-71590819D01*
X168012952Y-71590819D02*
X168108190Y-71638438D01*
X168108190Y-71638438D02*
X168155809Y-71686057D01*
X168155809Y-71686057D02*
X168203428Y-71781295D01*
X168203428Y-71781295D02*
X168203428Y-71924152D01*
X168203428Y-71924152D02*
X168155809Y-72019390D01*
X168155809Y-72019390D02*
X168108190Y-72067009D01*
X168108190Y-72067009D02*
X168012952Y-72114628D01*
X168012952Y-72114628D02*
X167632000Y-72114628D01*
X168584381Y-72305104D02*
X169060571Y-72305104D01*
X168489143Y-72590819D02*
X168822476Y-71590819D01*
X168822476Y-71590819D02*
X169155809Y-72590819D01*
X169393905Y-71590819D02*
X169632000Y-72590819D01*
X169632000Y-72590819D02*
X169822476Y-71876533D01*
X169822476Y-71876533D02*
X170012952Y-72590819D01*
X170012952Y-72590819D02*
X170251048Y-71590819D01*
X133058819Y-83811904D02*
X133058819Y-83240476D01*
X134058819Y-83526190D02*
X133058819Y-83526190D01*
X134058819Y-82907142D02*
X133058819Y-82907142D01*
X133058819Y-82907142D02*
X133058819Y-82526190D01*
X133058819Y-82526190D02*
X133106438Y-82430952D01*
X133106438Y-82430952D02*
X133154057Y-82383333D01*
X133154057Y-82383333D02*
X133249295Y-82335714D01*
X133249295Y-82335714D02*
X133392152Y-82335714D01*
X133392152Y-82335714D02*
X133487390Y-82383333D01*
X133487390Y-82383333D02*
X133535009Y-82430952D01*
X133535009Y-82430952D02*
X133582628Y-82526190D01*
X133582628Y-82526190D02*
X133582628Y-82907142D01*
X133058819Y-82002380D02*
X133058819Y-81383333D01*
X133058819Y-81383333D02*
X133439771Y-81716666D01*
X133439771Y-81716666D02*
X133439771Y-81573809D01*
X133439771Y-81573809D02*
X133487390Y-81478571D01*
X133487390Y-81478571D02*
X133535009Y-81430952D01*
X133535009Y-81430952D02*
X133630247Y-81383333D01*
X133630247Y-81383333D02*
X133868342Y-81383333D01*
X133868342Y-81383333D02*
X133963580Y-81430952D01*
X133963580Y-81430952D02*
X134011200Y-81478571D01*
X134011200Y-81478571D02*
X134058819Y-81573809D01*
X134058819Y-81573809D02*
X134058819Y-81859523D01*
X134058819Y-81859523D02*
X134011200Y-81954761D01*
X134011200Y-81954761D02*
X133963580Y-82002380D01*
X131582438Y-83311904D02*
X131534819Y-83407142D01*
X131534819Y-83407142D02*
X131534819Y-83549999D01*
X131534819Y-83549999D02*
X131582438Y-83692856D01*
X131582438Y-83692856D02*
X131677676Y-83788094D01*
X131677676Y-83788094D02*
X131772914Y-83835713D01*
X131772914Y-83835713D02*
X131963390Y-83883332D01*
X131963390Y-83883332D02*
X132106247Y-83883332D01*
X132106247Y-83883332D02*
X132296723Y-83835713D01*
X132296723Y-83835713D02*
X132391961Y-83788094D01*
X132391961Y-83788094D02*
X132487200Y-83692856D01*
X132487200Y-83692856D02*
X132534819Y-83549999D01*
X132534819Y-83549999D02*
X132534819Y-83454761D01*
X132534819Y-83454761D02*
X132487200Y-83311904D01*
X132487200Y-83311904D02*
X132439580Y-83264285D01*
X132439580Y-83264285D02*
X132106247Y-83264285D01*
X132106247Y-83264285D02*
X132106247Y-83454761D01*
X132534819Y-82835713D02*
X131534819Y-82835713D01*
X131534819Y-82835713D02*
X132534819Y-82264285D01*
X132534819Y-82264285D02*
X131534819Y-82264285D01*
X132534819Y-81788094D02*
X131534819Y-81788094D01*
X131534819Y-81788094D02*
X131534819Y-81549999D01*
X131534819Y-81549999D02*
X131582438Y-81407142D01*
X131582438Y-81407142D02*
X131677676Y-81311904D01*
X131677676Y-81311904D02*
X131772914Y-81264285D01*
X131772914Y-81264285D02*
X131963390Y-81216666D01*
X131963390Y-81216666D02*
X132106247Y-81216666D01*
X132106247Y-81216666D02*
X132296723Y-81264285D01*
X132296723Y-81264285D02*
X132391961Y-81311904D01*
X132391961Y-81311904D02*
X132487200Y-81407142D01*
X132487200Y-81407142D02*
X132534819Y-81549999D01*
X132534819Y-81549999D02*
X132534819Y-81788094D01*
X117802095Y-121588819D02*
X118373523Y-121588819D01*
X118087809Y-122588819D02*
X118087809Y-121588819D01*
X118706857Y-122588819D02*
X118706857Y-121588819D01*
X118706857Y-121588819D02*
X119087809Y-121588819D01*
X119087809Y-121588819D02*
X119183047Y-121636438D01*
X119183047Y-121636438D02*
X119230666Y-121684057D01*
X119230666Y-121684057D02*
X119278285Y-121779295D01*
X119278285Y-121779295D02*
X119278285Y-121922152D01*
X119278285Y-121922152D02*
X119230666Y-122017390D01*
X119230666Y-122017390D02*
X119183047Y-122065009D01*
X119183047Y-122065009D02*
X119087809Y-122112628D01*
X119087809Y-122112628D02*
X118706857Y-122112628D01*
X119659238Y-121684057D02*
X119706857Y-121636438D01*
X119706857Y-121636438D02*
X119802095Y-121588819D01*
X119802095Y-121588819D02*
X120040190Y-121588819D01*
X120040190Y-121588819D02*
X120135428Y-121636438D01*
X120135428Y-121636438D02*
X120183047Y-121684057D01*
X120183047Y-121684057D02*
X120230666Y-121779295D01*
X120230666Y-121779295D02*
X120230666Y-121874533D01*
X120230666Y-121874533D02*
X120183047Y-122017390D01*
X120183047Y-122017390D02*
X119611619Y-122588819D01*
X119611619Y-122588819D02*
X120230666Y-122588819D01*
X138535580Y-62142666D02*
X138583200Y-62190285D01*
X138583200Y-62190285D02*
X138630819Y-62333142D01*
X138630819Y-62333142D02*
X138630819Y-62428380D01*
X138630819Y-62428380D02*
X138583200Y-62571237D01*
X138583200Y-62571237D02*
X138487961Y-62666475D01*
X138487961Y-62666475D02*
X138392723Y-62714094D01*
X138392723Y-62714094D02*
X138202247Y-62761713D01*
X138202247Y-62761713D02*
X138059390Y-62761713D01*
X138059390Y-62761713D02*
X137868914Y-62714094D01*
X137868914Y-62714094D02*
X137773676Y-62666475D01*
X137773676Y-62666475D02*
X137678438Y-62571237D01*
X137678438Y-62571237D02*
X137630819Y-62428380D01*
X137630819Y-62428380D02*
X137630819Y-62333142D01*
X137630819Y-62333142D02*
X137678438Y-62190285D01*
X137678438Y-62190285D02*
X137726057Y-62142666D01*
X137630819Y-61809332D02*
X137630819Y-61190285D01*
X137630819Y-61190285D02*
X138011771Y-61523618D01*
X138011771Y-61523618D02*
X138011771Y-61380761D01*
X138011771Y-61380761D02*
X138059390Y-61285523D01*
X138059390Y-61285523D02*
X138107009Y-61237904D01*
X138107009Y-61237904D02*
X138202247Y-61190285D01*
X138202247Y-61190285D02*
X138440342Y-61190285D01*
X138440342Y-61190285D02*
X138535580Y-61237904D01*
X138535580Y-61237904D02*
X138583200Y-61285523D01*
X138583200Y-61285523D02*
X138630819Y-61380761D01*
X138630819Y-61380761D02*
X138630819Y-61666475D01*
X138630819Y-61666475D02*
X138583200Y-61761713D01*
X138583200Y-61761713D02*
X138535580Y-61809332D01*
X164258666Y-114076819D02*
X164258666Y-114791104D01*
X164258666Y-114791104D02*
X164211047Y-114933961D01*
X164211047Y-114933961D02*
X164115809Y-115029200D01*
X164115809Y-115029200D02*
X163972952Y-115076819D01*
X163972952Y-115076819D02*
X163877714Y-115076819D01*
X164687238Y-114172057D02*
X164734857Y-114124438D01*
X164734857Y-114124438D02*
X164830095Y-114076819D01*
X164830095Y-114076819D02*
X165068190Y-114076819D01*
X165068190Y-114076819D02*
X165163428Y-114124438D01*
X165163428Y-114124438D02*
X165211047Y-114172057D01*
X165211047Y-114172057D02*
X165258666Y-114267295D01*
X165258666Y-114267295D02*
X165258666Y-114362533D01*
X165258666Y-114362533D02*
X165211047Y-114505390D01*
X165211047Y-114505390D02*
X164639619Y-115076819D01*
X164639619Y-115076819D02*
X165258666Y-115076819D01*
X157367009Y-117812476D02*
X157367009Y-118145809D01*
X157890819Y-118145809D02*
X156890819Y-118145809D01*
X156890819Y-118145809D02*
X156890819Y-117669619D01*
X157367009Y-117288666D02*
X157367009Y-116955333D01*
X157890819Y-116812476D02*
X157890819Y-117288666D01*
X157890819Y-117288666D02*
X156890819Y-117288666D01*
X156890819Y-117288666D02*
X156890819Y-116812476D01*
X157367009Y-116383904D02*
X157367009Y-116050571D01*
X157890819Y-115907714D02*
X157890819Y-116383904D01*
X157890819Y-116383904D02*
X156890819Y-116383904D01*
X156890819Y-116383904D02*
X156890819Y-115907714D01*
X157890819Y-115479142D02*
X156890819Y-115479142D01*
X156890819Y-115479142D02*
X156890819Y-115241047D01*
X156890819Y-115241047D02*
X156938438Y-115098190D01*
X156938438Y-115098190D02*
X157033676Y-115002952D01*
X157033676Y-115002952D02*
X157128914Y-114955333D01*
X157128914Y-114955333D02*
X157319390Y-114907714D01*
X157319390Y-114907714D02*
X157462247Y-114907714D01*
X157462247Y-114907714D02*
X157652723Y-114955333D01*
X157652723Y-114955333D02*
X157747961Y-115002952D01*
X157747961Y-115002952D02*
X157843200Y-115098190D01*
X157843200Y-115098190D02*
X157890819Y-115241047D01*
X157890819Y-115241047D02*
X157890819Y-115479142D01*
X157367009Y-114145809D02*
X157414628Y-114002952D01*
X157414628Y-114002952D02*
X157462247Y-113955333D01*
X157462247Y-113955333D02*
X157557485Y-113907714D01*
X157557485Y-113907714D02*
X157700342Y-113907714D01*
X157700342Y-113907714D02*
X157795580Y-113955333D01*
X157795580Y-113955333D02*
X157843200Y-114002952D01*
X157843200Y-114002952D02*
X157890819Y-114098190D01*
X157890819Y-114098190D02*
X157890819Y-114479142D01*
X157890819Y-114479142D02*
X156890819Y-114479142D01*
X156890819Y-114479142D02*
X156890819Y-114145809D01*
X156890819Y-114145809D02*
X156938438Y-114050571D01*
X156938438Y-114050571D02*
X156986057Y-114002952D01*
X156986057Y-114002952D02*
X157081295Y-113955333D01*
X157081295Y-113955333D02*
X157176533Y-113955333D01*
X157176533Y-113955333D02*
X157271771Y-114002952D01*
X157271771Y-114002952D02*
X157319390Y-114050571D01*
X157319390Y-114050571D02*
X157367009Y-114145809D01*
X157367009Y-114145809D02*
X157367009Y-114479142D01*
X157605104Y-113526761D02*
X157605104Y-113050571D01*
X157890819Y-113621999D02*
X156890819Y-113288666D01*
X156890819Y-113288666D02*
X157890819Y-112955333D01*
X157795580Y-112050571D02*
X157843200Y-112098190D01*
X157843200Y-112098190D02*
X157890819Y-112241047D01*
X157890819Y-112241047D02*
X157890819Y-112336285D01*
X157890819Y-112336285D02*
X157843200Y-112479142D01*
X157843200Y-112479142D02*
X157747961Y-112574380D01*
X157747961Y-112574380D02*
X157652723Y-112621999D01*
X157652723Y-112621999D02*
X157462247Y-112669618D01*
X157462247Y-112669618D02*
X157319390Y-112669618D01*
X157319390Y-112669618D02*
X157128914Y-112621999D01*
X157128914Y-112621999D02*
X157033676Y-112574380D01*
X157033676Y-112574380D02*
X156938438Y-112479142D01*
X156938438Y-112479142D02*
X156890819Y-112336285D01*
X156890819Y-112336285D02*
X156890819Y-112241047D01*
X156890819Y-112241047D02*
X156938438Y-112098190D01*
X156938438Y-112098190D02*
X156986057Y-112050571D01*
X157890819Y-111621999D02*
X156890819Y-111621999D01*
X157890819Y-111050571D02*
X157319390Y-111479142D01*
X156890819Y-111050571D02*
X157462247Y-111621999D01*
X140343095Y-53048819D02*
X140914523Y-53048819D01*
X140628809Y-54048819D02*
X140628809Y-53048819D01*
X141247857Y-54048819D02*
X141247857Y-53048819D01*
X141247857Y-53048819D02*
X141628809Y-53048819D01*
X141628809Y-53048819D02*
X141724047Y-53096438D01*
X141724047Y-53096438D02*
X141771666Y-53144057D01*
X141771666Y-53144057D02*
X141819285Y-53239295D01*
X141819285Y-53239295D02*
X141819285Y-53382152D01*
X141819285Y-53382152D02*
X141771666Y-53477390D01*
X141771666Y-53477390D02*
X141724047Y-53525009D01*
X141724047Y-53525009D02*
X141628809Y-53572628D01*
X141628809Y-53572628D02*
X141247857Y-53572628D01*
X142676428Y-53048819D02*
X142485952Y-53048819D01*
X142485952Y-53048819D02*
X142390714Y-53096438D01*
X142390714Y-53096438D02*
X142343095Y-53144057D01*
X142343095Y-53144057D02*
X142247857Y-53286914D01*
X142247857Y-53286914D02*
X142200238Y-53477390D01*
X142200238Y-53477390D02*
X142200238Y-53858342D01*
X142200238Y-53858342D02*
X142247857Y-53953580D01*
X142247857Y-53953580D02*
X142295476Y-54001200D01*
X142295476Y-54001200D02*
X142390714Y-54048819D01*
X142390714Y-54048819D02*
X142581190Y-54048819D01*
X142581190Y-54048819D02*
X142676428Y-54001200D01*
X142676428Y-54001200D02*
X142724047Y-53953580D01*
X142724047Y-53953580D02*
X142771666Y-53858342D01*
X142771666Y-53858342D02*
X142771666Y-53620247D01*
X142771666Y-53620247D02*
X142724047Y-53525009D01*
X142724047Y-53525009D02*
X142676428Y-53477390D01*
X142676428Y-53477390D02*
X142581190Y-53429771D01*
X142581190Y-53429771D02*
X142390714Y-53429771D01*
X142390714Y-53429771D02*
X142295476Y-53477390D01*
X142295476Y-53477390D02*
X142247857Y-53525009D01*
X142247857Y-53525009D02*
X142200238Y-53620247D01*
X138239523Y-55334819D02*
X137763333Y-55334819D01*
X137763333Y-55334819D02*
X137715714Y-55811009D01*
X137715714Y-55811009D02*
X137763333Y-55763390D01*
X137763333Y-55763390D02*
X137858571Y-55715771D01*
X137858571Y-55715771D02*
X138096666Y-55715771D01*
X138096666Y-55715771D02*
X138191904Y-55763390D01*
X138191904Y-55763390D02*
X138239523Y-55811009D01*
X138239523Y-55811009D02*
X138287142Y-55906247D01*
X138287142Y-55906247D02*
X138287142Y-56144342D01*
X138287142Y-56144342D02*
X138239523Y-56239580D01*
X138239523Y-56239580D02*
X138191904Y-56287200D01*
X138191904Y-56287200D02*
X138096666Y-56334819D01*
X138096666Y-56334819D02*
X137858571Y-56334819D01*
X137858571Y-56334819D02*
X137763333Y-56287200D01*
X137763333Y-56287200D02*
X137715714Y-56239580D01*
X138572857Y-55334819D02*
X138906190Y-56334819D01*
X138906190Y-56334819D02*
X139239523Y-55334819D01*
X110410666Y-85055819D02*
X110410666Y-85770104D01*
X110410666Y-85770104D02*
X110363047Y-85912961D01*
X110363047Y-85912961D02*
X110267809Y-86008200D01*
X110267809Y-86008200D02*
X110124952Y-86055819D01*
X110124952Y-86055819D02*
X110029714Y-86055819D01*
X111410666Y-86055819D02*
X110839238Y-86055819D01*
X111124952Y-86055819D02*
X111124952Y-85055819D01*
X111124952Y-85055819D02*
X111029714Y-85198676D01*
X111029714Y-85198676D02*
X110934476Y-85293914D01*
X110934476Y-85293914D02*
X110839238Y-85341533D01*
X108696381Y-79975819D02*
X109029714Y-80975819D01*
X109029714Y-80975819D02*
X109363047Y-79975819D01*
X109648762Y-80690104D02*
X110124952Y-80690104D01*
X109553524Y-80975819D02*
X109886857Y-79975819D01*
X109886857Y-79975819D02*
X110220190Y-80975819D01*
X111029714Y-80975819D02*
X110553524Y-80975819D01*
X110553524Y-80975819D02*
X110553524Y-79975819D01*
X111220191Y-79975819D02*
X111553524Y-80975819D01*
X111553524Y-80975819D02*
X111886857Y-79975819D01*
X112220191Y-80452009D02*
X112553524Y-80452009D01*
X112696381Y-80975819D02*
X112220191Y-80975819D01*
X112220191Y-80975819D02*
X112220191Y-79975819D01*
X112220191Y-79975819D02*
X112696381Y-79975819D01*
X166838333Y-61964819D02*
X166505000Y-61488628D01*
X166266905Y-61964819D02*
X166266905Y-60964819D01*
X166266905Y-60964819D02*
X166647857Y-60964819D01*
X166647857Y-60964819D02*
X166743095Y-61012438D01*
X166743095Y-61012438D02*
X166790714Y-61060057D01*
X166790714Y-61060057D02*
X166838333Y-61155295D01*
X166838333Y-61155295D02*
X166838333Y-61298152D01*
X166838333Y-61298152D02*
X166790714Y-61393390D01*
X166790714Y-61393390D02*
X166743095Y-61441009D01*
X166743095Y-61441009D02*
X166647857Y-61488628D01*
X166647857Y-61488628D02*
X166266905Y-61488628D01*
X167790714Y-61964819D02*
X167219286Y-61964819D01*
X167505000Y-61964819D02*
X167505000Y-60964819D01*
X167505000Y-60964819D02*
X167409762Y-61107676D01*
X167409762Y-61107676D02*
X167314524Y-61202914D01*
X167314524Y-61202914D02*
X167219286Y-61250533D01*
X166790714Y-58324819D02*
X166219286Y-58324819D01*
X166505000Y-58324819D02*
X166505000Y-57324819D01*
X166505000Y-57324819D02*
X166409762Y-57467676D01*
X166409762Y-57467676D02*
X166314524Y-57562914D01*
X166314524Y-57562914D02*
X166219286Y-57610533D01*
X167219286Y-58324819D02*
X167219286Y-57324819D01*
X167790714Y-58324819D02*
X167362143Y-57753390D01*
X167790714Y-57324819D02*
X167219286Y-57896247D01*
X157683690Y-130841009D02*
X157826547Y-130888628D01*
X157826547Y-130888628D02*
X157874166Y-130936247D01*
X157874166Y-130936247D02*
X157921785Y-131031485D01*
X157921785Y-131031485D02*
X157921785Y-131174342D01*
X157921785Y-131174342D02*
X157874166Y-131269580D01*
X157874166Y-131269580D02*
X157826547Y-131317200D01*
X157826547Y-131317200D02*
X157731309Y-131364819D01*
X157731309Y-131364819D02*
X157350357Y-131364819D01*
X157350357Y-131364819D02*
X157350357Y-130364819D01*
X157350357Y-130364819D02*
X157683690Y-130364819D01*
X157683690Y-130364819D02*
X157778928Y-130412438D01*
X157778928Y-130412438D02*
X157826547Y-130460057D01*
X157826547Y-130460057D02*
X157874166Y-130555295D01*
X157874166Y-130555295D02*
X157874166Y-130650533D01*
X157874166Y-130650533D02*
X157826547Y-130745771D01*
X157826547Y-130745771D02*
X157778928Y-130793390D01*
X157778928Y-130793390D02*
X157683690Y-130841009D01*
X157683690Y-130841009D02*
X157350357Y-130841009D01*
X158350357Y-131364819D02*
X158350357Y-130364819D01*
X158350357Y-130364819D02*
X158683690Y-131079104D01*
X158683690Y-131079104D02*
X159017023Y-130364819D01*
X159017023Y-130364819D02*
X159017023Y-131364819D01*
X159493214Y-131364819D02*
X159493214Y-130364819D01*
X159493214Y-130364819D02*
X159874166Y-130364819D01*
X159874166Y-130364819D02*
X159969404Y-130412438D01*
X159969404Y-130412438D02*
X160017023Y-130460057D01*
X160017023Y-130460057D02*
X160064642Y-130555295D01*
X160064642Y-130555295D02*
X160064642Y-130698152D01*
X160064642Y-130698152D02*
X160017023Y-130793390D01*
X160017023Y-130793390D02*
X159969404Y-130841009D01*
X159969404Y-130841009D02*
X159874166Y-130888628D01*
X159874166Y-130888628D02*
X159493214Y-130888628D01*
X160445595Y-130460057D02*
X160493214Y-130412438D01*
X160493214Y-130412438D02*
X160588452Y-130364819D01*
X160588452Y-130364819D02*
X160826547Y-130364819D01*
X160826547Y-130364819D02*
X160921785Y-130412438D01*
X160921785Y-130412438D02*
X160969404Y-130460057D01*
X160969404Y-130460057D02*
X161017023Y-130555295D01*
X161017023Y-130555295D02*
X161017023Y-130650533D01*
X161017023Y-130650533D02*
X160969404Y-130793390D01*
X160969404Y-130793390D02*
X160397976Y-131364819D01*
X160397976Y-131364819D02*
X161017023Y-131364819D01*
X162540833Y-130841009D02*
X162207500Y-130841009D01*
X162207500Y-131364819D02*
X162207500Y-130364819D01*
X162207500Y-130364819D02*
X162683690Y-130364819D01*
X163017024Y-131079104D02*
X163493214Y-131079104D01*
X162921786Y-131364819D02*
X163255119Y-130364819D01*
X163255119Y-130364819D02*
X163588452Y-131364819D01*
X163921786Y-130364819D02*
X163921786Y-131174342D01*
X163921786Y-131174342D02*
X163969405Y-131269580D01*
X163969405Y-131269580D02*
X164017024Y-131317200D01*
X164017024Y-131317200D02*
X164112262Y-131364819D01*
X164112262Y-131364819D02*
X164302738Y-131364819D01*
X164302738Y-131364819D02*
X164397976Y-131317200D01*
X164397976Y-131317200D02*
X164445595Y-131269580D01*
X164445595Y-131269580D02*
X164493214Y-131174342D01*
X164493214Y-131174342D02*
X164493214Y-130364819D01*
X165445595Y-131364819D02*
X164969405Y-131364819D01*
X164969405Y-131364819D02*
X164969405Y-130364819D01*
X165636072Y-130364819D02*
X166207500Y-130364819D01*
X165921786Y-131364819D02*
X165921786Y-130364819D01*
X154902819Y-77775237D02*
X154902819Y-77203809D01*
X155902819Y-77489523D02*
X154902819Y-77489523D01*
X155379009Y-76870475D02*
X155379009Y-76537142D01*
X155902819Y-76394285D02*
X155902819Y-76870475D01*
X155902819Y-76870475D02*
X154902819Y-76870475D01*
X154902819Y-76870475D02*
X154902819Y-76394285D01*
X155855200Y-76013332D02*
X155902819Y-75870475D01*
X155902819Y-75870475D02*
X155902819Y-75632380D01*
X155902819Y-75632380D02*
X155855200Y-75537142D01*
X155855200Y-75537142D02*
X155807580Y-75489523D01*
X155807580Y-75489523D02*
X155712342Y-75441904D01*
X155712342Y-75441904D02*
X155617104Y-75441904D01*
X155617104Y-75441904D02*
X155521866Y-75489523D01*
X155521866Y-75489523D02*
X155474247Y-75537142D01*
X155474247Y-75537142D02*
X155426628Y-75632380D01*
X155426628Y-75632380D02*
X155379009Y-75822856D01*
X155379009Y-75822856D02*
X155331390Y-75918094D01*
X155331390Y-75918094D02*
X155283771Y-75965713D01*
X155283771Y-75965713D02*
X155188533Y-76013332D01*
X155188533Y-76013332D02*
X155093295Y-76013332D01*
X155093295Y-76013332D02*
X154998057Y-75965713D01*
X154998057Y-75965713D02*
X154950438Y-75918094D01*
X154950438Y-75918094D02*
X154902819Y-75822856D01*
X154902819Y-75822856D02*
X154902819Y-75584761D01*
X154902819Y-75584761D02*
X154950438Y-75441904D01*
X154902819Y-75156189D02*
X154902819Y-74584761D01*
X155902819Y-74870475D02*
X154902819Y-74870475D01*
X135644819Y-71651904D02*
X136454342Y-71651904D01*
X136454342Y-71651904D02*
X136549580Y-71604285D01*
X136549580Y-71604285D02*
X136597200Y-71556666D01*
X136597200Y-71556666D02*
X136644819Y-71461428D01*
X136644819Y-71461428D02*
X136644819Y-71270952D01*
X136644819Y-71270952D02*
X136597200Y-71175714D01*
X136597200Y-71175714D02*
X136549580Y-71128095D01*
X136549580Y-71128095D02*
X136454342Y-71080476D01*
X136454342Y-71080476D02*
X135644819Y-71080476D01*
X135644819Y-70699523D02*
X135644819Y-70032857D01*
X135644819Y-70032857D02*
X136644819Y-70461428D01*
X150822819Y-58586666D02*
X150346628Y-58919999D01*
X150822819Y-59158094D02*
X149822819Y-59158094D01*
X149822819Y-59158094D02*
X149822819Y-58777142D01*
X149822819Y-58777142D02*
X149870438Y-58681904D01*
X149870438Y-58681904D02*
X149918057Y-58634285D01*
X149918057Y-58634285D02*
X150013295Y-58586666D01*
X150013295Y-58586666D02*
X150156152Y-58586666D01*
X150156152Y-58586666D02*
X150251390Y-58634285D01*
X150251390Y-58634285D02*
X150299009Y-58681904D01*
X150299009Y-58681904D02*
X150346628Y-58777142D01*
X150346628Y-58777142D02*
X150346628Y-59158094D01*
X149822819Y-58253332D02*
X149822819Y-57634285D01*
X149822819Y-57634285D02*
X150203771Y-57967618D01*
X150203771Y-57967618D02*
X150203771Y-57824761D01*
X150203771Y-57824761D02*
X150251390Y-57729523D01*
X150251390Y-57729523D02*
X150299009Y-57681904D01*
X150299009Y-57681904D02*
X150394247Y-57634285D01*
X150394247Y-57634285D02*
X150632342Y-57634285D01*
X150632342Y-57634285D02*
X150727580Y-57681904D01*
X150727580Y-57681904D02*
X150775200Y-57729523D01*
X150775200Y-57729523D02*
X150822819Y-57824761D01*
X150822819Y-57824761D02*
X150822819Y-58110475D01*
X150822819Y-58110475D02*
X150775200Y-58205713D01*
X150775200Y-58205713D02*
X150727580Y-58253332D01*
X146351714Y-56858819D02*
X145875524Y-56858819D01*
X145875524Y-56858819D02*
X145827905Y-57335009D01*
X145827905Y-57335009D02*
X145875524Y-57287390D01*
X145875524Y-57287390D02*
X145970762Y-57239771D01*
X145970762Y-57239771D02*
X146208857Y-57239771D01*
X146208857Y-57239771D02*
X146304095Y-57287390D01*
X146304095Y-57287390D02*
X146351714Y-57335009D01*
X146351714Y-57335009D02*
X146399333Y-57430247D01*
X146399333Y-57430247D02*
X146399333Y-57668342D01*
X146399333Y-57668342D02*
X146351714Y-57763580D01*
X146351714Y-57763580D02*
X146304095Y-57811200D01*
X146304095Y-57811200D02*
X146208857Y-57858819D01*
X146208857Y-57858819D02*
X145970762Y-57858819D01*
X145970762Y-57858819D02*
X145875524Y-57811200D01*
X145875524Y-57811200D02*
X145827905Y-57763580D01*
X147018381Y-56858819D02*
X147113619Y-56858819D01*
X147113619Y-56858819D02*
X147208857Y-56906438D01*
X147208857Y-56906438D02*
X147256476Y-56954057D01*
X147256476Y-56954057D02*
X147304095Y-57049295D01*
X147304095Y-57049295D02*
X147351714Y-57239771D01*
X147351714Y-57239771D02*
X147351714Y-57477866D01*
X147351714Y-57477866D02*
X147304095Y-57668342D01*
X147304095Y-57668342D02*
X147256476Y-57763580D01*
X147256476Y-57763580D02*
X147208857Y-57811200D01*
X147208857Y-57811200D02*
X147113619Y-57858819D01*
X147113619Y-57858819D02*
X147018381Y-57858819D01*
X147018381Y-57858819D02*
X146923143Y-57811200D01*
X146923143Y-57811200D02*
X146875524Y-57763580D01*
X146875524Y-57763580D02*
X146827905Y-57668342D01*
X146827905Y-57668342D02*
X146780286Y-57477866D01*
X146780286Y-57477866D02*
X146780286Y-57239771D01*
X146780286Y-57239771D02*
X146827905Y-57049295D01*
X146827905Y-57049295D02*
X146875524Y-56954057D01*
X146875524Y-56954057D02*
X146923143Y-56906438D01*
X146923143Y-56906438D02*
X147018381Y-56858819D01*
X147970762Y-56858819D02*
X148066000Y-56858819D01*
X148066000Y-56858819D02*
X148161238Y-56906438D01*
X148161238Y-56906438D02*
X148208857Y-56954057D01*
X148208857Y-56954057D02*
X148256476Y-57049295D01*
X148256476Y-57049295D02*
X148304095Y-57239771D01*
X148304095Y-57239771D02*
X148304095Y-57477866D01*
X148304095Y-57477866D02*
X148256476Y-57668342D01*
X148256476Y-57668342D02*
X148208857Y-57763580D01*
X148208857Y-57763580D02*
X148161238Y-57811200D01*
X148161238Y-57811200D02*
X148066000Y-57858819D01*
X148066000Y-57858819D02*
X147970762Y-57858819D01*
X147970762Y-57858819D02*
X147875524Y-57811200D01*
X147875524Y-57811200D02*
X147827905Y-57763580D01*
X147827905Y-57763580D02*
X147780286Y-57668342D01*
X147780286Y-57668342D02*
X147732667Y-57477866D01*
X147732667Y-57477866D02*
X147732667Y-57239771D01*
X147732667Y-57239771D02*
X147780286Y-57049295D01*
X147780286Y-57049295D02*
X147827905Y-56954057D01*
X147827905Y-56954057D02*
X147875524Y-56906438D01*
X147875524Y-56906438D02*
X147970762Y-56858819D01*
X174813333Y-83978819D02*
X174480000Y-83502628D01*
X174241905Y-83978819D02*
X174241905Y-82978819D01*
X174241905Y-82978819D02*
X174622857Y-82978819D01*
X174622857Y-82978819D02*
X174718095Y-83026438D01*
X174718095Y-83026438D02*
X174765714Y-83074057D01*
X174765714Y-83074057D02*
X174813333Y-83169295D01*
X174813333Y-83169295D02*
X174813333Y-83312152D01*
X174813333Y-83312152D02*
X174765714Y-83407390D01*
X174765714Y-83407390D02*
X174718095Y-83455009D01*
X174718095Y-83455009D02*
X174622857Y-83502628D01*
X174622857Y-83502628D02*
X174241905Y-83502628D01*
X175384762Y-83407390D02*
X175289524Y-83359771D01*
X175289524Y-83359771D02*
X175241905Y-83312152D01*
X175241905Y-83312152D02*
X175194286Y-83216914D01*
X175194286Y-83216914D02*
X175194286Y-83169295D01*
X175194286Y-83169295D02*
X175241905Y-83074057D01*
X175241905Y-83074057D02*
X175289524Y-83026438D01*
X175289524Y-83026438D02*
X175384762Y-82978819D01*
X175384762Y-82978819D02*
X175575238Y-82978819D01*
X175575238Y-82978819D02*
X175670476Y-83026438D01*
X175670476Y-83026438D02*
X175718095Y-83074057D01*
X175718095Y-83074057D02*
X175765714Y-83169295D01*
X175765714Y-83169295D02*
X175765714Y-83216914D01*
X175765714Y-83216914D02*
X175718095Y-83312152D01*
X175718095Y-83312152D02*
X175670476Y-83359771D01*
X175670476Y-83359771D02*
X175575238Y-83407390D01*
X175575238Y-83407390D02*
X175384762Y-83407390D01*
X175384762Y-83407390D02*
X175289524Y-83455009D01*
X175289524Y-83455009D02*
X175241905Y-83502628D01*
X175241905Y-83502628D02*
X175194286Y-83597866D01*
X175194286Y-83597866D02*
X175194286Y-83788342D01*
X175194286Y-83788342D02*
X175241905Y-83883580D01*
X175241905Y-83883580D02*
X175289524Y-83931200D01*
X175289524Y-83931200D02*
X175384762Y-83978819D01*
X175384762Y-83978819D02*
X175575238Y-83978819D01*
X175575238Y-83978819D02*
X175670476Y-83931200D01*
X175670476Y-83931200D02*
X175718095Y-83883580D01*
X175718095Y-83883580D02*
X175765714Y-83788342D01*
X175765714Y-83788342D02*
X175765714Y-83597866D01*
X175765714Y-83597866D02*
X175718095Y-83502628D01*
X175718095Y-83502628D02*
X175670476Y-83455009D01*
X175670476Y-83455009D02*
X175575238Y-83407390D01*
X174860952Y-87618819D02*
X174289524Y-87618819D01*
X174575238Y-87618819D02*
X174575238Y-86618819D01*
X174575238Y-86618819D02*
X174480000Y-86761676D01*
X174480000Y-86761676D02*
X174384762Y-86856914D01*
X174384762Y-86856914D02*
X174289524Y-86904533D01*
X175289524Y-87618819D02*
X175289524Y-86618819D01*
X175384762Y-87237866D02*
X175670476Y-87618819D01*
X175670476Y-86952152D02*
X175289524Y-87333104D01*
X115728819Y-98210666D02*
X115252628Y-98543999D01*
X115728819Y-98782094D02*
X114728819Y-98782094D01*
X114728819Y-98782094D02*
X114728819Y-98401142D01*
X114728819Y-98401142D02*
X114776438Y-98305904D01*
X114776438Y-98305904D02*
X114824057Y-98258285D01*
X114824057Y-98258285D02*
X114919295Y-98210666D01*
X114919295Y-98210666D02*
X115062152Y-98210666D01*
X115062152Y-98210666D02*
X115157390Y-98258285D01*
X115157390Y-98258285D02*
X115205009Y-98305904D01*
X115205009Y-98305904D02*
X115252628Y-98401142D01*
X115252628Y-98401142D02*
X115252628Y-98782094D01*
X114728819Y-97877332D02*
X114728819Y-97210666D01*
X114728819Y-97210666D02*
X115728819Y-97639237D01*
X119368819Y-98163047D02*
X119368819Y-98734475D01*
X119368819Y-98448761D02*
X118368819Y-98448761D01*
X118368819Y-98448761D02*
X118511676Y-98543999D01*
X118511676Y-98543999D02*
X118606914Y-98639237D01*
X118606914Y-98639237D02*
X118654533Y-98734475D01*
X119368819Y-97734475D02*
X118368819Y-97734475D01*
X118987866Y-97639237D02*
X119368819Y-97353523D01*
X118702152Y-97353523D02*
X119083104Y-97734475D01*
X126616095Y-123914819D02*
X126616095Y-124724342D01*
X126616095Y-124724342D02*
X126663714Y-124819580D01*
X126663714Y-124819580D02*
X126711333Y-124867200D01*
X126711333Y-124867200D02*
X126806571Y-124914819D01*
X126806571Y-124914819D02*
X126997047Y-124914819D01*
X126997047Y-124914819D02*
X127092285Y-124867200D01*
X127092285Y-124867200D02*
X127139904Y-124819580D01*
X127139904Y-124819580D02*
X127187523Y-124724342D01*
X127187523Y-124724342D02*
X127187523Y-123914819D01*
X128092285Y-124248152D02*
X128092285Y-124914819D01*
X127854190Y-123867200D02*
X127616095Y-124581485D01*
X127616095Y-124581485D02*
X128235142Y-124581485D01*
X124222285Y-117931009D02*
X124365142Y-117978628D01*
X124365142Y-117978628D02*
X124412761Y-118026247D01*
X124412761Y-118026247D02*
X124460380Y-118121485D01*
X124460380Y-118121485D02*
X124460380Y-118264342D01*
X124460380Y-118264342D02*
X124412761Y-118359580D01*
X124412761Y-118359580D02*
X124365142Y-118407200D01*
X124365142Y-118407200D02*
X124269904Y-118454819D01*
X124269904Y-118454819D02*
X123888952Y-118454819D01*
X123888952Y-118454819D02*
X123888952Y-117454819D01*
X123888952Y-117454819D02*
X124222285Y-117454819D01*
X124222285Y-117454819D02*
X124317523Y-117502438D01*
X124317523Y-117502438D02*
X124365142Y-117550057D01*
X124365142Y-117550057D02*
X124412761Y-117645295D01*
X124412761Y-117645295D02*
X124412761Y-117740533D01*
X124412761Y-117740533D02*
X124365142Y-117835771D01*
X124365142Y-117835771D02*
X124317523Y-117883390D01*
X124317523Y-117883390D02*
X124222285Y-117931009D01*
X124222285Y-117931009D02*
X123888952Y-117931009D01*
X124888952Y-118454819D02*
X124888952Y-117454819D01*
X124888952Y-117454819D02*
X125222285Y-118169104D01*
X125222285Y-118169104D02*
X125555618Y-117454819D01*
X125555618Y-117454819D02*
X125555618Y-118454819D01*
X126031809Y-118454819D02*
X126031809Y-117454819D01*
X126031809Y-117454819D02*
X126412761Y-117454819D01*
X126412761Y-117454819D02*
X126507999Y-117502438D01*
X126507999Y-117502438D02*
X126555618Y-117550057D01*
X126555618Y-117550057D02*
X126603237Y-117645295D01*
X126603237Y-117645295D02*
X126603237Y-117788152D01*
X126603237Y-117788152D02*
X126555618Y-117883390D01*
X126555618Y-117883390D02*
X126507999Y-117931009D01*
X126507999Y-117931009D02*
X126412761Y-117978628D01*
X126412761Y-117978628D02*
X126031809Y-117978628D01*
X126984190Y-117550057D02*
X127031809Y-117502438D01*
X127031809Y-117502438D02*
X127127047Y-117454819D01*
X127127047Y-117454819D02*
X127365142Y-117454819D01*
X127365142Y-117454819D02*
X127460380Y-117502438D01*
X127460380Y-117502438D02*
X127507999Y-117550057D01*
X127507999Y-117550057D02*
X127555618Y-117645295D01*
X127555618Y-117645295D02*
X127555618Y-117740533D01*
X127555618Y-117740533D02*
X127507999Y-117883390D01*
X127507999Y-117883390D02*
X126936571Y-118454819D01*
X126936571Y-118454819D02*
X127555618Y-118454819D01*
X128127047Y-117883390D02*
X128031809Y-117835771D01*
X128031809Y-117835771D02*
X127984190Y-117788152D01*
X127984190Y-117788152D02*
X127936571Y-117692914D01*
X127936571Y-117692914D02*
X127936571Y-117645295D01*
X127936571Y-117645295D02*
X127984190Y-117550057D01*
X127984190Y-117550057D02*
X128031809Y-117502438D01*
X128031809Y-117502438D02*
X128127047Y-117454819D01*
X128127047Y-117454819D02*
X128317523Y-117454819D01*
X128317523Y-117454819D02*
X128412761Y-117502438D01*
X128412761Y-117502438D02*
X128460380Y-117550057D01*
X128460380Y-117550057D02*
X128507999Y-117645295D01*
X128507999Y-117645295D02*
X128507999Y-117692914D01*
X128507999Y-117692914D02*
X128460380Y-117788152D01*
X128460380Y-117788152D02*
X128412761Y-117835771D01*
X128412761Y-117835771D02*
X128317523Y-117883390D01*
X128317523Y-117883390D02*
X128127047Y-117883390D01*
X128127047Y-117883390D02*
X128031809Y-117931009D01*
X128031809Y-117931009D02*
X127984190Y-117978628D01*
X127984190Y-117978628D02*
X127936571Y-118073866D01*
X127936571Y-118073866D02*
X127936571Y-118264342D01*
X127936571Y-118264342D02*
X127984190Y-118359580D01*
X127984190Y-118359580D02*
X128031809Y-118407200D01*
X128031809Y-118407200D02*
X128127047Y-118454819D01*
X128127047Y-118454819D02*
X128317523Y-118454819D01*
X128317523Y-118454819D02*
X128412761Y-118407200D01*
X128412761Y-118407200D02*
X128460380Y-118359580D01*
X128460380Y-118359580D02*
X128507999Y-118264342D01*
X128507999Y-118264342D02*
X128507999Y-118073866D01*
X128507999Y-118073866D02*
X128460380Y-117978628D01*
X128460380Y-117978628D02*
X128412761Y-117931009D01*
X128412761Y-117931009D02*
X128317523Y-117883390D01*
X129127047Y-117454819D02*
X129222285Y-117454819D01*
X129222285Y-117454819D02*
X129317523Y-117502438D01*
X129317523Y-117502438D02*
X129365142Y-117550057D01*
X129365142Y-117550057D02*
X129412761Y-117645295D01*
X129412761Y-117645295D02*
X129460380Y-117835771D01*
X129460380Y-117835771D02*
X129460380Y-118073866D01*
X129460380Y-118073866D02*
X129412761Y-118264342D01*
X129412761Y-118264342D02*
X129365142Y-118359580D01*
X129365142Y-118359580D02*
X129317523Y-118407200D01*
X129317523Y-118407200D02*
X129222285Y-118454819D01*
X129222285Y-118454819D02*
X129127047Y-118454819D01*
X129127047Y-118454819D02*
X129031809Y-118407200D01*
X129031809Y-118407200D02*
X128984190Y-118359580D01*
X128984190Y-118359580D02*
X128936571Y-118264342D01*
X128936571Y-118264342D02*
X128888952Y-118073866D01*
X128888952Y-118073866D02*
X128888952Y-117835771D01*
X128888952Y-117835771D02*
X128936571Y-117645295D01*
X128936571Y-117645295D02*
X128984190Y-117550057D01*
X128984190Y-117550057D02*
X129031809Y-117502438D01*
X129031809Y-117502438D02*
X129127047Y-117454819D01*
X129650857Y-118550057D02*
X130412761Y-118550057D01*
X130603238Y-117550057D02*
X130650857Y-117502438D01*
X130650857Y-117502438D02*
X130746095Y-117454819D01*
X130746095Y-117454819D02*
X130984190Y-117454819D01*
X130984190Y-117454819D02*
X131079428Y-117502438D01*
X131079428Y-117502438D02*
X131127047Y-117550057D01*
X131127047Y-117550057D02*
X131174666Y-117645295D01*
X131174666Y-117645295D02*
X131174666Y-117740533D01*
X131174666Y-117740533D02*
X131127047Y-117883390D01*
X131127047Y-117883390D02*
X130555619Y-118454819D01*
X130555619Y-118454819D02*
X131174666Y-118454819D01*
X156029819Y-87796666D02*
X155553628Y-88129999D01*
X156029819Y-88368094D02*
X155029819Y-88368094D01*
X155029819Y-88368094D02*
X155029819Y-87987142D01*
X155029819Y-87987142D02*
X155077438Y-87891904D01*
X155077438Y-87891904D02*
X155125057Y-87844285D01*
X155125057Y-87844285D02*
X155220295Y-87796666D01*
X155220295Y-87796666D02*
X155363152Y-87796666D01*
X155363152Y-87796666D02*
X155458390Y-87844285D01*
X155458390Y-87844285D02*
X155506009Y-87891904D01*
X155506009Y-87891904D02*
X155553628Y-87987142D01*
X155553628Y-87987142D02*
X155553628Y-88368094D01*
X155029819Y-86891904D02*
X155029819Y-87368094D01*
X155029819Y-87368094D02*
X155506009Y-87415713D01*
X155506009Y-87415713D02*
X155458390Y-87368094D01*
X155458390Y-87368094D02*
X155410771Y-87272856D01*
X155410771Y-87272856D02*
X155410771Y-87034761D01*
X155410771Y-87034761D02*
X155458390Y-86939523D01*
X155458390Y-86939523D02*
X155506009Y-86891904D01*
X155506009Y-86891904D02*
X155601247Y-86844285D01*
X155601247Y-86844285D02*
X155839342Y-86844285D01*
X155839342Y-86844285D02*
X155934580Y-86891904D01*
X155934580Y-86891904D02*
X155982200Y-86939523D01*
X155982200Y-86939523D02*
X156029819Y-87034761D01*
X156029819Y-87034761D02*
X156029819Y-87272856D01*
X156029819Y-87272856D02*
X155982200Y-87368094D01*
X155982200Y-87368094D02*
X155934580Y-87415713D01*
X159712819Y-88463333D02*
X159712819Y-89034761D01*
X159712819Y-88749047D02*
X158712819Y-88749047D01*
X158712819Y-88749047D02*
X158855676Y-88844285D01*
X158855676Y-88844285D02*
X158950914Y-88939523D01*
X158950914Y-88939523D02*
X158998533Y-89034761D01*
X159617580Y-88034761D02*
X159665200Y-87987142D01*
X159665200Y-87987142D02*
X159712819Y-88034761D01*
X159712819Y-88034761D02*
X159665200Y-88082380D01*
X159665200Y-88082380D02*
X159617580Y-88034761D01*
X159617580Y-88034761D02*
X159712819Y-88034761D01*
X158712819Y-87082381D02*
X158712819Y-87558571D01*
X158712819Y-87558571D02*
X159189009Y-87606190D01*
X159189009Y-87606190D02*
X159141390Y-87558571D01*
X159141390Y-87558571D02*
X159093771Y-87463333D01*
X159093771Y-87463333D02*
X159093771Y-87225238D01*
X159093771Y-87225238D02*
X159141390Y-87130000D01*
X159141390Y-87130000D02*
X159189009Y-87082381D01*
X159189009Y-87082381D02*
X159284247Y-87034762D01*
X159284247Y-87034762D02*
X159522342Y-87034762D01*
X159522342Y-87034762D02*
X159617580Y-87082381D01*
X159617580Y-87082381D02*
X159665200Y-87130000D01*
X159665200Y-87130000D02*
X159712819Y-87225238D01*
X159712819Y-87225238D02*
X159712819Y-87463333D01*
X159712819Y-87463333D02*
X159665200Y-87558571D01*
X159665200Y-87558571D02*
X159617580Y-87606190D01*
X159712819Y-86606190D02*
X158712819Y-86606190D01*
X159331866Y-86510952D02*
X159712819Y-86225238D01*
X159046152Y-86225238D02*
X159427104Y-86606190D01*
X137630819Y-59372476D02*
X137630819Y-59848666D01*
X137630819Y-59848666D02*
X138107009Y-59896285D01*
X138107009Y-59896285D02*
X138059390Y-59848666D01*
X138059390Y-59848666D02*
X138011771Y-59753428D01*
X138011771Y-59753428D02*
X138011771Y-59515333D01*
X138011771Y-59515333D02*
X138059390Y-59420095D01*
X138059390Y-59420095D02*
X138107009Y-59372476D01*
X138107009Y-59372476D02*
X138202247Y-59324857D01*
X138202247Y-59324857D02*
X138440342Y-59324857D01*
X138440342Y-59324857D02*
X138535580Y-59372476D01*
X138535580Y-59372476D02*
X138583200Y-59420095D01*
X138583200Y-59420095D02*
X138630819Y-59515333D01*
X138630819Y-59515333D02*
X138630819Y-59753428D01*
X138630819Y-59753428D02*
X138583200Y-59848666D01*
X138583200Y-59848666D02*
X138535580Y-59896285D01*
X137630819Y-59039142D02*
X138630819Y-58705809D01*
X138630819Y-58705809D02*
X137630819Y-58372476D01*
X156029819Y-56046666D02*
X155553628Y-56379999D01*
X156029819Y-56618094D02*
X155029819Y-56618094D01*
X155029819Y-56618094D02*
X155029819Y-56237142D01*
X155029819Y-56237142D02*
X155077438Y-56141904D01*
X155077438Y-56141904D02*
X155125057Y-56094285D01*
X155125057Y-56094285D02*
X155220295Y-56046666D01*
X155220295Y-56046666D02*
X155363152Y-56046666D01*
X155363152Y-56046666D02*
X155458390Y-56094285D01*
X155458390Y-56094285D02*
X155506009Y-56141904D01*
X155506009Y-56141904D02*
X155553628Y-56237142D01*
X155553628Y-56237142D02*
X155553628Y-56618094D01*
X155125057Y-55665713D02*
X155077438Y-55618094D01*
X155077438Y-55618094D02*
X155029819Y-55522856D01*
X155029819Y-55522856D02*
X155029819Y-55284761D01*
X155029819Y-55284761D02*
X155077438Y-55189523D01*
X155077438Y-55189523D02*
X155125057Y-55141904D01*
X155125057Y-55141904D02*
X155220295Y-55094285D01*
X155220295Y-55094285D02*
X155315533Y-55094285D01*
X155315533Y-55094285D02*
X155458390Y-55141904D01*
X155458390Y-55141904D02*
X156029819Y-55713332D01*
X156029819Y-55713332D02*
X156029819Y-55094285D01*
X159839819Y-56094285D02*
X159839819Y-56665713D01*
X159839819Y-56379999D02*
X158839819Y-56379999D01*
X158839819Y-56379999D02*
X158982676Y-56475237D01*
X158982676Y-56475237D02*
X159077914Y-56570475D01*
X159077914Y-56570475D02*
X159125533Y-56665713D01*
X159839819Y-55665713D02*
X158839819Y-55665713D01*
X159839819Y-55094285D02*
X159268390Y-55522856D01*
X158839819Y-55094285D02*
X159411247Y-55665713D01*
X139877580Y-128221166D02*
X139925200Y-128268785D01*
X139925200Y-128268785D02*
X139972819Y-128411642D01*
X139972819Y-128411642D02*
X139972819Y-128506880D01*
X139972819Y-128506880D02*
X139925200Y-128649737D01*
X139925200Y-128649737D02*
X139829961Y-128744975D01*
X139829961Y-128744975D02*
X139734723Y-128792594D01*
X139734723Y-128792594D02*
X139544247Y-128840213D01*
X139544247Y-128840213D02*
X139401390Y-128840213D01*
X139401390Y-128840213D02*
X139210914Y-128792594D01*
X139210914Y-128792594D02*
X139115676Y-128744975D01*
X139115676Y-128744975D02*
X139020438Y-128649737D01*
X139020438Y-128649737D02*
X138972819Y-128506880D01*
X138972819Y-128506880D02*
X138972819Y-128411642D01*
X138972819Y-128411642D02*
X139020438Y-128268785D01*
X139020438Y-128268785D02*
X139068057Y-128221166D01*
X139972819Y-127268785D02*
X139972819Y-127840213D01*
X139972819Y-127554499D02*
X138972819Y-127554499D01*
X138972819Y-127554499D02*
X139115676Y-127649737D01*
X139115676Y-127649737D02*
X139210914Y-127744975D01*
X139210914Y-127744975D02*
X139258533Y-127840213D01*
X170084761Y-76242057D02*
X169989523Y-76194438D01*
X169989523Y-76194438D02*
X169894285Y-76099200D01*
X169894285Y-76099200D02*
X169751428Y-75956342D01*
X169751428Y-75956342D02*
X169656190Y-75908723D01*
X169656190Y-75908723D02*
X169560952Y-75908723D01*
X169608571Y-76146819D02*
X169513333Y-76099200D01*
X169513333Y-76099200D02*
X169418095Y-76003961D01*
X169418095Y-76003961D02*
X169370476Y-75813485D01*
X169370476Y-75813485D02*
X169370476Y-75480152D01*
X169370476Y-75480152D02*
X169418095Y-75289676D01*
X169418095Y-75289676D02*
X169513333Y-75194438D01*
X169513333Y-75194438D02*
X169608571Y-75146819D01*
X169608571Y-75146819D02*
X169799047Y-75146819D01*
X169799047Y-75146819D02*
X169894285Y-75194438D01*
X169894285Y-75194438D02*
X169989523Y-75289676D01*
X169989523Y-75289676D02*
X170037142Y-75480152D01*
X170037142Y-75480152D02*
X170037142Y-75813485D01*
X170037142Y-75813485D02*
X169989523Y-76003961D01*
X169989523Y-76003961D02*
X169894285Y-76099200D01*
X169894285Y-76099200D02*
X169799047Y-76146819D01*
X169799047Y-76146819D02*
X169608571Y-76146819D01*
X170894285Y-75480152D02*
X170894285Y-76146819D01*
X170656190Y-75099200D02*
X170418095Y-75813485D01*
X170418095Y-75813485D02*
X171037142Y-75813485D01*
X143978666Y-97090033D02*
X143978666Y-96390033D01*
X143978666Y-96390033D02*
X144145333Y-96390033D01*
X144145333Y-96390033D02*
X144245333Y-96423366D01*
X144245333Y-96423366D02*
X144312000Y-96490033D01*
X144312000Y-96490033D02*
X144345333Y-96556700D01*
X144345333Y-96556700D02*
X144378666Y-96690033D01*
X144378666Y-96690033D02*
X144378666Y-96790033D01*
X144378666Y-96790033D02*
X144345333Y-96923366D01*
X144345333Y-96923366D02*
X144312000Y-96990033D01*
X144312000Y-96990033D02*
X144245333Y-97056700D01*
X144245333Y-97056700D02*
X144145333Y-97090033D01*
X144145333Y-97090033D02*
X143978666Y-97090033D01*
X144578666Y-96390033D02*
X144812000Y-97090033D01*
X144812000Y-97090033D02*
X145045333Y-96390033D01*
X145478666Y-96390033D02*
X145478666Y-96890033D01*
X145478666Y-96890033D02*
X145445333Y-96990033D01*
X145445333Y-96990033D02*
X145378666Y-97056700D01*
X145378666Y-97056700D02*
X145278666Y-97090033D01*
X145278666Y-97090033D02*
X145212000Y-97090033D01*
X146111999Y-96390033D02*
X145978666Y-96390033D01*
X145978666Y-96390033D02*
X145911999Y-96423366D01*
X145911999Y-96423366D02*
X145878666Y-96456700D01*
X145878666Y-96456700D02*
X145811999Y-96556700D01*
X145811999Y-96556700D02*
X145778666Y-96690033D01*
X145778666Y-96690033D02*
X145778666Y-96956700D01*
X145778666Y-96956700D02*
X145811999Y-97023366D01*
X145811999Y-97023366D02*
X145845333Y-97056700D01*
X145845333Y-97056700D02*
X145911999Y-97090033D01*
X145911999Y-97090033D02*
X146045333Y-97090033D01*
X146045333Y-97090033D02*
X146111999Y-97056700D01*
X146111999Y-97056700D02*
X146145333Y-97023366D01*
X146145333Y-97023366D02*
X146178666Y-96956700D01*
X146178666Y-96956700D02*
X146178666Y-96790033D01*
X146178666Y-96790033D02*
X146145333Y-96723366D01*
X146145333Y-96723366D02*
X146111999Y-96690033D01*
X146111999Y-96690033D02*
X146045333Y-96656700D01*
X146045333Y-96656700D02*
X145911999Y-96656700D01*
X145911999Y-96656700D02*
X145845333Y-96690033D01*
X145845333Y-96690033D02*
X145811999Y-96723366D01*
X145811999Y-96723366D02*
X145778666Y-96790033D01*
X146445333Y-96890033D02*
X146778666Y-96890033D01*
X146378666Y-97090033D02*
X146612000Y-96390033D01*
X146612000Y-96390033D02*
X146845333Y-97090033D01*
X142458666Y-95820033D02*
X142458666Y-95120033D01*
X142458666Y-95120033D02*
X142692000Y-95620033D01*
X142692000Y-95620033D02*
X142925333Y-95120033D01*
X142925333Y-95120033D02*
X142925333Y-95820033D01*
X143258666Y-95820033D02*
X143258666Y-95120033D01*
X143591999Y-95820033D02*
X143591999Y-95120033D01*
X143591999Y-95120033D02*
X143825333Y-95620033D01*
X143825333Y-95620033D02*
X144058666Y-95120033D01*
X144058666Y-95120033D02*
X144058666Y-95820033D01*
X144325333Y-95120033D02*
X144791999Y-95820033D01*
X144791999Y-95120033D02*
X144325333Y-95820033D01*
X145458666Y-95820033D02*
X145225333Y-95486700D01*
X145058666Y-95820033D02*
X145058666Y-95120033D01*
X145058666Y-95120033D02*
X145325333Y-95120033D01*
X145325333Y-95120033D02*
X145392000Y-95153366D01*
X145392000Y-95153366D02*
X145425333Y-95186700D01*
X145425333Y-95186700D02*
X145458666Y-95253366D01*
X145458666Y-95253366D02*
X145458666Y-95353366D01*
X145458666Y-95353366D02*
X145425333Y-95420033D01*
X145425333Y-95420033D02*
X145392000Y-95453366D01*
X145392000Y-95453366D02*
X145325333Y-95486700D01*
X145325333Y-95486700D02*
X145058666Y-95486700D01*
X145658666Y-95120033D02*
X146058666Y-95120033D01*
X145858666Y-95820033D02*
X145858666Y-95120033D01*
X146658666Y-95820033D02*
X146258666Y-95820033D01*
X146458666Y-95820033D02*
X146458666Y-95120033D01*
X146458666Y-95120033D02*
X146391999Y-95220033D01*
X146391999Y-95220033D02*
X146325333Y-95286700D01*
X146325333Y-95286700D02*
X146258666Y-95320033D01*
X147092000Y-95120033D02*
X147158666Y-95120033D01*
X147158666Y-95120033D02*
X147225333Y-95153366D01*
X147225333Y-95153366D02*
X147258666Y-95186700D01*
X147258666Y-95186700D02*
X147292000Y-95253366D01*
X147292000Y-95253366D02*
X147325333Y-95386700D01*
X147325333Y-95386700D02*
X147325333Y-95553366D01*
X147325333Y-95553366D02*
X147292000Y-95686700D01*
X147292000Y-95686700D02*
X147258666Y-95753366D01*
X147258666Y-95753366D02*
X147225333Y-95786700D01*
X147225333Y-95786700D02*
X147158666Y-95820033D01*
X147158666Y-95820033D02*
X147092000Y-95820033D01*
X147092000Y-95820033D02*
X147025333Y-95786700D01*
X147025333Y-95786700D02*
X146992000Y-95753366D01*
X146992000Y-95753366D02*
X146958666Y-95686700D01*
X146958666Y-95686700D02*
X146925333Y-95553366D01*
X146925333Y-95553366D02*
X146925333Y-95386700D01*
X146925333Y-95386700D02*
X146958666Y-95253366D01*
X146958666Y-95253366D02*
X146992000Y-95186700D01*
X146992000Y-95186700D02*
X147025333Y-95153366D01*
X147025333Y-95153366D02*
X147092000Y-95120033D01*
X147925333Y-95120033D02*
X147792000Y-95120033D01*
X147792000Y-95120033D02*
X147725333Y-95153366D01*
X147725333Y-95153366D02*
X147692000Y-95186700D01*
X147692000Y-95186700D02*
X147625333Y-95286700D01*
X147625333Y-95286700D02*
X147592000Y-95420033D01*
X147592000Y-95420033D02*
X147592000Y-95686700D01*
X147592000Y-95686700D02*
X147625333Y-95753366D01*
X147625333Y-95753366D02*
X147658667Y-95786700D01*
X147658667Y-95786700D02*
X147725333Y-95820033D01*
X147725333Y-95820033D02*
X147858667Y-95820033D01*
X147858667Y-95820033D02*
X147925333Y-95786700D01*
X147925333Y-95786700D02*
X147958667Y-95753366D01*
X147958667Y-95753366D02*
X147992000Y-95686700D01*
X147992000Y-95686700D02*
X147992000Y-95520033D01*
X147992000Y-95520033D02*
X147958667Y-95453366D01*
X147958667Y-95453366D02*
X147925333Y-95420033D01*
X147925333Y-95420033D02*
X147858667Y-95386700D01*
X147858667Y-95386700D02*
X147725333Y-95386700D01*
X147725333Y-95386700D02*
X147658667Y-95420033D01*
X147658667Y-95420033D02*
X147625333Y-95453366D01*
X147625333Y-95453366D02*
X147592000Y-95520033D01*
X148258667Y-95186700D02*
X148292000Y-95153366D01*
X148292000Y-95153366D02*
X148358667Y-95120033D01*
X148358667Y-95120033D02*
X148525334Y-95120033D01*
X148525334Y-95120033D02*
X148592000Y-95153366D01*
X148592000Y-95153366D02*
X148625334Y-95186700D01*
X148625334Y-95186700D02*
X148658667Y-95253366D01*
X148658667Y-95253366D02*
X148658667Y-95320033D01*
X148658667Y-95320033D02*
X148625334Y-95420033D01*
X148625334Y-95420033D02*
X148225334Y-95820033D01*
X148225334Y-95820033D02*
X148658667Y-95820033D01*
X156029819Y-82081666D02*
X155553628Y-82414999D01*
X156029819Y-82653094D02*
X155029819Y-82653094D01*
X155029819Y-82653094D02*
X155029819Y-82272142D01*
X155029819Y-82272142D02*
X155077438Y-82176904D01*
X155077438Y-82176904D02*
X155125057Y-82129285D01*
X155125057Y-82129285D02*
X155220295Y-82081666D01*
X155220295Y-82081666D02*
X155363152Y-82081666D01*
X155363152Y-82081666D02*
X155458390Y-82129285D01*
X155458390Y-82129285D02*
X155506009Y-82176904D01*
X155506009Y-82176904D02*
X155553628Y-82272142D01*
X155553628Y-82272142D02*
X155553628Y-82653094D01*
X155363152Y-81224523D02*
X156029819Y-81224523D01*
X154982200Y-81462618D02*
X155696485Y-81700713D01*
X155696485Y-81700713D02*
X155696485Y-81081666D01*
X159712819Y-82034047D02*
X159712819Y-82605475D01*
X159712819Y-82319761D02*
X158712819Y-82319761D01*
X158712819Y-82319761D02*
X158855676Y-82414999D01*
X158855676Y-82414999D02*
X158950914Y-82510237D01*
X158950914Y-82510237D02*
X158998533Y-82605475D01*
X159712819Y-81605475D02*
X158712819Y-81605475D01*
X159331866Y-81510237D02*
X159712819Y-81224523D01*
X159046152Y-81224523D02*
X159427104Y-81605475D01*
X154902819Y-94813237D02*
X154902819Y-94241809D01*
X155902819Y-94527523D02*
X154902819Y-94527523D01*
X155379009Y-93908475D02*
X155379009Y-93575142D01*
X155902819Y-93432285D02*
X155902819Y-93908475D01*
X155902819Y-93908475D02*
X154902819Y-93908475D01*
X154902819Y-93908475D02*
X154902819Y-93432285D01*
X155855200Y-93051332D02*
X155902819Y-92908475D01*
X155902819Y-92908475D02*
X155902819Y-92670380D01*
X155902819Y-92670380D02*
X155855200Y-92575142D01*
X155855200Y-92575142D02*
X155807580Y-92527523D01*
X155807580Y-92527523D02*
X155712342Y-92479904D01*
X155712342Y-92479904D02*
X155617104Y-92479904D01*
X155617104Y-92479904D02*
X155521866Y-92527523D01*
X155521866Y-92527523D02*
X155474247Y-92575142D01*
X155474247Y-92575142D02*
X155426628Y-92670380D01*
X155426628Y-92670380D02*
X155379009Y-92860856D01*
X155379009Y-92860856D02*
X155331390Y-92956094D01*
X155331390Y-92956094D02*
X155283771Y-93003713D01*
X155283771Y-93003713D02*
X155188533Y-93051332D01*
X155188533Y-93051332D02*
X155093295Y-93051332D01*
X155093295Y-93051332D02*
X154998057Y-93003713D01*
X154998057Y-93003713D02*
X154950438Y-92956094D01*
X154950438Y-92956094D02*
X154902819Y-92860856D01*
X154902819Y-92860856D02*
X154902819Y-92622761D01*
X154902819Y-92622761D02*
X154950438Y-92479904D01*
X154902819Y-92194189D02*
X154902819Y-91622761D01*
X155902819Y-91908475D02*
X154902819Y-91908475D01*
X150473580Y-62142666D02*
X150521200Y-62190285D01*
X150521200Y-62190285D02*
X150568819Y-62333142D01*
X150568819Y-62333142D02*
X150568819Y-62428380D01*
X150568819Y-62428380D02*
X150521200Y-62571237D01*
X150521200Y-62571237D02*
X150425961Y-62666475D01*
X150425961Y-62666475D02*
X150330723Y-62714094D01*
X150330723Y-62714094D02*
X150140247Y-62761713D01*
X150140247Y-62761713D02*
X149997390Y-62761713D01*
X149997390Y-62761713D02*
X149806914Y-62714094D01*
X149806914Y-62714094D02*
X149711676Y-62666475D01*
X149711676Y-62666475D02*
X149616438Y-62571237D01*
X149616438Y-62571237D02*
X149568819Y-62428380D01*
X149568819Y-62428380D02*
X149568819Y-62333142D01*
X149568819Y-62333142D02*
X149616438Y-62190285D01*
X149616438Y-62190285D02*
X149664057Y-62142666D01*
X149664057Y-61761713D02*
X149616438Y-61714094D01*
X149616438Y-61714094D02*
X149568819Y-61618856D01*
X149568819Y-61618856D02*
X149568819Y-61380761D01*
X149568819Y-61380761D02*
X149616438Y-61285523D01*
X149616438Y-61285523D02*
X149664057Y-61237904D01*
X149664057Y-61237904D02*
X149759295Y-61190285D01*
X149759295Y-61190285D02*
X149854533Y-61190285D01*
X149854533Y-61190285D02*
X149997390Y-61237904D01*
X149997390Y-61237904D02*
X150568819Y-61809332D01*
X150568819Y-61809332D02*
X150568819Y-61190285D01*
X156802738Y-127169104D02*
X157278928Y-127169104D01*
X156707500Y-127454819D02*
X157040833Y-126454819D01*
X157040833Y-126454819D02*
X157374166Y-127454819D01*
X158278928Y-127359580D02*
X158231309Y-127407200D01*
X158231309Y-127407200D02*
X158088452Y-127454819D01*
X158088452Y-127454819D02*
X157993214Y-127454819D01*
X157993214Y-127454819D02*
X157850357Y-127407200D01*
X157850357Y-127407200D02*
X157755119Y-127311961D01*
X157755119Y-127311961D02*
X157707500Y-127216723D01*
X157707500Y-127216723D02*
X157659881Y-127026247D01*
X157659881Y-127026247D02*
X157659881Y-126883390D01*
X157659881Y-126883390D02*
X157707500Y-126692914D01*
X157707500Y-126692914D02*
X157755119Y-126597676D01*
X157755119Y-126597676D02*
X157850357Y-126502438D01*
X157850357Y-126502438D02*
X157993214Y-126454819D01*
X157993214Y-126454819D02*
X158088452Y-126454819D01*
X158088452Y-126454819D02*
X158231309Y-126502438D01*
X158231309Y-126502438D02*
X158278928Y-126550057D01*
X158564643Y-126454819D02*
X159136071Y-126454819D01*
X158850357Y-127454819D02*
X158850357Y-126454819D01*
X159469405Y-126454819D02*
X159469405Y-127264342D01*
X159469405Y-127264342D02*
X159517024Y-127359580D01*
X159517024Y-127359580D02*
X159564643Y-127407200D01*
X159564643Y-127407200D02*
X159659881Y-127454819D01*
X159659881Y-127454819D02*
X159850357Y-127454819D01*
X159850357Y-127454819D02*
X159945595Y-127407200D01*
X159945595Y-127407200D02*
X159993214Y-127359580D01*
X159993214Y-127359580D02*
X160040833Y-127264342D01*
X160040833Y-127264342D02*
X160040833Y-126454819D01*
X160469405Y-127169104D02*
X160945595Y-127169104D01*
X160374167Y-127454819D02*
X160707500Y-126454819D01*
X160707500Y-126454819D02*
X161040833Y-127454819D01*
X161231310Y-126454819D02*
X161802738Y-126454819D01*
X161517024Y-127454819D02*
X161517024Y-126454819D01*
X162326548Y-126454819D02*
X162517024Y-126454819D01*
X162517024Y-126454819D02*
X162612262Y-126502438D01*
X162612262Y-126502438D02*
X162707500Y-126597676D01*
X162707500Y-126597676D02*
X162755119Y-126788152D01*
X162755119Y-126788152D02*
X162755119Y-127121485D01*
X162755119Y-127121485D02*
X162707500Y-127311961D01*
X162707500Y-127311961D02*
X162612262Y-127407200D01*
X162612262Y-127407200D02*
X162517024Y-127454819D01*
X162517024Y-127454819D02*
X162326548Y-127454819D01*
X162326548Y-127454819D02*
X162231310Y-127407200D01*
X162231310Y-127407200D02*
X162136072Y-127311961D01*
X162136072Y-127311961D02*
X162088453Y-127121485D01*
X162088453Y-127121485D02*
X162088453Y-126788152D01*
X162088453Y-126788152D02*
X162136072Y-126597676D01*
X162136072Y-126597676D02*
X162231310Y-126502438D01*
X162231310Y-126502438D02*
X162326548Y-126454819D01*
X163755119Y-127454819D02*
X163421786Y-126978628D01*
X163183691Y-127454819D02*
X163183691Y-126454819D01*
X163183691Y-126454819D02*
X163564643Y-126454819D01*
X163564643Y-126454819D02*
X163659881Y-126502438D01*
X163659881Y-126502438D02*
X163707500Y-126550057D01*
X163707500Y-126550057D02*
X163755119Y-126645295D01*
X163755119Y-126645295D02*
X163755119Y-126788152D01*
X163755119Y-126788152D02*
X163707500Y-126883390D01*
X163707500Y-126883390D02*
X163659881Y-126931009D01*
X163659881Y-126931009D02*
X163564643Y-126978628D01*
X163564643Y-126978628D02*
X163183691Y-126978628D01*
X165136072Y-126454819D02*
X165326548Y-126454819D01*
X165326548Y-126454819D02*
X165421786Y-126502438D01*
X165421786Y-126502438D02*
X165517024Y-126597676D01*
X165517024Y-126597676D02*
X165564643Y-126788152D01*
X165564643Y-126788152D02*
X165564643Y-127121485D01*
X165564643Y-127121485D02*
X165517024Y-127311961D01*
X165517024Y-127311961D02*
X165421786Y-127407200D01*
X165421786Y-127407200D02*
X165326548Y-127454819D01*
X165326548Y-127454819D02*
X165136072Y-127454819D01*
X165136072Y-127454819D02*
X165040834Y-127407200D01*
X165040834Y-127407200D02*
X164945596Y-127311961D01*
X164945596Y-127311961D02*
X164897977Y-127121485D01*
X164897977Y-127121485D02*
X164897977Y-126788152D01*
X164897977Y-126788152D02*
X164945596Y-126597676D01*
X164945596Y-126597676D02*
X165040834Y-126502438D01*
X165040834Y-126502438D02*
X165136072Y-126454819D01*
X165993215Y-127454819D02*
X165993215Y-126454819D01*
X165993215Y-126454819D02*
X166564643Y-127454819D01*
X166564643Y-127454819D02*
X166564643Y-126454819D01*
X174418666Y-114770819D02*
X174418666Y-115485104D01*
X174418666Y-115485104D02*
X174371047Y-115627961D01*
X174371047Y-115627961D02*
X174275809Y-115723200D01*
X174275809Y-115723200D02*
X174132952Y-115770819D01*
X174132952Y-115770819D02*
X174037714Y-115770819D01*
X174799619Y-114770819D02*
X175418666Y-114770819D01*
X175418666Y-114770819D02*
X175085333Y-115151771D01*
X175085333Y-115151771D02*
X175228190Y-115151771D01*
X175228190Y-115151771D02*
X175323428Y-115199390D01*
X175323428Y-115199390D02*
X175371047Y-115247009D01*
X175371047Y-115247009D02*
X175418666Y-115342247D01*
X175418666Y-115342247D02*
X175418666Y-115580342D01*
X175418666Y-115580342D02*
X175371047Y-115675580D01*
X175371047Y-115675580D02*
X175323428Y-115723200D01*
X175323428Y-115723200D02*
X175228190Y-115770819D01*
X175228190Y-115770819D02*
X174942476Y-115770819D01*
X174942476Y-115770819D02*
X174847238Y-115723200D01*
X174847238Y-115723200D02*
X174799619Y-115675580D01*
X178731104Y-122176761D02*
X178731104Y-121700571D01*
X179016819Y-122271999D02*
X178016819Y-121938666D01*
X178016819Y-121938666D02*
X179016819Y-121605333D01*
X178921580Y-120700571D02*
X178969200Y-120748190D01*
X178969200Y-120748190D02*
X179016819Y-120891047D01*
X179016819Y-120891047D02*
X179016819Y-120986285D01*
X179016819Y-120986285D02*
X178969200Y-121129142D01*
X178969200Y-121129142D02*
X178873961Y-121224380D01*
X178873961Y-121224380D02*
X178778723Y-121271999D01*
X178778723Y-121271999D02*
X178588247Y-121319618D01*
X178588247Y-121319618D02*
X178445390Y-121319618D01*
X178445390Y-121319618D02*
X178254914Y-121271999D01*
X178254914Y-121271999D02*
X178159676Y-121224380D01*
X178159676Y-121224380D02*
X178064438Y-121129142D01*
X178064438Y-121129142D02*
X178016819Y-120986285D01*
X178016819Y-120986285D02*
X178016819Y-120891047D01*
X178016819Y-120891047D02*
X178064438Y-120748190D01*
X178064438Y-120748190D02*
X178112057Y-120700571D01*
X178016819Y-120414856D02*
X178016819Y-119843428D01*
X179016819Y-120129142D02*
X178016819Y-120129142D01*
X178016819Y-119510094D02*
X178826342Y-119510094D01*
X178826342Y-119510094D02*
X178921580Y-119462475D01*
X178921580Y-119462475D02*
X178969200Y-119414856D01*
X178969200Y-119414856D02*
X179016819Y-119319618D01*
X179016819Y-119319618D02*
X179016819Y-119129142D01*
X179016819Y-119129142D02*
X178969200Y-119033904D01*
X178969200Y-119033904D02*
X178921580Y-118986285D01*
X178921580Y-118986285D02*
X178826342Y-118938666D01*
X178826342Y-118938666D02*
X178016819Y-118938666D01*
X178731104Y-118510094D02*
X178731104Y-118033904D01*
X179016819Y-118605332D02*
X178016819Y-118271999D01*
X178016819Y-118271999D02*
X179016819Y-117938666D01*
X178016819Y-117748189D02*
X178016819Y-117176761D01*
X179016819Y-117462475D02*
X178016819Y-117462475D01*
X178016819Y-116652951D02*
X178016819Y-116462475D01*
X178016819Y-116462475D02*
X178064438Y-116367237D01*
X178064438Y-116367237D02*
X178159676Y-116271999D01*
X178159676Y-116271999D02*
X178350152Y-116224380D01*
X178350152Y-116224380D02*
X178683485Y-116224380D01*
X178683485Y-116224380D02*
X178873961Y-116271999D01*
X178873961Y-116271999D02*
X178969200Y-116367237D01*
X178969200Y-116367237D02*
X179016819Y-116462475D01*
X179016819Y-116462475D02*
X179016819Y-116652951D01*
X179016819Y-116652951D02*
X178969200Y-116748189D01*
X178969200Y-116748189D02*
X178873961Y-116843427D01*
X178873961Y-116843427D02*
X178683485Y-116891046D01*
X178683485Y-116891046D02*
X178350152Y-116891046D01*
X178350152Y-116891046D02*
X178159676Y-116843427D01*
X178159676Y-116843427D02*
X178064438Y-116748189D01*
X178064438Y-116748189D02*
X178016819Y-116652951D01*
X179016819Y-115224380D02*
X178540628Y-115557713D01*
X179016819Y-115795808D02*
X178016819Y-115795808D01*
X178016819Y-115795808D02*
X178016819Y-115414856D01*
X178016819Y-115414856D02*
X178064438Y-115319618D01*
X178064438Y-115319618D02*
X178112057Y-115271999D01*
X178112057Y-115271999D02*
X178207295Y-115224380D01*
X178207295Y-115224380D02*
X178350152Y-115224380D01*
X178350152Y-115224380D02*
X178445390Y-115271999D01*
X178445390Y-115271999D02*
X178493009Y-115319618D01*
X178493009Y-115319618D02*
X178540628Y-115414856D01*
X178540628Y-115414856D02*
X178540628Y-115795808D01*
X179016819Y-114033903D02*
X178016819Y-114033903D01*
X178016819Y-114033903D02*
X178016819Y-113652951D01*
X178016819Y-113652951D02*
X178064438Y-113557713D01*
X178064438Y-113557713D02*
X178112057Y-113510094D01*
X178112057Y-113510094D02*
X178207295Y-113462475D01*
X178207295Y-113462475D02*
X178350152Y-113462475D01*
X178350152Y-113462475D02*
X178445390Y-113510094D01*
X178445390Y-113510094D02*
X178493009Y-113557713D01*
X178493009Y-113557713D02*
X178540628Y-113652951D01*
X178540628Y-113652951D02*
X178540628Y-114033903D01*
X178016819Y-112843427D02*
X178016819Y-112652951D01*
X178016819Y-112652951D02*
X178064438Y-112557713D01*
X178064438Y-112557713D02*
X178159676Y-112462475D01*
X178159676Y-112462475D02*
X178350152Y-112414856D01*
X178350152Y-112414856D02*
X178683485Y-112414856D01*
X178683485Y-112414856D02*
X178873961Y-112462475D01*
X178873961Y-112462475D02*
X178969200Y-112557713D01*
X178969200Y-112557713D02*
X179016819Y-112652951D01*
X179016819Y-112652951D02*
X179016819Y-112843427D01*
X179016819Y-112843427D02*
X178969200Y-112938665D01*
X178969200Y-112938665D02*
X178873961Y-113033903D01*
X178873961Y-113033903D02*
X178683485Y-113081522D01*
X178683485Y-113081522D02*
X178350152Y-113081522D01*
X178350152Y-113081522D02*
X178159676Y-113033903D01*
X178159676Y-113033903D02*
X178064438Y-112938665D01*
X178064438Y-112938665D02*
X178016819Y-112843427D01*
X178016819Y-112081522D02*
X179016819Y-111843427D01*
X179016819Y-111843427D02*
X178302533Y-111652951D01*
X178302533Y-111652951D02*
X179016819Y-111462475D01*
X179016819Y-111462475D02*
X178016819Y-111224380D01*
X178493009Y-110843427D02*
X178493009Y-110510094D01*
X179016819Y-110367237D02*
X179016819Y-110843427D01*
X179016819Y-110843427D02*
X178016819Y-110843427D01*
X178016819Y-110843427D02*
X178016819Y-110367237D01*
X179016819Y-109367237D02*
X178540628Y-109700570D01*
X179016819Y-109938665D02*
X178016819Y-109938665D01*
X178016819Y-109938665D02*
X178016819Y-109557713D01*
X178016819Y-109557713D02*
X178064438Y-109462475D01*
X178064438Y-109462475D02*
X178112057Y-109414856D01*
X178112057Y-109414856D02*
X178207295Y-109367237D01*
X178207295Y-109367237D02*
X178350152Y-109367237D01*
X178350152Y-109367237D02*
X178445390Y-109414856D01*
X178445390Y-109414856D02*
X178493009Y-109462475D01*
X178493009Y-109462475D02*
X178540628Y-109557713D01*
X178540628Y-109557713D02*
X178540628Y-109938665D01*
X169441905Y-64462819D02*
X169441905Y-63462819D01*
X169441905Y-63462819D02*
X169680000Y-63462819D01*
X169680000Y-63462819D02*
X169822857Y-63510438D01*
X169822857Y-63510438D02*
X169918095Y-63605676D01*
X169918095Y-63605676D02*
X169965714Y-63700914D01*
X169965714Y-63700914D02*
X170013333Y-63891390D01*
X170013333Y-63891390D02*
X170013333Y-64034247D01*
X170013333Y-64034247D02*
X169965714Y-64224723D01*
X169965714Y-64224723D02*
X169918095Y-64319961D01*
X169918095Y-64319961D02*
X169822857Y-64415200D01*
X169822857Y-64415200D02*
X169680000Y-64462819D01*
X169680000Y-64462819D02*
X169441905Y-64462819D01*
X170584762Y-63891390D02*
X170489524Y-63843771D01*
X170489524Y-63843771D02*
X170441905Y-63796152D01*
X170441905Y-63796152D02*
X170394286Y-63700914D01*
X170394286Y-63700914D02*
X170394286Y-63653295D01*
X170394286Y-63653295D02*
X170441905Y-63558057D01*
X170441905Y-63558057D02*
X170489524Y-63510438D01*
X170489524Y-63510438D02*
X170584762Y-63462819D01*
X170584762Y-63462819D02*
X170775238Y-63462819D01*
X170775238Y-63462819D02*
X170870476Y-63510438D01*
X170870476Y-63510438D02*
X170918095Y-63558057D01*
X170918095Y-63558057D02*
X170965714Y-63653295D01*
X170965714Y-63653295D02*
X170965714Y-63700914D01*
X170965714Y-63700914D02*
X170918095Y-63796152D01*
X170918095Y-63796152D02*
X170870476Y-63843771D01*
X170870476Y-63843771D02*
X170775238Y-63891390D01*
X170775238Y-63891390D02*
X170584762Y-63891390D01*
X170584762Y-63891390D02*
X170489524Y-63939009D01*
X170489524Y-63939009D02*
X170441905Y-63986628D01*
X170441905Y-63986628D02*
X170394286Y-64081866D01*
X170394286Y-64081866D02*
X170394286Y-64272342D01*
X170394286Y-64272342D02*
X170441905Y-64367580D01*
X170441905Y-64367580D02*
X170489524Y-64415200D01*
X170489524Y-64415200D02*
X170584762Y-64462819D01*
X170584762Y-64462819D02*
X170775238Y-64462819D01*
X170775238Y-64462819D02*
X170870476Y-64415200D01*
X170870476Y-64415200D02*
X170918095Y-64367580D01*
X170918095Y-64367580D02*
X170965714Y-64272342D01*
X170965714Y-64272342D02*
X170965714Y-64081866D01*
X170965714Y-64081866D02*
X170918095Y-63986628D01*
X170918095Y-63986628D02*
X170870476Y-63939009D01*
X170870476Y-63939009D02*
X170775238Y-63891390D01*
X166711333Y-126057819D02*
X166378000Y-125581628D01*
X166139905Y-126057819D02*
X166139905Y-125057819D01*
X166139905Y-125057819D02*
X166520857Y-125057819D01*
X166520857Y-125057819D02*
X166616095Y-125105438D01*
X166616095Y-125105438D02*
X166663714Y-125153057D01*
X166663714Y-125153057D02*
X166711333Y-125248295D01*
X166711333Y-125248295D02*
X166711333Y-125391152D01*
X166711333Y-125391152D02*
X166663714Y-125486390D01*
X166663714Y-125486390D02*
X166616095Y-125534009D01*
X166616095Y-125534009D02*
X166520857Y-125581628D01*
X166520857Y-125581628D02*
X166139905Y-125581628D01*
X167568476Y-125057819D02*
X167378000Y-125057819D01*
X167378000Y-125057819D02*
X167282762Y-125105438D01*
X167282762Y-125105438D02*
X167235143Y-125153057D01*
X167235143Y-125153057D02*
X167139905Y-125295914D01*
X167139905Y-125295914D02*
X167092286Y-125486390D01*
X167092286Y-125486390D02*
X167092286Y-125867342D01*
X167092286Y-125867342D02*
X167139905Y-125962580D01*
X167139905Y-125962580D02*
X167187524Y-126010200D01*
X167187524Y-126010200D02*
X167282762Y-126057819D01*
X167282762Y-126057819D02*
X167473238Y-126057819D01*
X167473238Y-126057819D02*
X167568476Y-126010200D01*
X167568476Y-126010200D02*
X167616095Y-125962580D01*
X167616095Y-125962580D02*
X167663714Y-125867342D01*
X167663714Y-125867342D02*
X167663714Y-125629247D01*
X167663714Y-125629247D02*
X167616095Y-125534009D01*
X167616095Y-125534009D02*
X167568476Y-125486390D01*
X167568476Y-125486390D02*
X167473238Y-125438771D01*
X167473238Y-125438771D02*
X167282762Y-125438771D01*
X167282762Y-125438771D02*
X167187524Y-125486390D01*
X167187524Y-125486390D02*
X167139905Y-125534009D01*
X167139905Y-125534009D02*
X167092286Y-125629247D01*
X169237819Y-122642285D02*
X169237819Y-123213713D01*
X169237819Y-122927999D02*
X168237819Y-122927999D01*
X168237819Y-122927999D02*
X168380676Y-123023237D01*
X168380676Y-123023237D02*
X168475914Y-123118475D01*
X168475914Y-123118475D02*
X168523533Y-123213713D01*
X169237819Y-122213713D02*
X168237819Y-122213713D01*
X169237819Y-121642285D02*
X168666390Y-122070856D01*
X168237819Y-121642285D02*
X168809247Y-122213713D01*
X156218095Y-62192819D02*
X156789523Y-62192819D01*
X156503809Y-63192819D02*
X156503809Y-62192819D01*
X157122857Y-63192819D02*
X157122857Y-62192819D01*
X157122857Y-62192819D02*
X157503809Y-62192819D01*
X157503809Y-62192819D02*
X157599047Y-62240438D01*
X157599047Y-62240438D02*
X157646666Y-62288057D01*
X157646666Y-62288057D02*
X157694285Y-62383295D01*
X157694285Y-62383295D02*
X157694285Y-62526152D01*
X157694285Y-62526152D02*
X157646666Y-62621390D01*
X157646666Y-62621390D02*
X157599047Y-62669009D01*
X157599047Y-62669009D02*
X157503809Y-62716628D01*
X157503809Y-62716628D02*
X157122857Y-62716628D01*
X158599047Y-62192819D02*
X158122857Y-62192819D01*
X158122857Y-62192819D02*
X158075238Y-62669009D01*
X158075238Y-62669009D02*
X158122857Y-62621390D01*
X158122857Y-62621390D02*
X158218095Y-62573771D01*
X158218095Y-62573771D02*
X158456190Y-62573771D01*
X158456190Y-62573771D02*
X158551428Y-62621390D01*
X158551428Y-62621390D02*
X158599047Y-62669009D01*
X158599047Y-62669009D02*
X158646666Y-62764247D01*
X158646666Y-62764247D02*
X158646666Y-63002342D01*
X158646666Y-63002342D02*
X158599047Y-63097580D01*
X158599047Y-63097580D02*
X158551428Y-63145200D01*
X158551428Y-63145200D02*
X158456190Y-63192819D01*
X158456190Y-63192819D02*
X158218095Y-63192819D01*
X158218095Y-63192819D02*
X158122857Y-63145200D01*
X158122857Y-63145200D02*
X158075238Y-63097580D01*
X155902819Y-64880762D02*
X155902819Y-65452190D01*
X155902819Y-65166476D02*
X154902819Y-65166476D01*
X154902819Y-65166476D02*
X155045676Y-65261714D01*
X155045676Y-65261714D02*
X155140914Y-65356952D01*
X155140914Y-65356952D02*
X155188533Y-65452190D01*
X154998057Y-64499809D02*
X154950438Y-64452190D01*
X154950438Y-64452190D02*
X154902819Y-64356952D01*
X154902819Y-64356952D02*
X154902819Y-64118857D01*
X154902819Y-64118857D02*
X154950438Y-64023619D01*
X154950438Y-64023619D02*
X154998057Y-63976000D01*
X154998057Y-63976000D02*
X155093295Y-63928381D01*
X155093295Y-63928381D02*
X155188533Y-63928381D01*
X155188533Y-63928381D02*
X155331390Y-63976000D01*
X155331390Y-63976000D02*
X155902819Y-64547428D01*
X155902819Y-64547428D02*
X155902819Y-63928381D01*
X154902819Y-63642666D02*
X155902819Y-63309333D01*
X155902819Y-63309333D02*
X154902819Y-62976000D01*
X155998057Y-62880762D02*
X155998057Y-62118857D01*
X155902819Y-61880761D02*
X154902819Y-61880761D01*
X154902819Y-61880761D02*
X154902819Y-61499809D01*
X154902819Y-61499809D02*
X154950438Y-61404571D01*
X154950438Y-61404571D02*
X154998057Y-61356952D01*
X154998057Y-61356952D02*
X155093295Y-61309333D01*
X155093295Y-61309333D02*
X155236152Y-61309333D01*
X155236152Y-61309333D02*
X155331390Y-61356952D01*
X155331390Y-61356952D02*
X155379009Y-61404571D01*
X155379009Y-61404571D02*
X155426628Y-61499809D01*
X155426628Y-61499809D02*
X155426628Y-61880761D01*
X155902819Y-60309333D02*
X155426628Y-60642666D01*
X155902819Y-60880761D02*
X154902819Y-60880761D01*
X154902819Y-60880761D02*
X154902819Y-60499809D01*
X154902819Y-60499809D02*
X154950438Y-60404571D01*
X154950438Y-60404571D02*
X154998057Y-60356952D01*
X154998057Y-60356952D02*
X155093295Y-60309333D01*
X155093295Y-60309333D02*
X155236152Y-60309333D01*
X155236152Y-60309333D02*
X155331390Y-60356952D01*
X155331390Y-60356952D02*
X155379009Y-60404571D01*
X155379009Y-60404571D02*
X155426628Y-60499809D01*
X155426628Y-60499809D02*
X155426628Y-60880761D01*
X154902819Y-59690285D02*
X154902819Y-59499809D01*
X154902819Y-59499809D02*
X154950438Y-59404571D01*
X154950438Y-59404571D02*
X155045676Y-59309333D01*
X155045676Y-59309333D02*
X155236152Y-59261714D01*
X155236152Y-59261714D02*
X155569485Y-59261714D01*
X155569485Y-59261714D02*
X155759961Y-59309333D01*
X155759961Y-59309333D02*
X155855200Y-59404571D01*
X155855200Y-59404571D02*
X155902819Y-59499809D01*
X155902819Y-59499809D02*
X155902819Y-59690285D01*
X155902819Y-59690285D02*
X155855200Y-59785523D01*
X155855200Y-59785523D02*
X155759961Y-59880761D01*
X155759961Y-59880761D02*
X155569485Y-59928380D01*
X155569485Y-59928380D02*
X155236152Y-59928380D01*
X155236152Y-59928380D02*
X155045676Y-59880761D01*
X155045676Y-59880761D02*
X154950438Y-59785523D01*
X154950438Y-59785523D02*
X154902819Y-59690285D01*
X154902819Y-58975999D02*
X154902819Y-58404571D01*
X155902819Y-58690285D02*
X154902819Y-58690285D01*
X156886828Y-122568619D02*
X157220161Y-123568619D01*
X157220161Y-123568619D02*
X157553494Y-122568619D01*
X157839209Y-123282904D02*
X158315399Y-123282904D01*
X157743971Y-123568619D02*
X158077304Y-122568619D01*
X158077304Y-122568619D02*
X158410637Y-123568619D01*
X159220161Y-123568619D02*
X158743971Y-123568619D01*
X158743971Y-123568619D02*
X158743971Y-122568619D01*
X159410638Y-122568619D02*
X159743971Y-123568619D01*
X159743971Y-123568619D02*
X160077304Y-122568619D01*
X160410638Y-123044809D02*
X160743971Y-123044809D01*
X160886828Y-123568619D02*
X160410638Y-123568619D01*
X160410638Y-123568619D02*
X160410638Y-122568619D01*
X160410638Y-122568619D02*
X160886828Y-122568619D01*
X162267781Y-122568619D02*
X162458257Y-122568619D01*
X162458257Y-122568619D02*
X162553495Y-122616238D01*
X162553495Y-122616238D02*
X162648733Y-122711476D01*
X162648733Y-122711476D02*
X162696352Y-122901952D01*
X162696352Y-122901952D02*
X162696352Y-123235285D01*
X162696352Y-123235285D02*
X162648733Y-123425761D01*
X162648733Y-123425761D02*
X162553495Y-123521000D01*
X162553495Y-123521000D02*
X162458257Y-123568619D01*
X162458257Y-123568619D02*
X162267781Y-123568619D01*
X162267781Y-123568619D02*
X162172543Y-123521000D01*
X162172543Y-123521000D02*
X162077305Y-123425761D01*
X162077305Y-123425761D02*
X162029686Y-123235285D01*
X162029686Y-123235285D02*
X162029686Y-122901952D01*
X162029686Y-122901952D02*
X162077305Y-122711476D01*
X162077305Y-122711476D02*
X162172543Y-122616238D01*
X162172543Y-122616238D02*
X162267781Y-122568619D01*
X163124924Y-123568619D02*
X163124924Y-122568619D01*
X163124924Y-122568619D02*
X163505876Y-122568619D01*
X163505876Y-122568619D02*
X163601114Y-122616238D01*
X163601114Y-122616238D02*
X163648733Y-122663857D01*
X163648733Y-122663857D02*
X163696352Y-122759095D01*
X163696352Y-122759095D02*
X163696352Y-122901952D01*
X163696352Y-122901952D02*
X163648733Y-122997190D01*
X163648733Y-122997190D02*
X163601114Y-123044809D01*
X163601114Y-123044809D02*
X163505876Y-123092428D01*
X163505876Y-123092428D02*
X163124924Y-123092428D01*
X164124924Y-123044809D02*
X164458257Y-123044809D01*
X164601114Y-123568619D02*
X164124924Y-123568619D01*
X164124924Y-123568619D02*
X164124924Y-122568619D01*
X164124924Y-122568619D02*
X164601114Y-122568619D01*
X165029686Y-123568619D02*
X165029686Y-122568619D01*
X165029686Y-122568619D02*
X165601114Y-123568619D01*
X165601114Y-123568619D02*
X165601114Y-122568619D01*
X189534580Y-85917066D02*
X189582200Y-85964685D01*
X189582200Y-85964685D02*
X189629819Y-86107542D01*
X189629819Y-86107542D02*
X189629819Y-86202780D01*
X189629819Y-86202780D02*
X189582200Y-86345637D01*
X189582200Y-86345637D02*
X189486961Y-86440875D01*
X189486961Y-86440875D02*
X189391723Y-86488494D01*
X189391723Y-86488494D02*
X189201247Y-86536113D01*
X189201247Y-86536113D02*
X189058390Y-86536113D01*
X189058390Y-86536113D02*
X188867914Y-86488494D01*
X188867914Y-86488494D02*
X188772676Y-86440875D01*
X188772676Y-86440875D02*
X188677438Y-86345637D01*
X188677438Y-86345637D02*
X188629819Y-86202780D01*
X188629819Y-86202780D02*
X188629819Y-86107542D01*
X188629819Y-86107542D02*
X188677438Y-85964685D01*
X188677438Y-85964685D02*
X188725057Y-85917066D01*
X188963152Y-85059923D02*
X189629819Y-85059923D01*
X188582200Y-85298018D02*
X189296485Y-85536113D01*
X189296485Y-85536113D02*
X189296485Y-84917066D01*
X182657761Y-79623057D02*
X182562523Y-79575438D01*
X182562523Y-79575438D02*
X182467285Y-79480200D01*
X182467285Y-79480200D02*
X182324428Y-79337342D01*
X182324428Y-79337342D02*
X182229190Y-79289723D01*
X182229190Y-79289723D02*
X182133952Y-79289723D01*
X182181571Y-79527819D02*
X182086333Y-79480200D01*
X182086333Y-79480200D02*
X181991095Y-79384961D01*
X181991095Y-79384961D02*
X181943476Y-79194485D01*
X181943476Y-79194485D02*
X181943476Y-78861152D01*
X181943476Y-78861152D02*
X181991095Y-78670676D01*
X181991095Y-78670676D02*
X182086333Y-78575438D01*
X182086333Y-78575438D02*
X182181571Y-78527819D01*
X182181571Y-78527819D02*
X182372047Y-78527819D01*
X182372047Y-78527819D02*
X182467285Y-78575438D01*
X182467285Y-78575438D02*
X182562523Y-78670676D01*
X182562523Y-78670676D02*
X182610142Y-78861152D01*
X182610142Y-78861152D02*
X182610142Y-79194485D01*
X182610142Y-79194485D02*
X182562523Y-79384961D01*
X182562523Y-79384961D02*
X182467285Y-79480200D01*
X182467285Y-79480200D02*
X182372047Y-79527819D01*
X182372047Y-79527819D02*
X182181571Y-79527819D01*
X183562523Y-79527819D02*
X182991095Y-79527819D01*
X183276809Y-79527819D02*
X183276809Y-78527819D01*
X183276809Y-78527819D02*
X183181571Y-78670676D01*
X183181571Y-78670676D02*
X183086333Y-78765914D01*
X183086333Y-78765914D02*
X182991095Y-78813533D01*
X115548819Y-91670094D02*
X114548819Y-91670094D01*
X114548819Y-91670094D02*
X114548819Y-91431999D01*
X114548819Y-91431999D02*
X114596438Y-91289142D01*
X114596438Y-91289142D02*
X114691676Y-91193904D01*
X114691676Y-91193904D02*
X114786914Y-91146285D01*
X114786914Y-91146285D02*
X114977390Y-91098666D01*
X114977390Y-91098666D02*
X115120247Y-91098666D01*
X115120247Y-91098666D02*
X115310723Y-91146285D01*
X115310723Y-91146285D02*
X115405961Y-91193904D01*
X115405961Y-91193904D02*
X115501200Y-91289142D01*
X115501200Y-91289142D02*
X115548819Y-91431999D01*
X115548819Y-91431999D02*
X115548819Y-91670094D01*
X114548819Y-90193904D02*
X114548819Y-90670094D01*
X114548819Y-90670094D02*
X115025009Y-90717713D01*
X115025009Y-90717713D02*
X114977390Y-90670094D01*
X114977390Y-90670094D02*
X114929771Y-90574856D01*
X114929771Y-90574856D02*
X114929771Y-90336761D01*
X114929771Y-90336761D02*
X114977390Y-90241523D01*
X114977390Y-90241523D02*
X115025009Y-90193904D01*
X115025009Y-90193904D02*
X115120247Y-90146285D01*
X115120247Y-90146285D02*
X115358342Y-90146285D01*
X115358342Y-90146285D02*
X115453580Y-90193904D01*
X115453580Y-90193904D02*
X115501200Y-90241523D01*
X115501200Y-90241523D02*
X115548819Y-90336761D01*
X115548819Y-90336761D02*
X115548819Y-90574856D01*
X115548819Y-90574856D02*
X115501200Y-90670094D01*
X115501200Y-90670094D02*
X115453580Y-90717713D01*
X123079285Y-112707009D02*
X123222142Y-112754628D01*
X123222142Y-112754628D02*
X123269761Y-112802247D01*
X123269761Y-112802247D02*
X123317380Y-112897485D01*
X123317380Y-112897485D02*
X123317380Y-113040342D01*
X123317380Y-113040342D02*
X123269761Y-113135580D01*
X123269761Y-113135580D02*
X123222142Y-113183200D01*
X123222142Y-113183200D02*
X123126904Y-113230819D01*
X123126904Y-113230819D02*
X122745952Y-113230819D01*
X122745952Y-113230819D02*
X122745952Y-112230819D01*
X122745952Y-112230819D02*
X123079285Y-112230819D01*
X123079285Y-112230819D02*
X123174523Y-112278438D01*
X123174523Y-112278438D02*
X123222142Y-112326057D01*
X123222142Y-112326057D02*
X123269761Y-112421295D01*
X123269761Y-112421295D02*
X123269761Y-112516533D01*
X123269761Y-112516533D02*
X123222142Y-112611771D01*
X123222142Y-112611771D02*
X123174523Y-112659390D01*
X123174523Y-112659390D02*
X123079285Y-112707009D01*
X123079285Y-112707009D02*
X122745952Y-112707009D01*
X123745952Y-113230819D02*
X123745952Y-112230819D01*
X123745952Y-112230819D02*
X124079285Y-112945104D01*
X124079285Y-112945104D02*
X124412618Y-112230819D01*
X124412618Y-112230819D02*
X124412618Y-113230819D01*
X124888809Y-113230819D02*
X124888809Y-112230819D01*
X124888809Y-112230819D02*
X125269761Y-112230819D01*
X125269761Y-112230819D02*
X125364999Y-112278438D01*
X125364999Y-112278438D02*
X125412618Y-112326057D01*
X125412618Y-112326057D02*
X125460237Y-112421295D01*
X125460237Y-112421295D02*
X125460237Y-112564152D01*
X125460237Y-112564152D02*
X125412618Y-112659390D01*
X125412618Y-112659390D02*
X125364999Y-112707009D01*
X125364999Y-112707009D02*
X125269761Y-112754628D01*
X125269761Y-112754628D02*
X124888809Y-112754628D01*
X125841190Y-112326057D02*
X125888809Y-112278438D01*
X125888809Y-112278438D02*
X125984047Y-112230819D01*
X125984047Y-112230819D02*
X126222142Y-112230819D01*
X126222142Y-112230819D02*
X126317380Y-112278438D01*
X126317380Y-112278438D02*
X126364999Y-112326057D01*
X126364999Y-112326057D02*
X126412618Y-112421295D01*
X126412618Y-112421295D02*
X126412618Y-112516533D01*
X126412618Y-112516533D02*
X126364999Y-112659390D01*
X126364999Y-112659390D02*
X125793571Y-113230819D01*
X125793571Y-113230819D02*
X126412618Y-113230819D01*
X126984047Y-112659390D02*
X126888809Y-112611771D01*
X126888809Y-112611771D02*
X126841190Y-112564152D01*
X126841190Y-112564152D02*
X126793571Y-112468914D01*
X126793571Y-112468914D02*
X126793571Y-112421295D01*
X126793571Y-112421295D02*
X126841190Y-112326057D01*
X126841190Y-112326057D02*
X126888809Y-112278438D01*
X126888809Y-112278438D02*
X126984047Y-112230819D01*
X126984047Y-112230819D02*
X127174523Y-112230819D01*
X127174523Y-112230819D02*
X127269761Y-112278438D01*
X127269761Y-112278438D02*
X127317380Y-112326057D01*
X127317380Y-112326057D02*
X127364999Y-112421295D01*
X127364999Y-112421295D02*
X127364999Y-112468914D01*
X127364999Y-112468914D02*
X127317380Y-112564152D01*
X127317380Y-112564152D02*
X127269761Y-112611771D01*
X127269761Y-112611771D02*
X127174523Y-112659390D01*
X127174523Y-112659390D02*
X126984047Y-112659390D01*
X126984047Y-112659390D02*
X126888809Y-112707009D01*
X126888809Y-112707009D02*
X126841190Y-112754628D01*
X126841190Y-112754628D02*
X126793571Y-112849866D01*
X126793571Y-112849866D02*
X126793571Y-113040342D01*
X126793571Y-113040342D02*
X126841190Y-113135580D01*
X126841190Y-113135580D02*
X126888809Y-113183200D01*
X126888809Y-113183200D02*
X126984047Y-113230819D01*
X126984047Y-113230819D02*
X127174523Y-113230819D01*
X127174523Y-113230819D02*
X127269761Y-113183200D01*
X127269761Y-113183200D02*
X127317380Y-113135580D01*
X127317380Y-113135580D02*
X127364999Y-113040342D01*
X127364999Y-113040342D02*
X127364999Y-112849866D01*
X127364999Y-112849866D02*
X127317380Y-112754628D01*
X127317380Y-112754628D02*
X127269761Y-112707009D01*
X127269761Y-112707009D02*
X127174523Y-112659390D01*
X127984047Y-112230819D02*
X128079285Y-112230819D01*
X128079285Y-112230819D02*
X128174523Y-112278438D01*
X128174523Y-112278438D02*
X128222142Y-112326057D01*
X128222142Y-112326057D02*
X128269761Y-112421295D01*
X128269761Y-112421295D02*
X128317380Y-112611771D01*
X128317380Y-112611771D02*
X128317380Y-112849866D01*
X128317380Y-112849866D02*
X128269761Y-113040342D01*
X128269761Y-113040342D02*
X128222142Y-113135580D01*
X128222142Y-113135580D02*
X128174523Y-113183200D01*
X128174523Y-113183200D02*
X128079285Y-113230819D01*
X128079285Y-113230819D02*
X127984047Y-113230819D01*
X127984047Y-113230819D02*
X127888809Y-113183200D01*
X127888809Y-113183200D02*
X127841190Y-113135580D01*
X127841190Y-113135580D02*
X127793571Y-113040342D01*
X127793571Y-113040342D02*
X127745952Y-112849866D01*
X127745952Y-112849866D02*
X127745952Y-112611771D01*
X127745952Y-112611771D02*
X127793571Y-112421295D01*
X127793571Y-112421295D02*
X127841190Y-112326057D01*
X127841190Y-112326057D02*
X127888809Y-112278438D01*
X127888809Y-112278438D02*
X127984047Y-112230819D01*
X128507857Y-113326057D02*
X129269761Y-113326057D01*
X130031666Y-113230819D02*
X129460238Y-113230819D01*
X129745952Y-113230819D02*
X129745952Y-112230819D01*
X129745952Y-112230819D02*
X129650714Y-112373676D01*
X129650714Y-112373676D02*
X129555476Y-112468914D01*
X129555476Y-112468914D02*
X129460238Y-112516533D01*
X113442761Y-105198057D02*
X113347523Y-105150438D01*
X113347523Y-105150438D02*
X113252285Y-105055200D01*
X113252285Y-105055200D02*
X113109428Y-104912342D01*
X113109428Y-104912342D02*
X113014190Y-104864723D01*
X113014190Y-104864723D02*
X112918952Y-104864723D01*
X112966571Y-105102819D02*
X112871333Y-105055200D01*
X112871333Y-105055200D02*
X112776095Y-104959961D01*
X112776095Y-104959961D02*
X112728476Y-104769485D01*
X112728476Y-104769485D02*
X112728476Y-104436152D01*
X112728476Y-104436152D02*
X112776095Y-104245676D01*
X112776095Y-104245676D02*
X112871333Y-104150438D01*
X112871333Y-104150438D02*
X112966571Y-104102819D01*
X112966571Y-104102819D02*
X113157047Y-104102819D01*
X113157047Y-104102819D02*
X113252285Y-104150438D01*
X113252285Y-104150438D02*
X113347523Y-104245676D01*
X113347523Y-104245676D02*
X113395142Y-104436152D01*
X113395142Y-104436152D02*
X113395142Y-104769485D01*
X113395142Y-104769485D02*
X113347523Y-104959961D01*
X113347523Y-104959961D02*
X113252285Y-105055200D01*
X113252285Y-105055200D02*
X113157047Y-105102819D01*
X113157047Y-105102819D02*
X112966571Y-105102819D01*
X114252285Y-104102819D02*
X114061809Y-104102819D01*
X114061809Y-104102819D02*
X113966571Y-104150438D01*
X113966571Y-104150438D02*
X113918952Y-104198057D01*
X113918952Y-104198057D02*
X113823714Y-104340914D01*
X113823714Y-104340914D02*
X113776095Y-104531390D01*
X113776095Y-104531390D02*
X113776095Y-104912342D01*
X113776095Y-104912342D02*
X113823714Y-105007580D01*
X113823714Y-105007580D02*
X113871333Y-105055200D01*
X113871333Y-105055200D02*
X113966571Y-105102819D01*
X113966571Y-105102819D02*
X114157047Y-105102819D01*
X114157047Y-105102819D02*
X114252285Y-105055200D01*
X114252285Y-105055200D02*
X114299904Y-105007580D01*
X114299904Y-105007580D02*
X114347523Y-104912342D01*
X114347523Y-104912342D02*
X114347523Y-104674247D01*
X114347523Y-104674247D02*
X114299904Y-104579009D01*
X114299904Y-104579009D02*
X114252285Y-104531390D01*
X114252285Y-104531390D02*
X114157047Y-104483771D01*
X114157047Y-104483771D02*
X113966571Y-104483771D01*
X113966571Y-104483771D02*
X113871333Y-104531390D01*
X113871333Y-104531390D02*
X113823714Y-104579009D01*
X113823714Y-104579009D02*
X113776095Y-104674247D01*
X164284819Y-58784762D02*
X164284819Y-59356190D01*
X164284819Y-59070476D02*
X163284819Y-59070476D01*
X163284819Y-59070476D02*
X163427676Y-59165714D01*
X163427676Y-59165714D02*
X163522914Y-59260952D01*
X163522914Y-59260952D02*
X163570533Y-59356190D01*
X163380057Y-58403809D02*
X163332438Y-58356190D01*
X163332438Y-58356190D02*
X163284819Y-58260952D01*
X163284819Y-58260952D02*
X163284819Y-58022857D01*
X163284819Y-58022857D02*
X163332438Y-57927619D01*
X163332438Y-57927619D02*
X163380057Y-57880000D01*
X163380057Y-57880000D02*
X163475295Y-57832381D01*
X163475295Y-57832381D02*
X163570533Y-57832381D01*
X163570533Y-57832381D02*
X163713390Y-57880000D01*
X163713390Y-57880000D02*
X164284819Y-58451428D01*
X164284819Y-58451428D02*
X164284819Y-57832381D01*
X163284819Y-57546666D02*
X164284819Y-57213333D01*
X164284819Y-57213333D02*
X163284819Y-56880000D01*
X164380057Y-56784762D02*
X164380057Y-56022857D01*
X164284819Y-55784761D02*
X163284819Y-55784761D01*
X163284819Y-55784761D02*
X163284819Y-55403809D01*
X163284819Y-55403809D02*
X163332438Y-55308571D01*
X163332438Y-55308571D02*
X163380057Y-55260952D01*
X163380057Y-55260952D02*
X163475295Y-55213333D01*
X163475295Y-55213333D02*
X163618152Y-55213333D01*
X163618152Y-55213333D02*
X163713390Y-55260952D01*
X163713390Y-55260952D02*
X163761009Y-55308571D01*
X163761009Y-55308571D02*
X163808628Y-55403809D01*
X163808628Y-55403809D02*
X163808628Y-55784761D01*
X164284819Y-54213333D02*
X163808628Y-54546666D01*
X164284819Y-54784761D02*
X163284819Y-54784761D01*
X163284819Y-54784761D02*
X163284819Y-54403809D01*
X163284819Y-54403809D02*
X163332438Y-54308571D01*
X163332438Y-54308571D02*
X163380057Y-54260952D01*
X163380057Y-54260952D02*
X163475295Y-54213333D01*
X163475295Y-54213333D02*
X163618152Y-54213333D01*
X163618152Y-54213333D02*
X163713390Y-54260952D01*
X163713390Y-54260952D02*
X163761009Y-54308571D01*
X163761009Y-54308571D02*
X163808628Y-54403809D01*
X163808628Y-54403809D02*
X163808628Y-54784761D01*
X163284819Y-53594285D02*
X163284819Y-53403809D01*
X163284819Y-53403809D02*
X163332438Y-53308571D01*
X163332438Y-53308571D02*
X163427676Y-53213333D01*
X163427676Y-53213333D02*
X163618152Y-53165714D01*
X163618152Y-53165714D02*
X163951485Y-53165714D01*
X163951485Y-53165714D02*
X164141961Y-53213333D01*
X164141961Y-53213333D02*
X164237200Y-53308571D01*
X164237200Y-53308571D02*
X164284819Y-53403809D01*
X164284819Y-53403809D02*
X164284819Y-53594285D01*
X164284819Y-53594285D02*
X164237200Y-53689523D01*
X164237200Y-53689523D02*
X164141961Y-53784761D01*
X164141961Y-53784761D02*
X163951485Y-53832380D01*
X163951485Y-53832380D02*
X163618152Y-53832380D01*
X163618152Y-53832380D02*
X163427676Y-53784761D01*
X163427676Y-53784761D02*
X163332438Y-53689523D01*
X163332438Y-53689523D02*
X163284819Y-53594285D01*
X163284819Y-52879999D02*
X163284819Y-52308571D01*
X164284819Y-52594285D02*
X163284819Y-52594285D01*
D13*
X166070598Y-79644419D02*
X166070598Y-80358704D01*
X166070598Y-80358704D02*
X166022979Y-80501561D01*
X166022979Y-80501561D02*
X165927741Y-80596800D01*
X165927741Y-80596800D02*
X165784884Y-80644419D01*
X165784884Y-80644419D02*
X165689646Y-80644419D01*
X167118217Y-80644419D02*
X166784884Y-80168228D01*
X166546789Y-80644419D02*
X166546789Y-79644419D01*
X166546789Y-79644419D02*
X166927741Y-79644419D01*
X166927741Y-79644419D02*
X167022979Y-79692038D01*
X167022979Y-79692038D02*
X167070598Y-79739657D01*
X167070598Y-79739657D02*
X167118217Y-79834895D01*
X167118217Y-79834895D02*
X167118217Y-79977752D01*
X167118217Y-79977752D02*
X167070598Y-80072990D01*
X167070598Y-80072990D02*
X167022979Y-80120609D01*
X167022979Y-80120609D02*
X166927741Y-80168228D01*
X166927741Y-80168228D02*
X166546789Y-80168228D01*
X167546789Y-80644419D02*
X167546789Y-79644419D01*
X168118217Y-80644419D02*
X167689646Y-80072990D01*
X168118217Y-79644419D02*
X167546789Y-80215847D01*
X169832503Y-79692038D02*
X169737265Y-79644419D01*
X169737265Y-79644419D02*
X169594408Y-79644419D01*
X169594408Y-79644419D02*
X169451551Y-79692038D01*
X169451551Y-79692038D02*
X169356313Y-79787276D01*
X169356313Y-79787276D02*
X169308694Y-79882514D01*
X169308694Y-79882514D02*
X169261075Y-80072990D01*
X169261075Y-80072990D02*
X169261075Y-80215847D01*
X169261075Y-80215847D02*
X169308694Y-80406323D01*
X169308694Y-80406323D02*
X169356313Y-80501561D01*
X169356313Y-80501561D02*
X169451551Y-80596800D01*
X169451551Y-80596800D02*
X169594408Y-80644419D01*
X169594408Y-80644419D02*
X169689646Y-80644419D01*
X169689646Y-80644419D02*
X169832503Y-80596800D01*
X169832503Y-80596800D02*
X169880122Y-80549180D01*
X169880122Y-80549180D02*
X169880122Y-80215847D01*
X169880122Y-80215847D02*
X169689646Y-80215847D01*
X170261075Y-79739657D02*
X170308694Y-79692038D01*
X170308694Y-79692038D02*
X170403932Y-79644419D01*
X170403932Y-79644419D02*
X170642027Y-79644419D01*
X170642027Y-79644419D02*
X170737265Y-79692038D01*
X170737265Y-79692038D02*
X170784884Y-79739657D01*
X170784884Y-79739657D02*
X170832503Y-79834895D01*
X170832503Y-79834895D02*
X170832503Y-79930133D01*
X170832503Y-79930133D02*
X170784884Y-80072990D01*
X170784884Y-80072990D02*
X170213456Y-80644419D01*
X170213456Y-80644419D02*
X170832503Y-80644419D01*
X171975361Y-79739657D02*
X172022980Y-79692038D01*
X172022980Y-79692038D02*
X172118218Y-79644419D01*
X172118218Y-79644419D02*
X172356313Y-79644419D01*
X172356313Y-79644419D02*
X172451551Y-79692038D01*
X172451551Y-79692038D02*
X172499170Y-79739657D01*
X172499170Y-79739657D02*
X172546789Y-79834895D01*
X172546789Y-79834895D02*
X172546789Y-79930133D01*
X172546789Y-79930133D02*
X172499170Y-80072990D01*
X172499170Y-80072990D02*
X171927742Y-80644419D01*
X171927742Y-80644419D02*
X172546789Y-80644419D01*
X173499170Y-80644419D02*
X172927742Y-80644419D01*
X173213456Y-80644419D02*
X173213456Y-79644419D01*
X173213456Y-79644419D02*
X173118218Y-79787276D01*
X173118218Y-79787276D02*
X173022980Y-79882514D01*
X173022980Y-79882514D02*
X172927742Y-79930133D01*
X173832504Y-79977752D02*
X174070599Y-80644419D01*
X174070599Y-80644419D02*
X174308694Y-79977752D01*
X174594409Y-79644419D02*
X175213456Y-79644419D01*
X175213456Y-79644419D02*
X174880123Y-80025371D01*
X174880123Y-80025371D02*
X175022980Y-80025371D01*
X175022980Y-80025371D02*
X175118218Y-80072990D01*
X175118218Y-80072990D02*
X175165837Y-80120609D01*
X175165837Y-80120609D02*
X175213456Y-80215847D01*
X175213456Y-80215847D02*
X175213456Y-80453942D01*
X175213456Y-80453942D02*
X175165837Y-80549180D01*
X175165837Y-80549180D02*
X175118218Y-80596800D01*
X175118218Y-80596800D02*
X175022980Y-80644419D01*
X175022980Y-80644419D02*
X174737266Y-80644419D01*
X174737266Y-80644419D02*
X174642028Y-80596800D01*
X174642028Y-80596800D02*
X174594409Y-80549180D01*
X165784884Y-82271619D02*
X165784884Y-81271619D01*
X165784884Y-81271619D02*
X166118217Y-81985904D01*
X166118217Y-81985904D02*
X166451550Y-81271619D01*
X166451550Y-81271619D02*
X166451550Y-82271619D01*
X167070598Y-82271619D02*
X166975360Y-82224000D01*
X166975360Y-82224000D02*
X166927741Y-82176380D01*
X166927741Y-82176380D02*
X166880122Y-82081142D01*
X166880122Y-82081142D02*
X166880122Y-81795428D01*
X166880122Y-81795428D02*
X166927741Y-81700190D01*
X166927741Y-81700190D02*
X166975360Y-81652571D01*
X166975360Y-81652571D02*
X167070598Y-81604952D01*
X167070598Y-81604952D02*
X167213455Y-81604952D01*
X167213455Y-81604952D02*
X167308693Y-81652571D01*
X167308693Y-81652571D02*
X167356312Y-81700190D01*
X167356312Y-81700190D02*
X167403931Y-81795428D01*
X167403931Y-81795428D02*
X167403931Y-82081142D01*
X167403931Y-82081142D02*
X167356312Y-82176380D01*
X167356312Y-82176380D02*
X167308693Y-82224000D01*
X167308693Y-82224000D02*
X167213455Y-82271619D01*
X167213455Y-82271619D02*
X167070598Y-82271619D01*
X167689646Y-81604952D02*
X168070598Y-81604952D01*
X167832503Y-81271619D02*
X167832503Y-82128761D01*
X167832503Y-82128761D02*
X167880122Y-82224000D01*
X167880122Y-82224000D02*
X167975360Y-82271619D01*
X167975360Y-82271619D02*
X168070598Y-82271619D01*
X168546789Y-82271619D02*
X168451551Y-82224000D01*
X168451551Y-82224000D02*
X168403932Y-82176380D01*
X168403932Y-82176380D02*
X168356313Y-82081142D01*
X168356313Y-82081142D02*
X168356313Y-81795428D01*
X168356313Y-81795428D02*
X168403932Y-81700190D01*
X168403932Y-81700190D02*
X168451551Y-81652571D01*
X168451551Y-81652571D02*
X168546789Y-81604952D01*
X168546789Y-81604952D02*
X168689646Y-81604952D01*
X168689646Y-81604952D02*
X168784884Y-81652571D01*
X168784884Y-81652571D02*
X168832503Y-81700190D01*
X168832503Y-81700190D02*
X168880122Y-81795428D01*
X168880122Y-81795428D02*
X168880122Y-82081142D01*
X168880122Y-82081142D02*
X168832503Y-82176380D01*
X168832503Y-82176380D02*
X168784884Y-82224000D01*
X168784884Y-82224000D02*
X168689646Y-82271619D01*
X168689646Y-82271619D02*
X168546789Y-82271619D01*
X169308694Y-82271619D02*
X169308694Y-81604952D01*
X169308694Y-81795428D02*
X169356313Y-81700190D01*
X169356313Y-81700190D02*
X169403932Y-81652571D01*
X169403932Y-81652571D02*
X169499170Y-81604952D01*
X169499170Y-81604952D02*
X169594408Y-81604952D01*
X171261075Y-82176380D02*
X171213456Y-82224000D01*
X171213456Y-82224000D02*
X171070599Y-82271619D01*
X171070599Y-82271619D02*
X170975361Y-82271619D01*
X170975361Y-82271619D02*
X170832504Y-82224000D01*
X170832504Y-82224000D02*
X170737266Y-82128761D01*
X170737266Y-82128761D02*
X170689647Y-82033523D01*
X170689647Y-82033523D02*
X170642028Y-81843047D01*
X170642028Y-81843047D02*
X170642028Y-81700190D01*
X170642028Y-81700190D02*
X170689647Y-81509714D01*
X170689647Y-81509714D02*
X170737266Y-81414476D01*
X170737266Y-81414476D02*
X170832504Y-81319238D01*
X170832504Y-81319238D02*
X170975361Y-81271619D01*
X170975361Y-81271619D02*
X171070599Y-81271619D01*
X171070599Y-81271619D02*
X171213456Y-81319238D01*
X171213456Y-81319238D02*
X171261075Y-81366857D01*
X171832504Y-82271619D02*
X171737266Y-82224000D01*
X171737266Y-82224000D02*
X171689647Y-82176380D01*
X171689647Y-82176380D02*
X171642028Y-82081142D01*
X171642028Y-82081142D02*
X171642028Y-81795428D01*
X171642028Y-81795428D02*
X171689647Y-81700190D01*
X171689647Y-81700190D02*
X171737266Y-81652571D01*
X171737266Y-81652571D02*
X171832504Y-81604952D01*
X171832504Y-81604952D02*
X171975361Y-81604952D01*
X171975361Y-81604952D02*
X172070599Y-81652571D01*
X172070599Y-81652571D02*
X172118218Y-81700190D01*
X172118218Y-81700190D02*
X172165837Y-81795428D01*
X172165837Y-81795428D02*
X172165837Y-82081142D01*
X172165837Y-82081142D02*
X172118218Y-82176380D01*
X172118218Y-82176380D02*
X172070599Y-82224000D01*
X172070599Y-82224000D02*
X171975361Y-82271619D01*
X171975361Y-82271619D02*
X171832504Y-82271619D01*
X172594409Y-81604952D02*
X172594409Y-82271619D01*
X172594409Y-81700190D02*
X172642028Y-81652571D01*
X172642028Y-81652571D02*
X172737266Y-81604952D01*
X172737266Y-81604952D02*
X172880123Y-81604952D01*
X172880123Y-81604952D02*
X172975361Y-81652571D01*
X172975361Y-81652571D02*
X173022980Y-81747809D01*
X173022980Y-81747809D02*
X173022980Y-82271619D01*
X173356314Y-81604952D02*
X173737266Y-81604952D01*
X173499171Y-81271619D02*
X173499171Y-82128761D01*
X173499171Y-82128761D02*
X173546790Y-82224000D01*
X173546790Y-82224000D02*
X173642028Y-82271619D01*
X173642028Y-82271619D02*
X173737266Y-82271619D01*
X174070600Y-82271619D02*
X174070600Y-81604952D01*
X174070600Y-81795428D02*
X174118219Y-81700190D01*
X174118219Y-81700190D02*
X174165838Y-81652571D01*
X174165838Y-81652571D02*
X174261076Y-81604952D01*
X174261076Y-81604952D02*
X174356314Y-81604952D01*
X174832505Y-82271619D02*
X174737267Y-82224000D01*
X174737267Y-82224000D02*
X174689648Y-82176380D01*
X174689648Y-82176380D02*
X174642029Y-82081142D01*
X174642029Y-82081142D02*
X174642029Y-81795428D01*
X174642029Y-81795428D02*
X174689648Y-81700190D01*
X174689648Y-81700190D02*
X174737267Y-81652571D01*
X174737267Y-81652571D02*
X174832505Y-81604952D01*
X174832505Y-81604952D02*
X174975362Y-81604952D01*
X174975362Y-81604952D02*
X175070600Y-81652571D01*
X175070600Y-81652571D02*
X175118219Y-81700190D01*
X175118219Y-81700190D02*
X175165838Y-81795428D01*
X175165838Y-81795428D02*
X175165838Y-82081142D01*
X175165838Y-82081142D02*
X175118219Y-82176380D01*
X175118219Y-82176380D02*
X175070600Y-82224000D01*
X175070600Y-82224000D02*
X174975362Y-82271619D01*
X174975362Y-82271619D02*
X174832505Y-82271619D01*
X175737267Y-82271619D02*
X175642029Y-82224000D01*
X175642029Y-82224000D02*
X175594410Y-82128761D01*
X175594410Y-82128761D02*
X175594410Y-81271619D01*
X176261077Y-82271619D02*
X176165839Y-82224000D01*
X176165839Y-82224000D02*
X176118220Y-82128761D01*
X176118220Y-82128761D02*
X176118220Y-81271619D01*
X177022982Y-82224000D02*
X176927744Y-82271619D01*
X176927744Y-82271619D02*
X176737268Y-82271619D01*
X176737268Y-82271619D02*
X176642030Y-82224000D01*
X176642030Y-82224000D02*
X176594411Y-82128761D01*
X176594411Y-82128761D02*
X176594411Y-81747809D01*
X176594411Y-81747809D02*
X176642030Y-81652571D01*
X176642030Y-81652571D02*
X176737268Y-81604952D01*
X176737268Y-81604952D02*
X176927744Y-81604952D01*
X176927744Y-81604952D02*
X177022982Y-81652571D01*
X177022982Y-81652571D02*
X177070601Y-81747809D01*
X177070601Y-81747809D02*
X177070601Y-81843047D01*
X177070601Y-81843047D02*
X176594411Y-81938285D01*
X177499173Y-82271619D02*
X177499173Y-81604952D01*
X177499173Y-81795428D02*
X177546792Y-81700190D01*
X177546792Y-81700190D02*
X177594411Y-81652571D01*
X177594411Y-81652571D02*
X177689649Y-81604952D01*
X177689649Y-81604952D02*
X177784887Y-81604952D01*
D10*
X169584999Y-58112819D02*
X169013571Y-58112819D01*
X169299285Y-58112819D02*
X169299285Y-57112819D01*
X169299285Y-57112819D02*
X169204047Y-57255676D01*
X169204047Y-57255676D02*
X169108809Y-57350914D01*
X169108809Y-57350914D02*
X169013571Y-57398533D01*
X169965952Y-57208057D02*
X170013571Y-57160438D01*
X170013571Y-57160438D02*
X170108809Y-57112819D01*
X170108809Y-57112819D02*
X170346904Y-57112819D01*
X170346904Y-57112819D02*
X170442142Y-57160438D01*
X170442142Y-57160438D02*
X170489761Y-57208057D01*
X170489761Y-57208057D02*
X170537380Y-57303295D01*
X170537380Y-57303295D02*
X170537380Y-57398533D01*
X170537380Y-57398533D02*
X170489761Y-57541390D01*
X170489761Y-57541390D02*
X169918333Y-58112819D01*
X169918333Y-58112819D02*
X170537380Y-58112819D01*
X170823095Y-57112819D02*
X171156428Y-58112819D01*
X171156428Y-58112819D02*
X171489761Y-57112819D01*
X171585000Y-58208057D02*
X172346904Y-58208057D01*
X173156428Y-58112819D02*
X172823095Y-57636628D01*
X172585000Y-58112819D02*
X172585000Y-57112819D01*
X172585000Y-57112819D02*
X172965952Y-57112819D01*
X172965952Y-57112819D02*
X173061190Y-57160438D01*
X173061190Y-57160438D02*
X173108809Y-57208057D01*
X173108809Y-57208057D02*
X173156428Y-57303295D01*
X173156428Y-57303295D02*
X173156428Y-57446152D01*
X173156428Y-57446152D02*
X173108809Y-57541390D01*
X173108809Y-57541390D02*
X173061190Y-57589009D01*
X173061190Y-57589009D02*
X172965952Y-57636628D01*
X172965952Y-57636628D02*
X172585000Y-57636628D01*
X173537381Y-57827104D02*
X174013571Y-57827104D01*
X173442143Y-58112819D02*
X173775476Y-57112819D01*
X173775476Y-57112819D02*
X174108809Y-58112819D01*
X174346905Y-57112819D02*
X174585000Y-58112819D01*
X174585000Y-58112819D02*
X174775476Y-57398533D01*
X174775476Y-57398533D02*
X174965952Y-58112819D01*
X174965952Y-58112819D02*
X175204048Y-57112819D01*
X161830609Y-67246933D02*
X161830609Y-67580266D01*
X162354419Y-67580266D02*
X161354419Y-67580266D01*
X161354419Y-67580266D02*
X161354419Y-67104076D01*
X162354419Y-66199314D02*
X162354419Y-66770742D01*
X162354419Y-66485028D02*
X161354419Y-66485028D01*
X161354419Y-66485028D02*
X161497276Y-66580266D01*
X161497276Y-66580266D02*
X161592514Y-66675504D01*
X161592514Y-66675504D02*
X161640133Y-66770742D01*
X109759761Y-93181057D02*
X109664523Y-93133438D01*
X109664523Y-93133438D02*
X109569285Y-93038200D01*
X109569285Y-93038200D02*
X109426428Y-92895342D01*
X109426428Y-92895342D02*
X109331190Y-92847723D01*
X109331190Y-92847723D02*
X109235952Y-92847723D01*
X109283571Y-93085819D02*
X109188333Y-93038200D01*
X109188333Y-93038200D02*
X109093095Y-92942961D01*
X109093095Y-92942961D02*
X109045476Y-92752485D01*
X109045476Y-92752485D02*
X109045476Y-92419152D01*
X109045476Y-92419152D02*
X109093095Y-92228676D01*
X109093095Y-92228676D02*
X109188333Y-92133438D01*
X109188333Y-92133438D02*
X109283571Y-92085819D01*
X109283571Y-92085819D02*
X109474047Y-92085819D01*
X109474047Y-92085819D02*
X109569285Y-92133438D01*
X109569285Y-92133438D02*
X109664523Y-92228676D01*
X109664523Y-92228676D02*
X109712142Y-92419152D01*
X109712142Y-92419152D02*
X109712142Y-92752485D01*
X109712142Y-92752485D02*
X109664523Y-92942961D01*
X109664523Y-92942961D02*
X109569285Y-93038200D01*
X109569285Y-93038200D02*
X109474047Y-93085819D01*
X109474047Y-93085819D02*
X109283571Y-93085819D01*
X110093095Y-92181057D02*
X110140714Y-92133438D01*
X110140714Y-92133438D02*
X110235952Y-92085819D01*
X110235952Y-92085819D02*
X110474047Y-92085819D01*
X110474047Y-92085819D02*
X110569285Y-92133438D01*
X110569285Y-92133438D02*
X110616904Y-92181057D01*
X110616904Y-92181057D02*
X110664523Y-92276295D01*
X110664523Y-92276295D02*
X110664523Y-92371533D01*
X110664523Y-92371533D02*
X110616904Y-92514390D01*
X110616904Y-92514390D02*
X110045476Y-93085819D01*
X110045476Y-93085819D02*
X110664523Y-93085819D01*
D14*
%TO.C,TP3*%
X174220000Y-69596000D02*
G75*
G03*
X174220000Y-69596000I-1500000J0D01*
G01*
%TO.C,D1*%
X164167500Y-133977000D02*
X164167500Y-131707000D01*
X164167500Y-131707000D02*
X160107500Y-131707000D01*
X160107500Y-133977000D02*
X164167500Y-133977000D01*
%TO.C,TP4*%
X168632000Y-69596000D02*
G75*
G03*
X168632000Y-69596000I-1500000J0D01*
G01*
%TO.C,TP3*%
X131040000Y-82296000D02*
G75*
G03*
X131040000Y-82296000I-1500000J0D01*
G01*
%TO.C,TP2*%
X119864000Y-119634000D02*
G75*
G03*
X119864000Y-119634000I-1500000J0D01*
G01*
%TO.C,C3*%
X140766748Y-61066000D02*
X142189252Y-61066000D01*
X140766748Y-62886000D02*
X142189252Y-62886000D01*
%TO.C,J2*%
X169986000Y-109472000D02*
X167136000Y-109472000D01*
X169746000Y-109712000D02*
X159926000Y-109712000D01*
X159926000Y-109712000D02*
X159926000Y-112812000D01*
X169986000Y-112322000D02*
X169986000Y-109472000D01*
X159926000Y-112812000D02*
X158526000Y-112812000D01*
X158526000Y-112812000D02*
X158526000Y-114622000D01*
X169746000Y-114622000D02*
X169746000Y-109712000D01*
X169746000Y-114622000D02*
X169746000Y-119532000D01*
X159926000Y-116432000D02*
X158526000Y-116432000D01*
X158526000Y-116432000D02*
X158526000Y-114622000D01*
X169746000Y-119532000D02*
X159926000Y-119532000D01*
X159926000Y-119532000D02*
X159926000Y-116432000D01*
%TO.C,TP6*%
X140184000Y-53594000D02*
G75*
G03*
X140184000Y-53594000I-1500000J0D01*
G01*
%TO.C,J1*%
X114179000Y-89338000D02*
X114179000Y-89028000D01*
X114179000Y-81748000D02*
X114179000Y-87508000D01*
X112759000Y-82248000D02*
X112759000Y-81748000D01*
X112759000Y-81748000D02*
X114179000Y-81748000D01*
X108729000Y-82248000D02*
X112759000Y-82248000D01*
X108729000Y-81748000D02*
X108729000Y-82248000D01*
X107309000Y-89338000D02*
X114179000Y-89338000D01*
X107309000Y-89028000D02*
X107309000Y-89338000D01*
X107309000Y-87508000D02*
X107309000Y-81748000D01*
X107309000Y-81748000D02*
X108729000Y-81748000D01*
%TO.C,R1*%
X167732064Y-60600000D02*
X166277936Y-60600000D01*
X167732064Y-58780000D02*
X166277936Y-58780000D01*
%TO.C,D2*%
X160107500Y-130167000D02*
X164167500Y-130167000D01*
X164167500Y-127897000D02*
X160107500Y-127897000D01*
X164167500Y-130167000D02*
X164167500Y-127897000D01*
D10*
%TO.C,SJ2*%
X157080000Y-78480000D02*
X156580000Y-77980000D01*
X157880000Y-78480000D02*
X157080000Y-78480000D01*
X156580000Y-77980000D02*
X156580000Y-74380000D01*
X158380000Y-77980000D02*
X157880000Y-78480000D01*
X156580000Y-74380000D02*
X157080000Y-73880000D01*
X158380000Y-74380000D02*
X158380000Y-77980000D01*
X157080000Y-73880000D02*
X157880000Y-73880000D01*
X157880000Y-73880000D02*
X158380000Y-74380000D01*
D14*
%TO.C,U7*%
X134740000Y-66065000D02*
X132930000Y-66065000D01*
X132930000Y-66065000D02*
X132930000Y-60940000D01*
X126150000Y-66065000D02*
X126150000Y-64965000D01*
X124340000Y-66065000D02*
X126150000Y-66065000D01*
X134740000Y-67565000D02*
X134740000Y-66065000D01*
X124340000Y-67565000D02*
X124340000Y-66065000D01*
%TO.C,R3*%
X146313536Y-58272000D02*
X147767664Y-58272000D01*
X146313536Y-60092000D02*
X147767664Y-60092000D01*
%TO.C,R8*%
X174252936Y-84434000D02*
X175707064Y-84434000D01*
X174252936Y-86254000D02*
X175707064Y-86254000D01*
%TO.C,R7*%
X118004000Y-98771064D02*
X118004000Y-97316936D01*
X116184000Y-98771064D02*
X116184000Y-97316936D01*
%TO.C,U4*%
X131358000Y-119580000D02*
X131358000Y-121000000D01*
X125598000Y-119580000D02*
X131358000Y-119580000D01*
X124078000Y-119580000D02*
X123768000Y-119580000D01*
X123768000Y-119580000D02*
X123768000Y-129450000D01*
X131358000Y-121000000D02*
X130858000Y-121000000D01*
X130858000Y-121000000D02*
X130858000Y-128030000D01*
X131358000Y-128030000D02*
X131358000Y-129450000D01*
X130858000Y-128030000D02*
X131358000Y-128030000D01*
X131358000Y-129450000D02*
X125598000Y-129450000D01*
X123768000Y-129450000D02*
X124078000Y-129450000D01*
%TO.C,R5*%
X158390000Y-86902936D02*
X158390000Y-88357064D01*
X156570000Y-86902936D02*
X156570000Y-88357064D01*
%TO.C,D10*%
X143712200Y-60418600D02*
X143712200Y-58148600D01*
X143712200Y-58148600D02*
X139827200Y-58148600D01*
X139827200Y-60418600D02*
X143712200Y-60418600D01*
%TO.C,R2*%
X158390000Y-55152936D02*
X158390000Y-56607064D01*
X156570000Y-55152936D02*
X156570000Y-56607064D01*
%TO.C,G\u002A\u002A\u002A*%
G36*
X120856433Y-45813069D02*
G01*
X120930049Y-46019086D01*
X121025253Y-46321407D01*
X121107876Y-46604767D01*
X121233670Y-47016468D01*
X121371339Y-47413369D01*
X121500094Y-47737636D01*
X121562632Y-47869898D01*
X121661970Y-48043128D01*
X121770677Y-48180209D01*
X121914974Y-48295042D01*
X122121082Y-48401526D01*
X122415219Y-48513563D01*
X122823606Y-48645052D01*
X123289012Y-48785128D01*
X123645099Y-48892625D01*
X123935212Y-48983439D01*
X124124527Y-49046467D01*
X124179738Y-49069117D01*
X124117159Y-49102072D01*
X123926450Y-49166451D01*
X123643249Y-49250615D01*
X123511120Y-49287469D01*
X122894576Y-49466970D01*
X122423550Y-49629772D01*
X122076208Y-49785022D01*
X121830720Y-49941867D01*
X121729403Y-50034011D01*
X121573550Y-50266344D01*
X121401985Y-50644120D01*
X121223181Y-51145185D01*
X121045616Y-51747384D01*
X120984530Y-51981100D01*
X120914216Y-52226818D01*
X120852490Y-52388247D01*
X120823719Y-52425600D01*
X120782051Y-52349663D01*
X120711685Y-52146663D01*
X120624983Y-51853813D01*
X120585455Y-51708388D01*
X120422039Y-51120455D01*
X120277867Y-50674930D01*
X120141810Y-50347635D01*
X120002742Y-50114391D01*
X119849535Y-49951017D01*
X119740894Y-49873174D01*
X119538937Y-49773744D01*
X119218750Y-49644906D01*
X118824971Y-49503588D01*
X118417903Y-49371512D01*
X117402247Y-49059793D01*
X117861956Y-48928517D01*
X118216658Y-48827646D01*
X118617765Y-48714176D01*
X118829666Y-48654493D01*
X119307597Y-48500886D01*
X119652478Y-48335685D01*
X119900015Y-48133320D01*
X120085913Y-47868216D01*
X120171770Y-47693275D01*
X120294640Y-47380515D01*
X120430065Y-46978887D01*
X120552723Y-46564564D01*
X120575872Y-46477767D01*
X120665563Y-46151680D01*
X120744318Y-45898798D01*
X120800267Y-45755790D01*
X120815711Y-45736934D01*
X120856433Y-45813069D01*
G37*
G36*
X135095044Y-45670767D02*
G01*
X135164729Y-45873030D01*
X135262911Y-46185284D01*
X135381134Y-46580960D01*
X135462197Y-46861453D01*
X135678805Y-47588431D01*
X135873727Y-48167999D01*
X136055738Y-48619320D01*
X136233610Y-48961555D01*
X136416118Y-49213868D01*
X136612034Y-49395418D01*
X136627610Y-49406786D01*
X136807700Y-49512076D01*
X137084189Y-49635512D01*
X137470046Y-49781682D01*
X137978243Y-49955173D01*
X138621750Y-50160574D01*
X139413539Y-50402473D01*
X139603320Y-50459371D01*
X140141641Y-50620307D01*
X139179987Y-50900913D01*
X138412526Y-51125882D01*
X137787707Y-51319579D01*
X137286189Y-51500094D01*
X136888636Y-51685516D01*
X136575708Y-51893934D01*
X136328066Y-52143436D01*
X136126373Y-52452112D01*
X135951289Y-52838051D01*
X135783476Y-53319341D01*
X135603596Y-53914072D01*
X135470984Y-54370246D01*
X135066093Y-55764559D01*
X134921971Y-55259246D01*
X134687211Y-54444697D01*
X134487802Y-53776945D01*
X134316422Y-53238917D01*
X134165749Y-52813543D01*
X134028461Y-52483750D01*
X133897237Y-52232466D01*
X133764755Y-52042620D01*
X133623693Y-51897141D01*
X133466728Y-51778956D01*
X133415250Y-51746151D01*
X133215906Y-51650434D01*
X132877037Y-51518900D01*
X132422660Y-51359632D01*
X131876796Y-51180715D01*
X131263461Y-50990231D01*
X130606674Y-50796264D01*
X130513666Y-50769589D01*
X130005666Y-50624429D01*
X130683000Y-50420434D01*
X131403352Y-50202618D01*
X131980342Y-50025321D01*
X132433096Y-49881394D01*
X132780736Y-49763688D01*
X133042386Y-49665056D01*
X133237172Y-49578347D01*
X133384217Y-49496413D01*
X133502645Y-49412106D01*
X133597696Y-49330890D01*
X133761730Y-49164739D01*
X133906443Y-48970616D01*
X134042219Y-48724858D01*
X134179445Y-48403805D01*
X134328506Y-47983797D01*
X134499788Y-47441173D01*
X134652516Y-46927763D01*
X134782804Y-46487213D01*
X134897767Y-46107203D01*
X134988651Y-45815987D01*
X135046703Y-45641821D01*
X135062313Y-45605065D01*
X135095044Y-45670767D01*
G37*
G36*
X126213883Y-47270501D02*
G01*
X126280289Y-47475774D01*
X126375472Y-47790604D01*
X126491248Y-48188166D01*
X126570940Y-48468548D01*
X126836571Y-49396831D01*
X127069930Y-50175770D01*
X127277627Y-50820831D01*
X127466273Y-51347477D01*
X127642479Y-51771175D01*
X127812854Y-52107388D01*
X127984009Y-52371582D01*
X128162554Y-52579222D01*
X128355101Y-52745773D01*
X128418816Y-52791581D01*
X128622240Y-52923149D01*
X128842944Y-53044137D01*
X129103252Y-53162867D01*
X129425487Y-53287657D01*
X129831971Y-53426826D01*
X130345025Y-53588695D01*
X130986974Y-53781581D01*
X131404581Y-53904345D01*
X132043677Y-54091107D01*
X132537580Y-54235733D01*
X132903473Y-54344116D01*
X133158543Y-54422153D01*
X133319973Y-54475740D01*
X133404948Y-54510771D01*
X133430654Y-54533143D01*
X133414274Y-54548750D01*
X133372993Y-54563488D01*
X133350000Y-54571743D01*
X133232621Y-54609388D01*
X132979227Y-54685723D01*
X132616598Y-54792846D01*
X132171515Y-54922857D01*
X131670760Y-55067854D01*
X131576089Y-55095133D01*
X130729090Y-55343873D01*
X130029021Y-55562879D01*
X129458064Y-55761554D01*
X128998401Y-55949303D01*
X128632214Y-56135530D01*
X128341685Y-56329639D01*
X128108995Y-56541034D01*
X127916328Y-56779119D01*
X127745864Y-57053298D01*
X127697308Y-57142273D01*
X127599524Y-57362959D01*
X127466209Y-57717674D01*
X127307218Y-58177306D01*
X127132405Y-58712747D01*
X126951622Y-59294887D01*
X126828172Y-59709876D01*
X126663101Y-60272876D01*
X126513067Y-60779841D01*
X126384682Y-61208814D01*
X126284558Y-61537840D01*
X126219305Y-61744962D01*
X126196154Y-61808814D01*
X126187344Y-61819853D01*
X126178027Y-61819690D01*
X126162515Y-61789983D01*
X126135120Y-61712385D01*
X126090154Y-61568553D01*
X126021931Y-61340141D01*
X125924762Y-61008805D01*
X125792960Y-60556200D01*
X125620837Y-59963981D01*
X125570735Y-59791600D01*
X125354629Y-59054905D01*
X125174709Y-58460618D01*
X125022938Y-57987692D01*
X124891277Y-57615080D01*
X124771688Y-57321732D01*
X124656133Y-57086602D01*
X124536576Y-56888642D01*
X124404977Y-56706804D01*
X124381001Y-56676198D01*
X124200999Y-56474325D01*
X123987818Y-56292570D01*
X123722247Y-56122226D01*
X123385077Y-55954588D01*
X122957095Y-55780952D01*
X122419093Y-55592611D01*
X121751860Y-55380862D01*
X121073333Y-55177316D01*
X120527417Y-55016058D01*
X120031651Y-54868963D01*
X119610534Y-54743354D01*
X119288563Y-54646551D01*
X119090236Y-54585876D01*
X119041333Y-54570057D01*
X119075803Y-54532851D01*
X119249960Y-54457894D01*
X119540571Y-54353596D01*
X119924400Y-54228368D01*
X120311333Y-54110345D01*
X121195636Y-53845630D01*
X121932897Y-53617388D01*
X122539589Y-53418096D01*
X123032188Y-53240230D01*
X123427169Y-53076264D01*
X123741005Y-52918674D01*
X123990172Y-52759937D01*
X124191145Y-52592527D01*
X124360397Y-52408920D01*
X124514404Y-52201592D01*
X124525196Y-52185765D01*
X124627722Y-52029483D01*
X124718099Y-51874064D01*
X124803660Y-51698871D01*
X124891736Y-51483266D01*
X124989660Y-51206611D01*
X125104765Y-50848270D01*
X125244383Y-50387604D01*
X125415845Y-49803977D01*
X125612074Y-49126660D01*
X125768258Y-48588155D01*
X125909142Y-48106841D01*
X126027915Y-47705623D01*
X126117766Y-47407407D01*
X126171885Y-47235099D01*
X126184437Y-47201607D01*
X126213883Y-47270501D01*
G37*
%TO.C,C1*%
X138578000Y-127343248D02*
X138578000Y-128765752D01*
X136758000Y-127343248D02*
X136758000Y-128765752D01*
%TO.C,Q4*%
X172952000Y-77902000D02*
X176552000Y-77902000D01*
X174752000Y-73452000D02*
G75*
G03*
X172913522Y-77890478I0J-2600000D01*
G01*
X176590478Y-77890478D02*
G75*
G03*
X174752000Y-73452000I-1838478J1838478D01*
G01*
D10*
%TO.C,U2*%
X141732000Y-125984000D02*
X141732000Y-124714000D01*
X149352000Y-125984000D02*
X141732000Y-125984000D01*
X136652000Y-124714000D02*
X136652000Y-63754000D01*
X149352000Y-124714000D02*
X149352000Y-125984000D01*
X154432000Y-124714000D02*
X136652000Y-124714000D01*
X141732000Y-119634000D02*
X141732000Y-124714000D01*
X149352000Y-119634000D02*
X149352000Y-124714000D01*
X149352000Y-119634000D02*
X141732000Y-119634000D01*
X139192000Y-101854000D02*
X151892000Y-101854000D01*
X151892000Y-101854000D02*
X151892000Y-89154000D01*
X139192000Y-89154000D02*
X139192000Y-101854000D01*
X151892000Y-89154000D02*
X139192000Y-89154000D01*
X144272000Y-84074000D02*
X144272000Y-80264000D01*
X146812000Y-84074000D02*
X144272000Y-84074000D01*
X144272000Y-80264000D02*
X146812000Y-80264000D01*
X146812000Y-80264000D02*
X146812000Y-84074000D01*
X139192000Y-76454000D02*
X151892000Y-76454000D01*
X151892000Y-76454000D02*
X151892000Y-63754000D01*
X140462000Y-65024000D02*
X150622000Y-65024000D01*
X150622000Y-65024000D02*
X150622000Y-63754000D01*
X136652000Y-63754000D02*
X154432000Y-63754000D01*
X139192000Y-63754000D02*
X139192000Y-76454000D01*
X140462000Y-63754000D02*
X140462000Y-65024000D01*
X154432000Y-63754000D02*
X154432000Y-124714000D01*
X146440026Y-82169000D02*
G75*
G03*
X146440026Y-82169000I-898026J0D01*
G01*
D13*
X145108000Y-93577000D02*
X144727000Y-93831000D01*
X144473000Y-93577000D01*
X144854000Y-93323000D01*
X145108000Y-93577000D01*
G36*
X145108000Y-93577000D02*
G01*
X144727000Y-93831000D01*
X144473000Y-93577000D01*
X144854000Y-93323000D01*
X145108000Y-93577000D01*
G37*
X145616000Y-93196000D02*
X145235000Y-93450000D01*
X144981000Y-93196000D01*
X145362000Y-92942000D01*
X145616000Y-93196000D01*
G36*
X145616000Y-93196000D02*
G01*
X145235000Y-93450000D01*
X144981000Y-93196000D01*
X145362000Y-92942000D01*
X145616000Y-93196000D01*
G37*
X145235000Y-92815000D02*
X144854000Y-93069000D01*
X144600000Y-92815000D01*
X144981000Y-92561000D01*
X145235000Y-92815000D01*
G36*
X145235000Y-92815000D02*
G01*
X144854000Y-93069000D01*
X144600000Y-92815000D01*
X144981000Y-92561000D01*
X145235000Y-92815000D01*
G37*
X146124000Y-92815000D02*
X145743000Y-93069000D01*
X145489000Y-92815000D01*
X145870000Y-92561000D01*
X146124000Y-92815000D01*
G36*
X146124000Y-92815000D02*
G01*
X145743000Y-93069000D01*
X145489000Y-92815000D01*
X145870000Y-92561000D01*
X146124000Y-92815000D01*
G37*
X145743000Y-92434000D02*
X145362000Y-92688000D01*
X145108000Y-92434000D01*
X145489000Y-92180000D01*
X145743000Y-92434000D01*
G36*
X145743000Y-92434000D02*
G01*
X145362000Y-92688000D01*
X145108000Y-92434000D01*
X145489000Y-92180000D01*
X145743000Y-92434000D01*
G37*
X146251000Y-92053000D02*
X145870000Y-92307000D01*
X145616000Y-92053000D01*
X145997000Y-91799000D01*
X146251000Y-92053000D01*
G36*
X146251000Y-92053000D02*
G01*
X145870000Y-92307000D01*
X145616000Y-92053000D01*
X145997000Y-91799000D01*
X146251000Y-92053000D01*
G37*
X145870000Y-91672000D02*
X145489000Y-91926000D01*
X145235000Y-91672000D01*
X145616000Y-91418000D01*
X145870000Y-91672000D01*
G36*
X145870000Y-91672000D02*
G01*
X145489000Y-91926000D01*
X145235000Y-91672000D01*
X145616000Y-91418000D01*
X145870000Y-91672000D01*
G37*
X145489000Y-91291000D02*
X145108000Y-91545000D01*
X144854000Y-91291000D01*
X145235000Y-91037000D01*
X145489000Y-91291000D01*
G36*
X145489000Y-91291000D02*
G01*
X145108000Y-91545000D01*
X144854000Y-91291000D01*
X145235000Y-91037000D01*
X145489000Y-91291000D01*
G37*
D14*
%TO.C,R4*%
X158390000Y-81187936D02*
X158390000Y-82642064D01*
X156570000Y-81187936D02*
X156570000Y-82642064D01*
%TO.C,COMMISIONING_PWR1*%
X182120000Y-72450000D02*
X182120000Y-69600000D01*
X181880000Y-72210000D02*
X181880000Y-62390000D01*
X181880000Y-62390000D02*
X180880000Y-62390000D01*
X180880000Y-62390000D02*
X180880000Y-60990000D01*
X180880000Y-60990000D02*
X179070000Y-60990000D01*
X179270000Y-72450000D02*
X182120000Y-72450000D01*
X179070000Y-72210000D02*
X181880000Y-72210000D01*
X179070000Y-72210000D02*
X176260000Y-72210000D01*
X177260000Y-62390000D02*
X177260000Y-60990000D01*
X177260000Y-60990000D02*
X179070000Y-60990000D01*
X176260000Y-72210000D02*
X176260000Y-62390000D01*
X176260000Y-62390000D02*
X177260000Y-62390000D01*
%TO.C,D6*%
X156345000Y-95805000D02*
X158615000Y-95805000D01*
X158615000Y-95805000D02*
X158615000Y-91745000D01*
X156345000Y-91745000D02*
X156345000Y-95805000D01*
%TO.C,C2*%
X147777252Y-62886000D02*
X146354748Y-62886000D01*
X147777252Y-61066000D02*
X146354748Y-61066000D01*
%TO.C,D3*%
X164167500Y-126015000D02*
X164167500Y-123745000D01*
X164167500Y-123745000D02*
X160107500Y-123745000D01*
X160107500Y-126015000D02*
X164167500Y-126015000D01*
%TO.C,G\u002A\u002A\u002A*%
G36*
X131005083Y-70871956D02*
G01*
X131105954Y-71226658D01*
X131219424Y-71627765D01*
X131279107Y-71839666D01*
X131432714Y-72317597D01*
X131597915Y-72662478D01*
X131800280Y-72910015D01*
X132065384Y-73095913D01*
X132240325Y-73181770D01*
X132553085Y-73304640D01*
X132954713Y-73440065D01*
X133369036Y-73562723D01*
X133455833Y-73585872D01*
X133781920Y-73675563D01*
X134034802Y-73754318D01*
X134177810Y-73810267D01*
X134196666Y-73825711D01*
X134120531Y-73866433D01*
X133914514Y-73940049D01*
X133612193Y-74035253D01*
X133328833Y-74117876D01*
X132917132Y-74243670D01*
X132520231Y-74381339D01*
X132195964Y-74510094D01*
X132063702Y-74572632D01*
X131890472Y-74671970D01*
X131753391Y-74780677D01*
X131638558Y-74924974D01*
X131532074Y-75131082D01*
X131420037Y-75425219D01*
X131288548Y-75833606D01*
X131148472Y-76299012D01*
X131040975Y-76655099D01*
X130950161Y-76945212D01*
X130887133Y-77134527D01*
X130864483Y-77189738D01*
X130831528Y-77127159D01*
X130767149Y-76936450D01*
X130682985Y-76653249D01*
X130646131Y-76521120D01*
X130466630Y-75904576D01*
X130303828Y-75433550D01*
X130148578Y-75086208D01*
X129991733Y-74840720D01*
X129899589Y-74739403D01*
X129667256Y-74583550D01*
X129289480Y-74411985D01*
X128788415Y-74233181D01*
X128186216Y-74055616D01*
X127952500Y-73994530D01*
X127706782Y-73924216D01*
X127545353Y-73862490D01*
X127508000Y-73833719D01*
X127583937Y-73792051D01*
X127786937Y-73721685D01*
X128079787Y-73634983D01*
X128225212Y-73595455D01*
X128813145Y-73432039D01*
X129258670Y-73287867D01*
X129585965Y-73151810D01*
X129819209Y-73012742D01*
X129982583Y-72859535D01*
X130060426Y-72750894D01*
X130159856Y-72548937D01*
X130288694Y-72228750D01*
X130430012Y-71834971D01*
X130562088Y-71427903D01*
X130873807Y-70412247D01*
X131005083Y-70871956D01*
G37*
G36*
X129513166Y-83693000D02*
G01*
X129730982Y-84413352D01*
X129908279Y-84990342D01*
X130052206Y-85443096D01*
X130169912Y-85790736D01*
X130268544Y-86052386D01*
X130355253Y-86247172D01*
X130437187Y-86394217D01*
X130521494Y-86512645D01*
X130602710Y-86607696D01*
X130768861Y-86771730D01*
X130962984Y-86916443D01*
X131208742Y-87052219D01*
X131529795Y-87189445D01*
X131949803Y-87338506D01*
X132492427Y-87509788D01*
X133005837Y-87662516D01*
X133446387Y-87792804D01*
X133826397Y-87907767D01*
X134117613Y-87998651D01*
X134291779Y-88056703D01*
X134328535Y-88072313D01*
X134262833Y-88105044D01*
X134060570Y-88174729D01*
X133748316Y-88272911D01*
X133352640Y-88391134D01*
X133072147Y-88472197D01*
X132345169Y-88688805D01*
X131765601Y-88883727D01*
X131314280Y-89065738D01*
X130972045Y-89243610D01*
X130719732Y-89426118D01*
X130538182Y-89622034D01*
X130526814Y-89637610D01*
X130421524Y-89817700D01*
X130298088Y-90094189D01*
X130151918Y-90480046D01*
X129978427Y-90988243D01*
X129773026Y-91631750D01*
X129531127Y-92423539D01*
X129474229Y-92613320D01*
X129313293Y-93151641D01*
X129032687Y-92189987D01*
X128807718Y-91422526D01*
X128614021Y-90797707D01*
X128433506Y-90296189D01*
X128248084Y-89898636D01*
X128039666Y-89585708D01*
X127790164Y-89338066D01*
X127481488Y-89136373D01*
X127095549Y-88961289D01*
X126614259Y-88793476D01*
X126019528Y-88613596D01*
X125563354Y-88480984D01*
X124169041Y-88076093D01*
X124674354Y-87931971D01*
X125488903Y-87697211D01*
X126156655Y-87497802D01*
X126694683Y-87326422D01*
X127120057Y-87175749D01*
X127449850Y-87038461D01*
X127701134Y-86907237D01*
X127890980Y-86774755D01*
X128036459Y-86633693D01*
X128154644Y-86476728D01*
X128187449Y-86425250D01*
X128283166Y-86225906D01*
X128414700Y-85887037D01*
X128573968Y-85432660D01*
X128752885Y-84886796D01*
X128943369Y-84273461D01*
X129137336Y-83616674D01*
X129164011Y-83523666D01*
X129309171Y-83015666D01*
X129513166Y-83693000D01*
G37*
G36*
X125400749Y-72085803D02*
G01*
X125475706Y-72259960D01*
X125580004Y-72550571D01*
X125705232Y-72934400D01*
X125823255Y-73321333D01*
X126087970Y-74205636D01*
X126316212Y-74942897D01*
X126515504Y-75549589D01*
X126693370Y-76042188D01*
X126857336Y-76437169D01*
X127014926Y-76751005D01*
X127173663Y-77000172D01*
X127341073Y-77201145D01*
X127524680Y-77370397D01*
X127732008Y-77524404D01*
X127747835Y-77535196D01*
X127904117Y-77637722D01*
X128059536Y-77728099D01*
X128234729Y-77813660D01*
X128450334Y-77901736D01*
X128726989Y-77999660D01*
X129085330Y-78114765D01*
X129545996Y-78254383D01*
X130129623Y-78425845D01*
X130806940Y-78622074D01*
X131345445Y-78778258D01*
X131826759Y-78919142D01*
X132227977Y-79037915D01*
X132526193Y-79127766D01*
X132698501Y-79181885D01*
X132731993Y-79194437D01*
X132663099Y-79223883D01*
X132457826Y-79290289D01*
X132142996Y-79385472D01*
X131745434Y-79501248D01*
X131465052Y-79580940D01*
X130536769Y-79846571D01*
X129757830Y-80079930D01*
X129112769Y-80287627D01*
X128586123Y-80476273D01*
X128162425Y-80652479D01*
X127826212Y-80822854D01*
X127562018Y-80994009D01*
X127354378Y-81172554D01*
X127187827Y-81365101D01*
X127142019Y-81428816D01*
X127010451Y-81632240D01*
X126889463Y-81852944D01*
X126770733Y-82113252D01*
X126645943Y-82435487D01*
X126506774Y-82841971D01*
X126344905Y-83355025D01*
X126152019Y-83996974D01*
X126029255Y-84414581D01*
X125842493Y-85053677D01*
X125697867Y-85547580D01*
X125589484Y-85913473D01*
X125511447Y-86168543D01*
X125457860Y-86329973D01*
X125422829Y-86414948D01*
X125400457Y-86440654D01*
X125384850Y-86424274D01*
X125370112Y-86382993D01*
X125361857Y-86360000D01*
X125324212Y-86242621D01*
X125247877Y-85989227D01*
X125140754Y-85626598D01*
X125010743Y-85181515D01*
X124865746Y-84680760D01*
X124838467Y-84586089D01*
X124589727Y-83739090D01*
X124370721Y-83039021D01*
X124172046Y-82468064D01*
X123984297Y-82008401D01*
X123798070Y-81642214D01*
X123603961Y-81351685D01*
X123392566Y-81118995D01*
X123154481Y-80926328D01*
X122880302Y-80755864D01*
X122791327Y-80707308D01*
X122570641Y-80609524D01*
X122215926Y-80476209D01*
X121756294Y-80317218D01*
X121220853Y-80142405D01*
X120638713Y-79961622D01*
X120223724Y-79838172D01*
X119660724Y-79673101D01*
X119153759Y-79523067D01*
X118724786Y-79394682D01*
X118395760Y-79294558D01*
X118188638Y-79229305D01*
X118124786Y-79206154D01*
X118113747Y-79197344D01*
X118113910Y-79188027D01*
X118143617Y-79172515D01*
X118221215Y-79145120D01*
X118365047Y-79100154D01*
X118593459Y-79031931D01*
X118924795Y-78934762D01*
X119377400Y-78802960D01*
X119969619Y-78630837D01*
X120142000Y-78580735D01*
X120878695Y-78364629D01*
X121472982Y-78184709D01*
X121945908Y-78032938D01*
X122318520Y-77901277D01*
X122611868Y-77781688D01*
X122846998Y-77666133D01*
X123044958Y-77546576D01*
X123226796Y-77414977D01*
X123257402Y-77391001D01*
X123459275Y-77210999D01*
X123641030Y-76997818D01*
X123811374Y-76732247D01*
X123979012Y-76395077D01*
X124152648Y-75967095D01*
X124340989Y-75429093D01*
X124552738Y-74761860D01*
X124756284Y-74083333D01*
X124917542Y-73537417D01*
X125064637Y-73041651D01*
X125190246Y-72620534D01*
X125287049Y-72298563D01*
X125347724Y-72100236D01*
X125363543Y-72051333D01*
X125400749Y-72085803D01*
G37*
%TO.C,J3*%
X171702000Y-109922000D02*
X171702000Y-112772000D01*
X171942000Y-110162000D02*
X171942000Y-119982000D01*
X171942000Y-119982000D02*
X172942000Y-119982000D01*
X172942000Y-119982000D02*
X172942000Y-121382000D01*
X172942000Y-121382000D02*
X174752000Y-121382000D01*
X174552000Y-109922000D02*
X171702000Y-109922000D01*
X174752000Y-110162000D02*
X171942000Y-110162000D01*
X174752000Y-110162000D02*
X177562000Y-110162000D01*
X176562000Y-119982000D02*
X176562000Y-121382000D01*
X176562000Y-121382000D02*
X174752000Y-121382000D01*
X177562000Y-110162000D02*
X177562000Y-119982000D01*
X177562000Y-119982000D02*
X176562000Y-119982000D01*
%TO.C,D8*%
X165670000Y-62485000D02*
X165670000Y-65785000D01*
X165670000Y-62485000D02*
X172680000Y-62485000D01*
X165670000Y-65785000D02*
X172680000Y-65785000D01*
%TO.C,R6*%
X167788000Y-121726936D02*
X167788000Y-123181064D01*
X165968000Y-121726936D02*
X165968000Y-123181064D01*
%TO.C,TP5*%
X159132400Y-60096400D02*
G75*
G03*
X159132400Y-60096400I-1500000J0D01*
G01*
%TO.C,D4*%
X164167500Y-122420000D02*
X164167500Y-120150000D01*
X164167500Y-120150000D02*
X160107500Y-120150000D01*
X160107500Y-122420000D02*
X164167500Y-122420000D01*
%TO.C,C4*%
X188235000Y-85039148D02*
X188235000Y-86461652D01*
X186415000Y-85039148D02*
X186415000Y-86461652D01*
%TO.C,Q1*%
X187873000Y-78073000D02*
X187873000Y-73432000D01*
X187873000Y-78073000D02*
X177633000Y-78073000D01*
X187873000Y-76563000D02*
X177633000Y-76563000D01*
X187873000Y-73432000D02*
X177633000Y-73432000D01*
X184603000Y-78073000D02*
X184603000Y-76563000D01*
X180902000Y-78073000D02*
X180902000Y-76563000D01*
X177633000Y-78073000D02*
X177633000Y-73432000D01*
%TO.C,D5*%
X116094000Y-93292000D02*
X118094000Y-93292000D01*
X116094000Y-93292000D02*
X116094000Y-89282000D01*
X118094000Y-93292000D02*
X118094000Y-89282000D01*
%TO.C,U6*%
X132140000Y-108906000D02*
X132140000Y-110236000D01*
X130810000Y-108906000D02*
X132140000Y-108906000D01*
X129540000Y-108906000D02*
X119320000Y-108906000D01*
X129540000Y-108906000D02*
X129540000Y-111566000D01*
X119320000Y-108906000D02*
X119320000Y-111566000D01*
X129540000Y-111566000D02*
X119320000Y-111566000D01*
%TO.C,Q6*%
X107928000Y-106752000D02*
X111528000Y-106752000D01*
X109728000Y-102302000D02*
G75*
G03*
X107889522Y-106740478I0J-2600000D01*
G01*
X111566478Y-106740478D02*
G75*
G03*
X109728000Y-102302000I-1838478J1838478D01*
G01*
%TO.C,D9*%
X163060000Y-53595000D02*
X160790000Y-53595000D01*
X160790000Y-53595000D02*
X160790000Y-57480000D01*
X163060000Y-57480000D02*
X163060000Y-53595000D01*
%TO.C,G\u002A\u002A\u002A*%
G36*
X110214472Y-72986841D02*
G01*
X110278851Y-73177550D01*
X110363015Y-73460751D01*
X110399869Y-73592880D01*
X110579370Y-74209424D01*
X110742172Y-74680450D01*
X110897422Y-75027792D01*
X111054267Y-75273280D01*
X111146411Y-75374597D01*
X111378744Y-75530450D01*
X111756520Y-75702015D01*
X112257585Y-75880819D01*
X112859784Y-76058384D01*
X113093500Y-76119470D01*
X113339218Y-76189784D01*
X113500647Y-76251510D01*
X113538000Y-76280281D01*
X113462063Y-76321949D01*
X113259063Y-76392315D01*
X112966213Y-76479017D01*
X112820788Y-76518545D01*
X112232855Y-76681961D01*
X111787330Y-76826133D01*
X111460035Y-76962190D01*
X111226791Y-77101258D01*
X111063417Y-77254465D01*
X110985574Y-77363106D01*
X110886144Y-77565063D01*
X110757306Y-77885250D01*
X110615988Y-78279029D01*
X110483912Y-78686097D01*
X110172193Y-79701753D01*
X110040917Y-79242044D01*
X109940046Y-78887342D01*
X109826576Y-78486235D01*
X109766893Y-78274334D01*
X109613286Y-77796403D01*
X109448085Y-77451522D01*
X109245720Y-77203985D01*
X108980616Y-77018087D01*
X108805675Y-76932230D01*
X108492915Y-76809360D01*
X108091287Y-76673935D01*
X107676964Y-76551277D01*
X107590167Y-76528128D01*
X107264080Y-76438437D01*
X107011198Y-76359682D01*
X106868190Y-76303733D01*
X106849334Y-76288289D01*
X106925469Y-76247567D01*
X107131486Y-76173951D01*
X107433807Y-76078747D01*
X107717167Y-75996124D01*
X108128868Y-75870330D01*
X108525769Y-75732661D01*
X108850036Y-75603906D01*
X108982298Y-75541368D01*
X109155528Y-75442030D01*
X109292609Y-75333323D01*
X109407442Y-75189026D01*
X109513926Y-74982918D01*
X109625963Y-74688781D01*
X109757452Y-74280394D01*
X109897528Y-73814988D01*
X110005025Y-73458901D01*
X110095839Y-73168788D01*
X110158867Y-72979473D01*
X110181517Y-72924262D01*
X110214472Y-72986841D01*
G37*
G36*
X112013313Y-57924013D02*
G01*
X112238282Y-58691474D01*
X112431979Y-59316293D01*
X112612494Y-59817811D01*
X112797916Y-60215364D01*
X113006334Y-60528292D01*
X113255836Y-60775934D01*
X113564512Y-60977627D01*
X113950451Y-61152711D01*
X114431741Y-61320524D01*
X115026472Y-61500404D01*
X115482646Y-61633016D01*
X116876959Y-62037907D01*
X116371646Y-62182029D01*
X115557097Y-62416789D01*
X114889345Y-62616198D01*
X114351317Y-62787578D01*
X113925943Y-62938251D01*
X113596150Y-63075539D01*
X113344866Y-63206763D01*
X113155020Y-63339245D01*
X113009541Y-63480307D01*
X112891356Y-63637272D01*
X112858551Y-63688750D01*
X112762834Y-63888094D01*
X112631300Y-64226963D01*
X112472032Y-64681340D01*
X112293115Y-65227204D01*
X112102631Y-65840539D01*
X111908664Y-66497326D01*
X111881989Y-66590334D01*
X111736829Y-67098334D01*
X111532834Y-66421000D01*
X111315018Y-65700648D01*
X111137721Y-65123658D01*
X110993794Y-64670904D01*
X110876088Y-64323264D01*
X110777456Y-64061614D01*
X110690747Y-63866828D01*
X110608813Y-63719783D01*
X110524506Y-63601355D01*
X110443290Y-63506304D01*
X110277139Y-63342270D01*
X110083016Y-63197557D01*
X109837258Y-63061781D01*
X109516205Y-62924555D01*
X109096197Y-62775494D01*
X108553573Y-62604212D01*
X108040163Y-62451484D01*
X107599613Y-62321196D01*
X107219603Y-62206233D01*
X106928387Y-62115349D01*
X106754221Y-62057297D01*
X106717465Y-62041687D01*
X106783167Y-62008956D01*
X106985430Y-61939271D01*
X107297684Y-61841089D01*
X107693360Y-61722866D01*
X107973853Y-61641803D01*
X108700831Y-61425195D01*
X109280399Y-61230273D01*
X109731720Y-61048262D01*
X110073955Y-60870390D01*
X110326268Y-60687882D01*
X110507818Y-60491966D01*
X110519186Y-60476390D01*
X110624476Y-60296300D01*
X110747912Y-60019811D01*
X110894082Y-59633954D01*
X111067573Y-59125757D01*
X111272974Y-58482250D01*
X111514873Y-57690461D01*
X111571771Y-57500680D01*
X111732707Y-56962359D01*
X112013313Y-57924013D01*
G37*
G36*
X115661150Y-63689726D02*
G01*
X115675888Y-63731007D01*
X115684143Y-63754000D01*
X115721788Y-63871379D01*
X115798123Y-64124773D01*
X115905246Y-64487402D01*
X116035257Y-64932485D01*
X116180254Y-65433240D01*
X116207533Y-65527911D01*
X116456273Y-66374910D01*
X116675279Y-67074979D01*
X116873954Y-67645936D01*
X117061703Y-68105599D01*
X117247930Y-68471786D01*
X117442039Y-68762315D01*
X117653434Y-68995005D01*
X117891519Y-69187672D01*
X118165698Y-69358136D01*
X118254673Y-69406692D01*
X118475359Y-69504476D01*
X118830074Y-69637791D01*
X119289706Y-69796782D01*
X119825147Y-69971595D01*
X120407287Y-70152378D01*
X120822276Y-70275828D01*
X121385276Y-70440899D01*
X121892241Y-70590933D01*
X122321214Y-70719318D01*
X122650240Y-70819442D01*
X122857362Y-70884695D01*
X122921214Y-70907846D01*
X122932253Y-70916656D01*
X122932090Y-70925973D01*
X122902383Y-70941485D01*
X122824785Y-70968880D01*
X122680953Y-71013846D01*
X122452541Y-71082069D01*
X122121205Y-71179238D01*
X121668600Y-71311040D01*
X121076381Y-71483163D01*
X120904000Y-71533265D01*
X120167305Y-71749371D01*
X119573018Y-71929291D01*
X119100092Y-72081062D01*
X118727480Y-72212723D01*
X118434132Y-72332312D01*
X118199002Y-72447867D01*
X118001042Y-72567424D01*
X117819204Y-72699023D01*
X117788598Y-72722999D01*
X117586725Y-72903001D01*
X117404970Y-73116182D01*
X117234626Y-73381753D01*
X117066988Y-73718923D01*
X116893352Y-74146905D01*
X116705011Y-74684907D01*
X116493262Y-75352140D01*
X116289716Y-76030667D01*
X116128458Y-76576583D01*
X115981363Y-77072349D01*
X115855754Y-77493466D01*
X115758951Y-77815437D01*
X115698276Y-78013764D01*
X115682457Y-78062667D01*
X115645251Y-78028197D01*
X115570294Y-77854040D01*
X115465996Y-77563429D01*
X115340768Y-77179600D01*
X115222745Y-76792667D01*
X114958030Y-75908364D01*
X114729788Y-75171103D01*
X114530496Y-74564411D01*
X114352630Y-74071812D01*
X114188664Y-73676831D01*
X114031074Y-73362995D01*
X113872337Y-73113828D01*
X113704927Y-72912855D01*
X113521320Y-72743603D01*
X113313992Y-72589596D01*
X113298165Y-72578804D01*
X113141883Y-72476278D01*
X112986464Y-72385901D01*
X112811271Y-72300340D01*
X112595666Y-72212264D01*
X112319011Y-72114340D01*
X111960670Y-71999235D01*
X111500004Y-71859617D01*
X110916377Y-71688155D01*
X110239060Y-71491926D01*
X109700555Y-71335742D01*
X109219241Y-71194858D01*
X108818023Y-71076085D01*
X108519807Y-70986234D01*
X108347499Y-70932115D01*
X108314007Y-70919563D01*
X108382901Y-70890117D01*
X108588174Y-70823711D01*
X108903004Y-70728528D01*
X109300566Y-70612752D01*
X109580948Y-70533060D01*
X110509231Y-70267429D01*
X111288170Y-70034070D01*
X111933231Y-69826373D01*
X112459877Y-69637727D01*
X112883575Y-69461521D01*
X113219788Y-69291146D01*
X113483982Y-69119991D01*
X113691622Y-68941446D01*
X113858173Y-68748899D01*
X113903981Y-68685184D01*
X114035549Y-68481760D01*
X114156537Y-68261056D01*
X114275267Y-68000748D01*
X114400057Y-67678513D01*
X114539226Y-67272029D01*
X114701095Y-66758975D01*
X114893981Y-66117026D01*
X115016745Y-65699419D01*
X115203507Y-65060323D01*
X115348133Y-64566420D01*
X115456516Y-64200527D01*
X115534553Y-63945457D01*
X115588140Y-63784027D01*
X115623171Y-63699052D01*
X115645543Y-63673346D01*
X115661150Y-63689726D01*
G37*
D13*
%TO.C,U5*%
X159866000Y-78386000D02*
X185266000Y-78386000D01*
X185266000Y-78386000D02*
X185266000Y-108866000D01*
X185266000Y-108866000D02*
X159866000Y-108866000D01*
X159866000Y-108866000D02*
X159866000Y-78386000D01*
D14*
%TO.C,D7*%
X169800000Y-58555000D02*
X169800000Y-60825000D01*
X169800000Y-60825000D02*
X173685000Y-60825000D01*
X173685000Y-58555000D02*
X169800000Y-58555000D01*
%TO.C,F1*%
X159147600Y-71888600D02*
X159607600Y-71888600D01*
X159147600Y-71888600D02*
X159147600Y-61938600D01*
X163937600Y-71888600D02*
X164397600Y-71888600D01*
X164397600Y-71888600D02*
X164397600Y-61938600D01*
X159147600Y-61938600D02*
X159607600Y-61938600D01*
X164397600Y-61938600D02*
X163937600Y-61938600D01*
%TO.C,Q2*%
X104735000Y-93631000D02*
X104735000Y-98272000D01*
X104735000Y-93631000D02*
X114975000Y-93631000D01*
X104735000Y-95141000D02*
X114975000Y-95141000D01*
X104735000Y-98272000D02*
X114975000Y-98272000D01*
X108005000Y-93631000D02*
X108005000Y-95141000D01*
X111706000Y-93631000D02*
X111706000Y-95141000D01*
X114975000Y-93631000D02*
X114975000Y-98272000D01*
%TD*%
M02*
