%TF.GenerationSoftware,KiCad,Pcbnew,7.0.6*%
%TF.CreationDate,2024-04-15T18:34:20+10:00*%
%TF.ProjectId,Rocketry_Payload_Main_DDR_Spec_V2,526f636b-6574-4727-995f-5061796c6f61,rev?*%
%TF.SameCoordinates,Original*%
%TF.FileFunction,Legend,Bot*%
%TF.FilePolarity,Positive*%
%FSLAX46Y46*%
G04 Gerber Fmt 4.6, Leading zero omitted, Abs format (unit mm)*
G04 Created by KiCad (PCBNEW 7.0.6) date 2024-04-15 18:34:20*
%MOMM*%
%LPD*%
G01*
G04 APERTURE LIST*
%ADD10C,0.150000*%
%ADD11C,3.000000*%
%ADD12C,0.400000*%
%ADD13C,0.120000*%
G04 APERTURE END LIST*
D10*
X134047580Y-83811904D02*
X134047580Y-83240476D01*
X133047580Y-83526190D02*
X134047580Y-83526190D01*
X133047580Y-82907142D02*
X134047580Y-82907142D01*
X134047580Y-82907142D02*
X134047580Y-82526190D01*
X134047580Y-82526190D02*
X133999961Y-82430952D01*
X133999961Y-82430952D02*
X133952342Y-82383333D01*
X133952342Y-82383333D02*
X133857104Y-82335714D01*
X133857104Y-82335714D02*
X133714247Y-82335714D01*
X133714247Y-82335714D02*
X133619009Y-82383333D01*
X133619009Y-82383333D02*
X133571390Y-82430952D01*
X133571390Y-82430952D02*
X133523771Y-82526190D01*
X133523771Y-82526190D02*
X133523771Y-82907142D01*
X134047580Y-82002380D02*
X134047580Y-81383333D01*
X134047580Y-81383333D02*
X133666628Y-81716666D01*
X133666628Y-81716666D02*
X133666628Y-81573809D01*
X133666628Y-81573809D02*
X133619009Y-81478571D01*
X133619009Y-81478571D02*
X133571390Y-81430952D01*
X133571390Y-81430952D02*
X133476152Y-81383333D01*
X133476152Y-81383333D02*
X133238057Y-81383333D01*
X133238057Y-81383333D02*
X133142819Y-81430952D01*
X133142819Y-81430952D02*
X133095200Y-81478571D01*
X133095200Y-81478571D02*
X133047580Y-81573809D01*
X133047580Y-81573809D02*
X133047580Y-81859523D01*
X133047580Y-81859523D02*
X133095200Y-81954761D01*
X133095200Y-81954761D02*
X133142819Y-82002380D01*
X132501361Y-83311904D02*
X132548980Y-83407142D01*
X132548980Y-83407142D02*
X132548980Y-83549999D01*
X132548980Y-83549999D02*
X132501361Y-83692856D01*
X132501361Y-83692856D02*
X132406123Y-83788094D01*
X132406123Y-83788094D02*
X132310885Y-83835713D01*
X132310885Y-83835713D02*
X132120409Y-83883332D01*
X132120409Y-83883332D02*
X131977552Y-83883332D01*
X131977552Y-83883332D02*
X131787076Y-83835713D01*
X131787076Y-83835713D02*
X131691838Y-83788094D01*
X131691838Y-83788094D02*
X131596600Y-83692856D01*
X131596600Y-83692856D02*
X131548980Y-83549999D01*
X131548980Y-83549999D02*
X131548980Y-83454761D01*
X131548980Y-83454761D02*
X131596600Y-83311904D01*
X131596600Y-83311904D02*
X131644219Y-83264285D01*
X131644219Y-83264285D02*
X131977552Y-83264285D01*
X131977552Y-83264285D02*
X131977552Y-83454761D01*
X131548980Y-82835713D02*
X132548980Y-82835713D01*
X132548980Y-82835713D02*
X131548980Y-82264285D01*
X131548980Y-82264285D02*
X132548980Y-82264285D01*
X131548980Y-81788094D02*
X132548980Y-81788094D01*
X132548980Y-81788094D02*
X132548980Y-81549999D01*
X132548980Y-81549999D02*
X132501361Y-81407142D01*
X132501361Y-81407142D02*
X132406123Y-81311904D01*
X132406123Y-81311904D02*
X132310885Y-81264285D01*
X132310885Y-81264285D02*
X132120409Y-81216666D01*
X132120409Y-81216666D02*
X131977552Y-81216666D01*
X131977552Y-81216666D02*
X131787076Y-81264285D01*
X131787076Y-81264285D02*
X131691838Y-81311904D01*
X131691838Y-81311904D02*
X131596600Y-81407142D01*
X131596600Y-81407142D02*
X131548980Y-81549999D01*
X131548980Y-81549999D02*
X131548980Y-81788094D01*
X178000000Y-59000000D02*
X180000000Y-59000000D01*
X179000000Y-60000000D02*
X179000000Y-58000000D01*
X173981904Y-66510819D02*
X173410476Y-66510819D01*
X173696190Y-67510819D02*
X173696190Y-66510819D01*
X173077142Y-67510819D02*
X173077142Y-66510819D01*
X173077142Y-66510819D02*
X172696190Y-66510819D01*
X172696190Y-66510819D02*
X172600952Y-66558438D01*
X172600952Y-66558438D02*
X172553333Y-66606057D01*
X172553333Y-66606057D02*
X172505714Y-66701295D01*
X172505714Y-66701295D02*
X172505714Y-66844152D01*
X172505714Y-66844152D02*
X172553333Y-66939390D01*
X172553333Y-66939390D02*
X172600952Y-66987009D01*
X172600952Y-66987009D02*
X172696190Y-67034628D01*
X172696190Y-67034628D02*
X173077142Y-67034628D01*
X172172380Y-66510819D02*
X171553333Y-66510819D01*
X171553333Y-66510819D02*
X171886666Y-66891771D01*
X171886666Y-66891771D02*
X171743809Y-66891771D01*
X171743809Y-66891771D02*
X171648571Y-66939390D01*
X171648571Y-66939390D02*
X171600952Y-66987009D01*
X171600952Y-66987009D02*
X171553333Y-67082247D01*
X171553333Y-67082247D02*
X171553333Y-67320342D01*
X171553333Y-67320342D02*
X171600952Y-67415580D01*
X171600952Y-67415580D02*
X171648571Y-67463200D01*
X171648571Y-67463200D02*
X171743809Y-67510819D01*
X171743809Y-67510819D02*
X172029523Y-67510819D01*
X172029523Y-67510819D02*
X172124761Y-67463200D01*
X172124761Y-67463200D02*
X172172380Y-67415580D01*
X173481904Y-71638438D02*
X173577142Y-71590819D01*
X173577142Y-71590819D02*
X173719999Y-71590819D01*
X173719999Y-71590819D02*
X173862856Y-71638438D01*
X173862856Y-71638438D02*
X173958094Y-71733676D01*
X173958094Y-71733676D02*
X174005713Y-71828914D01*
X174005713Y-71828914D02*
X174053332Y-72019390D01*
X174053332Y-72019390D02*
X174053332Y-72162247D01*
X174053332Y-72162247D02*
X174005713Y-72352723D01*
X174005713Y-72352723D02*
X173958094Y-72447961D01*
X173958094Y-72447961D02*
X173862856Y-72543200D01*
X173862856Y-72543200D02*
X173719999Y-72590819D01*
X173719999Y-72590819D02*
X173624761Y-72590819D01*
X173624761Y-72590819D02*
X173481904Y-72543200D01*
X173481904Y-72543200D02*
X173434285Y-72495580D01*
X173434285Y-72495580D02*
X173434285Y-72162247D01*
X173434285Y-72162247D02*
X173624761Y-72162247D01*
X173005713Y-72590819D02*
X173005713Y-71590819D01*
X173005713Y-71590819D02*
X172434285Y-72590819D01*
X172434285Y-72590819D02*
X172434285Y-71590819D01*
X171958094Y-72590819D02*
X171958094Y-71590819D01*
X171958094Y-71590819D02*
X171719999Y-71590819D01*
X171719999Y-71590819D02*
X171577142Y-71638438D01*
X171577142Y-71638438D02*
X171481904Y-71733676D01*
X171481904Y-71733676D02*
X171434285Y-71828914D01*
X171434285Y-71828914D02*
X171386666Y-72019390D01*
X171386666Y-72019390D02*
X171386666Y-72162247D01*
X171386666Y-72162247D02*
X171434285Y-72352723D01*
X171434285Y-72352723D02*
X171481904Y-72447961D01*
X171481904Y-72447961D02*
X171577142Y-72543200D01*
X171577142Y-72543200D02*
X171719999Y-72590819D01*
X171719999Y-72590819D02*
X171958094Y-72590819D01*
X168393904Y-66510819D02*
X167822476Y-66510819D01*
X168108190Y-67510819D02*
X168108190Y-66510819D01*
X167489142Y-67510819D02*
X167489142Y-66510819D01*
X167489142Y-66510819D02*
X167108190Y-66510819D01*
X167108190Y-66510819D02*
X167012952Y-66558438D01*
X167012952Y-66558438D02*
X166965333Y-66606057D01*
X166965333Y-66606057D02*
X166917714Y-66701295D01*
X166917714Y-66701295D02*
X166917714Y-66844152D01*
X166917714Y-66844152D02*
X166965333Y-66939390D01*
X166965333Y-66939390D02*
X167012952Y-66987009D01*
X167012952Y-66987009D02*
X167108190Y-67034628D01*
X167108190Y-67034628D02*
X167489142Y-67034628D01*
X166060571Y-66844152D02*
X166060571Y-67510819D01*
X166298666Y-66463200D02*
X166536761Y-67177485D01*
X166536761Y-67177485D02*
X165917714Y-67177485D01*
X169632000Y-72590819D02*
X170203428Y-72590819D01*
X169917714Y-72590819D02*
X169917714Y-71590819D01*
X169917714Y-71590819D02*
X170012952Y-71733676D01*
X170012952Y-71733676D02*
X170108190Y-71828914D01*
X170108190Y-71828914D02*
X170203428Y-71876533D01*
X169251047Y-71686057D02*
X169203428Y-71638438D01*
X169203428Y-71638438D02*
X169108190Y-71590819D01*
X169108190Y-71590819D02*
X168870095Y-71590819D01*
X168870095Y-71590819D02*
X168774857Y-71638438D01*
X168774857Y-71638438D02*
X168727238Y-71686057D01*
X168727238Y-71686057D02*
X168679619Y-71781295D01*
X168679619Y-71781295D02*
X168679619Y-71876533D01*
X168679619Y-71876533D02*
X168727238Y-72019390D01*
X168727238Y-72019390D02*
X169298666Y-72590819D01*
X169298666Y-72590819D02*
X168679619Y-72590819D01*
X168393904Y-71590819D02*
X168060571Y-72590819D01*
X168060571Y-72590819D02*
X167727238Y-71590819D01*
X167632000Y-72686057D02*
X166870095Y-72686057D01*
X166060571Y-72590819D02*
X166393904Y-72114628D01*
X166631999Y-72590819D02*
X166631999Y-71590819D01*
X166631999Y-71590819D02*
X166251047Y-71590819D01*
X166251047Y-71590819D02*
X166155809Y-71638438D01*
X166155809Y-71638438D02*
X166108190Y-71686057D01*
X166108190Y-71686057D02*
X166060571Y-71781295D01*
X166060571Y-71781295D02*
X166060571Y-71924152D01*
X166060571Y-71924152D02*
X166108190Y-72019390D01*
X166108190Y-72019390D02*
X166155809Y-72067009D01*
X166155809Y-72067009D02*
X166251047Y-72114628D01*
X166251047Y-72114628D02*
X166631999Y-72114628D01*
X165679618Y-72305104D02*
X165203428Y-72305104D01*
X165774856Y-72590819D02*
X165441523Y-71590819D01*
X165441523Y-71590819D02*
X165108190Y-72590819D01*
X164870094Y-71590819D02*
X164631999Y-72590819D01*
X164631999Y-72590819D02*
X164441523Y-71876533D01*
X164441523Y-71876533D02*
X164251047Y-72590819D01*
X164251047Y-72590819D02*
X164012952Y-71590819D01*
X138620476Y-55334819D02*
X139096666Y-55334819D01*
X139096666Y-55334819D02*
X139144285Y-55811009D01*
X139144285Y-55811009D02*
X139096666Y-55763390D01*
X139096666Y-55763390D02*
X139001428Y-55715771D01*
X139001428Y-55715771D02*
X138763333Y-55715771D01*
X138763333Y-55715771D02*
X138668095Y-55763390D01*
X138668095Y-55763390D02*
X138620476Y-55811009D01*
X138620476Y-55811009D02*
X138572857Y-55906247D01*
X138572857Y-55906247D02*
X138572857Y-56144342D01*
X138572857Y-56144342D02*
X138620476Y-56239580D01*
X138620476Y-56239580D02*
X138668095Y-56287200D01*
X138668095Y-56287200D02*
X138763333Y-56334819D01*
X138763333Y-56334819D02*
X139001428Y-56334819D01*
X139001428Y-56334819D02*
X139096666Y-56287200D01*
X139096666Y-56287200D02*
X139144285Y-56239580D01*
X138287142Y-55334819D02*
X137953809Y-56334819D01*
X137953809Y-56334819D02*
X137620476Y-55334819D01*
X142739904Y-53048819D02*
X142168476Y-53048819D01*
X142454190Y-54048819D02*
X142454190Y-53048819D01*
X141835142Y-54048819D02*
X141835142Y-53048819D01*
X141835142Y-53048819D02*
X141454190Y-53048819D01*
X141454190Y-53048819D02*
X141358952Y-53096438D01*
X141358952Y-53096438D02*
X141311333Y-53144057D01*
X141311333Y-53144057D02*
X141263714Y-53239295D01*
X141263714Y-53239295D02*
X141263714Y-53382152D01*
X141263714Y-53382152D02*
X141311333Y-53477390D01*
X141311333Y-53477390D02*
X141358952Y-53525009D01*
X141358952Y-53525009D02*
X141454190Y-53572628D01*
X141454190Y-53572628D02*
X141835142Y-53572628D01*
X140406571Y-53048819D02*
X140597047Y-53048819D01*
X140597047Y-53048819D02*
X140692285Y-53096438D01*
X140692285Y-53096438D02*
X140739904Y-53144057D01*
X140739904Y-53144057D02*
X140835142Y-53286914D01*
X140835142Y-53286914D02*
X140882761Y-53477390D01*
X140882761Y-53477390D02*
X140882761Y-53858342D01*
X140882761Y-53858342D02*
X140835142Y-53953580D01*
X140835142Y-53953580D02*
X140787523Y-54001200D01*
X140787523Y-54001200D02*
X140692285Y-54048819D01*
X140692285Y-54048819D02*
X140501809Y-54048819D01*
X140501809Y-54048819D02*
X140406571Y-54001200D01*
X140406571Y-54001200D02*
X140358952Y-53953580D01*
X140358952Y-53953580D02*
X140311333Y-53858342D01*
X140311333Y-53858342D02*
X140311333Y-53620247D01*
X140311333Y-53620247D02*
X140358952Y-53525009D01*
X140358952Y-53525009D02*
X140406571Y-53477390D01*
X140406571Y-53477390D02*
X140501809Y-53429771D01*
X140501809Y-53429771D02*
X140692285Y-53429771D01*
X140692285Y-53429771D02*
X140787523Y-53477390D01*
X140787523Y-53477390D02*
X140835142Y-53525009D01*
X140835142Y-53525009D02*
X140882761Y-53620247D01*
X176250600Y-62382400D02*
X181889400Y-62382400D01*
X181889400Y-72212200D01*
X176250600Y-72212200D01*
X176250600Y-62382400D01*
D11*
X190714409Y-92986897D02*
G75*
G03*
X190714409Y-92986897I-42500000J0D01*
G01*
D10*
X177241200Y-60960000D02*
X180898800Y-60960000D01*
X180898800Y-62382400D01*
X177241200Y-62382400D01*
X177241200Y-60960000D01*
X156210000Y-73660000D02*
X158750000Y-73660000D01*
X158750000Y-78740000D01*
X156210000Y-78740000D01*
X156210000Y-73660000D01*
X175191009Y-62675047D02*
X175238628Y-62817904D01*
X175238628Y-62817904D02*
X175286247Y-62865523D01*
X175286247Y-62865523D02*
X175381485Y-62913142D01*
X175381485Y-62913142D02*
X175524342Y-62913142D01*
X175524342Y-62913142D02*
X175619580Y-62865523D01*
X175619580Y-62865523D02*
X175667200Y-62817904D01*
X175667200Y-62817904D02*
X175714819Y-62722666D01*
X175714819Y-62722666D02*
X175714819Y-62341714D01*
X175714819Y-62341714D02*
X174714819Y-62341714D01*
X174714819Y-62341714D02*
X174714819Y-62675047D01*
X174714819Y-62675047D02*
X174762438Y-62770285D01*
X174762438Y-62770285D02*
X174810057Y-62817904D01*
X174810057Y-62817904D02*
X174905295Y-62865523D01*
X174905295Y-62865523D02*
X175000533Y-62865523D01*
X175000533Y-62865523D02*
X175095771Y-62817904D01*
X175095771Y-62817904D02*
X175143390Y-62770285D01*
X175143390Y-62770285D02*
X175191009Y-62675047D01*
X175191009Y-62675047D02*
X175191009Y-62341714D01*
X175429104Y-63294095D02*
X175429104Y-63770285D01*
X175714819Y-63198857D02*
X174714819Y-63532190D01*
X174714819Y-63532190D02*
X175714819Y-63865523D01*
X174714819Y-64056000D02*
X174714819Y-64627428D01*
X175714819Y-64341714D02*
X174714819Y-64341714D01*
X174714819Y-64817905D02*
X174714819Y-65389333D01*
X175714819Y-65103619D02*
X174714819Y-65103619D01*
X175191009Y-65722667D02*
X175191009Y-66056000D01*
X175714819Y-66198857D02*
X175714819Y-65722667D01*
X175714819Y-65722667D02*
X174714819Y-65722667D01*
X174714819Y-65722667D02*
X174714819Y-66198857D01*
X175714819Y-67198857D02*
X175238628Y-66865524D01*
X175714819Y-66627429D02*
X174714819Y-66627429D01*
X174714819Y-66627429D02*
X174714819Y-67008381D01*
X174714819Y-67008381D02*
X174762438Y-67103619D01*
X174762438Y-67103619D02*
X174810057Y-67151238D01*
X174810057Y-67151238D02*
X174905295Y-67198857D01*
X174905295Y-67198857D02*
X175048152Y-67198857D01*
X175048152Y-67198857D02*
X175143390Y-67151238D01*
X175143390Y-67151238D02*
X175191009Y-67103619D01*
X175191009Y-67103619D02*
X175238628Y-67008381D01*
X175238628Y-67008381D02*
X175238628Y-66627429D01*
X175714819Y-67627429D02*
X174714819Y-67627429D01*
X175191009Y-68103619D02*
X175191009Y-68436952D01*
X175714819Y-68579809D02*
X175714819Y-68103619D01*
X175714819Y-68103619D02*
X174714819Y-68103619D01*
X174714819Y-68103619D02*
X174714819Y-68579809D01*
X175667200Y-68960762D02*
X175714819Y-69103619D01*
X175714819Y-69103619D02*
X175714819Y-69341714D01*
X175714819Y-69341714D02*
X175667200Y-69436952D01*
X175667200Y-69436952D02*
X175619580Y-69484571D01*
X175619580Y-69484571D02*
X175524342Y-69532190D01*
X175524342Y-69532190D02*
X175429104Y-69532190D01*
X175429104Y-69532190D02*
X175333866Y-69484571D01*
X175333866Y-69484571D02*
X175286247Y-69436952D01*
X175286247Y-69436952D02*
X175238628Y-69341714D01*
X175238628Y-69341714D02*
X175191009Y-69151238D01*
X175191009Y-69151238D02*
X175143390Y-69056000D01*
X175143390Y-69056000D02*
X175095771Y-69008381D01*
X175095771Y-69008381D02*
X175000533Y-68960762D01*
X175000533Y-68960762D02*
X174905295Y-68960762D01*
X174905295Y-68960762D02*
X174810057Y-69008381D01*
X174810057Y-69008381D02*
X174762438Y-69056000D01*
X174762438Y-69056000D02*
X174714819Y-69151238D01*
X174714819Y-69151238D02*
X174714819Y-69389333D01*
X174714819Y-69389333D02*
X174762438Y-69532190D01*
X175714819Y-70722667D02*
X174714819Y-70722667D01*
X175714819Y-71198857D02*
X174714819Y-71198857D01*
X174714819Y-71198857D02*
X175714819Y-71770285D01*
X175714819Y-71770285D02*
X174714819Y-71770285D01*
X154902819Y-74604762D02*
X154902819Y-75176190D01*
X155902819Y-74890476D02*
X154902819Y-74890476D01*
X155379009Y-75509524D02*
X155379009Y-75842857D01*
X155902819Y-75985714D02*
X155902819Y-75509524D01*
X155902819Y-75509524D02*
X154902819Y-75509524D01*
X154902819Y-75509524D02*
X154902819Y-75985714D01*
X155855200Y-76366667D02*
X155902819Y-76509524D01*
X155902819Y-76509524D02*
X155902819Y-76747619D01*
X155902819Y-76747619D02*
X155855200Y-76842857D01*
X155855200Y-76842857D02*
X155807580Y-76890476D01*
X155807580Y-76890476D02*
X155712342Y-76938095D01*
X155712342Y-76938095D02*
X155617104Y-76938095D01*
X155617104Y-76938095D02*
X155521866Y-76890476D01*
X155521866Y-76890476D02*
X155474247Y-76842857D01*
X155474247Y-76842857D02*
X155426628Y-76747619D01*
X155426628Y-76747619D02*
X155379009Y-76557143D01*
X155379009Y-76557143D02*
X155331390Y-76461905D01*
X155331390Y-76461905D02*
X155283771Y-76414286D01*
X155283771Y-76414286D02*
X155188533Y-76366667D01*
X155188533Y-76366667D02*
X155093295Y-76366667D01*
X155093295Y-76366667D02*
X154998057Y-76414286D01*
X154998057Y-76414286D02*
X154950438Y-76461905D01*
X154950438Y-76461905D02*
X154902819Y-76557143D01*
X154902819Y-76557143D02*
X154902819Y-76795238D01*
X154902819Y-76795238D02*
X154950438Y-76938095D01*
X154902819Y-77223810D02*
X154902819Y-77795238D01*
X155902819Y-77509524D02*
X154902819Y-77509524D01*
X113663561Y-103819268D02*
X114615942Y-104485935D01*
X113663561Y-104962125D02*
X115663561Y-104962125D01*
X115663561Y-104962125D02*
X115663561Y-104200220D01*
X115663561Y-104200220D02*
X115568323Y-104009744D01*
X115568323Y-104009744D02*
X115473085Y-103914506D01*
X115473085Y-103914506D02*
X115282609Y-103819268D01*
X115282609Y-103819268D02*
X114996895Y-103819268D01*
X114996895Y-103819268D02*
X114806419Y-103914506D01*
X114806419Y-103914506D02*
X114711180Y-104009744D01*
X114711180Y-104009744D02*
X114615942Y-104200220D01*
X114615942Y-104200220D02*
X114615942Y-104962125D01*
X114711180Y-102962125D02*
X114711180Y-102295458D01*
X113663561Y-102009744D02*
X113663561Y-102962125D01*
X113663561Y-102962125D02*
X115663561Y-102962125D01*
X115663561Y-102962125D02*
X115663561Y-102009744D01*
X115663561Y-101438315D02*
X113663561Y-100771649D01*
X113663561Y-100771649D02*
X115663561Y-100104982D01*
X114996895Y-97057362D02*
X113663561Y-97057362D01*
X115758800Y-97533553D02*
X114330228Y-98009743D01*
X114330228Y-98009743D02*
X114330228Y-96771648D01*
X114425466Y-94485933D02*
X114425466Y-92962124D01*
X114234990Y-90581171D02*
X114234990Y-89628790D01*
X113663561Y-90771647D02*
X115663561Y-90104981D01*
X115663561Y-90104981D02*
X113663561Y-89438314D01*
X113663561Y-88771647D02*
X115663561Y-88771647D01*
X115663561Y-88771647D02*
X115663561Y-88009742D01*
X115663561Y-88009742D02*
X115568323Y-87819266D01*
X115568323Y-87819266D02*
X115473085Y-87724028D01*
X115473085Y-87724028D02*
X115282609Y-87628790D01*
X115282609Y-87628790D02*
X114996895Y-87628790D01*
X114996895Y-87628790D02*
X114806419Y-87724028D01*
X114806419Y-87724028D02*
X114711180Y-87819266D01*
X114711180Y-87819266D02*
X114615942Y-88009742D01*
X114615942Y-88009742D02*
X114615942Y-88771647D01*
X113663561Y-85628790D02*
X114615942Y-86295457D01*
X113663561Y-86771647D02*
X115663561Y-86771647D01*
X115663561Y-86771647D02*
X115663561Y-86009742D01*
X115663561Y-86009742D02*
X115568323Y-85819266D01*
X115568323Y-85819266D02*
X115473085Y-85724028D01*
X115473085Y-85724028D02*
X115282609Y-85628790D01*
X115282609Y-85628790D02*
X114996895Y-85628790D01*
X114996895Y-85628790D02*
X114806419Y-85724028D01*
X114806419Y-85724028D02*
X114711180Y-85819266D01*
X114711180Y-85819266D02*
X114615942Y-86009742D01*
X114615942Y-86009742D02*
X114615942Y-86771647D01*
X113663561Y-84771647D02*
X115663561Y-84771647D01*
X113663561Y-82866885D02*
X113663561Y-83819266D01*
X113663561Y-83819266D02*
X115663561Y-83819266D01*
X115473085Y-80771646D02*
X115568323Y-80676408D01*
X115568323Y-80676408D02*
X115663561Y-80485932D01*
X115663561Y-80485932D02*
X115663561Y-80009741D01*
X115663561Y-80009741D02*
X115568323Y-79819265D01*
X115568323Y-79819265D02*
X115473085Y-79724027D01*
X115473085Y-79724027D02*
X115282609Y-79628789D01*
X115282609Y-79628789D02*
X115092133Y-79628789D01*
X115092133Y-79628789D02*
X114806419Y-79724027D01*
X114806419Y-79724027D02*
X113663561Y-80866884D01*
X113663561Y-80866884D02*
X113663561Y-79628789D01*
X115663561Y-78390694D02*
X115663561Y-78200217D01*
X115663561Y-78200217D02*
X115568323Y-78009741D01*
X115568323Y-78009741D02*
X115473085Y-77914503D01*
X115473085Y-77914503D02*
X115282609Y-77819265D01*
X115282609Y-77819265D02*
X114901657Y-77724027D01*
X114901657Y-77724027D02*
X114425466Y-77724027D01*
X114425466Y-77724027D02*
X114044514Y-77819265D01*
X114044514Y-77819265D02*
X113854038Y-77914503D01*
X113854038Y-77914503D02*
X113758800Y-78009741D01*
X113758800Y-78009741D02*
X113663561Y-78200217D01*
X113663561Y-78200217D02*
X113663561Y-78390694D01*
X113663561Y-78390694D02*
X113758800Y-78581170D01*
X113758800Y-78581170D02*
X113854038Y-78676408D01*
X113854038Y-78676408D02*
X114044514Y-78771646D01*
X114044514Y-78771646D02*
X114425466Y-78866884D01*
X114425466Y-78866884D02*
X114901657Y-78866884D01*
X114901657Y-78866884D02*
X115282609Y-78771646D01*
X115282609Y-78771646D02*
X115473085Y-78676408D01*
X115473085Y-78676408D02*
X115568323Y-78581170D01*
X115568323Y-78581170D02*
X115663561Y-78390694D01*
X115473085Y-76962122D02*
X115568323Y-76866884D01*
X115568323Y-76866884D02*
X115663561Y-76676408D01*
X115663561Y-76676408D02*
X115663561Y-76200217D01*
X115663561Y-76200217D02*
X115568323Y-76009741D01*
X115568323Y-76009741D02*
X115473085Y-75914503D01*
X115473085Y-75914503D02*
X115282609Y-75819265D01*
X115282609Y-75819265D02*
X115092133Y-75819265D01*
X115092133Y-75819265D02*
X114806419Y-75914503D01*
X114806419Y-75914503D02*
X113663561Y-77057360D01*
X113663561Y-77057360D02*
X113663561Y-75819265D01*
X114996895Y-74104979D02*
X113663561Y-74104979D01*
X115758800Y-74581170D02*
X114330228Y-75057360D01*
X114330228Y-75057360D02*
X114330228Y-73819265D01*
X118147514Y-96737791D02*
X118052276Y-96452077D01*
X118052276Y-96452077D02*
X117957038Y-96356839D01*
X117957038Y-96356839D02*
X117766562Y-96261601D01*
X117766562Y-96261601D02*
X117480848Y-96261601D01*
X117480848Y-96261601D02*
X117290372Y-96356839D01*
X117290372Y-96356839D02*
X117195134Y-96452077D01*
X117195134Y-96452077D02*
X117099895Y-96642553D01*
X117099895Y-96642553D02*
X117099895Y-97404458D01*
X117099895Y-97404458D02*
X119099895Y-97404458D01*
X119099895Y-97404458D02*
X119099895Y-96737791D01*
X119099895Y-96737791D02*
X119004657Y-96547315D01*
X119004657Y-96547315D02*
X118909419Y-96452077D01*
X118909419Y-96452077D02*
X118718943Y-96356839D01*
X118718943Y-96356839D02*
X118528467Y-96356839D01*
X118528467Y-96356839D02*
X118337991Y-96452077D01*
X118337991Y-96452077D02*
X118242753Y-96547315D01*
X118242753Y-96547315D02*
X118147514Y-96737791D01*
X118147514Y-96737791D02*
X118147514Y-97404458D01*
X118052276Y-95023506D02*
X117099895Y-95023506D01*
X119099895Y-95690172D02*
X118052276Y-95023506D01*
X118052276Y-95023506D02*
X119099895Y-94356839D01*
X117290372Y-93690172D02*
X117195134Y-93594934D01*
X117195134Y-93594934D02*
X117099895Y-93690172D01*
X117099895Y-93690172D02*
X117195134Y-93785410D01*
X117195134Y-93785410D02*
X117290372Y-93690172D01*
X117290372Y-93690172D02*
X117099895Y-93690172D01*
X118337991Y-93690172D02*
X118242753Y-93594934D01*
X118242753Y-93594934D02*
X118147514Y-93690172D01*
X118147514Y-93690172D02*
X118242753Y-93785410D01*
X118242753Y-93785410D02*
X118337991Y-93690172D01*
X118337991Y-93690172D02*
X118147514Y-93690172D01*
X119099895Y-90642552D02*
X117671324Y-90642552D01*
X117671324Y-90642552D02*
X117385610Y-90737791D01*
X117385610Y-90737791D02*
X117195134Y-90928267D01*
X117195134Y-90928267D02*
X117099895Y-91213981D01*
X117099895Y-91213981D02*
X117099895Y-91404457D01*
X117671324Y-89785409D02*
X117671324Y-88833028D01*
X117099895Y-89975885D02*
X119099895Y-89309219D01*
X119099895Y-89309219D02*
X117099895Y-88642552D01*
X117290372Y-86833028D02*
X117195134Y-86928266D01*
X117195134Y-86928266D02*
X117099895Y-87213980D01*
X117099895Y-87213980D02*
X117099895Y-87404456D01*
X117099895Y-87404456D02*
X117195134Y-87690171D01*
X117195134Y-87690171D02*
X117385610Y-87880647D01*
X117385610Y-87880647D02*
X117576086Y-87975885D01*
X117576086Y-87975885D02*
X117957038Y-88071123D01*
X117957038Y-88071123D02*
X118242753Y-88071123D01*
X118242753Y-88071123D02*
X118623705Y-87975885D01*
X118623705Y-87975885D02*
X118814181Y-87880647D01*
X118814181Y-87880647D02*
X119004657Y-87690171D01*
X119004657Y-87690171D02*
X119099895Y-87404456D01*
X119099895Y-87404456D02*
X119099895Y-87213980D01*
X119099895Y-87213980D02*
X119004657Y-86928266D01*
X119004657Y-86928266D02*
X118909419Y-86833028D01*
X117099895Y-85975885D02*
X119099895Y-85975885D01*
X117099895Y-84833028D02*
X118242753Y-85690171D01*
X119099895Y-84833028D02*
X117957038Y-85975885D01*
X118147514Y-81785408D02*
X118147514Y-82452075D01*
X117099895Y-82452075D02*
X119099895Y-82452075D01*
X119099895Y-82452075D02*
X119099895Y-81499694D01*
X117671324Y-80833027D02*
X117671324Y-79880646D01*
X117099895Y-81023503D02*
X119099895Y-80356837D01*
X119099895Y-80356837D02*
X117099895Y-79690170D01*
X117099895Y-79023503D02*
X119099895Y-79023503D01*
X118147514Y-79023503D02*
X118147514Y-77880646D01*
X117099895Y-77880646D02*
X119099895Y-77880646D01*
X118147514Y-76928265D02*
X118147514Y-76261598D01*
X117099895Y-75975884D02*
X117099895Y-76928265D01*
X117099895Y-76928265D02*
X119099895Y-76928265D01*
X119099895Y-76928265D02*
X119099895Y-75975884D01*
X118052276Y-74737789D02*
X117099895Y-74737789D01*
X119099895Y-75404455D02*
X118052276Y-74737789D01*
X118052276Y-74737789D02*
X119099895Y-74071122D01*
D12*
X124055561Y-96937444D02*
X126055561Y-96937444D01*
X126055561Y-96937444D02*
X126055561Y-96175539D01*
X126055561Y-96175539D02*
X125960323Y-95985063D01*
X125960323Y-95985063D02*
X125865085Y-95889825D01*
X125865085Y-95889825D02*
X125674609Y-95794587D01*
X125674609Y-95794587D02*
X125388895Y-95794587D01*
X125388895Y-95794587D02*
X125198419Y-95889825D01*
X125198419Y-95889825D02*
X125103180Y-95985063D01*
X125103180Y-95985063D02*
X125007942Y-96175539D01*
X125007942Y-96175539D02*
X125007942Y-96937444D01*
X124626990Y-95032682D02*
X124626990Y-94080301D01*
X124055561Y-95223158D02*
X126055561Y-94556492D01*
X126055561Y-94556492D02*
X124055561Y-93889825D01*
X125007942Y-92842206D02*
X124055561Y-92842206D01*
X126055561Y-93508872D02*
X125007942Y-92842206D01*
X125007942Y-92842206D02*
X126055561Y-92175539D01*
X124055561Y-90556491D02*
X124055561Y-91508872D01*
X124055561Y-91508872D02*
X126055561Y-91508872D01*
X126055561Y-89508872D02*
X126055561Y-89127919D01*
X126055561Y-89127919D02*
X125960323Y-88937443D01*
X125960323Y-88937443D02*
X125769847Y-88746967D01*
X125769847Y-88746967D02*
X125388895Y-88651729D01*
X125388895Y-88651729D02*
X124722228Y-88651729D01*
X124722228Y-88651729D02*
X124341276Y-88746967D01*
X124341276Y-88746967D02*
X124150800Y-88937443D01*
X124150800Y-88937443D02*
X124055561Y-89127919D01*
X124055561Y-89127919D02*
X124055561Y-89508872D01*
X124055561Y-89508872D02*
X124150800Y-89699348D01*
X124150800Y-89699348D02*
X124341276Y-89889824D01*
X124341276Y-89889824D02*
X124722228Y-89985062D01*
X124722228Y-89985062D02*
X125388895Y-89985062D01*
X125388895Y-89985062D02*
X125769847Y-89889824D01*
X125769847Y-89889824D02*
X125960323Y-89699348D01*
X125960323Y-89699348D02*
X126055561Y-89508872D01*
X124626990Y-87889824D02*
X124626990Y-86937443D01*
X124055561Y-88080300D02*
X126055561Y-87413634D01*
X126055561Y-87413634D02*
X124055561Y-86746967D01*
X124055561Y-86080300D02*
X126055561Y-86080300D01*
X126055561Y-86080300D02*
X126055561Y-85604110D01*
X126055561Y-85604110D02*
X125960323Y-85318395D01*
X125960323Y-85318395D02*
X125769847Y-85127919D01*
X125769847Y-85127919D02*
X125579371Y-85032681D01*
X125579371Y-85032681D02*
X125198419Y-84937443D01*
X125198419Y-84937443D02*
X124912704Y-84937443D01*
X124912704Y-84937443D02*
X124531752Y-85032681D01*
X124531752Y-85032681D02*
X124341276Y-85127919D01*
X124341276Y-85127919D02*
X124150800Y-85318395D01*
X124150800Y-85318395D02*
X124055561Y-85604110D01*
X124055561Y-85604110D02*
X124055561Y-86080300D01*
X125103180Y-81889823D02*
X125007942Y-81604109D01*
X125007942Y-81604109D02*
X124912704Y-81508871D01*
X124912704Y-81508871D02*
X124722228Y-81413633D01*
X124722228Y-81413633D02*
X124436514Y-81413633D01*
X124436514Y-81413633D02*
X124246038Y-81508871D01*
X124246038Y-81508871D02*
X124150800Y-81604109D01*
X124150800Y-81604109D02*
X124055561Y-81794585D01*
X124055561Y-81794585D02*
X124055561Y-82556490D01*
X124055561Y-82556490D02*
X126055561Y-82556490D01*
X126055561Y-82556490D02*
X126055561Y-81889823D01*
X126055561Y-81889823D02*
X125960323Y-81699347D01*
X125960323Y-81699347D02*
X125865085Y-81604109D01*
X125865085Y-81604109D02*
X125674609Y-81508871D01*
X125674609Y-81508871D02*
X125484133Y-81508871D01*
X125484133Y-81508871D02*
X125293657Y-81604109D01*
X125293657Y-81604109D02*
X125198419Y-81699347D01*
X125198419Y-81699347D02*
X125103180Y-81889823D01*
X125103180Y-81889823D02*
X125103180Y-82556490D01*
X126055561Y-80175538D02*
X126055561Y-79794585D01*
X126055561Y-79794585D02*
X125960323Y-79604109D01*
X125960323Y-79604109D02*
X125769847Y-79413633D01*
X125769847Y-79413633D02*
X125388895Y-79318395D01*
X125388895Y-79318395D02*
X124722228Y-79318395D01*
X124722228Y-79318395D02*
X124341276Y-79413633D01*
X124341276Y-79413633D02*
X124150800Y-79604109D01*
X124150800Y-79604109D02*
X124055561Y-79794585D01*
X124055561Y-79794585D02*
X124055561Y-80175538D01*
X124055561Y-80175538D02*
X124150800Y-80366014D01*
X124150800Y-80366014D02*
X124341276Y-80556490D01*
X124341276Y-80556490D02*
X124722228Y-80651728D01*
X124722228Y-80651728D02*
X125388895Y-80651728D01*
X125388895Y-80651728D02*
X125769847Y-80556490D01*
X125769847Y-80556490D02*
X125960323Y-80366014D01*
X125960323Y-80366014D02*
X126055561Y-80175538D01*
X124626990Y-78556490D02*
X124626990Y-77604109D01*
X124055561Y-78746966D02*
X126055561Y-78080300D01*
X126055561Y-78080300D02*
X124055561Y-77413633D01*
X124055561Y-75604109D02*
X125007942Y-76270776D01*
X124055561Y-76746966D02*
X126055561Y-76746966D01*
X126055561Y-76746966D02*
X126055561Y-75985061D01*
X126055561Y-75985061D02*
X125960323Y-75794585D01*
X125960323Y-75794585D02*
X125865085Y-75699347D01*
X125865085Y-75699347D02*
X125674609Y-75604109D01*
X125674609Y-75604109D02*
X125388895Y-75604109D01*
X125388895Y-75604109D02*
X125198419Y-75699347D01*
X125198419Y-75699347D02*
X125103180Y-75794585D01*
X125103180Y-75794585D02*
X125007942Y-75985061D01*
X125007942Y-75985061D02*
X125007942Y-76746966D01*
X124055561Y-74746966D02*
X126055561Y-74746966D01*
X126055561Y-74746966D02*
X126055561Y-74270776D01*
X126055561Y-74270776D02*
X125960323Y-73985061D01*
X125960323Y-73985061D02*
X125769847Y-73794585D01*
X125769847Y-73794585D02*
X125579371Y-73699347D01*
X125579371Y-73699347D02*
X125198419Y-73604109D01*
X125198419Y-73604109D02*
X124912704Y-73604109D01*
X124912704Y-73604109D02*
X124531752Y-73699347D01*
X124531752Y-73699347D02*
X124341276Y-73794585D01*
X124341276Y-73794585D02*
X124150800Y-73985061D01*
X124150800Y-73985061D02*
X124055561Y-74270776D01*
X124055561Y-74270776D02*
X124055561Y-74746966D01*
D10*
X120835800Y-91022363D02*
X120740561Y-90736649D01*
X120740561Y-90736649D02*
X120740561Y-90260458D01*
X120740561Y-90260458D02*
X120835800Y-90069982D01*
X120835800Y-90069982D02*
X120931038Y-89974744D01*
X120931038Y-89974744D02*
X121121514Y-89879506D01*
X121121514Y-89879506D02*
X121311990Y-89879506D01*
X121311990Y-89879506D02*
X121502466Y-89974744D01*
X121502466Y-89974744D02*
X121597704Y-90069982D01*
X121597704Y-90069982D02*
X121692942Y-90260458D01*
X121692942Y-90260458D02*
X121788180Y-90641411D01*
X121788180Y-90641411D02*
X121883419Y-90831887D01*
X121883419Y-90831887D02*
X121978657Y-90927125D01*
X121978657Y-90927125D02*
X122169133Y-91022363D01*
X122169133Y-91022363D02*
X122359609Y-91022363D01*
X122359609Y-91022363D02*
X122550085Y-90927125D01*
X122550085Y-90927125D02*
X122645323Y-90831887D01*
X122645323Y-90831887D02*
X122740561Y-90641411D01*
X122740561Y-90641411D02*
X122740561Y-90165220D01*
X122740561Y-90165220D02*
X122645323Y-89879506D01*
X120740561Y-89022363D02*
X122740561Y-89022363D01*
X122740561Y-89022363D02*
X122740561Y-88260458D01*
X122740561Y-88260458D02*
X122645323Y-88069982D01*
X122645323Y-88069982D02*
X122550085Y-87974744D01*
X122550085Y-87974744D02*
X122359609Y-87879506D01*
X122359609Y-87879506D02*
X122073895Y-87879506D01*
X122073895Y-87879506D02*
X121883419Y-87974744D01*
X121883419Y-87974744D02*
X121788180Y-88069982D01*
X121788180Y-88069982D02*
X121692942Y-88260458D01*
X121692942Y-88260458D02*
X121692942Y-89022363D01*
X121311990Y-87117601D02*
X121311990Y-86165220D01*
X120740561Y-87308077D02*
X122740561Y-86641411D01*
X122740561Y-86641411D02*
X120740561Y-85974744D01*
X120931038Y-84165220D02*
X120835800Y-84260458D01*
X120835800Y-84260458D02*
X120740561Y-84546172D01*
X120740561Y-84546172D02*
X120740561Y-84736648D01*
X120740561Y-84736648D02*
X120835800Y-85022363D01*
X120835800Y-85022363D02*
X121026276Y-85212839D01*
X121026276Y-85212839D02*
X121216752Y-85308077D01*
X121216752Y-85308077D02*
X121597704Y-85403315D01*
X121597704Y-85403315D02*
X121883419Y-85403315D01*
X121883419Y-85403315D02*
X122264371Y-85308077D01*
X122264371Y-85308077D02*
X122454847Y-85212839D01*
X122454847Y-85212839D02*
X122645323Y-85022363D01*
X122645323Y-85022363D02*
X122740561Y-84736648D01*
X122740561Y-84736648D02*
X122740561Y-84546172D01*
X122740561Y-84546172D02*
X122645323Y-84260458D01*
X122645323Y-84260458D02*
X122550085Y-84165220D01*
X120931038Y-83308077D02*
X120835800Y-83212839D01*
X120835800Y-83212839D02*
X120740561Y-83308077D01*
X120740561Y-83308077D02*
X120835800Y-83403315D01*
X120835800Y-83403315D02*
X120931038Y-83308077D01*
X120931038Y-83308077D02*
X120740561Y-83308077D01*
X121978657Y-83308077D02*
X121883419Y-83212839D01*
X121883419Y-83212839D02*
X121788180Y-83308077D01*
X121788180Y-83308077D02*
X121883419Y-83403315D01*
X121883419Y-83403315D02*
X121978657Y-83308077D01*
X121978657Y-83308077D02*
X121788180Y-83308077D01*
X122550085Y-80927124D02*
X122645323Y-80831886D01*
X122645323Y-80831886D02*
X122740561Y-80641410D01*
X122740561Y-80641410D02*
X122740561Y-80165219D01*
X122740561Y-80165219D02*
X122645323Y-79974743D01*
X122645323Y-79974743D02*
X122550085Y-79879505D01*
X122550085Y-79879505D02*
X122359609Y-79784267D01*
X122359609Y-79784267D02*
X122169133Y-79784267D01*
X122169133Y-79784267D02*
X121883419Y-79879505D01*
X121883419Y-79879505D02*
X120740561Y-81022362D01*
X120740561Y-81022362D02*
X120740561Y-79784267D01*
X122740561Y-78546172D02*
X122740561Y-78355695D01*
X122740561Y-78355695D02*
X122645323Y-78165219D01*
X122645323Y-78165219D02*
X122550085Y-78069981D01*
X122550085Y-78069981D02*
X122359609Y-77974743D01*
X122359609Y-77974743D02*
X121978657Y-77879505D01*
X121978657Y-77879505D02*
X121502466Y-77879505D01*
X121502466Y-77879505D02*
X121121514Y-77974743D01*
X121121514Y-77974743D02*
X120931038Y-78069981D01*
X120931038Y-78069981D02*
X120835800Y-78165219D01*
X120835800Y-78165219D02*
X120740561Y-78355695D01*
X120740561Y-78355695D02*
X120740561Y-78546172D01*
X120740561Y-78546172D02*
X120835800Y-78736648D01*
X120835800Y-78736648D02*
X120931038Y-78831886D01*
X120931038Y-78831886D02*
X121121514Y-78927124D01*
X121121514Y-78927124D02*
X121502466Y-79022362D01*
X121502466Y-79022362D02*
X121978657Y-79022362D01*
X121978657Y-79022362D02*
X122359609Y-78927124D01*
X122359609Y-78927124D02*
X122550085Y-78831886D01*
X122550085Y-78831886D02*
X122645323Y-78736648D01*
X122645323Y-78736648D02*
X122740561Y-78546172D01*
X122550085Y-77117600D02*
X122645323Y-77022362D01*
X122645323Y-77022362D02*
X122740561Y-76831886D01*
X122740561Y-76831886D02*
X122740561Y-76355695D01*
X122740561Y-76355695D02*
X122645323Y-76165219D01*
X122645323Y-76165219D02*
X122550085Y-76069981D01*
X122550085Y-76069981D02*
X122359609Y-75974743D01*
X122359609Y-75974743D02*
X122169133Y-75974743D01*
X122169133Y-75974743D02*
X121883419Y-76069981D01*
X121883419Y-76069981D02*
X120740561Y-77212838D01*
X120740561Y-77212838D02*
X120740561Y-75974743D01*
X122073895Y-74260457D02*
X120740561Y-74260457D01*
X122835800Y-74736648D02*
X121407228Y-75212838D01*
X121407228Y-75212838D02*
X121407228Y-73974743D01*
%TO.C,G\u002A\u002A\u002A*%
G36*
X120178847Y-110210872D02*
G01*
X120138901Y-110317920D01*
X119976084Y-110758639D01*
X119867882Y-111084650D01*
X119812735Y-111333283D01*
X119809083Y-111541867D01*
X119855366Y-111747732D01*
X119950022Y-111988208D01*
X120091492Y-112300624D01*
X120441199Y-113068372D01*
X120017004Y-113068372D01*
X119592808Y-113068372D01*
X119220047Y-112270685D01*
X118847286Y-111472998D01*
X117595993Y-110513852D01*
X116344700Y-109554705D01*
X116785476Y-109529243D01*
X116799623Y-109528431D01*
X116982650Y-109522562D01*
X117133739Y-109539668D01*
X117286043Y-109595902D01*
X117472716Y-109707420D01*
X117726910Y-109890378D01*
X118081778Y-110160930D01*
X118400585Y-110402100D01*
X118671238Y-110593867D01*
X118850229Y-110698667D01*
X118958137Y-110728257D01*
X119015540Y-110694393D01*
X119053554Y-110626969D01*
X119095071Y-110510381D01*
X119113206Y-110437178D01*
X119177406Y-110242410D01*
X119271784Y-109981215D01*
X119447200Y-109512372D01*
X119943203Y-109512372D01*
X120439205Y-109512372D01*
X120178847Y-110210872D01*
G37*
G36*
X128873193Y-109762167D02*
G01*
X128954518Y-109931515D01*
X128984677Y-110073044D01*
X128912579Y-110150554D01*
X128715912Y-110183092D01*
X128372364Y-110189705D01*
X128325219Y-110189918D01*
X128022194Y-110202115D01*
X127796839Y-110229342D01*
X127694953Y-110266413D01*
X127706250Y-110338194D01*
X127779328Y-110542396D01*
X127907045Y-110850572D01*
X128078458Y-111236510D01*
X128282623Y-111673997D01*
X128457345Y-112041377D01*
X128641090Y-112430785D01*
X128786914Y-112743303D01*
X128883042Y-112953669D01*
X128917700Y-113036623D01*
X128892968Y-113047460D01*
X128744994Y-113062479D01*
X128507886Y-113068372D01*
X128098071Y-113068372D01*
X127483523Y-111734872D01*
X127318814Y-111383935D01*
X127119489Y-110976593D01*
X126946014Y-110640992D01*
X126812774Y-110404763D01*
X126734155Y-110295539D01*
X126599691Y-110243871D01*
X126319460Y-110204068D01*
X125939906Y-110189705D01*
X125280475Y-110189705D01*
X125107700Y-109851039D01*
X124934926Y-109512372D01*
X126839472Y-109512372D01*
X128744019Y-109512372D01*
X128873193Y-109762167D01*
G37*
G36*
X137814081Y-111248661D02*
G01*
X137945227Y-111520160D01*
X138172750Y-111993797D01*
X138367839Y-112403299D01*
X138520079Y-112726632D01*
X138619060Y-112941764D01*
X138654367Y-113026661D01*
X138629289Y-113040973D01*
X138480824Y-113060652D01*
X138243313Y-113068372D01*
X137832260Y-113068372D01*
X137478219Y-112306372D01*
X137375742Y-112092691D01*
X137228379Y-111810110D01*
X137111793Y-111616316D01*
X137044790Y-111544372D01*
X136989059Y-111587978D01*
X136854374Y-111747510D01*
X136668186Y-111996649D01*
X136453034Y-112306372D01*
X135940666Y-113068372D01*
X135475290Y-113068372D01*
X135009913Y-113068372D01*
X135603137Y-112184186D01*
X136196362Y-111300000D01*
X135964864Y-111140845D01*
X135901245Y-111098388D01*
X135686896Y-110959876D01*
X135376220Y-110762168D01*
X135000337Y-110525022D01*
X134590367Y-110268198D01*
X133447367Y-109554705D01*
X133929415Y-109529456D01*
X134087241Y-109523126D01*
X134245627Y-109530131D01*
X134400369Y-109564798D01*
X134580827Y-109639684D01*
X134816358Y-109767347D01*
X135136322Y-109960346D01*
X135570078Y-110231238D01*
X135835636Y-110396469D01*
X136195036Y-110615108D01*
X136485528Y-110785755D01*
X136682491Y-110894055D01*
X136761305Y-110925656D01*
X136762346Y-110909342D01*
X136721284Y-110775493D01*
X136627832Y-110540001D01*
X136496476Y-110240350D01*
X136444564Y-110125861D01*
X136319098Y-109843646D01*
X136231785Y-109639002D01*
X136199034Y-109550015D01*
X136217983Y-109538410D01*
X136356901Y-109519739D01*
X136586415Y-109512372D01*
X136973796Y-109512372D01*
X137814081Y-111248661D01*
G37*
G36*
X133412325Y-111099872D02*
G01*
X133469023Y-111218683D01*
X133697440Y-111695742D01*
X133902312Y-112121174D01*
X134071360Y-112469648D01*
X134192309Y-112715830D01*
X134252882Y-112834390D01*
X134299514Y-112923974D01*
X134336367Y-113024890D01*
X134334777Y-113026801D01*
X134233099Y-113039971D01*
X133991253Y-113051386D01*
X133634872Y-113060374D01*
X133189591Y-113066260D01*
X132681047Y-113068372D01*
X131025727Y-113068372D01*
X130903047Y-112774758D01*
X130883416Y-112727194D01*
X130810056Y-112536450D01*
X130780367Y-112436091D01*
X130785281Y-112431886D01*
X130901189Y-112415873D01*
X131147848Y-112402902D01*
X131494218Y-112394211D01*
X131909256Y-112391039D01*
X132005842Y-112390846D01*
X132415587Y-112385522D01*
X132755026Y-112373993D01*
X132991153Y-112357734D01*
X133090962Y-112338222D01*
X133098979Y-112311843D01*
X133067245Y-112167868D01*
X132976352Y-111957222D01*
X132808926Y-111629039D01*
X132064328Y-111629039D01*
X131319730Y-111629039D01*
X131175645Y-111326890D01*
X131148714Y-111266997D01*
X131082553Y-111066139D01*
X131080294Y-110945890D01*
X131085647Y-110940034D01*
X131208623Y-110903037D01*
X131448392Y-110876927D01*
X131759031Y-110867039D01*
X132043069Y-110863338D01*
X132268869Y-110837856D01*
X132365393Y-110771420D01*
X132354952Y-110644984D01*
X132259860Y-110439501D01*
X132130685Y-110189705D01*
X130920874Y-110189705D01*
X129711063Y-110189705D01*
X129568382Y-109890499D01*
X129540941Y-109832218D01*
X129458772Y-109646375D01*
X129425700Y-109551833D01*
X129426165Y-109550883D01*
X129518039Y-109538710D01*
X129751362Y-109528139D01*
X130100179Y-109519802D01*
X130538536Y-109514335D01*
X131040476Y-109512372D01*
X132655252Y-109512372D01*
X133412325Y-111099872D01*
G37*
G36*
X125223022Y-111242764D02*
G01*
X125345173Y-111502327D01*
X125567635Y-111978014D01*
X125758501Y-112390031D01*
X125907521Y-112716047D01*
X126004448Y-112933734D01*
X126039034Y-113020764D01*
X126021864Y-113034886D01*
X125886028Y-113058884D01*
X125659098Y-113068372D01*
X125279163Y-113068372D01*
X124970978Y-112454539D01*
X124828289Y-112177081D01*
X124685288Y-111933378D01*
X124565386Y-111794010D01*
X124442531Y-111730657D01*
X124290674Y-111715002D01*
X124216982Y-111731121D01*
X124082314Y-111833030D01*
X123908951Y-112046276D01*
X123678621Y-112391039D01*
X123248593Y-113068372D01*
X122738813Y-113068372D01*
X122506052Y-113062967D01*
X122305985Y-113045333D01*
X122229034Y-113019697D01*
X122232955Y-113006607D01*
X122299061Y-112883188D01*
X122429898Y-112666101D01*
X122603454Y-112392229D01*
X122659301Y-112304449D01*
X122812612Y-112044860D01*
X122908458Y-111852408D01*
X122928010Y-111763570D01*
X122852805Y-111732525D01*
X122676385Y-111713705D01*
X122337774Y-111648619D01*
X121994019Y-111425725D01*
X121675492Y-111041110D01*
X121378671Y-110491456D01*
X121276100Y-110256556D01*
X121252464Y-110189705D01*
X122123200Y-110189705D01*
X122177123Y-110459316D01*
X122252962Y-110688013D01*
X122370162Y-110882650D01*
X122414251Y-110924215D01*
X122524413Y-110981151D01*
X122699862Y-111015326D01*
X122975232Y-111031985D01*
X123385156Y-111036372D01*
X123657652Y-111034375D01*
X123969371Y-111026092D01*
X124182245Y-111012865D01*
X124261034Y-110996303D01*
X124249008Y-110957420D01*
X124181656Y-110800150D01*
X124074829Y-110572970D01*
X123888625Y-110189705D01*
X123005913Y-110189705D01*
X122123200Y-110189705D01*
X121252464Y-110189705D01*
X121189721Y-110012241D01*
X121168870Y-109844275D01*
X121204018Y-109710016D01*
X121217687Y-109680643D01*
X121256651Y-109618620D01*
X121320164Y-109574086D01*
X121432356Y-109544145D01*
X121617360Y-109525899D01*
X121899304Y-109516453D01*
X122302321Y-109512909D01*
X122850540Y-109512372D01*
X124407010Y-109512372D01*
X125106797Y-110996303D01*
X125223022Y-111242764D01*
G37*
G36*
X147676234Y-112468183D02*
G01*
X147713700Y-112619122D01*
X147683851Y-112737976D01*
X147573578Y-112913538D01*
X147504787Y-112972038D01*
X147401736Y-113014314D01*
X147238259Y-113042049D01*
X146987137Y-113058093D01*
X146621150Y-113065297D01*
X146113078Y-113066512D01*
X145928627Y-113066111D01*
X145338965Y-113057309D01*
X144880945Y-113023025D01*
X144525939Y-112944792D01*
X144245323Y-112804142D01*
X144010469Y-112582609D01*
X143792750Y-112261726D01*
X143563542Y-111823025D01*
X143294217Y-111248039D01*
X143239858Y-111129971D01*
X143036115Y-110685185D01*
X142893843Y-110363378D01*
X142870565Y-110304217D01*
X143734367Y-110304217D01*
X143763084Y-110428067D01*
X143857285Y-110671440D01*
X143998677Y-110985916D01*
X144168173Y-111333751D01*
X144346686Y-111677197D01*
X144515129Y-111978508D01*
X144654416Y-112199940D01*
X144745459Y-112303745D01*
X144830279Y-112329831D01*
X145060120Y-112360398D01*
X145374613Y-112380073D01*
X145731494Y-112388720D01*
X146088499Y-112386199D01*
X146403367Y-112372373D01*
X146633833Y-112347104D01*
X146737635Y-112310253D01*
X146740072Y-112298156D01*
X146705235Y-112164590D01*
X146607883Y-111918490D01*
X146460687Y-111590080D01*
X146276313Y-111209586D01*
X145765062Y-110189705D01*
X144749715Y-110189705D01*
X144493530Y-110190779D01*
X144126529Y-110199693D01*
X143893165Y-110219824D01*
X143770193Y-110253791D01*
X143734367Y-110304217D01*
X142870565Y-110304217D01*
X142805639Y-110139209D01*
X142764097Y-109987339D01*
X142761813Y-109882425D01*
X142791382Y-109799129D01*
X142845398Y-109712109D01*
X142894756Y-109643407D01*
X142959744Y-109589038D01*
X143062324Y-109552266D01*
X143228844Y-109529653D01*
X143485651Y-109517760D01*
X143859095Y-109513146D01*
X144375524Y-109512372D01*
X144923191Y-109515281D01*
X145363706Y-109528892D01*
X145691478Y-109559898D01*
X145935538Y-109614988D01*
X146124916Y-109700850D01*
X146288642Y-109824174D01*
X146455747Y-109991646D01*
X146531053Y-110093576D01*
X146675324Y-110336071D01*
X146853163Y-110667466D01*
X147048293Y-111053768D01*
X147244440Y-111460984D01*
X147425329Y-111855120D01*
X147574686Y-112202184D01*
X147611324Y-112298156D01*
X147676234Y-112468183D01*
G37*
G36*
X151609103Y-111248039D02*
G01*
X151640144Y-111315242D01*
X151857490Y-111781733D01*
X152052508Y-112193544D01*
X152213205Y-112525833D01*
X152327586Y-112753756D01*
X152383659Y-112852472D01*
X152405631Y-112880535D01*
X152455034Y-113000639D01*
X152432293Y-113023029D01*
X152287358Y-113055490D01*
X152052867Y-113068153D01*
X151650700Y-113067935D01*
X151312034Y-112411987D01*
X151206737Y-112213951D01*
X151039458Y-111939572D01*
X150903046Y-111785948D01*
X150778207Y-111728372D01*
X150652721Y-111723867D01*
X150521616Y-111770697D01*
X150385919Y-111896557D01*
X150221144Y-112125195D01*
X150002804Y-112480358D01*
X149653472Y-113068372D01*
X149101923Y-113068372D01*
X149006798Y-113067859D01*
X148743486Y-113055177D01*
X148619734Y-113021734D01*
X148612448Y-112962539D01*
X148685945Y-112846482D01*
X148825229Y-112634240D01*
X148998445Y-112374517D01*
X148999440Y-112373036D01*
X149162141Y-112120053D01*
X149278135Y-111919316D01*
X149322367Y-111814165D01*
X149314338Y-111796086D01*
X149198115Y-111736834D01*
X148987665Y-111691108D01*
X148662562Y-111607903D01*
X148368488Y-111424482D01*
X148107108Y-111120589D01*
X147851870Y-110672411D01*
X147798773Y-110563516D01*
X147686798Y-110308951D01*
X148512680Y-110308951D01*
X148548883Y-110472538D01*
X148643552Y-110694801D01*
X148817809Y-111036372D01*
X149705088Y-111036372D01*
X149900497Y-111034904D01*
X150274745Y-111020166D01*
X150510431Y-110990806D01*
X150592367Y-110948332D01*
X150586408Y-110913652D01*
X150525933Y-110748580D01*
X150421313Y-110524999D01*
X150250259Y-110189705D01*
X149410310Y-110189705D01*
X149175320Y-110192925D01*
X148852393Y-110209439D01*
X148620923Y-110236811D01*
X148519828Y-110271468D01*
X148512680Y-110308951D01*
X147686798Y-110308951D01*
X147636193Y-110193906D01*
X147560145Y-109931015D01*
X147565209Y-109746989D01*
X147645967Y-109613972D01*
X147762210Y-109575412D01*
X148014205Y-109544548D01*
X148366943Y-109522693D01*
X148786693Y-109509803D01*
X149239722Y-109505833D01*
X149692299Y-109510737D01*
X150110692Y-109524472D01*
X150461168Y-109546991D01*
X150709996Y-109578251D01*
X150823444Y-109618205D01*
X150827422Y-109623832D01*
X150895209Y-109748601D01*
X151019503Y-109998784D01*
X151188073Y-110349003D01*
X151388683Y-110773880D01*
X151469780Y-110948332D01*
X151609103Y-111248039D01*
G37*
G36*
X139933537Y-109513269D02*
G01*
X140464735Y-109525713D01*
X140865742Y-109558379D01*
X141164315Y-109618332D01*
X141388210Y-109712636D01*
X141565182Y-109848356D01*
X141722988Y-110032555D01*
X141804994Y-110161611D01*
X141954617Y-110433816D01*
X142138599Y-110792371D01*
X142338449Y-111198831D01*
X142535674Y-111614755D01*
X142711782Y-112001699D01*
X142848280Y-112321220D01*
X142926677Y-112534874D01*
X142934140Y-112686974D01*
X142807365Y-112894708D01*
X142803675Y-112898379D01*
X142722879Y-112965156D01*
X142618741Y-113011749D01*
X142462065Y-113041691D01*
X142223656Y-113058520D01*
X141874322Y-113065771D01*
X141384867Y-113066979D01*
X140916411Y-113064639D01*
X140549612Y-113055796D01*
X140287811Y-113036469D01*
X140097804Y-113002648D01*
X139946389Y-112950318D01*
X139800363Y-112875466D01*
X139766932Y-112855421D01*
X139541575Y-112671987D01*
X139324532Y-112427713D01*
X139145720Y-112165530D01*
X139035055Y-111928369D01*
X139022454Y-111759159D01*
X139135233Y-111664461D01*
X139403438Y-111629039D01*
X139614009Y-111643371D01*
X139747819Y-111716989D01*
X139842687Y-111890250D01*
X139887655Y-111994650D01*
X139990049Y-112176883D01*
X140120595Y-112292813D01*
X140314553Y-112357266D01*
X140607181Y-112385066D01*
X141033739Y-112391039D01*
X141370112Y-112387165D01*
X141674083Y-112369059D01*
X141849916Y-112333457D01*
X141920618Y-112277412D01*
X141908762Y-112194636D01*
X141837584Y-111987064D01*
X141720057Y-111696517D01*
X141572942Y-111360035D01*
X141413000Y-111014656D01*
X141256990Y-110697421D01*
X141121673Y-110445369D01*
X141023811Y-110295539D01*
X141003474Y-110278460D01*
X140835910Y-110228547D01*
X140516954Y-110199265D01*
X140038159Y-110189705D01*
X139995951Y-110189682D01*
X139601898Y-110189707D01*
X139350692Y-110202910D01*
X139218101Y-110247457D01*
X139179892Y-110341516D01*
X139211834Y-110503252D01*
X139289694Y-110750833D01*
X139311771Y-110843384D01*
X139271396Y-110904920D01*
X139106030Y-110893863D01*
X138966186Y-110871589D01*
X138693108Y-110814778D01*
X138524104Y-110739043D01*
X138412615Y-110616573D01*
X138312083Y-110419551D01*
X138277778Y-110342711D01*
X138170692Y-110061218D01*
X138140415Y-109851015D01*
X138202318Y-109701904D01*
X138371770Y-109603683D01*
X138664143Y-109546155D01*
X139094808Y-109519118D01*
X139679134Y-109512372D01*
X139933537Y-109513269D01*
G37*
G36*
X132718219Y-61050790D02*
G01*
X132911031Y-61130780D01*
X132986990Y-61165647D01*
X133733744Y-61587839D01*
X134494968Y-62152119D01*
X135250849Y-62837379D01*
X135981579Y-63622514D01*
X136667345Y-64486415D01*
X137288337Y-65407975D01*
X137824745Y-66366087D01*
X137845615Y-66408197D01*
X137960027Y-66646703D01*
X138135645Y-67019792D01*
X138365486Y-67512372D01*
X138642569Y-68109352D01*
X138959913Y-68795639D01*
X139310535Y-69556143D01*
X139687454Y-70375772D01*
X140083688Y-71239434D01*
X140492255Y-72132039D01*
X140659471Y-72497462D01*
X141052176Y-73353075D01*
X141423581Y-74158729D01*
X141767587Y-74901400D01*
X142078096Y-75568065D01*
X142349010Y-76145700D01*
X142574229Y-76621281D01*
X142747657Y-76981786D01*
X142863194Y-77214189D01*
X142914742Y-77305469D01*
X142919650Y-77309136D01*
X143049132Y-77351351D01*
X143315924Y-77409411D01*
X143692580Y-77478259D01*
X144151654Y-77552839D01*
X144665700Y-77628094D01*
X144727180Y-77636688D01*
X145236499Y-77712575D01*
X145687826Y-77787824D01*
X146053664Y-77857260D01*
X146306515Y-77915709D01*
X146418879Y-77957996D01*
X146436162Y-77979592D01*
X146530206Y-78138429D01*
X146678446Y-78419815D01*
X146870143Y-78800873D01*
X147094555Y-79258727D01*
X147340942Y-79770500D01*
X147598566Y-80313314D01*
X147856685Y-80864293D01*
X148104560Y-81400560D01*
X148331450Y-81899239D01*
X148526616Y-82337451D01*
X148679318Y-82692320D01*
X148778815Y-82940969D01*
X148814367Y-83060522D01*
X148806114Y-83156533D01*
X148746838Y-83257832D01*
X148621129Y-83267634D01*
X148418055Y-83180565D01*
X148126684Y-82991254D01*
X147736082Y-82694326D01*
X147235319Y-82284407D01*
X146890381Y-81997716D01*
X146542723Y-81713120D01*
X146255719Y-81482864D01*
X146052250Y-81325282D01*
X145955198Y-81258708D01*
X145947721Y-81256758D01*
X145820898Y-81271733D01*
X145602412Y-81326123D01*
X145343424Y-81403718D01*
X145095091Y-81488309D01*
X144908575Y-81563685D01*
X144835034Y-81613636D01*
X144838264Y-81623682D01*
X144889683Y-81743639D01*
X144990723Y-81968029D01*
X145124531Y-82259260D01*
X145168353Y-82354383D01*
X145291023Y-82627130D01*
X145373446Y-82820545D01*
X145399698Y-82897685D01*
X145381687Y-82907320D01*
X145238813Y-82972533D01*
X144973437Y-83089587D01*
X144608717Y-83248554D01*
X144167808Y-83439505D01*
X143673868Y-83652510D01*
X143150055Y-83877641D01*
X142619524Y-84104968D01*
X142105434Y-84324563D01*
X141630941Y-84526497D01*
X141219201Y-84700841D01*
X140893373Y-84837665D01*
X140676614Y-84927040D01*
X140592079Y-84959039D01*
X140578106Y-84949724D01*
X140498740Y-84832826D01*
X140376395Y-84610180D01*
X140231186Y-84317536D01*
X139926537Y-83676033D01*
X139260865Y-84030718D01*
X138595193Y-84385403D01*
X138490172Y-85997456D01*
X138489043Y-86014759D01*
X138453806Y-86524434D01*
X138418764Y-86979126D01*
X138386397Y-87350324D01*
X138359185Y-87609515D01*
X138339610Y-87728187D01*
X138264477Y-87799172D01*
X138076824Y-87821119D01*
X138065837Y-87819631D01*
X138003315Y-87799983D01*
X137940386Y-87750284D01*
X137869566Y-87654508D01*
X137783375Y-87496632D01*
X137674329Y-87260631D01*
X137534948Y-86930481D01*
X137357750Y-86490157D01*
X137135252Y-85923634D01*
X136859973Y-85214889D01*
X136708631Y-84823107D01*
X136479601Y-84225784D01*
X136275980Y-83689323D01*
X136105008Y-83233098D01*
X135973922Y-82876481D01*
X135889962Y-82638848D01*
X135860367Y-82539571D01*
X135864884Y-82525302D01*
X135937454Y-82397517D01*
X136085073Y-82165095D01*
X136290200Y-81853661D01*
X136535294Y-81488843D01*
X136802815Y-81096267D01*
X137075220Y-80701560D01*
X137334971Y-80330349D01*
X137564525Y-80008259D01*
X137746342Y-79760918D01*
X137862881Y-79613953D01*
X137877216Y-79588581D01*
X137882847Y-79529791D01*
X137866943Y-79434836D01*
X137824929Y-79293063D01*
X137752228Y-79093823D01*
X137644265Y-78826465D01*
X137496464Y-78480336D01*
X137304250Y-78044787D01*
X137063047Y-77509167D01*
X136768280Y-76862824D01*
X136415372Y-76095108D01*
X135999748Y-75195368D01*
X135516833Y-74152953D01*
X135303228Y-73691339D01*
X134885921Y-72784024D01*
X134486425Y-71908376D01*
X134111498Y-71079603D01*
X133767901Y-70312909D01*
X133462392Y-69623503D01*
X133201730Y-69026589D01*
X132992675Y-68537374D01*
X132841987Y-68171065D01*
X132756423Y-67942867D01*
X132555983Y-67256069D01*
X132328226Y-66184331D01*
X132181393Y-65072681D01*
X132119175Y-63966022D01*
X132145266Y-62909258D01*
X132263358Y-61947292D01*
X132342552Y-61531106D01*
X132411764Y-61247324D01*
X132485902Y-61087231D01*
X132582281Y-61028997D01*
X132718219Y-61050790D01*
G37*
G36*
X152716205Y-66386431D02*
G01*
X153497816Y-66422597D01*
X154214245Y-66483808D01*
X154825700Y-66570039D01*
X154983966Y-66599525D01*
X156382195Y-66940983D01*
X157668802Y-67408405D01*
X158846847Y-68003312D01*
X159919391Y-68727223D01*
X160889493Y-69581658D01*
X161073189Y-69769164D01*
X161449896Y-70184211D01*
X161795708Y-70616741D01*
X162125437Y-71090357D01*
X162453900Y-71628659D01*
X162795909Y-72255250D01*
X163166281Y-72993732D01*
X163579830Y-73867705D01*
X163705696Y-74139187D01*
X164098778Y-74985960D01*
X164559699Y-75977519D01*
X165085535Y-77107593D01*
X165673362Y-78369910D01*
X166320257Y-79758199D01*
X167023295Y-81266190D01*
X167779552Y-82887610D01*
X168586103Y-84616188D01*
X169440025Y-86445654D01*
X170338394Y-88369736D01*
X171278284Y-90382163D01*
X172256773Y-92476664D01*
X172620389Y-93255306D01*
X173111450Y-94308193D01*
X173578372Y-95310851D01*
X174016387Y-96252966D01*
X174420726Y-97124227D01*
X174786623Y-97914322D01*
X175109308Y-98612939D01*
X175384015Y-99209767D01*
X175605976Y-99694493D01*
X175770422Y-100056805D01*
X175872586Y-100286392D01*
X175907701Y-100372942D01*
X175906190Y-100376310D01*
X175800740Y-100398730D01*
X175534532Y-100416168D01*
X175115071Y-100428468D01*
X174549860Y-100435474D01*
X173846403Y-100437031D01*
X173012205Y-100432983D01*
X170116710Y-100410705D01*
X164210881Y-87753039D01*
X163685043Y-86626094D01*
X163044731Y-85253967D01*
X162422726Y-83921234D01*
X161823125Y-82636671D01*
X161250027Y-81409050D01*
X160707530Y-80247145D01*
X160199732Y-79159733D01*
X159730731Y-78155585D01*
X159304626Y-77243477D01*
X158925514Y-76432183D01*
X158597494Y-75730477D01*
X158324665Y-75147133D01*
X158111123Y-74690926D01*
X157960969Y-74370629D01*
X157878298Y-74195017D01*
X157866042Y-74169227D01*
X157543353Y-73548370D01*
X157221955Y-73061458D01*
X156873534Y-72677056D01*
X156469776Y-72363728D01*
X155982367Y-72090039D01*
X155371977Y-71834108D01*
X154698700Y-71667998D01*
X154508578Y-71647624D01*
X154171229Y-71625012D01*
X153759584Y-71606997D01*
X153304078Y-71593878D01*
X152835148Y-71585958D01*
X152383228Y-71583539D01*
X151978755Y-71586921D01*
X151652163Y-71596405D01*
X151433889Y-71612294D01*
X151354367Y-71634888D01*
X151386745Y-71713880D01*
X151484543Y-71933598D01*
X151641606Y-72280286D01*
X151851736Y-72740439D01*
X152108735Y-73300547D01*
X152406403Y-73947104D01*
X152738544Y-74666601D01*
X153098959Y-75445532D01*
X153481449Y-76270388D01*
X153524192Y-76362478D01*
X153817865Y-76995529D01*
X154175800Y-77767591D01*
X154592176Y-78666089D01*
X155061173Y-79678452D01*
X155576970Y-80792108D01*
X156133748Y-81994483D01*
X156725684Y-83273005D01*
X157346960Y-84615103D01*
X157991754Y-86008203D01*
X158654246Y-87439733D01*
X159328616Y-88897121D01*
X160009043Y-90367793D01*
X160689707Y-91839179D01*
X161364787Y-93298705D01*
X161432067Y-93444177D01*
X162113084Y-94916604D01*
X162802004Y-96406046D01*
X163492752Y-97899371D01*
X164179252Y-99383447D01*
X164855430Y-100845143D01*
X165515210Y-102271328D01*
X166152516Y-103648869D01*
X166761274Y-104964636D01*
X167335408Y-106205497D01*
X167868842Y-107358321D01*
X168355503Y-108409976D01*
X168789314Y-109347330D01*
X169164199Y-110157253D01*
X169474085Y-110826613D01*
X169609010Y-111118345D01*
X170014513Y-111999138D01*
X170401195Y-112844909D01*
X170762448Y-113640861D01*
X171091664Y-114372193D01*
X171382235Y-115024108D01*
X171627553Y-115581806D01*
X171821011Y-116030489D01*
X171956001Y-116355357D01*
X172025914Y-116541613D01*
X172115909Y-116861418D01*
X172181646Y-117211947D01*
X172215261Y-117605979D01*
X172224700Y-118106039D01*
X172224655Y-118173264D01*
X172219770Y-118578308D01*
X172200901Y-118869399D01*
X172159663Y-119095178D01*
X172087668Y-119304288D01*
X171976530Y-119545372D01*
X171875754Y-119735283D01*
X171434924Y-120343707D01*
X170857147Y-120883703D01*
X170161243Y-121342220D01*
X169366033Y-121706209D01*
X168490337Y-121962621D01*
X168304615Y-122001133D01*
X168065265Y-122042143D01*
X167813362Y-122071930D01*
X167522787Y-122091599D01*
X167167419Y-122102256D01*
X166721140Y-122105004D01*
X166157829Y-122100950D01*
X165451367Y-122091198D01*
X165030087Y-122084045D01*
X164314152Y-122066910D01*
X163722898Y-122042458D01*
X163226725Y-122006802D01*
X162796034Y-121956054D01*
X162401228Y-121886327D01*
X162012708Y-121793732D01*
X161600874Y-121674382D01*
X161136128Y-121524389D01*
X160413685Y-121259720D01*
X159222889Y-120705929D01*
X158133679Y-120043932D01*
X157159212Y-119283295D01*
X156312645Y-118433585D01*
X155607135Y-117504369D01*
X155540158Y-117389009D01*
X155389653Y-117101878D01*
X155170159Y-116664348D01*
X154882627Y-116078417D01*
X154528004Y-115346080D01*
X154107241Y-114469335D01*
X153621287Y-113450179D01*
X153071090Y-112290609D01*
X152457600Y-110992621D01*
X151781766Y-109558214D01*
X151044536Y-107989382D01*
X150246861Y-106288124D01*
X149389689Y-104456437D01*
X148473969Y-102496317D01*
X147873903Y-101210706D01*
X147204087Y-99775270D01*
X146556771Y-98387645D01*
X145935467Y-97055375D01*
X145343688Y-95786004D01*
X144784945Y-94587075D01*
X144262749Y-93466132D01*
X143780612Y-92430719D01*
X143342045Y-91488378D01*
X142950561Y-90646654D01*
X142609670Y-89913090D01*
X142322886Y-89295230D01*
X142093718Y-88800617D01*
X141925679Y-88436794D01*
X141822280Y-88211306D01*
X141787034Y-88131696D01*
X141840427Y-88124068D01*
X142044355Y-88115289D01*
X142382659Y-88107509D01*
X142835990Y-88100994D01*
X143384998Y-88096011D01*
X144010335Y-88092826D01*
X144692650Y-88091705D01*
X147598265Y-88091705D01*
X153807388Y-101405539D01*
X153980492Y-101776684D01*
X154640296Y-103190770D01*
X155281646Y-104564416D01*
X155900754Y-105889548D01*
X156493832Y-107158089D01*
X157057092Y-108361964D01*
X157586744Y-109493096D01*
X158079001Y-110543409D01*
X158530073Y-111504828D01*
X158936173Y-112369277D01*
X159293512Y-113128680D01*
X159598302Y-113774960D01*
X159846754Y-114300043D01*
X160035080Y-114695851D01*
X160159491Y-114954310D01*
X160216199Y-115067343D01*
X160477170Y-115449293D01*
X160986623Y-115963374D01*
X161614388Y-116387219D01*
X162336202Y-116702117D01*
X162344495Y-116704876D01*
X162561941Y-116768027D01*
X162804345Y-116817241D01*
X163100581Y-116855471D01*
X163479526Y-116885672D01*
X163970052Y-116910796D01*
X164601035Y-116933798D01*
X164779803Y-116939444D01*
X165337037Y-116954572D01*
X165749688Y-116960306D01*
X166037052Y-116956011D01*
X166218424Y-116941054D01*
X166313097Y-116914799D01*
X166340367Y-116876613D01*
X166309290Y-116797975D01*
X166207528Y-116566409D01*
X166035485Y-116183616D01*
X165793717Y-115650804D01*
X165482782Y-114969183D01*
X165103238Y-114139958D01*
X164655642Y-113164340D01*
X164140551Y-112043535D01*
X163558522Y-110778751D01*
X162910114Y-109371196D01*
X162195882Y-107822079D01*
X161416385Y-106132607D01*
X160572180Y-104303988D01*
X159663824Y-102337430D01*
X158691875Y-100234142D01*
X157656890Y-97995330D01*
X156559425Y-95622203D01*
X155400040Y-93115969D01*
X154179290Y-90477836D01*
X152897734Y-87709012D01*
X151555928Y-84810705D01*
X150154430Y-81784122D01*
X148693798Y-78630472D01*
X148283608Y-77742437D01*
X147858968Y-76817811D01*
X147455697Y-75934370D01*
X147080082Y-75106143D01*
X146738410Y-74347160D01*
X146436969Y-73671451D01*
X146182044Y-73093044D01*
X145979924Y-72625969D01*
X145836894Y-72284257D01*
X145759243Y-72081935D01*
X145602918Y-71559226D01*
X145466397Y-70841512D01*
X145450316Y-70193779D01*
X145552416Y-69588787D01*
X145555305Y-69578179D01*
X145837421Y-68860034D01*
X146265126Y-68220818D01*
X146831399Y-67666204D01*
X147529221Y-67201866D01*
X148351574Y-66833477D01*
X149291437Y-66566711D01*
X149733800Y-66492692D01*
X150378211Y-66428440D01*
X151116611Y-66389329D01*
X151909206Y-66375334D01*
X152716205Y-66386431D01*
G37*
D13*
%TO.C,U3*%
X126422500Y-97827000D02*
X120453500Y-97827000D01*
X127388000Y-105902000D02*
X112388000Y-105902000D01*
X112388000Y-105902000D02*
X112388000Y-72552000D01*
X112388000Y-72552000D02*
X127388000Y-72552000D01*
X127388000Y-72552000D02*
X127388000Y-105902000D01*
G36*
X121406762Y-99315922D02*
G01*
X121409203Y-99348004D01*
X121411158Y-99404927D01*
X121412456Y-99480914D01*
X121412926Y-99570188D01*
X121412926Y-99829418D01*
X121369882Y-99849030D01*
X121338519Y-99862381D01*
X121319184Y-99868642D01*
X121316036Y-99860371D01*
X121312788Y-99826610D01*
X121311529Y-99775695D01*
X121310079Y-99737935D01*
X121303867Y-99698086D01*
X121294322Y-99682747D01*
X121278064Y-99687935D01*
X121236749Y-99705734D01*
X121178018Y-99733212D01*
X121108735Y-99767245D01*
X121049368Y-99796759D01*
X120990741Y-99825251D01*
X120949330Y-99844606D01*
X120931597Y-99851743D01*
X120930623Y-99851387D01*
X120925096Y-99832616D01*
X120922840Y-99794098D01*
X120922842Y-99791494D01*
X120924182Y-99767933D01*
X120931364Y-99749012D01*
X120949321Y-99730894D01*
X120982987Y-99709744D01*
X121037297Y-99681725D01*
X121117184Y-99643001D01*
X121311529Y-99549549D01*
X121311529Y-99449866D01*
X121312267Y-99404239D01*
X121317320Y-99366287D01*
X121330250Y-99344980D01*
X121354573Y-99330570D01*
X121385936Y-99317219D01*
X121405272Y-99310958D01*
X121406762Y-99315922D01*
G37*
G36*
X121409746Y-98200226D02*
G01*
X121410089Y-98230909D01*
X121401385Y-98267572D01*
X121378642Y-98310472D01*
X121337766Y-98369222D01*
X121330167Y-98379640D01*
X121294630Y-98430424D01*
X121269400Y-98469883D01*
X121259528Y-98490206D01*
X121262701Y-98496285D01*
X121288348Y-98513774D01*
X121331508Y-98532836D01*
X121350098Y-98539889D01*
X121386671Y-98558729D01*
X121403425Y-98583357D01*
X121409856Y-98624933D01*
X121409917Y-98625674D01*
X121411340Y-98666725D01*
X121404034Y-98681838D01*
X121384506Y-98678378D01*
X121359909Y-98669327D01*
X121310901Y-98651847D01*
X121252381Y-98631334D01*
X121150983Y-98596089D01*
X121045843Y-98649332D01*
X121043272Y-98650633D01*
X120990209Y-98676850D01*
X120950214Y-98695483D01*
X120931771Y-98702574D01*
X120930174Y-98701543D01*
X120925108Y-98679960D01*
X120923294Y-98639201D01*
X120923587Y-98622996D01*
X120927894Y-98594501D01*
X120942796Y-98573792D01*
X120975120Y-98553842D01*
X121031693Y-98527625D01*
X121053686Y-98517563D01*
X121096521Y-98494995D01*
X121133315Y-98468653D01*
X121170529Y-98432631D01*
X121214623Y-98381025D01*
X121272057Y-98307931D01*
X121404476Y-98136440D01*
X121409746Y-98200226D01*
G37*
G36*
X121398391Y-101740817D02*
G01*
X121409446Y-101784393D01*
X121412076Y-101855463D01*
X121410012Y-101957172D01*
X121408019Y-102023106D01*
X121402634Y-102102361D01*
X121390340Y-102159643D01*
X121366456Y-102202145D01*
X121326301Y-102237056D01*
X121265191Y-102271570D01*
X121178446Y-102312878D01*
X121151067Y-102325463D01*
X121064126Y-102362081D01*
X121033342Y-102371722D01*
X121001185Y-102381794D01*
X120958623Y-102385504D01*
X120932815Y-102374116D01*
X120932615Y-102373889D01*
X120928269Y-102351857D01*
X120925530Y-102303320D01*
X120924624Y-102235270D01*
X120925774Y-102154699D01*
X120926935Y-102115575D01*
X121024237Y-102115575D01*
X121024333Y-102135295D01*
X121025942Y-102194522D01*
X121029124Y-102235909D01*
X121033342Y-102251477D01*
X121037737Y-102250283D01*
X121066733Y-102238742D01*
X121115673Y-102217560D01*
X121176988Y-102189977D01*
X121311529Y-102128476D01*
X121311529Y-101995632D01*
X121309710Y-101927767D01*
X121303363Y-101879297D01*
X121292680Y-101862787D01*
X121288998Y-101863321D01*
X121258936Y-101873510D01*
X121209411Y-101893981D01*
X121149034Y-101921230D01*
X121024237Y-101979673D01*
X121024237Y-102115575D01*
X120926935Y-102115575D01*
X120928316Y-102069005D01*
X120931589Y-102008707D01*
X120937072Y-101968445D01*
X120946285Y-101941288D01*
X120960750Y-101920308D01*
X120981988Y-101898573D01*
X121002287Y-101882259D01*
X121054386Y-101849423D01*
X121122506Y-101812800D01*
X121197186Y-101777704D01*
X121277367Y-101743587D01*
X121336082Y-101723560D01*
X121375180Y-101721587D01*
X121398391Y-101740817D01*
G37*
G36*
X121386308Y-101107933D02*
G01*
X121391466Y-101110619D01*
X121402168Y-101125542D01*
X121408729Y-101156325D01*
X121412023Y-101208936D01*
X121412926Y-101289344D01*
X121412818Y-101323165D01*
X121409669Y-101415047D01*
X121398829Y-101482803D01*
X121375855Y-101533810D01*
X121336306Y-101575447D01*
X121275741Y-101615089D01*
X121189718Y-101660116D01*
X121159005Y-101675385D01*
X121082054Y-101711859D01*
X121027386Y-101733577D01*
X120989605Y-101741940D01*
X120963315Y-101738350D01*
X120943119Y-101724211D01*
X120942257Y-101723261D01*
X120931711Y-101692140D01*
X120925129Y-101630832D01*
X120922866Y-101542541D01*
X120924088Y-101480247D01*
X120933492Y-101388042D01*
X120953950Y-101319856D01*
X120987567Y-101269946D01*
X121036447Y-101232570D01*
X121052672Y-101223799D01*
X121094779Y-101211050D01*
X121118293Y-101225501D01*
X121125527Y-101268076D01*
X121113952Y-101309524D01*
X121074829Y-101342341D01*
X121062704Y-101349430D01*
X121041132Y-101366277D01*
X121029638Y-101389195D01*
X121025060Y-101427427D01*
X121024237Y-101490212D01*
X121024246Y-101495566D01*
X121025575Y-101553067D01*
X121028725Y-101593817D01*
X121033062Y-101609294D01*
X121037928Y-101607780D01*
X121067174Y-101594871D01*
X121115879Y-101571627D01*
X121176708Y-101541508D01*
X121311529Y-101473721D01*
X121311529Y-101354270D01*
X121311529Y-101234819D01*
X121258367Y-101246495D01*
X121224033Y-101252304D01*
X121211479Y-101244923D01*
X121215887Y-101218264D01*
X121222467Y-101189567D01*
X121226801Y-101157910D01*
X121234052Y-101146222D01*
X121264848Y-101128541D01*
X121308659Y-101113706D01*
X121353231Y-101105556D01*
X121386308Y-101107933D01*
G37*
G36*
X121384971Y-98812154D02*
G01*
X121404845Y-98841996D01*
X121407475Y-98861979D01*
X121409873Y-98912797D01*
X121410574Y-98982011D01*
X121409392Y-99060630D01*
X121404476Y-99241240D01*
X121202521Y-99340997D01*
X121163658Y-99360194D01*
X120922840Y-99479148D01*
X120922840Y-99410875D01*
X120924134Y-99375192D01*
X120933389Y-99348493D01*
X120958396Y-99328560D01*
X121006939Y-99305656D01*
X121044620Y-99287068D01*
X121084118Y-99255526D01*
X121091067Y-99222545D01*
X121065471Y-99185550D01*
X121026872Y-99156609D01*
X121191558Y-99156609D01*
X121194328Y-99194633D01*
X121202521Y-99209560D01*
X121203232Y-99209506D01*
X121225020Y-99201421D01*
X121261670Y-99183777D01*
X121266950Y-99181017D01*
X121291772Y-99164938D01*
X121305112Y-99143916D01*
X121310516Y-99108335D01*
X121311529Y-99048581D01*
X121310703Y-98994735D01*
X121306447Y-98958907D01*
X121296519Y-98942864D01*
X121278688Y-98939168D01*
X121250691Y-98948415D01*
X121219540Y-98976727D01*
X121208386Y-99005291D01*
X121199328Y-99051803D01*
X121193472Y-99105621D01*
X121191558Y-99156609D01*
X121026872Y-99156609D01*
X121007337Y-99141962D01*
X120960538Y-99110323D01*
X120934982Y-99084950D01*
X120924722Y-99055862D01*
X120922840Y-99012457D01*
X120922833Y-99006562D01*
X120923480Y-98969930D01*
X120929457Y-98952105D01*
X120946517Y-98952984D01*
X120980417Y-98972467D01*
X121036912Y-99010454D01*
X121108735Y-99059088D01*
X121108735Y-99009857D01*
X121109379Y-98997775D01*
X121131289Y-98936502D01*
X121180335Y-98880358D01*
X121251052Y-98836019D01*
X121282695Y-98822637D01*
X121344850Y-98805725D01*
X121384971Y-98812154D01*
G37*
G36*
X121412521Y-100515234D02*
G01*
X121412527Y-100517461D01*
X121409331Y-100562664D01*
X121397230Y-100606129D01*
X121372521Y-100657515D01*
X121331501Y-100726479D01*
X121314402Y-100753964D01*
X121278825Y-100811304D01*
X121251410Y-100855688D01*
X121237020Y-100879257D01*
X121234393Y-100887116D01*
X121248425Y-100888421D01*
X121288871Y-100873195D01*
X121337206Y-100852702D01*
X121379714Y-100837811D01*
X121402334Y-100837953D01*
X121411320Y-100853770D01*
X121412926Y-100885901D01*
X121412638Y-100902561D01*
X121409038Y-100921673D01*
X121397597Y-100938760D01*
X121373770Y-100957112D01*
X121333011Y-100980016D01*
X121270775Y-101010763D01*
X121182516Y-101052642D01*
X121142394Y-101071571D01*
X121065362Y-101107798D01*
X121001718Y-101137574D01*
X120957181Y-101158228D01*
X120937473Y-101167090D01*
X120934940Y-101167136D01*
X120926320Y-101149591D01*
X120922840Y-101111231D01*
X120924925Y-101076556D01*
X120936156Y-101052732D01*
X120963885Y-101032407D01*
X121015464Y-101007335D01*
X121057331Y-100987124D01*
X121097756Y-100964971D01*
X121116752Y-100950911D01*
X121117070Y-100950079D01*
X121105752Y-100933395D01*
X121072647Y-100905418D01*
X121024276Y-100871730D01*
X121009716Y-100862301D01*
X120962375Y-100829481D01*
X120936349Y-100804032D01*
X120925324Y-100777940D01*
X120922988Y-100743193D01*
X120923113Y-100731813D01*
X120926220Y-100694764D01*
X120932217Y-100679820D01*
X120932694Y-100679878D01*
X120952138Y-100689999D01*
X120990900Y-100714134D01*
X121041136Y-100747418D01*
X121044787Y-100749891D01*
X121095257Y-100782778D01*
X121134497Y-100806082D01*
X121154281Y-100814898D01*
X121155988Y-100814127D01*
X121173272Y-100794744D01*
X121203874Y-100753214D01*
X121244037Y-100694803D01*
X121289999Y-100624779D01*
X121412116Y-100434777D01*
X121412521Y-100515234D01*
G37*
G36*
X121412926Y-100131789D02*
G01*
X121412924Y-100147507D01*
X121412576Y-100234617D01*
X121411018Y-100294440D01*
X121407360Y-100332639D01*
X121400714Y-100354879D01*
X121390191Y-100366824D01*
X121374902Y-100374137D01*
X121374087Y-100374453D01*
X121343359Y-100388019D01*
X121290025Y-100413032D01*
X121221363Y-100446034D01*
X121144651Y-100483565D01*
X121136223Y-100487718D01*
X121063190Y-100523096D01*
X121001571Y-100551920D01*
X120957630Y-100571319D01*
X120937632Y-100578423D01*
X120936209Y-100577376D01*
X120930966Y-100554002D01*
X120926721Y-100504568D01*
X120923877Y-100435256D01*
X120922840Y-100352250D01*
X120922964Y-100295981D01*
X120924066Y-100220558D01*
X120926879Y-100170425D01*
X120932086Y-100140163D01*
X120940370Y-100124352D01*
X120952414Y-100117574D01*
X120967937Y-100112768D01*
X121009256Y-100097780D01*
X121019302Y-100095393D01*
X121027749Y-100102611D01*
X121031559Y-100126705D01*
X121031434Y-100173285D01*
X121028077Y-100247959D01*
X121026205Y-100290493D01*
X121024993Y-100351704D01*
X121026144Y-100393781D01*
X121029589Y-100409427D01*
X121047803Y-100404204D01*
X121082590Y-100389815D01*
X121105164Y-100376942D01*
X121118656Y-100357424D01*
X121124419Y-100322771D01*
X121125634Y-100263663D01*
X121125948Y-100232913D01*
X121129774Y-100183661D01*
X121139798Y-100155480D01*
X121158322Y-100139629D01*
X121191448Y-100125248D01*
X121213830Y-100128804D01*
X121224384Y-100157314D01*
X121227031Y-100215083D01*
X121228397Y-100264431D01*
X121235824Y-100296919D01*
X121253305Y-100306143D01*
X121284798Y-100297772D01*
X121288308Y-100296130D01*
X121299888Y-100282487D01*
X121307005Y-100253418D01*
X121310605Y-100202810D01*
X121311636Y-100124552D01*
X121311743Y-99961590D01*
X121362334Y-99932802D01*
X121412926Y-99904013D01*
X121412926Y-100131789D01*
G37*
G36*
X121392647Y-102390053D02*
G01*
X121395878Y-102394673D01*
X121405332Y-102432892D01*
X121411023Y-102504357D01*
X121412926Y-102608796D01*
X121412926Y-102807260D01*
X121217481Y-102901682D01*
X121183587Y-102918057D01*
X121143605Y-102937251D01*
X121066678Y-102973449D01*
X121002860Y-103002506D01*
X120957894Y-103021837D01*
X120937524Y-103028855D01*
X120934656Y-103027875D01*
X120926625Y-103006634D01*
X120926044Y-102966371D01*
X120928211Y-102946926D01*
X120938657Y-102914623D01*
X120963645Y-102889934D01*
X121011562Y-102862691D01*
X121042070Y-102845716D01*
X121081656Y-102812983D01*
X121089123Y-102780813D01*
X121064381Y-102745800D01*
X121007337Y-102704540D01*
X120961488Y-102674538D01*
X120943792Y-102657660D01*
X121210132Y-102657660D01*
X121210136Y-102661854D01*
X121211224Y-102719200D01*
X121213850Y-102759893D01*
X121217481Y-102775362D01*
X121233870Y-102771017D01*
X121268180Y-102758881D01*
X121276171Y-102755710D01*
X121295701Y-102743833D01*
X121306299Y-102723499D01*
X121310673Y-102686265D01*
X121311529Y-102623685D01*
X121311257Y-102590752D01*
X121307523Y-102537514D01*
X121296938Y-102511430D01*
X121276403Y-102507936D01*
X121242820Y-102522464D01*
X121229263Y-102532245D01*
X121217298Y-102554147D01*
X121211589Y-102593188D01*
X121210132Y-102657660D01*
X120943792Y-102657660D01*
X120935340Y-102649599D01*
X120924796Y-102621072D01*
X120922840Y-102578491D01*
X120923219Y-102558085D01*
X120926643Y-102520055D01*
X120932469Y-102504970D01*
X120941693Y-102508797D01*
X120972721Y-102527190D01*
X121015787Y-102555668D01*
X121033036Y-102567486D01*
X121075270Y-102594671D01*
X121097913Y-102603084D01*
X121107042Y-102593425D01*
X121108735Y-102566397D01*
X121115199Y-102532622D01*
X121144299Y-102483342D01*
X121190117Y-102438145D01*
X121245257Y-102401623D01*
X121302323Y-102378371D01*
X121353918Y-102372983D01*
X121392647Y-102390053D01*
G37*
G36*
X126090635Y-101119260D02*
G01*
X126190081Y-101122031D01*
X126259657Y-101129678D01*
X126302553Y-101143118D01*
X126321958Y-101163268D01*
X126321060Y-101191044D01*
X126296864Y-101242667D01*
X126253733Y-101308626D01*
X126198956Y-101378170D01*
X126139449Y-101441751D01*
X126123456Y-101456873D01*
X126066785Y-101505528D01*
X126003282Y-101551663D01*
X125927994Y-101598184D01*
X125835970Y-101647999D01*
X125722259Y-101704016D01*
X125581909Y-101769142D01*
X125486004Y-101812850D01*
X125377647Y-101862407D01*
X125275451Y-101909314D01*
X125187624Y-101949802D01*
X125122374Y-101980103D01*
X125088750Y-101995762D01*
X125012333Y-102030954D01*
X124942978Y-102062412D01*
X124892435Y-102084786D01*
X124814591Y-102118352D01*
X124787545Y-102281005D01*
X124778370Y-102332713D01*
X124763054Y-102400047D01*
X124747506Y-102441191D01*
X124730192Y-102460956D01*
X124726712Y-102462871D01*
X124694732Y-102479267D01*
X124640429Y-102506263D01*
X124570438Y-102540583D01*
X124491394Y-102578948D01*
X124402361Y-102620592D01*
X124330003Y-102650222D01*
X124284644Y-102661800D01*
X124265156Y-102654837D01*
X124270410Y-102628842D01*
X124299279Y-102583325D01*
X124350634Y-102517795D01*
X124400488Y-102453111D01*
X124432801Y-102399357D01*
X124440707Y-102364410D01*
X124439778Y-102358780D01*
X124425759Y-102320397D01*
X124398941Y-102310698D01*
X124353816Y-102327333D01*
X124345789Y-102331395D01*
X124311129Y-102346580D01*
X124294328Y-102349895D01*
X124287343Y-102336315D01*
X124270297Y-102296909D01*
X124246420Y-102238975D01*
X124218520Y-102169620D01*
X124189401Y-102095952D01*
X124161869Y-102025079D01*
X124138730Y-101964107D01*
X124122789Y-101920144D01*
X124116852Y-101900297D01*
X124116876Y-101899771D01*
X124131838Y-101882260D01*
X124166121Y-101863379D01*
X124170589Y-101861520D01*
X124200243Y-101845928D01*
X124206074Y-101826384D01*
X124192941Y-101789506D01*
X124190986Y-101785073D01*
X124165968Y-101751094D01*
X124124631Y-101728853D01*
X124061316Y-101716370D01*
X123970363Y-101711665D01*
X123956491Y-101711289D01*
X123906406Y-101707120D01*
X123872476Y-101700160D01*
X123859020Y-101691801D01*
X123851208Y-101670585D01*
X123863339Y-101660902D01*
X123901461Y-101640793D01*
X123958822Y-101614150D01*
X124028593Y-101583791D01*
X124103948Y-101552539D01*
X124178057Y-101523213D01*
X124244093Y-101498635D01*
X124295228Y-101481625D01*
X124324634Y-101475004D01*
X124332891Y-101476432D01*
X124368854Y-101491880D01*
X124420698Y-101520742D01*
X124480192Y-101558596D01*
X124505416Y-101575279D01*
X124561643Y-101609996D01*
X124606085Y-101634080D01*
X124630833Y-101643093D01*
X124631048Y-101643089D01*
X124654531Y-101636005D01*
X124703273Y-101616926D01*
X124772013Y-101588059D01*
X124855496Y-101551610D01*
X124948462Y-101509786D01*
X125097353Y-101441901D01*
X125259238Y-101368398D01*
X125396010Y-101307000D01*
X125510798Y-101256617D01*
X125606735Y-101216162D01*
X125686949Y-101184545D01*
X125754573Y-101160676D01*
X125812735Y-101143468D01*
X125864567Y-101131830D01*
X125913198Y-101124674D01*
X125961761Y-101120911D01*
X126013384Y-101119452D01*
X126071198Y-101119208D01*
X126090635Y-101119260D01*
G37*
G36*
X123812660Y-102281820D02*
G01*
X123812660Y-102549211D01*
X123546492Y-102673668D01*
X123530191Y-102681288D01*
X123439509Y-102723615D01*
X123326311Y-102776378D01*
X123197268Y-102836470D01*
X123059052Y-102900787D01*
X122918335Y-102966221D01*
X122781788Y-103029667D01*
X122763044Y-103038374D01*
X122610153Y-103109421D01*
X122450080Y-103183860D01*
X122287028Y-103259731D01*
X122125201Y-103335077D01*
X121968804Y-103407937D01*
X121822040Y-103476353D01*
X121689113Y-103538365D01*
X121574227Y-103592016D01*
X121481587Y-103635345D01*
X121415395Y-103666393D01*
X121328487Y-103714810D01*
X121237094Y-103790143D01*
X121175337Y-103875784D01*
X121173193Y-103880069D01*
X121158050Y-103918845D01*
X121148661Y-103965778D01*
X121143873Y-104029390D01*
X121142534Y-104118202D01*
X121143352Y-104175144D01*
X121146602Y-104237888D01*
X121151767Y-104280568D01*
X121158241Y-104296320D01*
X121172659Y-104291989D01*
X121212781Y-104275771D01*
X121270862Y-104250337D01*
X121339911Y-104218676D01*
X121397964Y-104191602D01*
X121487611Y-104149960D01*
X121591953Y-104101618D01*
X121702327Y-104050590D01*
X121810065Y-104000890D01*
X121905229Y-103957013D01*
X122010058Y-103908606D01*
X122107568Y-103863509D01*
X122189966Y-103825326D01*
X122249453Y-103797663D01*
X122315946Y-103766685D01*
X122418099Y-103719194D01*
X122538902Y-103663108D01*
X122671808Y-103601461D01*
X122810272Y-103537287D01*
X122947747Y-103473620D01*
X123077687Y-103413493D01*
X123193545Y-103359940D01*
X123288774Y-103315996D01*
X123329993Y-103296998D01*
X123528324Y-103205531D01*
X123703958Y-103124436D01*
X123854886Y-103054640D01*
X123979104Y-102997072D01*
X124074603Y-102952658D01*
X124085561Y-102947549D01*
X124164946Y-102910600D01*
X124245448Y-102873218D01*
X124311196Y-102842772D01*
X124338048Y-102830340D01*
X124399525Y-102801805D01*
X124482200Y-102763380D01*
X124580461Y-102717675D01*
X124688693Y-102667301D01*
X124801283Y-102614869D01*
X124863877Y-102585718D01*
X125000346Y-102522332D01*
X125111055Y-102471428D01*
X125199475Y-102431693D01*
X125269074Y-102401817D01*
X125323321Y-102380488D01*
X125365687Y-102366394D01*
X125399639Y-102358224D01*
X125428648Y-102354667D01*
X125456183Y-102354412D01*
X125485713Y-102356146D01*
X125535291Y-102363205D01*
X125625234Y-102398907D01*
X125698644Y-102463274D01*
X125755642Y-102556533D01*
X125796348Y-102678914D01*
X125820880Y-102830645D01*
X125829361Y-103011956D01*
X125820311Y-103197466D01*
X125790269Y-103364294D01*
X125737714Y-103511825D01*
X125661145Y-103644248D01*
X125559060Y-103765752D01*
X125542205Y-103782689D01*
X125509585Y-103813459D01*
X125475433Y-103841727D01*
X125436087Y-103869536D01*
X125387883Y-103898927D01*
X125327158Y-103931942D01*
X125250248Y-103970625D01*
X125153491Y-104017017D01*
X125033223Y-104073160D01*
X124885780Y-104141097D01*
X124753906Y-104201985D01*
X124568636Y-104288306D01*
X124353354Y-104389333D01*
X124108245Y-104504975D01*
X123833497Y-104635147D01*
X123529296Y-104779759D01*
X123195827Y-104938724D01*
X123122130Y-104973872D01*
X122985837Y-105038686D01*
X122877440Y-105089924D01*
X122795224Y-105128385D01*
X122737475Y-105154868D01*
X122702477Y-105170172D01*
X122688516Y-105175096D01*
X122686757Y-105168737D01*
X122684231Y-105134563D01*
X122682213Y-105075824D01*
X122680875Y-104998206D01*
X122680391Y-104907393D01*
X122680391Y-104639690D01*
X122955009Y-104511811D01*
X123007550Y-104487324D01*
X123107056Y-104440882D01*
X123227220Y-104384743D01*
X123362107Y-104321681D01*
X123505783Y-104254471D01*
X123652312Y-104185888D01*
X123795761Y-104118707D01*
X123919396Y-104060792D01*
X124047866Y-104000627D01*
X124166836Y-103944924D01*
X124272084Y-103895660D01*
X124359390Y-103854811D01*
X124424533Y-103824352D01*
X124463292Y-103806259D01*
X124507406Y-103785628D01*
X124581385Y-103750853D01*
X124666106Y-103710894D01*
X124750584Y-103670925D01*
X124815793Y-103640094D01*
X124905908Y-103597692D01*
X124989581Y-103558525D01*
X125054776Y-103528239D01*
X125138832Y-103486088D01*
X125225894Y-103428434D01*
X125286523Y-103364022D01*
X125324790Y-103286500D01*
X125344764Y-103189517D01*
X125350518Y-103066718D01*
X125350518Y-102895558D01*
X125118149Y-103002165D01*
X125046146Y-103035202D01*
X124953859Y-103077571D01*
X124873298Y-103114606D01*
X124799169Y-103148758D01*
X124726175Y-103182479D01*
X124649022Y-103218218D01*
X124562413Y-103258428D01*
X124461053Y-103305559D01*
X124339647Y-103362061D01*
X124192900Y-103430385D01*
X124134394Y-103457615D01*
X124014238Y-103513458D01*
X123903103Y-103565005D01*
X123805312Y-103610258D01*
X123725185Y-103647217D01*
X123667046Y-103673885D01*
X123635215Y-103688262D01*
X123598753Y-103704691D01*
X123536807Y-103733234D01*
X123461445Y-103768373D01*
X123381722Y-103805907D01*
X123333002Y-103828856D01*
X123238648Y-103872965D01*
X123129853Y-103923528D01*
X123016515Y-103975948D01*
X122908535Y-104025628D01*
X122834092Y-104059806D01*
X122727485Y-104108863D01*
X122625272Y-104156016D01*
X122536232Y-104197211D01*
X122469147Y-104228398D01*
X122361160Y-104278809D01*
X122145536Y-104379364D01*
X121957440Y-104466873D01*
X121794768Y-104542252D01*
X121655418Y-104606419D01*
X121537287Y-104660289D01*
X121438273Y-104704779D01*
X121356273Y-104740805D01*
X121289186Y-104769283D01*
X121234908Y-104791131D01*
X121191337Y-104807264D01*
X121156370Y-104818599D01*
X121127906Y-104826053D01*
X121103842Y-104830541D01*
X121082074Y-104832979D01*
X121022560Y-104833761D01*
X120918531Y-104812288D01*
X120829758Y-104761680D01*
X120757677Y-104683273D01*
X120703725Y-104578406D01*
X120669335Y-104448416D01*
X120666126Y-104428040D01*
X120655211Y-104279594D01*
X120662122Y-104119895D01*
X120685255Y-103957663D01*
X120723005Y-103801618D01*
X120773769Y-103660479D01*
X120835942Y-103542966D01*
X120881136Y-103477857D01*
X120929066Y-103419808D01*
X120982355Y-103368938D01*
X121046237Y-103321377D01*
X121125946Y-103273251D01*
X121226715Y-103220688D01*
X121353778Y-103159816D01*
X121427710Y-103125275D01*
X121533751Y-103075725D01*
X121633824Y-103028951D01*
X121733154Y-102982510D01*
X121836966Y-102933957D01*
X121950486Y-102880848D01*
X122078940Y-102820739D01*
X122227552Y-102751186D01*
X122401549Y-102669744D01*
X122647923Y-102554448D01*
X122876347Y-102447611D01*
X123076147Y-102354230D01*
X123248329Y-102273838D01*
X123393899Y-102205967D01*
X123513861Y-102150148D01*
X123609220Y-102105913D01*
X123680982Y-102072794D01*
X123730153Y-102050322D01*
X123757737Y-102038030D01*
X123812660Y-102014430D01*
X123812660Y-102281820D01*
G37*
%TD*%
M02*
