%TF.GenerationSoftware,KiCad,Pcbnew,7.0.6*%
%TF.CreationDate,2024-04-15T18:34:20+10:00*%
%TF.ProjectId,Rocketry_Payload_Main_DDR_Spec_V2,526f636b-6574-4727-995f-5061796c6f61,rev?*%
%TF.SameCoordinates,Original*%
%TF.FileFunction,Copper,L1,Top*%
%TF.FilePolarity,Positive*%
%FSLAX46Y46*%
G04 Gerber Fmt 4.6, Leading zero omitted, Abs format (unit mm)*
G04 Created by KiCad (PCBNEW 7.0.6) date 2024-04-15 18:34:20*
%MOMM*%
%LPD*%
G01*
G04 APERTURE LIST*
G04 Aperture macros list*
%AMRoundRect*
0 Rectangle with rounded corners*
0 $1 Rounding radius*
0 $2 $3 $4 $5 $6 $7 $8 $9 X,Y pos of 4 corners*
0 Add a 4 corners polygon primitive as box body*
4,1,4,$2,$3,$4,$5,$6,$7,$8,$9,$2,$3,0*
0 Add four circle primitives for the rounded corners*
1,1,$1+$1,$2,$3*
1,1,$1+$1,$4,$5*
1,1,$1+$1,$6,$7*
1,1,$1+$1,$8,$9*
0 Add four rect primitives between the rounded corners*
20,1,$1+$1,$2,$3,$4,$5,0*
20,1,$1+$1,$4,$5,$6,$7,0*
20,1,$1+$1,$6,$7,$8,$9,0*
20,1,$1+$1,$8,$9,$2,$3,0*%
G04 Aperture macros list end*
%TA.AperFunction,ComponentPad*%
%ADD10C,2.000000*%
%TD*%
%TA.AperFunction,SMDPad,CuDef*%
%ADD11RoundRect,0.250001X0.462499X0.624999X-0.462499X0.624999X-0.462499X-0.624999X0.462499X-0.624999X0*%
%TD*%
%TA.AperFunction,SMDPad,CuDef*%
%ADD12RoundRect,0.250000X-0.412500X-0.650000X0.412500X-0.650000X0.412500X0.650000X-0.412500X0.650000X0*%
%TD*%
%TA.AperFunction,ComponentPad*%
%ADD13RoundRect,0.250001X-1.399999X1.099999X-1.399999X-1.099999X1.399999X-1.099999X1.399999X1.099999X0*%
%TD*%
%TA.AperFunction,ComponentPad*%
%ADD14O,3.300000X2.700000*%
%TD*%
%TA.AperFunction,ComponentPad*%
%ADD15C,1.500000*%
%TD*%
%TA.AperFunction,ComponentPad*%
%ADD16RoundRect,0.250001X-0.499999X-0.499999X0.499999X-0.499999X0.499999X0.499999X-0.499999X0.499999X0*%
%TD*%
%TA.AperFunction,SMDPad,CuDef*%
%ADD17RoundRect,0.250000X0.400000X0.625000X-0.400000X0.625000X-0.400000X-0.625000X0.400000X-0.625000X0*%
%TD*%
%TA.AperFunction,ComponentPad*%
%ADD18C,1.400000*%
%TD*%
%TA.AperFunction,SMDPad,CuDef*%
%ADD19RoundRect,0.250000X-0.300000X2.050000X-0.300000X-2.050000X0.300000X-2.050000X0.300000X2.050000X0*%
%TD*%
%TA.AperFunction,SMDPad,CuDef*%
%ADD20RoundRect,0.250000X-2.375000X2.025000X-2.375000X-2.025000X2.375000X-2.025000X2.375000X2.025000X0*%
%TD*%
%TA.AperFunction,SMDPad,CuDef*%
%ADD21RoundRect,0.250002X-5.149998X4.449998X-5.149998X-4.449998X5.149998X-4.449998X5.149998X4.449998X0*%
%TD*%
%TA.AperFunction,SMDPad,CuDef*%
%ADD22RoundRect,0.250000X-0.400000X-0.625000X0.400000X-0.625000X0.400000X0.625000X-0.400000X0.625000X0*%
%TD*%
%TA.AperFunction,SMDPad,CuDef*%
%ADD23RoundRect,0.250000X0.625000X-0.400000X0.625000X0.400000X-0.625000X0.400000X-0.625000X-0.400000X0*%
%TD*%
%TA.AperFunction,ComponentPad*%
%ADD24RoundRect,0.250001X-0.499999X0.499999X-0.499999X-0.499999X0.499999X-0.499999X0.499999X0.499999X0*%
%TD*%
%TA.AperFunction,SMDPad,CuDef*%
%ADD25RoundRect,0.250000X-0.625000X0.400000X-0.625000X-0.400000X0.625000X-0.400000X0.625000X0.400000X0*%
%TD*%
%TA.AperFunction,SMDPad,CuDef*%
%ADD26RoundRect,0.250000X0.375000X0.625000X-0.375000X0.625000X-0.375000X-0.625000X0.375000X-0.625000X0*%
%TD*%
%TA.AperFunction,SMDPad,CuDef*%
%ADD27RoundRect,0.250000X-0.625000X0.312500X-0.625000X-0.312500X0.625000X-0.312500X0.625000X0.312500X0*%
%TD*%
%TA.AperFunction,SMDPad,CuDef*%
%ADD28RoundRect,0.250000X-0.650000X0.412500X-0.650000X-0.412500X0.650000X-0.412500X0.650000X0.412500X0*%
%TD*%
%TA.AperFunction,ComponentPad*%
%ADD29R,1.300000X1.300000*%
%TD*%
%TA.AperFunction,ComponentPad*%
%ADD30C,1.300000*%
%TD*%
%TA.AperFunction,ComponentPad*%
%ADD31R,1.600000X1.600000*%
%TD*%
%TA.AperFunction,ComponentPad*%
%ADD32C,1.600000*%
%TD*%
%TA.AperFunction,ComponentPad*%
%ADD33RoundRect,0.250001X1.099999X1.399999X-1.099999X1.399999X-1.099999X-1.399999X1.099999X-1.399999X0*%
%TD*%
%TA.AperFunction,ComponentPad*%
%ADD34O,2.700000X3.300000*%
%TD*%
%TA.AperFunction,SMDPad,CuDef*%
%ADD35RoundRect,0.250001X0.624999X-0.462499X0.624999X0.462499X-0.624999X0.462499X-0.624999X-0.462499X0*%
%TD*%
%TA.AperFunction,SMDPad,CuDef*%
%ADD36RoundRect,0.250000X0.325000X0.650000X-0.325000X0.650000X-0.325000X-0.650000X0.325000X-0.650000X0*%
%TD*%
%TA.AperFunction,ComponentPad*%
%ADD37RoundRect,0.250001X-1.099999X-1.399999X1.099999X-1.399999X1.099999X1.399999X-1.099999X1.399999X0*%
%TD*%
%TA.AperFunction,SMDPad,CuDef*%
%ADD38RoundRect,0.250000X-1.500000X-0.650000X1.500000X-0.650000X1.500000X0.650000X-1.500000X0.650000X0*%
%TD*%
%TA.AperFunction,SMDPad,CuDef*%
%ADD39RoundRect,0.250000X-0.650000X0.325000X-0.650000X-0.325000X0.650000X-0.325000X0.650000X0.325000X0*%
%TD*%
%TA.AperFunction,ComponentPad*%
%ADD40R,1.905000X2.000000*%
%TD*%
%TA.AperFunction,ComponentPad*%
%ADD41O,1.905000X2.000000*%
%TD*%
%TA.AperFunction,SMDPad,CuDef*%
%ADD42RoundRect,0.225000X0.375000X-0.225000X0.375000X0.225000X-0.375000X0.225000X-0.375000X-0.225000X0*%
%TD*%
%TA.AperFunction,ComponentPad*%
%ADD43R,1.700000X1.700000*%
%TD*%
%TA.AperFunction,ComponentPad*%
%ADD44O,1.700000X1.700000*%
%TD*%
%TA.AperFunction,SMDPad,CuDef*%
%ADD45RoundRect,0.250000X-0.625000X0.375000X-0.625000X-0.375000X0.625000X-0.375000X0.625000X0.375000X0*%
%TD*%
%TA.AperFunction,ComponentPad*%
%ADD46C,1.524000*%
%TD*%
%TA.AperFunction,SMDPad,CuDef*%
%ADD47RoundRect,0.250000X-0.375000X-0.625000X0.375000X-0.625000X0.375000X0.625000X-0.375000X0.625000X0*%
%TD*%
%TA.AperFunction,SMDPad,CuDef*%
%ADD48R,3.810000X4.240000*%
%TD*%
%TA.AperFunction,ViaPad*%
%ADD49C,1.000000*%
%TD*%
%TA.AperFunction,ViaPad*%
%ADD50C,1.500000*%
%TD*%
%TA.AperFunction,ViaPad*%
%ADD51C,0.800000*%
%TD*%
%TA.AperFunction,Conductor*%
%ADD52C,0.250000*%
%TD*%
%TA.AperFunction,Conductor*%
%ADD53C,1.000000*%
%TD*%
%TA.AperFunction,Conductor*%
%ADD54C,0.500000*%
%TD*%
%TA.AperFunction,Conductor*%
%ADD55C,0.100000*%
%TD*%
G04 APERTURE END LIST*
D10*
%TO.P,TP3,1,1*%
%TO.N,N/C*%
X172720000Y-69596000D03*
%TD*%
D11*
%TO.P,D1,1,K*%
%TO.N,Net-(D1-K)*%
X163195000Y-132842000D03*
%TO.P,D1,2,A*%
%TO.N,/0*%
X160220000Y-132842000D03*
%TD*%
D10*
%TO.P,TP4,1,1*%
%TO.N,12V_RAW*%
X167132000Y-69596000D03*
%TD*%
%TO.P,TP3,1,1*%
%TO.N,GND*%
X129540000Y-82296000D03*
%TD*%
%TO.P,TP2,1,1*%
%TO.N,/3.3V*%
X118364000Y-119634000D03*
%TD*%
D12*
%TO.P,C3,1*%
%TO.N,5V*%
X139915500Y-61976000D03*
%TO.P,C3,2*%
%TO.N,GND*%
X143040500Y-61976000D03*
%TD*%
D13*
%TO.P,J2,1,1*%
%TO.N,Net-(J2-Pad1)*%
X167386000Y-112522000D03*
D14*
%TO.P,J2,2,2*%
%TO.N,Net-(U5-FBA)*%
X167386000Y-116722000D03*
%TO.P,J2,3,3*%
%TO.N,unconnected-(J2-Pad3)*%
X161886000Y-112522000D03*
%TO.P,J2,4,4*%
%TO.N,Net-(U5-AUX)*%
X161886000Y-116722000D03*
%TD*%
D10*
%TO.P,TP6,1,1*%
%TO.N,5V*%
X138684000Y-53594000D03*
%TD*%
D15*
%TO.P,J1,2,Pin_2*%
%TO.N,Valve*%
X110744000Y-87328000D03*
D16*
%TO.P,J1,1,Pin_1*%
%TO.N,GND*%
X110744000Y-84328000D03*
%TD*%
D17*
%TO.P,R1,1*%
%TO.N,Net-(D7-K)*%
X168555000Y-59690000D03*
%TO.P,R1,2*%
%TO.N,GND*%
X165455000Y-59690000D03*
%TD*%
D11*
%TO.P,D2,2,A*%
%TO.N,/1*%
X160220000Y-129032000D03*
%TO.P,D2,1,K*%
%TO.N,Net-(D1-K)*%
X163195000Y-129032000D03*
%TD*%
D18*
%TO.P,SJ2,1,1*%
%TO.N,Net-(R4-Pad1)*%
X157480000Y-77450000D03*
%TO.P,SJ2,2,2*%
%TO.N,5V*%
X157480000Y-74910000D03*
%TD*%
D19*
%TO.P,U7,1,VI*%
%TO.N,12V_PROT*%
X132080000Y-63240000D03*
%TO.P,U7,2,GND*%
%TO.N,GND*%
X129540000Y-63240000D03*
D20*
X132315000Y-69965000D03*
X126765000Y-69965000D03*
D21*
X129540000Y-72390000D03*
D20*
X132315000Y-74815000D03*
X126765000Y-74815000D03*
D19*
%TO.P,U7,3,VO*%
%TO.N,5V*%
X127000000Y-63240000D03*
%TD*%
D22*
%TO.P,R3,1*%
%TO.N,Net-(D10-K)*%
X145490600Y-59182000D03*
%TO.P,R3,2*%
%TO.N,GND*%
X148590600Y-59182000D03*
%TD*%
%TO.P,R8,1*%
%TO.N,Net-(Q1-G)*%
X173430000Y-85344000D03*
%TO.P,R8,2*%
%TO.N,12V_RAW*%
X176530000Y-85344000D03*
%TD*%
D23*
%TO.P,R7,2*%
%TO.N,5V*%
X117094000Y-96494000D03*
%TO.P,R7,1*%
%TO.N,Net-(Q2-G)*%
X117094000Y-99594000D03*
%TD*%
D24*
%TO.P,U4,1,GND*%
%TO.N,GND*%
X128778000Y-123015000D03*
D15*
%TO.P,U4,2,Vin_2-6V*%
%TO.N,/3.3V*%
X128778000Y-126015000D03*
%TO.P,U4,3,SCL*%
%TO.N,/SCK{slash}SCL*%
X125778000Y-123015000D03*
%TO.P,U4,4,SDA*%
%TO.N,/SDI{slash}SDA*%
X125778000Y-126015000D03*
%TD*%
D25*
%TO.P,R5,1*%
%TO.N,/Test_Pin*%
X157480000Y-86080000D03*
%TO.P,R5,2*%
%TO.N,Net-(D6-A)*%
X157480000Y-89180000D03*
%TD*%
D26*
%TO.P,D10,1,K*%
%TO.N,Net-(D10-K)*%
X142827200Y-59283600D03*
%TO.P,D10,2,A*%
%TO.N,5V*%
X140027200Y-59283600D03*
%TD*%
D27*
%TO.P,R2,1*%
%TO.N,Net-(D9-K)*%
X157480000Y-54417500D03*
%TO.P,R2,2*%
%TO.N,GND*%
X157480000Y-57342500D03*
%TD*%
D28*
%TO.P,C1,1*%
%TO.N,5V*%
X137668000Y-126492000D03*
%TO.P,C1,2*%
%TO.N,GND*%
X137668000Y-129617000D03*
%TD*%
D29*
%TO.P,Q4,1,C*%
%TO.N,Net-(Q1-G)*%
X173482000Y-76052000D03*
D30*
%TO.P,Q4,2,B*%
%TO.N,/2*%
X174752000Y-74782000D03*
%TO.P,Q4,3,E*%
%TO.N,GND*%
X176022000Y-76052000D03*
%TD*%
D31*
%TO.P,U2,1,GND*%
%TO.N,GND*%
X153162000Y-123444000D03*
D32*
%TO.P,U2,2,0_RX1_CRX2_CS1*%
%TO.N,/0*%
X153162000Y-120904000D03*
%TO.P,U2,3,1_TX1_CTX2_MISO1*%
%TO.N,/1*%
X153162000Y-118364000D03*
%TO.P,U2,4,2_OUT2*%
%TO.N,/2*%
X153162000Y-115824000D03*
%TO.P,U2,5,3_LRCLK2*%
%TO.N,/3*%
X153162000Y-113284000D03*
%TO.P,U2,6,4_BCLK2*%
%TO.N,unconnected-(U2-4_BCLK2-Pad6)*%
X153162000Y-110744000D03*
%TO.P,U2,7,5_IN2*%
%TO.N,unconnected-(U2-5_IN2-Pad7)*%
X153162000Y-108204000D03*
%TO.P,U2,8,6_OUT1D*%
%TO.N,unconnected-(U2-6_OUT1D-Pad8)*%
X153162000Y-105664000D03*
%TO.P,U2,9,7_RX2_OUT1A*%
%TO.N,unconnected-(U2-7_RX2_OUT1A-Pad9)*%
X153162000Y-103124000D03*
%TO.P,U2,10,8_TX2_IN1*%
%TO.N,unconnected-(U2-8_TX2_IN1-Pad10)*%
X153162000Y-100584000D03*
%TO.P,U2,11,9_OUT1C*%
%TO.N,unconnected-(U2-9_OUT1C-Pad11)*%
X153162000Y-98044000D03*
%TO.P,U2,12,10_CS_MQSR*%
%TO.N,unconnected-(U2-10_CS_MQSR-Pad12)*%
X153162000Y-95504000D03*
%TO.P,U2,13,11_MOSI_CTX1*%
%TO.N,unconnected-(U2-11_MOSI_CTX1-Pad13)*%
X153162000Y-92964000D03*
%TO.P,U2,14,12_MISO_MQSL*%
%TO.N,unconnected-(U2-12_MISO_MQSL-Pad14)*%
X153162000Y-90424000D03*
%TO.P,U2,15,3V3*%
%TO.N,unconnected-(U2-3V3-Pad15)*%
X153162000Y-87884000D03*
%TO.P,U2,16,24_A10_TX6_SCL2*%
%TO.N,/SCL2*%
X153162000Y-85344000D03*
%TO.P,U2,17,25_A11_RX6_SDA2*%
%TO.N,/SDA2*%
X153162000Y-82804000D03*
%TO.P,U2,18,26_A12_MOSI1*%
%TO.N,unconnected-(U2-26_A12_MOSI1-Pad18)*%
X153162000Y-80264000D03*
%TO.P,U2,19,27_A13_SCK1*%
%TO.N,/Test_Pin*%
X153162000Y-77724000D03*
%TO.P,U2,20,28_RX7*%
%TO.N,unconnected-(U2-28_RX7-Pad20)*%
X153162000Y-75184000D03*
%TO.P,U2,21,29_TX7*%
%TO.N,unconnected-(U2-29_TX7-Pad21)*%
X153162000Y-72644000D03*
%TO.P,U2,22,30_CRX3*%
%TO.N,unconnected-(U2-30_CRX3-Pad22)*%
X153162000Y-70104000D03*
%TO.P,U2,23,31_CTX3*%
%TO.N,unconnected-(U2-31_CTX3-Pad23)*%
X153162000Y-67564000D03*
%TO.P,U2,24,32_OUT1B*%
%TO.N,unconnected-(U2-32_OUT1B-Pad24)*%
X153162000Y-65024000D03*
%TO.P,U2,25,33_MCLK2*%
%TO.N,unconnected-(U2-33_MCLK2-Pad25)*%
X137922000Y-65024000D03*
%TO.P,U2,26,34_RX8*%
%TO.N,unconnected-(U2-34_RX8-Pad26)*%
X137922000Y-67564000D03*
%TO.P,U2,27,35_TX8*%
%TO.N,unconnected-(U2-35_TX8-Pad27)*%
X137922000Y-70104000D03*
%TO.P,U2,28,36_CS*%
%TO.N,unconnected-(U2-36_CS-Pad28)*%
X137922000Y-72644000D03*
%TO.P,U2,29,37_CS*%
%TO.N,unconnected-(U2-37_CS-Pad29)*%
X137922000Y-75184000D03*
%TO.P,U2,30,38_CS1_IN1*%
%TO.N,unconnected-(U2-38_CS1_IN1-Pad30)*%
X137922000Y-77724000D03*
%TO.P,U2,31,39_MISO1_OUT1A*%
%TO.N,unconnected-(U2-39_MISO1_OUT1A-Pad31)*%
X137922000Y-80264000D03*
%TO.P,U2,32,40_A16*%
%TO.N,unconnected-(U2-40_A16-Pad32)*%
X137922000Y-82804000D03*
%TO.P,U2,33,41_A17*%
%TO.N,unconnected-(U2-41_A17-Pad33)*%
X137922000Y-85344000D03*
%TO.P,U2,34,GND*%
%TO.N,GND*%
X137922000Y-87884000D03*
%TO.P,U2,35,13_SCK_LED*%
%TO.N,unconnected-(U2-13_SCK_LED-Pad35)*%
X137922000Y-90424000D03*
%TO.P,U2,36,14_A0_TX3_SPDIF_OUT*%
%TO.N,unconnected-(U2-14_A0_TX3_SPDIF_OUT-Pad36)*%
X137922000Y-92964000D03*
%TO.P,U2,37,15_A1_RX3_SPDIF_IN*%
%TO.N,unconnected-(U2-15_A1_RX3_SPDIF_IN-Pad37)*%
X137922000Y-95504000D03*
%TO.P,U2,38,16_A2_RX4_SCL1*%
%TO.N,unconnected-(U2-16_A2_RX4_SCL1-Pad38)*%
X137922000Y-98044000D03*
%TO.P,U2,39,17_A3_TX4_SDA1*%
%TO.N,unconnected-(U2-17_A3_TX4_SDA1-Pad39)*%
X137922000Y-100584000D03*
%TO.P,U2,40,18_A4_SDA*%
%TO.N,/SDI{slash}SDA*%
X137922000Y-103124000D03*
%TO.P,U2,41,19_A5_SCL*%
%TO.N,/SCK{slash}SCL*%
X137922000Y-105664000D03*
%TO.P,U2,42,20_A6_TX5_LRCLK1*%
%TO.N,unconnected-(U2-20_A6_TX5_LRCLK1-Pad42)*%
X137922000Y-108204000D03*
%TO.P,U2,43,21_A7_RX5_BCLK1*%
%TO.N,unconnected-(U2-21_A7_RX5_BCLK1-Pad43)*%
X137922000Y-110744000D03*
%TO.P,U2,44,22_A8_CTX1*%
%TO.N,unconnected-(U2-22_A8_CTX1-Pad44)*%
X137922000Y-113284000D03*
%TO.P,U2,45,23_A9_CRX1_MCLK1*%
%TO.N,unconnected-(U2-23_A9_CRX1_MCLK1-Pad45)*%
X137922000Y-115824000D03*
%TO.P,U2,46,3V3*%
%TO.N,/3.3V*%
X137922000Y-118364000D03*
%TO.P,U2,47,GND*%
%TO.N,GND*%
X137922000Y-120904000D03*
%TO.P,U2,48,VIN*%
%TO.N,5V*%
X137922000Y-123444000D03*
%TD*%
D25*
%TO.P,R4,1*%
%TO.N,Net-(R4-Pad1)*%
X157480000Y-80365000D03*
%TO.P,R4,2*%
%TO.N,/Test_Pin*%
X157480000Y-83465000D03*
%TD*%
D33*
%TO.P,COMMISIONING_PWR1,1,Pin_1*%
%TO.N,GND*%
X179070000Y-69850000D03*
D34*
%TO.P,COMMISIONING_PWR1,2,Pin_2*%
%TO.N,12V_RAW*%
X179070000Y-64350000D03*
%TD*%
D35*
%TO.P,D6,1,K*%
%TO.N,GND*%
X157480000Y-94832500D03*
%TO.P,D6,2,A*%
%TO.N,Net-(D6-A)*%
X157480000Y-91857500D03*
%TD*%
D36*
%TO.P,C2,1*%
%TO.N,12V_PROT*%
X148541000Y-61976000D03*
%TO.P,C2,2*%
%TO.N,GND*%
X145591000Y-61976000D03*
%TD*%
D11*
%TO.P,D3,1,K*%
%TO.N,Net-(D1-K)*%
X163195000Y-124880000D03*
%TO.P,D3,2,A*%
%TO.N,/2*%
X160220000Y-124880000D03*
%TD*%
D37*
%TO.P,J3,1,Pin_1*%
%TO.N,Net-(J3-Pin_1)*%
X174752000Y-112522000D03*
D34*
%TO.P,J3,2,Pin_2*%
%TO.N,Net-(J3-Pin_2)*%
X174752000Y-118022000D03*
%TD*%
D38*
%TO.P,D8,1,K*%
%TO.N,Net-(D8-K)*%
X167680000Y-64135000D03*
%TO.P,D8,2,A*%
%TO.N,12V_RAW*%
X172680000Y-64135000D03*
%TD*%
D25*
%TO.P,R6,1*%
%TO.N,Net-(D1-K)*%
X166878000Y-120904000D03*
%TO.P,R6,2*%
%TO.N,GND*%
X166878000Y-124004000D03*
%TD*%
D10*
%TO.P,TP5,1,1*%
%TO.N,12V_PROT*%
X157632400Y-60096400D03*
%TD*%
D11*
%TO.P,D4,1,K*%
%TO.N,Net-(D1-K)*%
X163195000Y-121285000D03*
%TO.P,D4,2,A*%
%TO.N,/3*%
X160220000Y-121285000D03*
%TD*%
D39*
%TO.P,C4,1*%
%TO.N,Motor*%
X187325000Y-84275400D03*
%TO.P,C4,2*%
%TO.N,GND*%
X187325000Y-87225400D03*
%TD*%
D40*
%TO.P,Q1,1,D*%
%TO.N,Motor*%
X185293000Y-74803000D03*
D41*
%TO.P,Q1,2,G*%
%TO.N,Net-(Q1-G)*%
X182753000Y-74803000D03*
%TO.P,Q1,3,S*%
%TO.N,12V_RAW*%
X180213000Y-74803000D03*
%TD*%
D42*
%TO.P,D5,1,K*%
%TO.N,Valve*%
X117094000Y-92582000D03*
%TO.P,D5,2,A*%
%TO.N,GND*%
X117094000Y-89282000D03*
%TD*%
D43*
%TO.P,U6,1,GND*%
%TO.N,GND*%
X130810000Y-110236000D03*
D44*
%TO.P,U6,2,Cross*%
%TO.N,unconnected-(U6-Cross-Pad2)*%
X128270000Y-110236000D03*
%TO.P,U6,3,SCL*%
%TO.N,/SCK{slash}SCL*%
X125730000Y-110236000D03*
%TO.P,U6,4,SDA*%
%TO.N,/SDI{slash}SDA*%
X123190000Y-110236000D03*
%TO.P,U6,5,Vin_2-6V*%
%TO.N,/3.3V*%
X120650000Y-110236000D03*
%TD*%
D29*
%TO.P,Q6,1,C*%
%TO.N,Net-(Q2-G)*%
X108458000Y-104902000D03*
D30*
%TO.P,Q6,2,B*%
%TO.N,/3*%
X109728000Y-103632000D03*
%TO.P,Q6,3,E*%
%TO.N,GND*%
X110998000Y-104902000D03*
%TD*%
D45*
%TO.P,D9,1,K*%
%TO.N,Net-(D9-K)*%
X161925000Y-54480000D03*
%TO.P,D9,2,A*%
%TO.N,12V_PROT*%
X161925000Y-57280000D03*
%TD*%
D46*
%TO.P,U5,1,ERR*%
%TO.N,unconnected-(U5-ERR-Pad1)*%
X161116000Y-79656000D03*
%TO.P,U5,2,RST*%
%TO.N,unconnected-(U5-RST-Pad2)*%
X161136000Y-82196000D03*
%TO.P,U5,3,SCL*%
%TO.N,/SCL2*%
X161136000Y-84736000D03*
%TO.P,U5,4,SDA/AN*%
%TO.N,/SDA2*%
X161136000Y-87276000D03*
%TO.P,U5,5,GND*%
%TO.N,GND*%
X161136000Y-89816000D03*
%TO.P,U5,6,TX*%
%TO.N,unconnected-(U5-TX-Pad6)*%
X161136000Y-92356000D03*
%TO.P,U5,7,RX*%
%TO.N,unconnected-(U5-RX-Pad7)*%
X161136000Y-94896000D03*
%TO.P,U5,8,RC*%
%TO.N,unconnected-(U5-RC-Pad8)*%
X161136000Y-97436000D03*
%TO.P,U5,9,5V*%
%TO.N,unconnected-(U5-5V-Pad9)*%
X161136000Y-99976000D03*
%TO.P,U5,10,GND*%
%TO.N,GND*%
X161136000Y-102516000D03*
%TO.P,U5,11,GND*%
%TO.N,Net-(J2-Pad1)*%
X168756000Y-102516000D03*
%TO.P,U5,12,POT*%
%TO.N,unconnected-(U5-POT-Pad12)*%
X166216000Y-107596000D03*
%TO.P,U5,13,GND_DNU*%
%TO.N,unconnected-(U5-GND_DNU-Pad13)*%
X171296000Y-107596000D03*
%TO.P,U5,14,VM_DNU*%
%TO.N,unconnected-(U5-VM_DNU-Pad14)*%
X173836000Y-107596000D03*
%TO.P,U5,15,GND_DNU*%
%TO.N,unconnected-(U5-GND_DNU-Pad15)*%
X176376000Y-107596000D03*
%TO.P,U5,16*%
%TO.N,N/C*%
X178916000Y-107596000D03*
%TO.P,U5,17,5V*%
%TO.N,unconnected-(U5-5V-Pad17)*%
X166216000Y-105056000D03*
%TO.P,U5,18,AUX*%
%TO.N,Net-(U5-AUX)*%
X168756000Y-105056000D03*
%TO.P,U5,19,FBT*%
%TO.N,unconnected-(U5-FBT-Pad19)*%
X166216000Y-102516000D03*
%TO.P,U5,20,FBA*%
%TO.N,Net-(U5-FBA)*%
X168756000Y-107596000D03*
%TO.P,U5,21*%
%TO.N,N/C*%
X183996000Y-102516000D03*
%TO.P,U5,22*%
X181456000Y-102516000D03*
%TO.P,U5,23*%
X183996000Y-84736000D03*
%TO.P,U5,24*%
X181456000Y-84736000D03*
%TO.P,U5,25,VIN*%
%TO.N,Motor*%
X183361000Y-88368200D03*
%TO.P,U5,26,GND*%
%TO.N,GND*%
X183361000Y-91873400D03*
%TO.P,U5,27,OUTA*%
%TO.N,Net-(J3-Pin_1)*%
X183361000Y-95404000D03*
%TO.P,U5,28,OUTB*%
%TO.N,Net-(J3-Pin_2)*%
X183361000Y-98883800D03*
%TD*%
D47*
%TO.P,D7,1,K*%
%TO.N,Net-(D7-K)*%
X170685000Y-59690000D03*
%TO.P,D7,2,A*%
%TO.N,12V_RAW*%
X173485000Y-59690000D03*
%TD*%
D48*
%TO.P,F1,1*%
%TO.N,Net-(D8-K)*%
X161772600Y-70098600D03*
%TO.P,F1,2*%
%TO.N,12V_PROT*%
X161772600Y-63728600D03*
%TD*%
D40*
%TO.P,Q2,1,D*%
%TO.N,Valve*%
X107315000Y-96901000D03*
D41*
%TO.P,Q2,2,G*%
%TO.N,Net-(Q2-G)*%
X109855000Y-96901000D03*
%TO.P,Q2,3,S*%
%TO.N,5V*%
X112395000Y-96901000D03*
%TD*%
D49*
%TO.N,GND*%
X157480000Y-97155000D03*
D50*
X129540000Y-66548000D03*
D49*
X150368000Y-59944000D03*
X144272000Y-61976000D03*
X167894000Y-126746000D03*
D51*
X135305000Y-129617000D03*
D50*
X165542500Y-56707500D03*
X152882600Y-57327800D03*
D49*
%TO.N,5V*%
X129540000Y-59182000D03*
X136906000Y-59182000D03*
X141732000Y-67564000D03*
D50*
%TO.N,12V_RAW*%
X179197000Y-82804000D03*
D51*
%TO.N,/3*%
X158750000Y-121285000D03*
%TD*%
D52*
%TO.N,12V_RAW*%
X167219000Y-69596000D02*
X167132000Y-69596000D01*
D53*
X172680000Y-64135000D02*
X167219000Y-69596000D01*
D54*
%TO.N,Valve*%
X110744000Y-92582000D02*
X110744000Y-87328000D01*
%TO.N,GND*%
X112268000Y-84328000D02*
X117094000Y-89154000D01*
X110744000Y-84328000D02*
X112268000Y-84328000D01*
D52*
%TO.N,12V_RAW*%
X172680000Y-64135000D02*
X172974000Y-64429000D01*
%TO.N,/3.3V*%
X119380000Y-122428000D02*
X118364000Y-121412000D01*
X118364000Y-121412000D02*
X118364000Y-119634000D01*
X120713500Y-123761500D02*
X119380000Y-122428000D01*
X126746000Y-128016000D02*
X124968000Y-128016000D01*
X130271000Y-126015000D02*
X137922000Y-118364000D01*
X124968000Y-128016000D02*
X120713500Y-123761500D01*
X118110000Y-119634000D02*
X118872000Y-120396000D01*
X120650000Y-122174000D02*
X120650000Y-110236000D01*
X120650000Y-123698000D02*
X120650000Y-122174000D01*
X118872000Y-120396000D02*
X118618000Y-120142000D01*
X120713500Y-123761500D02*
X120650000Y-123698000D01*
X128778000Y-126015000D02*
X130271000Y-126015000D01*
X126746000Y-128016000D02*
X126777000Y-128016000D01*
X126777000Y-128016000D02*
X128778000Y-126015000D01*
D54*
%TO.N,GND*%
X149606000Y-59182000D02*
X150368000Y-59944000D01*
D52*
X129540000Y-66548000D02*
X129540000Y-72390000D01*
D54*
X166878000Y-124004000D02*
X166878000Y-125730000D01*
D53*
X165542500Y-56707500D02*
X165542500Y-59690000D01*
X187325000Y-87909400D02*
X183361000Y-91873400D01*
D54*
X137668000Y-129617000D02*
X135305000Y-129617000D01*
X142953000Y-61976000D02*
X144272000Y-61976000D01*
D53*
X152897300Y-57342500D02*
X152882600Y-57327800D01*
D54*
X166878000Y-125730000D02*
X167894000Y-126746000D01*
X157480000Y-94832500D02*
X157480000Y-97155000D01*
D52*
X129540000Y-63240000D02*
X129540000Y-66548000D01*
D55*
X117094000Y-89282000D02*
X117094000Y-89154000D01*
D53*
X157480000Y-57342500D02*
X152897300Y-57342500D01*
X187325000Y-87312900D02*
X187325000Y-87909400D01*
D54*
X148503100Y-59182000D02*
X149606000Y-59182000D01*
X144272000Y-61976000D02*
X145591000Y-61976000D01*
%TO.N,5V*%
X126752000Y-63240000D02*
X119634000Y-70358000D01*
X155956000Y-63246000D02*
X157480000Y-64770000D01*
X142035000Y-64008000D02*
X149352000Y-64008000D01*
X117120000Y-96494000D02*
X117094000Y-96494000D01*
X119634000Y-93980000D02*
X117120000Y-96494000D01*
X137922000Y-123444000D02*
X137922000Y-126238000D01*
X141732000Y-63754000D02*
X141756500Y-63729500D01*
X129540000Y-59182000D02*
X135128000Y-53594000D01*
X157480000Y-64770000D02*
X157480000Y-74910000D01*
X117094000Y-96494000D02*
X112802000Y-96494000D01*
X141732000Y-67564000D02*
X141732000Y-63754000D01*
X136906000Y-59182000D02*
X139925600Y-59182000D01*
X129540000Y-59182000D02*
X127000000Y-61722000D01*
X135128000Y-53594000D02*
X138684000Y-53594000D01*
X119634000Y-70358000D02*
X119634000Y-93980000D01*
X150114000Y-63246000D02*
X155956000Y-63246000D01*
X112802000Y-96494000D02*
X112395000Y-96901000D01*
X141756500Y-63729500D02*
X140003000Y-61976000D01*
X149352000Y-64008000D02*
X150114000Y-63246000D01*
X141756500Y-63729500D02*
X142035000Y-64008000D01*
X127000000Y-63240000D02*
X126752000Y-63240000D01*
X140027200Y-59283600D02*
X140027200Y-61951800D01*
D53*
%TO.N,12V_PROT*%
X150622000Y-61976000D02*
X148541000Y-61976000D01*
X152583000Y-60096400D02*
X152501600Y-60096400D01*
X157632400Y-60096400D02*
X152583000Y-60096400D01*
X161925000Y-60325000D02*
X161925000Y-57280000D01*
X135006200Y-57271800D02*
X132080000Y-60198000D01*
X161925000Y-60325000D02*
X157861000Y-60325000D01*
X152501600Y-60096400D02*
X150622000Y-61976000D01*
X161925000Y-64760000D02*
X161925000Y-60325000D01*
X152583000Y-60096400D02*
X149758400Y-57271800D01*
X132080000Y-60198000D02*
X132080000Y-63240000D01*
X135006200Y-57271800D02*
X149758400Y-57271800D01*
%TO.N,12V_RAW*%
X180213000Y-74803000D02*
X183324500Y-71691500D01*
D52*
X173485000Y-63330000D02*
X172680000Y-64135000D01*
D53*
X173485000Y-59690000D02*
X173485000Y-63330000D01*
X179197000Y-82804000D02*
X176657000Y-85344000D01*
X183324500Y-67119500D02*
X180555000Y-64350000D01*
X180555000Y-64350000D02*
X179070000Y-64350000D01*
X179070000Y-64350000D02*
X172895000Y-64350000D01*
X176657000Y-85344000D02*
X176530000Y-85344000D01*
X183324500Y-71691500D02*
X183324500Y-67119500D01*
D54*
%TO.N,Net-(D1-K)*%
X163195000Y-129452000D02*
X163195000Y-132842000D01*
X163195000Y-124880000D02*
X163195000Y-129452000D01*
X163195000Y-124880000D02*
X163195000Y-121490000D01*
X163195000Y-121285000D02*
X166497000Y-121285000D01*
D52*
%TO.N,/0*%
X155194000Y-122936000D02*
X155194000Y-128016000D01*
X155194000Y-128016000D02*
X160020000Y-132842000D01*
X153162000Y-120904000D02*
X155194000Y-122936000D01*
%TO.N,/1*%
X155956000Y-121158000D02*
X155956000Y-124768000D01*
X153162000Y-118364000D02*
X155956000Y-121158000D01*
X155956000Y-124768000D02*
X160220000Y-129032000D01*
%TO.N,/2*%
X156464000Y-117094000D02*
X155194000Y-115824000D01*
X171450000Y-74422000D02*
X174392000Y-74422000D01*
X170434000Y-78232000D02*
X170434000Y-75438000D01*
X156464000Y-121124000D02*
X156464000Y-117094000D01*
X170434000Y-75438000D02*
X171450000Y-74422000D01*
X160220000Y-124880000D02*
X156464000Y-121124000D01*
X163830000Y-84836000D02*
X170434000Y-78232000D01*
X155194000Y-115824000D02*
X153162000Y-115824000D01*
X174392000Y-74422000D02*
X174752000Y-74782000D01*
X155194000Y-115824000D02*
X156591000Y-114427000D01*
X163830000Y-102870000D02*
X163830000Y-84836000D01*
X156591000Y-114427000D02*
X156591000Y-110109000D01*
X156591000Y-110109000D02*
X163830000Y-102870000D01*
%TO.N,/3*%
X139192000Y-131572000D02*
X141732000Y-129032000D01*
X151130000Y-113284000D02*
X153162000Y-113284000D01*
X141732000Y-129032000D02*
X141732000Y-122682000D01*
X141732000Y-122682000D02*
X151130000Y-113284000D01*
X109728000Y-103632000D02*
X114300000Y-103632000D01*
X116205000Y-105537000D02*
X116205000Y-122174000D01*
X116205000Y-122174000D02*
X125603000Y-131572000D01*
X114300000Y-103632000D02*
X116205000Y-105537000D01*
X125603000Y-131572000D02*
X139192000Y-131572000D01*
X158750000Y-121285000D02*
X160015000Y-121285000D01*
D54*
%TO.N,Net-(D6-A)*%
X157480000Y-89180000D02*
X157480000Y-91857500D01*
D53*
%TO.N,Net-(D7-K)*%
X170685000Y-59690000D02*
X168467500Y-59690000D01*
%TO.N,Net-(D8-K)*%
X167680000Y-65375000D02*
X161925000Y-71130000D01*
X167680000Y-64135000D02*
X167680000Y-65375000D01*
%TO.N,Net-(D9-K)*%
X161925000Y-54480000D02*
X157542500Y-54480000D01*
D54*
%TO.N,Net-(D10-K)*%
X142827200Y-59283600D02*
X145476500Y-59283600D01*
D52*
%TO.N,/SCK{slash}SCL*%
X125730000Y-110236000D02*
X125730000Y-122967000D01*
X125730000Y-122967000D02*
X125778000Y-123015000D01*
X130302000Y-105664000D02*
X125730000Y-110236000D01*
X137922000Y-105664000D02*
X130302000Y-105664000D01*
%TO.N,/SDI{slash}SDA*%
X137922000Y-103124000D02*
X130302000Y-103124000D01*
X123190000Y-123427000D02*
X125778000Y-126015000D01*
X123190000Y-110236000D02*
X123190000Y-123427000D01*
X130302000Y-103124000D02*
X123190000Y-110236000D01*
%TO.N,Net-(U5-FBA)*%
X167386000Y-116722000D02*
X169554000Y-114554000D01*
X170180000Y-114046000D02*
X170180000Y-110998000D01*
X169672000Y-114554000D02*
X170180000Y-114046000D01*
X170180000Y-110998000D02*
X168756000Y-109574000D01*
X168756000Y-109574000D02*
X168756000Y-107596000D01*
X169554000Y-114554000D02*
X169672000Y-114554000D01*
%TO.N,Net-(U5-AUX)*%
X166243000Y-110109000D02*
X165100000Y-110109000D01*
X167513000Y-106299000D02*
X167513000Y-108839000D01*
X167513000Y-108839000D02*
X166243000Y-110109000D01*
X164465000Y-110744000D02*
X164465000Y-114143000D01*
X168756000Y-105056000D02*
X167513000Y-106299000D01*
X165100000Y-110109000D02*
X164465000Y-110744000D01*
X164465000Y-114143000D02*
X161886000Y-116722000D01*
D53*
%TO.N,Net-(J3-Pin_2)*%
X174752000Y-116586000D02*
X186182000Y-105156000D01*
X186182000Y-101704800D02*
X183361000Y-98883800D01*
X186182000Y-105156000D02*
X186182000Y-101704800D01*
X174752000Y-116586000D02*
X174752000Y-117820000D01*
D54*
%TO.N,Net-(R4-Pad1)*%
X157480000Y-77450000D02*
X157480000Y-80365000D01*
D52*
%TO.N,/SCL2*%
X158242000Y-87630000D02*
X161136000Y-84736000D01*
X155956000Y-87630000D02*
X158242000Y-87630000D01*
X153670000Y-85344000D02*
X155956000Y-87630000D01*
%TO.N,/Test_Pin*%
X155448000Y-79248000D02*
X155448000Y-81788000D01*
D54*
X157480000Y-83465000D02*
X157480000Y-86080000D01*
D52*
X153924000Y-77724000D02*
X155448000Y-79248000D01*
X153162000Y-77724000D02*
X153924000Y-77724000D01*
X155448000Y-81788000D02*
X157125000Y-83465000D01*
D54*
%TO.N,Valve*%
X109602000Y-92582000D02*
X109601000Y-92583000D01*
X110744000Y-92582000D02*
X109602000Y-92582000D01*
X107378500Y-96837500D02*
X107315000Y-96901000D01*
X107378500Y-94805500D02*
X107378500Y-96837500D01*
X109601000Y-92583000D02*
X107378500Y-94805500D01*
X117094000Y-92582000D02*
X110744000Y-92582000D01*
%TO.N,Net-(Q1-G)*%
X182880000Y-74930000D02*
X182753000Y-74803000D01*
X174752000Y-79756000D02*
X173482000Y-78486000D01*
X175006000Y-79756000D02*
X181610000Y-79756000D01*
X182880000Y-78486000D02*
X182880000Y-74930000D01*
X181610000Y-79756000D02*
X182880000Y-78486000D01*
X173430000Y-81332000D02*
X173430000Y-85344000D01*
X175006000Y-79756000D02*
X173430000Y-81332000D01*
X173482000Y-78486000D02*
X173482000Y-76052000D01*
X175006000Y-79756000D02*
X174752000Y-79756000D01*
D53*
%TO.N,Motor*%
X187325000Y-84404200D02*
X183361000Y-88368200D01*
X187325000Y-76835000D02*
X185293000Y-74803000D01*
X187325000Y-84275400D02*
X187325000Y-76835000D01*
D52*
%TO.N,Net-(Q2-G)*%
X109982000Y-99314000D02*
X108458000Y-100838000D01*
X116814000Y-99314000D02*
X109982000Y-99314000D01*
X108458000Y-100838000D02*
X108458000Y-104902000D01*
X109982000Y-97028000D02*
X109855000Y-96901000D01*
X109982000Y-99314000D02*
X109982000Y-97028000D01*
X117094000Y-99594000D02*
X116814000Y-99314000D01*
%TD*%
M02*
