%TF.GenerationSoftware,KiCad,Pcbnew,7.0.6*%
%TF.CreationDate,2024-04-16T16:57:35+10:00*%
%TF.ProjectId,Rocketry_Payload_Main_DDR_Spec_V2,526f636b-6574-4727-995f-5061796c6f61,rev?*%
%TF.SameCoordinates,Original*%
%TF.FileFunction,Soldermask,Top*%
%TF.FilePolarity,Negative*%
%FSLAX46Y46*%
G04 Gerber Fmt 4.6, Leading zero omitted, Abs format (unit mm)*
G04 Created by KiCad (PCBNEW 7.0.6) date 2024-04-16 16:57:35*
%MOMM*%
%LPD*%
G01*
G04 APERTURE LIST*
G04 Aperture macros list*
%AMRoundRect*
0 Rectangle with rounded corners*
0 $1 Rounding radius*
0 $2 $3 $4 $5 $6 $7 $8 $9 X,Y pos of 4 corners*
0 Add a 4 corners polygon primitive as box body*
4,1,4,$2,$3,$4,$5,$6,$7,$8,$9,$2,$3,0*
0 Add four circle primitives for the rounded corners*
1,1,$1+$1,$2,$3*
1,1,$1+$1,$4,$5*
1,1,$1+$1,$6,$7*
1,1,$1+$1,$8,$9*
0 Add four rect primitives between the rounded corners*
20,1,$1+$1,$2,$3,$4,$5,0*
20,1,$1+$1,$4,$5,$6,$7,0*
20,1,$1+$1,$6,$7,$8,$9,0*
20,1,$1+$1,$8,$9,$2,$3,0*%
G04 Aperture macros list end*
%ADD10C,2.000000*%
%ADD11RoundRect,0.250000X0.625000X-0.400000X0.625000X0.400000X-0.625000X0.400000X-0.625000X-0.400000X0*%
%ADD12RoundRect,0.250000X-0.625000X0.400000X-0.625000X-0.400000X0.625000X-0.400000X0.625000X0.400000X0*%
%ADD13RoundRect,0.250001X0.462499X0.624999X-0.462499X0.624999X-0.462499X-0.624999X0.462499X-0.624999X0*%
%ADD14C,6.700000*%
%ADD15RoundRect,0.250000X-0.412500X-0.650000X0.412500X-0.650000X0.412500X0.650000X-0.412500X0.650000X0*%
%ADD16RoundRect,0.250001X-1.399999X1.099999X-1.399999X-1.099999X1.399999X-1.099999X1.399999X1.099999X0*%
%ADD17O,3.300000X2.700000*%
%ADD18C,1.000000*%
%ADD19RoundRect,0.250001X-0.499999X-0.499999X0.499999X-0.499999X0.499999X0.499999X-0.499999X0.499999X0*%
%ADD20C,1.500000*%
%ADD21RoundRect,0.250000X0.400000X0.625000X-0.400000X0.625000X-0.400000X-0.625000X0.400000X-0.625000X0*%
%ADD22C,1.400000*%
%ADD23RoundRect,0.250000X-0.300000X2.050000X-0.300000X-2.050000X0.300000X-2.050000X0.300000X2.050000X0*%
%ADD24RoundRect,0.250002X-5.149998X4.449998X-5.149998X-4.449998X5.149998X-4.449998X5.149998X4.449998X0*%
%ADD25RoundRect,0.250000X-0.400000X-0.625000X0.400000X-0.625000X0.400000X0.625000X-0.400000X0.625000X0*%
%ADD26RoundRect,0.250001X-0.499999X0.499999X-0.499999X-0.499999X0.499999X-0.499999X0.499999X0.499999X0*%
%ADD27RoundRect,0.250000X0.375000X0.625000X-0.375000X0.625000X-0.375000X-0.625000X0.375000X-0.625000X0*%
%ADD28RoundRect,0.250000X-0.625000X0.312500X-0.625000X-0.312500X0.625000X-0.312500X0.625000X0.312500X0*%
%ADD29RoundRect,0.250000X-0.650000X0.412500X-0.650000X-0.412500X0.650000X-0.412500X0.650000X0.412500X0*%
%ADD30R,1.300000X1.300000*%
%ADD31C,1.300000*%
%ADD32R,1.600000X1.600000*%
%ADD33C,1.600000*%
%ADD34RoundRect,0.250001X1.099999X1.399999X-1.099999X1.399999X-1.099999X-1.399999X1.099999X-1.399999X0*%
%ADD35O,2.700000X3.300000*%
%ADD36RoundRect,0.250001X0.624999X-0.462499X0.624999X0.462499X-0.624999X0.462499X-0.624999X-0.462499X0*%
%ADD37RoundRect,0.250000X0.325000X0.650000X-0.325000X0.650000X-0.325000X-0.650000X0.325000X-0.650000X0*%
%ADD38C,2.500000*%
%ADD39RoundRect,0.250001X-1.099999X-1.399999X1.099999X-1.399999X1.099999X1.399999X-1.099999X1.399999X0*%
%ADD40RoundRect,0.250000X-1.500000X-0.650000X1.500000X-0.650000X1.500000X0.650000X-1.500000X0.650000X0*%
%ADD41RoundRect,0.250000X-0.650000X0.325000X-0.650000X-0.325000X0.650000X-0.325000X0.650000X0.325000X0*%
%ADD42R,1.905000X2.000000*%
%ADD43O,1.905000X2.000000*%
%ADD44RoundRect,0.225000X0.375000X-0.225000X0.375000X0.225000X-0.375000X0.225000X-0.375000X-0.225000X0*%
%ADD45R,1.700000X1.700000*%
%ADD46O,1.700000X1.700000*%
%ADD47RoundRect,0.250000X-0.625000X0.375000X-0.625000X-0.375000X0.625000X-0.375000X0.625000X0.375000X0*%
%ADD48C,1.524000*%
%ADD49RoundRect,0.250000X-0.375000X-0.625000X0.375000X-0.625000X0.375000X0.625000X-0.375000X0.625000X0*%
%ADD50R,3.810000X4.240000*%
G04 APERTURE END LIST*
D10*
%TO.C,TP3*%
X172593000Y-69596000D03*
%TD*%
D11*
%TO.C,R10*%
X116078000Y-107087000D03*
X116078000Y-103987000D03*
%TD*%
D12*
%TO.C,R9*%
X166624000Y-74142000D03*
X166624000Y-77242000D03*
%TD*%
D13*
%TO.C,D1*%
X163195000Y-132842000D03*
X160220000Y-132842000D03*
%TD*%
D10*
%TO.C,TP4*%
X167132000Y-69596000D03*
%TD*%
%TO.C,TP3*%
X129540000Y-82296000D03*
%TD*%
%TO.C,TP2*%
X118364000Y-119634000D03*
%TD*%
D14*
%TO.C,REF\u002A\u002A*%
X111461000Y-113916000D03*
%TD*%
D15*
%TO.C,C3*%
X139915500Y-61976000D03*
X143040500Y-61976000D03*
%TD*%
D16*
%TO.C,J2*%
X167386000Y-112522000D03*
D17*
X167386000Y-116722000D03*
X161886000Y-112522000D03*
X161886000Y-116722000D03*
%TD*%
D10*
%TO.C,TP6*%
X138684000Y-53594000D03*
%TD*%
D18*
%TO.C,J1*%
X107744000Y-88268000D03*
X113744000Y-88268000D03*
D19*
X110744000Y-84328000D03*
D20*
X110744000Y-87328000D03*
%TD*%
D21*
%TO.C,R1*%
X168555000Y-59690000D03*
X165455000Y-59690000D03*
%TD*%
D13*
%TO.C,D2*%
X163195000Y-129032000D03*
X160220000Y-129032000D03*
%TD*%
D22*
%TO.C,SJ2*%
X157480000Y-77450000D03*
X157480000Y-74910000D03*
%TD*%
D23*
%TO.C,U7*%
X132080000Y-63240000D03*
X129540000Y-63240000D03*
D24*
X129540000Y-72390000D03*
D23*
X127000000Y-63240000D03*
%TD*%
D25*
%TO.C,R3*%
X145490600Y-59182000D03*
X148590600Y-59182000D03*
%TD*%
%TO.C,R8*%
X173430000Y-85344000D03*
X176530000Y-85344000D03*
%TD*%
D11*
%TO.C,R7*%
X117094000Y-99594000D03*
X117094000Y-96494000D03*
%TD*%
D18*
%TO.C,U4*%
X124838000Y-120015000D03*
X124838000Y-129015000D03*
D26*
X128778000Y-123015000D03*
D20*
X128778000Y-126015000D03*
X125778000Y-123015000D03*
X125778000Y-126015000D03*
%TD*%
D12*
%TO.C,R5*%
X157480000Y-86080000D03*
X157480000Y-89180000D03*
%TD*%
D27*
%TO.C,D10*%
X142827200Y-59283600D03*
X140027200Y-59283600D03*
%TD*%
D28*
%TO.C,R2*%
X157480000Y-54417500D03*
X157480000Y-57342500D03*
%TD*%
D29*
%TO.C,C1*%
X137668000Y-126492000D03*
X137668000Y-129617000D03*
%TD*%
D30*
%TO.C,Q4*%
X173482000Y-76052000D03*
D31*
X174752000Y-74782000D03*
X176022000Y-76052000D03*
%TD*%
D32*
%TO.C,U2*%
X153162000Y-123444000D03*
D33*
X153162000Y-120904000D03*
X153162000Y-118364000D03*
X153162000Y-115824000D03*
X153162000Y-113284000D03*
X153162000Y-110744000D03*
X153162000Y-108204000D03*
X153162000Y-105664000D03*
X153162000Y-103124000D03*
X153162000Y-100584000D03*
X153162000Y-98044000D03*
X153162000Y-95504000D03*
X153162000Y-92964000D03*
X153162000Y-90424000D03*
X153162000Y-87884000D03*
X153162000Y-85344000D03*
X153162000Y-82804000D03*
X153162000Y-80264000D03*
X153162000Y-77724000D03*
X153162000Y-75184000D03*
X153162000Y-72644000D03*
X153162000Y-70104000D03*
X153162000Y-67564000D03*
X153162000Y-65024000D03*
X137922000Y-65024000D03*
X137922000Y-67564000D03*
X137922000Y-70104000D03*
X137922000Y-72644000D03*
X137922000Y-75184000D03*
X137922000Y-77724000D03*
X137922000Y-80264000D03*
X137922000Y-82804000D03*
X137922000Y-85344000D03*
X137922000Y-87884000D03*
X137922000Y-90424000D03*
X137922000Y-92964000D03*
X137922000Y-95504000D03*
X137922000Y-98044000D03*
X137922000Y-100584000D03*
X137922000Y-103124000D03*
X137922000Y-105664000D03*
X137922000Y-108204000D03*
X137922000Y-110744000D03*
X137922000Y-113284000D03*
X137922000Y-115824000D03*
X137922000Y-118364000D03*
X137922000Y-120904000D03*
X137922000Y-123444000D03*
%TD*%
D14*
%TO.C,REF\u002A\u002A*%
X148336000Y-50536497D03*
%TD*%
D12*
%TO.C,R4*%
X157480000Y-80365000D03*
X157480000Y-83465000D03*
%TD*%
D34*
%TO.C,COMMISIONING_PWR1*%
X179070000Y-69850000D03*
D35*
X179070000Y-64350000D03*
%TD*%
D36*
%TO.C,D6*%
X157480000Y-94832500D03*
X157480000Y-91857500D03*
%TD*%
D37*
%TO.C,C2*%
X148541000Y-61976000D03*
X145591000Y-61976000D03*
%TD*%
D13*
%TO.C,D3*%
X163195000Y-124880000D03*
X160220000Y-124880000D03*
%TD*%
D38*
%TO.C,REF\u002A\u002A*%
X132969000Y-94869000D03*
%TD*%
D39*
%TO.C,J3*%
X174752000Y-112522000D03*
D35*
X174752000Y-118022000D03*
%TD*%
D40*
%TO.C,D8*%
X167680000Y-64135000D03*
X172680000Y-64135000D03*
%TD*%
D12*
%TO.C,R6*%
X166878000Y-120904000D03*
X166878000Y-124004000D03*
%TD*%
D10*
%TO.C,TP5*%
X157632400Y-60096400D03*
%TD*%
D13*
%TO.C,D4*%
X163195000Y-121285000D03*
X160220000Y-121285000D03*
%TD*%
D41*
%TO.C,C4*%
X187325000Y-84275400D03*
X187325000Y-87225400D03*
%TD*%
D42*
%TO.C,Q1*%
X185293000Y-74803000D03*
D43*
X182753000Y-74803000D03*
X180213000Y-74803000D03*
%TD*%
D44*
%TO.C,D5*%
X117094000Y-92582000D03*
X117094000Y-89282000D03*
%TD*%
D45*
%TO.C,U6*%
X130810000Y-110236000D03*
D46*
X128270000Y-110236000D03*
X125730000Y-110236000D03*
X123190000Y-110236000D03*
X120650000Y-110236000D03*
%TD*%
D14*
%TO.C,REF\u002A\u002A*%
X185121000Y-113916000D03*
%TD*%
D30*
%TO.C,Q6*%
X108458000Y-104902000D03*
D31*
X109728000Y-103632000D03*
X110998000Y-104902000D03*
%TD*%
D47*
%TO.C,D9*%
X161925000Y-54480000D03*
X161925000Y-57280000D03*
%TD*%
D48*
%TO.C,U5*%
X161116000Y-79656000D03*
X161136000Y-82196000D03*
X161136000Y-84736000D03*
X161136000Y-87276000D03*
X161136000Y-89816000D03*
X161136000Y-92356000D03*
X161136000Y-94896000D03*
X161136000Y-97436000D03*
X161136000Y-99976000D03*
X161136000Y-102516000D03*
X168756000Y-102516000D03*
X166216000Y-107596000D03*
X171296000Y-107596000D03*
X173836000Y-107596000D03*
X176376000Y-107596000D03*
X178916000Y-107596000D03*
X166216000Y-105056000D03*
X168756000Y-105056000D03*
X166216000Y-102516000D03*
X168756000Y-107596000D03*
X183996000Y-102516000D03*
X181456000Y-102516000D03*
X183996000Y-84736000D03*
X181456000Y-84736000D03*
X183361000Y-88368200D03*
X183361000Y-91873400D03*
X183361000Y-95404000D03*
X183361000Y-98883800D03*
%TD*%
D49*
%TO.C,D7*%
X170685000Y-59690000D03*
X173485000Y-59690000D03*
%TD*%
D50*
%TO.C,F1*%
X161772600Y-70098600D03*
X161772600Y-63728600D03*
%TD*%
D42*
%TO.C,Q2*%
X107315000Y-96901000D03*
D43*
X109855000Y-96901000D03*
X112395000Y-96901000D03*
%TD*%
M02*
