%TF.GenerationSoftware,KiCad,Pcbnew,7.0.6*%
%TF.CreationDate,2024-04-16T16:57:38+10:00*%
%TF.ProjectId,Rocketry_Payload_Main_DDR_Spec_V2,526f636b-6574-4727-995f-5061796c6f61,rev?*%
%TF.SameCoordinates,Original*%
%TF.FileFunction,Drillmap*%
%TF.FilePolarity,Positive*%
%FSLAX45Y45*%
G04 Gerber Fmt 4.5, Leading zero omitted, Abs format (unit mm)*
G04 Created by KiCad (PCBNEW 7.0.6) date 2024-04-16 16:57:38*
%MOMM*%
%LPD*%
G01*
G04 APERTURE LIST*
%ADD10C,0.100000*%
%ADD11C,0.200000*%
%ADD12C,0.040000*%
%ADD13C,0.050000*%
%ADD14C,0.060000*%
%ADD15C,0.075000*%
%ADD16C,0.080000*%
%ADD17C,0.101600*%
%ADD18C,0.110000*%
%ADD19C,0.140000*%
G04 APERTURE END LIST*
D10*
X15468447Y-14172035D02*
X15468423Y-13522017D01*
X14198600Y-14173200D02*
X14198600Y-13523200D01*
X15468424Y-13522017D02*
G75*
G03*
X14198600Y-13523200I-634912J-592D01*
G01*
X15468447Y-14172035D02*
G75*
G03*
X14198600Y-14173200I-639386J4863885D01*
G01*
D11*
D12*
X15855000Y-12108500D02*
X15895000Y-12148500D01*
X15895000Y-12108500D02*
X15855000Y-12148500D01*
D13*
X13555500Y-12961700D02*
G75*
G03*
X13555500Y-12961700I-25000J0D01*
G01*
D14*
X12954000Y-5888200D02*
X12954000Y-5948200D01*
X12924000Y-5918200D02*
X12984000Y-5918200D01*
X13690600Y-5888200D02*
X13690600Y-5948200D01*
X13660600Y-5918200D02*
X13720600Y-5918200D01*
X14427200Y-6167600D02*
X14427200Y-6227600D01*
X14397200Y-6197600D02*
X14457200Y-6197600D01*
X15036800Y-5964400D02*
X15036800Y-6024400D01*
X15006800Y-5994400D02*
X15066800Y-5994400D01*
X15748000Y-9685500D02*
X15748000Y-9745500D01*
X15718000Y-9715500D02*
X15778000Y-9715500D01*
X16789400Y-12644600D02*
X16789400Y-12704600D01*
X16759400Y-12674600D02*
X16819400Y-12674600D01*
D15*
X10872317Y-10516717D02*
X10872317Y-10463683D01*
X10819283Y-10463683D01*
X10819283Y-10516717D01*
X10872317Y-10516717D01*
X10999317Y-10389717D02*
X10999317Y-10336683D01*
X10946283Y-10336683D01*
X10946283Y-10389717D01*
X10999317Y-10389717D01*
X11126317Y-10516717D02*
X11126317Y-10463683D01*
X11073283Y-10463683D01*
X11073283Y-10516717D01*
X11126317Y-10516717D01*
X17374717Y-7631717D02*
X17374717Y-7578683D01*
X17321683Y-7578683D01*
X17321683Y-7631717D01*
X17374717Y-7631717D01*
X17501717Y-7504717D02*
X17501717Y-7451683D01*
X17448683Y-7451683D01*
X17448683Y-7504717D01*
X17501717Y-7504717D01*
X17628717Y-7631717D02*
X17628717Y-7578683D01*
X17575683Y-7578683D01*
X17575683Y-7631717D01*
X17628717Y-7631717D01*
D16*
X15748000Y-7531000D02*
X15788000Y-7491000D01*
X15748000Y-7451000D01*
X15708000Y-7491000D01*
X15748000Y-7531000D01*
X15748000Y-7785000D02*
X15788000Y-7745000D01*
X15748000Y-7705000D01*
X15708000Y-7745000D01*
X15748000Y-7785000D01*
D10*
X12904000Y-6604800D02*
X13004000Y-6704800D01*
X13004000Y-6604800D02*
X12904000Y-6704800D01*
X13004000Y-6654800D02*
G75*
G03*
X13004000Y-6654800I-50000J0D01*
G01*
X15238260Y-5682780D02*
X15338260Y-5782780D01*
X15338260Y-5682780D02*
X15238260Y-5782780D01*
X15338260Y-5732780D02*
G75*
G03*
X15338260Y-5732780I-50000J0D01*
G01*
X16504250Y-5620750D02*
X16604250Y-5720750D01*
X16604250Y-5620750D02*
X16504250Y-5720750D01*
X16604250Y-5670750D02*
G75*
G03*
X16604250Y-5670750I-50000J0D01*
G01*
X17869700Y-8230400D02*
X17969700Y-8330400D01*
X17969700Y-8230400D02*
X17869700Y-8330400D01*
X17969700Y-8280400D02*
G75*
G03*
X17969700Y-8280400I-50000J0D01*
G01*
X11024400Y-8382800D02*
X11124400Y-8482800D01*
X11124400Y-8382800D02*
X11024400Y-8482800D01*
X11074400Y-8382800D02*
X11074400Y-8482800D01*
X11024400Y-8432800D02*
X11124400Y-8432800D01*
X11024400Y-8682800D02*
X11124400Y-8782800D01*
X11124400Y-8682800D02*
X11024400Y-8782800D01*
X11074400Y-8682800D02*
X11074400Y-8782800D01*
X11024400Y-8732800D02*
X11124400Y-8732800D01*
X11786400Y-11913400D02*
X11886400Y-12013400D01*
X11886400Y-11913400D02*
X11786400Y-12013400D01*
X11836400Y-11913400D02*
X11836400Y-12013400D01*
X11786400Y-11963400D02*
X11886400Y-11963400D01*
X12015000Y-10973600D02*
X12115000Y-11073600D01*
X12115000Y-10973600D02*
X12015000Y-11073600D01*
X12065000Y-10973600D02*
X12065000Y-11073600D01*
X12015000Y-11023600D02*
X12115000Y-11023600D01*
X12269000Y-10973600D02*
X12369000Y-11073600D01*
X12369000Y-10973600D02*
X12269000Y-11073600D01*
X12319000Y-10973600D02*
X12319000Y-11073600D01*
X12269000Y-11023600D02*
X12369000Y-11023600D01*
X12523000Y-10973600D02*
X12623000Y-11073600D01*
X12623000Y-10973600D02*
X12523000Y-11073600D01*
X12573000Y-10973600D02*
X12573000Y-11073600D01*
X12523000Y-11023600D02*
X12623000Y-11023600D01*
X12527800Y-12251500D02*
X12627800Y-12351500D01*
X12627800Y-12251500D02*
X12527800Y-12351500D01*
X12577800Y-12251500D02*
X12577800Y-12351500D01*
X12527800Y-12301500D02*
X12627800Y-12301500D01*
X12527800Y-12551500D02*
X12627800Y-12651500D01*
X12627800Y-12551500D02*
X12527800Y-12651500D01*
X12577800Y-12551500D02*
X12577800Y-12651500D01*
X12527800Y-12601500D02*
X12627800Y-12601500D01*
X12777000Y-10973600D02*
X12877000Y-11073600D01*
X12877000Y-10973600D02*
X12777000Y-11073600D01*
X12827000Y-10973600D02*
X12827000Y-11073600D01*
X12777000Y-11023600D02*
X12877000Y-11023600D01*
X12827800Y-12251500D02*
X12927800Y-12351500D01*
X12927800Y-12251500D02*
X12827800Y-12351500D01*
X12877800Y-12251500D02*
X12877800Y-12351500D01*
X12827800Y-12301500D02*
X12927800Y-12301500D01*
X12827800Y-12551500D02*
X12927800Y-12651500D01*
X12927800Y-12551500D02*
X12827800Y-12651500D01*
X12877800Y-12551500D02*
X12877800Y-12651500D01*
X12827800Y-12601500D02*
X12927800Y-12601500D01*
X12904000Y-8179600D02*
X13004000Y-8279600D01*
X13004000Y-8179600D02*
X12904000Y-8279600D01*
X12954000Y-8179600D02*
X12954000Y-8279600D01*
X12904000Y-8229600D02*
X13004000Y-8229600D01*
X13031000Y-10973600D02*
X13131000Y-11073600D01*
X13131000Y-10973600D02*
X13031000Y-11073600D01*
X13081000Y-10973600D02*
X13081000Y-11073600D01*
X13031000Y-11023600D02*
X13131000Y-11023600D01*
X13818400Y-5309400D02*
X13918400Y-5409400D01*
X13918400Y-5309400D02*
X13818400Y-5409400D01*
X13868400Y-5309400D02*
X13868400Y-5409400D01*
X13818400Y-5359400D02*
X13918400Y-5359400D01*
X15713240Y-5959640D02*
X15813240Y-6059640D01*
X15813240Y-5959640D02*
X15713240Y-6059640D01*
X15763240Y-5959640D02*
X15763240Y-6059640D01*
X15713240Y-6009640D02*
X15813240Y-6009640D01*
X16663200Y-6909600D02*
X16763200Y-7009600D01*
X16763200Y-6909600D02*
X16663200Y-7009600D01*
X16713200Y-6909600D02*
X16713200Y-7009600D01*
X16663200Y-6959600D02*
X16763200Y-6959600D01*
X17209300Y-6909600D02*
X17309300Y-7009600D01*
X17309300Y-6909600D02*
X17209300Y-7009600D01*
X17259300Y-6909600D02*
X17259300Y-7009600D01*
X17209300Y-6959600D02*
X17309300Y-6959600D01*
D17*
X16060800Y-7914800D02*
X16162400Y-8016400D01*
X16162400Y-7914800D02*
X16060800Y-8016400D01*
X16147521Y-8001521D02*
X16147521Y-7929679D01*
X16075679Y-7929679D01*
X16075679Y-8001521D01*
X16147521Y-8001521D01*
X16062800Y-8168800D02*
X16164400Y-8270400D01*
X16164400Y-8168800D02*
X16062800Y-8270400D01*
X16149521Y-8255521D02*
X16149521Y-8183679D01*
X16077679Y-8183679D01*
X16077679Y-8255521D01*
X16149521Y-8255521D01*
X16062800Y-8422800D02*
X16164400Y-8524400D01*
X16164400Y-8422800D02*
X16062800Y-8524400D01*
X16149521Y-8509521D02*
X16149521Y-8437679D01*
X16077679Y-8437679D01*
X16077679Y-8509521D01*
X16149521Y-8509521D01*
X16062800Y-8676800D02*
X16164400Y-8778400D01*
X16164400Y-8676800D02*
X16062800Y-8778400D01*
X16149521Y-8763521D02*
X16149521Y-8691679D01*
X16077679Y-8691679D01*
X16077679Y-8763521D01*
X16149521Y-8763521D01*
X16062800Y-8930800D02*
X16164400Y-9032400D01*
X16164400Y-8930800D02*
X16062800Y-9032400D01*
X16149521Y-9017521D02*
X16149521Y-8945679D01*
X16077679Y-8945679D01*
X16077679Y-9017521D01*
X16149521Y-9017521D01*
X16062800Y-9184800D02*
X16164400Y-9286400D01*
X16164400Y-9184800D02*
X16062800Y-9286400D01*
X16149521Y-9271521D02*
X16149521Y-9199679D01*
X16077679Y-9199679D01*
X16077679Y-9271521D01*
X16149521Y-9271521D01*
X16062800Y-9438800D02*
X16164400Y-9540400D01*
X16164400Y-9438800D02*
X16062800Y-9540400D01*
X16149521Y-9525521D02*
X16149521Y-9453679D01*
X16077679Y-9453679D01*
X16077679Y-9525521D01*
X16149521Y-9525521D01*
X16062800Y-9692800D02*
X16164400Y-9794400D01*
X16164400Y-9692800D02*
X16062800Y-9794400D01*
X16149521Y-9779521D02*
X16149521Y-9707679D01*
X16077679Y-9707679D01*
X16077679Y-9779521D01*
X16149521Y-9779521D01*
X16062800Y-9946800D02*
X16164400Y-10048400D01*
X16164400Y-9946800D02*
X16062800Y-10048400D01*
X16149521Y-10033521D02*
X16149521Y-9961679D01*
X16077679Y-9961679D01*
X16077679Y-10033521D01*
X16149521Y-10033521D01*
X16062800Y-10200800D02*
X16164400Y-10302400D01*
X16164400Y-10200800D02*
X16062800Y-10302400D01*
X16149521Y-10287521D02*
X16149521Y-10215679D01*
X16077679Y-10215679D01*
X16077679Y-10287521D01*
X16149521Y-10287521D01*
X16570800Y-10200800D02*
X16672400Y-10302400D01*
X16672400Y-10200800D02*
X16570800Y-10302400D01*
X16657521Y-10287521D02*
X16657521Y-10215679D01*
X16585679Y-10215679D01*
X16585679Y-10287521D01*
X16657521Y-10287521D01*
X16570800Y-10454800D02*
X16672400Y-10556400D01*
X16672400Y-10454800D02*
X16570800Y-10556400D01*
X16657521Y-10541521D02*
X16657521Y-10469679D01*
X16585679Y-10469679D01*
X16585679Y-10541521D01*
X16657521Y-10541521D01*
X16570800Y-10708800D02*
X16672400Y-10810400D01*
X16672400Y-10708800D02*
X16570800Y-10810400D01*
X16657521Y-10795521D02*
X16657521Y-10723679D01*
X16585679Y-10723679D01*
X16585679Y-10795521D01*
X16657521Y-10795521D01*
X16824800Y-10200800D02*
X16926400Y-10302400D01*
X16926400Y-10200800D02*
X16824800Y-10302400D01*
X16911521Y-10287521D02*
X16911521Y-10215679D01*
X16839679Y-10215679D01*
X16839679Y-10287521D01*
X16911521Y-10287521D01*
X16824800Y-10454800D02*
X16926400Y-10556400D01*
X16926400Y-10454800D02*
X16824800Y-10556400D01*
X16911521Y-10541521D02*
X16911521Y-10469679D01*
X16839679Y-10469679D01*
X16839679Y-10541521D01*
X16911521Y-10541521D01*
X16824800Y-10708800D02*
X16926400Y-10810400D01*
X16926400Y-10708800D02*
X16824800Y-10810400D01*
X16911521Y-10795521D02*
X16911521Y-10723679D01*
X16839679Y-10723679D01*
X16839679Y-10795521D01*
X16911521Y-10795521D01*
X17078800Y-10708800D02*
X17180400Y-10810400D01*
X17180400Y-10708800D02*
X17078800Y-10810400D01*
X17165521Y-10795521D02*
X17165521Y-10723679D01*
X17093679Y-10723679D01*
X17093679Y-10795521D01*
X17165521Y-10795521D01*
X17332800Y-10708800D02*
X17434400Y-10810400D01*
X17434400Y-10708800D02*
X17332800Y-10810400D01*
X17419521Y-10795521D02*
X17419521Y-10723679D01*
X17347679Y-10723679D01*
X17347679Y-10795521D01*
X17419521Y-10795521D01*
X17586800Y-10708800D02*
X17688400Y-10810400D01*
X17688400Y-10708800D02*
X17586800Y-10810400D01*
X17673521Y-10795521D02*
X17673521Y-10723679D01*
X17601679Y-10723679D01*
X17601679Y-10795521D01*
X17673521Y-10795521D01*
X17840800Y-10708800D02*
X17942400Y-10810400D01*
X17942400Y-10708800D02*
X17840800Y-10810400D01*
X17927521Y-10795521D02*
X17927521Y-10723679D01*
X17855679Y-10723679D01*
X17855679Y-10795521D01*
X17927521Y-10795521D01*
X18094800Y-8422800D02*
X18196400Y-8524400D01*
X18196400Y-8422800D02*
X18094800Y-8524400D01*
X18181521Y-8509521D02*
X18181521Y-8437679D01*
X18109679Y-8437679D01*
X18109679Y-8509521D01*
X18181521Y-8509521D01*
X18094800Y-10200800D02*
X18196400Y-10302400D01*
X18196400Y-10200800D02*
X18094800Y-10302400D01*
X18181521Y-10287521D02*
X18181521Y-10215679D01*
X18109679Y-10215679D01*
X18109679Y-10287521D01*
X18181521Y-10287521D01*
X18285300Y-8786020D02*
X18386900Y-8887620D01*
X18386900Y-8786020D02*
X18285300Y-8887620D01*
X18372021Y-8872741D02*
X18372021Y-8800899D01*
X18300179Y-8800899D01*
X18300179Y-8872741D01*
X18372021Y-8872741D01*
X18285300Y-9136540D02*
X18386900Y-9238140D01*
X18386900Y-9136540D02*
X18285300Y-9238140D01*
X18372021Y-9223261D02*
X18372021Y-9151419D01*
X18300179Y-9151419D01*
X18300179Y-9223261D01*
X18372021Y-9223261D01*
X18285300Y-9489600D02*
X18386900Y-9591200D01*
X18386900Y-9489600D02*
X18285300Y-9591200D01*
X18372021Y-9576321D02*
X18372021Y-9504479D01*
X18300179Y-9504479D01*
X18300179Y-9576321D01*
X18372021Y-9576321D01*
X18285300Y-9837580D02*
X18386900Y-9939180D01*
X18386900Y-9837580D02*
X18285300Y-9939180D01*
X18372021Y-9924301D02*
X18372021Y-9852459D01*
X18300179Y-9852459D01*
X18300179Y-9924301D01*
X18372021Y-9924301D01*
X18348800Y-8422800D02*
X18450400Y-8524400D01*
X18450400Y-8422800D02*
X18348800Y-8524400D01*
X18435521Y-8509521D02*
X18435521Y-8437679D01*
X18363679Y-8437679D01*
X18363679Y-8509521D01*
X18435521Y-8509521D01*
X18348800Y-10200800D02*
X18450400Y-10302400D01*
X18450400Y-10200800D02*
X18348800Y-10302400D01*
X18435521Y-10287521D02*
X18435521Y-10215679D01*
X18363679Y-10215679D01*
X18363679Y-10287521D01*
X18435521Y-10287521D01*
D18*
X10676500Y-9635100D02*
X10786500Y-9745100D01*
X10786500Y-9635100D02*
X10676500Y-9745100D01*
X10731500Y-9745100D02*
X10786500Y-9690100D01*
X10731500Y-9635100D01*
X10676500Y-9690100D01*
X10731500Y-9745100D01*
X10930500Y-9635100D02*
X11040500Y-9745100D01*
X11040500Y-9635100D02*
X10930500Y-9745100D01*
X10985500Y-9745100D02*
X11040500Y-9690100D01*
X10985500Y-9635100D01*
X10930500Y-9690100D01*
X10985500Y-9745100D01*
X11184500Y-9635100D02*
X11294500Y-9745100D01*
X11294500Y-9635100D02*
X11184500Y-9745100D01*
X11239500Y-9745100D02*
X11294500Y-9690100D01*
X11239500Y-9635100D01*
X11184500Y-9690100D01*
X11239500Y-9745100D01*
X13737200Y-6447400D02*
X13847200Y-6557400D01*
X13847200Y-6447400D02*
X13737200Y-6557400D01*
X13792200Y-6557400D02*
X13847200Y-6502400D01*
X13792200Y-6447400D01*
X13737200Y-6502400D01*
X13792200Y-6557400D01*
X13737200Y-6701400D02*
X13847200Y-6811400D01*
X13847200Y-6701400D02*
X13737200Y-6811400D01*
X13792200Y-6811400D02*
X13847200Y-6756400D01*
X13792200Y-6701400D01*
X13737200Y-6756400D01*
X13792200Y-6811400D01*
X13737200Y-6955400D02*
X13847200Y-7065400D01*
X13847200Y-6955400D02*
X13737200Y-7065400D01*
X13792200Y-7065400D02*
X13847200Y-7010400D01*
X13792200Y-6955400D01*
X13737200Y-7010400D01*
X13792200Y-7065400D01*
X13737200Y-7209400D02*
X13847200Y-7319400D01*
X13847200Y-7209400D02*
X13737200Y-7319400D01*
X13792200Y-7319400D02*
X13847200Y-7264400D01*
X13792200Y-7209400D01*
X13737200Y-7264400D01*
X13792200Y-7319400D01*
X13737200Y-7463400D02*
X13847200Y-7573400D01*
X13847200Y-7463400D02*
X13737200Y-7573400D01*
X13792200Y-7573400D02*
X13847200Y-7518400D01*
X13792200Y-7463400D01*
X13737200Y-7518400D01*
X13792200Y-7573400D01*
X13737200Y-7717400D02*
X13847200Y-7827400D01*
X13847200Y-7717400D02*
X13737200Y-7827400D01*
X13792200Y-7827400D02*
X13847200Y-7772400D01*
X13792200Y-7717400D01*
X13737200Y-7772400D01*
X13792200Y-7827400D01*
X13737200Y-7971400D02*
X13847200Y-8081400D01*
X13847200Y-7971400D02*
X13737200Y-8081400D01*
X13792200Y-8081400D02*
X13847200Y-8026400D01*
X13792200Y-7971400D01*
X13737200Y-8026400D01*
X13792200Y-8081400D01*
X13737200Y-8225400D02*
X13847200Y-8335400D01*
X13847200Y-8225400D02*
X13737200Y-8335400D01*
X13792200Y-8335400D02*
X13847200Y-8280400D01*
X13792200Y-8225400D01*
X13737200Y-8280400D01*
X13792200Y-8335400D01*
X13737200Y-8479400D02*
X13847200Y-8589400D01*
X13847200Y-8479400D02*
X13737200Y-8589400D01*
X13792200Y-8589400D02*
X13847200Y-8534400D01*
X13792200Y-8479400D01*
X13737200Y-8534400D01*
X13792200Y-8589400D01*
X13737200Y-8733400D02*
X13847200Y-8843400D01*
X13847200Y-8733400D02*
X13737200Y-8843400D01*
X13792200Y-8843400D02*
X13847200Y-8788400D01*
X13792200Y-8733400D01*
X13737200Y-8788400D01*
X13792200Y-8843400D01*
X13737200Y-8987400D02*
X13847200Y-9097400D01*
X13847200Y-8987400D02*
X13737200Y-9097400D01*
X13792200Y-9097400D02*
X13847200Y-9042400D01*
X13792200Y-8987400D01*
X13737200Y-9042400D01*
X13792200Y-9097400D01*
X13737200Y-9241400D02*
X13847200Y-9351400D01*
X13847200Y-9241400D02*
X13737200Y-9351400D01*
X13792200Y-9351400D02*
X13847200Y-9296400D01*
X13792200Y-9241400D01*
X13737200Y-9296400D01*
X13792200Y-9351400D01*
X13737200Y-9495400D02*
X13847200Y-9605400D01*
X13847200Y-9495400D02*
X13737200Y-9605400D01*
X13792200Y-9605400D02*
X13847200Y-9550400D01*
X13792200Y-9495400D01*
X13737200Y-9550400D01*
X13792200Y-9605400D01*
X13737200Y-9749400D02*
X13847200Y-9859400D01*
X13847200Y-9749400D02*
X13737200Y-9859400D01*
X13792200Y-9859400D02*
X13847200Y-9804400D01*
X13792200Y-9749400D01*
X13737200Y-9804400D01*
X13792200Y-9859400D01*
X13737200Y-10003400D02*
X13847200Y-10113400D01*
X13847200Y-10003400D02*
X13737200Y-10113400D01*
X13792200Y-10113400D02*
X13847200Y-10058400D01*
X13792200Y-10003400D01*
X13737200Y-10058400D01*
X13792200Y-10113400D01*
X13737200Y-10257400D02*
X13847200Y-10367400D01*
X13847200Y-10257400D02*
X13737200Y-10367400D01*
X13792200Y-10367400D02*
X13847200Y-10312400D01*
X13792200Y-10257400D01*
X13737200Y-10312400D01*
X13792200Y-10367400D01*
X13737200Y-10511400D02*
X13847200Y-10621400D01*
X13847200Y-10511400D02*
X13737200Y-10621400D01*
X13792200Y-10621400D02*
X13847200Y-10566400D01*
X13792200Y-10511400D01*
X13737200Y-10566400D01*
X13792200Y-10621400D01*
X13737200Y-10765400D02*
X13847200Y-10875400D01*
X13847200Y-10765400D02*
X13737200Y-10875400D01*
X13792200Y-10875400D02*
X13847200Y-10820400D01*
X13792200Y-10765400D01*
X13737200Y-10820400D01*
X13792200Y-10875400D01*
X13737200Y-11019400D02*
X13847200Y-11129400D01*
X13847200Y-11019400D02*
X13737200Y-11129400D01*
X13792200Y-11129400D02*
X13847200Y-11074400D01*
X13792200Y-11019400D01*
X13737200Y-11074400D01*
X13792200Y-11129400D01*
X13737200Y-11273400D02*
X13847200Y-11383400D01*
X13847200Y-11273400D02*
X13737200Y-11383400D01*
X13792200Y-11383400D02*
X13847200Y-11328400D01*
X13792200Y-11273400D01*
X13737200Y-11328400D01*
X13792200Y-11383400D01*
X13737200Y-11527400D02*
X13847200Y-11637400D01*
X13847200Y-11527400D02*
X13737200Y-11637400D01*
X13792200Y-11637400D02*
X13847200Y-11582400D01*
X13792200Y-11527400D01*
X13737200Y-11582400D01*
X13792200Y-11637400D01*
X13737200Y-11781400D02*
X13847200Y-11891400D01*
X13847200Y-11781400D02*
X13737200Y-11891400D01*
X13792200Y-11891400D02*
X13847200Y-11836400D01*
X13792200Y-11781400D01*
X13737200Y-11836400D01*
X13792200Y-11891400D01*
X13737200Y-12035400D02*
X13847200Y-12145400D01*
X13847200Y-12035400D02*
X13737200Y-12145400D01*
X13792200Y-12145400D02*
X13847200Y-12090400D01*
X13792200Y-12035400D01*
X13737200Y-12090400D01*
X13792200Y-12145400D01*
X13737200Y-12289400D02*
X13847200Y-12399400D01*
X13847200Y-12289400D02*
X13737200Y-12399400D01*
X13792200Y-12399400D02*
X13847200Y-12344400D01*
X13792200Y-12289400D01*
X13737200Y-12344400D01*
X13792200Y-12399400D01*
X15261200Y-6447400D02*
X15371200Y-6557400D01*
X15371200Y-6447400D02*
X15261200Y-6557400D01*
X15316200Y-6557400D02*
X15371200Y-6502400D01*
X15316200Y-6447400D01*
X15261200Y-6502400D01*
X15316200Y-6557400D01*
X15261200Y-6701400D02*
X15371200Y-6811400D01*
X15371200Y-6701400D02*
X15261200Y-6811400D01*
X15316200Y-6811400D02*
X15371200Y-6756400D01*
X15316200Y-6701400D01*
X15261200Y-6756400D01*
X15316200Y-6811400D01*
X15261200Y-6955400D02*
X15371200Y-7065400D01*
X15371200Y-6955400D02*
X15261200Y-7065400D01*
X15316200Y-7065400D02*
X15371200Y-7010400D01*
X15316200Y-6955400D01*
X15261200Y-7010400D01*
X15316200Y-7065400D01*
X15261200Y-7209400D02*
X15371200Y-7319400D01*
X15371200Y-7209400D02*
X15261200Y-7319400D01*
X15316200Y-7319400D02*
X15371200Y-7264400D01*
X15316200Y-7209400D01*
X15261200Y-7264400D01*
X15316200Y-7319400D01*
X15261200Y-7463400D02*
X15371200Y-7573400D01*
X15371200Y-7463400D02*
X15261200Y-7573400D01*
X15316200Y-7573400D02*
X15371200Y-7518400D01*
X15316200Y-7463400D01*
X15261200Y-7518400D01*
X15316200Y-7573400D01*
X15261200Y-7717400D02*
X15371200Y-7827400D01*
X15371200Y-7717400D02*
X15261200Y-7827400D01*
X15316200Y-7827400D02*
X15371200Y-7772400D01*
X15316200Y-7717400D01*
X15261200Y-7772400D01*
X15316200Y-7827400D01*
X15261200Y-7971400D02*
X15371200Y-8081400D01*
X15371200Y-7971400D02*
X15261200Y-8081400D01*
X15316200Y-8081400D02*
X15371200Y-8026400D01*
X15316200Y-7971400D01*
X15261200Y-8026400D01*
X15316200Y-8081400D01*
X15261200Y-8225400D02*
X15371200Y-8335400D01*
X15371200Y-8225400D02*
X15261200Y-8335400D01*
X15316200Y-8335400D02*
X15371200Y-8280400D01*
X15316200Y-8225400D01*
X15261200Y-8280400D01*
X15316200Y-8335400D01*
X15261200Y-8479400D02*
X15371200Y-8589400D01*
X15371200Y-8479400D02*
X15261200Y-8589400D01*
X15316200Y-8589400D02*
X15371200Y-8534400D01*
X15316200Y-8479400D01*
X15261200Y-8534400D01*
X15316200Y-8589400D01*
X15261200Y-8733400D02*
X15371200Y-8843400D01*
X15371200Y-8733400D02*
X15261200Y-8843400D01*
X15316200Y-8843400D02*
X15371200Y-8788400D01*
X15316200Y-8733400D01*
X15261200Y-8788400D01*
X15316200Y-8843400D01*
X15261200Y-8987400D02*
X15371200Y-9097400D01*
X15371200Y-8987400D02*
X15261200Y-9097400D01*
X15316200Y-9097400D02*
X15371200Y-9042400D01*
X15316200Y-8987400D01*
X15261200Y-9042400D01*
X15316200Y-9097400D01*
X15261200Y-9241400D02*
X15371200Y-9351400D01*
X15371200Y-9241400D02*
X15261200Y-9351400D01*
X15316200Y-9351400D02*
X15371200Y-9296400D01*
X15316200Y-9241400D01*
X15261200Y-9296400D01*
X15316200Y-9351400D01*
X15261200Y-9495400D02*
X15371200Y-9605400D01*
X15371200Y-9495400D02*
X15261200Y-9605400D01*
X15316200Y-9605400D02*
X15371200Y-9550400D01*
X15316200Y-9495400D01*
X15261200Y-9550400D01*
X15316200Y-9605400D01*
X15261200Y-9749400D02*
X15371200Y-9859400D01*
X15371200Y-9749400D02*
X15261200Y-9859400D01*
X15316200Y-9859400D02*
X15371200Y-9804400D01*
X15316200Y-9749400D01*
X15261200Y-9804400D01*
X15316200Y-9859400D01*
X15261200Y-10003400D02*
X15371200Y-10113400D01*
X15371200Y-10003400D02*
X15261200Y-10113400D01*
X15316200Y-10113400D02*
X15371200Y-10058400D01*
X15316200Y-10003400D01*
X15261200Y-10058400D01*
X15316200Y-10113400D01*
X15261200Y-10257400D02*
X15371200Y-10367400D01*
X15371200Y-10257400D02*
X15261200Y-10367400D01*
X15316200Y-10367400D02*
X15371200Y-10312400D01*
X15316200Y-10257400D01*
X15261200Y-10312400D01*
X15316200Y-10367400D01*
X15261200Y-10511400D02*
X15371200Y-10621400D01*
X15371200Y-10511400D02*
X15261200Y-10621400D01*
X15316200Y-10621400D02*
X15371200Y-10566400D01*
X15316200Y-10511400D01*
X15261200Y-10566400D01*
X15316200Y-10621400D01*
X15261200Y-10765400D02*
X15371200Y-10875400D01*
X15371200Y-10765400D02*
X15261200Y-10875400D01*
X15316200Y-10875400D02*
X15371200Y-10820400D01*
X15316200Y-10765400D01*
X15261200Y-10820400D01*
X15316200Y-10875400D01*
X15261200Y-11019400D02*
X15371200Y-11129400D01*
X15371200Y-11019400D02*
X15261200Y-11129400D01*
X15316200Y-11129400D02*
X15371200Y-11074400D01*
X15316200Y-11019400D01*
X15261200Y-11074400D01*
X15316200Y-11129400D01*
X15261200Y-11273400D02*
X15371200Y-11383400D01*
X15371200Y-11273400D02*
X15261200Y-11383400D01*
X15316200Y-11383400D02*
X15371200Y-11328400D01*
X15316200Y-11273400D01*
X15261200Y-11328400D01*
X15316200Y-11383400D01*
X15261200Y-11527400D02*
X15371200Y-11637400D01*
X15371200Y-11527400D02*
X15261200Y-11637400D01*
X15316200Y-11637400D02*
X15371200Y-11582400D01*
X15316200Y-11527400D01*
X15261200Y-11582400D01*
X15316200Y-11637400D01*
X15261200Y-11781400D02*
X15371200Y-11891400D01*
X15371200Y-11781400D02*
X15261200Y-11891400D01*
X15316200Y-11891400D02*
X15371200Y-11836400D01*
X15316200Y-11781400D01*
X15261200Y-11836400D01*
X15316200Y-11891400D01*
X15261200Y-12035400D02*
X15371200Y-12145400D01*
X15371200Y-12035400D02*
X15261200Y-12145400D01*
X15316200Y-12145400D02*
X15371200Y-12090400D01*
X15316200Y-12035400D01*
X15261200Y-12090400D01*
X15316200Y-12145400D01*
X15261200Y-12289400D02*
X15371200Y-12399400D01*
X15371200Y-12289400D02*
X15261200Y-12399400D01*
X15316200Y-12399400D02*
X15371200Y-12344400D01*
X15316200Y-12289400D01*
X15261200Y-12344400D01*
X15316200Y-12399400D01*
X17966300Y-7425300D02*
X18076300Y-7535300D01*
X18076300Y-7425300D02*
X17966300Y-7535300D01*
X18021300Y-7535300D02*
X18076300Y-7480300D01*
X18021300Y-7425300D01*
X17966300Y-7480300D01*
X18021300Y-7535300D01*
X18220300Y-7425300D02*
X18330300Y-7535300D01*
X18330300Y-7425300D02*
X18220300Y-7535300D01*
X18275300Y-7535300D02*
X18330300Y-7480300D01*
X18275300Y-7425300D01*
X18220300Y-7480300D01*
X18275300Y-7535300D01*
X18474300Y-7425300D02*
X18584300Y-7535300D01*
X18584300Y-7425300D02*
X18474300Y-7535300D01*
X18529300Y-7535300D02*
X18584300Y-7480300D01*
X18529300Y-7425300D01*
X18474300Y-7480300D01*
X18529300Y-7535300D01*
D19*
X16188600Y-11182200D02*
X16188600Y-11322200D01*
X16118600Y-11252200D02*
X16258600Y-11252200D01*
X16258600Y-11252200D02*
G75*
G03*
X16258600Y-11252200I-70000J0D01*
G01*
X16188600Y-11602200D02*
X16188600Y-11742200D01*
X16118600Y-11672200D02*
X16258600Y-11672200D01*
X16258600Y-11672200D02*
G75*
G03*
X16258600Y-11672200I-70000J0D01*
G01*
X16738600Y-11182200D02*
X16738600Y-11322200D01*
X16668600Y-11252200D02*
X16808600Y-11252200D01*
X16808600Y-11252200D02*
G75*
G03*
X16808600Y-11252200I-70000J0D01*
G01*
X16738600Y-11602200D02*
X16738600Y-11742200D01*
X16668600Y-11672200D02*
X16808600Y-11672200D01*
X16808600Y-11672200D02*
G75*
G03*
X16808600Y-11672200I-70000J0D01*
G01*
X17475200Y-11182200D02*
X17475200Y-11322200D01*
X17405200Y-11252200D02*
X17545200Y-11252200D01*
X17545200Y-11252200D02*
G75*
G03*
X17545200Y-11252200I-70000J0D01*
G01*
X17475200Y-11732200D02*
X17475200Y-11872200D01*
X17405200Y-11802200D02*
X17545200Y-11802200D01*
X17545200Y-11802200D02*
G75*
G03*
X17545200Y-11802200I-70000J0D01*
G01*
X17907000Y-6365000D02*
X17907000Y-6505000D01*
X17837000Y-6435000D02*
X17977000Y-6435000D01*
X17977000Y-6435000D02*
G75*
G03*
X17977000Y-6435000I-70000J0D01*
G01*
X17907000Y-6915000D02*
X17907000Y-7055000D01*
X17837000Y-6985000D02*
X17977000Y-6985000D01*
X17977000Y-6985000D02*
G75*
G03*
X17977000Y-6985000I-70000J0D01*
G01*
D11*
X10179107Y-14489684D02*
X10179107Y-14289684D01*
X10179107Y-14289684D02*
X10226726Y-14289684D01*
X10226726Y-14289684D02*
X10255298Y-14299207D01*
X10255298Y-14299207D02*
X10274345Y-14318255D01*
X10274345Y-14318255D02*
X10283869Y-14337303D01*
X10283869Y-14337303D02*
X10293393Y-14375398D01*
X10293393Y-14375398D02*
X10293393Y-14403969D01*
X10293393Y-14403969D02*
X10283869Y-14442065D01*
X10283869Y-14442065D02*
X10274345Y-14461112D01*
X10274345Y-14461112D02*
X10255298Y-14480160D01*
X10255298Y-14480160D02*
X10226726Y-14489684D01*
X10226726Y-14489684D02*
X10179107Y-14489684D01*
X10379107Y-14489684D02*
X10379107Y-14356350D01*
X10379107Y-14394446D02*
X10388631Y-14375398D01*
X10388631Y-14375398D02*
X10398155Y-14365874D01*
X10398155Y-14365874D02*
X10417202Y-14356350D01*
X10417202Y-14356350D02*
X10436250Y-14356350D01*
X10502917Y-14489684D02*
X10502917Y-14356350D01*
X10502917Y-14289684D02*
X10493393Y-14299207D01*
X10493393Y-14299207D02*
X10502917Y-14308731D01*
X10502917Y-14308731D02*
X10512440Y-14299207D01*
X10512440Y-14299207D02*
X10502917Y-14289684D01*
X10502917Y-14289684D02*
X10502917Y-14308731D01*
X10626726Y-14489684D02*
X10607678Y-14480160D01*
X10607678Y-14480160D02*
X10598155Y-14461112D01*
X10598155Y-14461112D02*
X10598155Y-14289684D01*
X10731488Y-14489684D02*
X10712440Y-14480160D01*
X10712440Y-14480160D02*
X10702917Y-14461112D01*
X10702917Y-14461112D02*
X10702917Y-14289684D01*
X10960059Y-14489684D02*
X10960059Y-14289684D01*
X10960059Y-14289684D02*
X11026726Y-14432541D01*
X11026726Y-14432541D02*
X11093393Y-14289684D01*
X11093393Y-14289684D02*
X11093393Y-14489684D01*
X11274345Y-14489684D02*
X11274345Y-14384922D01*
X11274345Y-14384922D02*
X11264821Y-14365874D01*
X11264821Y-14365874D02*
X11245774Y-14356350D01*
X11245774Y-14356350D02*
X11207678Y-14356350D01*
X11207678Y-14356350D02*
X11188631Y-14365874D01*
X11274345Y-14480160D02*
X11255297Y-14489684D01*
X11255297Y-14489684D02*
X11207678Y-14489684D01*
X11207678Y-14489684D02*
X11188631Y-14480160D01*
X11188631Y-14480160D02*
X11179107Y-14461112D01*
X11179107Y-14461112D02*
X11179107Y-14442065D01*
X11179107Y-14442065D02*
X11188631Y-14423017D01*
X11188631Y-14423017D02*
X11207678Y-14413493D01*
X11207678Y-14413493D02*
X11255297Y-14413493D01*
X11255297Y-14413493D02*
X11274345Y-14403969D01*
X11369583Y-14356350D02*
X11369583Y-14556350D01*
X11369583Y-14365874D02*
X11388631Y-14356350D01*
X11388631Y-14356350D02*
X11426726Y-14356350D01*
X11426726Y-14356350D02*
X11445774Y-14365874D01*
X11445774Y-14365874D02*
X11455297Y-14375398D01*
X11455297Y-14375398D02*
X11464821Y-14394446D01*
X11464821Y-14394446D02*
X11464821Y-14451588D01*
X11464821Y-14451588D02*
X11455297Y-14470636D01*
X11455297Y-14470636D02*
X11445774Y-14480160D01*
X11445774Y-14480160D02*
X11426726Y-14489684D01*
X11426726Y-14489684D02*
X11388631Y-14489684D01*
X11388631Y-14489684D02*
X11369583Y-14480160D01*
X11550536Y-14470636D02*
X11560059Y-14480160D01*
X11560059Y-14480160D02*
X11550536Y-14489684D01*
X11550536Y-14489684D02*
X11541012Y-14480160D01*
X11541012Y-14480160D02*
X11550536Y-14470636D01*
X11550536Y-14470636D02*
X11550536Y-14489684D01*
X11550536Y-14365874D02*
X11560059Y-14375398D01*
X11560059Y-14375398D02*
X11550536Y-14384922D01*
X11550536Y-14384922D02*
X11541012Y-14375398D01*
X11541012Y-14375398D02*
X11550536Y-14365874D01*
X11550536Y-14365874D02*
X11550536Y-14384922D01*
D12*
X9878330Y-14798200D02*
X9918330Y-14838200D01*
X9918330Y-14798200D02*
X9878330Y-14838200D01*
D11*
X10217202Y-14709684D02*
X10236250Y-14709684D01*
X10236250Y-14709684D02*
X10255298Y-14719207D01*
X10255298Y-14719207D02*
X10264821Y-14728731D01*
X10264821Y-14728731D02*
X10274345Y-14747779D01*
X10274345Y-14747779D02*
X10283869Y-14785874D01*
X10283869Y-14785874D02*
X10283869Y-14833493D01*
X10283869Y-14833493D02*
X10274345Y-14871588D01*
X10274345Y-14871588D02*
X10264821Y-14890636D01*
X10264821Y-14890636D02*
X10255298Y-14900160D01*
X10255298Y-14900160D02*
X10236250Y-14909684D01*
X10236250Y-14909684D02*
X10217202Y-14909684D01*
X10217202Y-14909684D02*
X10198155Y-14900160D01*
X10198155Y-14900160D02*
X10188631Y-14890636D01*
X10188631Y-14890636D02*
X10179107Y-14871588D01*
X10179107Y-14871588D02*
X10169583Y-14833493D01*
X10169583Y-14833493D02*
X10169583Y-14785874D01*
X10169583Y-14785874D02*
X10179107Y-14747779D01*
X10179107Y-14747779D02*
X10188631Y-14728731D01*
X10188631Y-14728731D02*
X10198155Y-14719207D01*
X10198155Y-14719207D02*
X10217202Y-14709684D01*
X10369583Y-14890636D02*
X10379107Y-14900160D01*
X10379107Y-14900160D02*
X10369583Y-14909684D01*
X10369583Y-14909684D02*
X10360059Y-14900160D01*
X10360059Y-14900160D02*
X10369583Y-14890636D01*
X10369583Y-14890636D02*
X10369583Y-14909684D01*
X10550536Y-14776350D02*
X10550536Y-14909684D01*
X10502917Y-14700160D02*
X10455298Y-14843017D01*
X10455298Y-14843017D02*
X10579107Y-14843017D01*
X10693393Y-14709684D02*
X10712440Y-14709684D01*
X10712440Y-14709684D02*
X10731488Y-14719207D01*
X10731488Y-14719207D02*
X10741012Y-14728731D01*
X10741012Y-14728731D02*
X10750536Y-14747779D01*
X10750536Y-14747779D02*
X10760059Y-14785874D01*
X10760059Y-14785874D02*
X10760059Y-14833493D01*
X10760059Y-14833493D02*
X10750536Y-14871588D01*
X10750536Y-14871588D02*
X10741012Y-14890636D01*
X10741012Y-14890636D02*
X10731488Y-14900160D01*
X10731488Y-14900160D02*
X10712440Y-14909684D01*
X10712440Y-14909684D02*
X10693393Y-14909684D01*
X10693393Y-14909684D02*
X10674345Y-14900160D01*
X10674345Y-14900160D02*
X10664821Y-14890636D01*
X10664821Y-14890636D02*
X10655298Y-14871588D01*
X10655298Y-14871588D02*
X10645774Y-14833493D01*
X10645774Y-14833493D02*
X10645774Y-14785874D01*
X10645774Y-14785874D02*
X10655298Y-14747779D01*
X10655298Y-14747779D02*
X10664821Y-14728731D01*
X10664821Y-14728731D02*
X10674345Y-14719207D01*
X10674345Y-14719207D02*
X10693393Y-14709684D01*
X10883869Y-14709684D02*
X10902917Y-14709684D01*
X10902917Y-14709684D02*
X10921964Y-14719207D01*
X10921964Y-14719207D02*
X10931488Y-14728731D01*
X10931488Y-14728731D02*
X10941012Y-14747779D01*
X10941012Y-14747779D02*
X10950536Y-14785874D01*
X10950536Y-14785874D02*
X10950536Y-14833493D01*
X10950536Y-14833493D02*
X10941012Y-14871588D01*
X10941012Y-14871588D02*
X10931488Y-14890636D01*
X10931488Y-14890636D02*
X10921964Y-14900160D01*
X10921964Y-14900160D02*
X10902917Y-14909684D01*
X10902917Y-14909684D02*
X10883869Y-14909684D01*
X10883869Y-14909684D02*
X10864821Y-14900160D01*
X10864821Y-14900160D02*
X10855298Y-14890636D01*
X10855298Y-14890636D02*
X10845774Y-14871588D01*
X10845774Y-14871588D02*
X10836250Y-14833493D01*
X10836250Y-14833493D02*
X10836250Y-14785874D01*
X10836250Y-14785874D02*
X10845774Y-14747779D01*
X10845774Y-14747779D02*
X10855298Y-14728731D01*
X10855298Y-14728731D02*
X10864821Y-14719207D01*
X10864821Y-14719207D02*
X10883869Y-14709684D01*
X11036250Y-14909684D02*
X11036250Y-14776350D01*
X11036250Y-14795398D02*
X11045774Y-14785874D01*
X11045774Y-14785874D02*
X11064821Y-14776350D01*
X11064821Y-14776350D02*
X11093393Y-14776350D01*
X11093393Y-14776350D02*
X11112440Y-14785874D01*
X11112440Y-14785874D02*
X11121964Y-14804922D01*
X11121964Y-14804922D02*
X11121964Y-14909684D01*
X11121964Y-14804922D02*
X11131488Y-14785874D01*
X11131488Y-14785874D02*
X11150536Y-14776350D01*
X11150536Y-14776350D02*
X11179107Y-14776350D01*
X11179107Y-14776350D02*
X11198155Y-14785874D01*
X11198155Y-14785874D02*
X11207678Y-14804922D01*
X11207678Y-14804922D02*
X11207678Y-14909684D01*
X11302917Y-14909684D02*
X11302917Y-14776350D01*
X11302917Y-14795398D02*
X11312440Y-14785874D01*
X11312440Y-14785874D02*
X11331488Y-14776350D01*
X11331488Y-14776350D02*
X11360059Y-14776350D01*
X11360059Y-14776350D02*
X11379107Y-14785874D01*
X11379107Y-14785874D02*
X11388631Y-14804922D01*
X11388631Y-14804922D02*
X11388631Y-14909684D01*
X11388631Y-14804922D02*
X11398155Y-14785874D01*
X11398155Y-14785874D02*
X11417202Y-14776350D01*
X11417202Y-14776350D02*
X11445774Y-14776350D01*
X11445774Y-14776350D02*
X11464821Y-14785874D01*
X11464821Y-14785874D02*
X11474345Y-14804922D01*
X11474345Y-14804922D02*
X11474345Y-14909684D01*
X11864821Y-14700160D02*
X11693393Y-14957303D01*
X12121964Y-14709684D02*
X12141012Y-14709684D01*
X12141012Y-14709684D02*
X12160060Y-14719207D01*
X12160060Y-14719207D02*
X12169583Y-14728731D01*
X12169583Y-14728731D02*
X12179107Y-14747779D01*
X12179107Y-14747779D02*
X12188631Y-14785874D01*
X12188631Y-14785874D02*
X12188631Y-14833493D01*
X12188631Y-14833493D02*
X12179107Y-14871588D01*
X12179107Y-14871588D02*
X12169583Y-14890636D01*
X12169583Y-14890636D02*
X12160060Y-14900160D01*
X12160060Y-14900160D02*
X12141012Y-14909684D01*
X12141012Y-14909684D02*
X12121964Y-14909684D01*
X12121964Y-14909684D02*
X12102917Y-14900160D01*
X12102917Y-14900160D02*
X12093393Y-14890636D01*
X12093393Y-14890636D02*
X12083869Y-14871588D01*
X12083869Y-14871588D02*
X12074345Y-14833493D01*
X12074345Y-14833493D02*
X12074345Y-14785874D01*
X12074345Y-14785874D02*
X12083869Y-14747779D01*
X12083869Y-14747779D02*
X12093393Y-14728731D01*
X12093393Y-14728731D02*
X12102917Y-14719207D01*
X12102917Y-14719207D02*
X12121964Y-14709684D01*
X12274345Y-14890636D02*
X12283869Y-14900160D01*
X12283869Y-14900160D02*
X12274345Y-14909684D01*
X12274345Y-14909684D02*
X12264821Y-14900160D01*
X12264821Y-14900160D02*
X12274345Y-14890636D01*
X12274345Y-14890636D02*
X12274345Y-14909684D01*
X12407679Y-14709684D02*
X12426726Y-14709684D01*
X12426726Y-14709684D02*
X12445774Y-14719207D01*
X12445774Y-14719207D02*
X12455298Y-14728731D01*
X12455298Y-14728731D02*
X12464821Y-14747779D01*
X12464821Y-14747779D02*
X12474345Y-14785874D01*
X12474345Y-14785874D02*
X12474345Y-14833493D01*
X12474345Y-14833493D02*
X12464821Y-14871588D01*
X12464821Y-14871588D02*
X12455298Y-14890636D01*
X12455298Y-14890636D02*
X12445774Y-14900160D01*
X12445774Y-14900160D02*
X12426726Y-14909684D01*
X12426726Y-14909684D02*
X12407679Y-14909684D01*
X12407679Y-14909684D02*
X12388631Y-14900160D01*
X12388631Y-14900160D02*
X12379107Y-14890636D01*
X12379107Y-14890636D02*
X12369583Y-14871588D01*
X12369583Y-14871588D02*
X12360060Y-14833493D01*
X12360060Y-14833493D02*
X12360060Y-14785874D01*
X12360060Y-14785874D02*
X12369583Y-14747779D01*
X12369583Y-14747779D02*
X12379107Y-14728731D01*
X12379107Y-14728731D02*
X12388631Y-14719207D01*
X12388631Y-14719207D02*
X12407679Y-14709684D01*
X12664821Y-14909684D02*
X12550536Y-14909684D01*
X12607679Y-14909684D02*
X12607679Y-14709684D01*
X12607679Y-14709684D02*
X12588631Y-14738255D01*
X12588631Y-14738255D02*
X12569583Y-14757303D01*
X12569583Y-14757303D02*
X12550536Y-14766826D01*
X12845774Y-14709684D02*
X12750536Y-14709684D01*
X12750536Y-14709684D02*
X12741012Y-14804922D01*
X12741012Y-14804922D02*
X12750536Y-14795398D01*
X12750536Y-14795398D02*
X12769583Y-14785874D01*
X12769583Y-14785874D02*
X12817202Y-14785874D01*
X12817202Y-14785874D02*
X12836250Y-14795398D01*
X12836250Y-14795398D02*
X12845774Y-14804922D01*
X12845774Y-14804922D02*
X12855298Y-14823969D01*
X12855298Y-14823969D02*
X12855298Y-14871588D01*
X12855298Y-14871588D02*
X12845774Y-14890636D01*
X12845774Y-14890636D02*
X12836250Y-14900160D01*
X12836250Y-14900160D02*
X12817202Y-14909684D01*
X12817202Y-14909684D02*
X12769583Y-14909684D01*
X12769583Y-14909684D02*
X12750536Y-14900160D01*
X12750536Y-14900160D02*
X12741012Y-14890636D01*
X12921964Y-14709684D02*
X13055298Y-14709684D01*
X13055298Y-14709684D02*
X12969583Y-14909684D01*
X13121964Y-14709684D02*
X13121964Y-14747779D01*
X13198155Y-14709684D02*
X13198155Y-14747779D01*
X13493393Y-14985874D02*
X13483869Y-14976350D01*
X13483869Y-14976350D02*
X13464822Y-14947779D01*
X13464822Y-14947779D02*
X13455298Y-14928731D01*
X13455298Y-14928731D02*
X13445774Y-14900160D01*
X13445774Y-14900160D02*
X13436250Y-14852541D01*
X13436250Y-14852541D02*
X13436250Y-14814446D01*
X13436250Y-14814446D02*
X13445774Y-14766826D01*
X13445774Y-14766826D02*
X13455298Y-14738255D01*
X13455298Y-14738255D02*
X13464822Y-14719207D01*
X13464822Y-14719207D02*
X13483869Y-14690636D01*
X13483869Y-14690636D02*
X13493393Y-14681112D01*
X13674345Y-14909684D02*
X13560060Y-14909684D01*
X13617202Y-14909684D02*
X13617202Y-14709684D01*
X13617202Y-14709684D02*
X13598155Y-14738255D01*
X13598155Y-14738255D02*
X13579107Y-14757303D01*
X13579107Y-14757303D02*
X13560060Y-14766826D01*
X13912441Y-14909684D02*
X13912441Y-14709684D01*
X13998155Y-14909684D02*
X13998155Y-14804922D01*
X13998155Y-14804922D02*
X13988631Y-14785874D01*
X13988631Y-14785874D02*
X13969584Y-14776350D01*
X13969584Y-14776350D02*
X13941012Y-14776350D01*
X13941012Y-14776350D02*
X13921964Y-14785874D01*
X13921964Y-14785874D02*
X13912441Y-14795398D01*
X14121964Y-14909684D02*
X14102917Y-14900160D01*
X14102917Y-14900160D02*
X14093393Y-14890636D01*
X14093393Y-14890636D02*
X14083869Y-14871588D01*
X14083869Y-14871588D02*
X14083869Y-14814446D01*
X14083869Y-14814446D02*
X14093393Y-14795398D01*
X14093393Y-14795398D02*
X14102917Y-14785874D01*
X14102917Y-14785874D02*
X14121964Y-14776350D01*
X14121964Y-14776350D02*
X14150536Y-14776350D01*
X14150536Y-14776350D02*
X14169584Y-14785874D01*
X14169584Y-14785874D02*
X14179107Y-14795398D01*
X14179107Y-14795398D02*
X14188631Y-14814446D01*
X14188631Y-14814446D02*
X14188631Y-14871588D01*
X14188631Y-14871588D02*
X14179107Y-14890636D01*
X14179107Y-14890636D02*
X14169584Y-14900160D01*
X14169584Y-14900160D02*
X14150536Y-14909684D01*
X14150536Y-14909684D02*
X14121964Y-14909684D01*
X14302917Y-14909684D02*
X14283869Y-14900160D01*
X14283869Y-14900160D02*
X14274345Y-14881112D01*
X14274345Y-14881112D02*
X14274345Y-14709684D01*
X14455298Y-14900160D02*
X14436250Y-14909684D01*
X14436250Y-14909684D02*
X14398155Y-14909684D01*
X14398155Y-14909684D02*
X14379107Y-14900160D01*
X14379107Y-14900160D02*
X14369584Y-14881112D01*
X14369584Y-14881112D02*
X14369584Y-14804922D01*
X14369584Y-14804922D02*
X14379107Y-14785874D01*
X14379107Y-14785874D02*
X14398155Y-14776350D01*
X14398155Y-14776350D02*
X14436250Y-14776350D01*
X14436250Y-14776350D02*
X14455298Y-14785874D01*
X14455298Y-14785874D02*
X14464822Y-14804922D01*
X14464822Y-14804922D02*
X14464822Y-14823969D01*
X14464822Y-14823969D02*
X14369584Y-14843017D01*
X14531488Y-14985874D02*
X14541012Y-14976350D01*
X14541012Y-14976350D02*
X14560060Y-14947779D01*
X14560060Y-14947779D02*
X14569584Y-14928731D01*
X14569584Y-14928731D02*
X14579107Y-14900160D01*
X14579107Y-14900160D02*
X14588631Y-14852541D01*
X14588631Y-14852541D02*
X14588631Y-14814446D01*
X14588631Y-14814446D02*
X14579107Y-14766826D01*
X14579107Y-14766826D02*
X14569584Y-14738255D01*
X14569584Y-14738255D02*
X14560060Y-14719207D01*
X14560060Y-14719207D02*
X14541012Y-14690636D01*
X14541012Y-14690636D02*
X14531488Y-14681112D01*
D13*
X9918330Y-15082200D02*
G75*
G03*
X9918330Y-15082200I-25000J0D01*
G01*
D11*
X10217202Y-14973684D02*
X10236250Y-14973684D01*
X10236250Y-14973684D02*
X10255298Y-14983207D01*
X10255298Y-14983207D02*
X10264821Y-14992731D01*
X10264821Y-14992731D02*
X10274345Y-15011779D01*
X10274345Y-15011779D02*
X10283869Y-15049874D01*
X10283869Y-15049874D02*
X10283869Y-15097493D01*
X10283869Y-15097493D02*
X10274345Y-15135588D01*
X10274345Y-15135588D02*
X10264821Y-15154636D01*
X10264821Y-15154636D02*
X10255298Y-15164160D01*
X10255298Y-15164160D02*
X10236250Y-15173684D01*
X10236250Y-15173684D02*
X10217202Y-15173684D01*
X10217202Y-15173684D02*
X10198155Y-15164160D01*
X10198155Y-15164160D02*
X10188631Y-15154636D01*
X10188631Y-15154636D02*
X10179107Y-15135588D01*
X10179107Y-15135588D02*
X10169583Y-15097493D01*
X10169583Y-15097493D02*
X10169583Y-15049874D01*
X10169583Y-15049874D02*
X10179107Y-15011779D01*
X10179107Y-15011779D02*
X10188631Y-14992731D01*
X10188631Y-14992731D02*
X10198155Y-14983207D01*
X10198155Y-14983207D02*
X10217202Y-14973684D01*
X10369583Y-15154636D02*
X10379107Y-15164160D01*
X10379107Y-15164160D02*
X10369583Y-15173684D01*
X10369583Y-15173684D02*
X10360059Y-15164160D01*
X10360059Y-15164160D02*
X10369583Y-15154636D01*
X10369583Y-15154636D02*
X10369583Y-15173684D01*
X10560059Y-14973684D02*
X10464821Y-14973684D01*
X10464821Y-14973684D02*
X10455298Y-15068922D01*
X10455298Y-15068922D02*
X10464821Y-15059398D01*
X10464821Y-15059398D02*
X10483869Y-15049874D01*
X10483869Y-15049874D02*
X10531488Y-15049874D01*
X10531488Y-15049874D02*
X10550536Y-15059398D01*
X10550536Y-15059398D02*
X10560059Y-15068922D01*
X10560059Y-15068922D02*
X10569583Y-15087969D01*
X10569583Y-15087969D02*
X10569583Y-15135588D01*
X10569583Y-15135588D02*
X10560059Y-15154636D01*
X10560059Y-15154636D02*
X10550536Y-15164160D01*
X10550536Y-15164160D02*
X10531488Y-15173684D01*
X10531488Y-15173684D02*
X10483869Y-15173684D01*
X10483869Y-15173684D02*
X10464821Y-15164160D01*
X10464821Y-15164160D02*
X10455298Y-15154636D01*
X10693393Y-14973684D02*
X10712440Y-14973684D01*
X10712440Y-14973684D02*
X10731488Y-14983207D01*
X10731488Y-14983207D02*
X10741012Y-14992731D01*
X10741012Y-14992731D02*
X10750536Y-15011779D01*
X10750536Y-15011779D02*
X10760059Y-15049874D01*
X10760059Y-15049874D02*
X10760059Y-15097493D01*
X10760059Y-15097493D02*
X10750536Y-15135588D01*
X10750536Y-15135588D02*
X10741012Y-15154636D01*
X10741012Y-15154636D02*
X10731488Y-15164160D01*
X10731488Y-15164160D02*
X10712440Y-15173684D01*
X10712440Y-15173684D02*
X10693393Y-15173684D01*
X10693393Y-15173684D02*
X10674345Y-15164160D01*
X10674345Y-15164160D02*
X10664821Y-15154636D01*
X10664821Y-15154636D02*
X10655298Y-15135588D01*
X10655298Y-15135588D02*
X10645774Y-15097493D01*
X10645774Y-15097493D02*
X10645774Y-15049874D01*
X10645774Y-15049874D02*
X10655298Y-15011779D01*
X10655298Y-15011779D02*
X10664821Y-14992731D01*
X10664821Y-14992731D02*
X10674345Y-14983207D01*
X10674345Y-14983207D02*
X10693393Y-14973684D01*
X10883869Y-14973684D02*
X10902917Y-14973684D01*
X10902917Y-14973684D02*
X10921964Y-14983207D01*
X10921964Y-14983207D02*
X10931488Y-14992731D01*
X10931488Y-14992731D02*
X10941012Y-15011779D01*
X10941012Y-15011779D02*
X10950536Y-15049874D01*
X10950536Y-15049874D02*
X10950536Y-15097493D01*
X10950536Y-15097493D02*
X10941012Y-15135588D01*
X10941012Y-15135588D02*
X10931488Y-15154636D01*
X10931488Y-15154636D02*
X10921964Y-15164160D01*
X10921964Y-15164160D02*
X10902917Y-15173684D01*
X10902917Y-15173684D02*
X10883869Y-15173684D01*
X10883869Y-15173684D02*
X10864821Y-15164160D01*
X10864821Y-15164160D02*
X10855298Y-15154636D01*
X10855298Y-15154636D02*
X10845774Y-15135588D01*
X10845774Y-15135588D02*
X10836250Y-15097493D01*
X10836250Y-15097493D02*
X10836250Y-15049874D01*
X10836250Y-15049874D02*
X10845774Y-15011779D01*
X10845774Y-15011779D02*
X10855298Y-14992731D01*
X10855298Y-14992731D02*
X10864821Y-14983207D01*
X10864821Y-14983207D02*
X10883869Y-14973684D01*
X11036250Y-15173684D02*
X11036250Y-15040350D01*
X11036250Y-15059398D02*
X11045774Y-15049874D01*
X11045774Y-15049874D02*
X11064821Y-15040350D01*
X11064821Y-15040350D02*
X11093393Y-15040350D01*
X11093393Y-15040350D02*
X11112440Y-15049874D01*
X11112440Y-15049874D02*
X11121964Y-15068922D01*
X11121964Y-15068922D02*
X11121964Y-15173684D01*
X11121964Y-15068922D02*
X11131488Y-15049874D01*
X11131488Y-15049874D02*
X11150536Y-15040350D01*
X11150536Y-15040350D02*
X11179107Y-15040350D01*
X11179107Y-15040350D02*
X11198155Y-15049874D01*
X11198155Y-15049874D02*
X11207678Y-15068922D01*
X11207678Y-15068922D02*
X11207678Y-15173684D01*
X11302917Y-15173684D02*
X11302917Y-15040350D01*
X11302917Y-15059398D02*
X11312440Y-15049874D01*
X11312440Y-15049874D02*
X11331488Y-15040350D01*
X11331488Y-15040350D02*
X11360059Y-15040350D01*
X11360059Y-15040350D02*
X11379107Y-15049874D01*
X11379107Y-15049874D02*
X11388631Y-15068922D01*
X11388631Y-15068922D02*
X11388631Y-15173684D01*
X11388631Y-15068922D02*
X11398155Y-15049874D01*
X11398155Y-15049874D02*
X11417202Y-15040350D01*
X11417202Y-15040350D02*
X11445774Y-15040350D01*
X11445774Y-15040350D02*
X11464821Y-15049874D01*
X11464821Y-15049874D02*
X11474345Y-15068922D01*
X11474345Y-15068922D02*
X11474345Y-15173684D01*
X11864821Y-14964160D02*
X11693393Y-15221303D01*
X12121964Y-14973684D02*
X12141012Y-14973684D01*
X12141012Y-14973684D02*
X12160060Y-14983207D01*
X12160060Y-14983207D02*
X12169583Y-14992731D01*
X12169583Y-14992731D02*
X12179107Y-15011779D01*
X12179107Y-15011779D02*
X12188631Y-15049874D01*
X12188631Y-15049874D02*
X12188631Y-15097493D01*
X12188631Y-15097493D02*
X12179107Y-15135588D01*
X12179107Y-15135588D02*
X12169583Y-15154636D01*
X12169583Y-15154636D02*
X12160060Y-15164160D01*
X12160060Y-15164160D02*
X12141012Y-15173684D01*
X12141012Y-15173684D02*
X12121964Y-15173684D01*
X12121964Y-15173684D02*
X12102917Y-15164160D01*
X12102917Y-15164160D02*
X12093393Y-15154636D01*
X12093393Y-15154636D02*
X12083869Y-15135588D01*
X12083869Y-15135588D02*
X12074345Y-15097493D01*
X12074345Y-15097493D02*
X12074345Y-15049874D01*
X12074345Y-15049874D02*
X12083869Y-15011779D01*
X12083869Y-15011779D02*
X12093393Y-14992731D01*
X12093393Y-14992731D02*
X12102917Y-14983207D01*
X12102917Y-14983207D02*
X12121964Y-14973684D01*
X12274345Y-15154636D02*
X12283869Y-15164160D01*
X12283869Y-15164160D02*
X12274345Y-15173684D01*
X12274345Y-15173684D02*
X12264821Y-15164160D01*
X12264821Y-15164160D02*
X12274345Y-15154636D01*
X12274345Y-15154636D02*
X12274345Y-15173684D01*
X12407679Y-14973684D02*
X12426726Y-14973684D01*
X12426726Y-14973684D02*
X12445774Y-14983207D01*
X12445774Y-14983207D02*
X12455298Y-14992731D01*
X12455298Y-14992731D02*
X12464821Y-15011779D01*
X12464821Y-15011779D02*
X12474345Y-15049874D01*
X12474345Y-15049874D02*
X12474345Y-15097493D01*
X12474345Y-15097493D02*
X12464821Y-15135588D01*
X12464821Y-15135588D02*
X12455298Y-15154636D01*
X12455298Y-15154636D02*
X12445774Y-15164160D01*
X12445774Y-15164160D02*
X12426726Y-15173684D01*
X12426726Y-15173684D02*
X12407679Y-15173684D01*
X12407679Y-15173684D02*
X12388631Y-15164160D01*
X12388631Y-15164160D02*
X12379107Y-15154636D01*
X12379107Y-15154636D02*
X12369583Y-15135588D01*
X12369583Y-15135588D02*
X12360060Y-15097493D01*
X12360060Y-15097493D02*
X12360060Y-15049874D01*
X12360060Y-15049874D02*
X12369583Y-15011779D01*
X12369583Y-15011779D02*
X12379107Y-14992731D01*
X12379107Y-14992731D02*
X12388631Y-14983207D01*
X12388631Y-14983207D02*
X12407679Y-14973684D01*
X12664821Y-15173684D02*
X12550536Y-15173684D01*
X12607679Y-15173684D02*
X12607679Y-14973684D01*
X12607679Y-14973684D02*
X12588631Y-15002255D01*
X12588631Y-15002255D02*
X12569583Y-15021303D01*
X12569583Y-15021303D02*
X12550536Y-15030826D01*
X12760060Y-15173684D02*
X12798155Y-15173684D01*
X12798155Y-15173684D02*
X12817202Y-15164160D01*
X12817202Y-15164160D02*
X12826726Y-15154636D01*
X12826726Y-15154636D02*
X12845774Y-15126065D01*
X12845774Y-15126065D02*
X12855298Y-15087969D01*
X12855298Y-15087969D02*
X12855298Y-15011779D01*
X12855298Y-15011779D02*
X12845774Y-14992731D01*
X12845774Y-14992731D02*
X12836250Y-14983207D01*
X12836250Y-14983207D02*
X12817202Y-14973684D01*
X12817202Y-14973684D02*
X12779107Y-14973684D01*
X12779107Y-14973684D02*
X12760060Y-14983207D01*
X12760060Y-14983207D02*
X12750536Y-14992731D01*
X12750536Y-14992731D02*
X12741012Y-15011779D01*
X12741012Y-15011779D02*
X12741012Y-15059398D01*
X12741012Y-15059398D02*
X12750536Y-15078446D01*
X12750536Y-15078446D02*
X12760060Y-15087969D01*
X12760060Y-15087969D02*
X12779107Y-15097493D01*
X12779107Y-15097493D02*
X12817202Y-15097493D01*
X12817202Y-15097493D02*
X12836250Y-15087969D01*
X12836250Y-15087969D02*
X12845774Y-15078446D01*
X12845774Y-15078446D02*
X12855298Y-15059398D01*
X12921964Y-14973684D02*
X13055298Y-14973684D01*
X13055298Y-14973684D02*
X12969583Y-15173684D01*
X13121964Y-14973684D02*
X13121964Y-15011779D01*
X13198155Y-14973684D02*
X13198155Y-15011779D01*
X13493393Y-15249874D02*
X13483869Y-15240350D01*
X13483869Y-15240350D02*
X13464822Y-15211779D01*
X13464822Y-15211779D02*
X13455298Y-15192731D01*
X13455298Y-15192731D02*
X13445774Y-15164160D01*
X13445774Y-15164160D02*
X13436250Y-15116541D01*
X13436250Y-15116541D02*
X13436250Y-15078446D01*
X13436250Y-15078446D02*
X13445774Y-15030826D01*
X13445774Y-15030826D02*
X13455298Y-15002255D01*
X13455298Y-15002255D02*
X13464822Y-14983207D01*
X13464822Y-14983207D02*
X13483869Y-14954636D01*
X13483869Y-14954636D02*
X13493393Y-14945112D01*
X13674345Y-15173684D02*
X13560060Y-15173684D01*
X13617202Y-15173684D02*
X13617202Y-14973684D01*
X13617202Y-14973684D02*
X13598155Y-15002255D01*
X13598155Y-15002255D02*
X13579107Y-15021303D01*
X13579107Y-15021303D02*
X13560060Y-15030826D01*
X13912441Y-15173684D02*
X13912441Y-14973684D01*
X13998155Y-15173684D02*
X13998155Y-15068922D01*
X13998155Y-15068922D02*
X13988631Y-15049874D01*
X13988631Y-15049874D02*
X13969584Y-15040350D01*
X13969584Y-15040350D02*
X13941012Y-15040350D01*
X13941012Y-15040350D02*
X13921964Y-15049874D01*
X13921964Y-15049874D02*
X13912441Y-15059398D01*
X14121964Y-15173684D02*
X14102917Y-15164160D01*
X14102917Y-15164160D02*
X14093393Y-15154636D01*
X14093393Y-15154636D02*
X14083869Y-15135588D01*
X14083869Y-15135588D02*
X14083869Y-15078446D01*
X14083869Y-15078446D02*
X14093393Y-15059398D01*
X14093393Y-15059398D02*
X14102917Y-15049874D01*
X14102917Y-15049874D02*
X14121964Y-15040350D01*
X14121964Y-15040350D02*
X14150536Y-15040350D01*
X14150536Y-15040350D02*
X14169584Y-15049874D01*
X14169584Y-15049874D02*
X14179107Y-15059398D01*
X14179107Y-15059398D02*
X14188631Y-15078446D01*
X14188631Y-15078446D02*
X14188631Y-15135588D01*
X14188631Y-15135588D02*
X14179107Y-15154636D01*
X14179107Y-15154636D02*
X14169584Y-15164160D01*
X14169584Y-15164160D02*
X14150536Y-15173684D01*
X14150536Y-15173684D02*
X14121964Y-15173684D01*
X14302917Y-15173684D02*
X14283869Y-15164160D01*
X14283869Y-15164160D02*
X14274345Y-15145112D01*
X14274345Y-15145112D02*
X14274345Y-14973684D01*
X14455298Y-15164160D02*
X14436250Y-15173684D01*
X14436250Y-15173684D02*
X14398155Y-15173684D01*
X14398155Y-15173684D02*
X14379107Y-15164160D01*
X14379107Y-15164160D02*
X14369584Y-15145112D01*
X14369584Y-15145112D02*
X14369584Y-15068922D01*
X14369584Y-15068922D02*
X14379107Y-15049874D01*
X14379107Y-15049874D02*
X14398155Y-15040350D01*
X14398155Y-15040350D02*
X14436250Y-15040350D01*
X14436250Y-15040350D02*
X14455298Y-15049874D01*
X14455298Y-15049874D02*
X14464822Y-15068922D01*
X14464822Y-15068922D02*
X14464822Y-15087969D01*
X14464822Y-15087969D02*
X14369584Y-15107017D01*
X14531488Y-15249874D02*
X14541012Y-15240350D01*
X14541012Y-15240350D02*
X14560060Y-15211779D01*
X14560060Y-15211779D02*
X14569584Y-15192731D01*
X14569584Y-15192731D02*
X14579107Y-15164160D01*
X14579107Y-15164160D02*
X14588631Y-15116541D01*
X14588631Y-15116541D02*
X14588631Y-15078446D01*
X14588631Y-15078446D02*
X14579107Y-15030826D01*
X14579107Y-15030826D02*
X14569584Y-15002255D01*
X14569584Y-15002255D02*
X14560060Y-14983207D01*
X14560060Y-14983207D02*
X14541012Y-14954636D01*
X14541012Y-14954636D02*
X14531488Y-14945112D01*
D14*
X9888330Y-15316200D02*
X9888330Y-15376200D01*
X9858330Y-15346200D02*
X9918330Y-15346200D01*
D11*
X10217202Y-15237684D02*
X10236250Y-15237684D01*
X10236250Y-15237684D02*
X10255298Y-15247207D01*
X10255298Y-15247207D02*
X10264821Y-15256731D01*
X10264821Y-15256731D02*
X10274345Y-15275779D01*
X10274345Y-15275779D02*
X10283869Y-15313874D01*
X10283869Y-15313874D02*
X10283869Y-15361493D01*
X10283869Y-15361493D02*
X10274345Y-15399588D01*
X10274345Y-15399588D02*
X10264821Y-15418636D01*
X10264821Y-15418636D02*
X10255298Y-15428160D01*
X10255298Y-15428160D02*
X10236250Y-15437684D01*
X10236250Y-15437684D02*
X10217202Y-15437684D01*
X10217202Y-15437684D02*
X10198155Y-15428160D01*
X10198155Y-15428160D02*
X10188631Y-15418636D01*
X10188631Y-15418636D02*
X10179107Y-15399588D01*
X10179107Y-15399588D02*
X10169583Y-15361493D01*
X10169583Y-15361493D02*
X10169583Y-15313874D01*
X10169583Y-15313874D02*
X10179107Y-15275779D01*
X10179107Y-15275779D02*
X10188631Y-15256731D01*
X10188631Y-15256731D02*
X10198155Y-15247207D01*
X10198155Y-15247207D02*
X10217202Y-15237684D01*
X10369583Y-15418636D02*
X10379107Y-15428160D01*
X10379107Y-15428160D02*
X10369583Y-15437684D01*
X10369583Y-15437684D02*
X10360059Y-15428160D01*
X10360059Y-15428160D02*
X10369583Y-15418636D01*
X10369583Y-15418636D02*
X10369583Y-15437684D01*
X10550536Y-15237684D02*
X10512440Y-15237684D01*
X10512440Y-15237684D02*
X10493393Y-15247207D01*
X10493393Y-15247207D02*
X10483869Y-15256731D01*
X10483869Y-15256731D02*
X10464821Y-15285303D01*
X10464821Y-15285303D02*
X10455298Y-15323398D01*
X10455298Y-15323398D02*
X10455298Y-15399588D01*
X10455298Y-15399588D02*
X10464821Y-15418636D01*
X10464821Y-15418636D02*
X10474345Y-15428160D01*
X10474345Y-15428160D02*
X10493393Y-15437684D01*
X10493393Y-15437684D02*
X10531488Y-15437684D01*
X10531488Y-15437684D02*
X10550536Y-15428160D01*
X10550536Y-15428160D02*
X10560059Y-15418636D01*
X10560059Y-15418636D02*
X10569583Y-15399588D01*
X10569583Y-15399588D02*
X10569583Y-15351969D01*
X10569583Y-15351969D02*
X10560059Y-15332922D01*
X10560059Y-15332922D02*
X10550536Y-15323398D01*
X10550536Y-15323398D02*
X10531488Y-15313874D01*
X10531488Y-15313874D02*
X10493393Y-15313874D01*
X10493393Y-15313874D02*
X10474345Y-15323398D01*
X10474345Y-15323398D02*
X10464821Y-15332922D01*
X10464821Y-15332922D02*
X10455298Y-15351969D01*
X10693393Y-15237684D02*
X10712440Y-15237684D01*
X10712440Y-15237684D02*
X10731488Y-15247207D01*
X10731488Y-15247207D02*
X10741012Y-15256731D01*
X10741012Y-15256731D02*
X10750536Y-15275779D01*
X10750536Y-15275779D02*
X10760059Y-15313874D01*
X10760059Y-15313874D02*
X10760059Y-15361493D01*
X10760059Y-15361493D02*
X10750536Y-15399588D01*
X10750536Y-15399588D02*
X10741012Y-15418636D01*
X10741012Y-15418636D02*
X10731488Y-15428160D01*
X10731488Y-15428160D02*
X10712440Y-15437684D01*
X10712440Y-15437684D02*
X10693393Y-15437684D01*
X10693393Y-15437684D02*
X10674345Y-15428160D01*
X10674345Y-15428160D02*
X10664821Y-15418636D01*
X10664821Y-15418636D02*
X10655298Y-15399588D01*
X10655298Y-15399588D02*
X10645774Y-15361493D01*
X10645774Y-15361493D02*
X10645774Y-15313874D01*
X10645774Y-15313874D02*
X10655298Y-15275779D01*
X10655298Y-15275779D02*
X10664821Y-15256731D01*
X10664821Y-15256731D02*
X10674345Y-15247207D01*
X10674345Y-15247207D02*
X10693393Y-15237684D01*
X10883869Y-15237684D02*
X10902917Y-15237684D01*
X10902917Y-15237684D02*
X10921964Y-15247207D01*
X10921964Y-15247207D02*
X10931488Y-15256731D01*
X10931488Y-15256731D02*
X10941012Y-15275779D01*
X10941012Y-15275779D02*
X10950536Y-15313874D01*
X10950536Y-15313874D02*
X10950536Y-15361493D01*
X10950536Y-15361493D02*
X10941012Y-15399588D01*
X10941012Y-15399588D02*
X10931488Y-15418636D01*
X10931488Y-15418636D02*
X10921964Y-15428160D01*
X10921964Y-15428160D02*
X10902917Y-15437684D01*
X10902917Y-15437684D02*
X10883869Y-15437684D01*
X10883869Y-15437684D02*
X10864821Y-15428160D01*
X10864821Y-15428160D02*
X10855298Y-15418636D01*
X10855298Y-15418636D02*
X10845774Y-15399588D01*
X10845774Y-15399588D02*
X10836250Y-15361493D01*
X10836250Y-15361493D02*
X10836250Y-15313874D01*
X10836250Y-15313874D02*
X10845774Y-15275779D01*
X10845774Y-15275779D02*
X10855298Y-15256731D01*
X10855298Y-15256731D02*
X10864821Y-15247207D01*
X10864821Y-15247207D02*
X10883869Y-15237684D01*
X11036250Y-15437684D02*
X11036250Y-15304350D01*
X11036250Y-15323398D02*
X11045774Y-15313874D01*
X11045774Y-15313874D02*
X11064821Y-15304350D01*
X11064821Y-15304350D02*
X11093393Y-15304350D01*
X11093393Y-15304350D02*
X11112440Y-15313874D01*
X11112440Y-15313874D02*
X11121964Y-15332922D01*
X11121964Y-15332922D02*
X11121964Y-15437684D01*
X11121964Y-15332922D02*
X11131488Y-15313874D01*
X11131488Y-15313874D02*
X11150536Y-15304350D01*
X11150536Y-15304350D02*
X11179107Y-15304350D01*
X11179107Y-15304350D02*
X11198155Y-15313874D01*
X11198155Y-15313874D02*
X11207678Y-15332922D01*
X11207678Y-15332922D02*
X11207678Y-15437684D01*
X11302917Y-15437684D02*
X11302917Y-15304350D01*
X11302917Y-15323398D02*
X11312440Y-15313874D01*
X11312440Y-15313874D02*
X11331488Y-15304350D01*
X11331488Y-15304350D02*
X11360059Y-15304350D01*
X11360059Y-15304350D02*
X11379107Y-15313874D01*
X11379107Y-15313874D02*
X11388631Y-15332922D01*
X11388631Y-15332922D02*
X11388631Y-15437684D01*
X11388631Y-15332922D02*
X11398155Y-15313874D01*
X11398155Y-15313874D02*
X11417202Y-15304350D01*
X11417202Y-15304350D02*
X11445774Y-15304350D01*
X11445774Y-15304350D02*
X11464821Y-15313874D01*
X11464821Y-15313874D02*
X11474345Y-15332922D01*
X11474345Y-15332922D02*
X11474345Y-15437684D01*
X11864821Y-15228160D02*
X11693393Y-15485303D01*
X12121964Y-15237684D02*
X12141012Y-15237684D01*
X12141012Y-15237684D02*
X12160060Y-15247207D01*
X12160060Y-15247207D02*
X12169583Y-15256731D01*
X12169583Y-15256731D02*
X12179107Y-15275779D01*
X12179107Y-15275779D02*
X12188631Y-15313874D01*
X12188631Y-15313874D02*
X12188631Y-15361493D01*
X12188631Y-15361493D02*
X12179107Y-15399588D01*
X12179107Y-15399588D02*
X12169583Y-15418636D01*
X12169583Y-15418636D02*
X12160060Y-15428160D01*
X12160060Y-15428160D02*
X12141012Y-15437684D01*
X12141012Y-15437684D02*
X12121964Y-15437684D01*
X12121964Y-15437684D02*
X12102917Y-15428160D01*
X12102917Y-15428160D02*
X12093393Y-15418636D01*
X12093393Y-15418636D02*
X12083869Y-15399588D01*
X12083869Y-15399588D02*
X12074345Y-15361493D01*
X12074345Y-15361493D02*
X12074345Y-15313874D01*
X12074345Y-15313874D02*
X12083869Y-15275779D01*
X12083869Y-15275779D02*
X12093393Y-15256731D01*
X12093393Y-15256731D02*
X12102917Y-15247207D01*
X12102917Y-15247207D02*
X12121964Y-15237684D01*
X12274345Y-15418636D02*
X12283869Y-15428160D01*
X12283869Y-15428160D02*
X12274345Y-15437684D01*
X12274345Y-15437684D02*
X12264821Y-15428160D01*
X12264821Y-15428160D02*
X12274345Y-15418636D01*
X12274345Y-15418636D02*
X12274345Y-15437684D01*
X12407679Y-15237684D02*
X12426726Y-15237684D01*
X12426726Y-15237684D02*
X12445774Y-15247207D01*
X12445774Y-15247207D02*
X12455298Y-15256731D01*
X12455298Y-15256731D02*
X12464821Y-15275779D01*
X12464821Y-15275779D02*
X12474345Y-15313874D01*
X12474345Y-15313874D02*
X12474345Y-15361493D01*
X12474345Y-15361493D02*
X12464821Y-15399588D01*
X12464821Y-15399588D02*
X12455298Y-15418636D01*
X12455298Y-15418636D02*
X12445774Y-15428160D01*
X12445774Y-15428160D02*
X12426726Y-15437684D01*
X12426726Y-15437684D02*
X12407679Y-15437684D01*
X12407679Y-15437684D02*
X12388631Y-15428160D01*
X12388631Y-15428160D02*
X12379107Y-15418636D01*
X12379107Y-15418636D02*
X12369583Y-15399588D01*
X12369583Y-15399588D02*
X12360060Y-15361493D01*
X12360060Y-15361493D02*
X12360060Y-15313874D01*
X12360060Y-15313874D02*
X12369583Y-15275779D01*
X12369583Y-15275779D02*
X12379107Y-15256731D01*
X12379107Y-15256731D02*
X12388631Y-15247207D01*
X12388631Y-15247207D02*
X12407679Y-15237684D01*
X12550536Y-15256731D02*
X12560060Y-15247207D01*
X12560060Y-15247207D02*
X12579107Y-15237684D01*
X12579107Y-15237684D02*
X12626726Y-15237684D01*
X12626726Y-15237684D02*
X12645774Y-15247207D01*
X12645774Y-15247207D02*
X12655298Y-15256731D01*
X12655298Y-15256731D02*
X12664821Y-15275779D01*
X12664821Y-15275779D02*
X12664821Y-15294826D01*
X12664821Y-15294826D02*
X12655298Y-15323398D01*
X12655298Y-15323398D02*
X12541012Y-15437684D01*
X12541012Y-15437684D02*
X12664821Y-15437684D01*
X12731488Y-15237684D02*
X12855298Y-15237684D01*
X12855298Y-15237684D02*
X12788631Y-15313874D01*
X12788631Y-15313874D02*
X12817202Y-15313874D01*
X12817202Y-15313874D02*
X12836250Y-15323398D01*
X12836250Y-15323398D02*
X12845774Y-15332922D01*
X12845774Y-15332922D02*
X12855298Y-15351969D01*
X12855298Y-15351969D02*
X12855298Y-15399588D01*
X12855298Y-15399588D02*
X12845774Y-15418636D01*
X12845774Y-15418636D02*
X12836250Y-15428160D01*
X12836250Y-15428160D02*
X12817202Y-15437684D01*
X12817202Y-15437684D02*
X12760060Y-15437684D01*
X12760060Y-15437684D02*
X12741012Y-15428160D01*
X12741012Y-15428160D02*
X12731488Y-15418636D01*
X13026726Y-15237684D02*
X12988631Y-15237684D01*
X12988631Y-15237684D02*
X12969583Y-15247207D01*
X12969583Y-15247207D02*
X12960060Y-15256731D01*
X12960060Y-15256731D02*
X12941012Y-15285303D01*
X12941012Y-15285303D02*
X12931488Y-15323398D01*
X12931488Y-15323398D02*
X12931488Y-15399588D01*
X12931488Y-15399588D02*
X12941012Y-15418636D01*
X12941012Y-15418636D02*
X12950536Y-15428160D01*
X12950536Y-15428160D02*
X12969583Y-15437684D01*
X12969583Y-15437684D02*
X13007679Y-15437684D01*
X13007679Y-15437684D02*
X13026726Y-15428160D01*
X13026726Y-15428160D02*
X13036250Y-15418636D01*
X13036250Y-15418636D02*
X13045774Y-15399588D01*
X13045774Y-15399588D02*
X13045774Y-15351969D01*
X13045774Y-15351969D02*
X13036250Y-15332922D01*
X13036250Y-15332922D02*
X13026726Y-15323398D01*
X13026726Y-15323398D02*
X13007679Y-15313874D01*
X13007679Y-15313874D02*
X12969583Y-15313874D01*
X12969583Y-15313874D02*
X12950536Y-15323398D01*
X12950536Y-15323398D02*
X12941012Y-15332922D01*
X12941012Y-15332922D02*
X12931488Y-15351969D01*
X13121964Y-15237684D02*
X13121964Y-15275779D01*
X13198155Y-15237684D02*
X13198155Y-15275779D01*
X13493393Y-15513874D02*
X13483869Y-15504350D01*
X13483869Y-15504350D02*
X13464822Y-15475779D01*
X13464822Y-15475779D02*
X13455298Y-15456731D01*
X13455298Y-15456731D02*
X13445774Y-15428160D01*
X13445774Y-15428160D02*
X13436250Y-15380541D01*
X13436250Y-15380541D02*
X13436250Y-15342446D01*
X13436250Y-15342446D02*
X13445774Y-15294826D01*
X13445774Y-15294826D02*
X13455298Y-15266255D01*
X13455298Y-15266255D02*
X13464822Y-15247207D01*
X13464822Y-15247207D02*
X13483869Y-15218636D01*
X13483869Y-15218636D02*
X13493393Y-15209112D01*
X13655298Y-15237684D02*
X13617202Y-15237684D01*
X13617202Y-15237684D02*
X13598155Y-15247207D01*
X13598155Y-15247207D02*
X13588631Y-15256731D01*
X13588631Y-15256731D02*
X13569583Y-15285303D01*
X13569583Y-15285303D02*
X13560060Y-15323398D01*
X13560060Y-15323398D02*
X13560060Y-15399588D01*
X13560060Y-15399588D02*
X13569583Y-15418636D01*
X13569583Y-15418636D02*
X13579107Y-15428160D01*
X13579107Y-15428160D02*
X13598155Y-15437684D01*
X13598155Y-15437684D02*
X13636250Y-15437684D01*
X13636250Y-15437684D02*
X13655298Y-15428160D01*
X13655298Y-15428160D02*
X13664822Y-15418636D01*
X13664822Y-15418636D02*
X13674345Y-15399588D01*
X13674345Y-15399588D02*
X13674345Y-15351969D01*
X13674345Y-15351969D02*
X13664822Y-15332922D01*
X13664822Y-15332922D02*
X13655298Y-15323398D01*
X13655298Y-15323398D02*
X13636250Y-15313874D01*
X13636250Y-15313874D02*
X13598155Y-15313874D01*
X13598155Y-15313874D02*
X13579107Y-15323398D01*
X13579107Y-15323398D02*
X13569583Y-15332922D01*
X13569583Y-15332922D02*
X13560060Y-15351969D01*
X13912441Y-15437684D02*
X13912441Y-15237684D01*
X13998155Y-15437684D02*
X13998155Y-15332922D01*
X13998155Y-15332922D02*
X13988631Y-15313874D01*
X13988631Y-15313874D02*
X13969584Y-15304350D01*
X13969584Y-15304350D02*
X13941012Y-15304350D01*
X13941012Y-15304350D02*
X13921964Y-15313874D01*
X13921964Y-15313874D02*
X13912441Y-15323398D01*
X14121964Y-15437684D02*
X14102917Y-15428160D01*
X14102917Y-15428160D02*
X14093393Y-15418636D01*
X14093393Y-15418636D02*
X14083869Y-15399588D01*
X14083869Y-15399588D02*
X14083869Y-15342446D01*
X14083869Y-15342446D02*
X14093393Y-15323398D01*
X14093393Y-15323398D02*
X14102917Y-15313874D01*
X14102917Y-15313874D02*
X14121964Y-15304350D01*
X14121964Y-15304350D02*
X14150536Y-15304350D01*
X14150536Y-15304350D02*
X14169584Y-15313874D01*
X14169584Y-15313874D02*
X14179107Y-15323398D01*
X14179107Y-15323398D02*
X14188631Y-15342446D01*
X14188631Y-15342446D02*
X14188631Y-15399588D01*
X14188631Y-15399588D02*
X14179107Y-15418636D01*
X14179107Y-15418636D02*
X14169584Y-15428160D01*
X14169584Y-15428160D02*
X14150536Y-15437684D01*
X14150536Y-15437684D02*
X14121964Y-15437684D01*
X14302917Y-15437684D02*
X14283869Y-15428160D01*
X14283869Y-15428160D02*
X14274345Y-15409112D01*
X14274345Y-15409112D02*
X14274345Y-15237684D01*
X14455298Y-15428160D02*
X14436250Y-15437684D01*
X14436250Y-15437684D02*
X14398155Y-15437684D01*
X14398155Y-15437684D02*
X14379107Y-15428160D01*
X14379107Y-15428160D02*
X14369584Y-15409112D01*
X14369584Y-15409112D02*
X14369584Y-15332922D01*
X14369584Y-15332922D02*
X14379107Y-15313874D01*
X14379107Y-15313874D02*
X14398155Y-15304350D01*
X14398155Y-15304350D02*
X14436250Y-15304350D01*
X14436250Y-15304350D02*
X14455298Y-15313874D01*
X14455298Y-15313874D02*
X14464822Y-15332922D01*
X14464822Y-15332922D02*
X14464822Y-15351969D01*
X14464822Y-15351969D02*
X14369584Y-15371017D01*
X14541012Y-15428160D02*
X14560060Y-15437684D01*
X14560060Y-15437684D02*
X14598155Y-15437684D01*
X14598155Y-15437684D02*
X14617203Y-15428160D01*
X14617203Y-15428160D02*
X14626726Y-15409112D01*
X14626726Y-15409112D02*
X14626726Y-15399588D01*
X14626726Y-15399588D02*
X14617203Y-15380541D01*
X14617203Y-15380541D02*
X14598155Y-15371017D01*
X14598155Y-15371017D02*
X14569584Y-15371017D01*
X14569584Y-15371017D02*
X14550536Y-15361493D01*
X14550536Y-15361493D02*
X14541012Y-15342446D01*
X14541012Y-15342446D02*
X14541012Y-15332922D01*
X14541012Y-15332922D02*
X14550536Y-15313874D01*
X14550536Y-15313874D02*
X14569584Y-15304350D01*
X14569584Y-15304350D02*
X14598155Y-15304350D01*
X14598155Y-15304350D02*
X14617203Y-15313874D01*
X14693393Y-15513874D02*
X14702917Y-15504350D01*
X14702917Y-15504350D02*
X14721965Y-15475779D01*
X14721965Y-15475779D02*
X14731488Y-15456731D01*
X14731488Y-15456731D02*
X14741012Y-15428160D01*
X14741012Y-15428160D02*
X14750536Y-15380541D01*
X14750536Y-15380541D02*
X14750536Y-15342446D01*
X14750536Y-15342446D02*
X14741012Y-15294826D01*
X14741012Y-15294826D02*
X14731488Y-15266255D01*
X14731488Y-15266255D02*
X14721965Y-15247207D01*
X14721965Y-15247207D02*
X14702917Y-15218636D01*
X14702917Y-15218636D02*
X14693393Y-15209112D01*
D15*
X9907347Y-15636717D02*
X9907347Y-15583683D01*
X9854313Y-15583683D01*
X9854313Y-15636717D01*
X9907347Y-15636717D01*
D11*
X10217202Y-15501684D02*
X10236250Y-15501684D01*
X10236250Y-15501684D02*
X10255298Y-15511207D01*
X10255298Y-15511207D02*
X10264821Y-15520731D01*
X10264821Y-15520731D02*
X10274345Y-15539779D01*
X10274345Y-15539779D02*
X10283869Y-15577874D01*
X10283869Y-15577874D02*
X10283869Y-15625493D01*
X10283869Y-15625493D02*
X10274345Y-15663588D01*
X10274345Y-15663588D02*
X10264821Y-15682636D01*
X10264821Y-15682636D02*
X10255298Y-15692160D01*
X10255298Y-15692160D02*
X10236250Y-15701684D01*
X10236250Y-15701684D02*
X10217202Y-15701684D01*
X10217202Y-15701684D02*
X10198155Y-15692160D01*
X10198155Y-15692160D02*
X10188631Y-15682636D01*
X10188631Y-15682636D02*
X10179107Y-15663588D01*
X10179107Y-15663588D02*
X10169583Y-15625493D01*
X10169583Y-15625493D02*
X10169583Y-15577874D01*
X10169583Y-15577874D02*
X10179107Y-15539779D01*
X10179107Y-15539779D02*
X10188631Y-15520731D01*
X10188631Y-15520731D02*
X10198155Y-15511207D01*
X10198155Y-15511207D02*
X10217202Y-15501684D01*
X10369583Y-15682636D02*
X10379107Y-15692160D01*
X10379107Y-15692160D02*
X10369583Y-15701684D01*
X10369583Y-15701684D02*
X10360059Y-15692160D01*
X10360059Y-15692160D02*
X10369583Y-15682636D01*
X10369583Y-15682636D02*
X10369583Y-15701684D01*
X10445774Y-15501684D02*
X10579107Y-15501684D01*
X10579107Y-15501684D02*
X10493393Y-15701684D01*
X10750536Y-15501684D02*
X10655298Y-15501684D01*
X10655298Y-15501684D02*
X10645774Y-15596922D01*
X10645774Y-15596922D02*
X10655298Y-15587398D01*
X10655298Y-15587398D02*
X10674345Y-15577874D01*
X10674345Y-15577874D02*
X10721964Y-15577874D01*
X10721964Y-15577874D02*
X10741012Y-15587398D01*
X10741012Y-15587398D02*
X10750536Y-15596922D01*
X10750536Y-15596922D02*
X10760059Y-15615969D01*
X10760059Y-15615969D02*
X10760059Y-15663588D01*
X10760059Y-15663588D02*
X10750536Y-15682636D01*
X10750536Y-15682636D02*
X10741012Y-15692160D01*
X10741012Y-15692160D02*
X10721964Y-15701684D01*
X10721964Y-15701684D02*
X10674345Y-15701684D01*
X10674345Y-15701684D02*
X10655298Y-15692160D01*
X10655298Y-15692160D02*
X10645774Y-15682636D01*
X10883869Y-15501684D02*
X10902917Y-15501684D01*
X10902917Y-15501684D02*
X10921964Y-15511207D01*
X10921964Y-15511207D02*
X10931488Y-15520731D01*
X10931488Y-15520731D02*
X10941012Y-15539779D01*
X10941012Y-15539779D02*
X10950536Y-15577874D01*
X10950536Y-15577874D02*
X10950536Y-15625493D01*
X10950536Y-15625493D02*
X10941012Y-15663588D01*
X10941012Y-15663588D02*
X10931488Y-15682636D01*
X10931488Y-15682636D02*
X10921964Y-15692160D01*
X10921964Y-15692160D02*
X10902917Y-15701684D01*
X10902917Y-15701684D02*
X10883869Y-15701684D01*
X10883869Y-15701684D02*
X10864821Y-15692160D01*
X10864821Y-15692160D02*
X10855298Y-15682636D01*
X10855298Y-15682636D02*
X10845774Y-15663588D01*
X10845774Y-15663588D02*
X10836250Y-15625493D01*
X10836250Y-15625493D02*
X10836250Y-15577874D01*
X10836250Y-15577874D02*
X10845774Y-15539779D01*
X10845774Y-15539779D02*
X10855298Y-15520731D01*
X10855298Y-15520731D02*
X10864821Y-15511207D01*
X10864821Y-15511207D02*
X10883869Y-15501684D01*
X11036250Y-15701684D02*
X11036250Y-15568350D01*
X11036250Y-15587398D02*
X11045774Y-15577874D01*
X11045774Y-15577874D02*
X11064821Y-15568350D01*
X11064821Y-15568350D02*
X11093393Y-15568350D01*
X11093393Y-15568350D02*
X11112440Y-15577874D01*
X11112440Y-15577874D02*
X11121964Y-15596922D01*
X11121964Y-15596922D02*
X11121964Y-15701684D01*
X11121964Y-15596922D02*
X11131488Y-15577874D01*
X11131488Y-15577874D02*
X11150536Y-15568350D01*
X11150536Y-15568350D02*
X11179107Y-15568350D01*
X11179107Y-15568350D02*
X11198155Y-15577874D01*
X11198155Y-15577874D02*
X11207678Y-15596922D01*
X11207678Y-15596922D02*
X11207678Y-15701684D01*
X11302917Y-15701684D02*
X11302917Y-15568350D01*
X11302917Y-15587398D02*
X11312440Y-15577874D01*
X11312440Y-15577874D02*
X11331488Y-15568350D01*
X11331488Y-15568350D02*
X11360059Y-15568350D01*
X11360059Y-15568350D02*
X11379107Y-15577874D01*
X11379107Y-15577874D02*
X11388631Y-15596922D01*
X11388631Y-15596922D02*
X11388631Y-15701684D01*
X11388631Y-15596922D02*
X11398155Y-15577874D01*
X11398155Y-15577874D02*
X11417202Y-15568350D01*
X11417202Y-15568350D02*
X11445774Y-15568350D01*
X11445774Y-15568350D02*
X11464821Y-15577874D01*
X11464821Y-15577874D02*
X11474345Y-15596922D01*
X11474345Y-15596922D02*
X11474345Y-15701684D01*
X11864821Y-15492160D02*
X11693393Y-15749303D01*
X12121964Y-15501684D02*
X12141012Y-15501684D01*
X12141012Y-15501684D02*
X12160060Y-15511207D01*
X12160060Y-15511207D02*
X12169583Y-15520731D01*
X12169583Y-15520731D02*
X12179107Y-15539779D01*
X12179107Y-15539779D02*
X12188631Y-15577874D01*
X12188631Y-15577874D02*
X12188631Y-15625493D01*
X12188631Y-15625493D02*
X12179107Y-15663588D01*
X12179107Y-15663588D02*
X12169583Y-15682636D01*
X12169583Y-15682636D02*
X12160060Y-15692160D01*
X12160060Y-15692160D02*
X12141012Y-15701684D01*
X12141012Y-15701684D02*
X12121964Y-15701684D01*
X12121964Y-15701684D02*
X12102917Y-15692160D01*
X12102917Y-15692160D02*
X12093393Y-15682636D01*
X12093393Y-15682636D02*
X12083869Y-15663588D01*
X12083869Y-15663588D02*
X12074345Y-15625493D01*
X12074345Y-15625493D02*
X12074345Y-15577874D01*
X12074345Y-15577874D02*
X12083869Y-15539779D01*
X12083869Y-15539779D02*
X12093393Y-15520731D01*
X12093393Y-15520731D02*
X12102917Y-15511207D01*
X12102917Y-15511207D02*
X12121964Y-15501684D01*
X12274345Y-15682636D02*
X12283869Y-15692160D01*
X12283869Y-15692160D02*
X12274345Y-15701684D01*
X12274345Y-15701684D02*
X12264821Y-15692160D01*
X12264821Y-15692160D02*
X12274345Y-15682636D01*
X12274345Y-15682636D02*
X12274345Y-15701684D01*
X12407679Y-15501684D02*
X12426726Y-15501684D01*
X12426726Y-15501684D02*
X12445774Y-15511207D01*
X12445774Y-15511207D02*
X12455298Y-15520731D01*
X12455298Y-15520731D02*
X12464821Y-15539779D01*
X12464821Y-15539779D02*
X12474345Y-15577874D01*
X12474345Y-15577874D02*
X12474345Y-15625493D01*
X12474345Y-15625493D02*
X12464821Y-15663588D01*
X12464821Y-15663588D02*
X12455298Y-15682636D01*
X12455298Y-15682636D02*
X12445774Y-15692160D01*
X12445774Y-15692160D02*
X12426726Y-15701684D01*
X12426726Y-15701684D02*
X12407679Y-15701684D01*
X12407679Y-15701684D02*
X12388631Y-15692160D01*
X12388631Y-15692160D02*
X12379107Y-15682636D01*
X12379107Y-15682636D02*
X12369583Y-15663588D01*
X12369583Y-15663588D02*
X12360060Y-15625493D01*
X12360060Y-15625493D02*
X12360060Y-15577874D01*
X12360060Y-15577874D02*
X12369583Y-15539779D01*
X12369583Y-15539779D02*
X12379107Y-15520731D01*
X12379107Y-15520731D02*
X12388631Y-15511207D01*
X12388631Y-15511207D02*
X12407679Y-15501684D01*
X12550536Y-15520731D02*
X12560060Y-15511207D01*
X12560060Y-15511207D02*
X12579107Y-15501684D01*
X12579107Y-15501684D02*
X12626726Y-15501684D01*
X12626726Y-15501684D02*
X12645774Y-15511207D01*
X12645774Y-15511207D02*
X12655298Y-15520731D01*
X12655298Y-15520731D02*
X12664821Y-15539779D01*
X12664821Y-15539779D02*
X12664821Y-15558826D01*
X12664821Y-15558826D02*
X12655298Y-15587398D01*
X12655298Y-15587398D02*
X12541012Y-15701684D01*
X12541012Y-15701684D02*
X12664821Y-15701684D01*
X12760060Y-15701684D02*
X12798155Y-15701684D01*
X12798155Y-15701684D02*
X12817202Y-15692160D01*
X12817202Y-15692160D02*
X12826726Y-15682636D01*
X12826726Y-15682636D02*
X12845774Y-15654065D01*
X12845774Y-15654065D02*
X12855298Y-15615969D01*
X12855298Y-15615969D02*
X12855298Y-15539779D01*
X12855298Y-15539779D02*
X12845774Y-15520731D01*
X12845774Y-15520731D02*
X12836250Y-15511207D01*
X12836250Y-15511207D02*
X12817202Y-15501684D01*
X12817202Y-15501684D02*
X12779107Y-15501684D01*
X12779107Y-15501684D02*
X12760060Y-15511207D01*
X12760060Y-15511207D02*
X12750536Y-15520731D01*
X12750536Y-15520731D02*
X12741012Y-15539779D01*
X12741012Y-15539779D02*
X12741012Y-15587398D01*
X12741012Y-15587398D02*
X12750536Y-15606446D01*
X12750536Y-15606446D02*
X12760060Y-15615969D01*
X12760060Y-15615969D02*
X12779107Y-15625493D01*
X12779107Y-15625493D02*
X12817202Y-15625493D01*
X12817202Y-15625493D02*
X12836250Y-15615969D01*
X12836250Y-15615969D02*
X12845774Y-15606446D01*
X12845774Y-15606446D02*
X12855298Y-15587398D01*
X13036250Y-15501684D02*
X12941012Y-15501684D01*
X12941012Y-15501684D02*
X12931488Y-15596922D01*
X12931488Y-15596922D02*
X12941012Y-15587398D01*
X12941012Y-15587398D02*
X12960060Y-15577874D01*
X12960060Y-15577874D02*
X13007679Y-15577874D01*
X13007679Y-15577874D02*
X13026726Y-15587398D01*
X13026726Y-15587398D02*
X13036250Y-15596922D01*
X13036250Y-15596922D02*
X13045774Y-15615969D01*
X13045774Y-15615969D02*
X13045774Y-15663588D01*
X13045774Y-15663588D02*
X13036250Y-15682636D01*
X13036250Y-15682636D02*
X13026726Y-15692160D01*
X13026726Y-15692160D02*
X13007679Y-15701684D01*
X13007679Y-15701684D02*
X12960060Y-15701684D01*
X12960060Y-15701684D02*
X12941012Y-15692160D01*
X12941012Y-15692160D02*
X12931488Y-15682636D01*
X13121964Y-15501684D02*
X13121964Y-15539779D01*
X13198155Y-15501684D02*
X13198155Y-15539779D01*
X13493393Y-15777874D02*
X13483869Y-15768350D01*
X13483869Y-15768350D02*
X13464822Y-15739779D01*
X13464822Y-15739779D02*
X13455298Y-15720731D01*
X13455298Y-15720731D02*
X13445774Y-15692160D01*
X13445774Y-15692160D02*
X13436250Y-15644541D01*
X13436250Y-15644541D02*
X13436250Y-15606446D01*
X13436250Y-15606446D02*
X13445774Y-15558826D01*
X13445774Y-15558826D02*
X13455298Y-15530255D01*
X13455298Y-15530255D02*
X13464822Y-15511207D01*
X13464822Y-15511207D02*
X13483869Y-15482636D01*
X13483869Y-15482636D02*
X13493393Y-15473112D01*
X13655298Y-15501684D02*
X13617202Y-15501684D01*
X13617202Y-15501684D02*
X13598155Y-15511207D01*
X13598155Y-15511207D02*
X13588631Y-15520731D01*
X13588631Y-15520731D02*
X13569583Y-15549303D01*
X13569583Y-15549303D02*
X13560060Y-15587398D01*
X13560060Y-15587398D02*
X13560060Y-15663588D01*
X13560060Y-15663588D02*
X13569583Y-15682636D01*
X13569583Y-15682636D02*
X13579107Y-15692160D01*
X13579107Y-15692160D02*
X13598155Y-15701684D01*
X13598155Y-15701684D02*
X13636250Y-15701684D01*
X13636250Y-15701684D02*
X13655298Y-15692160D01*
X13655298Y-15692160D02*
X13664822Y-15682636D01*
X13664822Y-15682636D02*
X13674345Y-15663588D01*
X13674345Y-15663588D02*
X13674345Y-15615969D01*
X13674345Y-15615969D02*
X13664822Y-15596922D01*
X13664822Y-15596922D02*
X13655298Y-15587398D01*
X13655298Y-15587398D02*
X13636250Y-15577874D01*
X13636250Y-15577874D02*
X13598155Y-15577874D01*
X13598155Y-15577874D02*
X13579107Y-15587398D01*
X13579107Y-15587398D02*
X13569583Y-15596922D01*
X13569583Y-15596922D02*
X13560060Y-15615969D01*
X13912441Y-15701684D02*
X13912441Y-15501684D01*
X13998155Y-15701684D02*
X13998155Y-15596922D01*
X13998155Y-15596922D02*
X13988631Y-15577874D01*
X13988631Y-15577874D02*
X13969584Y-15568350D01*
X13969584Y-15568350D02*
X13941012Y-15568350D01*
X13941012Y-15568350D02*
X13921964Y-15577874D01*
X13921964Y-15577874D02*
X13912441Y-15587398D01*
X14121964Y-15701684D02*
X14102917Y-15692160D01*
X14102917Y-15692160D02*
X14093393Y-15682636D01*
X14093393Y-15682636D02*
X14083869Y-15663588D01*
X14083869Y-15663588D02*
X14083869Y-15606446D01*
X14083869Y-15606446D02*
X14093393Y-15587398D01*
X14093393Y-15587398D02*
X14102917Y-15577874D01*
X14102917Y-15577874D02*
X14121964Y-15568350D01*
X14121964Y-15568350D02*
X14150536Y-15568350D01*
X14150536Y-15568350D02*
X14169584Y-15577874D01*
X14169584Y-15577874D02*
X14179107Y-15587398D01*
X14179107Y-15587398D02*
X14188631Y-15606446D01*
X14188631Y-15606446D02*
X14188631Y-15663588D01*
X14188631Y-15663588D02*
X14179107Y-15682636D01*
X14179107Y-15682636D02*
X14169584Y-15692160D01*
X14169584Y-15692160D02*
X14150536Y-15701684D01*
X14150536Y-15701684D02*
X14121964Y-15701684D01*
X14302917Y-15701684D02*
X14283869Y-15692160D01*
X14283869Y-15692160D02*
X14274345Y-15673112D01*
X14274345Y-15673112D02*
X14274345Y-15501684D01*
X14455298Y-15692160D02*
X14436250Y-15701684D01*
X14436250Y-15701684D02*
X14398155Y-15701684D01*
X14398155Y-15701684D02*
X14379107Y-15692160D01*
X14379107Y-15692160D02*
X14369584Y-15673112D01*
X14369584Y-15673112D02*
X14369584Y-15596922D01*
X14369584Y-15596922D02*
X14379107Y-15577874D01*
X14379107Y-15577874D02*
X14398155Y-15568350D01*
X14398155Y-15568350D02*
X14436250Y-15568350D01*
X14436250Y-15568350D02*
X14455298Y-15577874D01*
X14455298Y-15577874D02*
X14464822Y-15596922D01*
X14464822Y-15596922D02*
X14464822Y-15615969D01*
X14464822Y-15615969D02*
X14369584Y-15635017D01*
X14541012Y-15692160D02*
X14560060Y-15701684D01*
X14560060Y-15701684D02*
X14598155Y-15701684D01*
X14598155Y-15701684D02*
X14617203Y-15692160D01*
X14617203Y-15692160D02*
X14626726Y-15673112D01*
X14626726Y-15673112D02*
X14626726Y-15663588D01*
X14626726Y-15663588D02*
X14617203Y-15644541D01*
X14617203Y-15644541D02*
X14598155Y-15635017D01*
X14598155Y-15635017D02*
X14569584Y-15635017D01*
X14569584Y-15635017D02*
X14550536Y-15625493D01*
X14550536Y-15625493D02*
X14541012Y-15606446D01*
X14541012Y-15606446D02*
X14541012Y-15596922D01*
X14541012Y-15596922D02*
X14550536Y-15577874D01*
X14550536Y-15577874D02*
X14569584Y-15568350D01*
X14569584Y-15568350D02*
X14598155Y-15568350D01*
X14598155Y-15568350D02*
X14617203Y-15577874D01*
X14693393Y-15777874D02*
X14702917Y-15768350D01*
X14702917Y-15768350D02*
X14721965Y-15739779D01*
X14721965Y-15739779D02*
X14731488Y-15720731D01*
X14731488Y-15720731D02*
X14741012Y-15692160D01*
X14741012Y-15692160D02*
X14750536Y-15644541D01*
X14750536Y-15644541D02*
X14750536Y-15606446D01*
X14750536Y-15606446D02*
X14741012Y-15558826D01*
X14741012Y-15558826D02*
X14731488Y-15530255D01*
X14731488Y-15530255D02*
X14721965Y-15511207D01*
X14721965Y-15511207D02*
X14702917Y-15482636D01*
X14702917Y-15482636D02*
X14693393Y-15473112D01*
D16*
X9878330Y-15914200D02*
X9918330Y-15874200D01*
X9878330Y-15834200D01*
X9838330Y-15874200D01*
X9878330Y-15914200D01*
D11*
X10217202Y-15765684D02*
X10236250Y-15765684D01*
X10236250Y-15765684D02*
X10255298Y-15775207D01*
X10255298Y-15775207D02*
X10264821Y-15784731D01*
X10264821Y-15784731D02*
X10274345Y-15803779D01*
X10274345Y-15803779D02*
X10283869Y-15841874D01*
X10283869Y-15841874D02*
X10283869Y-15889493D01*
X10283869Y-15889493D02*
X10274345Y-15927588D01*
X10274345Y-15927588D02*
X10264821Y-15946636D01*
X10264821Y-15946636D02*
X10255298Y-15956160D01*
X10255298Y-15956160D02*
X10236250Y-15965684D01*
X10236250Y-15965684D02*
X10217202Y-15965684D01*
X10217202Y-15965684D02*
X10198155Y-15956160D01*
X10198155Y-15956160D02*
X10188631Y-15946636D01*
X10188631Y-15946636D02*
X10179107Y-15927588D01*
X10179107Y-15927588D02*
X10169583Y-15889493D01*
X10169583Y-15889493D02*
X10169583Y-15841874D01*
X10169583Y-15841874D02*
X10179107Y-15803779D01*
X10179107Y-15803779D02*
X10188631Y-15784731D01*
X10188631Y-15784731D02*
X10198155Y-15775207D01*
X10198155Y-15775207D02*
X10217202Y-15765684D01*
X10369583Y-15946636D02*
X10379107Y-15956160D01*
X10379107Y-15956160D02*
X10369583Y-15965684D01*
X10369583Y-15965684D02*
X10360059Y-15956160D01*
X10360059Y-15956160D02*
X10369583Y-15946636D01*
X10369583Y-15946636D02*
X10369583Y-15965684D01*
X10493393Y-15851398D02*
X10474345Y-15841874D01*
X10474345Y-15841874D02*
X10464821Y-15832350D01*
X10464821Y-15832350D02*
X10455298Y-15813303D01*
X10455298Y-15813303D02*
X10455298Y-15803779D01*
X10455298Y-15803779D02*
X10464821Y-15784731D01*
X10464821Y-15784731D02*
X10474345Y-15775207D01*
X10474345Y-15775207D02*
X10493393Y-15765684D01*
X10493393Y-15765684D02*
X10531488Y-15765684D01*
X10531488Y-15765684D02*
X10550536Y-15775207D01*
X10550536Y-15775207D02*
X10560059Y-15784731D01*
X10560059Y-15784731D02*
X10569583Y-15803779D01*
X10569583Y-15803779D02*
X10569583Y-15813303D01*
X10569583Y-15813303D02*
X10560059Y-15832350D01*
X10560059Y-15832350D02*
X10550536Y-15841874D01*
X10550536Y-15841874D02*
X10531488Y-15851398D01*
X10531488Y-15851398D02*
X10493393Y-15851398D01*
X10493393Y-15851398D02*
X10474345Y-15860922D01*
X10474345Y-15860922D02*
X10464821Y-15870446D01*
X10464821Y-15870446D02*
X10455298Y-15889493D01*
X10455298Y-15889493D02*
X10455298Y-15927588D01*
X10455298Y-15927588D02*
X10464821Y-15946636D01*
X10464821Y-15946636D02*
X10474345Y-15956160D01*
X10474345Y-15956160D02*
X10493393Y-15965684D01*
X10493393Y-15965684D02*
X10531488Y-15965684D01*
X10531488Y-15965684D02*
X10550536Y-15956160D01*
X10550536Y-15956160D02*
X10560059Y-15946636D01*
X10560059Y-15946636D02*
X10569583Y-15927588D01*
X10569583Y-15927588D02*
X10569583Y-15889493D01*
X10569583Y-15889493D02*
X10560059Y-15870446D01*
X10560059Y-15870446D02*
X10550536Y-15860922D01*
X10550536Y-15860922D02*
X10531488Y-15851398D01*
X10693393Y-15765684D02*
X10712440Y-15765684D01*
X10712440Y-15765684D02*
X10731488Y-15775207D01*
X10731488Y-15775207D02*
X10741012Y-15784731D01*
X10741012Y-15784731D02*
X10750536Y-15803779D01*
X10750536Y-15803779D02*
X10760059Y-15841874D01*
X10760059Y-15841874D02*
X10760059Y-15889493D01*
X10760059Y-15889493D02*
X10750536Y-15927588D01*
X10750536Y-15927588D02*
X10741012Y-15946636D01*
X10741012Y-15946636D02*
X10731488Y-15956160D01*
X10731488Y-15956160D02*
X10712440Y-15965684D01*
X10712440Y-15965684D02*
X10693393Y-15965684D01*
X10693393Y-15965684D02*
X10674345Y-15956160D01*
X10674345Y-15956160D02*
X10664821Y-15946636D01*
X10664821Y-15946636D02*
X10655298Y-15927588D01*
X10655298Y-15927588D02*
X10645774Y-15889493D01*
X10645774Y-15889493D02*
X10645774Y-15841874D01*
X10645774Y-15841874D02*
X10655298Y-15803779D01*
X10655298Y-15803779D02*
X10664821Y-15784731D01*
X10664821Y-15784731D02*
X10674345Y-15775207D01*
X10674345Y-15775207D02*
X10693393Y-15765684D01*
X10883869Y-15765684D02*
X10902917Y-15765684D01*
X10902917Y-15765684D02*
X10921964Y-15775207D01*
X10921964Y-15775207D02*
X10931488Y-15784731D01*
X10931488Y-15784731D02*
X10941012Y-15803779D01*
X10941012Y-15803779D02*
X10950536Y-15841874D01*
X10950536Y-15841874D02*
X10950536Y-15889493D01*
X10950536Y-15889493D02*
X10941012Y-15927588D01*
X10941012Y-15927588D02*
X10931488Y-15946636D01*
X10931488Y-15946636D02*
X10921964Y-15956160D01*
X10921964Y-15956160D02*
X10902917Y-15965684D01*
X10902917Y-15965684D02*
X10883869Y-15965684D01*
X10883869Y-15965684D02*
X10864821Y-15956160D01*
X10864821Y-15956160D02*
X10855298Y-15946636D01*
X10855298Y-15946636D02*
X10845774Y-15927588D01*
X10845774Y-15927588D02*
X10836250Y-15889493D01*
X10836250Y-15889493D02*
X10836250Y-15841874D01*
X10836250Y-15841874D02*
X10845774Y-15803779D01*
X10845774Y-15803779D02*
X10855298Y-15784731D01*
X10855298Y-15784731D02*
X10864821Y-15775207D01*
X10864821Y-15775207D02*
X10883869Y-15765684D01*
X11036250Y-15965684D02*
X11036250Y-15832350D01*
X11036250Y-15851398D02*
X11045774Y-15841874D01*
X11045774Y-15841874D02*
X11064821Y-15832350D01*
X11064821Y-15832350D02*
X11093393Y-15832350D01*
X11093393Y-15832350D02*
X11112440Y-15841874D01*
X11112440Y-15841874D02*
X11121964Y-15860922D01*
X11121964Y-15860922D02*
X11121964Y-15965684D01*
X11121964Y-15860922D02*
X11131488Y-15841874D01*
X11131488Y-15841874D02*
X11150536Y-15832350D01*
X11150536Y-15832350D02*
X11179107Y-15832350D01*
X11179107Y-15832350D02*
X11198155Y-15841874D01*
X11198155Y-15841874D02*
X11207678Y-15860922D01*
X11207678Y-15860922D02*
X11207678Y-15965684D01*
X11302917Y-15965684D02*
X11302917Y-15832350D01*
X11302917Y-15851398D02*
X11312440Y-15841874D01*
X11312440Y-15841874D02*
X11331488Y-15832350D01*
X11331488Y-15832350D02*
X11360059Y-15832350D01*
X11360059Y-15832350D02*
X11379107Y-15841874D01*
X11379107Y-15841874D02*
X11388631Y-15860922D01*
X11388631Y-15860922D02*
X11388631Y-15965684D01*
X11388631Y-15860922D02*
X11398155Y-15841874D01*
X11398155Y-15841874D02*
X11417202Y-15832350D01*
X11417202Y-15832350D02*
X11445774Y-15832350D01*
X11445774Y-15832350D02*
X11464821Y-15841874D01*
X11464821Y-15841874D02*
X11474345Y-15860922D01*
X11474345Y-15860922D02*
X11474345Y-15965684D01*
X11864821Y-15756160D02*
X11693393Y-16013303D01*
X12121964Y-15765684D02*
X12141012Y-15765684D01*
X12141012Y-15765684D02*
X12160060Y-15775207D01*
X12160060Y-15775207D02*
X12169583Y-15784731D01*
X12169583Y-15784731D02*
X12179107Y-15803779D01*
X12179107Y-15803779D02*
X12188631Y-15841874D01*
X12188631Y-15841874D02*
X12188631Y-15889493D01*
X12188631Y-15889493D02*
X12179107Y-15927588D01*
X12179107Y-15927588D02*
X12169583Y-15946636D01*
X12169583Y-15946636D02*
X12160060Y-15956160D01*
X12160060Y-15956160D02*
X12141012Y-15965684D01*
X12141012Y-15965684D02*
X12121964Y-15965684D01*
X12121964Y-15965684D02*
X12102917Y-15956160D01*
X12102917Y-15956160D02*
X12093393Y-15946636D01*
X12093393Y-15946636D02*
X12083869Y-15927588D01*
X12083869Y-15927588D02*
X12074345Y-15889493D01*
X12074345Y-15889493D02*
X12074345Y-15841874D01*
X12074345Y-15841874D02*
X12083869Y-15803779D01*
X12083869Y-15803779D02*
X12093393Y-15784731D01*
X12093393Y-15784731D02*
X12102917Y-15775207D01*
X12102917Y-15775207D02*
X12121964Y-15765684D01*
X12274345Y-15946636D02*
X12283869Y-15956160D01*
X12283869Y-15956160D02*
X12274345Y-15965684D01*
X12274345Y-15965684D02*
X12264821Y-15956160D01*
X12264821Y-15956160D02*
X12274345Y-15946636D01*
X12274345Y-15946636D02*
X12274345Y-15965684D01*
X12407679Y-15765684D02*
X12426726Y-15765684D01*
X12426726Y-15765684D02*
X12445774Y-15775207D01*
X12445774Y-15775207D02*
X12455298Y-15784731D01*
X12455298Y-15784731D02*
X12464821Y-15803779D01*
X12464821Y-15803779D02*
X12474345Y-15841874D01*
X12474345Y-15841874D02*
X12474345Y-15889493D01*
X12474345Y-15889493D02*
X12464821Y-15927588D01*
X12464821Y-15927588D02*
X12455298Y-15946636D01*
X12455298Y-15946636D02*
X12445774Y-15956160D01*
X12445774Y-15956160D02*
X12426726Y-15965684D01*
X12426726Y-15965684D02*
X12407679Y-15965684D01*
X12407679Y-15965684D02*
X12388631Y-15956160D01*
X12388631Y-15956160D02*
X12379107Y-15946636D01*
X12379107Y-15946636D02*
X12369583Y-15927588D01*
X12369583Y-15927588D02*
X12360060Y-15889493D01*
X12360060Y-15889493D02*
X12360060Y-15841874D01*
X12360060Y-15841874D02*
X12369583Y-15803779D01*
X12369583Y-15803779D02*
X12379107Y-15784731D01*
X12379107Y-15784731D02*
X12388631Y-15775207D01*
X12388631Y-15775207D02*
X12407679Y-15765684D01*
X12541012Y-15765684D02*
X12664821Y-15765684D01*
X12664821Y-15765684D02*
X12598155Y-15841874D01*
X12598155Y-15841874D02*
X12626726Y-15841874D01*
X12626726Y-15841874D02*
X12645774Y-15851398D01*
X12645774Y-15851398D02*
X12655298Y-15860922D01*
X12655298Y-15860922D02*
X12664821Y-15879969D01*
X12664821Y-15879969D02*
X12664821Y-15927588D01*
X12664821Y-15927588D02*
X12655298Y-15946636D01*
X12655298Y-15946636D02*
X12645774Y-15956160D01*
X12645774Y-15956160D02*
X12626726Y-15965684D01*
X12626726Y-15965684D02*
X12569583Y-15965684D01*
X12569583Y-15965684D02*
X12550536Y-15956160D01*
X12550536Y-15956160D02*
X12541012Y-15946636D01*
X12855298Y-15965684D02*
X12741012Y-15965684D01*
X12798155Y-15965684D02*
X12798155Y-15765684D01*
X12798155Y-15765684D02*
X12779107Y-15794255D01*
X12779107Y-15794255D02*
X12760060Y-15813303D01*
X12760060Y-15813303D02*
X12741012Y-15822826D01*
X13036250Y-15765684D02*
X12941012Y-15765684D01*
X12941012Y-15765684D02*
X12931488Y-15860922D01*
X12931488Y-15860922D02*
X12941012Y-15851398D01*
X12941012Y-15851398D02*
X12960060Y-15841874D01*
X12960060Y-15841874D02*
X13007679Y-15841874D01*
X13007679Y-15841874D02*
X13026726Y-15851398D01*
X13026726Y-15851398D02*
X13036250Y-15860922D01*
X13036250Y-15860922D02*
X13045774Y-15879969D01*
X13045774Y-15879969D02*
X13045774Y-15927588D01*
X13045774Y-15927588D02*
X13036250Y-15946636D01*
X13036250Y-15946636D02*
X13026726Y-15956160D01*
X13026726Y-15956160D02*
X13007679Y-15965684D01*
X13007679Y-15965684D02*
X12960060Y-15965684D01*
X12960060Y-15965684D02*
X12941012Y-15956160D01*
X12941012Y-15956160D02*
X12931488Y-15946636D01*
X13121964Y-15765684D02*
X13121964Y-15803779D01*
X13198155Y-15765684D02*
X13198155Y-15803779D01*
X13493393Y-16041874D02*
X13483869Y-16032350D01*
X13483869Y-16032350D02*
X13464822Y-16003779D01*
X13464822Y-16003779D02*
X13455298Y-15984731D01*
X13455298Y-15984731D02*
X13445774Y-15956160D01*
X13445774Y-15956160D02*
X13436250Y-15908541D01*
X13436250Y-15908541D02*
X13436250Y-15870446D01*
X13436250Y-15870446D02*
X13445774Y-15822826D01*
X13445774Y-15822826D02*
X13455298Y-15794255D01*
X13455298Y-15794255D02*
X13464822Y-15775207D01*
X13464822Y-15775207D02*
X13483869Y-15746636D01*
X13483869Y-15746636D02*
X13493393Y-15737112D01*
X13560060Y-15784731D02*
X13569583Y-15775207D01*
X13569583Y-15775207D02*
X13588631Y-15765684D01*
X13588631Y-15765684D02*
X13636250Y-15765684D01*
X13636250Y-15765684D02*
X13655298Y-15775207D01*
X13655298Y-15775207D02*
X13664822Y-15784731D01*
X13664822Y-15784731D02*
X13674345Y-15803779D01*
X13674345Y-15803779D02*
X13674345Y-15822826D01*
X13674345Y-15822826D02*
X13664822Y-15851398D01*
X13664822Y-15851398D02*
X13550536Y-15965684D01*
X13550536Y-15965684D02*
X13674345Y-15965684D01*
X13912441Y-15965684D02*
X13912441Y-15765684D01*
X13998155Y-15965684D02*
X13998155Y-15860922D01*
X13998155Y-15860922D02*
X13988631Y-15841874D01*
X13988631Y-15841874D02*
X13969584Y-15832350D01*
X13969584Y-15832350D02*
X13941012Y-15832350D01*
X13941012Y-15832350D02*
X13921964Y-15841874D01*
X13921964Y-15841874D02*
X13912441Y-15851398D01*
X14121964Y-15965684D02*
X14102917Y-15956160D01*
X14102917Y-15956160D02*
X14093393Y-15946636D01*
X14093393Y-15946636D02*
X14083869Y-15927588D01*
X14083869Y-15927588D02*
X14083869Y-15870446D01*
X14083869Y-15870446D02*
X14093393Y-15851398D01*
X14093393Y-15851398D02*
X14102917Y-15841874D01*
X14102917Y-15841874D02*
X14121964Y-15832350D01*
X14121964Y-15832350D02*
X14150536Y-15832350D01*
X14150536Y-15832350D02*
X14169584Y-15841874D01*
X14169584Y-15841874D02*
X14179107Y-15851398D01*
X14179107Y-15851398D02*
X14188631Y-15870446D01*
X14188631Y-15870446D02*
X14188631Y-15927588D01*
X14188631Y-15927588D02*
X14179107Y-15946636D01*
X14179107Y-15946636D02*
X14169584Y-15956160D01*
X14169584Y-15956160D02*
X14150536Y-15965684D01*
X14150536Y-15965684D02*
X14121964Y-15965684D01*
X14302917Y-15965684D02*
X14283869Y-15956160D01*
X14283869Y-15956160D02*
X14274345Y-15937112D01*
X14274345Y-15937112D02*
X14274345Y-15765684D01*
X14455298Y-15956160D02*
X14436250Y-15965684D01*
X14436250Y-15965684D02*
X14398155Y-15965684D01*
X14398155Y-15965684D02*
X14379107Y-15956160D01*
X14379107Y-15956160D02*
X14369584Y-15937112D01*
X14369584Y-15937112D02*
X14369584Y-15860922D01*
X14369584Y-15860922D02*
X14379107Y-15841874D01*
X14379107Y-15841874D02*
X14398155Y-15832350D01*
X14398155Y-15832350D02*
X14436250Y-15832350D01*
X14436250Y-15832350D02*
X14455298Y-15841874D01*
X14455298Y-15841874D02*
X14464822Y-15860922D01*
X14464822Y-15860922D02*
X14464822Y-15879969D01*
X14464822Y-15879969D02*
X14369584Y-15899017D01*
X14541012Y-15956160D02*
X14560060Y-15965684D01*
X14560060Y-15965684D02*
X14598155Y-15965684D01*
X14598155Y-15965684D02*
X14617203Y-15956160D01*
X14617203Y-15956160D02*
X14626726Y-15937112D01*
X14626726Y-15937112D02*
X14626726Y-15927588D01*
X14626726Y-15927588D02*
X14617203Y-15908541D01*
X14617203Y-15908541D02*
X14598155Y-15899017D01*
X14598155Y-15899017D02*
X14569584Y-15899017D01*
X14569584Y-15899017D02*
X14550536Y-15889493D01*
X14550536Y-15889493D02*
X14541012Y-15870446D01*
X14541012Y-15870446D02*
X14541012Y-15860922D01*
X14541012Y-15860922D02*
X14550536Y-15841874D01*
X14550536Y-15841874D02*
X14569584Y-15832350D01*
X14569584Y-15832350D02*
X14598155Y-15832350D01*
X14598155Y-15832350D02*
X14617203Y-15841874D01*
X14693393Y-16041874D02*
X14702917Y-16032350D01*
X14702917Y-16032350D02*
X14721965Y-16003779D01*
X14721965Y-16003779D02*
X14731488Y-15984731D01*
X14731488Y-15984731D02*
X14741012Y-15956160D01*
X14741012Y-15956160D02*
X14750536Y-15908541D01*
X14750536Y-15908541D02*
X14750536Y-15870446D01*
X14750536Y-15870446D02*
X14741012Y-15822826D01*
X14741012Y-15822826D02*
X14731488Y-15794255D01*
X14731488Y-15794255D02*
X14721965Y-15775207D01*
X14721965Y-15775207D02*
X14702917Y-15746636D01*
X14702917Y-15746636D02*
X14693393Y-15737112D01*
D10*
X9818330Y-16088200D02*
X9918330Y-16188200D01*
X9918330Y-16088200D02*
X9818330Y-16188200D01*
X9918330Y-16138200D02*
G75*
G03*
X9918330Y-16138200I-50000J0D01*
G01*
D11*
X10283869Y-16229684D02*
X10169583Y-16229684D01*
X10226726Y-16229684D02*
X10226726Y-16029684D01*
X10226726Y-16029684D02*
X10207678Y-16058255D01*
X10207678Y-16058255D02*
X10188631Y-16077303D01*
X10188631Y-16077303D02*
X10169583Y-16086826D01*
X10369583Y-16210636D02*
X10379107Y-16220160D01*
X10379107Y-16220160D02*
X10369583Y-16229684D01*
X10369583Y-16229684D02*
X10360059Y-16220160D01*
X10360059Y-16220160D02*
X10369583Y-16210636D01*
X10369583Y-16210636D02*
X10369583Y-16229684D01*
X10502917Y-16029684D02*
X10521964Y-16029684D01*
X10521964Y-16029684D02*
X10541012Y-16039207D01*
X10541012Y-16039207D02*
X10550536Y-16048731D01*
X10550536Y-16048731D02*
X10560059Y-16067779D01*
X10560059Y-16067779D02*
X10569583Y-16105874D01*
X10569583Y-16105874D02*
X10569583Y-16153493D01*
X10569583Y-16153493D02*
X10560059Y-16191588D01*
X10560059Y-16191588D02*
X10550536Y-16210636D01*
X10550536Y-16210636D02*
X10541012Y-16220160D01*
X10541012Y-16220160D02*
X10521964Y-16229684D01*
X10521964Y-16229684D02*
X10502917Y-16229684D01*
X10502917Y-16229684D02*
X10483869Y-16220160D01*
X10483869Y-16220160D02*
X10474345Y-16210636D01*
X10474345Y-16210636D02*
X10464821Y-16191588D01*
X10464821Y-16191588D02*
X10455298Y-16153493D01*
X10455298Y-16153493D02*
X10455298Y-16105874D01*
X10455298Y-16105874D02*
X10464821Y-16067779D01*
X10464821Y-16067779D02*
X10474345Y-16048731D01*
X10474345Y-16048731D02*
X10483869Y-16039207D01*
X10483869Y-16039207D02*
X10502917Y-16029684D01*
X10693393Y-16029684D02*
X10712440Y-16029684D01*
X10712440Y-16029684D02*
X10731488Y-16039207D01*
X10731488Y-16039207D02*
X10741012Y-16048731D01*
X10741012Y-16048731D02*
X10750536Y-16067779D01*
X10750536Y-16067779D02*
X10760059Y-16105874D01*
X10760059Y-16105874D02*
X10760059Y-16153493D01*
X10760059Y-16153493D02*
X10750536Y-16191588D01*
X10750536Y-16191588D02*
X10741012Y-16210636D01*
X10741012Y-16210636D02*
X10731488Y-16220160D01*
X10731488Y-16220160D02*
X10712440Y-16229684D01*
X10712440Y-16229684D02*
X10693393Y-16229684D01*
X10693393Y-16229684D02*
X10674345Y-16220160D01*
X10674345Y-16220160D02*
X10664821Y-16210636D01*
X10664821Y-16210636D02*
X10655298Y-16191588D01*
X10655298Y-16191588D02*
X10645774Y-16153493D01*
X10645774Y-16153493D02*
X10645774Y-16105874D01*
X10645774Y-16105874D02*
X10655298Y-16067779D01*
X10655298Y-16067779D02*
X10664821Y-16048731D01*
X10664821Y-16048731D02*
X10674345Y-16039207D01*
X10674345Y-16039207D02*
X10693393Y-16029684D01*
X10883869Y-16029684D02*
X10902917Y-16029684D01*
X10902917Y-16029684D02*
X10921964Y-16039207D01*
X10921964Y-16039207D02*
X10931488Y-16048731D01*
X10931488Y-16048731D02*
X10941012Y-16067779D01*
X10941012Y-16067779D02*
X10950536Y-16105874D01*
X10950536Y-16105874D02*
X10950536Y-16153493D01*
X10950536Y-16153493D02*
X10941012Y-16191588D01*
X10941012Y-16191588D02*
X10931488Y-16210636D01*
X10931488Y-16210636D02*
X10921964Y-16220160D01*
X10921964Y-16220160D02*
X10902917Y-16229684D01*
X10902917Y-16229684D02*
X10883869Y-16229684D01*
X10883869Y-16229684D02*
X10864821Y-16220160D01*
X10864821Y-16220160D02*
X10855298Y-16210636D01*
X10855298Y-16210636D02*
X10845774Y-16191588D01*
X10845774Y-16191588D02*
X10836250Y-16153493D01*
X10836250Y-16153493D02*
X10836250Y-16105874D01*
X10836250Y-16105874D02*
X10845774Y-16067779D01*
X10845774Y-16067779D02*
X10855298Y-16048731D01*
X10855298Y-16048731D02*
X10864821Y-16039207D01*
X10864821Y-16039207D02*
X10883869Y-16029684D01*
X11036250Y-16229684D02*
X11036250Y-16096350D01*
X11036250Y-16115398D02*
X11045774Y-16105874D01*
X11045774Y-16105874D02*
X11064821Y-16096350D01*
X11064821Y-16096350D02*
X11093393Y-16096350D01*
X11093393Y-16096350D02*
X11112440Y-16105874D01*
X11112440Y-16105874D02*
X11121964Y-16124922D01*
X11121964Y-16124922D02*
X11121964Y-16229684D01*
X11121964Y-16124922D02*
X11131488Y-16105874D01*
X11131488Y-16105874D02*
X11150536Y-16096350D01*
X11150536Y-16096350D02*
X11179107Y-16096350D01*
X11179107Y-16096350D02*
X11198155Y-16105874D01*
X11198155Y-16105874D02*
X11207678Y-16124922D01*
X11207678Y-16124922D02*
X11207678Y-16229684D01*
X11302917Y-16229684D02*
X11302917Y-16096350D01*
X11302917Y-16115398D02*
X11312440Y-16105874D01*
X11312440Y-16105874D02*
X11331488Y-16096350D01*
X11331488Y-16096350D02*
X11360059Y-16096350D01*
X11360059Y-16096350D02*
X11379107Y-16105874D01*
X11379107Y-16105874D02*
X11388631Y-16124922D01*
X11388631Y-16124922D02*
X11388631Y-16229684D01*
X11388631Y-16124922D02*
X11398155Y-16105874D01*
X11398155Y-16105874D02*
X11417202Y-16096350D01*
X11417202Y-16096350D02*
X11445774Y-16096350D01*
X11445774Y-16096350D02*
X11464821Y-16105874D01*
X11464821Y-16105874D02*
X11474345Y-16124922D01*
X11474345Y-16124922D02*
X11474345Y-16229684D01*
X11864821Y-16020160D02*
X11693393Y-16277303D01*
X12121964Y-16029684D02*
X12141012Y-16029684D01*
X12141012Y-16029684D02*
X12160060Y-16039207D01*
X12160060Y-16039207D02*
X12169583Y-16048731D01*
X12169583Y-16048731D02*
X12179107Y-16067779D01*
X12179107Y-16067779D02*
X12188631Y-16105874D01*
X12188631Y-16105874D02*
X12188631Y-16153493D01*
X12188631Y-16153493D02*
X12179107Y-16191588D01*
X12179107Y-16191588D02*
X12169583Y-16210636D01*
X12169583Y-16210636D02*
X12160060Y-16220160D01*
X12160060Y-16220160D02*
X12141012Y-16229684D01*
X12141012Y-16229684D02*
X12121964Y-16229684D01*
X12121964Y-16229684D02*
X12102917Y-16220160D01*
X12102917Y-16220160D02*
X12093393Y-16210636D01*
X12093393Y-16210636D02*
X12083869Y-16191588D01*
X12083869Y-16191588D02*
X12074345Y-16153493D01*
X12074345Y-16153493D02*
X12074345Y-16105874D01*
X12074345Y-16105874D02*
X12083869Y-16067779D01*
X12083869Y-16067779D02*
X12093393Y-16048731D01*
X12093393Y-16048731D02*
X12102917Y-16039207D01*
X12102917Y-16039207D02*
X12121964Y-16029684D01*
X12274345Y-16210636D02*
X12283869Y-16220160D01*
X12283869Y-16220160D02*
X12274345Y-16229684D01*
X12274345Y-16229684D02*
X12264821Y-16220160D01*
X12264821Y-16220160D02*
X12274345Y-16210636D01*
X12274345Y-16210636D02*
X12274345Y-16229684D01*
X12407679Y-16029684D02*
X12426726Y-16029684D01*
X12426726Y-16029684D02*
X12445774Y-16039207D01*
X12445774Y-16039207D02*
X12455298Y-16048731D01*
X12455298Y-16048731D02*
X12464821Y-16067779D01*
X12464821Y-16067779D02*
X12474345Y-16105874D01*
X12474345Y-16105874D02*
X12474345Y-16153493D01*
X12474345Y-16153493D02*
X12464821Y-16191588D01*
X12464821Y-16191588D02*
X12455298Y-16210636D01*
X12455298Y-16210636D02*
X12445774Y-16220160D01*
X12445774Y-16220160D02*
X12426726Y-16229684D01*
X12426726Y-16229684D02*
X12407679Y-16229684D01*
X12407679Y-16229684D02*
X12388631Y-16220160D01*
X12388631Y-16220160D02*
X12379107Y-16210636D01*
X12379107Y-16210636D02*
X12369583Y-16191588D01*
X12369583Y-16191588D02*
X12360060Y-16153493D01*
X12360060Y-16153493D02*
X12360060Y-16105874D01*
X12360060Y-16105874D02*
X12369583Y-16067779D01*
X12369583Y-16067779D02*
X12379107Y-16048731D01*
X12379107Y-16048731D02*
X12388631Y-16039207D01*
X12388631Y-16039207D02*
X12407679Y-16029684D01*
X12541012Y-16029684D02*
X12664821Y-16029684D01*
X12664821Y-16029684D02*
X12598155Y-16105874D01*
X12598155Y-16105874D02*
X12626726Y-16105874D01*
X12626726Y-16105874D02*
X12645774Y-16115398D01*
X12645774Y-16115398D02*
X12655298Y-16124922D01*
X12655298Y-16124922D02*
X12664821Y-16143969D01*
X12664821Y-16143969D02*
X12664821Y-16191588D01*
X12664821Y-16191588D02*
X12655298Y-16210636D01*
X12655298Y-16210636D02*
X12645774Y-16220160D01*
X12645774Y-16220160D02*
X12626726Y-16229684D01*
X12626726Y-16229684D02*
X12569583Y-16229684D01*
X12569583Y-16229684D02*
X12550536Y-16220160D01*
X12550536Y-16220160D02*
X12541012Y-16210636D01*
X12760060Y-16229684D02*
X12798155Y-16229684D01*
X12798155Y-16229684D02*
X12817202Y-16220160D01*
X12817202Y-16220160D02*
X12826726Y-16210636D01*
X12826726Y-16210636D02*
X12845774Y-16182065D01*
X12845774Y-16182065D02*
X12855298Y-16143969D01*
X12855298Y-16143969D02*
X12855298Y-16067779D01*
X12855298Y-16067779D02*
X12845774Y-16048731D01*
X12845774Y-16048731D02*
X12836250Y-16039207D01*
X12836250Y-16039207D02*
X12817202Y-16029684D01*
X12817202Y-16029684D02*
X12779107Y-16029684D01*
X12779107Y-16029684D02*
X12760060Y-16039207D01*
X12760060Y-16039207D02*
X12750536Y-16048731D01*
X12750536Y-16048731D02*
X12741012Y-16067779D01*
X12741012Y-16067779D02*
X12741012Y-16115398D01*
X12741012Y-16115398D02*
X12750536Y-16134446D01*
X12750536Y-16134446D02*
X12760060Y-16143969D01*
X12760060Y-16143969D02*
X12779107Y-16153493D01*
X12779107Y-16153493D02*
X12817202Y-16153493D01*
X12817202Y-16153493D02*
X12836250Y-16143969D01*
X12836250Y-16143969D02*
X12845774Y-16134446D01*
X12845774Y-16134446D02*
X12855298Y-16115398D01*
X13026726Y-16096350D02*
X13026726Y-16229684D01*
X12979107Y-16020160D02*
X12931488Y-16163017D01*
X12931488Y-16163017D02*
X13055298Y-16163017D01*
X13121964Y-16029684D02*
X13121964Y-16067779D01*
X13198155Y-16029684D02*
X13198155Y-16067779D01*
X13493393Y-16305874D02*
X13483869Y-16296350D01*
X13483869Y-16296350D02*
X13464822Y-16267779D01*
X13464822Y-16267779D02*
X13455298Y-16248731D01*
X13455298Y-16248731D02*
X13445774Y-16220160D01*
X13445774Y-16220160D02*
X13436250Y-16172541D01*
X13436250Y-16172541D02*
X13436250Y-16134446D01*
X13436250Y-16134446D02*
X13445774Y-16086826D01*
X13445774Y-16086826D02*
X13455298Y-16058255D01*
X13455298Y-16058255D02*
X13464822Y-16039207D01*
X13464822Y-16039207D02*
X13483869Y-16010636D01*
X13483869Y-16010636D02*
X13493393Y-16001112D01*
X13655298Y-16096350D02*
X13655298Y-16229684D01*
X13607679Y-16020160D02*
X13560060Y-16163017D01*
X13560060Y-16163017D02*
X13683869Y-16163017D01*
X13912441Y-16229684D02*
X13912441Y-16029684D01*
X13998155Y-16229684D02*
X13998155Y-16124922D01*
X13998155Y-16124922D02*
X13988631Y-16105874D01*
X13988631Y-16105874D02*
X13969584Y-16096350D01*
X13969584Y-16096350D02*
X13941012Y-16096350D01*
X13941012Y-16096350D02*
X13921964Y-16105874D01*
X13921964Y-16105874D02*
X13912441Y-16115398D01*
X14121964Y-16229684D02*
X14102917Y-16220160D01*
X14102917Y-16220160D02*
X14093393Y-16210636D01*
X14093393Y-16210636D02*
X14083869Y-16191588D01*
X14083869Y-16191588D02*
X14083869Y-16134446D01*
X14083869Y-16134446D02*
X14093393Y-16115398D01*
X14093393Y-16115398D02*
X14102917Y-16105874D01*
X14102917Y-16105874D02*
X14121964Y-16096350D01*
X14121964Y-16096350D02*
X14150536Y-16096350D01*
X14150536Y-16096350D02*
X14169584Y-16105874D01*
X14169584Y-16105874D02*
X14179107Y-16115398D01*
X14179107Y-16115398D02*
X14188631Y-16134446D01*
X14188631Y-16134446D02*
X14188631Y-16191588D01*
X14188631Y-16191588D02*
X14179107Y-16210636D01*
X14179107Y-16210636D02*
X14169584Y-16220160D01*
X14169584Y-16220160D02*
X14150536Y-16229684D01*
X14150536Y-16229684D02*
X14121964Y-16229684D01*
X14302917Y-16229684D02*
X14283869Y-16220160D01*
X14283869Y-16220160D02*
X14274345Y-16201112D01*
X14274345Y-16201112D02*
X14274345Y-16029684D01*
X14455298Y-16220160D02*
X14436250Y-16229684D01*
X14436250Y-16229684D02*
X14398155Y-16229684D01*
X14398155Y-16229684D02*
X14379107Y-16220160D01*
X14379107Y-16220160D02*
X14369584Y-16201112D01*
X14369584Y-16201112D02*
X14369584Y-16124922D01*
X14369584Y-16124922D02*
X14379107Y-16105874D01*
X14379107Y-16105874D02*
X14398155Y-16096350D01*
X14398155Y-16096350D02*
X14436250Y-16096350D01*
X14436250Y-16096350D02*
X14455298Y-16105874D01*
X14455298Y-16105874D02*
X14464822Y-16124922D01*
X14464822Y-16124922D02*
X14464822Y-16143969D01*
X14464822Y-16143969D02*
X14369584Y-16163017D01*
X14541012Y-16220160D02*
X14560060Y-16229684D01*
X14560060Y-16229684D02*
X14598155Y-16229684D01*
X14598155Y-16229684D02*
X14617203Y-16220160D01*
X14617203Y-16220160D02*
X14626726Y-16201112D01*
X14626726Y-16201112D02*
X14626726Y-16191588D01*
X14626726Y-16191588D02*
X14617203Y-16172541D01*
X14617203Y-16172541D02*
X14598155Y-16163017D01*
X14598155Y-16163017D02*
X14569584Y-16163017D01*
X14569584Y-16163017D02*
X14550536Y-16153493D01*
X14550536Y-16153493D02*
X14541012Y-16134446D01*
X14541012Y-16134446D02*
X14541012Y-16124922D01*
X14541012Y-16124922D02*
X14550536Y-16105874D01*
X14550536Y-16105874D02*
X14569584Y-16096350D01*
X14569584Y-16096350D02*
X14598155Y-16096350D01*
X14598155Y-16096350D02*
X14617203Y-16105874D01*
X14693393Y-16305874D02*
X14702917Y-16296350D01*
X14702917Y-16296350D02*
X14721965Y-16267779D01*
X14721965Y-16267779D02*
X14731488Y-16248731D01*
X14731488Y-16248731D02*
X14741012Y-16220160D01*
X14741012Y-16220160D02*
X14750536Y-16172541D01*
X14750536Y-16172541D02*
X14750536Y-16134446D01*
X14750536Y-16134446D02*
X14741012Y-16086826D01*
X14741012Y-16086826D02*
X14731488Y-16058255D01*
X14731488Y-16058255D02*
X14721965Y-16039207D01*
X14721965Y-16039207D02*
X14702917Y-16010636D01*
X14702917Y-16010636D02*
X14693393Y-16001112D01*
D10*
X9818330Y-16352200D02*
X9918330Y-16452200D01*
X9918330Y-16352200D02*
X9818330Y-16452200D01*
X9868330Y-16352200D02*
X9868330Y-16452200D01*
X9818330Y-16402200D02*
X9918330Y-16402200D01*
D11*
X10283869Y-16493684D02*
X10169583Y-16493684D01*
X10226726Y-16493684D02*
X10226726Y-16293684D01*
X10226726Y-16293684D02*
X10207678Y-16322255D01*
X10207678Y-16322255D02*
X10188631Y-16341303D01*
X10188631Y-16341303D02*
X10169583Y-16350826D01*
X10369583Y-16474636D02*
X10379107Y-16484160D01*
X10379107Y-16484160D02*
X10369583Y-16493684D01*
X10369583Y-16493684D02*
X10360059Y-16484160D01*
X10360059Y-16484160D02*
X10369583Y-16474636D01*
X10369583Y-16474636D02*
X10369583Y-16493684D01*
X10502917Y-16293684D02*
X10521964Y-16293684D01*
X10521964Y-16293684D02*
X10541012Y-16303207D01*
X10541012Y-16303207D02*
X10550536Y-16312731D01*
X10550536Y-16312731D02*
X10560059Y-16331779D01*
X10560059Y-16331779D02*
X10569583Y-16369874D01*
X10569583Y-16369874D02*
X10569583Y-16417493D01*
X10569583Y-16417493D02*
X10560059Y-16455588D01*
X10560059Y-16455588D02*
X10550536Y-16474636D01*
X10550536Y-16474636D02*
X10541012Y-16484160D01*
X10541012Y-16484160D02*
X10521964Y-16493684D01*
X10521964Y-16493684D02*
X10502917Y-16493684D01*
X10502917Y-16493684D02*
X10483869Y-16484160D01*
X10483869Y-16484160D02*
X10474345Y-16474636D01*
X10474345Y-16474636D02*
X10464821Y-16455588D01*
X10464821Y-16455588D02*
X10455298Y-16417493D01*
X10455298Y-16417493D02*
X10455298Y-16369874D01*
X10455298Y-16369874D02*
X10464821Y-16331779D01*
X10464821Y-16331779D02*
X10474345Y-16312731D01*
X10474345Y-16312731D02*
X10483869Y-16303207D01*
X10483869Y-16303207D02*
X10502917Y-16293684D01*
X10693393Y-16293684D02*
X10712440Y-16293684D01*
X10712440Y-16293684D02*
X10731488Y-16303207D01*
X10731488Y-16303207D02*
X10741012Y-16312731D01*
X10741012Y-16312731D02*
X10750536Y-16331779D01*
X10750536Y-16331779D02*
X10760059Y-16369874D01*
X10760059Y-16369874D02*
X10760059Y-16417493D01*
X10760059Y-16417493D02*
X10750536Y-16455588D01*
X10750536Y-16455588D02*
X10741012Y-16474636D01*
X10741012Y-16474636D02*
X10731488Y-16484160D01*
X10731488Y-16484160D02*
X10712440Y-16493684D01*
X10712440Y-16493684D02*
X10693393Y-16493684D01*
X10693393Y-16493684D02*
X10674345Y-16484160D01*
X10674345Y-16484160D02*
X10664821Y-16474636D01*
X10664821Y-16474636D02*
X10655298Y-16455588D01*
X10655298Y-16455588D02*
X10645774Y-16417493D01*
X10645774Y-16417493D02*
X10645774Y-16369874D01*
X10645774Y-16369874D02*
X10655298Y-16331779D01*
X10655298Y-16331779D02*
X10664821Y-16312731D01*
X10664821Y-16312731D02*
X10674345Y-16303207D01*
X10674345Y-16303207D02*
X10693393Y-16293684D01*
X10883869Y-16293684D02*
X10902917Y-16293684D01*
X10902917Y-16293684D02*
X10921964Y-16303207D01*
X10921964Y-16303207D02*
X10931488Y-16312731D01*
X10931488Y-16312731D02*
X10941012Y-16331779D01*
X10941012Y-16331779D02*
X10950536Y-16369874D01*
X10950536Y-16369874D02*
X10950536Y-16417493D01*
X10950536Y-16417493D02*
X10941012Y-16455588D01*
X10941012Y-16455588D02*
X10931488Y-16474636D01*
X10931488Y-16474636D02*
X10921964Y-16484160D01*
X10921964Y-16484160D02*
X10902917Y-16493684D01*
X10902917Y-16493684D02*
X10883869Y-16493684D01*
X10883869Y-16493684D02*
X10864821Y-16484160D01*
X10864821Y-16484160D02*
X10855298Y-16474636D01*
X10855298Y-16474636D02*
X10845774Y-16455588D01*
X10845774Y-16455588D02*
X10836250Y-16417493D01*
X10836250Y-16417493D02*
X10836250Y-16369874D01*
X10836250Y-16369874D02*
X10845774Y-16331779D01*
X10845774Y-16331779D02*
X10855298Y-16312731D01*
X10855298Y-16312731D02*
X10864821Y-16303207D01*
X10864821Y-16303207D02*
X10883869Y-16293684D01*
X11036250Y-16493684D02*
X11036250Y-16360350D01*
X11036250Y-16379398D02*
X11045774Y-16369874D01*
X11045774Y-16369874D02*
X11064821Y-16360350D01*
X11064821Y-16360350D02*
X11093393Y-16360350D01*
X11093393Y-16360350D02*
X11112440Y-16369874D01*
X11112440Y-16369874D02*
X11121964Y-16388922D01*
X11121964Y-16388922D02*
X11121964Y-16493684D01*
X11121964Y-16388922D02*
X11131488Y-16369874D01*
X11131488Y-16369874D02*
X11150536Y-16360350D01*
X11150536Y-16360350D02*
X11179107Y-16360350D01*
X11179107Y-16360350D02*
X11198155Y-16369874D01*
X11198155Y-16369874D02*
X11207678Y-16388922D01*
X11207678Y-16388922D02*
X11207678Y-16493684D01*
X11302917Y-16493684D02*
X11302917Y-16360350D01*
X11302917Y-16379398D02*
X11312440Y-16369874D01*
X11312440Y-16369874D02*
X11331488Y-16360350D01*
X11331488Y-16360350D02*
X11360059Y-16360350D01*
X11360059Y-16360350D02*
X11379107Y-16369874D01*
X11379107Y-16369874D02*
X11388631Y-16388922D01*
X11388631Y-16388922D02*
X11388631Y-16493684D01*
X11388631Y-16388922D02*
X11398155Y-16369874D01*
X11398155Y-16369874D02*
X11417202Y-16360350D01*
X11417202Y-16360350D02*
X11445774Y-16360350D01*
X11445774Y-16360350D02*
X11464821Y-16369874D01*
X11464821Y-16369874D02*
X11474345Y-16388922D01*
X11474345Y-16388922D02*
X11474345Y-16493684D01*
X11864821Y-16284160D02*
X11693393Y-16541303D01*
X12121964Y-16293684D02*
X12141012Y-16293684D01*
X12141012Y-16293684D02*
X12160060Y-16303207D01*
X12160060Y-16303207D02*
X12169583Y-16312731D01*
X12169583Y-16312731D02*
X12179107Y-16331779D01*
X12179107Y-16331779D02*
X12188631Y-16369874D01*
X12188631Y-16369874D02*
X12188631Y-16417493D01*
X12188631Y-16417493D02*
X12179107Y-16455588D01*
X12179107Y-16455588D02*
X12169583Y-16474636D01*
X12169583Y-16474636D02*
X12160060Y-16484160D01*
X12160060Y-16484160D02*
X12141012Y-16493684D01*
X12141012Y-16493684D02*
X12121964Y-16493684D01*
X12121964Y-16493684D02*
X12102917Y-16484160D01*
X12102917Y-16484160D02*
X12093393Y-16474636D01*
X12093393Y-16474636D02*
X12083869Y-16455588D01*
X12083869Y-16455588D02*
X12074345Y-16417493D01*
X12074345Y-16417493D02*
X12074345Y-16369874D01*
X12074345Y-16369874D02*
X12083869Y-16331779D01*
X12083869Y-16331779D02*
X12093393Y-16312731D01*
X12093393Y-16312731D02*
X12102917Y-16303207D01*
X12102917Y-16303207D02*
X12121964Y-16293684D01*
X12274345Y-16474636D02*
X12283869Y-16484160D01*
X12283869Y-16484160D02*
X12274345Y-16493684D01*
X12274345Y-16493684D02*
X12264821Y-16484160D01*
X12264821Y-16484160D02*
X12274345Y-16474636D01*
X12274345Y-16474636D02*
X12274345Y-16493684D01*
X12407679Y-16293684D02*
X12426726Y-16293684D01*
X12426726Y-16293684D02*
X12445774Y-16303207D01*
X12445774Y-16303207D02*
X12455298Y-16312731D01*
X12455298Y-16312731D02*
X12464821Y-16331779D01*
X12464821Y-16331779D02*
X12474345Y-16369874D01*
X12474345Y-16369874D02*
X12474345Y-16417493D01*
X12474345Y-16417493D02*
X12464821Y-16455588D01*
X12464821Y-16455588D02*
X12455298Y-16474636D01*
X12455298Y-16474636D02*
X12445774Y-16484160D01*
X12445774Y-16484160D02*
X12426726Y-16493684D01*
X12426726Y-16493684D02*
X12407679Y-16493684D01*
X12407679Y-16493684D02*
X12388631Y-16484160D01*
X12388631Y-16484160D02*
X12379107Y-16474636D01*
X12379107Y-16474636D02*
X12369583Y-16455588D01*
X12369583Y-16455588D02*
X12360060Y-16417493D01*
X12360060Y-16417493D02*
X12360060Y-16369874D01*
X12360060Y-16369874D02*
X12369583Y-16331779D01*
X12369583Y-16331779D02*
X12379107Y-16312731D01*
X12379107Y-16312731D02*
X12388631Y-16303207D01*
X12388631Y-16303207D02*
X12407679Y-16293684D01*
X12541012Y-16293684D02*
X12664821Y-16293684D01*
X12664821Y-16293684D02*
X12598155Y-16369874D01*
X12598155Y-16369874D02*
X12626726Y-16369874D01*
X12626726Y-16369874D02*
X12645774Y-16379398D01*
X12645774Y-16379398D02*
X12655298Y-16388922D01*
X12655298Y-16388922D02*
X12664821Y-16407969D01*
X12664821Y-16407969D02*
X12664821Y-16455588D01*
X12664821Y-16455588D02*
X12655298Y-16474636D01*
X12655298Y-16474636D02*
X12645774Y-16484160D01*
X12645774Y-16484160D02*
X12626726Y-16493684D01*
X12626726Y-16493684D02*
X12569583Y-16493684D01*
X12569583Y-16493684D02*
X12550536Y-16484160D01*
X12550536Y-16484160D02*
X12541012Y-16474636D01*
X12760060Y-16493684D02*
X12798155Y-16493684D01*
X12798155Y-16493684D02*
X12817202Y-16484160D01*
X12817202Y-16484160D02*
X12826726Y-16474636D01*
X12826726Y-16474636D02*
X12845774Y-16446065D01*
X12845774Y-16446065D02*
X12855298Y-16407969D01*
X12855298Y-16407969D02*
X12855298Y-16331779D01*
X12855298Y-16331779D02*
X12845774Y-16312731D01*
X12845774Y-16312731D02*
X12836250Y-16303207D01*
X12836250Y-16303207D02*
X12817202Y-16293684D01*
X12817202Y-16293684D02*
X12779107Y-16293684D01*
X12779107Y-16293684D02*
X12760060Y-16303207D01*
X12760060Y-16303207D02*
X12750536Y-16312731D01*
X12750536Y-16312731D02*
X12741012Y-16331779D01*
X12741012Y-16331779D02*
X12741012Y-16379398D01*
X12741012Y-16379398D02*
X12750536Y-16398446D01*
X12750536Y-16398446D02*
X12760060Y-16407969D01*
X12760060Y-16407969D02*
X12779107Y-16417493D01*
X12779107Y-16417493D02*
X12817202Y-16417493D01*
X12817202Y-16417493D02*
X12836250Y-16407969D01*
X12836250Y-16407969D02*
X12845774Y-16398446D01*
X12845774Y-16398446D02*
X12855298Y-16379398D01*
X13026726Y-16360350D02*
X13026726Y-16493684D01*
X12979107Y-16284160D02*
X12931488Y-16427017D01*
X12931488Y-16427017D02*
X13055298Y-16427017D01*
X13121964Y-16293684D02*
X13121964Y-16331779D01*
X13198155Y-16293684D02*
X13198155Y-16331779D01*
X13493393Y-16569874D02*
X13483869Y-16560350D01*
X13483869Y-16560350D02*
X13464822Y-16531779D01*
X13464822Y-16531779D02*
X13455298Y-16512731D01*
X13455298Y-16512731D02*
X13445774Y-16484160D01*
X13445774Y-16484160D02*
X13436250Y-16436541D01*
X13436250Y-16436541D02*
X13436250Y-16398446D01*
X13436250Y-16398446D02*
X13445774Y-16350826D01*
X13445774Y-16350826D02*
X13455298Y-16322255D01*
X13455298Y-16322255D02*
X13464822Y-16303207D01*
X13464822Y-16303207D02*
X13483869Y-16274636D01*
X13483869Y-16274636D02*
X13493393Y-16265112D01*
X13674345Y-16493684D02*
X13560060Y-16493684D01*
X13617202Y-16493684D02*
X13617202Y-16293684D01*
X13617202Y-16293684D02*
X13598155Y-16322255D01*
X13598155Y-16322255D02*
X13579107Y-16341303D01*
X13579107Y-16341303D02*
X13560060Y-16350826D01*
X13741012Y-16293684D02*
X13874345Y-16293684D01*
X13874345Y-16293684D02*
X13788631Y-16493684D01*
X14102917Y-16493684D02*
X14102917Y-16293684D01*
X14188631Y-16493684D02*
X14188631Y-16388922D01*
X14188631Y-16388922D02*
X14179107Y-16369874D01*
X14179107Y-16369874D02*
X14160060Y-16360350D01*
X14160060Y-16360350D02*
X14131488Y-16360350D01*
X14131488Y-16360350D02*
X14112441Y-16369874D01*
X14112441Y-16369874D02*
X14102917Y-16379398D01*
X14312441Y-16493684D02*
X14293393Y-16484160D01*
X14293393Y-16484160D02*
X14283869Y-16474636D01*
X14283869Y-16474636D02*
X14274345Y-16455588D01*
X14274345Y-16455588D02*
X14274345Y-16398446D01*
X14274345Y-16398446D02*
X14283869Y-16379398D01*
X14283869Y-16379398D02*
X14293393Y-16369874D01*
X14293393Y-16369874D02*
X14312441Y-16360350D01*
X14312441Y-16360350D02*
X14341012Y-16360350D01*
X14341012Y-16360350D02*
X14360060Y-16369874D01*
X14360060Y-16369874D02*
X14369584Y-16379398D01*
X14369584Y-16379398D02*
X14379107Y-16398446D01*
X14379107Y-16398446D02*
X14379107Y-16455588D01*
X14379107Y-16455588D02*
X14369584Y-16474636D01*
X14369584Y-16474636D02*
X14360060Y-16484160D01*
X14360060Y-16484160D02*
X14341012Y-16493684D01*
X14341012Y-16493684D02*
X14312441Y-16493684D01*
X14493393Y-16493684D02*
X14474345Y-16484160D01*
X14474345Y-16484160D02*
X14464822Y-16465112D01*
X14464822Y-16465112D02*
X14464822Y-16293684D01*
X14645774Y-16484160D02*
X14626726Y-16493684D01*
X14626726Y-16493684D02*
X14588631Y-16493684D01*
X14588631Y-16493684D02*
X14569584Y-16484160D01*
X14569584Y-16484160D02*
X14560060Y-16465112D01*
X14560060Y-16465112D02*
X14560060Y-16388922D01*
X14560060Y-16388922D02*
X14569584Y-16369874D01*
X14569584Y-16369874D02*
X14588631Y-16360350D01*
X14588631Y-16360350D02*
X14626726Y-16360350D01*
X14626726Y-16360350D02*
X14645774Y-16369874D01*
X14645774Y-16369874D02*
X14655298Y-16388922D01*
X14655298Y-16388922D02*
X14655298Y-16407969D01*
X14655298Y-16407969D02*
X14560060Y-16427017D01*
X14731488Y-16484160D02*
X14750536Y-16493684D01*
X14750536Y-16493684D02*
X14788631Y-16493684D01*
X14788631Y-16493684D02*
X14807679Y-16484160D01*
X14807679Y-16484160D02*
X14817203Y-16465112D01*
X14817203Y-16465112D02*
X14817203Y-16455588D01*
X14817203Y-16455588D02*
X14807679Y-16436541D01*
X14807679Y-16436541D02*
X14788631Y-16427017D01*
X14788631Y-16427017D02*
X14760060Y-16427017D01*
X14760060Y-16427017D02*
X14741012Y-16417493D01*
X14741012Y-16417493D02*
X14731488Y-16398446D01*
X14731488Y-16398446D02*
X14731488Y-16388922D01*
X14731488Y-16388922D02*
X14741012Y-16369874D01*
X14741012Y-16369874D02*
X14760060Y-16360350D01*
X14760060Y-16360350D02*
X14788631Y-16360350D01*
X14788631Y-16360350D02*
X14807679Y-16369874D01*
X14883869Y-16569874D02*
X14893393Y-16560350D01*
X14893393Y-16560350D02*
X14912441Y-16531779D01*
X14912441Y-16531779D02*
X14921965Y-16512731D01*
X14921965Y-16512731D02*
X14931488Y-16484160D01*
X14931488Y-16484160D02*
X14941012Y-16436541D01*
X14941012Y-16436541D02*
X14941012Y-16398446D01*
X14941012Y-16398446D02*
X14931488Y-16350826D01*
X14931488Y-16350826D02*
X14921965Y-16322255D01*
X14921965Y-16322255D02*
X14912441Y-16303207D01*
X14912441Y-16303207D02*
X14893393Y-16274636D01*
X14893393Y-16274636D02*
X14883869Y-16265112D01*
D17*
X9816730Y-16615400D02*
X9918330Y-16717000D01*
X9918330Y-16615400D02*
X9816730Y-16717000D01*
X9903452Y-16702121D02*
X9903452Y-16630278D01*
X9831609Y-16630278D01*
X9831609Y-16702121D01*
X9903452Y-16702121D01*
D11*
X10283869Y-16757684D02*
X10169583Y-16757684D01*
X10226726Y-16757684D02*
X10226726Y-16557684D01*
X10226726Y-16557684D02*
X10207678Y-16586255D01*
X10207678Y-16586255D02*
X10188631Y-16605303D01*
X10188631Y-16605303D02*
X10169583Y-16614826D01*
X10369583Y-16738636D02*
X10379107Y-16748160D01*
X10379107Y-16748160D02*
X10369583Y-16757684D01*
X10369583Y-16757684D02*
X10360059Y-16748160D01*
X10360059Y-16748160D02*
X10369583Y-16738636D01*
X10369583Y-16738636D02*
X10369583Y-16757684D01*
X10502917Y-16557684D02*
X10521964Y-16557684D01*
X10521964Y-16557684D02*
X10541012Y-16567207D01*
X10541012Y-16567207D02*
X10550536Y-16576731D01*
X10550536Y-16576731D02*
X10560059Y-16595779D01*
X10560059Y-16595779D02*
X10569583Y-16633874D01*
X10569583Y-16633874D02*
X10569583Y-16681493D01*
X10569583Y-16681493D02*
X10560059Y-16719588D01*
X10560059Y-16719588D02*
X10550536Y-16738636D01*
X10550536Y-16738636D02*
X10541012Y-16748160D01*
X10541012Y-16748160D02*
X10521964Y-16757684D01*
X10521964Y-16757684D02*
X10502917Y-16757684D01*
X10502917Y-16757684D02*
X10483869Y-16748160D01*
X10483869Y-16748160D02*
X10474345Y-16738636D01*
X10474345Y-16738636D02*
X10464821Y-16719588D01*
X10464821Y-16719588D02*
X10455298Y-16681493D01*
X10455298Y-16681493D02*
X10455298Y-16633874D01*
X10455298Y-16633874D02*
X10464821Y-16595779D01*
X10464821Y-16595779D02*
X10474345Y-16576731D01*
X10474345Y-16576731D02*
X10483869Y-16567207D01*
X10483869Y-16567207D02*
X10502917Y-16557684D01*
X10760059Y-16757684D02*
X10645774Y-16757684D01*
X10702917Y-16757684D02*
X10702917Y-16557684D01*
X10702917Y-16557684D02*
X10683869Y-16586255D01*
X10683869Y-16586255D02*
X10664821Y-16605303D01*
X10664821Y-16605303D02*
X10645774Y-16614826D01*
X10931488Y-16557684D02*
X10893393Y-16557684D01*
X10893393Y-16557684D02*
X10874345Y-16567207D01*
X10874345Y-16567207D02*
X10864821Y-16576731D01*
X10864821Y-16576731D02*
X10845774Y-16605303D01*
X10845774Y-16605303D02*
X10836250Y-16643398D01*
X10836250Y-16643398D02*
X10836250Y-16719588D01*
X10836250Y-16719588D02*
X10845774Y-16738636D01*
X10845774Y-16738636D02*
X10855298Y-16748160D01*
X10855298Y-16748160D02*
X10874345Y-16757684D01*
X10874345Y-16757684D02*
X10912440Y-16757684D01*
X10912440Y-16757684D02*
X10931488Y-16748160D01*
X10931488Y-16748160D02*
X10941012Y-16738636D01*
X10941012Y-16738636D02*
X10950536Y-16719588D01*
X10950536Y-16719588D02*
X10950536Y-16671969D01*
X10950536Y-16671969D02*
X10941012Y-16652922D01*
X10941012Y-16652922D02*
X10931488Y-16643398D01*
X10931488Y-16643398D02*
X10912440Y-16633874D01*
X10912440Y-16633874D02*
X10874345Y-16633874D01*
X10874345Y-16633874D02*
X10855298Y-16643398D01*
X10855298Y-16643398D02*
X10845774Y-16652922D01*
X10845774Y-16652922D02*
X10836250Y-16671969D01*
X11036250Y-16757684D02*
X11036250Y-16624350D01*
X11036250Y-16643398D02*
X11045774Y-16633874D01*
X11045774Y-16633874D02*
X11064821Y-16624350D01*
X11064821Y-16624350D02*
X11093393Y-16624350D01*
X11093393Y-16624350D02*
X11112440Y-16633874D01*
X11112440Y-16633874D02*
X11121964Y-16652922D01*
X11121964Y-16652922D02*
X11121964Y-16757684D01*
X11121964Y-16652922D02*
X11131488Y-16633874D01*
X11131488Y-16633874D02*
X11150536Y-16624350D01*
X11150536Y-16624350D02*
X11179107Y-16624350D01*
X11179107Y-16624350D02*
X11198155Y-16633874D01*
X11198155Y-16633874D02*
X11207678Y-16652922D01*
X11207678Y-16652922D02*
X11207678Y-16757684D01*
X11302917Y-16757684D02*
X11302917Y-16624350D01*
X11302917Y-16643398D02*
X11312440Y-16633874D01*
X11312440Y-16633874D02*
X11331488Y-16624350D01*
X11331488Y-16624350D02*
X11360059Y-16624350D01*
X11360059Y-16624350D02*
X11379107Y-16633874D01*
X11379107Y-16633874D02*
X11388631Y-16652922D01*
X11388631Y-16652922D02*
X11388631Y-16757684D01*
X11388631Y-16652922D02*
X11398155Y-16633874D01*
X11398155Y-16633874D02*
X11417202Y-16624350D01*
X11417202Y-16624350D02*
X11445774Y-16624350D01*
X11445774Y-16624350D02*
X11464821Y-16633874D01*
X11464821Y-16633874D02*
X11474345Y-16652922D01*
X11474345Y-16652922D02*
X11474345Y-16757684D01*
X11864821Y-16548160D02*
X11693393Y-16805303D01*
X12121964Y-16557684D02*
X12141012Y-16557684D01*
X12141012Y-16557684D02*
X12160060Y-16567207D01*
X12160060Y-16567207D02*
X12169583Y-16576731D01*
X12169583Y-16576731D02*
X12179107Y-16595779D01*
X12179107Y-16595779D02*
X12188631Y-16633874D01*
X12188631Y-16633874D02*
X12188631Y-16681493D01*
X12188631Y-16681493D02*
X12179107Y-16719588D01*
X12179107Y-16719588D02*
X12169583Y-16738636D01*
X12169583Y-16738636D02*
X12160060Y-16748160D01*
X12160060Y-16748160D02*
X12141012Y-16757684D01*
X12141012Y-16757684D02*
X12121964Y-16757684D01*
X12121964Y-16757684D02*
X12102917Y-16748160D01*
X12102917Y-16748160D02*
X12093393Y-16738636D01*
X12093393Y-16738636D02*
X12083869Y-16719588D01*
X12083869Y-16719588D02*
X12074345Y-16681493D01*
X12074345Y-16681493D02*
X12074345Y-16633874D01*
X12074345Y-16633874D02*
X12083869Y-16595779D01*
X12083869Y-16595779D02*
X12093393Y-16576731D01*
X12093393Y-16576731D02*
X12102917Y-16567207D01*
X12102917Y-16567207D02*
X12121964Y-16557684D01*
X12274345Y-16738636D02*
X12283869Y-16748160D01*
X12283869Y-16748160D02*
X12274345Y-16757684D01*
X12274345Y-16757684D02*
X12264821Y-16748160D01*
X12264821Y-16748160D02*
X12274345Y-16738636D01*
X12274345Y-16738636D02*
X12274345Y-16757684D01*
X12407679Y-16557684D02*
X12426726Y-16557684D01*
X12426726Y-16557684D02*
X12445774Y-16567207D01*
X12445774Y-16567207D02*
X12455298Y-16576731D01*
X12455298Y-16576731D02*
X12464821Y-16595779D01*
X12464821Y-16595779D02*
X12474345Y-16633874D01*
X12474345Y-16633874D02*
X12474345Y-16681493D01*
X12474345Y-16681493D02*
X12464821Y-16719588D01*
X12464821Y-16719588D02*
X12455298Y-16738636D01*
X12455298Y-16738636D02*
X12445774Y-16748160D01*
X12445774Y-16748160D02*
X12426726Y-16757684D01*
X12426726Y-16757684D02*
X12407679Y-16757684D01*
X12407679Y-16757684D02*
X12388631Y-16748160D01*
X12388631Y-16748160D02*
X12379107Y-16738636D01*
X12379107Y-16738636D02*
X12369583Y-16719588D01*
X12369583Y-16719588D02*
X12360060Y-16681493D01*
X12360060Y-16681493D02*
X12360060Y-16633874D01*
X12360060Y-16633874D02*
X12369583Y-16595779D01*
X12369583Y-16595779D02*
X12379107Y-16576731D01*
X12379107Y-16576731D02*
X12388631Y-16567207D01*
X12388631Y-16567207D02*
X12407679Y-16557684D01*
X12645774Y-16624350D02*
X12645774Y-16757684D01*
X12598155Y-16548160D02*
X12550536Y-16691017D01*
X12550536Y-16691017D02*
X12674345Y-16691017D01*
X12788631Y-16557684D02*
X12807679Y-16557684D01*
X12807679Y-16557684D02*
X12826726Y-16567207D01*
X12826726Y-16567207D02*
X12836250Y-16576731D01*
X12836250Y-16576731D02*
X12845774Y-16595779D01*
X12845774Y-16595779D02*
X12855298Y-16633874D01*
X12855298Y-16633874D02*
X12855298Y-16681493D01*
X12855298Y-16681493D02*
X12845774Y-16719588D01*
X12845774Y-16719588D02*
X12836250Y-16738636D01*
X12836250Y-16738636D02*
X12826726Y-16748160D01*
X12826726Y-16748160D02*
X12807679Y-16757684D01*
X12807679Y-16757684D02*
X12788631Y-16757684D01*
X12788631Y-16757684D02*
X12769583Y-16748160D01*
X12769583Y-16748160D02*
X12760060Y-16738636D01*
X12760060Y-16738636D02*
X12750536Y-16719588D01*
X12750536Y-16719588D02*
X12741012Y-16681493D01*
X12741012Y-16681493D02*
X12741012Y-16633874D01*
X12741012Y-16633874D02*
X12750536Y-16595779D01*
X12750536Y-16595779D02*
X12760060Y-16576731D01*
X12760060Y-16576731D02*
X12769583Y-16567207D01*
X12769583Y-16567207D02*
X12788631Y-16557684D01*
X12979107Y-16557684D02*
X12998155Y-16557684D01*
X12998155Y-16557684D02*
X13017202Y-16567207D01*
X13017202Y-16567207D02*
X13026726Y-16576731D01*
X13026726Y-16576731D02*
X13036250Y-16595779D01*
X13036250Y-16595779D02*
X13045774Y-16633874D01*
X13045774Y-16633874D02*
X13045774Y-16681493D01*
X13045774Y-16681493D02*
X13036250Y-16719588D01*
X13036250Y-16719588D02*
X13026726Y-16738636D01*
X13026726Y-16738636D02*
X13017202Y-16748160D01*
X13017202Y-16748160D02*
X12998155Y-16757684D01*
X12998155Y-16757684D02*
X12979107Y-16757684D01*
X12979107Y-16757684D02*
X12960060Y-16748160D01*
X12960060Y-16748160D02*
X12950536Y-16738636D01*
X12950536Y-16738636D02*
X12941012Y-16719588D01*
X12941012Y-16719588D02*
X12931488Y-16681493D01*
X12931488Y-16681493D02*
X12931488Y-16633874D01*
X12931488Y-16633874D02*
X12941012Y-16595779D01*
X12941012Y-16595779D02*
X12950536Y-16576731D01*
X12950536Y-16576731D02*
X12960060Y-16567207D01*
X12960060Y-16567207D02*
X12979107Y-16557684D01*
X13121964Y-16557684D02*
X13121964Y-16595779D01*
X13198155Y-16557684D02*
X13198155Y-16595779D01*
X13493393Y-16833874D02*
X13483869Y-16824350D01*
X13483869Y-16824350D02*
X13464822Y-16795779D01*
X13464822Y-16795779D02*
X13455298Y-16776731D01*
X13455298Y-16776731D02*
X13445774Y-16748160D01*
X13445774Y-16748160D02*
X13436250Y-16700541D01*
X13436250Y-16700541D02*
X13436250Y-16662446D01*
X13436250Y-16662446D02*
X13445774Y-16614826D01*
X13445774Y-16614826D02*
X13455298Y-16586255D01*
X13455298Y-16586255D02*
X13464822Y-16567207D01*
X13464822Y-16567207D02*
X13483869Y-16538636D01*
X13483869Y-16538636D02*
X13493393Y-16529112D01*
X13560060Y-16576731D02*
X13569583Y-16567207D01*
X13569583Y-16567207D02*
X13588631Y-16557684D01*
X13588631Y-16557684D02*
X13636250Y-16557684D01*
X13636250Y-16557684D02*
X13655298Y-16567207D01*
X13655298Y-16567207D02*
X13664822Y-16576731D01*
X13664822Y-16576731D02*
X13674345Y-16595779D01*
X13674345Y-16595779D02*
X13674345Y-16614826D01*
X13674345Y-16614826D02*
X13664822Y-16643398D01*
X13664822Y-16643398D02*
X13550536Y-16757684D01*
X13550536Y-16757684D02*
X13674345Y-16757684D01*
X13788631Y-16643398D02*
X13769583Y-16633874D01*
X13769583Y-16633874D02*
X13760060Y-16624350D01*
X13760060Y-16624350D02*
X13750536Y-16605303D01*
X13750536Y-16605303D02*
X13750536Y-16595779D01*
X13750536Y-16595779D02*
X13760060Y-16576731D01*
X13760060Y-16576731D02*
X13769583Y-16567207D01*
X13769583Y-16567207D02*
X13788631Y-16557684D01*
X13788631Y-16557684D02*
X13826726Y-16557684D01*
X13826726Y-16557684D02*
X13845774Y-16567207D01*
X13845774Y-16567207D02*
X13855298Y-16576731D01*
X13855298Y-16576731D02*
X13864822Y-16595779D01*
X13864822Y-16595779D02*
X13864822Y-16605303D01*
X13864822Y-16605303D02*
X13855298Y-16624350D01*
X13855298Y-16624350D02*
X13845774Y-16633874D01*
X13845774Y-16633874D02*
X13826726Y-16643398D01*
X13826726Y-16643398D02*
X13788631Y-16643398D01*
X13788631Y-16643398D02*
X13769583Y-16652922D01*
X13769583Y-16652922D02*
X13760060Y-16662446D01*
X13760060Y-16662446D02*
X13750536Y-16681493D01*
X13750536Y-16681493D02*
X13750536Y-16719588D01*
X13750536Y-16719588D02*
X13760060Y-16738636D01*
X13760060Y-16738636D02*
X13769583Y-16748160D01*
X13769583Y-16748160D02*
X13788631Y-16757684D01*
X13788631Y-16757684D02*
X13826726Y-16757684D01*
X13826726Y-16757684D02*
X13845774Y-16748160D01*
X13845774Y-16748160D02*
X13855298Y-16738636D01*
X13855298Y-16738636D02*
X13864822Y-16719588D01*
X13864822Y-16719588D02*
X13864822Y-16681493D01*
X13864822Y-16681493D02*
X13855298Y-16662446D01*
X13855298Y-16662446D02*
X13845774Y-16652922D01*
X13845774Y-16652922D02*
X13826726Y-16643398D01*
X14102917Y-16757684D02*
X14102917Y-16557684D01*
X14188631Y-16757684D02*
X14188631Y-16652922D01*
X14188631Y-16652922D02*
X14179107Y-16633874D01*
X14179107Y-16633874D02*
X14160060Y-16624350D01*
X14160060Y-16624350D02*
X14131488Y-16624350D01*
X14131488Y-16624350D02*
X14112441Y-16633874D01*
X14112441Y-16633874D02*
X14102917Y-16643398D01*
X14312441Y-16757684D02*
X14293393Y-16748160D01*
X14293393Y-16748160D02*
X14283869Y-16738636D01*
X14283869Y-16738636D02*
X14274345Y-16719588D01*
X14274345Y-16719588D02*
X14274345Y-16662446D01*
X14274345Y-16662446D02*
X14283869Y-16643398D01*
X14283869Y-16643398D02*
X14293393Y-16633874D01*
X14293393Y-16633874D02*
X14312441Y-16624350D01*
X14312441Y-16624350D02*
X14341012Y-16624350D01*
X14341012Y-16624350D02*
X14360060Y-16633874D01*
X14360060Y-16633874D02*
X14369584Y-16643398D01*
X14369584Y-16643398D02*
X14379107Y-16662446D01*
X14379107Y-16662446D02*
X14379107Y-16719588D01*
X14379107Y-16719588D02*
X14369584Y-16738636D01*
X14369584Y-16738636D02*
X14360060Y-16748160D01*
X14360060Y-16748160D02*
X14341012Y-16757684D01*
X14341012Y-16757684D02*
X14312441Y-16757684D01*
X14493393Y-16757684D02*
X14474345Y-16748160D01*
X14474345Y-16748160D02*
X14464822Y-16729112D01*
X14464822Y-16729112D02*
X14464822Y-16557684D01*
X14645774Y-16748160D02*
X14626726Y-16757684D01*
X14626726Y-16757684D02*
X14588631Y-16757684D01*
X14588631Y-16757684D02*
X14569584Y-16748160D01*
X14569584Y-16748160D02*
X14560060Y-16729112D01*
X14560060Y-16729112D02*
X14560060Y-16652922D01*
X14560060Y-16652922D02*
X14569584Y-16633874D01*
X14569584Y-16633874D02*
X14588631Y-16624350D01*
X14588631Y-16624350D02*
X14626726Y-16624350D01*
X14626726Y-16624350D02*
X14645774Y-16633874D01*
X14645774Y-16633874D02*
X14655298Y-16652922D01*
X14655298Y-16652922D02*
X14655298Y-16671969D01*
X14655298Y-16671969D02*
X14560060Y-16691017D01*
X14731488Y-16748160D02*
X14750536Y-16757684D01*
X14750536Y-16757684D02*
X14788631Y-16757684D01*
X14788631Y-16757684D02*
X14807679Y-16748160D01*
X14807679Y-16748160D02*
X14817203Y-16729112D01*
X14817203Y-16729112D02*
X14817203Y-16719588D01*
X14817203Y-16719588D02*
X14807679Y-16700541D01*
X14807679Y-16700541D02*
X14788631Y-16691017D01*
X14788631Y-16691017D02*
X14760060Y-16691017D01*
X14760060Y-16691017D02*
X14741012Y-16681493D01*
X14741012Y-16681493D02*
X14731488Y-16662446D01*
X14731488Y-16662446D02*
X14731488Y-16652922D01*
X14731488Y-16652922D02*
X14741012Y-16633874D01*
X14741012Y-16633874D02*
X14760060Y-16624350D01*
X14760060Y-16624350D02*
X14788631Y-16624350D01*
X14788631Y-16624350D02*
X14807679Y-16633874D01*
X14883869Y-16833874D02*
X14893393Y-16824350D01*
X14893393Y-16824350D02*
X14912441Y-16795779D01*
X14912441Y-16795779D02*
X14921965Y-16776731D01*
X14921965Y-16776731D02*
X14931488Y-16748160D01*
X14931488Y-16748160D02*
X14941012Y-16700541D01*
X14941012Y-16700541D02*
X14941012Y-16662446D01*
X14941012Y-16662446D02*
X14931488Y-16614826D01*
X14931488Y-16614826D02*
X14921965Y-16586255D01*
X14921965Y-16586255D02*
X14912441Y-16567207D01*
X14912441Y-16567207D02*
X14893393Y-16538636D01*
X14893393Y-16538636D02*
X14883869Y-16529112D01*
D18*
X9808330Y-16875200D02*
X9918330Y-16985200D01*
X9918330Y-16875200D02*
X9808330Y-16985200D01*
X9863330Y-16985200D02*
X9918330Y-16930200D01*
X9863330Y-16875200D01*
X9808330Y-16930200D01*
X9863330Y-16985200D01*
D11*
X10283869Y-17021684D02*
X10169583Y-17021684D01*
X10226726Y-17021684D02*
X10226726Y-16821684D01*
X10226726Y-16821684D02*
X10207678Y-16850255D01*
X10207678Y-16850255D02*
X10188631Y-16869303D01*
X10188631Y-16869303D02*
X10169583Y-16878827D01*
X10369583Y-17002636D02*
X10379107Y-17012160D01*
X10379107Y-17012160D02*
X10369583Y-17021684D01*
X10369583Y-17021684D02*
X10360059Y-17012160D01*
X10360059Y-17012160D02*
X10369583Y-17002636D01*
X10369583Y-17002636D02*
X10369583Y-17021684D01*
X10569583Y-17021684D02*
X10455298Y-17021684D01*
X10512440Y-17021684D02*
X10512440Y-16821684D01*
X10512440Y-16821684D02*
X10493393Y-16850255D01*
X10493393Y-16850255D02*
X10474345Y-16869303D01*
X10474345Y-16869303D02*
X10455298Y-16878827D01*
X10693393Y-16821684D02*
X10712440Y-16821684D01*
X10712440Y-16821684D02*
X10731488Y-16831208D01*
X10731488Y-16831208D02*
X10741012Y-16840731D01*
X10741012Y-16840731D02*
X10750536Y-16859779D01*
X10750536Y-16859779D02*
X10760059Y-16897874D01*
X10760059Y-16897874D02*
X10760059Y-16945493D01*
X10760059Y-16945493D02*
X10750536Y-16983588D01*
X10750536Y-16983588D02*
X10741012Y-17002636D01*
X10741012Y-17002636D02*
X10731488Y-17012160D01*
X10731488Y-17012160D02*
X10712440Y-17021684D01*
X10712440Y-17021684D02*
X10693393Y-17021684D01*
X10693393Y-17021684D02*
X10674345Y-17012160D01*
X10674345Y-17012160D02*
X10664821Y-17002636D01*
X10664821Y-17002636D02*
X10655298Y-16983588D01*
X10655298Y-16983588D02*
X10645774Y-16945493D01*
X10645774Y-16945493D02*
X10645774Y-16897874D01*
X10645774Y-16897874D02*
X10655298Y-16859779D01*
X10655298Y-16859779D02*
X10664821Y-16840731D01*
X10664821Y-16840731D02*
X10674345Y-16831208D01*
X10674345Y-16831208D02*
X10693393Y-16821684D01*
X10883869Y-16821684D02*
X10902917Y-16821684D01*
X10902917Y-16821684D02*
X10921964Y-16831208D01*
X10921964Y-16831208D02*
X10931488Y-16840731D01*
X10931488Y-16840731D02*
X10941012Y-16859779D01*
X10941012Y-16859779D02*
X10950536Y-16897874D01*
X10950536Y-16897874D02*
X10950536Y-16945493D01*
X10950536Y-16945493D02*
X10941012Y-16983588D01*
X10941012Y-16983588D02*
X10931488Y-17002636D01*
X10931488Y-17002636D02*
X10921964Y-17012160D01*
X10921964Y-17012160D02*
X10902917Y-17021684D01*
X10902917Y-17021684D02*
X10883869Y-17021684D01*
X10883869Y-17021684D02*
X10864821Y-17012160D01*
X10864821Y-17012160D02*
X10855298Y-17002636D01*
X10855298Y-17002636D02*
X10845774Y-16983588D01*
X10845774Y-16983588D02*
X10836250Y-16945493D01*
X10836250Y-16945493D02*
X10836250Y-16897874D01*
X10836250Y-16897874D02*
X10845774Y-16859779D01*
X10845774Y-16859779D02*
X10855298Y-16840731D01*
X10855298Y-16840731D02*
X10864821Y-16831208D01*
X10864821Y-16831208D02*
X10883869Y-16821684D01*
X11036250Y-17021684D02*
X11036250Y-16888350D01*
X11036250Y-16907398D02*
X11045774Y-16897874D01*
X11045774Y-16897874D02*
X11064821Y-16888350D01*
X11064821Y-16888350D02*
X11093393Y-16888350D01*
X11093393Y-16888350D02*
X11112440Y-16897874D01*
X11112440Y-16897874D02*
X11121964Y-16916922D01*
X11121964Y-16916922D02*
X11121964Y-17021684D01*
X11121964Y-16916922D02*
X11131488Y-16897874D01*
X11131488Y-16897874D02*
X11150536Y-16888350D01*
X11150536Y-16888350D02*
X11179107Y-16888350D01*
X11179107Y-16888350D02*
X11198155Y-16897874D01*
X11198155Y-16897874D02*
X11207678Y-16916922D01*
X11207678Y-16916922D02*
X11207678Y-17021684D01*
X11302917Y-17021684D02*
X11302917Y-16888350D01*
X11302917Y-16907398D02*
X11312440Y-16897874D01*
X11312440Y-16897874D02*
X11331488Y-16888350D01*
X11331488Y-16888350D02*
X11360059Y-16888350D01*
X11360059Y-16888350D02*
X11379107Y-16897874D01*
X11379107Y-16897874D02*
X11388631Y-16916922D01*
X11388631Y-16916922D02*
X11388631Y-17021684D01*
X11388631Y-16916922D02*
X11398155Y-16897874D01*
X11398155Y-16897874D02*
X11417202Y-16888350D01*
X11417202Y-16888350D02*
X11445774Y-16888350D01*
X11445774Y-16888350D02*
X11464821Y-16897874D01*
X11464821Y-16897874D02*
X11474345Y-16916922D01*
X11474345Y-16916922D02*
X11474345Y-17021684D01*
X11864821Y-16812160D02*
X11693393Y-17069303D01*
X12121964Y-16821684D02*
X12141012Y-16821684D01*
X12141012Y-16821684D02*
X12160060Y-16831208D01*
X12160060Y-16831208D02*
X12169583Y-16840731D01*
X12169583Y-16840731D02*
X12179107Y-16859779D01*
X12179107Y-16859779D02*
X12188631Y-16897874D01*
X12188631Y-16897874D02*
X12188631Y-16945493D01*
X12188631Y-16945493D02*
X12179107Y-16983588D01*
X12179107Y-16983588D02*
X12169583Y-17002636D01*
X12169583Y-17002636D02*
X12160060Y-17012160D01*
X12160060Y-17012160D02*
X12141012Y-17021684D01*
X12141012Y-17021684D02*
X12121964Y-17021684D01*
X12121964Y-17021684D02*
X12102917Y-17012160D01*
X12102917Y-17012160D02*
X12093393Y-17002636D01*
X12093393Y-17002636D02*
X12083869Y-16983588D01*
X12083869Y-16983588D02*
X12074345Y-16945493D01*
X12074345Y-16945493D02*
X12074345Y-16897874D01*
X12074345Y-16897874D02*
X12083869Y-16859779D01*
X12083869Y-16859779D02*
X12093393Y-16840731D01*
X12093393Y-16840731D02*
X12102917Y-16831208D01*
X12102917Y-16831208D02*
X12121964Y-16821684D01*
X12274345Y-17002636D02*
X12283869Y-17012160D01*
X12283869Y-17012160D02*
X12274345Y-17021684D01*
X12274345Y-17021684D02*
X12264821Y-17012160D01*
X12264821Y-17012160D02*
X12274345Y-17002636D01*
X12274345Y-17002636D02*
X12274345Y-17021684D01*
X12407679Y-16821684D02*
X12426726Y-16821684D01*
X12426726Y-16821684D02*
X12445774Y-16831208D01*
X12445774Y-16831208D02*
X12455298Y-16840731D01*
X12455298Y-16840731D02*
X12464821Y-16859779D01*
X12464821Y-16859779D02*
X12474345Y-16897874D01*
X12474345Y-16897874D02*
X12474345Y-16945493D01*
X12474345Y-16945493D02*
X12464821Y-16983588D01*
X12464821Y-16983588D02*
X12455298Y-17002636D01*
X12455298Y-17002636D02*
X12445774Y-17012160D01*
X12445774Y-17012160D02*
X12426726Y-17021684D01*
X12426726Y-17021684D02*
X12407679Y-17021684D01*
X12407679Y-17021684D02*
X12388631Y-17012160D01*
X12388631Y-17012160D02*
X12379107Y-17002636D01*
X12379107Y-17002636D02*
X12369583Y-16983588D01*
X12369583Y-16983588D02*
X12360060Y-16945493D01*
X12360060Y-16945493D02*
X12360060Y-16897874D01*
X12360060Y-16897874D02*
X12369583Y-16859779D01*
X12369583Y-16859779D02*
X12379107Y-16840731D01*
X12379107Y-16840731D02*
X12388631Y-16831208D01*
X12388631Y-16831208D02*
X12407679Y-16821684D01*
X12645774Y-16888350D02*
X12645774Y-17021684D01*
X12598155Y-16812160D02*
X12550536Y-16955017D01*
X12550536Y-16955017D02*
X12674345Y-16955017D01*
X12731488Y-16821684D02*
X12855298Y-16821684D01*
X12855298Y-16821684D02*
X12788631Y-16897874D01*
X12788631Y-16897874D02*
X12817202Y-16897874D01*
X12817202Y-16897874D02*
X12836250Y-16907398D01*
X12836250Y-16907398D02*
X12845774Y-16916922D01*
X12845774Y-16916922D02*
X12855298Y-16935969D01*
X12855298Y-16935969D02*
X12855298Y-16983588D01*
X12855298Y-16983588D02*
X12845774Y-17002636D01*
X12845774Y-17002636D02*
X12836250Y-17012160D01*
X12836250Y-17012160D02*
X12817202Y-17021684D01*
X12817202Y-17021684D02*
X12760060Y-17021684D01*
X12760060Y-17021684D02*
X12741012Y-17012160D01*
X12741012Y-17012160D02*
X12731488Y-17002636D01*
X12921964Y-16821684D02*
X13045774Y-16821684D01*
X13045774Y-16821684D02*
X12979107Y-16897874D01*
X12979107Y-16897874D02*
X13007679Y-16897874D01*
X13007679Y-16897874D02*
X13026726Y-16907398D01*
X13026726Y-16907398D02*
X13036250Y-16916922D01*
X13036250Y-16916922D02*
X13045774Y-16935969D01*
X13045774Y-16935969D02*
X13045774Y-16983588D01*
X13045774Y-16983588D02*
X13036250Y-17002636D01*
X13036250Y-17002636D02*
X13026726Y-17012160D01*
X13026726Y-17012160D02*
X13007679Y-17021684D01*
X13007679Y-17021684D02*
X12950536Y-17021684D01*
X12950536Y-17021684D02*
X12931488Y-17012160D01*
X12931488Y-17012160D02*
X12921964Y-17002636D01*
X13121964Y-16821684D02*
X13121964Y-16859779D01*
X13198155Y-16821684D02*
X13198155Y-16859779D01*
X13493393Y-17097874D02*
X13483869Y-17088350D01*
X13483869Y-17088350D02*
X13464822Y-17059779D01*
X13464822Y-17059779D02*
X13455298Y-17040731D01*
X13455298Y-17040731D02*
X13445774Y-17012160D01*
X13445774Y-17012160D02*
X13436250Y-16964541D01*
X13436250Y-16964541D02*
X13436250Y-16926446D01*
X13436250Y-16926446D02*
X13445774Y-16878827D01*
X13445774Y-16878827D02*
X13455298Y-16850255D01*
X13455298Y-16850255D02*
X13464822Y-16831208D01*
X13464822Y-16831208D02*
X13483869Y-16802636D01*
X13483869Y-16802636D02*
X13493393Y-16793112D01*
X13664822Y-16821684D02*
X13569583Y-16821684D01*
X13569583Y-16821684D02*
X13560060Y-16916922D01*
X13560060Y-16916922D02*
X13569583Y-16907398D01*
X13569583Y-16907398D02*
X13588631Y-16897874D01*
X13588631Y-16897874D02*
X13636250Y-16897874D01*
X13636250Y-16897874D02*
X13655298Y-16907398D01*
X13655298Y-16907398D02*
X13664822Y-16916922D01*
X13664822Y-16916922D02*
X13674345Y-16935969D01*
X13674345Y-16935969D02*
X13674345Y-16983588D01*
X13674345Y-16983588D02*
X13664822Y-17002636D01*
X13664822Y-17002636D02*
X13655298Y-17012160D01*
X13655298Y-17012160D02*
X13636250Y-17021684D01*
X13636250Y-17021684D02*
X13588631Y-17021684D01*
X13588631Y-17021684D02*
X13569583Y-17012160D01*
X13569583Y-17012160D02*
X13560060Y-17002636D01*
X13845774Y-16888350D02*
X13845774Y-17021684D01*
X13798155Y-16812160D02*
X13750536Y-16955017D01*
X13750536Y-16955017D02*
X13874345Y-16955017D01*
X14102917Y-17021684D02*
X14102917Y-16821684D01*
X14188631Y-17021684D02*
X14188631Y-16916922D01*
X14188631Y-16916922D02*
X14179107Y-16897874D01*
X14179107Y-16897874D02*
X14160060Y-16888350D01*
X14160060Y-16888350D02*
X14131488Y-16888350D01*
X14131488Y-16888350D02*
X14112441Y-16897874D01*
X14112441Y-16897874D02*
X14102917Y-16907398D01*
X14312441Y-17021684D02*
X14293393Y-17012160D01*
X14293393Y-17012160D02*
X14283869Y-17002636D01*
X14283869Y-17002636D02*
X14274345Y-16983588D01*
X14274345Y-16983588D02*
X14274345Y-16926446D01*
X14274345Y-16926446D02*
X14283869Y-16907398D01*
X14283869Y-16907398D02*
X14293393Y-16897874D01*
X14293393Y-16897874D02*
X14312441Y-16888350D01*
X14312441Y-16888350D02*
X14341012Y-16888350D01*
X14341012Y-16888350D02*
X14360060Y-16897874D01*
X14360060Y-16897874D02*
X14369584Y-16907398D01*
X14369584Y-16907398D02*
X14379107Y-16926446D01*
X14379107Y-16926446D02*
X14379107Y-16983588D01*
X14379107Y-16983588D02*
X14369584Y-17002636D01*
X14369584Y-17002636D02*
X14360060Y-17012160D01*
X14360060Y-17012160D02*
X14341012Y-17021684D01*
X14341012Y-17021684D02*
X14312441Y-17021684D01*
X14493393Y-17021684D02*
X14474345Y-17012160D01*
X14474345Y-17012160D02*
X14464822Y-16993112D01*
X14464822Y-16993112D02*
X14464822Y-16821684D01*
X14645774Y-17012160D02*
X14626726Y-17021684D01*
X14626726Y-17021684D02*
X14588631Y-17021684D01*
X14588631Y-17021684D02*
X14569584Y-17012160D01*
X14569584Y-17012160D02*
X14560060Y-16993112D01*
X14560060Y-16993112D02*
X14560060Y-16916922D01*
X14560060Y-16916922D02*
X14569584Y-16897874D01*
X14569584Y-16897874D02*
X14588631Y-16888350D01*
X14588631Y-16888350D02*
X14626726Y-16888350D01*
X14626726Y-16888350D02*
X14645774Y-16897874D01*
X14645774Y-16897874D02*
X14655298Y-16916922D01*
X14655298Y-16916922D02*
X14655298Y-16935969D01*
X14655298Y-16935969D02*
X14560060Y-16955017D01*
X14731488Y-17012160D02*
X14750536Y-17021684D01*
X14750536Y-17021684D02*
X14788631Y-17021684D01*
X14788631Y-17021684D02*
X14807679Y-17012160D01*
X14807679Y-17012160D02*
X14817203Y-16993112D01*
X14817203Y-16993112D02*
X14817203Y-16983588D01*
X14817203Y-16983588D02*
X14807679Y-16964541D01*
X14807679Y-16964541D02*
X14788631Y-16955017D01*
X14788631Y-16955017D02*
X14760060Y-16955017D01*
X14760060Y-16955017D02*
X14741012Y-16945493D01*
X14741012Y-16945493D02*
X14731488Y-16926446D01*
X14731488Y-16926446D02*
X14731488Y-16916922D01*
X14731488Y-16916922D02*
X14741012Y-16897874D01*
X14741012Y-16897874D02*
X14760060Y-16888350D01*
X14760060Y-16888350D02*
X14788631Y-16888350D01*
X14788631Y-16888350D02*
X14807679Y-16897874D01*
X14883869Y-17097874D02*
X14893393Y-17088350D01*
X14893393Y-17088350D02*
X14912441Y-17059779D01*
X14912441Y-17059779D02*
X14921965Y-17040731D01*
X14921965Y-17040731D02*
X14931488Y-17012160D01*
X14931488Y-17012160D02*
X14941012Y-16964541D01*
X14941012Y-16964541D02*
X14941012Y-16926446D01*
X14941012Y-16926446D02*
X14931488Y-16878827D01*
X14931488Y-16878827D02*
X14921965Y-16850255D01*
X14921965Y-16850255D02*
X14912441Y-16831208D01*
X14912441Y-16831208D02*
X14893393Y-16802636D01*
X14893393Y-16802636D02*
X14883869Y-16793112D01*
D19*
X9848330Y-17124200D02*
X9848330Y-17264200D01*
X9778330Y-17194200D02*
X9918330Y-17194200D01*
X9918330Y-17194200D02*
G75*
G03*
X9918330Y-17194200I-70000J0D01*
G01*
D11*
X10283869Y-17285684D02*
X10169583Y-17285684D01*
X10226726Y-17285684D02*
X10226726Y-17085684D01*
X10226726Y-17085684D02*
X10207678Y-17114255D01*
X10207678Y-17114255D02*
X10188631Y-17133303D01*
X10188631Y-17133303D02*
X10169583Y-17142827D01*
X10369583Y-17266636D02*
X10379107Y-17276160D01*
X10379107Y-17276160D02*
X10369583Y-17285684D01*
X10369583Y-17285684D02*
X10360059Y-17276160D01*
X10360059Y-17276160D02*
X10369583Y-17266636D01*
X10369583Y-17266636D02*
X10369583Y-17285684D01*
X10550536Y-17152350D02*
X10550536Y-17285684D01*
X10502917Y-17076160D02*
X10455298Y-17219017D01*
X10455298Y-17219017D02*
X10579107Y-17219017D01*
X10693393Y-17085684D02*
X10712440Y-17085684D01*
X10712440Y-17085684D02*
X10731488Y-17095208D01*
X10731488Y-17095208D02*
X10741012Y-17104731D01*
X10741012Y-17104731D02*
X10750536Y-17123779D01*
X10750536Y-17123779D02*
X10760059Y-17161874D01*
X10760059Y-17161874D02*
X10760059Y-17209493D01*
X10760059Y-17209493D02*
X10750536Y-17247588D01*
X10750536Y-17247588D02*
X10741012Y-17266636D01*
X10741012Y-17266636D02*
X10731488Y-17276160D01*
X10731488Y-17276160D02*
X10712440Y-17285684D01*
X10712440Y-17285684D02*
X10693393Y-17285684D01*
X10693393Y-17285684D02*
X10674345Y-17276160D01*
X10674345Y-17276160D02*
X10664821Y-17266636D01*
X10664821Y-17266636D02*
X10655298Y-17247588D01*
X10655298Y-17247588D02*
X10645774Y-17209493D01*
X10645774Y-17209493D02*
X10645774Y-17161874D01*
X10645774Y-17161874D02*
X10655298Y-17123779D01*
X10655298Y-17123779D02*
X10664821Y-17104731D01*
X10664821Y-17104731D02*
X10674345Y-17095208D01*
X10674345Y-17095208D02*
X10693393Y-17085684D01*
X10883869Y-17085684D02*
X10902917Y-17085684D01*
X10902917Y-17085684D02*
X10921964Y-17095208D01*
X10921964Y-17095208D02*
X10931488Y-17104731D01*
X10931488Y-17104731D02*
X10941012Y-17123779D01*
X10941012Y-17123779D02*
X10950536Y-17161874D01*
X10950536Y-17161874D02*
X10950536Y-17209493D01*
X10950536Y-17209493D02*
X10941012Y-17247588D01*
X10941012Y-17247588D02*
X10931488Y-17266636D01*
X10931488Y-17266636D02*
X10921964Y-17276160D01*
X10921964Y-17276160D02*
X10902917Y-17285684D01*
X10902917Y-17285684D02*
X10883869Y-17285684D01*
X10883869Y-17285684D02*
X10864821Y-17276160D01*
X10864821Y-17276160D02*
X10855298Y-17266636D01*
X10855298Y-17266636D02*
X10845774Y-17247588D01*
X10845774Y-17247588D02*
X10836250Y-17209493D01*
X10836250Y-17209493D02*
X10836250Y-17161874D01*
X10836250Y-17161874D02*
X10845774Y-17123779D01*
X10845774Y-17123779D02*
X10855298Y-17104731D01*
X10855298Y-17104731D02*
X10864821Y-17095208D01*
X10864821Y-17095208D02*
X10883869Y-17085684D01*
X11036250Y-17285684D02*
X11036250Y-17152350D01*
X11036250Y-17171398D02*
X11045774Y-17161874D01*
X11045774Y-17161874D02*
X11064821Y-17152350D01*
X11064821Y-17152350D02*
X11093393Y-17152350D01*
X11093393Y-17152350D02*
X11112440Y-17161874D01*
X11112440Y-17161874D02*
X11121964Y-17180922D01*
X11121964Y-17180922D02*
X11121964Y-17285684D01*
X11121964Y-17180922D02*
X11131488Y-17161874D01*
X11131488Y-17161874D02*
X11150536Y-17152350D01*
X11150536Y-17152350D02*
X11179107Y-17152350D01*
X11179107Y-17152350D02*
X11198155Y-17161874D01*
X11198155Y-17161874D02*
X11207678Y-17180922D01*
X11207678Y-17180922D02*
X11207678Y-17285684D01*
X11302917Y-17285684D02*
X11302917Y-17152350D01*
X11302917Y-17171398D02*
X11312440Y-17161874D01*
X11312440Y-17161874D02*
X11331488Y-17152350D01*
X11331488Y-17152350D02*
X11360059Y-17152350D01*
X11360059Y-17152350D02*
X11379107Y-17161874D01*
X11379107Y-17161874D02*
X11388631Y-17180922D01*
X11388631Y-17180922D02*
X11388631Y-17285684D01*
X11388631Y-17180922D02*
X11398155Y-17161874D01*
X11398155Y-17161874D02*
X11417202Y-17152350D01*
X11417202Y-17152350D02*
X11445774Y-17152350D01*
X11445774Y-17152350D02*
X11464821Y-17161874D01*
X11464821Y-17161874D02*
X11474345Y-17180922D01*
X11474345Y-17180922D02*
X11474345Y-17285684D01*
X11864821Y-17076160D02*
X11693393Y-17333303D01*
X12121964Y-17085684D02*
X12141012Y-17085684D01*
X12141012Y-17085684D02*
X12160060Y-17095208D01*
X12160060Y-17095208D02*
X12169583Y-17104731D01*
X12169583Y-17104731D02*
X12179107Y-17123779D01*
X12179107Y-17123779D02*
X12188631Y-17161874D01*
X12188631Y-17161874D02*
X12188631Y-17209493D01*
X12188631Y-17209493D02*
X12179107Y-17247588D01*
X12179107Y-17247588D02*
X12169583Y-17266636D01*
X12169583Y-17266636D02*
X12160060Y-17276160D01*
X12160060Y-17276160D02*
X12141012Y-17285684D01*
X12141012Y-17285684D02*
X12121964Y-17285684D01*
X12121964Y-17285684D02*
X12102917Y-17276160D01*
X12102917Y-17276160D02*
X12093393Y-17266636D01*
X12093393Y-17266636D02*
X12083869Y-17247588D01*
X12083869Y-17247588D02*
X12074345Y-17209493D01*
X12074345Y-17209493D02*
X12074345Y-17161874D01*
X12074345Y-17161874D02*
X12083869Y-17123779D01*
X12083869Y-17123779D02*
X12093393Y-17104731D01*
X12093393Y-17104731D02*
X12102917Y-17095208D01*
X12102917Y-17095208D02*
X12121964Y-17085684D01*
X12274345Y-17266636D02*
X12283869Y-17276160D01*
X12283869Y-17276160D02*
X12274345Y-17285684D01*
X12274345Y-17285684D02*
X12264821Y-17276160D01*
X12264821Y-17276160D02*
X12274345Y-17266636D01*
X12274345Y-17266636D02*
X12274345Y-17285684D01*
X12407679Y-17085684D02*
X12426726Y-17085684D01*
X12426726Y-17085684D02*
X12445774Y-17095208D01*
X12445774Y-17095208D02*
X12455298Y-17104731D01*
X12455298Y-17104731D02*
X12464821Y-17123779D01*
X12464821Y-17123779D02*
X12474345Y-17161874D01*
X12474345Y-17161874D02*
X12474345Y-17209493D01*
X12474345Y-17209493D02*
X12464821Y-17247588D01*
X12464821Y-17247588D02*
X12455298Y-17266636D01*
X12455298Y-17266636D02*
X12445774Y-17276160D01*
X12445774Y-17276160D02*
X12426726Y-17285684D01*
X12426726Y-17285684D02*
X12407679Y-17285684D01*
X12407679Y-17285684D02*
X12388631Y-17276160D01*
X12388631Y-17276160D02*
X12379107Y-17266636D01*
X12379107Y-17266636D02*
X12369583Y-17247588D01*
X12369583Y-17247588D02*
X12360060Y-17209493D01*
X12360060Y-17209493D02*
X12360060Y-17161874D01*
X12360060Y-17161874D02*
X12369583Y-17123779D01*
X12369583Y-17123779D02*
X12379107Y-17104731D01*
X12379107Y-17104731D02*
X12388631Y-17095208D01*
X12388631Y-17095208D02*
X12407679Y-17085684D01*
X12655298Y-17085684D02*
X12560060Y-17085684D01*
X12560060Y-17085684D02*
X12550536Y-17180922D01*
X12550536Y-17180922D02*
X12560060Y-17171398D01*
X12560060Y-17171398D02*
X12579107Y-17161874D01*
X12579107Y-17161874D02*
X12626726Y-17161874D01*
X12626726Y-17161874D02*
X12645774Y-17171398D01*
X12645774Y-17171398D02*
X12655298Y-17180922D01*
X12655298Y-17180922D02*
X12664821Y-17199969D01*
X12664821Y-17199969D02*
X12664821Y-17247588D01*
X12664821Y-17247588D02*
X12655298Y-17266636D01*
X12655298Y-17266636D02*
X12645774Y-17276160D01*
X12645774Y-17276160D02*
X12626726Y-17285684D01*
X12626726Y-17285684D02*
X12579107Y-17285684D01*
X12579107Y-17285684D02*
X12560060Y-17276160D01*
X12560060Y-17276160D02*
X12550536Y-17266636D01*
X12845774Y-17085684D02*
X12750536Y-17085684D01*
X12750536Y-17085684D02*
X12741012Y-17180922D01*
X12741012Y-17180922D02*
X12750536Y-17171398D01*
X12750536Y-17171398D02*
X12769583Y-17161874D01*
X12769583Y-17161874D02*
X12817202Y-17161874D01*
X12817202Y-17161874D02*
X12836250Y-17171398D01*
X12836250Y-17171398D02*
X12845774Y-17180922D01*
X12845774Y-17180922D02*
X12855298Y-17199969D01*
X12855298Y-17199969D02*
X12855298Y-17247588D01*
X12855298Y-17247588D02*
X12845774Y-17266636D01*
X12845774Y-17266636D02*
X12836250Y-17276160D01*
X12836250Y-17276160D02*
X12817202Y-17285684D01*
X12817202Y-17285684D02*
X12769583Y-17285684D01*
X12769583Y-17285684D02*
X12750536Y-17276160D01*
X12750536Y-17276160D02*
X12741012Y-17266636D01*
X13045774Y-17285684D02*
X12931488Y-17285684D01*
X12988631Y-17285684D02*
X12988631Y-17085684D01*
X12988631Y-17085684D02*
X12969583Y-17114255D01*
X12969583Y-17114255D02*
X12950536Y-17133303D01*
X12950536Y-17133303D02*
X12931488Y-17142827D01*
X13121964Y-17085684D02*
X13121964Y-17123779D01*
X13198155Y-17085684D02*
X13198155Y-17123779D01*
X13493393Y-17361874D02*
X13483869Y-17352350D01*
X13483869Y-17352350D02*
X13464822Y-17323779D01*
X13464822Y-17323779D02*
X13455298Y-17304731D01*
X13455298Y-17304731D02*
X13445774Y-17276160D01*
X13445774Y-17276160D02*
X13436250Y-17228541D01*
X13436250Y-17228541D02*
X13436250Y-17190446D01*
X13436250Y-17190446D02*
X13445774Y-17142827D01*
X13445774Y-17142827D02*
X13455298Y-17114255D01*
X13455298Y-17114255D02*
X13464822Y-17095208D01*
X13464822Y-17095208D02*
X13483869Y-17066636D01*
X13483869Y-17066636D02*
X13493393Y-17057112D01*
X13598155Y-17171398D02*
X13579107Y-17161874D01*
X13579107Y-17161874D02*
X13569583Y-17152350D01*
X13569583Y-17152350D02*
X13560060Y-17133303D01*
X13560060Y-17133303D02*
X13560060Y-17123779D01*
X13560060Y-17123779D02*
X13569583Y-17104731D01*
X13569583Y-17104731D02*
X13579107Y-17095208D01*
X13579107Y-17095208D02*
X13598155Y-17085684D01*
X13598155Y-17085684D02*
X13636250Y-17085684D01*
X13636250Y-17085684D02*
X13655298Y-17095208D01*
X13655298Y-17095208D02*
X13664822Y-17104731D01*
X13664822Y-17104731D02*
X13674345Y-17123779D01*
X13674345Y-17123779D02*
X13674345Y-17133303D01*
X13674345Y-17133303D02*
X13664822Y-17152350D01*
X13664822Y-17152350D02*
X13655298Y-17161874D01*
X13655298Y-17161874D02*
X13636250Y-17171398D01*
X13636250Y-17171398D02*
X13598155Y-17171398D01*
X13598155Y-17171398D02*
X13579107Y-17180922D01*
X13579107Y-17180922D02*
X13569583Y-17190446D01*
X13569583Y-17190446D02*
X13560060Y-17209493D01*
X13560060Y-17209493D02*
X13560060Y-17247588D01*
X13560060Y-17247588D02*
X13569583Y-17266636D01*
X13569583Y-17266636D02*
X13579107Y-17276160D01*
X13579107Y-17276160D02*
X13598155Y-17285684D01*
X13598155Y-17285684D02*
X13636250Y-17285684D01*
X13636250Y-17285684D02*
X13655298Y-17276160D01*
X13655298Y-17276160D02*
X13664822Y-17266636D01*
X13664822Y-17266636D02*
X13674345Y-17247588D01*
X13674345Y-17247588D02*
X13674345Y-17209493D01*
X13674345Y-17209493D02*
X13664822Y-17190446D01*
X13664822Y-17190446D02*
X13655298Y-17180922D01*
X13655298Y-17180922D02*
X13636250Y-17171398D01*
X13912441Y-17285684D02*
X13912441Y-17085684D01*
X13998155Y-17285684D02*
X13998155Y-17180922D01*
X13998155Y-17180922D02*
X13988631Y-17161874D01*
X13988631Y-17161874D02*
X13969584Y-17152350D01*
X13969584Y-17152350D02*
X13941012Y-17152350D01*
X13941012Y-17152350D02*
X13921964Y-17161874D01*
X13921964Y-17161874D02*
X13912441Y-17171398D01*
X14121964Y-17285684D02*
X14102917Y-17276160D01*
X14102917Y-17276160D02*
X14093393Y-17266636D01*
X14093393Y-17266636D02*
X14083869Y-17247588D01*
X14083869Y-17247588D02*
X14083869Y-17190446D01*
X14083869Y-17190446D02*
X14093393Y-17171398D01*
X14093393Y-17171398D02*
X14102917Y-17161874D01*
X14102917Y-17161874D02*
X14121964Y-17152350D01*
X14121964Y-17152350D02*
X14150536Y-17152350D01*
X14150536Y-17152350D02*
X14169584Y-17161874D01*
X14169584Y-17161874D02*
X14179107Y-17171398D01*
X14179107Y-17171398D02*
X14188631Y-17190446D01*
X14188631Y-17190446D02*
X14188631Y-17247588D01*
X14188631Y-17247588D02*
X14179107Y-17266636D01*
X14179107Y-17266636D02*
X14169584Y-17276160D01*
X14169584Y-17276160D02*
X14150536Y-17285684D01*
X14150536Y-17285684D02*
X14121964Y-17285684D01*
X14302917Y-17285684D02*
X14283869Y-17276160D01*
X14283869Y-17276160D02*
X14274345Y-17257112D01*
X14274345Y-17257112D02*
X14274345Y-17085684D01*
X14455298Y-17276160D02*
X14436250Y-17285684D01*
X14436250Y-17285684D02*
X14398155Y-17285684D01*
X14398155Y-17285684D02*
X14379107Y-17276160D01*
X14379107Y-17276160D02*
X14369584Y-17257112D01*
X14369584Y-17257112D02*
X14369584Y-17180922D01*
X14369584Y-17180922D02*
X14379107Y-17161874D01*
X14379107Y-17161874D02*
X14398155Y-17152350D01*
X14398155Y-17152350D02*
X14436250Y-17152350D01*
X14436250Y-17152350D02*
X14455298Y-17161874D01*
X14455298Y-17161874D02*
X14464822Y-17180922D01*
X14464822Y-17180922D02*
X14464822Y-17199969D01*
X14464822Y-17199969D02*
X14369584Y-17219017D01*
X14541012Y-17276160D02*
X14560060Y-17285684D01*
X14560060Y-17285684D02*
X14598155Y-17285684D01*
X14598155Y-17285684D02*
X14617203Y-17276160D01*
X14617203Y-17276160D02*
X14626726Y-17257112D01*
X14626726Y-17257112D02*
X14626726Y-17247588D01*
X14626726Y-17247588D02*
X14617203Y-17228541D01*
X14617203Y-17228541D02*
X14598155Y-17219017D01*
X14598155Y-17219017D02*
X14569584Y-17219017D01*
X14569584Y-17219017D02*
X14550536Y-17209493D01*
X14550536Y-17209493D02*
X14541012Y-17190446D01*
X14541012Y-17190446D02*
X14541012Y-17180922D01*
X14541012Y-17180922D02*
X14550536Y-17161874D01*
X14550536Y-17161874D02*
X14569584Y-17152350D01*
X14569584Y-17152350D02*
X14598155Y-17152350D01*
X14598155Y-17152350D02*
X14617203Y-17161874D01*
X14693393Y-17361874D02*
X14702917Y-17352350D01*
X14702917Y-17352350D02*
X14721965Y-17323779D01*
X14721965Y-17323779D02*
X14731488Y-17304731D01*
X14731488Y-17304731D02*
X14741012Y-17276160D01*
X14741012Y-17276160D02*
X14750536Y-17228541D01*
X14750536Y-17228541D02*
X14750536Y-17190446D01*
X14750536Y-17190446D02*
X14741012Y-17142827D01*
X14741012Y-17142827D02*
X14731488Y-17114255D01*
X14731488Y-17114255D02*
X14721965Y-17095208D01*
X14721965Y-17095208D02*
X14702917Y-17066636D01*
X14702917Y-17066636D02*
X14693393Y-17057112D01*
M02*
