M48
; DRILL file {KiCad 7.0.6} date Tue Apr 16 16:57:37 2024
; FORMAT={-:-/ absolute / metric / decimal}
; #@! TF.CreationDate,2024-04-16T16:57:37+10:00
; #@! TF.GenerationSoftware,Kicad,Pcbnew,7.0.6
; #@! TF.FileFunction,Plated,1,2,PTH
FMAT,2
METRIC
; #@! TA.AperFunction,Plated,PTH,ViaDrill
T1C0.400
; #@! TA.AperFunction,Plated,PTH,ViaDrill
T2C0.500
; #@! TA.AperFunction,Plated,PTH,ViaDrill
T3C0.600
; #@! TA.AperFunction,Plated,PTH,ComponentDrill
T4C0.750
; #@! TA.AperFunction,Plated,PTH,ComponentDrill
T5C0.800
; #@! TA.AperFunction,Plated,PTH,ViaDrill
T6C1.000
; #@! TA.AperFunction,Plated,PTH,ComponentDrill
T7C1.000
; #@! TA.AperFunction,Plated,PTH,ComponentDrill
T8C1.016
; #@! TA.AperFunction,Plated,PTH,ComponentDrill
T9C1.100
; #@! TA.AperFunction,Plated,PTH,ComponentDrill
T10C1.400
%
G90
G05
T1
X158.75Y-121.285
T2
X135.305Y-129.617
T3
X129.54Y-59.182
X136.906Y-59.182
X144.272Y-61.976
X150.368Y-59.944
X157.48Y-97.155
X167.894Y-126.746
T4
X108.458Y-104.902
X109.728Y-103.632
X110.998Y-104.902
X173.482Y-76.052
X174.752Y-74.782
X176.022Y-76.052
T5
X157.48Y-74.91
X157.48Y-77.45
T6
X129.54Y-66.548
X152.883Y-57.328
X165.542Y-56.707
X179.197Y-82.804
T7
X110.744Y-84.328
X110.744Y-87.328
X118.364Y-119.634
X120.65Y-110.236
X123.19Y-110.236
X125.73Y-110.236
X125.778Y-123.015
X125.778Y-126.015
X128.27Y-110.236
X128.778Y-123.015
X128.778Y-126.015
X129.54Y-82.296
X130.81Y-110.236
X138.684Y-53.594
X157.632Y-60.096
X167.132Y-69.596
X172.593Y-69.596
T8
X161.116Y-79.656
X161.136Y-82.196
X161.136Y-84.736
X161.136Y-87.276
X161.136Y-89.816
X161.136Y-92.356
X161.136Y-94.896
X161.136Y-97.436
X161.136Y-99.976
X161.136Y-102.516
X166.216Y-102.516
X166.216Y-105.056
X166.216Y-107.596
X168.756Y-102.516
X168.756Y-105.056
X168.756Y-107.596
X171.296Y-107.596
X173.836Y-107.596
X176.376Y-107.596
X178.916Y-107.596
X181.456Y-84.736
X181.456Y-102.516
X183.361Y-88.368
X183.361Y-91.873
X183.361Y-95.404
X183.361Y-98.884
X183.996Y-84.736
X183.996Y-102.516
T9
X107.315Y-96.901
X109.855Y-96.901
X112.395Y-96.901
X137.922Y-65.024
X137.922Y-67.564
X137.922Y-70.104
X137.922Y-72.644
X137.922Y-75.184
X137.922Y-77.724
X137.922Y-80.264
X137.922Y-82.804
X137.922Y-85.344
X137.922Y-87.884
X137.922Y-90.424
X137.922Y-92.964
X137.922Y-95.504
X137.922Y-98.044
X137.922Y-100.584
X137.922Y-103.124
X137.922Y-105.664
X137.922Y-108.204
X137.922Y-110.744
X137.922Y-113.284
X137.922Y-115.824
X137.922Y-118.364
X137.922Y-120.904
X137.922Y-123.444
X153.162Y-65.024
X153.162Y-67.564
X153.162Y-70.104
X153.162Y-72.644
X153.162Y-75.184
X153.162Y-77.724
X153.162Y-80.264
X153.162Y-82.804
X153.162Y-85.344
X153.162Y-87.884
X153.162Y-90.424
X153.162Y-92.964
X153.162Y-95.504
X153.162Y-98.044
X153.162Y-100.584
X153.162Y-103.124
X153.162Y-105.664
X153.162Y-108.204
X153.162Y-110.744
X153.162Y-113.284
X153.162Y-115.824
X153.162Y-118.364
X153.162Y-120.904
X153.162Y-123.444
X180.213Y-74.803
X182.753Y-74.803
X185.293Y-74.803
T10
X161.886Y-112.522
X161.886Y-116.722
X167.386Y-112.522
X167.386Y-116.722
X174.752Y-112.522
X174.752Y-118.022
X179.07Y-64.35
X179.07Y-69.85
T0
M30
