%TF.GenerationSoftware,KiCad,Pcbnew,7.0.6*%
%TF.CreationDate,2024-04-16T16:57:35+10:00*%
%TF.ProjectId,Rocketry_Payload_Main_DDR_Spec_V2,526f636b-6574-4727-995f-5061796c6f61,rev?*%
%TF.SameCoordinates,Original*%
%TF.FileFunction,Soldermask,Bot*%
%TF.FilePolarity,Negative*%
%FSLAX46Y46*%
G04 Gerber Fmt 4.6, Leading zero omitted, Abs format (unit mm)*
G04 Created by KiCad (PCBNEW 7.0.6) date 2024-04-16 16:57:35*
%MOMM*%
%LPD*%
G01*
G04 APERTURE LIST*
G04 Aperture macros list*
%AMRoundRect*
0 Rectangle with rounded corners*
0 $1 Rounding radius*
0 $2 $3 $4 $5 $6 $7 $8 $9 X,Y pos of 4 corners*
0 Add a 4 corners polygon primitive as box body*
4,1,4,$2,$3,$4,$5,$6,$7,$8,$9,$2,$3,0*
0 Add four circle primitives for the rounded corners*
1,1,$1+$1,$2,$3*
1,1,$1+$1,$4,$5*
1,1,$1+$1,$6,$7*
1,1,$1+$1,$8,$9*
0 Add four rect primitives between the rounded corners*
20,1,$1+$1,$2,$3,$4,$5,0*
20,1,$1+$1,$4,$5,$6,$7,0*
20,1,$1+$1,$6,$7,$8,$9,0*
20,1,$1+$1,$8,$9,$2,$3,0*%
G04 Aperture macros list end*
%ADD10C,2.000000*%
%ADD11C,6.700000*%
%ADD12RoundRect,0.250001X-1.399999X1.099999X-1.399999X-1.099999X1.399999X-1.099999X1.399999X1.099999X0*%
%ADD13O,3.300000X2.700000*%
%ADD14C,1.000000*%
%ADD15RoundRect,0.250001X-0.499999X-0.499999X0.499999X-0.499999X0.499999X0.499999X-0.499999X0.499999X0*%
%ADD16C,1.500000*%
%ADD17C,1.400000*%
%ADD18RoundRect,0.250001X-0.499999X0.499999X-0.499999X-0.499999X0.499999X-0.499999X0.499999X0.499999X0*%
%ADD19R,1.300000X1.300000*%
%ADD20C,1.300000*%
%ADD21R,1.600000X1.600000*%
%ADD22C,1.600000*%
%ADD23RoundRect,0.250001X1.099999X1.399999X-1.099999X1.399999X-1.099999X-1.399999X1.099999X-1.399999X0*%
%ADD24O,2.700000X3.300000*%
%ADD25C,2.500000*%
%ADD26RoundRect,0.250001X-1.099999X-1.399999X1.099999X-1.399999X1.099999X1.399999X-1.099999X1.399999X0*%
%ADD27R,1.905000X2.000000*%
%ADD28O,1.905000X2.000000*%
%ADD29R,1.700000X1.700000*%
%ADD30O,1.700000X1.700000*%
%ADD31C,1.524000*%
G04 APERTURE END LIST*
D10*
%TO.C,TP3*%
X172593000Y-69596000D03*
%TD*%
%TO.C,TP4*%
X167132000Y-69596000D03*
%TD*%
%TO.C,TP3*%
X129540000Y-82296000D03*
%TD*%
%TO.C,TP2*%
X118364000Y-119634000D03*
%TD*%
D11*
%TO.C,REF\u002A\u002A*%
X111461000Y-113916000D03*
%TD*%
D12*
%TO.C,J2*%
X167386000Y-112522000D03*
D13*
X167386000Y-116722000D03*
X161886000Y-112522000D03*
X161886000Y-116722000D03*
%TD*%
D10*
%TO.C,TP6*%
X138684000Y-53594000D03*
%TD*%
D14*
%TO.C,J1*%
X107744000Y-88268000D03*
X113744000Y-88268000D03*
D15*
X110744000Y-84328000D03*
D16*
X110744000Y-87328000D03*
%TD*%
D17*
%TO.C,SJ2*%
X157480000Y-77450000D03*
X157480000Y-74910000D03*
%TD*%
D14*
%TO.C,U4*%
X124838000Y-120015000D03*
X124838000Y-129015000D03*
D18*
X128778000Y-123015000D03*
D16*
X128778000Y-126015000D03*
X125778000Y-123015000D03*
X125778000Y-126015000D03*
%TD*%
D19*
%TO.C,Q4*%
X173482000Y-76052000D03*
D20*
X174752000Y-74782000D03*
X176022000Y-76052000D03*
%TD*%
D21*
%TO.C,U2*%
X153162000Y-123444000D03*
D22*
X153162000Y-120904000D03*
X153162000Y-118364000D03*
X153162000Y-115824000D03*
X153162000Y-113284000D03*
X153162000Y-110744000D03*
X153162000Y-108204000D03*
X153162000Y-105664000D03*
X153162000Y-103124000D03*
X153162000Y-100584000D03*
X153162000Y-98044000D03*
X153162000Y-95504000D03*
X153162000Y-92964000D03*
X153162000Y-90424000D03*
X153162000Y-87884000D03*
X153162000Y-85344000D03*
X153162000Y-82804000D03*
X153162000Y-80264000D03*
X153162000Y-77724000D03*
X153162000Y-75184000D03*
X153162000Y-72644000D03*
X153162000Y-70104000D03*
X153162000Y-67564000D03*
X153162000Y-65024000D03*
X137922000Y-65024000D03*
X137922000Y-67564000D03*
X137922000Y-70104000D03*
X137922000Y-72644000D03*
X137922000Y-75184000D03*
X137922000Y-77724000D03*
X137922000Y-80264000D03*
X137922000Y-82804000D03*
X137922000Y-85344000D03*
X137922000Y-87884000D03*
X137922000Y-90424000D03*
X137922000Y-92964000D03*
X137922000Y-95504000D03*
X137922000Y-98044000D03*
X137922000Y-100584000D03*
X137922000Y-103124000D03*
X137922000Y-105664000D03*
X137922000Y-108204000D03*
X137922000Y-110744000D03*
X137922000Y-113284000D03*
X137922000Y-115824000D03*
X137922000Y-118364000D03*
X137922000Y-120904000D03*
X137922000Y-123444000D03*
%TD*%
D11*
%TO.C,REF\u002A\u002A*%
X148336000Y-50536497D03*
%TD*%
D23*
%TO.C,COMMISIONING_PWR1*%
X179070000Y-69850000D03*
D24*
X179070000Y-64350000D03*
%TD*%
D25*
%TO.C,REF\u002A\u002A*%
X132969000Y-94869000D03*
%TD*%
D26*
%TO.C,J3*%
X174752000Y-112522000D03*
D24*
X174752000Y-118022000D03*
%TD*%
D10*
%TO.C,TP5*%
X157632400Y-60096400D03*
%TD*%
D27*
%TO.C,Q1*%
X185293000Y-74803000D03*
D28*
X182753000Y-74803000D03*
X180213000Y-74803000D03*
%TD*%
D29*
%TO.C,U6*%
X130810000Y-110236000D03*
D30*
X128270000Y-110236000D03*
X125730000Y-110236000D03*
X123190000Y-110236000D03*
X120650000Y-110236000D03*
%TD*%
D11*
%TO.C,REF\u002A\u002A*%
X185121000Y-113916000D03*
%TD*%
D19*
%TO.C,Q6*%
X108458000Y-104902000D03*
D20*
X109728000Y-103632000D03*
X110998000Y-104902000D03*
%TD*%
D31*
%TO.C,U5*%
X161116000Y-79656000D03*
X161136000Y-82196000D03*
X161136000Y-84736000D03*
X161136000Y-87276000D03*
X161136000Y-89816000D03*
X161136000Y-92356000D03*
X161136000Y-94896000D03*
X161136000Y-97436000D03*
X161136000Y-99976000D03*
X161136000Y-102516000D03*
X168756000Y-102516000D03*
X166216000Y-107596000D03*
X171296000Y-107596000D03*
X173836000Y-107596000D03*
X176376000Y-107596000D03*
X178916000Y-107596000D03*
X166216000Y-105056000D03*
X168756000Y-105056000D03*
X166216000Y-102516000D03*
X168756000Y-107596000D03*
X183996000Y-102516000D03*
X181456000Y-102516000D03*
X183996000Y-84736000D03*
X181456000Y-84736000D03*
X183361000Y-88368200D03*
X183361000Y-91873400D03*
X183361000Y-95404000D03*
X183361000Y-98883800D03*
%TD*%
D27*
%TO.C,Q2*%
X107315000Y-96901000D03*
D28*
X109855000Y-96901000D03*
X112395000Y-96901000D03*
%TD*%
M02*
